<?xml version="1.0" encoding="utf-8" standalone="no"?>
<!DOCTYPE svg PUBLIC "-//W3C//DTD SVG 1.1//EN"
  "http://www.w3.org/Graphics/SVG/1.1/DTD/svg11.dtd">
<svg height="432pt" version="1.1" viewBox="0 0 864 432" width="864pt" xmlns="http://www.w3.org/2000/svg" xmlns:xlink="http://www.w3.org/1999/xlink">
 <metadata>
  <rdf:RDF xmlns:cc="http://creativecommons.org/ns#" xmlns:dc="http://purl.org/dc/elements/1.1/" xmlns:rdf="http://www.w3.org/1999/02/22-rdf-syntax-ns#">
   <cc:Work>
    <dc:type rdf:resource="http://purl.org/dc/dcmitype/StillImage"/>
    <dc:date>2025-05-06T21:33:06.333091</dc:date>
    <dc:format>image/svg+xml</dc:format>
    <dc:creator>
     <cc:Agent>
      <dc:title>Matplotlib v3.4.3, https://matplotlib.org/</dc:title>
     </cc:Agent>
    </dc:creator>
   </cc:Work>
  </rdf:RDF>
 </metadata>
 <defs>
  <style type="text/css">*{stroke-linecap:butt;stroke-linejoin:round;}</style>
 </defs>
 <g id="figure_1">
  <g id="patch_1">
   <path d="M 0 432 
L 864 432 
L 864 0 
L 0 0 
z
" style="fill:#ffffff;"/>
  </g>
  <g id="axes_1">
   <g id="patch_2">
    <path d="M 42.68 386.63125 
L 853.2 386.63125 
L 853.2 10.8 
L 42.68 10.8 
z
" style="fill:#ffffff;"/>
   </g>
   <g id="patch_3">
    <path clip-path="url(#p136921b596)" d="M 79.521818 762.4625 
L 102.790335 762.4625 
L 102.790335 172.257105 
L 79.521818 172.257105 
z
" style="fill:#4c72b0;"/>
   </g>
   <g id="patch_4">
    <path clip-path="url(#p136921b596)" d="M 234.645263 762.4625 
L 257.91378 762.4625 
L 257.91378 151.060223 
L 234.645263 151.060223 
z
" style="fill:#4c72b0;"/>
   </g>
   <g id="patch_5">
    <path clip-path="url(#p136921b596)" d="M 389.768708 762.4625 
L 413.037225 762.4625 
L 413.037225 128.961345 
L 389.768708 128.961345 
z
" style="fill:#4c72b0;"/>
   </g>
   <g id="patch_6">
    <path clip-path="url(#p136921b596)" d="M 544.892153 762.4625 
L 568.16067 762.4625 
L 568.16067 154.142039 
L 544.892153 154.142039 
z
" style="fill:#4c72b0;"/>
   </g>
   <g id="patch_7">
    <path clip-path="url(#p136921b596)" d="M 700.015598 762.4625 
L 723.284115 762.4625 
L 723.284115 186.313194 
L 700.015598 186.313194 
z
" style="fill:#4c72b0;"/>
   </g>
   <g id="patch_8">
    <path clip-path="url(#p136921b596)" d="M 102.790335 762.4625 
L 126.058852 762.4625 
L 126.058852 143.69393 
L 102.790335 143.69393 
z
" style="fill:#55a868;"/>
   </g>
   <g id="patch_9">
    <path clip-path="url(#p136921b596)" d="M 257.91378 762.4625 
L 281.182297 762.4625 
L 281.182297 114.22876 
L 257.91378 114.22876 
z
" style="fill:#55a868;"/>
   </g>
   <g id="patch_10">
    <path clip-path="url(#p136921b596)" d="M 413.037225 762.4625 
L 436.305742 762.4625 
L 436.305742 155.495031 
L 413.037225 155.495031 
z
" style="fill:#55a868;"/>
   </g>
   <g id="patch_11">
    <path clip-path="url(#p136921b596)" d="M 568.16067 762.4625 
L 591.429187 762.4625 
L 591.429187 171.35511 
L 568.16067 171.35511 
z
" style="fill:#55a868;"/>
   </g>
   <g id="patch_12">
    <path clip-path="url(#p136921b596)" d="M 723.284115 762.4625 
L 746.552632 762.4625 
L 746.552632 188.267516 
L 723.284115 188.267516 
z
" style="fill:#55a868;"/>
   </g>
   <g id="patch_13">
    <path clip-path="url(#p136921b596)" d="M 126.058852 762.4625 
L 149.327368 762.4625 
L 149.327368 219.386344 
L 126.058852 219.386344 
z
" style="fill:#c44e52;"/>
   </g>
   <g id="patch_14">
    <path clip-path="url(#p136921b596)" d="M 281.182297 762.4625 
L 304.450813 762.4625 
L 304.450813 193.529154 
L 281.182297 193.529154 
z
" style="fill:#c44e52;"/>
   </g>
   <g id="patch_15">
    <path clip-path="url(#p136921b596)" d="M 436.305742 762.4625 
L 459.574258 762.4625 
L 459.574258 179.698564 
L 436.305742 179.698564 
z
" style="fill:#c44e52;"/>
   </g>
   <g id="patch_16">
    <path clip-path="url(#p136921b596)" d="M 591.429187 762.4625 
L 614.697703 762.4625 
L 614.697703 167.371299 
L 591.429187 167.371299 
z
" style="fill:#c44e52;"/>
   </g>
   <g id="patch_17">
    <path clip-path="url(#p136921b596)" d="M 746.552632 762.4625 
L 769.821148 762.4625 
L 769.821148 135.27531 
L 746.552632 135.27531 
z
" style="fill:#c44e52;"/>
   </g>
   <g id="patch_18">
    <path clip-path="url(#p136921b596)" d="M 149.327368 762.4625 
L 172.595885 762.4625 
L 172.595885 135.425643 
L 149.327368 135.425643 
z
" style="fill:#8172b3;"/>
   </g>
   <g id="patch_19">
    <path clip-path="url(#p136921b596)" d="M 304.450813 762.4625 
L 327.71933 762.4625 
L 327.71933 126.029861 
L 304.450813 126.029861 
z
" style="fill:#8172b3;"/>
   </g>
   <g id="patch_20">
    <path clip-path="url(#p136921b596)" d="M 459.574258 762.4625 
L 482.842775 762.4625 
L 482.842775 97.541853 
L 459.574258 97.541853 
z
" style="fill:#8172b3;"/>
   </g>
   <g id="patch_21">
    <path clip-path="url(#p136921b596)" d="M 614.697703 762.4625 
L 637.96622 762.4625 
L 637.96622 153.240044 
L 614.697703 153.240044 
z
" style="fill:#8172b3;"/>
   </g>
   <g id="patch_22">
    <path clip-path="url(#p136921b596)" d="M 769.821148 762.4625 
L 793.089665 762.4625 
L 793.089665 154.593036 
L 769.821148 154.593036 
z
" style="fill:#8172b3;"/>
   </g>
   <g id="patch_23">
    <path clip-path="url(#p136921b596)" d="M 172.595885 762.4625 
L 195.864402 762.4625 
L 195.864402 152.037384 
L 172.595885 152.037384 
z
" style="fill:#ccb974;"/>
   </g>
   <g id="patch_24">
    <path clip-path="url(#p136921b596)" d="M 327.71933 762.4625 
L 350.987847 762.4625 
L 350.987847 136.252471 
L 327.71933 136.252471 
z
" style="fill:#ccb974;"/>
   </g>
   <g id="patch_25">
    <path clip-path="url(#p136921b596)" d="M 482.842775 762.4625 
L 506.111292 762.4625 
L 506.111292 108.967123 
L 482.842775 108.967123 
z
" style="fill:#ccb974;"/>
   </g>
   <g id="patch_26">
    <path clip-path="url(#p136921b596)" d="M 637.96622 762.4625 
L 661.234737 762.4625 
L 661.234737 120.84339 
L 637.96622 120.84339 
z
" style="fill:#ccb974;"/>
   </g>
   <g id="patch_27">
    <path clip-path="url(#p136921b596)" d="M 793.089665 762.4625 
L 816.358182 762.4625 
L 816.358182 131.291499 
L 793.089665 131.291499 
z
" style="fill:#ccb974;"/>
   </g>
   <g id="matplotlib.axis_1">
    <g id="xtick_1">
     <g id="line2d_1">
      <defs>
       <path d="M 0 0 
L 0 3.5 
" id="mcf053029c7" style="stroke:#000000;stroke-width:0.8;"/>
      </defs>
      <g>
       <use style="stroke:#000000;stroke-width:0.8;" x="137.69311" xlink:href="#mcf053029c7" y="386.63125"/>
      </g>
     </g>
     <g id="text_1">
      <!-- 16 -->
      <g transform="translate(131.69311 401.88125)scale(0.12 -0.12)">
       <defs>
        <path d="M 1400 3600 
Q 1075 3275 575 2975 
L 575 3450 
Q 1200 3875 1600 4450 
L 1900 4450 
L 1900 150 
L 1400 150 
L 1400 3600 
z
" id="SimHei-31" transform="scale(0.015625)"/>
        <path d="M 250 1612 
Q 275 1975 387 2225 
Q 500 2475 725 2850 
L 1750 4450 
L 2325 4450 
L 1275 2800 
Q 1950 2975 2350 2750 
Q 2750 2525 2887 2237 
Q 3025 1950 3037 1612 
Q 3050 1275 2937 950 
Q 2825 625 2537 362 
Q 2250 100 1737 75 
Q 1225 50 862 262 
Q 500 475 362 862 
Q 225 1250 250 1612 
z
M 1025 787 
Q 1250 550 1625 525 
Q 2000 500 2250 775 
Q 2500 1050 2500 1575 
Q 2500 2100 2187 2300 
Q 1875 2500 1487 2450 
Q 1100 2400 925 2075 
Q 750 1750 775 1387 
Q 800 1025 1025 787 
z
" id="SimHei-36" transform="scale(0.015625)"/>
       </defs>
       <use xlink:href="#SimHei-31"/>
       <use x="50" xlink:href="#SimHei-36"/>
      </g>
     </g>
    </g>
    <g id="xtick_2">
     <g id="line2d_2">
      <g>
       <use style="stroke:#000000;stroke-width:0.8;" x="292.816555" xlink:href="#mcf053029c7" y="386.63125"/>
      </g>
     </g>
     <g id="text_2">
      <!-- 32 -->
      <g transform="translate(286.816555 401.88125)scale(0.12 -0.12)">
       <defs>
        <path d="M 250 1225 
L 700 1300 
Q 800 975 1025 762 
Q 1250 550 1587 562 
Q 1925 575 2125 837 
Q 2325 1100 2300 1437 
Q 2275 1775 2037 1962 
Q 1800 2150 1275 2225 
L 1275 2550 
Q 1800 2600 2037 2825 
Q 2275 3050 2250 3412 
Q 2225 3775 1925 3937 
Q 1625 4100 1287 3975 
Q 950 3850 750 3275 
L 300 3350 
Q 450 3800 712 4100 
Q 975 4400 1425 4450 
Q 1875 4500 2212 4337 
Q 2550 4175 2687 3837 
Q 2825 3500 2725 3100 
Q 2625 2700 2150 2400 
Q 2500 2250 2687 1950 
Q 2875 1650 2812 1162 
Q 2750 675 2375 375 
Q 2000 75 1525 87 
Q 1050 100 700 387 
Q 350 675 250 1225 
z
" id="SimHei-33" transform="scale(0.015625)"/>
        <path d="M 300 250 
Q 325 625 650 925 
Q 975 1225 1475 1862 
Q 1975 2500 2125 2850 
Q 2275 3200 2237 3450 
Q 2200 3700 2000 3862 
Q 1800 4025 1537 4000 
Q 1275 3975 1037 3800 
Q 800 3625 675 3275 
L 200 3350 
Q 400 3925 712 4187 
Q 1025 4450 1450 4475 
Q 1700 4500 1900 4462 
Q 2100 4425 2312 4287 
Q 2525 4150 2662 3875 
Q 2800 3600 2762 3212 
Q 2725 2825 2375 2287 
Q 2025 1750 1025 600 
L 2825 600 
L 2825 150 
L 300 150 
L 300 250 
z
" id="SimHei-32" transform="scale(0.015625)"/>
       </defs>
       <use xlink:href="#SimHei-33"/>
       <use x="50" xlink:href="#SimHei-32"/>
      </g>
     </g>
    </g>
    <g id="xtick_3">
     <g id="line2d_3">
      <g>
       <use style="stroke:#000000;stroke-width:0.8;" x="447.94" xlink:href="#mcf053029c7" y="386.63125"/>
      </g>
     </g>
     <g id="text_3">
      <!-- 64 -->
      <g transform="translate(441.94 401.88125)scale(0.12 -0.12)">
       <defs>
        <path d="M 2000 1100 
L 75 1100 
L 75 1525 
L 2100 4450 
L 2475 4450 
L 2475 1525 
L 3075 1525 
L 3075 1100 
L 2475 1100 
L 2475 150 
L 2000 150 
L 2000 1100 
z
M 2000 1525 
L 2000 3500 
L 600 1525 
L 2000 1525 
z
" id="SimHei-34" transform="scale(0.015625)"/>
       </defs>
       <use xlink:href="#SimHei-36"/>
       <use x="50" xlink:href="#SimHei-34"/>
      </g>
     </g>
    </g>
    <g id="xtick_4">
     <g id="line2d_4">
      <g>
       <use style="stroke:#000000;stroke-width:0.8;" x="603.063445" xlink:href="#mcf053029c7" y="386.63125"/>
      </g>
     </g>
     <g id="text_4">
      <!-- 128 -->
      <g transform="translate(594.063445 401.88125)scale(0.12 -0.12)">
       <defs>
        <path d="M 175 1375 
Q 175 1675 325 1962 
Q 475 2250 825 2425 
Q 525 2600 425 2812 
Q 325 3025 312 3300 
Q 300 3575 387 3775 
Q 475 3975 650 4150 
Q 825 4325 1037 4387 
Q 1250 4450 1500 4450 
Q 1750 4450 1950 4400 
Q 2150 4350 2375 4187 
Q 2600 4025 2700 3725 
Q 2800 3425 2687 3025 
Q 2575 2625 2100 2400 
Q 2525 2275 2700 2012 
Q 2875 1750 2875 1375 
Q 2875 1000 2762 775 
Q 2650 550 2512 400 
Q 2375 250 2137 162 
Q 1900 75 1537 75 
Q 1175 75 912 162 
Q 650 250 475 425 
Q 300 600 237 837 
Q 175 1075 175 1375 
z
M 687 1400 
Q 675 1100 787 875 
Q 900 650 1200 587 
Q 1500 525 1825 600 
Q 2150 675 2275 950 
Q 2400 1225 2362 1500 
Q 2325 1775 2050 1962 
Q 1775 2150 1450 2125 
Q 1125 2100 912 1900 
Q 700 1700 687 1400 
z
M 775 3350 
Q 775 3100 950 2875 
Q 1125 2650 1500 2650 
Q 1875 2650 2062 2875 
Q 2250 3100 2237 3412 
Q 2225 3725 2012 3875 
Q 1800 4025 1437 4000 
Q 1075 3975 925 3787 
Q 775 3600 775 3350 
z
" id="SimHei-38" transform="scale(0.015625)"/>
       </defs>
       <use xlink:href="#SimHei-31"/>
       <use x="50" xlink:href="#SimHei-32"/>
       <use x="100" xlink:href="#SimHei-38"/>
      </g>
     </g>
    </g>
    <g id="xtick_5">
     <g id="line2d_5">
      <g>
       <use style="stroke:#000000;stroke-width:0.8;" x="758.18689" xlink:href="#mcf053029c7" y="386.63125"/>
      </g>
     </g>
     <g id="text_5">
      <!-- 256 -->
      <g transform="translate(749.18689 401.88125)scale(0.12 -0.12)">
       <defs>
        <path d="M 550 1325 
Q 725 650 1150 575 
Q 1575 500 1837 662 
Q 2100 825 2212 1087 
Q 2325 1350 2312 1675 
Q 2300 2000 2137 2225 
Q 1975 2450 1725 2525 
Q 1475 2600 1162 2525 
Q 850 2450 650 2175 
L 225 2225 
Q 275 2375 700 4375 
L 2675 4375 
L 2675 3925 
L 1075 3925 
Q 950 3250 825 2850 
Q 1200 3025 1525 3012 
Q 1850 3000 2150 2862 
Q 2450 2725 2587 2487 
Q 2725 2250 2787 2012 
Q 2850 1775 2837 1500 
Q 2825 1225 2725 937 
Q 2625 650 2425 462 
Q 2225 275 1937 162 
Q 1650 50 1275 75 
Q 900 100 562 350 
Q 225 600 100 1200 
L 550 1325 
z
" id="SimHei-35" transform="scale(0.015625)"/>
       </defs>
       <use xlink:href="#SimHei-32"/>
       <use x="50" xlink:href="#SimHei-35"/>
       <use x="100" xlink:href="#SimHei-36"/>
      </g>
     </g>
    </g>
    <g id="text_6">
     <!-- 历史时间窗口 -->
     <g transform="translate(405.94 418.701563)scale(0.14 -0.14)">
      <defs>
       <path d="M 3725 2500 
Q 3625 1775 3487 1337 
Q 3350 900 3150 562 
Q 2950 225 2687 -62 
Q 2425 -350 2075 -625 
Q 1825 -350 1500 -225 
Q 2075 75 2387 412 
Q 2700 750 2875 1125 
Q 3050 1500 3112 1787 
Q 3175 2075 3225 2500 
L 2725 2500 
Q 2125 2500 1900 2475 
L 1900 2950 
Q 2375 2925 2675 2925 
L 3250 2925 
Q 3275 3250 3275 3550 
L 3275 4275 
Q 3625 4175 3900 4150 
Q 3825 3775 3800 3512 
Q 3775 3250 3750 2925 
L 5650 2925 
Q 5600 2550 5550 1850 
Q 5500 1150 5475 687 
Q 5450 225 5375 -50 
Q 5300 -325 4987 -412 
Q 4675 -500 4300 -550 
Q 4225 -250 4050 100 
Q 4575 75 4725 125 
Q 4875 175 4912 562 
Q 4950 950 5000 1475 
Q 5050 2000 5075 2500 
L 3725 2500 
z
M 800 -675 
Q 550 -500 225 -400 
Q 525 0 662 412 
Q 800 825 900 1412 
Q 1000 2000 1000 2725 
L 1000 3950 
Q 1000 4450 950 4825 
L 4825 4825 
Q 5375 4825 5675 4850 
L 5675 4375 
Q 5425 4400 5000 4400 
L 1500 4400 
Q 1500 2800 1487 2287 
Q 1475 1775 1412 1275 
Q 1350 775 1262 450 
Q 1175 125 1062 -162 
Q 950 -450 800 -675 
z
" id="SimHei-5386" transform="scale(0.015625)"/>
       <path d="M 3000 4225 
Q 3000 4975 2950 5250 
Q 3350 5200 3625 5175 
Q 3525 4950 3525 4225 
L 5500 4225 
Q 5475 3775 5475 3175 
Q 5475 2600 5500 2150 
L 3500 2150 
Q 3450 1750 3362 1362 
Q 3275 975 3125 700 
Q 3450 450 3875 325 
Q 4300 200 4750 150 
Q 5200 100 6175 125 
Q 5900 -125 5850 -425 
Q 5175 -425 4700 -350 
Q 4225 -275 3787 -150 
Q 3350 -25 2775 325 
Q 2100 -150 1562 -325 
Q 1025 -500 650 -575 
Q 525 -250 275 -75 
Q 750 -50 1350 125 
Q 1950 300 2325 575 
Q 1575 1250 1225 1800 
Q 1525 1825 1750 1950 
Q 2275 1300 2675 975 
Q 2825 1275 2887 1562 
Q 2950 1850 2975 2150 
L 900 2150 
Q 925 2600 925 3175 
Q 925 3775 900 4225 
L 3000 4225 
z
M 3000 2575 
L 3000 3800 
L 1450 3800 
L 1450 2575 
L 3000 2575 
z
M 4950 2575 
L 4950 3800 
L 3525 3800 
L 3525 2575 
L 4950 2575 
z
" id="SimHei-53f2" transform="scale(0.015625)"/>
       <path d="M 2525 4575 
Q 2500 3675 2500 2400 
Q 2500 1125 2525 400 
L 2000 400 
L 2000 875 
L 1000 875 
L 1000 50 
L 475 50 
Q 500 1200 500 2350 
Q 500 3525 475 4575 
L 2525 4575 
z
M 4875 3825 
Q 4875 4575 4850 5225 
L 5400 5225 
Q 5375 4575 5375 3825 
Q 5750 3825 6175 3850 
L 6175 3375 
Q 5750 3400 5375 3400 
L 5375 50 
Q 5375 -325 5075 -425 
Q 4775 -525 4300 -575 
Q 4300 -275 4025 0 
Q 4500 -50 4687 -25 
Q 4875 0 4875 300 
L 4875 3400 
Q 3625 3400 2775 3375 
L 2775 3850 
Q 3575 3825 4875 3825 
z
M 2000 1300 
L 2000 2550 
L 1000 2550 
L 1000 1300 
L 2000 1300 
z
M 2000 2975 
L 2000 4150 
L 1000 4150 
L 1000 2975 
L 2000 2975 
z
M 3550 2725 
Q 3875 2200 4175 1600 
Q 3925 1525 3650 1375 
Q 3450 1975 3075 2500 
Q 3300 2600 3550 2725 
z
" id="SimHei-65f6" transform="scale(0.015625)"/>
       <path d="M 4450 3550 
Q 4425 3075 4425 2725 
L 4425 1400 
Q 4425 1075 4450 625 
L 1925 625 
Q 1950 1075 1950 1425 
L 1950 2725 
Q 1950 3075 1925 3550 
L 4450 3550 
z
M 5800 4875 
Q 5775 4400 5775 3925 
L 5775 250 
Q 5800 -325 5462 -450 
Q 5125 -575 4725 -625 
Q 4700 -325 4525 -25 
Q 5000 -50 5137 25 
Q 5275 100 5275 350 
L 5275 4450 
L 3775 4450 
Q 3175 4450 2650 4425 
L 2650 4900 
Q 3175 4875 3775 4875 
L 5800 4875 
z
M 550 -525 
Q 600 -25 600 525 
L 600 3150 
Q 600 3675 550 4025 
L 1125 4025 
Q 1100 3650 1100 3300 
L 1100 500 
Q 1100 0 1125 -525 
L 550 -525 
z
M 3950 1025 
L 3950 1950 
L 2425 1950 
L 2425 1025 
L 3950 1025 
z
M 3950 2350 
L 3950 3150 
L 2425 3150 
L 2425 2350 
L 3950 2350 
z
M 1525 5300 
Q 1750 5000 2225 4350 
Q 1950 4225 1700 4075 
Q 1450 4575 1075 5025 
Q 1350 5225 1525 5300 
z
" id="SimHei-95f4" transform="scale(0.015625)"/>
       <path d="M 3300 3400 
Q 3050 3125 2875 2825 
L 5425 2825 
Q 5400 2300 5400 1875 
L 5400 425 
Q 5400 -25 5425 -600 
L 4925 -600 
L 4925 -250 
L 1500 -250 
L 1500 -600 
L 1000 -600 
Q 1025 -25 1025 500 
L 1025 1800 
Q 1025 2225 1000 2825 
L 2400 2825 
Q 2700 3325 2775 3600 
Q 3050 3500 3300 3400 
z
M 4925 150 
L 4925 2450 
L 1500 2450 
L 1500 150 
L 4925 150 
z
M 3225 5300 
Q 3375 4775 3425 4575 
L 5900 4575 
Q 5875 4300 5875 4075 
Q 5875 3850 5900 3600 
L 5425 3600 
L 5425 4175 
L 1025 4175 
L 1025 3500 
L 500 3500 
Q 525 3725 525 4000 
Q 525 4300 500 4575 
L 2900 4575 
Q 2800 4900 2700 5125 
Q 2900 5175 3225 5300 
z
M 4150 425 
Q 3975 350 3700 175 
Q 3475 450 3300 575 
Q 2900 425 2612 362 
Q 2325 300 2025 225 
Q 1975 450 1825 650 
Q 2150 675 2425 737 
Q 2700 800 2950 875 
Q 2725 1025 2475 1225 
Q 2625 1325 2775 1475 
Q 3025 1250 3350 1050 
Q 3700 1250 3900 1575 
L 2525 1575 
Q 2250 1325 1925 1100 
Q 1800 1300 1625 1400 
Q 1950 1600 2200 1825 
Q 2450 2050 2650 2375 
Q 2900 2225 3125 2125 
Q 3000 2025 2900 1925 
L 4625 1925 
Q 4400 1500 4200 1262 
Q 4000 1025 3700 800 
Q 3975 600 4150 425 
z
M 3900 4100 
Q 4175 4000 4625 3825 
Q 5075 3650 5675 3400 
Q 5550 3175 5450 2950 
Q 4825 3275 4425 3425 
Q 4025 3575 3650 3700 
Q 3775 3850 3900 4100 
z
M 2625 3650 
Q 2250 3500 1900 3350 
L 900 2900 
Q 800 3125 675 3300 
Q 1075 3425 1512 3625 
Q 1950 3825 2350 4075 
Q 2475 3825 2625 3650 
z
" id="SimHei-7a97" transform="scale(0.015625)"/>
       <path d="M 5425 4300 
Q 5400 3775 5400 3175 
L 5400 550 
Q 5400 100 5425 -425 
L 4900 -425 
L 4900 100 
L 1525 100 
L 1525 -425 
L 1000 -425 
Q 1025 0 1025 550 
L 1025 3175 
Q 1025 3775 1000 4300 
L 5425 4300 
z
M 4900 525 
L 4900 3875 
L 1525 3875 
L 1525 525 
L 4900 525 
z
" id="SimHei-53e3" transform="scale(0.015625)"/>
      </defs>
      <use xlink:href="#SimHei-5386"/>
      <use x="100" xlink:href="#SimHei-53f2"/>
      <use x="200" xlink:href="#SimHei-65f6"/>
      <use x="300" xlink:href="#SimHei-95f4"/>
      <use x="400" xlink:href="#SimHei-7a97"/>
      <use x="500" xlink:href="#SimHei-53e3"/>
     </g>
    </g>
   </g>
   <g id="matplotlib.axis_2">
    <g id="ytick_1">
     <g id="line2d_6">
      <defs>
       <path d="M 0 0 
L -3.5 0 
" id="m8e370310d1" style="stroke:#000000;stroke-width:0.8;"/>
      </defs>
      <g>
       <use style="stroke:#000000;stroke-width:0.8;" x="42.68" xlink:href="#m8e370310d1" y="311.465"/>
      </g>
     </g>
     <g id="text_7">
      <!-- 60 -->
      <g transform="translate(25.68 314.9025)scale(0.1 -0.1)">
       <defs>
        <path d="M 225 2537 
Q 250 3200 412 3587 
Q 575 3975 875 4225 
Q 1175 4475 1612 4475 
Q 2050 4475 2375 4112 
Q 2700 3750 2800 3200 
Q 2900 2650 2862 1937 
Q 2825 1225 2612 775 
Q 2400 325 1975 150 
Q 1550 -25 1125 187 
Q 700 400 525 750 
Q 350 1100 275 1487 
Q 200 1875 225 2537 
z
M 750 2687 
Q 675 2000 800 1462 
Q 925 925 1212 700 
Q 1500 475 1800 612 
Q 2100 750 2237 1162 
Q 2375 1575 2375 2062 
Q 2375 2550 2337 2950 
Q 2300 3350 2112 3675 
Q 1925 4000 1612 4012 
Q 1300 4025 1062 3700 
Q 825 3375 750 2687 
z
" id="SimHei-30" transform="scale(0.015625)"/>
       </defs>
       <use xlink:href="#SimHei-36"/>
       <use x="50" xlink:href="#SimHei-30"/>
      </g>
     </g>
    </g>
    <g id="ytick_2">
     <g id="line2d_7">
      <g>
       <use style="stroke:#000000;stroke-width:0.8;" x="42.68" xlink:href="#m8e370310d1" y="221.2655"/>
      </g>
     </g>
     <g id="text_8">
      <!-- 72 -->
      <g transform="translate(25.68 224.703)scale(0.1 -0.1)">
       <defs>
        <path d="M 850 150 
Q 1300 2050 2425 3925 
L 275 3925 
L 275 4375 
L 2950 4375 
L 2950 3950 
Q 1775 2050 1400 150 
L 850 150 
z
" id="SimHei-37" transform="scale(0.015625)"/>
       </defs>
       <use xlink:href="#SimHei-37"/>
       <use x="50" xlink:href="#SimHei-32"/>
      </g>
     </g>
    </g>
    <g id="ytick_3">
     <g id="line2d_8">
      <g>
       <use style="stroke:#000000;stroke-width:0.8;" x="42.68" xlink:href="#m8e370310d1" y="131.066"/>
      </g>
     </g>
     <g id="text_9">
      <!-- 84 -->
      <g transform="translate(25.68 134.5035)scale(0.1 -0.1)">
       <use xlink:href="#SimHei-38"/>
       <use x="50" xlink:href="#SimHei-34"/>
      </g>
     </g>
    </g>
    <g id="ytick_4">
     <g id="line2d_9">
      <g>
       <use style="stroke:#000000;stroke-width:0.8;" x="42.68" xlink:href="#m8e370310d1" y="40.8665"/>
      </g>
     </g>
     <g id="text_10">
      <!-- 96 -->
      <g transform="translate(25.68 44.304)scale(0.1 -0.1)">
       <defs>
        <path d="M 800 75 
Q 1350 1000 1700 1750 
Q 1075 1650 662 1912 
Q 250 2175 162 2625 
Q 75 3075 175 3437 
Q 275 3800 487 4037 
Q 700 4275 1000 4375 
Q 1300 4475 1537 4475 
Q 1775 4475 2025 4375 
Q 2275 4275 2475 4075 
Q 2675 3875 2750 3662 
Q 2825 3450 2825 3112 
Q 2825 2775 2575 2250 
Q 2325 1725 1350 75 
L 800 75 
z
M 662 2875 
Q 700 2550 937 2337 
Q 1175 2125 1450 2150 
Q 1725 2175 1887 2300 
Q 2050 2425 2200 2725 
Q 2300 3100 2250 3362 
Q 2200 3625 1987 3800 
Q 1775 3975 1525 3975 
Q 1375 4000 1137 3900 
Q 900 3800 762 3500 
Q 625 3200 662 2875 
z
" id="SimHei-39" transform="scale(0.015625)"/>
       </defs>
       <use xlink:href="#SimHei-39"/>
       <use x="50" xlink:href="#SimHei-36"/>
      </g>
     </g>
    </g>
    <g id="text_11">
     <!-- F1-Score -->
     <g transform="translate(19.93 226.715625)rotate(-90)scale(0.14 -0.14)">
      <defs>
       <path d="M 2925 3925 
L 875 3925 
L 875 2525 
L 2425 2525 
L 2425 2050 
L 875 2050 
L 875 125 
L 300 125 
L 300 4400 
L 2925 4400 
L 2925 3925 
z
" id="SimHei-46" transform="scale(0.015625)"/>
       <path d="M 2975 2125 
L 125 2125 
L 125 2525 
L 2975 2525 
L 2975 2125 
z
" id="SimHei-2d" transform="scale(0.015625)"/>
       <path d="M 2900 1325 
Q 2900 750 2537 412 
Q 2175 75 1550 75 
Q 925 75 575 425 
Q 225 775 225 1300 
L 225 1475 
L 800 1475 
L 800 1325 
Q 800 950 1025 750 
Q 1250 550 1550 550 
Q 1950 550 2137 762 
Q 2325 975 2325 1275 
Q 2325 1525 2100 1737 
Q 1875 1950 1450 2125 
Q 850 2350 587 2625 
Q 325 2900 325 3275 
Q 325 3800 687 4125 
Q 1050 4450 1550 4450 
Q 2200 4450 2487 4062 
Q 2775 3675 2775 3225 
L 2200 3225 
Q 2225 3500 2050 3725 
Q 1875 3950 1550 3950 
Q 1250 3950 1075 3787 
Q 900 3625 900 3350 
Q 900 3125 1037 2962 
Q 1175 2800 1750 2575 
Q 2300 2350 2600 2037 
Q 2900 1725 2900 1325 
z
" id="SimHei-53" transform="scale(0.015625)"/>
       <path d="M 2850 1250 
Q 2850 725 2487 400 
Q 2125 75 1575 75 
Q 1025 75 625 462 
Q 225 850 225 1525 
Q 225 2200 625 2587 
Q 1025 2975 1575 2975 
Q 2125 2975 2450 2687 
Q 2775 2400 2775 2000 
L 2225 2000 
Q 2200 2300 2012 2412 
Q 1825 2525 1575 2525 
Q 1275 2525 1025 2287 
Q 775 2050 775 1525 
Q 775 1000 1025 762 
Q 1275 525 1575 525 
Q 1900 525 2100 700 
Q 2300 875 2300 1250 
L 2850 1250 
z
" id="SimHei-63" transform="scale(0.015625)"/>
       <path d="M 2925 1525 
Q 2925 875 2525 475 
Q 2125 75 1575 75 
Q 1025 75 625 475 
Q 225 875 225 1525 
Q 225 2175 625 2575 
Q 1025 2975 1575 2975 
Q 2125 2975 2525 2575 
Q 2925 2175 2925 1525 
z
M 2375 1525 
Q 2375 2025 2125 2275 
Q 1875 2525 1575 2525 
Q 1275 2525 1025 2275 
Q 775 2025 775 1525 
Q 775 1025 1025 775 
Q 1275 525 1575 525 
Q 1875 525 2125 775 
Q 2375 1025 2375 1525 
z
" id="SimHei-6f" transform="scale(0.015625)"/>
       <path d="M 2500 2425 
Q 2025 2500 1700 2287 
Q 1375 2075 1150 1550 
L 1150 125 
L 650 125 
L 650 2925 
L 1150 2925 
L 1150 2200 
Q 1375 2600 1712 2787 
Q 2050 2975 2500 2975 
L 2500 2425 
z
" id="SimHei-72" transform="scale(0.015625)"/>
       <path d="M 2850 1075 
Q 2800 625 2450 350 
Q 2100 75 1625 75 
Q 1025 75 637 462 
Q 250 850 250 1525 
Q 250 2200 637 2587 
Q 1025 2975 1625 2975 
Q 2150 2975 2487 2637 
Q 2825 2300 2825 1525 
L 800 1525 
Q 800 975 1037 750 
Q 1275 525 1625 525 
Q 1900 525 2075 662 
Q 2250 800 2300 1075 
L 2850 1075 
z
M 2250 1925 
Q 2200 2275 2025 2412 
Q 1850 2550 1575 2550 
Q 1325 2550 1125 2412 
Q 925 2275 825 1925 
L 2250 1925 
z
" id="SimHei-65" transform="scale(0.015625)"/>
      </defs>
      <use xlink:href="#SimHei-46"/>
      <use x="50" xlink:href="#SimHei-31"/>
      <use x="100" xlink:href="#SimHei-2d"/>
      <use x="150" xlink:href="#SimHei-53"/>
      <use x="200" xlink:href="#SimHei-63"/>
      <use x="250" xlink:href="#SimHei-6f"/>
      <use x="300" xlink:href="#SimHei-72"/>
      <use x="350" xlink:href="#SimHei-65"/>
     </g>
    </g>
   </g>
   <g id="patch_28">
    <path d="M 42.68 386.63125 
L 42.68 10.8 
" style="fill:none;stroke:#000000;stroke-linecap:square;stroke-linejoin:miter;stroke-width:0.8;"/>
   </g>
   <g id="patch_29">
    <path d="M 853.2 386.63125 
L 853.2 10.8 
" style="fill:none;stroke:#000000;stroke-linecap:square;stroke-linejoin:miter;stroke-width:0.8;"/>
   </g>
   <g id="patch_30">
    <path d="M 42.68 386.63125 
L 853.2 386.63125 
" style="fill:none;stroke:#000000;stroke-linecap:square;stroke-linejoin:miter;stroke-width:0.8;"/>
   </g>
   <g id="patch_31">
    <path d="M 42.68 10.8 
L 853.2 10.8 
" style="fill:none;stroke:#000000;stroke-linecap:square;stroke-linejoin:miter;stroke-width:0.8;"/>
   </g>
   <g id="text_12">
    <!-- 78.52 -->
    <g transform="translate(78.656077 167.248793)scale(0.1 -0.1)">
     <defs>
      <path d="M 1075 125 
L 500 125 
L 500 675 
L 1075 675 
L 1075 125 
z
" id="SimHei-2e" transform="scale(0.015625)"/>
     </defs>
     <use xlink:href="#SimHei-37"/>
     <use x="50" xlink:href="#SimHei-38"/>
     <use x="100" xlink:href="#SimHei-2e"/>
     <use x="150" xlink:href="#SimHei-35"/>
     <use x="200" xlink:href="#SimHei-32"/>
    </g>
   </g>
   <g id="text_13">
    <!-- 81.34 -->
    <g transform="translate(233.779522 146.05191)scale(0.1 -0.1)">
     <use xlink:href="#SimHei-38"/>
     <use x="50" xlink:href="#SimHei-31"/>
     <use x="100" xlink:href="#SimHei-2e"/>
     <use x="150" xlink:href="#SimHei-33"/>
     <use x="200" xlink:href="#SimHei-34"/>
    </g>
   </g>
   <g id="text_14">
    <!-- 84.28 -->
    <g transform="translate(388.902967 123.953033)scale(0.1 -0.1)">
     <use xlink:href="#SimHei-38"/>
     <use x="50" xlink:href="#SimHei-34"/>
     <use x="100" xlink:href="#SimHei-2e"/>
     <use x="150" xlink:href="#SimHei-32"/>
     <use x="200" xlink:href="#SimHei-38"/>
    </g>
   </g>
   <g id="text_15">
    <!-- 80.93 -->
    <g transform="translate(544.026411 149.133726)scale(0.1 -0.1)">
     <use xlink:href="#SimHei-38"/>
     <use x="50" xlink:href="#SimHei-30"/>
     <use x="100" xlink:href="#SimHei-2e"/>
     <use x="150" xlink:href="#SimHei-39"/>
     <use x="200" xlink:href="#SimHei-33"/>
    </g>
   </g>
   <g id="text_16">
    <!-- 76.65 -->
    <g transform="translate(699.149856 181.304881)scale(0.1 -0.1)">
     <use xlink:href="#SimHei-37"/>
     <use x="50" xlink:href="#SimHei-36"/>
     <use x="100" xlink:href="#SimHei-2e"/>
     <use x="150" xlink:href="#SimHei-36"/>
     <use x="200" xlink:href="#SimHei-35"/>
    </g>
   </g>
   <g id="text_17">
    <!-- 82.32 -->
    <g transform="translate(101.924593 138.685618)scale(0.1 -0.1)">
     <use xlink:href="#SimHei-38"/>
     <use x="50" xlink:href="#SimHei-32"/>
     <use x="100" xlink:href="#SimHei-2e"/>
     <use x="150" xlink:href="#SimHei-33"/>
     <use x="200" xlink:href="#SimHei-32"/>
    </g>
   </g>
   <g id="text_18">
    <!-- 86.24 -->
    <g transform="translate(257.048038 109.220448)scale(0.1 -0.1)">
     <use xlink:href="#SimHei-38"/>
     <use x="50" xlink:href="#SimHei-36"/>
     <use x="100" xlink:href="#SimHei-2e"/>
     <use x="150" xlink:href="#SimHei-32"/>
     <use x="200" xlink:href="#SimHei-34"/>
    </g>
   </g>
   <g id="text_19">
    <!-- 80.75 -->
    <g transform="translate(412.171483 150.486719)scale(0.1 -0.1)">
     <use xlink:href="#SimHei-38"/>
     <use x="50" xlink:href="#SimHei-30"/>
     <use x="100" xlink:href="#SimHei-2e"/>
     <use x="150" xlink:href="#SimHei-37"/>
     <use x="200" xlink:href="#SimHei-35"/>
    </g>
   </g>
   <g id="text_20">
    <!-- 78.64 -->
    <g transform="translate(567.294928 166.346798)scale(0.1 -0.1)">
     <use xlink:href="#SimHei-37"/>
     <use x="50" xlink:href="#SimHei-38"/>
     <use x="100" xlink:href="#SimHei-2e"/>
     <use x="150" xlink:href="#SimHei-36"/>
     <use x="200" xlink:href="#SimHei-34"/>
    </g>
   </g>
   <g id="text_21">
    <!-- 76.39 -->
    <g transform="translate(722.418373 183.259204)scale(0.1 -0.1)">
     <use xlink:href="#SimHei-37"/>
     <use x="50" xlink:href="#SimHei-36"/>
     <use x="100" xlink:href="#SimHei-2e"/>
     <use x="150" xlink:href="#SimHei-33"/>
     <use x="200" xlink:href="#SimHei-39"/>
    </g>
   </g>
   <g id="text_22">
    <!-- 72.25 -->
    <g transform="translate(125.19311 214.378031)scale(0.1 -0.1)">
     <use xlink:href="#SimHei-37"/>
     <use x="50" xlink:href="#SimHei-32"/>
     <use x="100" xlink:href="#SimHei-2e"/>
     <use x="150" xlink:href="#SimHei-32"/>
     <use x="200" xlink:href="#SimHei-35"/>
    </g>
   </g>
   <g id="text_23">
    <!-- 75.69 -->
    <g transform="translate(280.316555 188.520841)scale(0.1 -0.1)">
     <use xlink:href="#SimHei-37"/>
     <use x="50" xlink:href="#SimHei-35"/>
     <use x="100" xlink:href="#SimHei-2e"/>
     <use x="150" xlink:href="#SimHei-36"/>
     <use x="200" xlink:href="#SimHei-39"/>
    </g>
   </g>
   <g id="text_24">
    <!-- 77.53 -->
    <g transform="translate(435.44 174.690251)scale(0.1 -0.1)">
     <use xlink:href="#SimHei-37"/>
     <use x="50" xlink:href="#SimHei-37"/>
     <use x="100" xlink:href="#SimHei-2e"/>
     <use x="150" xlink:href="#SimHei-35"/>
     <use x="200" xlink:href="#SimHei-33"/>
    </g>
   </g>
   <g id="text_25">
    <!-- 79.17 -->
    <g transform="translate(590.563445 162.362986)scale(0.1 -0.1)">
     <use xlink:href="#SimHei-37"/>
     <use x="50" xlink:href="#SimHei-39"/>
     <use x="100" xlink:href="#SimHei-2e"/>
     <use x="150" xlink:href="#SimHei-31"/>
     <use x="200" xlink:href="#SimHei-37"/>
    </g>
   </g>
   <g id="text_26">
    <!-- 83.44 -->
    <g transform="translate(745.68689 130.266998)scale(0.1 -0.1)">
     <use xlink:href="#SimHei-38"/>
     <use x="50" xlink:href="#SimHei-33"/>
     <use x="100" xlink:href="#SimHei-2e"/>
     <use x="150" xlink:href="#SimHei-34"/>
     <use x="200" xlink:href="#SimHei-34"/>
    </g>
   </g>
   <g id="text_27">
    <!-- 83.42 -->
    <g transform="translate(148.461627 130.41733)scale(0.1 -0.1)">
     <use xlink:href="#SimHei-38"/>
     <use x="50" xlink:href="#SimHei-33"/>
     <use x="100" xlink:href="#SimHei-2e"/>
     <use x="150" xlink:href="#SimHei-34"/>
     <use x="200" xlink:href="#SimHei-32"/>
    </g>
   </g>
   <g id="text_28">
    <!-- 84.67 -->
    <g transform="translate(303.585072 121.021549)scale(0.1 -0.1)">
     <use xlink:href="#SimHei-38"/>
     <use x="50" xlink:href="#SimHei-34"/>
     <use x="100" xlink:href="#SimHei-2e"/>
     <use x="150" xlink:href="#SimHei-36"/>
     <use x="200" xlink:href="#SimHei-37"/>
    </g>
   </g>
   <g id="text_29">
    <!-- 88.46 -->
    <g transform="translate(458.708517 92.53354)scale(0.1 -0.1)">
     <use xlink:href="#SimHei-38"/>
     <use x="50" xlink:href="#SimHei-38"/>
     <use x="100" xlink:href="#SimHei-2e"/>
     <use x="150" xlink:href="#SimHei-34"/>
     <use x="200" xlink:href="#SimHei-36"/>
    </g>
   </g>
   <g id="text_30">
    <!-- 81.05 -->
    <g transform="translate(613.831962 148.231731)scale(0.1 -0.1)">
     <use xlink:href="#SimHei-38"/>
     <use x="50" xlink:href="#SimHei-31"/>
     <use x="100" xlink:href="#SimHei-2e"/>
     <use x="150" xlink:href="#SimHei-30"/>
     <use x="200" xlink:href="#SimHei-35"/>
    </g>
   </g>
   <g id="text_31">
    <!-- 80.87 -->
    <g transform="translate(768.955407 149.584724)scale(0.1 -0.1)">
     <use xlink:href="#SimHei-38"/>
     <use x="50" xlink:href="#SimHei-30"/>
     <use x="100" xlink:href="#SimHei-2e"/>
     <use x="150" xlink:href="#SimHei-38"/>
     <use x="200" xlink:href="#SimHei-37"/>
    </g>
   </g>
   <g id="text_32">
    <!-- 81.21 -->
    <g transform="translate(171.730144 147.029071)scale(0.1 -0.1)">
     <use xlink:href="#SimHei-38"/>
     <use x="50" xlink:href="#SimHei-31"/>
     <use x="100" xlink:href="#SimHei-2e"/>
     <use x="150" xlink:href="#SimHei-32"/>
     <use x="200" xlink:href="#SimHei-31"/>
    </g>
   </g>
   <g id="text_33">
    <!-- 83.31 -->
    <g transform="translate(326.853589 131.244159)scale(0.1 -0.1)">
     <use xlink:href="#SimHei-38"/>
     <use x="50" xlink:href="#SimHei-33"/>
     <use x="100" xlink:href="#SimHei-2e"/>
     <use x="150" xlink:href="#SimHei-33"/>
     <use x="200" xlink:href="#SimHei-31"/>
    </g>
   </g>
   <g id="text_34">
    <!-- 86.94 -->
    <g transform="translate(481.977033 103.95881)scale(0.1 -0.1)">
     <use xlink:href="#SimHei-38"/>
     <use x="50" xlink:href="#SimHei-36"/>
     <use x="100" xlink:href="#SimHei-2e"/>
     <use x="150" xlink:href="#SimHei-39"/>
     <use x="200" xlink:href="#SimHei-34"/>
    </g>
   </g>
   <g id="text_35">
    <!-- 85.36 -->
    <g transform="translate(637.100478 115.835077)scale(0.1 -0.1)">
     <use xlink:href="#SimHei-38"/>
     <use x="50" xlink:href="#SimHei-35"/>
     <use x="100" xlink:href="#SimHei-2e"/>
     <use x="150" xlink:href="#SimHei-33"/>
     <use x="200" xlink:href="#SimHei-36"/>
    </g>
   </g>
   <g id="text_36">
    <!-- 83.97 -->
    <g transform="translate(792.223923 126.283186)scale(0.1 -0.1)">
     <use xlink:href="#SimHei-38"/>
     <use x="50" xlink:href="#SimHei-33"/>
     <use x="100" xlink:href="#SimHei-2e"/>
     <use x="150" xlink:href="#SimHei-39"/>
     <use x="200" xlink:href="#SimHei-37"/>
    </g>
   </g>
   <g id="legend_1">
    <g id="patch_32">
     <path d="M 740.4 102.225 
L 844.8 102.225 
Q 847.2 102.225 847.2 99.825 
L 847.2 19.2 
Q 847.2 16.8 844.8 16.8 
L 740.4 16.8 
Q 738 16.8 738 19.2 
L 738 99.825 
Q 738 102.225 740.4 102.225 
z
" style="fill:#ffffff;opacity:0.8;stroke:#cccccc;stroke-linejoin:miter;"/>
    </g>
    <g id="patch_33">
     <path d="M 742.8 30 
L 766.8 30 
L 766.8 21.6 
L 742.8 21.6 
z
" style="fill:#4c72b0;"/>
    </g>
    <g id="text_37">
     <!-- MSL -->
     <g transform="translate(776.4 30)scale(0.12 -0.12)">
      <defs>
       <path d="M 2925 125 
L 2425 125 
L 2425 3175 
L 2375 3175 
L 1775 125 
L 1375 125 
L 775 3175 
L 725 3175 
L 725 125 
L 225 125 
L 225 4400 
L 1000 4400 
L 1550 1575 
L 1600 1575 
L 2150 4400 
L 2925 4400 
L 2925 125 
z
" id="SimHei-4d" transform="scale(0.015625)"/>
       <path d="M 2900 125 
L 300 125 
L 300 4400 
L 875 4400 
L 875 600 
L 2900 600 
L 2900 125 
z
" id="SimHei-4c" transform="scale(0.015625)"/>
      </defs>
      <use xlink:href="#SimHei-4d"/>
      <use x="50" xlink:href="#SimHei-53"/>
      <use x="100" xlink:href="#SimHei-4c"/>
     </g>
    </g>
    <g id="patch_34">
     <path d="M 742.8 45.9 
L 766.8 45.9 
L 766.8 37.5 
L 742.8 37.5 
z
" style="fill:#55a868;"/>
    </g>
    <g id="text_38">
     <!-- SWaT -->
     <g transform="translate(776.4 45.9)scale(0.12 -0.12)">
      <defs>
       <path d="M 3075 4400 
L 2525 75 
L 2025 75 
L 1575 3275 
L 1525 3275 
L 1075 75 
L 575 75 
L 25 4400 
L 575 4400 
L 850 1675 
L 900 1675 
L 1275 4400 
L 1825 4400 
L 2200 1675 
L 2250 1675 
L 2525 4400 
L 3075 4400 
z
" id="SimHei-57" transform="scale(0.015625)"/>
       <path d="M 2875 125 
L 2275 125 
Q 2225 175 2200 262 
Q 2175 350 2175 475 
Q 2000 275 1750 175 
Q 1500 75 1225 75 
Q 825 75 550 275 
Q 275 475 275 850 
Q 275 1225 525 1450 
Q 775 1675 1300 1750 
Q 1650 1800 1912 1875 
Q 2175 1950 2175 2075 
Q 2175 2225 2062 2375 
Q 1950 2525 1575 2525 
Q 1275 2525 1137 2412 
Q 1000 2300 950 2100 
L 400 2100 
Q 450 2500 762 2737 
Q 1075 2975 1575 2975 
Q 2125 2975 2400 2725 
Q 2675 2475 2675 2025 
L 2675 650 
Q 2675 500 2725 375 
Q 2775 250 2875 125 
z
M 2175 1050 
L 2175 1550 
Q 2025 1500 1887 1462 
Q 1750 1425 1425 1375 
Q 1050 1325 937 1200 
Q 825 1075 825 900 
Q 825 750 937 637 
Q 1050 525 1275 525 
Q 1500 525 1762 650 
Q 2025 775 2175 1050 
z
" id="SimHei-61" transform="scale(0.015625)"/>
       <path d="M 2850 3925 
L 1850 3925 
L 1850 125 
L 1275 125 
L 1275 3925 
L 275 3925 
L 275 4400 
L 2850 4400 
L 2850 3925 
z
" id="SimHei-54" transform="scale(0.015625)"/>
      </defs>
      <use xlink:href="#SimHei-53"/>
      <use x="50" xlink:href="#SimHei-57"/>
      <use x="100" xlink:href="#SimHei-61"/>
      <use x="150" xlink:href="#SimHei-54"/>
     </g>
    </g>
    <g id="patch_35">
     <path d="M 742.8 61.8 
L 766.8 61.8 
L 766.8 53.4 
L 742.8 53.4 
z
" style="fill:#c44e52;"/>
    </g>
    <g id="text_39">
     <!-- WADI -->
     <g transform="translate(776.4 61.8)scale(0.12 -0.12)">
      <defs>
       <path d="M 3075 125 
L 2475 125 
L 2125 1450 
L 1025 1450 
L 675 125 
L 75 125 
L 1325 4450 
L 1825 4450 
L 3075 125 
z
M 2000 1925 
L 1600 3450 
L 1550 3450 
L 1150 1925 
L 2000 1925 
z
" id="SimHei-41" transform="scale(0.015625)"/>
       <path d="M 2925 2250 
Q 2925 1100 2437 612 
Q 1950 125 1125 125 
L 275 125 
L 275 4400 
L 1125 4400 
Q 2050 4400 2487 3900 
Q 2925 3400 2925 2250 
z
M 2325 2250 
Q 2325 3175 2025 3550 
Q 1725 3925 1125 3925 
L 850 3925 
L 850 600 
L 1125 600 
Q 1725 600 2025 962 
Q 2325 1325 2325 2250 
z
" id="SimHei-44" transform="scale(0.015625)"/>
       <path d="M 1850 125 
L 1275 125 
L 1275 4400 
L 1850 4400 
L 1850 125 
z
" id="SimHei-49" transform="scale(0.015625)"/>
      </defs>
      <use xlink:href="#SimHei-57"/>
      <use x="50" xlink:href="#SimHei-41"/>
      <use x="100" xlink:href="#SimHei-44"/>
      <use x="150" xlink:href="#SimHei-49"/>
     </g>
    </g>
    <g id="patch_36">
     <path d="M 742.8 78.8625 
L 766.8 78.8625 
L 766.8 70.4625 
L 742.8 70.4625 
z
" style="fill:#8172b3;"/>
    </g>
    <g id="text_40">
     <!-- 港口数据集1 -->
     <g transform="translate(776.4 78.8625)scale(0.12 -0.12)">
      <defs>
       <path d="M 5700 125 
Q 5525 -300 5387 -425 
Q 5250 -550 5025 -550 
L 3175 -550 
Q 2575 -550 2575 -50 
L 2575 1625 
Q 2275 1325 1900 1075 
Q 1825 1250 1575 1475 
Q 1900 1625 2275 1950 
Q 2650 2275 2850 2725 
L 2675 2725 
Q 2175 2725 1750 2700 
L 1750 3100 
Q 2150 3075 2675 3075 
L 2875 3075 
L 2875 3925 
L 2650 3925 
Q 2400 3925 2025 3900 
L 2025 4300 
Q 2450 4275 2725 4275 
L 2875 4275 
Q 2875 4750 2850 5100 
L 3325 5100 
Q 3300 4775 3300 4275 
L 4375 4275 
Q 4375 4800 4350 5100 
L 4825 5100 
Q 4800 4775 4800 4275 
L 5025 4275 
Q 5375 4275 5775 4300 
L 5775 3900 
Q 5400 3925 5050 3925 
L 4800 3925 
L 4800 3075 
L 5250 3075 
Q 5550 3075 5950 3100 
L 5950 2700 
Q 5550 2725 5275 2725 
L 4750 2725 
Q 5150 1950 6200 1500 
Q 6000 1375 5825 1100 
Q 5275 1425 4950 1750 
L 4950 1100 
Q 4950 900 4975 600 
L 3025 600 
L 3025 100 
Q 3025 -175 3350 -175 
L 4750 -175 
Q 4900 -175 5000 -100 
Q 5100 -25 5200 375 
Q 5400 225 5700 125 
z
M 4850 1875 
Q 4550 2200 4325 2725 
L 3325 2725 
Q 3125 2250 2800 1875 
L 4850 1875 
z
M 1575 1325 
Q 1425 1025 1212 450 
Q 1000 -125 800 -625 
Q 550 -475 300 -350 
Q 475 -75 712 450 
Q 950 975 1150 1675 
Q 1325 1450 1575 1325 
z
M 4375 3075 
L 4375 3925 
L 3300 3925 
L 3300 3075 
L 4375 3075 
z
M 4500 975 
L 4500 1500 
L 3025 1500 
L 3025 975 
L 4500 975 
z
M 1225 2375 
Q 900 2700 300 3050 
Q 450 3200 575 3425 
Q 800 3275 1050 3125 
Q 1300 2975 1525 2800 
Q 1375 2600 1225 2375 
z
M 1450 3975 
Q 1100 4325 550 4625 
Q 700 4775 825 4975 
Q 1075 4850 1750 4375 
Q 1600 4200 1450 3975 
z
" id="SimHei-6e2f" transform="scale(0.015625)"/>
       <path d="M 4525 4925 
Q 4475 4800 4400 4587 
Q 4325 4375 4175 3825 
L 5325 3825 
Q 5575 3825 5925 3850 
L 5925 3400 
Q 5650 3425 5500 3425 
Q 5500 3025 5362 2162 
Q 5225 1300 4875 675 
Q 5125 375 5437 137 
Q 5750 -100 6025 -200 
Q 5725 -425 5625 -625 
Q 5325 -450 5075 -225 
Q 4825 0 4575 325 
Q 4300 25 3987 -187 
Q 3675 -400 3200 -650 
Q 3075 -425 2850 -300 
Q 3225 -150 3650 125 
Q 4075 400 4300 675 
Q 4125 1025 3962 1425 
Q 3800 1825 3675 2475 
Q 3600 2275 3425 1950 
Q 3250 2050 3000 2150 
Q 3400 2850 3650 3675 
Q 3900 4500 3975 5100 
Q 4275 4975 4525 4925 
z
M 2100 2250 
Q 2000 2150 1875 1925 
L 3250 1925 
Q 3100 1300 2725 675 
Q 3125 525 3350 400 
Q 3225 225 3125 25 
Q 2900 175 2450 325 
Q 1950 -225 725 -650 
Q 600 -375 400 -275 
Q 1575 0 2000 475 
Q 1300 650 850 775 
Q 1000 1000 1250 1525 
Q 1000 1525 425 1500 
L 425 1950 
Q 900 1925 1400 1925 
Q 1500 2150 1550 2425 
Q 1825 2325 2100 2250 
z
M 1775 3950 
Q 1775 4550 1750 5100 
L 2250 5100 
Q 2225 4575 2225 3950 
Q 3075 3950 3425 3975 
L 3425 3525 
Q 3075 3550 2225 3550 
Q 2225 2825 2250 2425 
L 1750 2425 
Q 1775 2775 1775 3300 
Q 1650 3100 1300 2787 
Q 950 2475 650 2300 
Q 525 2525 275 2625 
Q 500 2700 875 2975 
Q 1250 3250 1450 3550 
Q 950 3550 500 3525 
L 500 3975 
Q 925 3950 1775 3950 
z
M 3975 3175 
Q 4200 1700 4600 1125 
Q 4850 1700 4937 2287 
Q 5025 2875 5050 3425 
L 4075 3425 
L 3975 3175 
z
M 1450 1000 
Q 1750 925 2275 800 
Q 2475 1050 2650 1525 
L 1725 1525 
Q 1600 1275 1450 1000 
z
M 3325 4825 
Q 3200 4625 3125 4450 
Q 3050 4275 2925 4025 
Q 2725 4125 2525 4175 
Q 2725 4500 2900 5000 
Q 3150 4875 3325 4825 
z
M 2575 3375 
Q 2900 3050 3200 2725 
Q 3050 2600 2875 2425 
Q 2525 2850 2300 3100 
Q 2450 3225 2575 3375 
z
M 925 5000 
Q 1275 4650 1500 4300 
L 1125 4075 
Q 950 4425 600 4725 
Q 825 4875 925 5000 
z
" id="SimHei-6570" transform="scale(0.015625)"/>
       <path d="M 5750 4775 
Q 5725 4550 5725 4225 
L 5725 3900 
Q 5725 3450 5750 3250 
L 3100 3250 
L 3100 2500 
L 4250 2500 
Q 4250 2725 4225 3175 
L 4700 3175 
Q 4675 2775 4675 2500 
L 5350 2500 
Q 5800 2500 6100 2525 
L 6100 2075 
Q 5800 2100 5375 2100 
L 4675 2100 
L 4675 1425 
L 5775 1425 
Q 5750 950 5750 800 
L 5750 175 
Q 5750 -225 5775 -575 
L 5325 -575 
L 5325 -225 
L 3675 -225 
L 3675 -600 
L 3225 -600 
Q 3250 -325 3250 100 
L 3250 825 
Q 3250 1075 3225 1425 
L 4250 1425 
L 4250 2100 
L 3075 2100 
Q 3050 1375 2887 737 
Q 2725 100 2425 -475 
Q 2200 -325 1950 -250 
Q 2250 150 2387 600 
Q 2525 1050 2600 1562 
Q 2675 2075 2675 2625 
L 2675 3575 
Q 2675 3975 2650 4775 
L 5750 4775 
z
M 1275 4425 
Q 1275 4775 1250 5075 
L 1750 5075 
Q 1725 4800 1725 4425 
L 1725 3775 
Q 1975 3775 2500 3800 
L 2500 3375 
Q 1975 3400 1725 3400 
L 1725 2450 
Q 2050 2625 2400 2850 
Q 2425 2650 2525 2475 
Q 2050 2200 1725 2000 
L 1725 175 
Q 1725 -300 1487 -400 
Q 1250 -500 775 -575 
Q 725 -325 600 -50 
Q 1025 -50 1150 -12 
Q 1275 25 1275 325 
L 1275 1800 
Q 900 1600 525 1325 
Q 450 1525 275 1800 
Q 775 1975 1275 2250 
L 1275 3400 
Q 800 3400 350 3375 
L 350 3800 
Q 800 3775 1275 3775 
L 1275 4425 
z
M 5300 3625 
L 5300 4400 
L 3100 4400 
L 3100 3625 
L 5300 3625 
z
M 5325 150 
L 5325 1075 
L 3675 1075 
L 3675 150 
L 5325 150 
z
" id="SimHei-636e" transform="scale(0.015625)"/>
       <path d="M 2275 4925 
Q 2125 4800 2025 4662 
Q 1925 4525 1850 4350 
L 4925 4350 
Q 5300 4350 5750 4375 
L 5750 3975 
L 3650 3975 
L 3650 3575 
L 4625 3575 
Q 4925 3575 5325 3600 
L 5325 3175 
Q 4925 3200 4625 3200 
L 3650 3200 
L 3650 2800 
L 4675 2800 
Q 5000 2800 5425 2825 
L 5425 2400 
Q 5000 2425 4675 2425 
L 3650 2425 
L 3650 2075 
L 4875 2075 
Q 5275 2075 5675 2100 
L 5675 1675 
Q 5300 1700 4900 1700 
L 1650 1700 
L 1650 1500 
L 1150 1500 
Q 1200 1950 1200 2325 
L 1200 3475 
Q 1050 3250 937 3125 
Q 825 3000 675 2825 
Q 500 3000 300 3125 
Q 475 3325 875 3825 
Q 1275 4325 1462 4650 
Q 1650 4975 1725 5225 
Q 1950 5100 2275 4925 
z
M 2975 1200 
Q 2975 1300 2950 1625 
L 3475 1625 
Q 3450 1275 3450 1200 
L 5050 1200 
Q 5500 1200 5925 1225 
L 5925 825 
L 4150 825 
Q 4500 525 4925 362 
Q 5350 200 6100 25 
Q 5875 -225 5775 -475 
Q 5275 -300 4962 -162 
Q 4650 -25 4387 137 
Q 4125 300 3950 462 
Q 3775 625 3575 825 
L 3450 825 
L 3450 250 
Q 3450 -275 3500 -650 
L 2950 -650 
Q 2975 -300 2975 250 
L 2975 825 
L 2875 825 
Q 2700 575 2475 375 
Q 2250 175 1987 12 
Q 1725 -150 1425 -300 
Q 1125 -450 700 -575 
Q 600 -325 400 -75 
Q 925 50 1475 262 
Q 2025 475 2300 825 
L 500 825 
L 500 1225 
Q 800 1200 1400 1200 
L 2975 1200 
z
M 3150 2800 
L 3150 3200 
L 1650 3200 
L 1650 2800 
L 3150 2800 
z
M 3150 3575 
L 3150 3975 
L 1650 3975 
L 1650 3575 
L 3150 3575 
z
M 3150 2075 
L 3150 2425 
L 1650 2425 
L 1650 2075 
L 3150 2075 
z
M 3450 5250 
Q 3575 5150 3712 5000 
Q 3850 4850 4000 4650 
Q 3850 4525 3575 4375 
Q 3425 4575 3325 4700 
Q 3225 4825 3075 4950 
Q 3275 5075 3450 5250 
z
" id="SimHei-96c6" transform="scale(0.015625)"/>
      </defs>
      <use xlink:href="#SimHei-6e2f"/>
      <use x="100" xlink:href="#SimHei-53e3"/>
      <use x="200" xlink:href="#SimHei-6570"/>
      <use x="300" xlink:href="#SimHei-636e"/>
      <use x="400" xlink:href="#SimHei-96c6"/>
      <use x="500" xlink:href="#SimHei-31"/>
     </g>
    </g>
    <g id="patch_37">
     <path d="M 742.8 95.925 
L 766.8 95.925 
L 766.8 87.525 
L 742.8 87.525 
z
" style="fill:#ccb974;"/>
    </g>
    <g id="text_41">
     <!-- 港口数据集2 -->
     <g transform="translate(776.4 95.925)scale(0.12 -0.12)">
      <use xlink:href="#SimHei-6e2f"/>
      <use x="100" xlink:href="#SimHei-53e3"/>
      <use x="200" xlink:href="#SimHei-6570"/>
      <use x="300" xlink:href="#SimHei-636e"/>
      <use x="400" xlink:href="#SimHei-96c6"/>
      <use x="500" xlink:href="#SimHei-32"/>
     </g>
    </g>
   </g>
  </g>
 </g>
 <defs>
  <clipPath id="p136921b596">
   <rect height="375.83125" width="810.52" x="42.68" y="10.8"/>
  </clipPath>
 </defs>
</svg>
