<?xml version="1.0" encoding="utf-8" standalone="no"?>
<!DOCTYPE svg PUBLIC "-//W3C//DTD SVG 1.1//EN"
  "http://www.w3.org/Graphics/SVG/1.1/DTD/svg11.dtd">
<svg height="432pt" version="1.1" viewBox="0 0 864 432" width="864pt" xmlns="http://www.w3.org/2000/svg" xmlns:xlink="http://www.w3.org/1999/xlink">
 <metadata>
  <rdf:RDF xmlns:cc="http://creativecommons.org/ns#" xmlns:dc="http://purl.org/dc/elements/1.1/" xmlns:rdf="http://www.w3.org/1999/02/22-rdf-syntax-ns#">
   <cc:Work>
    <dc:type rdf:resource="http://purl.org/dc/dcmitype/StillImage"/>
    <dc:date>2025-05-06T21:54:56.008349</dc:date>
    <dc:format>image/svg+xml</dc:format>
    <dc:creator>
     <cc:Agent>
      <dc:title>Matplotlib v3.4.3, https://matplotlib.org/</dc:title>
     </cc:Agent>
    </dc:creator>
   </cc:Work>
  </rdf:RDF>
 </metadata>
 <defs>
  <style type="text/css">*{stroke-linecap:butt;stroke-linejoin:round;}</style>
 </defs>
 <g id="figure_1">
  <g id="patch_1">
   <path d="M 0 432 
L 864 432 
L 864 0 
L 0 0 
z
" style="fill:#ffffff;"/>
  </g>
  <g id="axes_1">
   <g id="patch_2">
    <path d="M 57.98 382.84 
L 853.2 382.84 
L 853.2 15.48 
L 57.98 15.48 
z
" style="fill:#ffffff;"/>
   </g>
   <g id="patch_3">
    <path clip-path="url(#pddd0555315)" d="M 94.126364 750.2 
L 106.519403 750.2 
L 106.519403 196.58848 
L 94.126364 196.58848 
z
" style="fill:#4c72b0;"/>
   </g>
   <g id="patch_4">
    <path clip-path="url(#pddd0555315)" d="M 176.746623 750.2 
L 189.139662 750.2 
L 189.139662 190.931136 
L 176.746623 190.931136 
z
" style="fill:#4c72b0;"/>
   </g>
   <g id="patch_5">
    <path clip-path="url(#pddd0555315)" d="M 259.366883 750.2 
L 271.759922 750.2 
L 271.759922 175.355072 
L 259.366883 175.355072 
z
" style="fill:#4c72b0;"/>
   </g>
   <g id="patch_6">
    <path clip-path="url(#pddd0555315)" d="M 341.987143 750.2 
L 354.380182 750.2 
L 354.380182 161.32192 
L 341.987143 161.32192 
z
" style="fill:#4c72b0;"/>
   </g>
   <g id="patch_7">
    <path clip-path="url(#pddd0555315)" d="M 424.607403 750.2 
L 437.000442 750.2 
L 437.000442 179.763392 
L 424.607403 179.763392 
z
" style="fill:#4c72b0;"/>
   </g>
   <g id="patch_8">
    <path clip-path="url(#pddd0555315)" d="M 507.227662 750.2 
L 519.620701 750.2 
L 519.620701 219.879104 
L 507.227662 219.879104 
z
" style="fill:#4c72b0;"/>
   </g>
   <g id="patch_9">
    <path clip-path="url(#pddd0555315)" d="M 589.847922 750.2 
L 602.240961 750.2 
L 602.240961 165.583296 
L 589.847922 165.583296 
z
" style="fill:#4c72b0;"/>
   </g>
   <g id="patch_10">
    <path clip-path="url(#pddd0555315)" d="M 672.468182 750.2 
L 684.861221 750.2 
L 684.861221 130.977984 
L 672.468182 130.977984 
z
" style="fill:#4c72b0;"/>
   </g>
   <g id="patch_11">
    <path clip-path="url(#pddd0555315)" d="M 755.088442 750.2 
L 767.481481 750.2 
L 767.481481 152.431808 
L 755.088442 152.431808 
z
" style="fill:#4c72b0;"/>
   </g>
   <g id="patch_12">
    <path clip-path="url(#pddd0555315)" d="M 106.519403 750.2 
L 118.912442 750.2 
L 118.912442 187.845312 
L 106.519403 187.845312 
z
" style="fill:#55a868;"/>
   </g>
   <g id="patch_13">
    <path clip-path="url(#pddd0555315)" d="M 189.139662 750.2 
L 201.532701 750.2 
L 201.532701 183.069632 
L 189.139662 183.069632 
z
" style="fill:#55a868;"/>
   </g>
   <g id="patch_14">
    <path clip-path="url(#pddd0555315)" d="M 271.759922 750.2 
L 284.152961 750.2 
L 284.152961 186.3024 
L 271.759922 186.3024 
z
" style="fill:#55a868;"/>
   </g>
   <g id="patch_15">
    <path clip-path="url(#pddd0555315)" d="M 354.380182 750.2 
L 366.773221 750.2 
L 366.773221 169.183424 
L 354.380182 169.183424 
z
" style="fill:#55a868;"/>
   </g>
   <g id="patch_16">
    <path clip-path="url(#pddd0555315)" d="M 437.000442 750.2 
L 449.393481 750.2 
L 449.393481 176.163264 
L 437.000442 176.163264 
z
" style="fill:#55a868;"/>
   </g>
   <g id="patch_17">
    <path clip-path="url(#pddd0555315)" d="M 519.620701 750.2 
L 532.01374 750.2 
L 532.01374 225.022144 
L 519.620701 225.022144 
z
" style="fill:#55a868;"/>
   </g>
   <g id="patch_18">
    <path clip-path="url(#pddd0555315)" d="M 602.240961 750.2 
L 614.634 750.2 
L 614.634 145.011136 
L 602.240961 145.011136 
z
" style="fill:#55a868;"/>
   </g>
   <g id="patch_19">
    <path clip-path="url(#pddd0555315)" d="M 684.861221 750.2 
L 697.25426 750.2 
L 697.25426 156.9136 
L 684.861221 156.9136 
z
" style="fill:#55a868;"/>
   </g>
   <g id="patch_20">
    <path clip-path="url(#pddd0555315)" d="M 767.481481 750.2 
L 779.874519 750.2 
L 779.874519 154.856384 
L 767.481481 154.856384 
z
" style="fill:#55a868;"/>
   </g>
   <g id="patch_21">
    <path clip-path="url(#pddd0555315)" d="M 118.912442 750.2 
L 131.305481 750.2 
L 131.305481 222.377152 
L 118.912442 222.377152 
z
" style="fill:#c44e52;"/>
   </g>
   <g id="patch_22">
    <path clip-path="url(#pddd0555315)" d="M 201.532701 750.2 
L 213.92574 750.2 
L 213.92574 208.050112 
L 201.532701 208.050112 
z
" style="fill:#c44e52;"/>
   </g>
   <g id="patch_23">
    <path clip-path="url(#pddd0555315)" d="M 284.152961 750.2 
L 296.546 750.2 
L 296.546 194.825152 
L 284.152961 194.825152 
z
" style="fill:#c44e52;"/>
   </g>
   <g id="patch_24">
    <path clip-path="url(#pddd0555315)" d="M 366.773221 750.2 
L 379.16626 750.2 
L 379.16626 209.886912 
L 366.773221 209.886912 
z
" style="fill:#c44e52;"/>
   </g>
   <g id="patch_25">
    <path clip-path="url(#pddd0555315)" d="M 449.393481 750.2 
L 461.786519 750.2 
L 461.786519 203.715264 
L 449.393481 203.715264 
z
" style="fill:#c44e52;"/>
   </g>
   <g id="patch_26">
    <path clip-path="url(#pddd0555315)" d="M 532.01374 750.2 
L 544.406779 750.2 
L 544.406779 217.087168 
L 532.01374 217.087168 
z
" style="fill:#c44e52;"/>
   </g>
   <g id="patch_27">
    <path clip-path="url(#pddd0555315)" d="M 614.634 750.2 
L 627.027039 750.2 
L 627.027039 173.297856 
L 614.634 173.297856 
z
" style="fill:#c44e52;"/>
   </g>
   <g id="patch_28">
    <path clip-path="url(#pddd0555315)" d="M 697.25426 750.2 
L 709.647299 750.2 
L 709.647299 180.571584 
L 697.25426 180.571584 
z
" style="fill:#c44e52;"/>
   </g>
   <g id="patch_29">
    <path clip-path="url(#pddd0555315)" d="M 779.874519 750.2 
L 792.267558 750.2 
L 792.267558 146.333632 
L 779.874519 146.333632 
z
" style="fill:#c44e52;"/>
   </g>
   <g id="patch_30">
    <path clip-path="url(#pddd0555315)" d="M 131.305481 750.2 
L 143.698519 750.2 
L 143.698519 185.641152 
L 131.305481 185.641152 
z
" style="fill:#8172b3;"/>
   </g>
   <g id="patch_31">
    <path clip-path="url(#pddd0555315)" d="M 213.92574 750.2 
L 226.318779 750.2 
L 226.318779 189.461696 
L 213.92574 189.461696 
z
" style="fill:#8172b3;"/>
   </g>
   <g id="patch_32">
    <path clip-path="url(#pddd0555315)" d="M 296.546 750.2 
L 308.939039 750.2 
L 308.939039 168.66912 
L 296.546 168.66912 
z
" style="fill:#8172b3;"/>
   </g>
   <g id="patch_33">
    <path clip-path="url(#pddd0555315)" d="M 379.16626 750.2 
L 391.559299 750.2 
L 391.559299 143.541696 
L 379.16626 143.541696 
z
" style="fill:#8172b3;"/>
   </g>
   <g id="patch_34">
    <path clip-path="url(#pddd0555315)" d="M 461.786519 750.2 
L 474.179558 750.2 
L 474.179558 172.783552 
L 461.786519 172.783552 
z
" style="fill:#8172b3;"/>
   </g>
   <g id="patch_35">
    <path clip-path="url(#pddd0555315)" d="M 544.406779 750.2 
L 556.799818 750.2 
L 556.799818 194.604736 
L 544.406779 194.604736 
z
" style="fill:#8172b3;"/>
   </g>
   <g id="patch_36">
    <path clip-path="url(#pddd0555315)" d="M 627.027039 750.2 
L 639.420078 750.2 
L 639.420078 151.623616 
L 627.027039 151.623616 
z
" style="fill:#8172b3;"/>
   </g>
   <g id="patch_37">
    <path clip-path="url(#pddd0555315)" d="M 709.647299 750.2 
L 722.040338 750.2 
L 722.040338 100.266688 
L 709.647299 100.266688 
z
" style="fill:#8172b3;"/>
   </g>
   <g id="patch_38">
    <path clip-path="url(#pddd0555315)" d="M 792.267558 750.2 
L 804.660597 750.2 
L 804.660597 123.557312 
L 792.267558 123.557312 
z
" style="fill:#8172b3;"/>
   </g>
   <g id="patch_39">
    <path clip-path="url(#pddd0555315)" d="M 143.698519 750.2 
L 156.091558 750.2 
L 156.091558 202.172352 
L 143.698519 202.172352 
z
" style="fill:#ccb974;"/>
   </g>
   <g id="patch_40">
    <path clip-path="url(#pddd0555315)" d="M 226.318779 750.2 
L 238.711818 750.2 
L 238.711818 209.886912 
L 226.318779 209.886912 
z
" style="fill:#ccb974;"/>
   </g>
   <g id="patch_41">
    <path clip-path="url(#pddd0555315)" d="M 308.939039 750.2 
L 321.332078 750.2 
L 321.332078 191.665856 
L 308.939039 191.665856 
z
" style="fill:#ccb974;"/>
   </g>
   <g id="patch_42">
    <path clip-path="url(#pddd0555315)" d="M 391.559299 750.2 
L 403.952338 750.2 
L 403.952338 137.296576 
L 391.559299 137.296576 
z
" style="fill:#ccb974;"/>
   </g>
   <g id="patch_43">
    <path clip-path="url(#pddd0555315)" d="M 474.179558 750.2 
L 486.572597 750.2 
L 486.572597 161.542336 
L 474.179558 161.542336 
z
" style="fill:#ccb974;"/>
   </g>
   <g id="patch_44">
    <path clip-path="url(#pddd0555315)" d="M 556.799818 750.2 
L 569.192857 750.2 
L 569.192857 178.440896 
L 556.799818 178.440896 
z
" style="fill:#ccb974;"/>
   </g>
   <g id="patch_45">
    <path clip-path="url(#pddd0555315)" d="M 639.420078 750.2 
L 651.813117 750.2 
L 651.813117 161.101504 
L 639.420078 161.101504 
z
" style="fill:#ccb974;"/>
   </g>
   <g id="patch_46">
    <path clip-path="url(#pddd0555315)" d="M 722.040338 750.2 
L 734.433377 750.2 
L 734.433377 111.434432 
L 722.040338 111.434432 
z
" style="fill:#ccb974;"/>
   </g>
   <g id="patch_47">
    <path clip-path="url(#pddd0555315)" d="M 804.660597 750.2 
L 817.053636 750.2 
L 817.053636 138.692544 
L 804.660597 138.692544 
z
" style="fill:#ccb974;"/>
   </g>
   <g id="matplotlib.axis_1">
    <g id="xtick_1">
     <g id="line2d_1">
      <defs>
       <path d="M 0 0 
L 0 3.5 
" id="m55240a075e" style="stroke:#000000;stroke-width:0.8;"/>
      </defs>
      <g>
       <use style="stroke:#000000;stroke-width:0.8;" x="125.108961" xlink:href="#m55240a075e" y="382.84"/>
      </g>
     </g>
     <g id="text_1">
      <!-- 2 -->
      <g transform="translate(121.590524 399.4325)scale(0.12 -0.12)">
       <defs>
        <path d="M 2666 3572 
Q 2666 3963 2419 4186 
Q 2172 4409 1747 4409 
Q 1447 4409 1140 4256 
Q 834 4103 569 3819 
L 569 4413 
Q 806 4659 1107 4790 
Q 1409 4922 1816 4922 
Q 2472 4922 2872 4570 
Q 3272 4219 3272 3619 
Q 3272 3084 3026 2693 
Q 2781 2303 2188 1894 
Q 1581 1475 1376 1294 
Q 1172 1113 1090 947 
Q 1009 781 1009 544 
L 3416 544 
L 3416 0 
L 372 0 
L 372 241 
Q 372 659 486 951 
Q 600 1244 862 1520 
Q 1125 1797 1681 2184 
Q 2250 2584 2458 2886 
Q 2666 3188 2666 3572 
z
" id="MicrosoftYaHei-32" transform="scale(0.015625)"/>
       </defs>
       <use xlink:href="#MicrosoftYaHei-32"/>
      </g>
     </g>
    </g>
    <g id="xtick_2">
     <g id="line2d_2">
      <g>
       <use style="stroke:#000000;stroke-width:0.8;" x="207.729221" xlink:href="#m55240a075e" y="382.84"/>
      </g>
     </g>
     <g id="text_2">
      <!-- 4 -->
      <g transform="translate(204.210783 399.4325)scale(0.12 -0.12)">
       <defs>
        <path d="M 2906 4841 
L 2906 1644 
L 3631 1644 
L 3631 1138 
L 2906 1138 
L 2906 0 
L 2313 0 
L 2313 1138 
L 53 1138 
L 53 1616 
Q 656 2294 1265 3178 
Q 1875 4063 2272 4841 
L 2906 4841 
z
M 741 1644 
L 2313 1644 
L 2313 3950 
Q 1988 3366 1616 2817 
Q 1244 2269 741 1644 
z
" id="MicrosoftYaHei-34" transform="scale(0.015625)"/>
       </defs>
       <use xlink:href="#MicrosoftYaHei-34"/>
      </g>
     </g>
    </g>
    <g id="xtick_3">
     <g id="line2d_3">
      <g>
       <use style="stroke:#000000;stroke-width:0.8;" x="290.349481" xlink:href="#m55240a075e" y="382.84"/>
      </g>
     </g>
     <g id="text_3">
      <!-- 8 -->
      <g transform="translate(286.831043 399.4325)scale(0.12 -0.12)">
       <defs>
        <path d="M 306 1350 
Q 306 1769 556 2122 
Q 806 2475 1200 2625 
Q 884 2803 700 3081 
Q 516 3359 516 3684 
Q 516 4028 692 4312 
Q 869 4597 1183 4759 
Q 1497 4922 1875 4922 
Q 2256 4922 2572 4761 
Q 2888 4600 3063 4315 
Q 3238 4031 3238 3684 
Q 3238 3366 3058 3086 
Q 2878 2806 2559 2625 
Q 2953 2472 3200 2119 
Q 3447 1766 3447 1350 
Q 3447 938 3250 611 
Q 3053 284 2690 103 
Q 2328 -78 1875 -78 
Q 1425 -78 1065 103 
Q 706 284 506 612 
Q 306 941 306 1350 
z
M 906 1378 
Q 906 947 1172 687 
Q 1438 428 1878 428 
Q 2309 428 2582 692 
Q 2856 956 2856 1378 
Q 2856 1778 2579 2051 
Q 2303 2325 1878 2325 
Q 1456 2325 1181 2058 
Q 906 1791 906 1378 
z
M 1081 3634 
Q 1081 3309 1312 3076 
Q 1544 2844 1878 2844 
Q 2206 2844 2445 3078 
Q 2684 3313 2684 3634 
Q 2684 3963 2454 4191 
Q 2225 4419 1878 4419 
Q 1534 4419 1307 4195 
Q 1081 3972 1081 3634 
z
" id="MicrosoftYaHei-38" transform="scale(0.015625)"/>
       </defs>
       <use xlink:href="#MicrosoftYaHei-38"/>
      </g>
     </g>
    </g>
    <g id="xtick_4">
     <g id="line2d_4">
      <g>
       <use style="stroke:#000000;stroke-width:0.8;" x="372.96974" xlink:href="#m55240a075e" y="382.84"/>
      </g>
     </g>
     <g id="text_4">
      <!-- 2,4 -->
      <g transform="translate(364.488178 399.4325)scale(0.12 -0.12)">
       <defs>
        <path d="M 1109 778 
L 575 -888 
L 131 -888 
L 519 778 
L 1109 778 
z
" id="MicrosoftYaHei-2c" transform="scale(0.015625)"/>
       </defs>
       <use xlink:href="#MicrosoftYaHei-32"/>
       <use x="58.642578" xlink:href="#MicrosoftYaHei-2c"/>
       <use x="82.714844" xlink:href="#MicrosoftYaHei-34"/>
      </g>
     </g>
    </g>
    <g id="xtick_5">
     <g id="line2d_5">
      <g>
       <use style="stroke:#000000;stroke-width:0.8;" x="455.59" xlink:href="#m55240a075e" y="382.84"/>
      </g>
     </g>
     <g id="text_5">
      <!-- 2,8 -->
      <g transform="translate(447.108437 399.4325)scale(0.12 -0.12)">
       <use xlink:href="#MicrosoftYaHei-32"/>
       <use x="58.642578" xlink:href="#MicrosoftYaHei-2c"/>
       <use x="82.714844" xlink:href="#MicrosoftYaHei-38"/>
      </g>
     </g>
    </g>
    <g id="xtick_6">
     <g id="line2d_6">
      <g>
       <use style="stroke:#000000;stroke-width:0.8;" x="538.21026" xlink:href="#m55240a075e" y="382.84"/>
      </g>
     </g>
     <g id="text_6">
      <!-- 2,16 -->
      <g transform="translate(526.21026 399.4325)scale(0.12 -0.12)">
       <defs>
        <path d="M 1781 0 
L 1781 4141 
Q 1638 3997 1295 3819 
Q 953 3641 663 3569 
L 663 4169 
Q 1047 4275 1484 4508 
Q 1922 4741 2156 4947 
L 2388 4947 
L 2388 0 
L 1781 0 
z
" id="MicrosoftYaHei-31" transform="scale(0.015625)"/>
        <path d="M 3181 4219 
Q 2803 4413 2391 4413 
Q 1763 4413 1381 3866 
Q 1000 3319 994 2372 
L 1009 2372 
Q 1353 3038 2106 3038 
Q 2734 3038 3109 2628 
Q 3484 2219 3484 1541 
Q 3484 831 3051 375 
Q 2619 -81 1947 -81 
Q 1209 -81 789 495 
Q 369 1072 369 2131 
Q 369 3413 920 4167 
Q 1472 4922 2372 4922 
Q 2888 4922 3181 4781 
L 3181 4219 
z
M 1031 1584 
Q 1031 1106 1286 765 
Q 1541 425 1963 425 
Q 2363 425 2613 719 
Q 2863 1013 2863 1475 
Q 2863 1975 2627 2253 
Q 2391 2531 1956 2531 
Q 1544 2531 1287 2250 
Q 1031 1969 1031 1584 
z
" id="MicrosoftYaHei-36" transform="scale(0.015625)"/>
       </defs>
       <use xlink:href="#MicrosoftYaHei-32"/>
       <use x="58.642578" xlink:href="#MicrosoftYaHei-2c"/>
       <use x="82.714844" xlink:href="#MicrosoftYaHei-31"/>
       <use x="141.357422" xlink:href="#MicrosoftYaHei-36"/>
      </g>
     </g>
    </g>
    <g id="xtick_7">
     <g id="line2d_7">
      <g>
       <use style="stroke:#000000;stroke-width:0.8;" x="620.830519" xlink:href="#m55240a075e" y="382.84"/>
      </g>
     </g>
     <g id="text_7">
      <!-- 4,8 -->
      <g transform="translate(612.348957 399.4325)scale(0.12 -0.12)">
       <use xlink:href="#MicrosoftYaHei-34"/>
       <use x="58.642578" xlink:href="#MicrosoftYaHei-2c"/>
       <use x="82.714844" xlink:href="#MicrosoftYaHei-38"/>
      </g>
     </g>
    </g>
    <g id="xtick_8">
     <g id="line2d_8">
      <g>
       <use style="stroke:#000000;stroke-width:0.8;" x="703.450779" xlink:href="#m55240a075e" y="382.84"/>
      </g>
     </g>
     <g id="text_8">
      <!-- 2,4,8 -->
      <g transform="translate(690.006092 399.4325)scale(0.12 -0.12)">
       <use xlink:href="#MicrosoftYaHei-32"/>
       <use x="58.642578" xlink:href="#MicrosoftYaHei-2c"/>
       <use x="82.714844" xlink:href="#MicrosoftYaHei-34"/>
       <use x="141.357422" xlink:href="#MicrosoftYaHei-2c"/>
       <use x="165.429688" xlink:href="#MicrosoftYaHei-38"/>
      </g>
     </g>
    </g>
    <g id="xtick_9">
     <g id="line2d_9">
      <g>
       <use style="stroke:#000000;stroke-width:0.8;" x="786.071039" xlink:href="#m55240a075e" y="382.84"/>
      </g>
     </g>
     <g id="text_9">
      <!-- 2,4,8,16 -->
      <g transform="translate(764.144789 399.4325)scale(0.12 -0.12)">
       <use xlink:href="#MicrosoftYaHei-32"/>
       <use x="58.642578" xlink:href="#MicrosoftYaHei-2c"/>
       <use x="82.714844" xlink:href="#MicrosoftYaHei-34"/>
       <use x="141.357422" xlink:href="#MicrosoftYaHei-2c"/>
       <use x="165.429688" xlink:href="#MicrosoftYaHei-38"/>
       <use x="224.072266" xlink:href="#MicrosoftYaHei-2c"/>
       <use x="248.144531" xlink:href="#MicrosoftYaHei-31"/>
       <use x="306.787109" xlink:href="#MicrosoftYaHei-36"/>
      </g>
     </g>
    </g>
    <g id="text_10">
     <!-- 历史时间窗口 -->
     <g transform="translate(413.59 417.606875)scale(0.14 -0.14)">
      <defs>
       <path d="M 1669 3084 
L 3028 3084 
Q 3044 3650 3044 4222 
L 3569 4222 
Q 3563 3650 3547 3084 
L 5800 3084 
Q 5725 1422 5656 341 
Q 5556 -616 4688 -634 
Q 4219 -634 3588 -603 
Q 3556 -366 3494 -41 
Q 4113 -109 4588 -109 
Q 5088 -103 5156 466 
Q 5225 1366 5269 2603 
L 3531 2603 
Q 3478 1334 3138 691 
Q 2681 -166 1513 -847 
Q 1338 -641 1144 -422 
Q 2294 284 2644 947 
Q 2969 1528 3013 2603 
L 1669 2603 
L 1669 3084 
z
M 1325 2766 
Q 1319 1384 1144 647 
Q 963 -116 456 -841 
Q 300 -628 81 -416 
Q 506 197 650 816 
Q 794 1416 794 2653 
L 794 4916 
L 6244 4916 
L 6244 4434 
L 1325 4434 
L 1325 2766 
z
" id="MicrosoftYaHei-5386" transform="scale(0.015625)"/>
       <path d="M 1331 1953 
Q 1813 1213 2519 750 
Q 2881 1275 2953 2047 
L 725 2047 
L 725 4472 
L 2969 4472 
L 2969 5291 
L 3469 5291 
L 3469 4472 
L 5713 4472 
L 5713 1722 
L 5225 1722 
L 5225 2047 
L 3459 2047 
Q 3394 1144 2969 494 
Q 4241 -119 6313 -228 
Q 6206 -441 6094 -741 
Q 3928 -578 2638 91 
Q 1881 -634 369 -872 
Q 281 -678 113 -416 
Q 1506 -213 2181 369 
Q 1434 888 944 1697 
L 1331 1953 
z
M 5225 4022 
L 3469 4022 
L 3469 2497 
L 5225 2497 
L 5225 4022 
z
M 1213 2497 
L 2969 2497 
L 2969 4022 
L 1213 4022 
L 1213 2497 
z
" id="MicrosoftYaHei-53f2" transform="scale(0.015625)"/>
       <path d="M 344 4728 
L 2500 4728 
L 2500 -366 
L 2006 -366 
L 2006 153 
L 838 153 
L 838 -441 
L 344 -441 
L 344 4728 
z
M 2706 3941 
L 4925 3941 
L 4925 5322 
L 5425 5322 
L 5425 3941 
L 6313 3941 
L 6313 3478 
L 5425 3478 
L 5425 116 
Q 5425 -722 4625 -722 
Q 4263 -722 3563 -703 
Q 3531 -478 3463 -178 
Q 4119 -228 4488 -228 
Q 4925 -228 4925 216 
L 4925 3478 
L 2706 3478 
L 2706 3941 
z
M 838 616 
L 2006 616 
L 2006 2234 
L 838 2234 
L 838 616 
z
M 2006 4266 
L 838 4266 
L 838 2684 
L 2006 2684 
L 2006 4266 
z
M 3406 2878 
Q 3906 1966 4163 1422 
Q 4000 1347 3663 1172 
Q 3419 1766 2963 2653 
L 3406 2878 
z
" id="MicrosoftYaHei-65f6" transform="scale(0.015625)"/>
       <path d="M 1863 3647 
L 4513 3647 
L 4513 553 
L 2313 553 
L 2313 166 
L 1863 166 
L 1863 3647 
z
M 2388 4453 
L 2388 4922 
L 6013 4922 
L 6013 -28 
Q 6013 -816 5119 -816 
Q 4756 -816 4169 -803 
Q 4144 -616 4069 -297 
Q 4588 -334 5056 -334 
Q 5525 -334 5525 122 
L 5525 4453 
L 2388 4453 
z
M 419 4084 
L 906 4084 
L 906 -816 
L 419 -816 
L 419 4084 
z
M 2313 997 
L 4063 997 
L 4063 1884 
L 2313 1884 
L 2313 997 
z
M 4063 3203 
L 2313 3203 
L 2313 2328 
L 4063 2328 
L 4063 3203 
z
M 744 5003 
L 1100 5322 
Q 1575 4872 1981 4447 
L 1575 4091 
Q 1194 4541 744 5003 
z
" id="MicrosoftYaHei-95f4" transform="scale(0.015625)"/>
       <path d="M 719 2966 
L 2694 2966 
Q 2869 3300 3044 3691 
L 3519 3528 
Q 3381 3284 3175 2966 
L 5700 2966 
L 5700 -816 
L 5231 -816 
L 5231 -578 
L 1188 -578 
L 1188 -828 
L 719 -828 
L 719 2966 
z
M 5231 2534 
L 1188 2534 
L 1188 -147 
L 5231 -147 
L 5231 2534 
z
M 2331 1216 
L 2569 1497 
Q 3025 1297 3488 1084 
Q 4081 1428 4306 1734 
L 2453 1734 
Q 2050 1309 1625 991 
Q 1481 1141 1325 1259 
Q 2088 1784 2519 2416 
L 3031 2416 
Q 2900 2244 2766 2084 
L 4844 2084 
L 4844 1728 
Q 4472 1291 3894 897 
Q 4359 678 4831 447 
L 4563 78 
Q 4016 375 3491 644 
Q 2800 263 1719 -3 
Q 1619 178 1469 353 
Q 2450 584 3059 859 
Q 2691 1044 2331 1216 
z
M 325 4741 
L 2984 4741 
Q 2853 4972 2738 5153 
L 3219 5372 
Q 3378 5144 3603 4741 
L 6081 4741 
L 6081 3734 
L 5569 3734 
L 5569 4297 
L 831 4297 
L 831 3728 
L 325 3728 
L 325 4741 
z
M 2488 4128 
L 2719 3747 
Q 1806 3359 319 2872 
Q 225 3078 94 3284 
Q 1481 3672 2488 4128 
z
M 3938 4103 
Q 4913 3772 6313 3253 
L 6100 2859 
Q 5081 3266 3750 3741 
L 3938 4103 
z
" id="MicrosoftYaHei-7a97" transform="scale(0.015625)"/>
       <path d="M 713 4684 
L 5675 4684 
L 5675 -578 
L 5138 -578 
L 5138 28 
L 1250 28 
L 1250 -578 
L 713 -578 
L 713 4684 
z
M 5138 497 
L 5138 4216 
L 1250 4216 
L 1250 497 
L 5138 497 
z
" id="MicrosoftYaHei-53e3" transform="scale(0.015625)"/>
      </defs>
      <use xlink:href="#MicrosoftYaHei-5386"/>
      <use x="100" xlink:href="#MicrosoftYaHei-53f2"/>
      <use x="200" xlink:href="#MicrosoftYaHei-65f6"/>
      <use x="300" xlink:href="#MicrosoftYaHei-95f4"/>
      <use x="400" xlink:href="#MicrosoftYaHei-7a97"/>
      <use x="500" xlink:href="#MicrosoftYaHei-53e3"/>
     </g>
    </g>
   </g>
   <g id="matplotlib.axis_2">
    <g id="ytick_1">
     <g id="line2d_10">
      <defs>
       <path d="M 0 0 
L -3.5 0 
" id="ma8546af636" style="stroke:#000000;stroke-width:0.8;"/>
      </defs>
      <g>
       <use style="stroke:#000000;stroke-width:0.8;" x="57.98" xlink:href="#ma8546af636" y="382.84"/>
      </g>
     </g>
     <g id="text_11">
      <!-- 50 -->
      <g transform="translate(36.90625 387.63625)scale(0.12 -0.12)">
       <defs>
        <path d="M 3294 1494 
Q 3294 784 2823 350 
Q 2353 -84 1559 -84 
Q 878 -84 544 119 
L 544 744 
Q 1034 425 1544 425 
Q 2050 425 2361 704 
Q 2672 984 2672 1447 
Q 2672 1909 2348 2167 
Q 2025 2425 1434 2425 
Q 978 2425 613 2384 
L 791 4841 
L 3053 4841 
L 3053 4303 
L 1306 4303 
L 1206 2931 
L 1647 2950 
Q 2416 2950 2855 2567 
Q 3294 2184 3294 1494 
z
" id="MicrosoftYaHei-35" transform="scale(0.015625)"/>
        <path d="M 284 2325 
Q 284 3606 709 4264 
Q 1134 4922 1941 4922 
Q 3478 4922 3478 2441 
Q 3478 1216 3045 567 
Q 2613 -81 1831 -81 
Q 1094 -81 689 534 
Q 284 1150 284 2325 
z
M 909 2353 
Q 909 425 1888 425 
Q 2850 425 2850 2384 
Q 2850 4413 1906 4413 
Q 909 4413 909 2353 
z
" id="MicrosoftYaHei-30" transform="scale(0.015625)"/>
       </defs>
       <use xlink:href="#MicrosoftYaHei-35"/>
       <use x="58.642578" xlink:href="#MicrosoftYaHei-30"/>
      </g>
     </g>
    </g>
    <g id="ytick_2">
     <g id="line2d_11">
      <g>
       <use style="stroke:#000000;stroke-width:0.8;" x="57.98" xlink:href="#ma8546af636" y="309.368"/>
      </g>
     </g>
     <g id="text_12">
      <!-- 60 -->
      <g transform="translate(36.90625 314.16425)scale(0.12 -0.12)">
       <use xlink:href="#MicrosoftYaHei-36"/>
       <use x="58.642578" xlink:href="#MicrosoftYaHei-30"/>
      </g>
     </g>
    </g>
    <g id="ytick_3">
     <g id="line2d_12">
      <g>
       <use style="stroke:#000000;stroke-width:0.8;" x="57.98" xlink:href="#ma8546af636" y="235.896"/>
      </g>
     </g>
     <g id="text_13">
      <!-- 70 -->
      <g transform="translate(36.90625 240.69225)scale(0.12 -0.12)">
       <defs>
        <path d="M 3422 4463 
Q 2659 3131 2223 1998 
Q 1788 866 1684 0 
L 1047 0 
Q 1163 853 1594 1947 
Q 2025 3041 2747 4300 
L 347 4300 
L 347 4841 
L 3422 4841 
L 3422 4463 
z
" id="MicrosoftYaHei-37" transform="scale(0.015625)"/>
       </defs>
       <use xlink:href="#MicrosoftYaHei-37"/>
       <use x="58.642578" xlink:href="#MicrosoftYaHei-30"/>
      </g>
     </g>
    </g>
    <g id="ytick_4">
     <g id="line2d_13">
      <g>
       <use style="stroke:#000000;stroke-width:0.8;" x="57.98" xlink:href="#ma8546af636" y="162.424"/>
      </g>
     </g>
     <g id="text_14">
      <!-- 80 -->
      <g transform="translate(36.90625 167.22025)scale(0.12 -0.12)">
       <use xlink:href="#MicrosoftYaHei-38"/>
       <use x="58.642578" xlink:href="#MicrosoftYaHei-30"/>
      </g>
     </g>
    </g>
    <g id="ytick_5">
     <g id="line2d_14">
      <g>
       <use style="stroke:#000000;stroke-width:0.8;" x="57.98" xlink:href="#ma8546af636" y="88.952"/>
      </g>
     </g>
     <g id="text_15">
      <!-- 90 -->
      <g transform="translate(36.90625 93.74825)scale(0.12 -0.12)">
       <defs>
        <path d="M 578 656 
Q 978 425 1441 425 
Q 2091 425 2448 937 
Q 2806 1450 2806 2394 
Q 2800 2388 2794 2394 
Q 2475 1788 1722 1788 
Q 1113 1788 713 2206 
Q 313 2625 313 3294 
Q 313 4006 750 4464 
Q 1188 4922 1884 4922 
Q 2606 4922 3012 4355 
Q 3419 3788 3419 2703 
Q 3419 1363 2894 641 
Q 2369 -81 1441 -81 
Q 931 -81 578 84 
L 578 656 
z
M 931 3372 
Q 931 2884 1181 2598 
Q 1431 2313 1872 2313 
Q 2253 2313 2512 2573 
Q 2772 2834 2772 3206 
Q 2772 3728 2514 4070 
Q 2256 4413 1834 4413 
Q 1444 4413 1187 4116 
Q 931 3819 931 3372 
z
" id="MicrosoftYaHei-39" transform="scale(0.015625)"/>
       </defs>
       <use xlink:href="#MicrosoftYaHei-39"/>
       <use x="58.642578" xlink:href="#MicrosoftYaHei-30"/>
      </g>
     </g>
    </g>
    <g id="ytick_6">
     <g id="line2d_15">
      <g>
       <use style="stroke:#000000;stroke-width:0.8;" x="57.98" xlink:href="#ma8546af636" y="15.48"/>
      </g>
     </g>
     <g id="text_16">
      <!-- 100 -->
      <g transform="translate(29.869375 20.27625)scale(0.12 -0.12)">
       <use xlink:href="#MicrosoftYaHei-31"/>
       <use x="58.642578" xlink:href="#MicrosoftYaHei-30"/>
       <use x="117.285156" xlink:href="#MicrosoftYaHei-30"/>
      </g>
     </g>
    </g>
    <g id="text_17">
     <!-- F1-Score -->
     <g transform="translate(22.389062 228.561094)rotate(-90)scale(0.14 -0.14)">
      <defs>
       <path d="M 3119 4284 
L 1250 4284 
L 1250 2666 
L 2981 2666 
L 2981 2116 
L 1250 2116 
L 1250 0 
L 625 0 
L 625 4841 
L 3119 4841 
L 3119 4284 
z
" id="MicrosoftYaHei-46" transform="scale(0.015625)"/>
       <path d="M 2328 1681 
L 488 1681 
L 488 2153 
L 2328 2153 
L 2328 1681 
z
" id="MicrosoftYaHei-2d" transform="scale(0.015625)"/>
       <path d="M 400 909 
Q 622 716 994 591 
Q 1366 466 1700 466 
Q 2719 466 2719 1191 
Q 2719 1394 2609 1556 
Q 2500 1719 2309 1844 
Q 2119 1969 1594 2228 
Q 866 2591 634 2902 
Q 403 3213 403 3613 
Q 403 4216 887 4569 
Q 1372 4922 2109 4922 
Q 2831 4922 3169 4747 
L 3169 4066 
Q 2731 4369 2063 4369 
Q 1619 4369 1339 4183 
Q 1059 3997 1059 3666 
Q 1059 3372 1253 3187 
Q 1447 3003 2094 2684 
Q 2806 2344 3090 2003 
Q 3375 1663 3375 1238 
Q 3375 600 2912 259 
Q 2450 -81 1628 -81 
Q 1341 -81 958 -1 
Q 575 78 400 197 
L 400 909 
z
" id="MicrosoftYaHei-53" transform="scale(0.015625)"/>
       <path d="M 2934 156 
Q 2538 -81 1978 -81 
Q 1228 -81 772 400 
Q 316 881 316 1647 
Q 316 2497 808 3017 
Q 1300 3538 2125 3538 
Q 2600 3538 2938 3369 
L 2938 2763 
Q 2572 3031 2125 3031 
Q 1600 3031 1270 2667 
Q 941 2303 941 1697 
Q 941 1100 1252 762 
Q 1563 425 2091 425 
Q 2538 425 2934 719 
L 2934 156 
z
" id="MicrosoftYaHei-63" transform="scale(0.015625)"/>
       <path d="M 316 1691 
Q 316 2547 794 3042 
Q 1272 3538 2091 3538 
Q 2869 3538 3311 3061 
Q 3753 2584 3753 1744 
Q 3753 925 3281 422 
Q 2809 -81 2016 -81 
Q 1241 -81 778 406 
Q 316 894 316 1691 
z
M 941 1709 
Q 941 1113 1242 769 
Q 1544 425 2053 425 
Q 2578 425 2853 761 
Q 3128 1097 3128 1725 
Q 3128 2356 2853 2693 
Q 2578 3031 2053 3031 
Q 1538 3031 1239 2678 
Q 941 2325 941 1709 
z
" id="MicrosoftYaHei-6f" transform="scale(0.015625)"/>
       <path d="M 2400 2850 
Q 2247 2959 1978 2959 
Q 1622 2959 1390 2626 
Q 1159 2294 1159 1750 
L 1159 0 
L 547 0 
L 547 3456 
L 1159 3456 
L 1159 2753 
L 1172 2753 
Q 1434 3516 2078 3516 
Q 2288 3516 2400 3469 
L 2400 2850 
z
" id="MicrosoftYaHei-72" transform="scale(0.015625)"/>
       <path d="M 3363 1572 
L 944 1572 
Q 959 1019 1246 717 
Q 1534 416 2050 416 
Q 2631 416 3116 788 
L 3116 241 
Q 2659 -81 1906 -81 
Q 1156 -81 736 394 
Q 316 869 316 1713 
Q 316 2506 777 3022 
Q 1238 3538 1922 3538 
Q 2600 3538 2981 3102 
Q 3363 2666 3363 1881 
L 3363 1572 
z
M 2750 2063 
Q 2747 2531 2528 2787 
Q 2309 3044 1913 3044 
Q 1547 3044 1280 2772 
Q 1013 2500 944 2063 
L 2750 2063 
z
" id="MicrosoftYaHei-65" transform="scale(0.015625)"/>
      </defs>
      <use xlink:href="#MicrosoftYaHei-46"/>
      <use x="53.125" xlink:href="#MicrosoftYaHei-31"/>
      <use x="111.767578" xlink:href="#MicrosoftYaHei-2d"/>
      <use x="155.029297" xlink:href="#MicrosoftYaHei-53"/>
      <use x="212.744141" xlink:href="#MicrosoftYaHei-63"/>
      <use x="262.890625" xlink:href="#MicrosoftYaHei-6f"/>
      <use x="326.464844" xlink:href="#MicrosoftYaHei-72"/>
      <use x="363.273438" xlink:href="#MicrosoftYaHei-65"/>
     </g>
    </g>
   </g>
   <g id="patch_48">
    <path d="M 57.98 382.84 
L 57.98 15.48 
" style="fill:none;stroke:#000000;stroke-linecap:square;stroke-linejoin:miter;stroke-width:0.8;"/>
   </g>
   <g id="patch_49">
    <path d="M 853.2 382.84 
L 853.2 15.48 
" style="fill:none;stroke:#000000;stroke-linecap:square;stroke-linejoin:miter;stroke-width:0.8;"/>
   </g>
   <g id="patch_50">
    <path d="M 57.98 382.84 
L 853.2 382.84 
" style="fill:none;stroke:#000000;stroke-linecap:square;stroke-linejoin:miter;stroke-width:0.8;"/>
   </g>
   <g id="patch_51">
    <path d="M 57.98 15.48 
L 853.2 15.48 
" style="fill:none;stroke:#000000;stroke-linecap:square;stroke-linejoin:miter;stroke-width:0.8;"/>
   </g>
   <g id="text_18">
    <!-- 75.35 -->
    <g transform="translate(88.684055 190.677536)scale(0.09 -0.09)">
     <defs>
      <path d="M 372 322 
Q 372 491 487 606 
Q 603 722 775 722 
Q 950 722 1065 605 
Q 1181 488 1181 322 
Q 1181 159 1065 42 
Q 950 -75 772 -75 
Q 600 -75 486 42 
Q 372 159 372 322 
z
" id="MicrosoftYaHei-2e" transform="scale(0.015625)"/>
      <path d="M 447 809 
Q 944 425 1569 425 
Q 2069 425 2361 670 
Q 2653 916 2653 1328 
Q 2653 2247 1338 2247 
L 934 2247 
L 934 2753 
L 1319 2753 
Q 2484 2753 2484 3616 
Q 2484 4413 1594 4413 
Q 1084 4413 634 4069 
L 634 4647 
Q 1109 4922 1744 4922 
Q 2363 4922 2738 4598 
Q 3113 4275 3113 3759 
Q 3113 2809 2144 2538 
L 2144 2525 
Q 2669 2469 2973 2155 
Q 3278 1841 3278 1372 
Q 3278 719 2808 319 
Q 2338 -81 1556 -81 
Q 869 -81 447 175 
L 447 809 
z
" id="MicrosoftYaHei-33" transform="scale(0.015625)"/>
     </defs>
     <use xlink:href="#MicrosoftYaHei-37"/>
     <use x="58.642578" xlink:href="#MicrosoftYaHei-35"/>
     <use x="117.285156" xlink:href="#MicrosoftYaHei-2e"/>
     <use x="141.357422" xlink:href="#MicrosoftYaHei-33"/>
     <use x="200" xlink:href="#MicrosoftYaHei-35"/>
    </g>
   </g>
   <g id="text_19">
    <!-- 76.12 -->
    <g transform="translate(171.304315 185.020192)scale(0.09 -0.09)">
     <use xlink:href="#MicrosoftYaHei-37"/>
     <use x="58.642578" xlink:href="#MicrosoftYaHei-36"/>
     <use x="117.285156" xlink:href="#MicrosoftYaHei-2e"/>
     <use x="141.357422" xlink:href="#MicrosoftYaHei-31"/>
     <use x="200" xlink:href="#MicrosoftYaHei-32"/>
    </g>
   </g>
   <g id="text_20">
    <!-- 78.24 -->
    <g transform="translate(253.924574 169.444128)scale(0.09 -0.09)">
     <use xlink:href="#MicrosoftYaHei-37"/>
     <use x="58.642578" xlink:href="#MicrosoftYaHei-38"/>
     <use x="117.285156" xlink:href="#MicrosoftYaHei-2e"/>
     <use x="141.357422" xlink:href="#MicrosoftYaHei-32"/>
     <use x="200" xlink:href="#MicrosoftYaHei-34"/>
    </g>
   </g>
   <g id="text_21">
    <!-- 80.15 -->
    <g transform="translate(336.544834 155.410976)scale(0.09 -0.09)">
     <use xlink:href="#MicrosoftYaHei-38"/>
     <use x="58.642578" xlink:href="#MicrosoftYaHei-30"/>
     <use x="117.285156" xlink:href="#MicrosoftYaHei-2e"/>
     <use x="141.357422" xlink:href="#MicrosoftYaHei-31"/>
     <use x="200" xlink:href="#MicrosoftYaHei-35"/>
    </g>
   </g>
   <g id="text_22">
    <!-- 77.64 -->
    <g transform="translate(419.165094 173.852448)scale(0.09 -0.09)">
     <use xlink:href="#MicrosoftYaHei-37"/>
     <use x="58.642578" xlink:href="#MicrosoftYaHei-37"/>
     <use x="117.285156" xlink:href="#MicrosoftYaHei-2e"/>
     <use x="141.357422" xlink:href="#MicrosoftYaHei-36"/>
     <use x="200" xlink:href="#MicrosoftYaHei-34"/>
    </g>
   </g>
   <g id="text_23">
    <!-- 72.18 -->
    <g transform="translate(501.785354 213.96816)scale(0.09 -0.09)">
     <use xlink:href="#MicrosoftYaHei-37"/>
     <use x="58.642578" xlink:href="#MicrosoftYaHei-32"/>
     <use x="117.285156" xlink:href="#MicrosoftYaHei-2e"/>
     <use x="141.357422" xlink:href="#MicrosoftYaHei-31"/>
     <use x="200" xlink:href="#MicrosoftYaHei-38"/>
    </g>
   </g>
   <g id="text_24">
    <!-- 79.57 -->
    <g transform="translate(584.405613 159.672352)scale(0.09 -0.09)">
     <use xlink:href="#MicrosoftYaHei-37"/>
     <use x="58.642578" xlink:href="#MicrosoftYaHei-39"/>
     <use x="117.285156" xlink:href="#MicrosoftYaHei-2e"/>
     <use x="141.357422" xlink:href="#MicrosoftYaHei-35"/>
     <use x="200" xlink:href="#MicrosoftYaHei-37"/>
    </g>
   </g>
   <g id="text_25">
    <!-- 84.28 -->
    <g transform="translate(667.025873 125.06704)scale(0.09 -0.09)">
     <use xlink:href="#MicrosoftYaHei-38"/>
     <use x="58.642578" xlink:href="#MicrosoftYaHei-34"/>
     <use x="117.285156" xlink:href="#MicrosoftYaHei-2e"/>
     <use x="141.357422" xlink:href="#MicrosoftYaHei-32"/>
     <use x="200" xlink:href="#MicrosoftYaHei-38"/>
    </g>
   </g>
   <g id="text_26">
    <!-- 81.36 -->
    <g transform="translate(749.646133 146.520864)scale(0.09 -0.09)">
     <use xlink:href="#MicrosoftYaHei-38"/>
     <use x="58.642578" xlink:href="#MicrosoftYaHei-31"/>
     <use x="117.285156" xlink:href="#MicrosoftYaHei-2e"/>
     <use x="141.357422" xlink:href="#MicrosoftYaHei-33"/>
     <use x="200" xlink:href="#MicrosoftYaHei-36"/>
    </g>
   </g>
   <g id="text_27">
    <!-- 76.54 -->
    <g transform="translate(101.077094 181.934368)scale(0.09 -0.09)">
     <use xlink:href="#MicrosoftYaHei-37"/>
     <use x="58.642578" xlink:href="#MicrosoftYaHei-36"/>
     <use x="117.285156" xlink:href="#MicrosoftYaHei-2e"/>
     <use x="141.357422" xlink:href="#MicrosoftYaHei-35"/>
     <use x="200" xlink:href="#MicrosoftYaHei-34"/>
    </g>
   </g>
   <g id="text_28">
    <!-- 77.19 -->
    <g transform="translate(183.697354 177.158688)scale(0.09 -0.09)">
     <use xlink:href="#MicrosoftYaHei-37"/>
     <use x="58.642578" xlink:href="#MicrosoftYaHei-37"/>
     <use x="117.285156" xlink:href="#MicrosoftYaHei-2e"/>
     <use x="141.357422" xlink:href="#MicrosoftYaHei-31"/>
     <use x="200" xlink:href="#MicrosoftYaHei-39"/>
    </g>
   </g>
   <g id="text_29">
    <!-- 76.75 -->
    <g transform="translate(266.317613 180.391456)scale(0.09 -0.09)">
     <use xlink:href="#MicrosoftYaHei-37"/>
     <use x="58.642578" xlink:href="#MicrosoftYaHei-36"/>
     <use x="117.285156" xlink:href="#MicrosoftYaHei-2e"/>
     <use x="141.357422" xlink:href="#MicrosoftYaHei-37"/>
     <use x="200" xlink:href="#MicrosoftYaHei-35"/>
    </g>
   </g>
   <g id="text_30">
    <!-- 79.08 -->
    <g transform="translate(348.937873 163.27248)scale(0.09 -0.09)">
     <use xlink:href="#MicrosoftYaHei-37"/>
     <use x="58.642578" xlink:href="#MicrosoftYaHei-39"/>
     <use x="117.285156" xlink:href="#MicrosoftYaHei-2e"/>
     <use x="141.357422" xlink:href="#MicrosoftYaHei-30"/>
     <use x="200" xlink:href="#MicrosoftYaHei-38"/>
    </g>
   </g>
   <g id="text_31">
    <!-- 78.13 -->
    <g transform="translate(431.558133 170.25232)scale(0.09 -0.09)">
     <use xlink:href="#MicrosoftYaHei-37"/>
     <use x="58.642578" xlink:href="#MicrosoftYaHei-38"/>
     <use x="117.285156" xlink:href="#MicrosoftYaHei-2e"/>
     <use x="141.357422" xlink:href="#MicrosoftYaHei-31"/>
     <use x="200" xlink:href="#MicrosoftYaHei-33"/>
    </g>
   </g>
   <g id="text_32">
    <!-- 71.48 -->
    <g transform="translate(514.178393 219.1112)scale(0.09 -0.09)">
     <use xlink:href="#MicrosoftYaHei-37"/>
     <use x="58.642578" xlink:href="#MicrosoftYaHei-31"/>
     <use x="117.285156" xlink:href="#MicrosoftYaHei-2e"/>
     <use x="141.357422" xlink:href="#MicrosoftYaHei-34"/>
     <use x="200" xlink:href="#MicrosoftYaHei-38"/>
    </g>
   </g>
   <g id="text_33">
    <!-- 82.37 -->
    <g transform="translate(596.798652 139.100192)scale(0.09 -0.09)">
     <use xlink:href="#MicrosoftYaHei-38"/>
     <use x="58.642578" xlink:href="#MicrosoftYaHei-32"/>
     <use x="117.285156" xlink:href="#MicrosoftYaHei-2e"/>
     <use x="141.357422" xlink:href="#MicrosoftYaHei-33"/>
     <use x="200" xlink:href="#MicrosoftYaHei-37"/>
    </g>
   </g>
   <g id="text_34">
    <!-- 80.75 -->
    <g transform="translate(679.418912 151.002656)scale(0.09 -0.09)">
     <use xlink:href="#MicrosoftYaHei-38"/>
     <use x="58.642578" xlink:href="#MicrosoftYaHei-30"/>
     <use x="117.285156" xlink:href="#MicrosoftYaHei-2e"/>
     <use x="141.357422" xlink:href="#MicrosoftYaHei-37"/>
     <use x="200" xlink:href="#MicrosoftYaHei-35"/>
    </g>
   </g>
   <g id="text_35">
    <!-- 81.03 -->
    <g transform="translate(762.039172 148.94544)scale(0.09 -0.09)">
     <use xlink:href="#MicrosoftYaHei-38"/>
     <use x="58.642578" xlink:href="#MicrosoftYaHei-31"/>
     <use x="117.285156" xlink:href="#MicrosoftYaHei-2e"/>
     <use x="141.357422" xlink:href="#MicrosoftYaHei-30"/>
     <use x="200" xlink:href="#MicrosoftYaHei-33"/>
    </g>
   </g>
   <g id="text_36">
    <!-- 71.84 -->
    <g transform="translate(113.470133 216.466208)scale(0.09 -0.09)">
     <use xlink:href="#MicrosoftYaHei-37"/>
     <use x="58.642578" xlink:href="#MicrosoftYaHei-31"/>
     <use x="117.285156" xlink:href="#MicrosoftYaHei-2e"/>
     <use x="141.357422" xlink:href="#MicrosoftYaHei-38"/>
     <use x="200" xlink:href="#MicrosoftYaHei-34"/>
    </g>
   </g>
   <g id="text_37">
    <!-- 73.79 -->
    <g transform="translate(196.090393 202.139168)scale(0.09 -0.09)">
     <use xlink:href="#MicrosoftYaHei-37"/>
     <use x="58.642578" xlink:href="#MicrosoftYaHei-33"/>
     <use x="117.285156" xlink:href="#MicrosoftYaHei-2e"/>
     <use x="141.357422" xlink:href="#MicrosoftYaHei-37"/>
     <use x="200" xlink:href="#MicrosoftYaHei-39"/>
    </g>
   </g>
   <g id="text_38">
    <!-- 75.59 -->
    <g transform="translate(278.710652 188.914208)scale(0.09 -0.09)">
     <use xlink:href="#MicrosoftYaHei-37"/>
     <use x="58.642578" xlink:href="#MicrosoftYaHei-35"/>
     <use x="117.285156" xlink:href="#MicrosoftYaHei-2e"/>
     <use x="141.357422" xlink:href="#MicrosoftYaHei-35"/>
     <use x="200" xlink:href="#MicrosoftYaHei-39"/>
    </g>
   </g>
   <g id="text_39">
    <!-- 73.54 -->
    <g transform="translate(361.330912 203.975968)scale(0.09 -0.09)">
     <use xlink:href="#MicrosoftYaHei-37"/>
     <use x="58.642578" xlink:href="#MicrosoftYaHei-33"/>
     <use x="117.285156" xlink:href="#MicrosoftYaHei-2e"/>
     <use x="141.357422" xlink:href="#MicrosoftYaHei-35"/>
     <use x="200" xlink:href="#MicrosoftYaHei-34"/>
    </g>
   </g>
   <g id="text_40">
    <!-- 74.38 -->
    <g transform="translate(443.951172 197.80432)scale(0.09 -0.09)">
     <use xlink:href="#MicrosoftYaHei-37"/>
     <use x="58.642578" xlink:href="#MicrosoftYaHei-34"/>
     <use x="117.285156" xlink:href="#MicrosoftYaHei-2e"/>
     <use x="141.357422" xlink:href="#MicrosoftYaHei-33"/>
     <use x="200" xlink:href="#MicrosoftYaHei-38"/>
    </g>
   </g>
   <g id="text_41">
    <!-- 72.56 -->
    <g transform="translate(526.571432 211.176224)scale(0.09 -0.09)">
     <use xlink:href="#MicrosoftYaHei-37"/>
     <use x="58.642578" xlink:href="#MicrosoftYaHei-32"/>
     <use x="117.285156" xlink:href="#MicrosoftYaHei-2e"/>
     <use x="141.357422" xlink:href="#MicrosoftYaHei-35"/>
     <use x="200" xlink:href="#MicrosoftYaHei-36"/>
    </g>
   </g>
   <g id="text_42">
    <!-- 78.52 -->
    <g transform="translate(609.191691 167.386912)scale(0.09 -0.09)">
     <use xlink:href="#MicrosoftYaHei-37"/>
     <use x="58.642578" xlink:href="#MicrosoftYaHei-38"/>
     <use x="117.285156" xlink:href="#MicrosoftYaHei-2e"/>
     <use x="141.357422" xlink:href="#MicrosoftYaHei-35"/>
     <use x="200" xlink:href="#MicrosoftYaHei-32"/>
    </g>
   </g>
   <g id="text_43">
    <!-- 77.53 -->
    <g transform="translate(691.811951 174.66064)scale(0.09 -0.09)">
     <use xlink:href="#MicrosoftYaHei-37"/>
     <use x="58.642578" xlink:href="#MicrosoftYaHei-37"/>
     <use x="117.285156" xlink:href="#MicrosoftYaHei-2e"/>
     <use x="141.357422" xlink:href="#MicrosoftYaHei-35"/>
     <use x="200" xlink:href="#MicrosoftYaHei-33"/>
    </g>
   </g>
   <g id="text_44">
    <!-- 82.19 -->
    <g transform="translate(774.432211 140.422688)scale(0.09 -0.09)">
     <use xlink:href="#MicrosoftYaHei-38"/>
     <use x="58.642578" xlink:href="#MicrosoftYaHei-32"/>
     <use x="117.285156" xlink:href="#MicrosoftYaHei-2e"/>
     <use x="141.357422" xlink:href="#MicrosoftYaHei-31"/>
     <use x="200" xlink:href="#MicrosoftYaHei-39"/>
    </g>
   </g>
   <g id="text_45">
    <!-- 76.84 -->
    <g transform="translate(125.863172 179.730208)scale(0.09 -0.09)">
     <use xlink:href="#MicrosoftYaHei-37"/>
     <use x="58.642578" xlink:href="#MicrosoftYaHei-36"/>
     <use x="117.285156" xlink:href="#MicrosoftYaHei-2e"/>
     <use x="141.357422" xlink:href="#MicrosoftYaHei-38"/>
     <use x="200" xlink:href="#MicrosoftYaHei-34"/>
    </g>
   </g>
   <g id="text_46">
    <!-- 76.32 -->
    <g transform="translate(208.483432 183.550752)scale(0.09 -0.09)">
     <use xlink:href="#MicrosoftYaHei-37"/>
     <use x="58.642578" xlink:href="#MicrosoftYaHei-36"/>
     <use x="117.285156" xlink:href="#MicrosoftYaHei-2e"/>
     <use x="141.357422" xlink:href="#MicrosoftYaHei-33"/>
     <use x="200" xlink:href="#MicrosoftYaHei-32"/>
    </g>
   </g>
   <g id="text_47">
    <!-- 79.15 -->
    <g transform="translate(291.103691 162.758176)scale(0.09 -0.09)">
     <use xlink:href="#MicrosoftYaHei-37"/>
     <use x="58.642578" xlink:href="#MicrosoftYaHei-39"/>
     <use x="117.285156" xlink:href="#MicrosoftYaHei-2e"/>
     <use x="141.357422" xlink:href="#MicrosoftYaHei-31"/>
     <use x="200" xlink:href="#MicrosoftYaHei-35"/>
    </g>
   </g>
   <g id="text_48">
    <!-- 82.57 -->
    <g transform="translate(373.723951 137.630752)scale(0.09 -0.09)">
     <use xlink:href="#MicrosoftYaHei-38"/>
     <use x="58.642578" xlink:href="#MicrosoftYaHei-32"/>
     <use x="117.285156" xlink:href="#MicrosoftYaHei-2e"/>
     <use x="141.357422" xlink:href="#MicrosoftYaHei-35"/>
     <use x="200" xlink:href="#MicrosoftYaHei-37"/>
    </g>
   </g>
   <g id="text_49">
    <!-- 78.59 -->
    <g transform="translate(456.344211 166.872608)scale(0.09 -0.09)">
     <use xlink:href="#MicrosoftYaHei-37"/>
     <use x="58.642578" xlink:href="#MicrosoftYaHei-38"/>
     <use x="117.285156" xlink:href="#MicrosoftYaHei-2e"/>
     <use x="141.357422" xlink:href="#MicrosoftYaHei-35"/>
     <use x="200" xlink:href="#MicrosoftYaHei-39"/>
    </g>
   </g>
   <g id="text_50">
    <!-- 75.62 -->
    <g transform="translate(538.964471 188.693792)scale(0.09 -0.09)">
     <use xlink:href="#MicrosoftYaHei-37"/>
     <use x="58.642578" xlink:href="#MicrosoftYaHei-35"/>
     <use x="117.285156" xlink:href="#MicrosoftYaHei-2e"/>
     <use x="141.357422" xlink:href="#MicrosoftYaHei-36"/>
     <use x="200" xlink:href="#MicrosoftYaHei-32"/>
    </g>
   </g>
   <g id="text_51">
    <!-- 81.47 -->
    <g transform="translate(621.58473 145.712672)scale(0.09 -0.09)">
     <use xlink:href="#MicrosoftYaHei-38"/>
     <use x="58.642578" xlink:href="#MicrosoftYaHei-31"/>
     <use x="117.285156" xlink:href="#MicrosoftYaHei-2e"/>
     <use x="141.357422" xlink:href="#MicrosoftYaHei-34"/>
     <use x="200" xlink:href="#MicrosoftYaHei-37"/>
    </g>
   </g>
   <g id="text_52">
    <!-- 88.46 -->
    <g transform="translate(704.20499 94.355744)scale(0.09 -0.09)">
     <use xlink:href="#MicrosoftYaHei-38"/>
     <use x="58.642578" xlink:href="#MicrosoftYaHei-38"/>
     <use x="117.285156" xlink:href="#MicrosoftYaHei-2e"/>
     <use x="141.357422" xlink:href="#MicrosoftYaHei-34"/>
     <use x="200" xlink:href="#MicrosoftYaHei-36"/>
    </g>
   </g>
   <g id="text_53">
    <!-- 85.29 -->
    <g transform="translate(786.82525 117.646368)scale(0.09 -0.09)">
     <use xlink:href="#MicrosoftYaHei-38"/>
     <use x="58.642578" xlink:href="#MicrosoftYaHei-35"/>
     <use x="117.285156" xlink:href="#MicrosoftYaHei-2e"/>
     <use x="141.357422" xlink:href="#MicrosoftYaHei-32"/>
     <use x="200" xlink:href="#MicrosoftYaHei-39"/>
    </g>
   </g>
   <g id="text_54">
    <!-- 74.59 -->
    <g transform="translate(138.256211 196.261408)scale(0.09 -0.09)">
     <use xlink:href="#MicrosoftYaHei-37"/>
     <use x="58.642578" xlink:href="#MicrosoftYaHei-34"/>
     <use x="117.285156" xlink:href="#MicrosoftYaHei-2e"/>
     <use x="141.357422" xlink:href="#MicrosoftYaHei-35"/>
     <use x="200" xlink:href="#MicrosoftYaHei-39"/>
    </g>
   </g>
   <g id="text_55">
    <!-- 73.54 -->
    <g transform="translate(220.876471 203.975968)scale(0.09 -0.09)">
     <use xlink:href="#MicrosoftYaHei-37"/>
     <use x="58.642578" xlink:href="#MicrosoftYaHei-33"/>
     <use x="117.285156" xlink:href="#MicrosoftYaHei-2e"/>
     <use x="141.357422" xlink:href="#MicrosoftYaHei-35"/>
     <use x="200" xlink:href="#MicrosoftYaHei-34"/>
    </g>
   </g>
   <g id="text_56">
    <!-- 76.02 -->
    <g transform="translate(303.49673 185.754912)scale(0.09 -0.09)">
     <use xlink:href="#MicrosoftYaHei-37"/>
     <use x="58.642578" xlink:href="#MicrosoftYaHei-36"/>
     <use x="117.285156" xlink:href="#MicrosoftYaHei-2e"/>
     <use x="141.357422" xlink:href="#MicrosoftYaHei-30"/>
     <use x="200" xlink:href="#MicrosoftYaHei-32"/>
    </g>
   </g>
   <g id="text_57">
    <!-- 83.42 -->
    <g transform="translate(386.11699 131.385632)scale(0.09 -0.09)">
     <use xlink:href="#MicrosoftYaHei-38"/>
     <use x="58.642578" xlink:href="#MicrosoftYaHei-33"/>
     <use x="117.285156" xlink:href="#MicrosoftYaHei-2e"/>
     <use x="141.357422" xlink:href="#MicrosoftYaHei-34"/>
     <use x="200" xlink:href="#MicrosoftYaHei-32"/>
    </g>
   </g>
   <g id="text_58">
    <!-- 80.12 -->
    <g transform="translate(468.73725 155.631392)scale(0.09 -0.09)">
     <use xlink:href="#MicrosoftYaHei-38"/>
     <use x="58.642578" xlink:href="#MicrosoftYaHei-30"/>
     <use x="117.285156" xlink:href="#MicrosoftYaHei-2e"/>
     <use x="141.357422" xlink:href="#MicrosoftYaHei-31"/>
     <use x="200" xlink:href="#MicrosoftYaHei-32"/>
    </g>
   </g>
   <g id="text_59">
    <!-- 77.82 -->
    <g transform="translate(551.35751 172.529952)scale(0.09 -0.09)">
     <use xlink:href="#MicrosoftYaHei-37"/>
     <use x="58.642578" xlink:href="#MicrosoftYaHei-37"/>
     <use x="117.285156" xlink:href="#MicrosoftYaHei-2e"/>
     <use x="141.357422" xlink:href="#MicrosoftYaHei-38"/>
     <use x="200" xlink:href="#MicrosoftYaHei-32"/>
    </g>
   </g>
   <g id="text_60">
    <!-- 80.18 -->
    <g transform="translate(633.977769 155.19056)scale(0.09 -0.09)">
     <use xlink:href="#MicrosoftYaHei-38"/>
     <use x="58.642578" xlink:href="#MicrosoftYaHei-30"/>
     <use x="117.285156" xlink:href="#MicrosoftYaHei-2e"/>
     <use x="141.357422" xlink:href="#MicrosoftYaHei-31"/>
     <use x="200" xlink:href="#MicrosoftYaHei-38"/>
    </g>
   </g>
   <g id="text_61">
    <!-- 86.94 -->
    <g transform="translate(716.598029 105.523488)scale(0.09 -0.09)">
     <use xlink:href="#MicrosoftYaHei-38"/>
     <use x="58.642578" xlink:href="#MicrosoftYaHei-36"/>
     <use x="117.285156" xlink:href="#MicrosoftYaHei-2e"/>
     <use x="141.357422" xlink:href="#MicrosoftYaHei-39"/>
     <use x="200" xlink:href="#MicrosoftYaHei-34"/>
    </g>
   </g>
   <g id="text_62">
    <!-- 83.23 -->
    <g transform="translate(799.218289 132.7816)scale(0.09 -0.09)">
     <use xlink:href="#MicrosoftYaHei-38"/>
     <use x="58.642578" xlink:href="#MicrosoftYaHei-33"/>
     <use x="117.285156" xlink:href="#MicrosoftYaHei-2e"/>
     <use x="141.357422" xlink:href="#MicrosoftYaHei-32"/>
     <use x="200" xlink:href="#MicrosoftYaHei-33"/>
    </g>
   </g>
   <g id="legend_1">
    <g id="patch_52">
     <path d="M 739.363125 117.958125 
L 844.8 117.958125 
Q 847.2 117.958125 847.2 115.558125 
L 847.2 23.88 
Q 847.2 21.48 844.8 21.48 
L 739.363125 21.48 
Q 736.963125 21.48 736.963125 23.88 
L 736.963125 115.558125 
Q 736.963125 117.958125 739.363125 117.958125 
z
" style="fill:#ffffff;opacity:0.8;stroke:#cccccc;stroke-linejoin:miter;"/>
    </g>
    <g id="patch_53">
     <path d="M 741.763125 35.8725 
L 765.763125 35.8725 
L 765.763125 27.4725 
L 741.763125 27.4725 
z
" style="fill:#4c72b0;"/>
    </g>
    <g id="text_63">
     <!-- MSL -->
     <g transform="translate(775.363125 35.8725)scale(0.12 -0.12)">
      <defs>
       <path d="M 5003 0 
L 5003 3206 
Q 5003 3603 5050 4159 
L 5034 4159 
Q 4953 3809 4891 3672 
L 3294 0 
L 2947 0 
L 1353 3644 
Q 1297 3769 1209 4159 
L 1191 4159 
Q 1222 3822 1222 3178 
L 1222 0 
L 625 0 
L 625 4841 
L 1472 4841 
L 2900 1522 
Q 3063 1141 3116 928 
L 3138 928 
Q 3300 1375 3366 1534 
L 4819 4841 
L 5625 4841 
L 5625 0 
L 5003 0 
z
" id="MicrosoftYaHei-4d" transform="scale(0.015625)"/>
       <path d="M 3178 0 
L 625 0 
L 625 4841 
L 1250 4841 
L 1250 553 
L 3178 553 
L 3178 0 
z
" id="MicrosoftYaHei-4c" transform="scale(0.015625)"/>
      </defs>
      <use xlink:href="#MicrosoftYaHei-4d"/>
      <use x="97.705078" xlink:href="#MicrosoftYaHei-53"/>
      <use x="155.419922" xlink:href="#MicrosoftYaHei-4c"/>
     </g>
    </g>
    <g id="patch_54">
     <path d="M 741.763125 54.448125 
L 765.763125 54.448125 
L 765.763125 46.048125 
L 741.763125 46.048125 
z
" style="fill:#55a868;"/>
    </g>
    <g id="text_64">
     <!-- SWaT -->
     <g transform="translate(775.363125 54.448125)scale(0.12 -0.12)">
      <defs>
       <path d="M 6431 4841 
L 5075 0 
L 4347 0 
L 3372 3488 
Q 3306 3725 3294 3988 
L 3281 3988 
Q 3263 3728 3194 3494 
L 2209 0 
L 1488 0 
L 84 4841 
L 775 4841 
L 1763 1184 
Q 1828 938 1841 688 
L 1859 688 
Q 1875 875 1963 1184 
L 3009 4841 
L 3625 4841 
L 4625 1156 
Q 4675 975 4706 694 
L 4719 694 
Q 4734 897 4809 1169 
L 5759 4841 
L 6431 4841 
z
" id="MicrosoftYaHei-57" transform="scale(0.015625)"/>
       <path d="M 628 3216 
Q 1144 3538 1819 3538 
Q 3069 3538 3069 2225 
L 3069 0 
L 2463 0 
L 2463 534 
L 2447 534 
Q 2088 -81 1388 -81 
Q 884 -81 587 191 
Q 291 463 291 925 
Q 291 1894 1438 2053 
L 2463 2197 
Q 2463 3044 1763 3044 
Q 1141 3044 628 2625 
L 628 3216 
z
M 1653 1625 
Q 1228 1569 1067 1412 
Q 906 1256 906 975 
Q 906 728 1081 572 
Q 1256 416 1544 416 
Q 1944 416 2203 697 
Q 2463 978 2463 1403 
L 2463 1734 
L 1653 1625 
z
" id="MicrosoftYaHei-61" transform="scale(0.015625)"/>
       <path d="M 3550 4284 
L 2153 4284 
L 2153 0 
L 1525 0 
L 1525 4284 
L 134 4284 
L 134 4841 
L 3550 4841 
L 3550 4284 
z
" id="MicrosoftYaHei-54" transform="scale(0.015625)"/>
      </defs>
      <use xlink:href="#MicrosoftYaHei-53"/>
      <use x="57.714844" xlink:href="#MicrosoftYaHei-57"/>
      <use x="155.472656" xlink:href="#MicrosoftYaHei-61"/>
      <use x="210.746094" xlink:href="#MicrosoftYaHei-54"/>
     </g>
    </g>
    <g id="patch_55">
     <path d="M 741.763125 73.02375 
L 765.763125 73.02375 
L 765.763125 64.62375 
L 741.763125 64.62375 
z
" style="fill:#c44e52;"/>
    </g>
    <g id="text_65">
     <!-- WADI -->
     <g transform="translate(775.363125 73.02375)scale(0.12 -0.12)">
      <defs>
       <path d="M 4428 0 
L 3738 0 
L 3244 1325 
L 1228 1325 
L 763 0 
L 72 0 
L 1916 4841 
L 2584 4841 
L 4428 0 
z
M 3050 1872 
L 2319 3884 
Q 2284 3981 2244 4222 
L 2228 4222 
Q 2194 4003 2150 3884 
L 1425 1872 
L 3050 1872 
z
" id="MicrosoftYaHei-41" transform="scale(0.015625)"/>
       <path d="M 625 0 
L 625 4841 
L 2006 4841 
Q 3106 4841 3836 4200 
Q 4566 3559 4566 2481 
Q 4566 1356 3836 678 
Q 3106 0 1956 0 
L 625 0 
z
M 1250 4284 
L 1250 553 
L 1953 553 
Q 2875 553 3392 1056 
Q 3909 1559 3909 2466 
Q 3909 3372 3378 3828 
Q 2847 4284 1981 4284 
L 1250 4284 
z
" id="MicrosoftYaHei-44" transform="scale(0.015625)"/>
       <path d="M 1250 4841 
L 1250 0 
L 625 0 
L 625 4841 
L 1250 4841 
z
" id="MicrosoftYaHei-49" transform="scale(0.015625)"/>
      </defs>
      <use xlink:href="#MicrosoftYaHei-57"/>
      <use x="97.882812" xlink:href="#MicrosoftYaHei-41"/>
      <use x="168.244141" xlink:href="#MicrosoftYaHei-44"/>
      <use x="244.416016" xlink:href="#MicrosoftYaHei-49"/>
     </g>
    </g>
    <g id="patch_56">
     <path d="M 741.763125 91.599375 
L 765.763125 91.599375 
L 765.763125 83.199375 
L 741.763125 83.199375 
z
" style="fill:#8172b3;"/>
    </g>
    <g id="text_66">
     <!-- 港口数据集1 -->
     <g transform="translate(775.363125 91.599375)scale(0.12 -0.12)">
      <defs>
       <path d="M 1544 3347 
L 2713 3347 
L 2713 4153 
L 1856 4153 
L 1856 4566 
L 2713 4566 
L 2713 5297 
L 3175 5297 
L 3175 4566 
L 4425 4566 
L 4425 5297 
L 4888 5297 
L 4888 4566 
L 5875 4566 
L 5875 4153 
L 4888 4153 
L 4888 3347 
L 6131 3347 
L 6131 2934 
L 4909 2934 
Q 5434 2119 6313 1578 
Q 6119 1372 5981 1166 
Q 5425 1556 5006 2047 
L 5006 466 
L 4556 466 
L 4556 628 
L 2775 628 
L 2775 216 
Q 2775 -203 3169 -203 
L 4863 -203 
Q 5263 -203 5375 166 
Q 5438 409 5488 822 
Q 5681 734 5950 634 
Q 5875 272 5806 22 
Q 5625 -628 4931 -628 
L 3081 -628 
Q 2313 -628 2313 147 
L 2313 1722 
Q 1991 1378 1594 1072 
Q 1472 1259 1281 1488 
Q 1013 278 781 -791 
L 231 -628 
Q 525 366 831 1947 
Q 1094 1822 1338 1741 
Q 1313 1625 1284 1513 
Q 2172 2063 2656 2934 
L 1544 2934 
L 1544 3347 
z
M 4556 1778 
L 2775 1778 
L 2775 1028 
L 4556 1028 
L 4556 1778 
z
M 2691 2178 
L 4897 2178 
Q 4616 2531 4397 2934 
L 3150 2934 
Q 2959 2538 2691 2178 
z
M 3175 3347 
L 4425 3347 
L 4425 4153 
L 3175 4153 
L 3175 3347 
z
M 363 3666 
Q 950 3241 1488 2784 
L 1125 2384 
Q 394 3022 81 3272 
L 363 3666 
z
M 644 5184 
Q 1138 4797 1713 4278 
L 1338 3903 
Q 650 4578 325 4841 
L 644 5184 
z
" id="MicrosoftYaHei-6e2f" transform="scale(0.015625)"/>
       <path d="M 4175 5303 
L 4675 5228 
Q 4544 4622 4369 4097 
L 6281 4097 
L 6281 3672 
L 5888 3672 
Q 5731 1834 5088 753 
Q 5594 66 6375 -372 
Q 6175 -647 6038 -866 
Q 5275 -372 4769 309 
Q 4194 -403 3400 -928 
Q 3263 -747 3044 -534 
Q 3919 41 4463 772 
Q 3956 1647 3794 2791 
Q 3663 2559 3519 2359 
Q 3394 2541 3206 2759 
Q 3931 3803 4175 5303 
z
M 150 1697 
L 1100 1697 
Q 1238 1934 1369 2184 
L 1819 2041 
Q 1719 1866 1619 1697 
L 3150 1697 
L 3150 1291 
Q 2913 678 2431 216 
Q 2775 53 3131 -109 
L 2856 -541 
Q 2469 -322 2050 -103 
Q 1344 -609 269 -903 
Q 169 -703 56 -466 
Q 969 -259 1600 128 
Q 1063 403 475 691 
Q 675 978 863 1284 
L 150 1284 
L 150 1697 
z
M 219 3847 
L 1656 3847 
L 1656 5247 
L 2119 5247 
L 2119 3847 
L 3319 3847 
L 3319 3434 
L 2119 3434 
L 2119 3053 
L 2306 3266 
Q 2888 2841 3281 2516 
L 2981 2166 
Q 2638 2491 2119 2897 
L 2119 2184 
L 1656 2184 
L 1656 3059 
Q 1088 2466 331 2016 
Q 213 2197 63 2397 
Q 850 2822 1506 3434 
L 219 3434 
L 219 3847 
z
M 5388 3672 
L 4219 3672 
Q 4188 3591 4150 3516 
Q 4263 2191 4775 1247 
Q 5275 2159 5388 3672 
z
M 1088 834 
Q 1531 634 2000 416 
Q 2431 784 2675 1284 
L 1375 1284 
Q 1231 1053 1088 834 
z
M 3038 5091 
L 3425 4834 
Q 3081 4384 2738 4003 
Q 2594 4128 2400 4266 
Q 2725 4647 3038 5091 
z
M 381 4816 
L 738 5059 
Q 1019 4716 1319 4322 
L 931 4047 
Q 656 4453 381 4816 
z
" id="MicrosoftYaHei-6570" transform="scale(0.015625)"/>
       <path d="M 2900 1334 
L 4188 1334 
L 4188 2128 
L 2731 2128 
Q 2663 206 1844 -841 
Q 1694 -647 1506 -447 
Q 2288 516 2288 2509 
L 2288 4947 
L 5975 4947 
L 5975 3134 
L 5525 3134 
L 5525 3328 
L 2738 3328 
L 2738 2553 
L 4188 2553 
L 4188 3209 
L 4638 3209 
L 4638 2553 
L 6288 2553 
L 6288 2128 
L 4638 2128 
L 4638 1334 
L 5938 1334 
L 5938 -778 
L 5488 -778 
L 5488 -416 
L 3350 -416 
L 3350 -778 
L 2900 -778 
L 2900 1334 
z
M 100 1966 
Q 544 2088 963 2213 
L 963 3641 
L 175 3641 
L 175 4091 
L 963 4091 
L 963 5284 
L 1425 5284 
L 1425 4091 
L 2106 4091 
L 2106 3641 
L 1425 3641 
L 1425 2356 
Q 1722 2450 2006 2547 
Q 2013 2266 2044 2059 
Q 1722 1956 1425 1856 
L 1425 -34 
Q 1425 -741 806 -753 
Q 613 -759 231 -747 
Q 206 -497 156 -228 
Q 500 -266 681 -266 
Q 963 -266 963 53 
L 963 1703 
Q 534 1559 163 1428 
L 100 1966 
z
M 5525 4534 
L 2738 4534 
L 2738 3741 
L 5525 3741 
L 5525 4534 
z
M 5488 922 
L 3350 922 
L 3350 -9 
L 5488 -9 
L 5488 922 
z
" id="MicrosoftYaHei-636e" transform="scale(0.015625)"/>
       <path d="M 3056 5134 
L 3425 5359 
Q 3719 5034 3906 4722 
L 3619 4541 
L 6013 4541 
L 6013 4153 
L 3644 4153 
L 3644 3709 
L 5738 3709 
L 5738 3347 
L 3644 3347 
L 3644 2903 
L 5738 2903 
L 5738 2541 
L 3644 2541 
L 3644 2084 
L 6031 2084 
L 6031 1697 
L 1475 1697 
L 1475 1459 
L 1038 1459 
L 1038 3684 
Q 716 3309 381 3009 
Q 281 3191 81 3422 
Q 988 4178 1613 5284 
L 2044 5091 
Q 1869 4803 1688 4541 
L 3456 4541 
Q 3288 4825 3056 5134 
z
M 288 1141 
L 2981 1141 
L 2981 1566 
L 3419 1566 
L 3419 1141 
L 6106 1141 
L 6106 741 
L 3906 741 
Q 5000 -31 6338 -303 
Q 6169 -566 6044 -766 
Q 4519 -325 3419 631 
L 3419 -834 
L 2981 -834 
L 2981 638 
Q 1844 -313 356 -778 
Q 225 -584 63 -384 
Q 1406 -56 2475 741 
L 288 741 
L 288 1141 
z
M 1475 2084 
L 3206 2084 
L 3206 2541 
L 1475 2541 
L 1475 2084 
z
M 1475 2903 
L 3206 2903 
L 3206 3347 
L 1475 3347 
L 1475 2903 
z
M 1475 3709 
L 3206 3709 
L 3206 4153 
L 1475 4153 
L 1475 3709 
z
" id="MicrosoftYaHei-96c6" transform="scale(0.015625)"/>
      </defs>
      <use xlink:href="#MicrosoftYaHei-6e2f"/>
      <use x="100" xlink:href="#MicrosoftYaHei-53e3"/>
      <use x="200" xlink:href="#MicrosoftYaHei-6570"/>
      <use x="300" xlink:href="#MicrosoftYaHei-636e"/>
      <use x="400" xlink:href="#MicrosoftYaHei-96c6"/>
      <use x="500" xlink:href="#MicrosoftYaHei-31"/>
     </g>
    </g>
    <g id="patch_57">
     <path d="M 741.763125 110.175 
L 765.763125 110.175 
L 765.763125 101.775 
L 741.763125 101.775 
z
" style="fill:#ccb974;"/>
    </g>
    <g id="text_67">
     <!-- 港口数据集2 -->
     <g transform="translate(775.363125 110.175)scale(0.12 -0.12)">
      <use xlink:href="#MicrosoftYaHei-6e2f"/>
      <use x="100" xlink:href="#MicrosoftYaHei-53e3"/>
      <use x="200" xlink:href="#MicrosoftYaHei-6570"/>
      <use x="300" xlink:href="#MicrosoftYaHei-636e"/>
      <use x="400" xlink:href="#MicrosoftYaHei-96c6"/>
      <use x="500" xlink:href="#MicrosoftYaHei-32"/>
     </g>
    </g>
   </g>
  </g>
 </g>
 <defs>
  <clipPath id="pddd0555315">
   <rect height="367.36" width="795.22" x="57.98" y="15.48"/>
  </clipPath>
 </defs>
</svg>
