<?xml version="1.0" encoding="utf-8" standalone="no"?>
<!DOCTYPE svg PUBLIC "-//W3C//DTD SVG 1.1//EN"
  "http://www.w3.org/Graphics/SVG/1.1/DTD/svg11.dtd">
<svg height="347.04pt" version="1.1" viewBox="0 0 628.2 347.04" width="628.2pt" xmlns="http://www.w3.org/2000/svg" xmlns:xlink="http://www.w3.org/1999/xlink">
 <metadata>
  <rdf:RDF xmlns:cc="http://creativecommons.org/ns#" xmlns:dc="http://purl.org/dc/elements/1.1/" xmlns:rdf="http://www.w3.org/1999/02/22-rdf-syntax-ns#">
   <cc:Work>
    <dc:type rdf:resource="http://purl.org/dc/dcmitype/StillImage"/>
    <dc:date>2025-04-26T19:38:57.111660</dc:date>
    <dc:format>image/svg+xml</dc:format>
    <dc:creator>
     <cc:Agent>
      <dc:title>Matplotlib v3.4.3, https://matplotlib.org/</dc:title>
     </cc:Agent>
    </dc:creator>
   </cc:Work>
  </rdf:RDF>
 </metadata>
 <defs>
  <style type="text/css">*{stroke-linecap:butt;stroke-linejoin:round;}</style>
 </defs>
 <g id="figure_1">
  <g id="patch_1">
   <path d="M 0 347.04 
L 628.2 347.04 
L 628.2 -0 
L 0 -0 
z
" style="fill:#ffffff;"/>
  </g>
  <g id="axes_1">
   <g id="patch_2">
    <path clip-path="url(#p8b90520430)" d="M 63 245.592 
C 67.4395 245.592 71.697767 243.839548 74.836968 240.7206 
C 77.976168 237.601652 79.74 233.370858 79.74 228.96 
C 79.74 224.549142 77.976168 220.318348 74.836968 217.1994 
C 71.697767 214.080452 67.4395 212.328 63 212.328 
C 58.5605 212.328 54.302233 214.080452 51.163032 217.1994 
C 48.023832 220.318348 46.26 224.549142 46.26 228.96 
C 46.26 233.370858 48.023832 237.601652 51.163032 240.7206 
C 54.302233 243.839548 58.5605 245.592 63 245.592 
z
" style="fill:#4c72b0;opacity:0.8;stroke:#4c72b0;stroke-linejoin:miter;"/>
   </g>
   <g id="patch_3">
    <path clip-path="url(#p8b90520430)" d="M 146.7 245.592 
C 151.1395 245.592 155.397767 243.839548 158.536968 240.7206 
C 161.676168 237.601652 163.44 233.370858 163.44 228.96 
C 163.44 224.549142 161.676168 220.318348 158.536968 217.1994 
C 155.397767 214.080452 151.1395 212.328 146.7 212.328 
C 142.2605 212.328 138.002233 214.080452 134.863032 217.1994 
C 131.723832 220.318348 129.96 224.549142 129.96 228.96 
C 129.96 233.370858 131.723832 237.601652 134.863032 240.7206 
C 138.002233 243.839548 142.2605 245.592 146.7 245.592 
z
" style="fill:#4c72b0;opacity:0.8;stroke:#4c72b0;stroke-linejoin:miter;"/>
   </g>
   <g id="patch_4">
    <path clip-path="url(#p8b90520430)" d="M 230.4 245.592 
C 234.8395 245.592 239.097767 243.839548 242.236968 240.7206 
C 245.376168 237.601652 247.14 233.370858 247.14 228.96 
C 247.14 224.549142 245.376168 220.318348 242.236968 217.1994 
C 239.097767 214.080452 234.8395 212.328 230.4 212.328 
C 225.9605 212.328 221.702233 214.080452 218.563032 217.1994 
C 215.423832 220.318348 213.66 224.549142 213.66 228.96 
C 213.66 233.370858 215.423832 237.601652 218.563032 240.7206 
C 221.702233 243.839548 225.9605 245.592 230.4 245.592 
z
" style="fill:#4c72b0;opacity:0.8;stroke:#4c72b0;stroke-linejoin:miter;"/>
   </g>
   <g id="patch_5">
    <path clip-path="url(#p8b90520430)" d="M 286.2 162.432 
C 298.038666 162.432 309.394045 157.758793 317.765247 149.4416 
C 326.136448 141.124406 330.84 129.842288 330.84 118.08 
C 330.84 106.317712 326.136448 95.035594 317.765247 86.7184 
C 309.394045 78.401207 298.038666 73.728 286.2 73.728 
C 274.361334 73.728 263.005955 78.401207 254.634753 86.7184 
C 246.263552 95.035594 241.56 106.317712 241.56 118.08 
C 241.56 129.842288 246.263552 141.124406 254.634753 149.4416 
C 263.005955 157.758793 274.361334 162.432 286.2 162.432 
z
" style="fill:#dd8452;opacity:0.7;stroke:#dd8452;stroke-linejoin:miter;"/>
   </g>
   <g id="patch_6">
    <path clip-path="url(#p8b90520430)" d="M 286.2 217.872 
C 298.038666 217.872 309.394045 213.198793 317.765247 204.8816 
C 326.136448 196.564406 330.84 185.282288 330.84 173.52 
C 330.84 161.757712 326.136448 150.475594 317.765247 142.1584 
C 309.394045 133.841207 298.038666 129.168 286.2 129.168 
C 274.361334 129.168 263.005955 133.841207 254.634753 142.1584 
C 246.263552 150.475594 241.56 161.757712 241.56 173.52 
C 241.56 185.282288 246.263552 196.564406 254.634753 204.8816 
C 263.005955 213.198793 274.361334 217.872 286.2 217.872 
z
" style="fill:#dd8452;opacity:0.7;stroke:#dd8452;stroke-linejoin:miter;"/>
   </g>
   <g id="patch_7">
    <path clip-path="url(#p8b90520430)" d="M 286.2 273.312 
C 298.038666 273.312 309.394045 268.638793 317.765247 260.3216 
C 326.136448 252.004406 330.84 240.722288 330.84 228.96 
C 330.84 217.197712 326.136448 205.915594 317.765247 197.5984 
C 309.394045 189.281207 298.038666 184.608 286.2 184.608 
C 274.361334 184.608 263.005955 189.281207 254.634753 197.5984 
C 246.263552 205.915594 241.56 217.197712 241.56 228.96 
C 241.56 240.722288 246.263552 252.004406 254.634753 260.3216 
C 263.005955 268.638793 274.361334 273.312 286.2 273.312 
z
" style="fill:#dd8452;opacity:0.7;stroke:#dd8452;stroke-linejoin:miter;"/>
   </g>
   <g id="patch_8">
    <path clip-path="url(#p8b90520430)" d="M 81.416571 222.324643 
Q 160.651354 170.747118 238.480632 120.0845 
" style="fill:none;opacity:0.8;stroke:#555555;stroke-linecap:round;stroke-width:1.5;"/>
    <path clip-path="url(#p8b90520430)" d="M 229.5938 121.096537 
L 238.480632 120.0845 
L 233.958163 127.801188 
" style="fill:none;opacity:0.8;stroke:#555555;stroke-linecap:round;stroke-width:1.5;"/>
   </g>
   <g id="patch_9">
    <path clip-path="url(#p8b90520430)" d="M 164.629633 221.811915 
Q 202.499667 170.748449 239.370704 121.032018 
" style="fill:none;opacity:0.8;stroke:#555555;stroke-linecap:round;stroke-width:1.5;"/>
    <path clip-path="url(#p8b90520430)" d="M 231.392342 125.075004 
L 239.370704 121.032018 
L 237.818075 129.840499 
" style="fill:none;opacity:0.8;stroke:#555555;stroke-linecap:round;stroke-width:1.5;"/>
   </g>
   <g id="patch_10">
    <path clip-path="url(#p8b90520430)" d="M 247.034251 221.419734 
Q 244.35 170.748006 241.754464 121.750981 
" style="fill:none;opacity:0.8;stroke:#555555;stroke-linecap:round;stroke-width:1.5;"/>
    <path clip-path="url(#p8b90520430)" d="M 238.183258 129.951377 
L 241.754464 121.750981 
L 246.172057 129.528183 
" style="fill:none;opacity:0.8;stroke:#555555;stroke-linecap:round;stroke-width:1.5;"/>
   </g>
   <g id="patch_11">
    <path clip-path="url(#p8b90520430)" d="M 286.2 160.43015 
Q 286.2 145.800823 286.2 132.848546 
" style="fill:none;opacity:0.8;stroke:#555555;stroke-linecap:round;stroke-width:1.5;"/>
    <path clip-path="url(#p8b90520430)" d="M 282.2 140.848546 
L 286.2 132.848546 
L 290.2 140.848546 
" style="fill:none;opacity:0.8;stroke:#555555;stroke-linecap:round;stroke-width:1.5;"/>
   </g>
   <g id="patch_12">
    <path clip-path="url(#p8b90520430)" d="M 286.2 215.87015 
Q 286.2 201.240823 286.2 188.288546 
" style="fill:none;opacity:0.8;stroke:#555555;stroke-linecap:round;stroke-width:1.5;"/>
    <path clip-path="url(#p8b90520430)" d="M 282.2 196.288546 
L 286.2 188.288546 
L 290.2 196.288546 
" style="fill:none;opacity:0.8;stroke:#555555;stroke-linecap:round;stroke-width:1.5;"/>
   </g>
   <g id="patch_13">
    <path clip-path="url(#p8b90520430)" d="M 453.6 245.592 
C 458.0395 245.592 462.297767 243.839548 465.436968 240.7206 
C 468.576168 237.601652 470.34 233.370858 470.34 228.96 
C 470.34 224.549142 468.576168 220.318348 465.436968 217.1994 
C 462.297767 214.080452 458.0395 212.328 453.6 212.328 
C 449.1605 212.328 444.902233 214.080452 441.763032 217.1994 
C 438.623832 220.318348 436.86 224.549142 436.86 228.96 
C 436.86 233.370858 438.623832 237.601652 441.763032 240.7206 
C 444.902233 243.839548 449.1605 245.592 453.6 245.592 
z
" style="fill:#4c72b0;opacity:0.8;stroke:#4c72b0;stroke-linejoin:miter;"/>
   </g>
   <g id="patch_14">
    <path clip-path="url(#p8b90520430)" d="M 537.3 245.592 
C 541.7395 245.592 545.997767 243.839548 549.136968 240.7206 
C 552.276168 237.601652 554.04 233.370858 554.04 228.96 
C 554.04 224.549142 552.276168 220.318348 549.136968 217.1994 
C 545.997767 214.080452 541.7395 212.328 537.3 212.328 
C 532.8605 212.328 528.602233 214.080452 525.463032 217.1994 
C 522.323832 220.318348 520.56 224.549142 520.56 228.96 
C 520.56 233.370858 522.323832 237.601652 525.463032 240.7206 
C 528.602233 243.839548 532.8605 245.592 537.3 245.592 
z
" style="fill:#4c72b0;opacity:0.8;stroke:#4c72b0;stroke-linejoin:miter;"/>
   </g>
   <g id="patch_15">
    <path clip-path="url(#p8b90520430)" d="M 621 245.592 
C 625.4395 245.592 629.697767 243.839548 632.836968 240.7206 
C 635.976168 237.601652 637.74 233.370858 637.74 228.96 
C 637.74 224.549142 635.976168 220.318348 632.836968 217.1994 
C 629.697767 214.080452 625.4395 212.328 621 212.328 
C 616.5605 212.328 612.302233 214.080452 609.163032 217.1994 
C 606.023832 220.318348 604.26 224.549142 604.26 228.96 
C 604.26 233.370858 606.023832 237.601652 609.163032 240.7206 
C 612.302233 243.839548 616.5605 245.592 621 245.592 
z
" style="fill:#4c72b0;opacity:0.8;stroke:#4c72b0;stroke-linejoin:miter;"/>
   </g>
   <g id="patch_16">
    <path clip-path="url(#p8b90520430)" d="M 332.836287 228.85561 
Q 383.849747 226.188013 433.188444 223.607993 
" style="fill:none;opacity:0.8;stroke:#555555;stroke-linecap:round;stroke-width:1.5;"/>
    <path clip-path="url(#p8b90520430)" d="M 424.990477 220.031216 
L 433.188444 223.607993 
L 425.408242 228.020301 
" style="fill:none;opacity:0.8;stroke:#555555;stroke-linecap:round;stroke-width:1.5;"/>
   </g>
   <g id="patch_17">
    <path d="M 65.000034 228.96 
Q 104.850209 228.96 144.700385 228.96 
" style="fill:none;opacity:0.6;stroke:#808080;stroke-linecap:round;stroke-width:2;"/>
   </g>
   <g id="patch_18">
    <path d="M 148.700034 228.96 
Q 188.550209 228.96 228.400385 228.96 
" style="fill:none;opacity:0.6;stroke:#808080;stroke-linecap:round;stroke-width:2;"/>
   </g>
   <g id="patch_19">
    <path d="M 228.399966 228.96 
Q 146.700671 228.96 65.001376 228.96 
" style="fill:none;opacity:0.6;stroke:#808080;stroke-linecap:round;stroke-width:2;"/>
   </g>
   <g id="text_1">
    <!-- Input Graph -->
    <g style="fill:#262626;" transform="translate(120.296094 273.312)scale(0.1 -0.1)">
     <defs>
      <path d="M 597 0 
L 597 4581 
L 1203 4581 
L 1203 0 
L 597 0 
z
" id="ArialMT-49" transform="scale(0.015625)"/>
      <path d="M 422 0 
L 422 3319 
L 928 3319 
L 928 2847 
Q 1294 3394 1984 3394 
Q 2284 3394 2536 3286 
Q 2788 3178 2913 3003 
Q 3038 2828 3088 2588 
Q 3119 2431 3119 2041 
L 3119 0 
L 2556 0 
L 2556 2019 
Q 2556 2363 2490 2533 
Q 2425 2703 2258 2804 
Q 2091 2906 1866 2906 
Q 1506 2906 1245 2678 
Q 984 2450 984 1813 
L 984 0 
L 422 0 
z
" id="ArialMT-6e" transform="scale(0.015625)"/>
      <path d="M 422 -1272 
L 422 3319 
L 934 3319 
L 934 2888 
Q 1116 3141 1344 3267 
Q 1572 3394 1897 3394 
Q 2322 3394 2647 3175 
Q 2972 2956 3137 2557 
Q 3303 2159 3303 1684 
Q 3303 1175 3120 767 
Q 2938 359 2589 142 
Q 2241 -75 1856 -75 
Q 1575 -75 1351 44 
Q 1128 163 984 344 
L 984 -1272 
L 422 -1272 
z
M 931 1641 
Q 931 1000 1190 694 
Q 1450 388 1819 388 
Q 2194 388 2461 705 
Q 2728 1022 2728 1688 
Q 2728 2322 2467 2637 
Q 2206 2953 1844 2953 
Q 1484 2953 1207 2617 
Q 931 2281 931 1641 
z
" id="ArialMT-70" transform="scale(0.015625)"/>
      <path d="M 2597 0 
L 2597 488 
Q 2209 -75 1544 -75 
Q 1250 -75 995 37 
Q 741 150 617 320 
Q 494 491 444 738 
Q 409 903 409 1263 
L 409 3319 
L 972 3319 
L 972 1478 
Q 972 1038 1006 884 
Q 1059 663 1231 536 
Q 1403 409 1656 409 
Q 1909 409 2131 539 
Q 2353 669 2445 892 
Q 2538 1116 2538 1541 
L 2538 3319 
L 3100 3319 
L 3100 0 
L 2597 0 
z
" id="ArialMT-75" transform="scale(0.015625)"/>
      <path d="M 1650 503 
L 1731 6 
Q 1494 -44 1306 -44 
Q 1000 -44 831 53 
Q 663 150 594 308 
Q 525 466 525 972 
L 525 2881 
L 113 2881 
L 113 3319 
L 525 3319 
L 525 4141 
L 1084 4478 
L 1084 3319 
L 1650 3319 
L 1650 2881 
L 1084 2881 
L 1084 941 
Q 1084 700 1114 631 
Q 1144 563 1211 522 
Q 1278 481 1403 481 
Q 1497 481 1650 503 
z
" id="ArialMT-74" transform="scale(0.015625)"/>
      <path id="ArialMT-20" transform="scale(0.015625)"/>
      <path d="M 2638 1797 
L 2638 2334 
L 4578 2338 
L 4578 638 
Q 4131 281 3656 101 
Q 3181 -78 2681 -78 
Q 2006 -78 1454 211 
Q 903 500 622 1047 
Q 341 1594 341 2269 
Q 341 2938 620 3517 
Q 900 4097 1425 4378 
Q 1950 4659 2634 4659 
Q 3131 4659 3532 4498 
Q 3934 4338 4162 4050 
Q 4391 3763 4509 3300 
L 3963 3150 
Q 3859 3500 3706 3700 
Q 3553 3900 3268 4020 
Q 2984 4141 2638 4141 
Q 2222 4141 1919 4014 
Q 1616 3888 1430 3681 
Q 1244 3475 1141 3228 
Q 966 2803 966 2306 
Q 966 1694 1177 1281 
Q 1388 869 1791 669 
Q 2194 469 2647 469 
Q 3041 469 3416 620 
Q 3791 772 3984 944 
L 3984 1797 
L 2638 1797 
z
" id="ArialMT-47" transform="scale(0.015625)"/>
      <path d="M 416 0 
L 416 3319 
L 922 3319 
L 922 2816 
Q 1116 3169 1280 3281 
Q 1444 3394 1641 3394 
Q 1925 3394 2219 3213 
L 2025 2691 
Q 1819 2813 1613 2813 
Q 1428 2813 1281 2702 
Q 1134 2591 1072 2394 
Q 978 2094 978 1738 
L 978 0 
L 416 0 
z
" id="ArialMT-72" transform="scale(0.015625)"/>
      <path d="M 2588 409 
Q 2275 144 1986 34 
Q 1697 -75 1366 -75 
Q 819 -75 525 192 
Q 231 459 231 875 
Q 231 1119 342 1320 
Q 453 1522 633 1644 
Q 813 1766 1038 1828 
Q 1203 1872 1538 1913 
Q 2219 1994 2541 2106 
Q 2544 2222 2544 2253 
Q 2544 2597 2384 2738 
Q 2169 2928 1744 2928 
Q 1347 2928 1158 2789 
Q 969 2650 878 2297 
L 328 2372 
Q 403 2725 575 2942 
Q 747 3159 1072 3276 
Q 1397 3394 1825 3394 
Q 2250 3394 2515 3294 
Q 2781 3194 2906 3042 
Q 3031 2891 3081 2659 
Q 3109 2516 3109 2141 
L 3109 1391 
Q 3109 606 3145 398 
Q 3181 191 3288 0 
L 2700 0 
Q 2613 175 2588 409 
z
M 2541 1666 
Q 2234 1541 1622 1453 
Q 1275 1403 1131 1340 
Q 988 1278 909 1158 
Q 831 1038 831 891 
Q 831 666 1001 516 
Q 1172 366 1500 366 
Q 1825 366 2078 508 
Q 2331 650 2450 897 
Q 2541 1088 2541 1459 
L 2541 1666 
z
" id="ArialMT-61" transform="scale(0.015625)"/>
      <path d="M 422 0 
L 422 4581 
L 984 4581 
L 984 2938 
Q 1378 3394 1978 3394 
Q 2347 3394 2619 3248 
Q 2891 3103 3008 2847 
Q 3125 2591 3125 2103 
L 3125 0 
L 2563 0 
L 2563 2103 
Q 2563 2525 2380 2717 
Q 2197 2909 1863 2909 
Q 1613 2909 1392 2779 
Q 1172 2650 1078 2428 
Q 984 2206 984 1816 
L 984 0 
L 422 0 
z
" id="ArialMT-68" transform="scale(0.015625)"/>
     </defs>
     <use xlink:href="#ArialMT-49"/>
     <use x="27.783203" xlink:href="#ArialMT-6e"/>
     <use x="83.398438" xlink:href="#ArialMT-70"/>
     <use x="139.013672" xlink:href="#ArialMT-75"/>
     <use x="194.628906" xlink:href="#ArialMT-74"/>
     <use x="222.412109" xlink:href="#ArialMT-20"/>
     <use x="250.195312" xlink:href="#ArialMT-47"/>
     <use x="327.978516" xlink:href="#ArialMT-72"/>
     <use x="361.279297" xlink:href="#ArialMT-61"/>
     <use x="416.894531" xlink:href="#ArialMT-70"/>
     <use x="472.509766" xlink:href="#ArialMT-68"/>
    </g>
   </g>
   <g id="text_2">
    <!-- GNN -->
    <g style="fill:#ffffff;" transform="translate(275.089063 115.307344)scale(0.1 -0.1)">
     <defs>
      <path d="M 2597 1684 
L 2597 2456 
L 4591 2456 
L 4591 631 
Q 4300 350 3748 136 
Q 3197 -78 2631 -78 
Q 1913 -78 1378 223 
Q 844 525 575 1086 
Q 306 1647 306 2306 
Q 306 3022 606 3578 
Q 906 4134 1484 4431 
Q 1925 4659 2581 4659 
Q 3434 4659 3914 4301 
Q 4394 3944 4531 3313 
L 3613 3141 
Q 3516 3478 3248 3673 
Q 2981 3869 2581 3869 
Q 1975 3869 1617 3484 
Q 1259 3100 1259 2344 
Q 1259 1528 1621 1120 
Q 1984 713 2572 713 
Q 2863 713 3155 827 
Q 3447 941 3656 1103 
L 3656 1684 
L 2597 1684 
z
" id="Arial-BoldMT-47" transform="scale(0.015625)"/>
      <path d="M 475 0 
L 475 4581 
L 1375 4581 
L 3250 1522 
L 3250 4581 
L 4109 4581 
L 4109 0 
L 3181 0 
L 1334 2988 
L 1334 0 
L 475 0 
z
" id="Arial-BoldMT-4e" transform="scale(0.015625)"/>
     </defs>
     <use xlink:href="#Arial-BoldMT-47"/>
     <use x="77.783203" xlink:href="#Arial-BoldMT-4e"/>
     <use x="150" xlink:href="#Arial-BoldMT-4e"/>
    </g>
    <!-- Layer 1 -->
    <g style="fill:#ffffff;" transform="translate(268.689062 125.905781)scale(0.1 -0.1)">
     <defs>
      <path d="M 491 0 
L 491 4544 
L 1416 4544 
L 1416 772 
L 3716 772 
L 3716 0 
L 491 0 
z
" id="Arial-BoldMT-4c" transform="scale(0.015625)"/>
      <path d="M 1116 2306 
L 319 2450 
Q 453 2931 781 3162 
Q 1109 3394 1756 3394 
Q 2344 3394 2631 3255 
Q 2919 3116 3036 2902 
Q 3153 2688 3153 2116 
L 3144 1091 
Q 3144 653 3186 445 
Q 3228 238 3344 0 
L 2475 0 
Q 2441 88 2391 259 
Q 2369 338 2359 363 
Q 2134 144 1878 34 
Q 1622 -75 1331 -75 
Q 819 -75 523 203 
Q 228 481 228 906 
Q 228 1188 362 1408 
Q 497 1628 739 1745 
Q 981 1863 1438 1950 
Q 2053 2066 2291 2166 
L 2291 2253 
Q 2291 2506 2166 2614 
Q 2041 2722 1694 2722 
Q 1459 2722 1328 2630 
Q 1197 2538 1116 2306 
z
M 2291 1594 
Q 2122 1538 1756 1459 
Q 1391 1381 1278 1306 
Q 1106 1184 1106 997 
Q 1106 813 1243 678 
Q 1381 544 1594 544 
Q 1831 544 2047 700 
Q 2206 819 2256 991 
Q 2291 1103 2291 1419 
L 2291 1594 
z
" id="Arial-BoldMT-61" transform="scale(0.015625)"/>
      <path d="M 44 3319 
L 978 3319 
L 1772 963 
L 2547 3319 
L 3456 3319 
L 2284 125 
L 2075 -453 
Q 1959 -744 1854 -897 
Q 1750 -1050 1614 -1145 
Q 1478 -1241 1279 -1294 
Q 1081 -1347 831 -1347 
Q 578 -1347 334 -1294 
L 256 -606 
Q 463 -647 628 -647 
Q 934 -647 1081 -467 
Q 1228 -288 1306 -9 
L 44 3319 
z
" id="Arial-BoldMT-79" transform="scale(0.015625)"/>
      <path d="M 2381 1056 
L 3256 909 
Q 3088 428 2723 176 
Q 2359 -75 1813 -75 
Q 947 -75 531 491 
Q 203 944 203 1634 
Q 203 2459 634 2926 
Q 1066 3394 1725 3394 
Q 2466 3394 2894 2905 
Q 3322 2416 3303 1406 
L 1103 1406 
Q 1113 1016 1316 798 
Q 1519 581 1822 581 
Q 2028 581 2168 693 
Q 2309 806 2381 1056 
z
M 2431 1944 
Q 2422 2325 2234 2523 
Q 2047 2722 1778 2722 
Q 1491 2722 1303 2513 
Q 1116 2303 1119 1944 
L 2431 1944 
z
" id="Arial-BoldMT-65" transform="scale(0.015625)"/>
      <path d="M 1300 0 
L 422 0 
L 422 3319 
L 1238 3319 
L 1238 2847 
Q 1447 3181 1614 3287 
Q 1781 3394 1994 3394 
Q 2294 3394 2572 3228 
L 2300 2463 
Q 2078 2606 1888 2606 
Q 1703 2606 1575 2504 
Q 1447 2403 1373 2137 
Q 1300 1872 1300 1025 
L 1300 0 
z
" id="Arial-BoldMT-72" transform="scale(0.015625)"/>
      <path id="Arial-BoldMT-20" transform="scale(0.015625)"/>
      <path d="M 2519 0 
L 1641 0 
L 1641 3309 
Q 1159 2859 506 2644 
L 506 3441 
Q 850 3553 1253 3867 
Q 1656 4181 1806 4600 
L 2519 4600 
L 2519 0 
z
" id="Arial-BoldMT-31" transform="scale(0.015625)"/>
     </defs>
     <use xlink:href="#Arial-BoldMT-4c"/>
     <use x="61.083984" xlink:href="#Arial-BoldMT-61"/>
     <use x="116.699219" xlink:href="#Arial-BoldMT-79"/>
     <use x="172.314453" xlink:href="#Arial-BoldMT-65"/>
     <use x="227.929688" xlink:href="#Arial-BoldMT-72"/>
     <use x="266.845703" xlink:href="#Arial-BoldMT-20"/>
     <use x="294.628906" xlink:href="#Arial-BoldMT-31"/>
    </g>
   </g>
   <g id="text_3">
    <!-- GNN -->
    <g style="fill:#ffffff;" transform="translate(275.089063 170.747344)scale(0.1 -0.1)">
     <use xlink:href="#Arial-BoldMT-47"/>
     <use x="77.783203" xlink:href="#Arial-BoldMT-4e"/>
     <use x="150" xlink:href="#Arial-BoldMT-4e"/>
    </g>
    <!-- Layer 2 -->
    <g style="fill:#ffffff;" transform="translate(268.689062 181.345781)scale(0.1 -0.1)">
     <defs>
      <path d="M 3238 816 
L 3238 0 
L 159 0 
Q 209 463 459 877 
Q 709 1291 1447 1975 
Q 2041 2528 2175 2725 
Q 2356 2997 2356 3263 
Q 2356 3556 2198 3714 
Q 2041 3872 1763 3872 
Q 1488 3872 1325 3706 
Q 1163 3541 1138 3156 
L 263 3244 
Q 341 3969 753 4284 
Q 1166 4600 1784 4600 
Q 2463 4600 2850 4234 
Q 3238 3869 3238 3325 
Q 3238 3016 3127 2736 
Q 3016 2456 2775 2150 
Q 2616 1947 2200 1565 
Q 1784 1184 1673 1059 
Q 1563 934 1494 816 
L 3238 816 
z
" id="Arial-BoldMT-32" transform="scale(0.015625)"/>
     </defs>
     <use xlink:href="#Arial-BoldMT-4c"/>
     <use x="61.083984" xlink:href="#Arial-BoldMT-61"/>
     <use x="116.699219" xlink:href="#Arial-BoldMT-79"/>
     <use x="172.314453" xlink:href="#Arial-BoldMT-65"/>
     <use x="227.929688" xlink:href="#Arial-BoldMT-72"/>
     <use x="266.845703" xlink:href="#Arial-BoldMT-20"/>
     <use x="294.628906" xlink:href="#Arial-BoldMT-32"/>
    </g>
   </g>
   <g id="text_4">
    <!-- GNN -->
    <g style="fill:#ffffff;" transform="translate(275.089063 226.187344)scale(0.1 -0.1)">
     <use xlink:href="#Arial-BoldMT-47"/>
     <use x="77.783203" xlink:href="#Arial-BoldMT-4e"/>
     <use x="150" xlink:href="#Arial-BoldMT-4e"/>
    </g>
    <!-- Layer 3 -->
    <g style="fill:#ffffff;" transform="translate(268.689062 236.785781)scale(0.1 -0.1)">
     <defs>
      <path d="M 241 1216 
L 1091 1319 
Q 1131 994 1309 822 
Q 1488 650 1741 650 
Q 2013 650 2198 856 
Q 2384 1063 2384 1413 
Q 2384 1744 2206 1937 
Q 2028 2131 1772 2131 
Q 1603 2131 1369 2066 
L 1466 2781 
Q 1822 2772 2009 2936 
Q 2197 3100 2197 3372 
Q 2197 3603 2059 3740 
Q 1922 3878 1694 3878 
Q 1469 3878 1309 3722 
Q 1150 3566 1116 3266 
L 306 3403 
Q 391 3819 561 4067 
Q 731 4316 1036 4458 
Q 1341 4600 1719 4600 
Q 2366 4600 2756 4188 
Q 3078 3850 3078 3425 
Q 3078 2822 2419 2463 
Q 2813 2378 3048 2084 
Q 3284 1791 3284 1375 
Q 3284 772 2843 347 
Q 2403 -78 1747 -78 
Q 1125 -78 715 280 
Q 306 638 241 1216 
z
" id="Arial-BoldMT-33" transform="scale(0.015625)"/>
     </defs>
     <use xlink:href="#Arial-BoldMT-4c"/>
     <use x="61.083984" xlink:href="#Arial-BoldMT-61"/>
     <use x="116.699219" xlink:href="#Arial-BoldMT-79"/>
     <use x="172.314453" xlink:href="#Arial-BoldMT-65"/>
     <use x="227.929688" xlink:href="#Arial-BoldMT-72"/>
     <use x="266.845703" xlink:href="#Arial-BoldMT-20"/>
     <use x="294.628906" xlink:href="#Arial-BoldMT-33"/>
    </g>
   </g>
   <g id="patch_20">
    <path d="M 455.600034 228.96 
Q 495.450209 228.96 535.300385 228.96 
" style="fill:none;opacity:0.6;stroke:#808080;stroke-linecap:round;stroke-width:2;"/>
   </g>
   <g id="patch_21">
    <path d="M 618.999966 228.96 
Q 537.300671 228.96 455.601376 228.96 
" style="fill:none;opacity:0.6;stroke:#808080;stroke-linecap:round;stroke-width:2;"/>
   </g>
   <g id="text_5">
    <!-- Output Graph -->
    <g style="fill:#262626;" transform="translate(507.007031 273.312)scale(0.1 -0.1)">
     <defs>
      <path d="M 309 2231 
Q 309 3372 921 4017 
Q 1534 4663 2503 4663 
Q 3138 4663 3647 4359 
Q 4156 4056 4423 3514 
Q 4691 2972 4691 2284 
Q 4691 1588 4409 1038 
Q 4128 488 3612 205 
Q 3097 -78 2500 -78 
Q 1853 -78 1343 234 
Q 834 547 571 1087 
Q 309 1628 309 2231 
z
M 934 2222 
Q 934 1394 1379 917 
Q 1825 441 2497 441 
Q 3181 441 3623 922 
Q 4066 1403 4066 2288 
Q 4066 2847 3877 3264 
Q 3688 3681 3323 3911 
Q 2959 4141 2506 4141 
Q 1863 4141 1398 3698 
Q 934 3256 934 2222 
z
" id="ArialMT-4f" transform="scale(0.015625)"/>
     </defs>
     <use xlink:href="#ArialMT-4f"/>
     <use x="77.783203" xlink:href="#ArialMT-75"/>
     <use x="133.398438" xlink:href="#ArialMT-74"/>
     <use x="161.181641" xlink:href="#ArialMT-70"/>
     <use x="216.796875" xlink:href="#ArialMT-75"/>
     <use x="272.412109" xlink:href="#ArialMT-74"/>
     <use x="300.195312" xlink:href="#ArialMT-20"/>
     <use x="327.978516" xlink:href="#ArialMT-47"/>
     <use x="405.761719" xlink:href="#ArialMT-72"/>
     <use x="439.0625" xlink:href="#ArialMT-61"/>
     <use x="494.677734" xlink:href="#ArialMT-70"/>
     <use x="550.292969" xlink:href="#ArialMT-68"/>
    </g>
   </g>
   <g id="text_6">
    <!-- Graph Neural Network Architecture -->
    <g style="fill:#262626;" transform="translate(186.070312 34.92)scale(0.12 -0.12)">
     <defs>
      <path d="M 434 3319 
L 1253 3319 
L 1253 2831 
Q 1413 3081 1684 3237 
Q 1956 3394 2288 3394 
Q 2866 3394 3269 2941 
Q 3672 2488 3672 1678 
Q 3672 847 3265 386 
Q 2859 -75 2281 -75 
Q 2006 -75 1782 34 
Q 1559 144 1313 409 
L 1313 -1263 
L 434 -1263 
L 434 3319 
z
M 1303 1716 
Q 1303 1156 1525 889 
Q 1747 622 2066 622 
Q 2372 622 2575 867 
Q 2778 1113 2778 1672 
Q 2778 2194 2568 2447 
Q 2359 2700 2050 2700 
Q 1728 2700 1515 2451 
Q 1303 2203 1303 1716 
z
" id="Arial-BoldMT-70" transform="scale(0.015625)"/>
      <path d="M 1334 4581 
L 1334 2897 
Q 1759 3394 2350 3394 
Q 2653 3394 2897 3281 
Q 3141 3169 3264 2994 
Q 3388 2819 3433 2606 
Q 3478 2394 3478 1947 
L 3478 0 
L 2600 0 
L 2600 1753 
Q 2600 2275 2550 2415 
Q 2500 2556 2373 2639 
Q 2247 2722 2056 2722 
Q 1838 2722 1666 2615 
Q 1494 2509 1414 2295 
Q 1334 2081 1334 1663 
L 1334 0 
L 456 0 
L 456 4581 
L 1334 4581 
z
" id="Arial-BoldMT-68" transform="scale(0.015625)"/>
      <path d="M 2644 0 
L 2644 497 
Q 2463 231 2167 78 
Q 1872 -75 1544 -75 
Q 1209 -75 943 72 
Q 678 219 559 484 
Q 441 750 441 1219 
L 441 3319 
L 1319 3319 
L 1319 1794 
Q 1319 1094 1367 936 
Q 1416 778 1544 686 
Q 1672 594 1869 594 
Q 2094 594 2272 717 
Q 2450 841 2515 1023 
Q 2581 1206 2581 1919 
L 2581 3319 
L 3459 3319 
L 3459 0 
L 2644 0 
z
" id="Arial-BoldMT-75" transform="scale(0.015625)"/>
      <path d="M 459 0 
L 459 4581 
L 1338 4581 
L 1338 0 
L 459 0 
z
" id="Arial-BoldMT-6c" transform="scale(0.015625)"/>
      <path d="M 1981 3319 
L 1981 2619 
L 1381 2619 
L 1381 1281 
Q 1381 875 1398 808 
Q 1416 741 1477 697 
Q 1538 653 1625 653 
Q 1747 653 1978 738 
L 2053 56 
Q 1747 -75 1359 -75 
Q 1122 -75 931 4 
Q 741 84 652 211 
Q 563 338 528 553 
Q 500 706 500 1172 
L 500 2619 
L 97 2619 
L 97 3319 
L 500 3319 
L 500 3978 
L 1381 4491 
L 1381 3319 
L 1981 3319 
z
" id="Arial-BoldMT-74" transform="scale(0.015625)"/>
      <path d="M 1078 0 
L 28 3319 
L 881 3319 
L 1503 1144 
L 2075 3319 
L 2922 3319 
L 3475 1144 
L 4109 3319 
L 4975 3319 
L 3909 0 
L 3066 0 
L 2494 2134 
L 1931 0 
L 1078 0 
z
" id="Arial-BoldMT-77" transform="scale(0.015625)"/>
      <path d="M 256 1706 
Q 256 2144 472 2553 
Q 688 2963 1083 3178 
Q 1478 3394 1966 3394 
Q 2719 3394 3200 2905 
Q 3681 2416 3681 1669 
Q 3681 916 3195 420 
Q 2709 -75 1972 -75 
Q 1516 -75 1102 131 
Q 688 338 472 736 
Q 256 1134 256 1706 
z
M 1156 1659 
Q 1156 1166 1390 903 
Q 1625 641 1969 641 
Q 2313 641 2545 903 
Q 2778 1166 2778 1666 
Q 2778 2153 2545 2415 
Q 2313 2678 1969 2678 
Q 1625 2678 1390 2415 
Q 1156 2153 1156 1659 
z
" id="Arial-BoldMT-6f" transform="scale(0.015625)"/>
      <path d="M 428 0 
L 428 4581 
L 1306 4581 
L 1306 2150 
L 2334 3319 
L 3416 3319 
L 2281 2106 
L 3497 0 
L 2550 0 
L 1716 1491 
L 1306 1063 
L 1306 0 
L 428 0 
z
" id="Arial-BoldMT-6b" transform="scale(0.015625)"/>
      <path d="M 4597 0 
L 3591 0 
L 3191 1041 
L 1359 1041 
L 981 0 
L 0 0 
L 1784 4581 
L 2763 4581 
L 4597 0 
z
M 2894 1813 
L 2263 3513 
L 1644 1813 
L 2894 1813 
z
" id="Arial-BoldMT-41" transform="scale(0.015625)"/>
      <path d="M 3353 2338 
L 2488 2181 
Q 2444 2441 2289 2572 
Q 2134 2703 1888 2703 
Q 1559 2703 1364 2476 
Q 1169 2250 1169 1719 
Q 1169 1128 1367 884 
Q 1566 641 1900 641 
Q 2150 641 2309 783 
Q 2469 925 2534 1272 
L 3397 1125 
Q 3263 531 2881 228 
Q 2500 -75 1859 -75 
Q 1131 -75 698 384 
Q 266 844 266 1656 
Q 266 2478 700 2936 
Q 1134 3394 1875 3394 
Q 2481 3394 2839 3133 
Q 3197 2872 3353 2338 
z
" id="Arial-BoldMT-63" transform="scale(0.015625)"/>
      <path d="M 459 3769 
L 459 4581 
L 1338 4581 
L 1338 3769 
L 459 3769 
z
M 459 0 
L 459 3319 
L 1338 3319 
L 1338 0 
L 459 0 
z
" id="Arial-BoldMT-69" transform="scale(0.015625)"/>
     </defs>
     <use xlink:href="#Arial-BoldMT-47"/>
     <use x="77.783203" xlink:href="#Arial-BoldMT-72"/>
     <use x="116.699219" xlink:href="#Arial-BoldMT-61"/>
     <use x="172.314453" xlink:href="#Arial-BoldMT-70"/>
     <use x="233.398438" xlink:href="#Arial-BoldMT-68"/>
     <use x="294.482422" xlink:href="#Arial-BoldMT-20"/>
     <use x="322.265625" xlink:href="#Arial-BoldMT-4e"/>
     <use x="394.482422" xlink:href="#Arial-BoldMT-65"/>
     <use x="450.097656" xlink:href="#Arial-BoldMT-75"/>
     <use x="511.181641" xlink:href="#Arial-BoldMT-72"/>
     <use x="550.097656" xlink:href="#Arial-BoldMT-61"/>
     <use x="605.712891" xlink:href="#Arial-BoldMT-6c"/>
     <use x="633.496094" xlink:href="#Arial-BoldMT-20"/>
     <use x="661.279297" xlink:href="#Arial-BoldMT-4e"/>
     <use x="733.496094" xlink:href="#Arial-BoldMT-65"/>
     <use x="789.111328" xlink:href="#Arial-BoldMT-74"/>
     <use x="822.412109" xlink:href="#Arial-BoldMT-77"/>
     <use x="900.195312" xlink:href="#Arial-BoldMT-6f"/>
     <use x="961.279297" xlink:href="#Arial-BoldMT-72"/>
     <use x="1000.195312" xlink:href="#Arial-BoldMT-6b"/>
     <use x="1055.810547" xlink:href="#Arial-BoldMT-20"/>
     <use x="1079.84375" xlink:href="#Arial-BoldMT-41"/>
     <use x="1152.060547" xlink:href="#Arial-BoldMT-72"/>
     <use x="1190.976562" xlink:href="#Arial-BoldMT-63"/>
     <use x="1246.591797" xlink:href="#Arial-BoldMT-68"/>
     <use x="1307.675781" xlink:href="#Arial-BoldMT-69"/>
     <use x="1335.458984" xlink:href="#Arial-BoldMT-74"/>
     <use x="1368.759766" xlink:href="#Arial-BoldMT-65"/>
     <use x="1424.375" xlink:href="#Arial-BoldMT-63"/>
     <use x="1479.990234" xlink:href="#Arial-BoldMT-74"/>
     <use x="1513.291016" xlink:href="#Arial-BoldMT-75"/>
     <use x="1574.375" xlink:href="#Arial-BoldMT-72"/>
     <use x="1613.291016" xlink:href="#Arial-BoldMT-65"/>
    </g>
   </g>
  </g>
 </g>
 <defs>
  <clipPath id="p8b90520430">
   <rect height="332.64" width="558" x="7.2" y="7.2"/>
  </clipPath>
 </defs>
</svg>
