<?xml version="1.0" encoding="utf-8" standalone="no"?>
<!DOCTYPE svg PUBLIC "-//W3C//DTD SVG 1.1//EN"
  "http://www.w3.org/Graphics/SVG/1.1/DTD/svg11.dtd">
<svg height="326.969531pt" version="1.1" viewBox="0 0 620.069531 326.969531" width="620.069531pt" xmlns="http://www.w3.org/2000/svg" xmlns:xlink="http://www.w3.org/1999/xlink">
 <metadata>
  <rdf:RDF xmlns:cc="http://creativecommons.org/ns#" xmlns:dc="http://purl.org/dc/elements/1.1/" xmlns:rdf="http://www.w3.org/1999/02/22-rdf-syntax-ns#">
   <cc:Work>
    <dc:type rdf:resource="http://purl.org/dc/dcmitype/StillImage"/>
    <dc:date>2025-04-26T18:50:17.922132</dc:date>
    <dc:format>image/svg+xml</dc:format>
    <dc:creator>
     <cc:Agent>
      <dc:title>Matplotlib v3.4.3, https://matplotlib.org/</dc:title>
     </cc:Agent>
    </dc:creator>
   </cc:Work>
  </rdf:RDF>
 </metadata>
 <defs>
  <style type="text/css">*{stroke-linecap:butt;stroke-linejoin:round;}</style>
 </defs>
 <g id="figure_1">
  <g id="patch_1">
   <path d="M 0 326.969531 
L 620.069531 326.969531 
L 620.069531 0 
L 0 0 
z
" style="fill:#ffffff;"/>
  </g>
  <g id="axes_1">
   <g id="patch_2">
    <path d="M 46.528125 287.978906 
L 604.528125 287.978906 
L 604.528125 10.778906 
L 46.528125 10.778906 
z
" style="fill:#ffffff;"/>
   </g>
   <g id="matplotlib.axis_1">
    <g id="xtick_1">
     <g id="line2d_1">
      <path clip-path="url(#pe18fcc90f7)" d="M 46.528125 287.978906 
L 46.528125 10.778906 
" style="fill:none;stroke:#cccccc;stroke-dasharray:0.8,1.32;stroke-dashoffset:0;stroke-opacity:0.5;stroke-width:0.8;"/>
     </g>
     <g id="line2d_2"/>
     <g id="text_1">
      <!-- 0 -->
      <g style="fill:#262626;" transform="translate(43.747656 298.636719)scale(0.1 -0.1)">
       <defs>
        <path d="M 266 2259 
Q 266 3072 433 3567 
Q 600 4063 929 4331 
Q 1259 4600 1759 4600 
Q 2128 4600 2406 4451 
Q 2684 4303 2865 4023 
Q 3047 3744 3150 3342 
Q 3253 2941 3253 2259 
Q 3253 1453 3087 958 
Q 2922 463 2592 192 
Q 2263 -78 1759 -78 
Q 1097 -78 719 397 
Q 266 969 266 2259 
z
M 844 2259 
Q 844 1131 1108 757 
Q 1372 384 1759 384 
Q 2147 384 2411 759 
Q 2675 1134 2675 2259 
Q 2675 3391 2411 3762 
Q 2147 4134 1753 4134 
Q 1366 4134 1134 3806 
Q 844 3388 844 2259 
z
" id="ArialMT-30" transform="scale(0.015625)"/>
       </defs>
       <use xlink:href="#ArialMT-30"/>
      </g>
     </g>
    </g>
    <g id="xtick_2">
     <g id="line2d_3">
      <path clip-path="url(#pe18fcc90f7)" d="M 158.128125 287.978906 
L 158.128125 10.778906 
" style="fill:none;stroke:#cccccc;stroke-dasharray:0.8,1.32;stroke-dashoffset:0;stroke-opacity:0.5;stroke-width:0.8;"/>
     </g>
     <g id="line2d_4"/>
     <g id="text_2">
      <!-- 40 -->
      <g style="fill:#262626;" transform="translate(152.567188 298.636719)scale(0.1 -0.1)">
       <defs>
        <path d="M 2069 0 
L 2069 1097 
L 81 1097 
L 81 1613 
L 2172 4581 
L 2631 4581 
L 2631 1613 
L 3250 1613 
L 3250 1097 
L 2631 1097 
L 2631 0 
L 2069 0 
z
M 2069 1613 
L 2069 3678 
L 634 1613 
L 2069 1613 
z
" id="ArialMT-34" transform="scale(0.015625)"/>
       </defs>
       <use xlink:href="#ArialMT-34"/>
       <use x="55.615234" xlink:href="#ArialMT-30"/>
      </g>
     </g>
    </g>
    <g id="xtick_3">
     <g id="line2d_5">
      <path clip-path="url(#pe18fcc90f7)" d="M 269.728125 287.978906 
L 269.728125 10.778906 
" style="fill:none;stroke:#cccccc;stroke-dasharray:0.8,1.32;stroke-dashoffset:0;stroke-opacity:0.5;stroke-width:0.8;"/>
     </g>
     <g id="line2d_6"/>
     <g id="text_3">
      <!-- 80 -->
      <g style="fill:#262626;" transform="translate(264.167187 298.636719)scale(0.1 -0.1)">
       <defs>
        <path d="M 1131 2484 
Q 781 2613 612 2850 
Q 444 3088 444 3419 
Q 444 3919 803 4259 
Q 1163 4600 1759 4600 
Q 2359 4600 2725 4251 
Q 3091 3903 3091 3403 
Q 3091 3084 2923 2848 
Q 2756 2613 2416 2484 
Q 2838 2347 3058 2040 
Q 3278 1734 3278 1309 
Q 3278 722 2862 322 
Q 2447 -78 1769 -78 
Q 1091 -78 675 323 
Q 259 725 259 1325 
Q 259 1772 486 2073 
Q 713 2375 1131 2484 
z
M 1019 3438 
Q 1019 3113 1228 2906 
Q 1438 2700 1772 2700 
Q 2097 2700 2305 2904 
Q 2513 3109 2513 3406 
Q 2513 3716 2298 3927 
Q 2084 4138 1766 4138 
Q 1444 4138 1231 3931 
Q 1019 3725 1019 3438 
z
M 838 1322 
Q 838 1081 952 856 
Q 1066 631 1291 507 
Q 1516 384 1775 384 
Q 2178 384 2440 643 
Q 2703 903 2703 1303 
Q 2703 1709 2433 1975 
Q 2163 2241 1756 2241 
Q 1359 2241 1098 1978 
Q 838 1716 838 1322 
z
" id="ArialMT-38" transform="scale(0.015625)"/>
       </defs>
       <use xlink:href="#ArialMT-38"/>
       <use x="55.615234" xlink:href="#ArialMT-30"/>
      </g>
     </g>
    </g>
    <g id="xtick_4">
     <g id="line2d_7">
      <path clip-path="url(#pe18fcc90f7)" d="M 381.328125 287.978906 
L 381.328125 10.778906 
" style="fill:none;stroke:#cccccc;stroke-dasharray:0.8,1.32;stroke-dashoffset:0;stroke-opacity:0.5;stroke-width:0.8;"/>
     </g>
     <g id="line2d_8"/>
     <g id="text_4">
      <!-- 120 -->
      <g style="fill:#262626;" transform="translate(372.986719 298.636719)scale(0.1 -0.1)">
       <defs>
        <path d="M 2384 0 
L 1822 0 
L 1822 3584 
Q 1619 3391 1289 3197 
Q 959 3003 697 2906 
L 697 3450 
Q 1169 3672 1522 3987 
Q 1875 4303 2022 4600 
L 2384 4600 
L 2384 0 
z
" id="ArialMT-31" transform="scale(0.015625)"/>
        <path d="M 3222 541 
L 3222 0 
L 194 0 
Q 188 203 259 391 
Q 375 700 629 1000 
Q 884 1300 1366 1694 
Q 2113 2306 2375 2664 
Q 2638 3022 2638 3341 
Q 2638 3675 2398 3904 
Q 2159 4134 1775 4134 
Q 1369 4134 1125 3890 
Q 881 3647 878 3216 
L 300 3275 
Q 359 3922 746 4261 
Q 1134 4600 1788 4600 
Q 2447 4600 2831 4234 
Q 3216 3869 3216 3328 
Q 3216 3053 3103 2787 
Q 2991 2522 2730 2228 
Q 2469 1934 1863 1422 
Q 1356 997 1212 845 
Q 1069 694 975 541 
L 3222 541 
z
" id="ArialMT-32" transform="scale(0.015625)"/>
       </defs>
       <use xlink:href="#ArialMT-31"/>
       <use x="55.615234" xlink:href="#ArialMT-32"/>
       <use x="111.230469" xlink:href="#ArialMT-30"/>
      </g>
     </g>
    </g>
    <g id="xtick_5">
     <g id="line2d_9">
      <path clip-path="url(#pe18fcc90f7)" d="M 492.928125 287.978906 
L 492.928125 10.778906 
" style="fill:none;stroke:#cccccc;stroke-dasharray:0.8,1.32;stroke-dashoffset:0;stroke-opacity:0.5;stroke-width:0.8;"/>
     </g>
     <g id="line2d_10"/>
     <g id="text_5">
      <!-- 160 -->
      <g style="fill:#262626;" transform="translate(484.586719 298.636719)scale(0.1 -0.1)">
       <defs>
        <path d="M 3184 3459 
L 2625 3416 
Q 2550 3747 2413 3897 
Q 2184 4138 1850 4138 
Q 1581 4138 1378 3988 
Q 1113 3794 959 3422 
Q 806 3050 800 2363 
Q 1003 2672 1297 2822 
Q 1591 2972 1913 2972 
Q 2475 2972 2870 2558 
Q 3266 2144 3266 1488 
Q 3266 1056 3080 686 
Q 2894 316 2569 119 
Q 2244 -78 1831 -78 
Q 1128 -78 684 439 
Q 241 956 241 2144 
Q 241 3472 731 4075 
Q 1159 4600 1884 4600 
Q 2425 4600 2770 4297 
Q 3116 3994 3184 3459 
z
M 888 1484 
Q 888 1194 1011 928 
Q 1134 663 1356 523 
Q 1578 384 1822 384 
Q 2178 384 2434 671 
Q 2691 959 2691 1453 
Q 2691 1928 2437 2201 
Q 2184 2475 1800 2475 
Q 1419 2475 1153 2201 
Q 888 1928 888 1484 
z
" id="ArialMT-36" transform="scale(0.015625)"/>
       </defs>
       <use xlink:href="#ArialMT-31"/>
       <use x="55.615234" xlink:href="#ArialMT-36"/>
       <use x="111.230469" xlink:href="#ArialMT-30"/>
      </g>
     </g>
    </g>
    <g id="xtick_6">
     <g id="line2d_11">
      <path clip-path="url(#pe18fcc90f7)" d="M 604.528125 287.978906 
L 604.528125 10.778906 
" style="fill:none;stroke:#cccccc;stroke-dasharray:0.8,1.32;stroke-dashoffset:0;stroke-opacity:0.5;stroke-width:0.8;"/>
     </g>
     <g id="line2d_12"/>
     <g id="text_6">
      <!-- 200 -->
      <g style="fill:#262626;" transform="translate(596.186719 298.636719)scale(0.1 -0.1)">
       <use xlink:href="#ArialMT-32"/>
       <use x="55.615234" xlink:href="#ArialMT-30"/>
       <use x="111.230469" xlink:href="#ArialMT-30"/>
      </g>
     </g>
    </g>
    <g id="text_7">
     <!-- Time -->
     <g style="fill:#262626;" transform="translate(314.605469 317.782031)scale(0.1 -0.1)">
      <defs>
       <path d="M 1659 0 
L 1659 4041 
L 150 4041 
L 150 4581 
L 3781 4581 
L 3781 4041 
L 2266 4041 
L 2266 0 
L 1659 0 
z
" id="ArialMT-54" transform="scale(0.015625)"/>
       <path d="M 425 3934 
L 425 4581 
L 988 4581 
L 988 3934 
L 425 3934 
z
M 425 0 
L 425 3319 
L 988 3319 
L 988 0 
L 425 0 
z
" id="ArialMT-69" transform="scale(0.015625)"/>
       <path d="M 422 0 
L 422 3319 
L 925 3319 
L 925 2853 
Q 1081 3097 1340 3245 
Q 1600 3394 1931 3394 
Q 2300 3394 2536 3241 
Q 2772 3088 2869 2813 
Q 3263 3394 3894 3394 
Q 4388 3394 4653 3120 
Q 4919 2847 4919 2278 
L 4919 0 
L 4359 0 
L 4359 2091 
Q 4359 2428 4304 2576 
Q 4250 2725 4106 2815 
Q 3963 2906 3769 2906 
Q 3419 2906 3187 2673 
Q 2956 2441 2956 1928 
L 2956 0 
L 2394 0 
L 2394 2156 
Q 2394 2531 2256 2718 
Q 2119 2906 1806 2906 
Q 1569 2906 1367 2781 
Q 1166 2656 1075 2415 
Q 984 2175 984 1722 
L 984 0 
L 422 0 
z
" id="ArialMT-6d" transform="scale(0.015625)"/>
       <path d="M 2694 1069 
L 3275 997 
Q 3138 488 2766 206 
Q 2394 -75 1816 -75 
Q 1088 -75 661 373 
Q 234 822 234 1631 
Q 234 2469 665 2931 
Q 1097 3394 1784 3394 
Q 2450 3394 2872 2941 
Q 3294 2488 3294 1666 
Q 3294 1616 3291 1516 
L 816 1516 
Q 847 969 1125 678 
Q 1403 388 1819 388 
Q 2128 388 2347 550 
Q 2566 713 2694 1069 
z
M 847 1978 
L 2700 1978 
Q 2663 2397 2488 2606 
Q 2219 2931 1791 2931 
Q 1403 2931 1139 2672 
Q 875 2413 847 1978 
z
" id="ArialMT-65" transform="scale(0.015625)"/>
      </defs>
      <use xlink:href="#ArialMT-54"/>
      <use x="57.333984" xlink:href="#ArialMT-69"/>
      <use x="79.550781" xlink:href="#ArialMT-6d"/>
      <use x="162.851562" xlink:href="#ArialMT-65"/>
     </g>
    </g>
   </g>
   <g id="matplotlib.axis_2">
    <g id="ytick_1">
     <g id="line2d_13">
      <path clip-path="url(#pe18fcc90f7)" d="M 46.528125 287.978906 
L 604.528125 287.978906 
" style="fill:none;stroke:#cccccc;stroke-dasharray:0.8,1.32;stroke-dashoffset:0;stroke-opacity:0.5;stroke-width:0.8;"/>
     </g>
     <g id="line2d_14"/>
     <g id="text_8">
      <!-- 50 -->
      <g style="fill:#262626;" transform="translate(31.90625 291.557813)scale(0.1 -0.1)">
       <defs>
        <path d="M 266 1200 
L 856 1250 
Q 922 819 1161 601 
Q 1400 384 1738 384 
Q 2144 384 2425 690 
Q 2706 997 2706 1503 
Q 2706 1984 2436 2262 
Q 2166 2541 1728 2541 
Q 1456 2541 1237 2417 
Q 1019 2294 894 2097 
L 366 2166 
L 809 4519 
L 3088 4519 
L 3088 3981 
L 1259 3981 
L 1013 2750 
Q 1425 3038 1878 3038 
Q 2478 3038 2890 2622 
Q 3303 2206 3303 1553 
Q 3303 931 2941 478 
Q 2500 -78 1738 -78 
Q 1113 -78 717 272 
Q 322 622 266 1200 
z
" id="ArialMT-35" transform="scale(0.015625)"/>
       </defs>
       <use xlink:href="#ArialMT-35"/>
       <use x="55.615234" xlink:href="#ArialMT-30"/>
      </g>
     </g>
    </g>
    <g id="ytick_2">
     <g id="line2d_15">
      <path clip-path="url(#pe18fcc90f7)" d="M 46.528125 232.538906 
L 604.528125 232.538906 
" style="fill:none;stroke:#cccccc;stroke-dasharray:0.8,1.32;stroke-dashoffset:0;stroke-opacity:0.5;stroke-width:0.8;"/>
     </g>
     <g id="line2d_16"/>
     <g id="text_9">
      <!-- 70 -->
      <g style="fill:#262626;" transform="translate(31.90625 236.117813)scale(0.1 -0.1)">
       <defs>
        <path d="M 303 3981 
L 303 4522 
L 3269 4522 
L 3269 4084 
Q 2831 3619 2401 2847 
Q 1972 2075 1738 1259 
Q 1569 684 1522 0 
L 944 0 
Q 953 541 1156 1306 
Q 1359 2072 1739 2783 
Q 2119 3494 2547 3981 
L 303 3981 
z
" id="ArialMT-37" transform="scale(0.015625)"/>
       </defs>
       <use xlink:href="#ArialMT-37"/>
       <use x="55.615234" xlink:href="#ArialMT-30"/>
      </g>
     </g>
    </g>
    <g id="ytick_3">
     <g id="line2d_17">
      <path clip-path="url(#pe18fcc90f7)" d="M 46.528125 177.098906 
L 604.528125 177.098906 
" style="fill:none;stroke:#cccccc;stroke-dasharray:0.8,1.32;stroke-dashoffset:0;stroke-opacity:0.5;stroke-width:0.8;"/>
     </g>
     <g id="line2d_18"/>
     <g id="text_10">
      <!-- 90 -->
      <g style="fill:#262626;" transform="translate(31.90625 180.677813)scale(0.1 -0.1)">
       <defs>
        <path d="M 350 1059 
L 891 1109 
Q 959 728 1153 556 
Q 1347 384 1650 384 
Q 1909 384 2104 503 
Q 2300 622 2425 820 
Q 2550 1019 2634 1356 
Q 2719 1694 2719 2044 
Q 2719 2081 2716 2156 
Q 2547 1888 2255 1720 
Q 1963 1553 1622 1553 
Q 1053 1553 659 1965 
Q 266 2378 266 3053 
Q 266 3750 677 4175 
Q 1088 4600 1706 4600 
Q 2153 4600 2523 4359 
Q 2894 4119 3086 3673 
Q 3278 3228 3278 2384 
Q 3278 1506 3087 986 
Q 2897 466 2520 194 
Q 2144 -78 1638 -78 
Q 1100 -78 759 220 
Q 419 519 350 1059 
z
M 2653 3081 
Q 2653 3566 2395 3850 
Q 2138 4134 1775 4134 
Q 1400 4134 1122 3828 
Q 844 3522 844 3034 
Q 844 2597 1108 2323 
Q 1372 2050 1759 2050 
Q 2150 2050 2401 2323 
Q 2653 2597 2653 3081 
z
" id="ArialMT-39" transform="scale(0.015625)"/>
       </defs>
       <use xlink:href="#ArialMT-39"/>
       <use x="55.615234" xlink:href="#ArialMT-30"/>
      </g>
     </g>
    </g>
    <g id="ytick_4">
     <g id="line2d_19">
      <path clip-path="url(#pe18fcc90f7)" d="M 46.528125 121.658906 
L 604.528125 121.658906 
" style="fill:none;stroke:#cccccc;stroke-dasharray:0.8,1.32;stroke-dashoffset:0;stroke-opacity:0.5;stroke-width:0.8;"/>
     </g>
     <g id="line2d_20"/>
     <g id="text_11">
      <!-- 110 -->
      <g style="fill:#262626;" transform="translate(27.082813 125.237813)scale(0.1 -0.1)">
       <use xlink:href="#ArialMT-31"/>
       <use x="48.240234" xlink:href="#ArialMT-31"/>
       <use x="103.855469" xlink:href="#ArialMT-30"/>
      </g>
     </g>
    </g>
    <g id="ytick_5">
     <g id="line2d_21">
      <path clip-path="url(#pe18fcc90f7)" d="M 46.528125 66.218906 
L 604.528125 66.218906 
" style="fill:none;stroke:#cccccc;stroke-dasharray:0.8,1.32;stroke-dashoffset:0;stroke-opacity:0.5;stroke-width:0.8;"/>
     </g>
     <g id="line2d_22"/>
     <g id="text_12">
      <!-- 130 -->
      <g style="fill:#262626;" transform="translate(26.345313 69.797813)scale(0.1 -0.1)">
       <defs>
        <path d="M 269 1209 
L 831 1284 
Q 928 806 1161 595 
Q 1394 384 1728 384 
Q 2125 384 2398 659 
Q 2672 934 2672 1341 
Q 2672 1728 2419 1979 
Q 2166 2231 1775 2231 
Q 1616 2231 1378 2169 
L 1441 2663 
Q 1497 2656 1531 2656 
Q 1891 2656 2178 2843 
Q 2466 3031 2466 3422 
Q 2466 3731 2256 3934 
Q 2047 4138 1716 4138 
Q 1388 4138 1169 3931 
Q 950 3725 888 3313 
L 325 3413 
Q 428 3978 793 4289 
Q 1159 4600 1703 4600 
Q 2078 4600 2393 4439 
Q 2709 4278 2876 4000 
Q 3044 3722 3044 3409 
Q 3044 3113 2884 2869 
Q 2725 2625 2413 2481 
Q 2819 2388 3044 2092 
Q 3269 1797 3269 1353 
Q 3269 753 2831 336 
Q 2394 -81 1725 -81 
Q 1122 -81 723 278 
Q 325 638 269 1209 
z
" id="ArialMT-33" transform="scale(0.015625)"/>
       </defs>
       <use xlink:href="#ArialMT-31"/>
       <use x="55.615234" xlink:href="#ArialMT-33"/>
       <use x="111.230469" xlink:href="#ArialMT-30"/>
      </g>
     </g>
    </g>
    <g id="ytick_6">
     <g id="line2d_23">
      <path clip-path="url(#pe18fcc90f7)" d="M 46.528125 10.778906 
L 604.528125 10.778906 
" style="fill:none;stroke:#cccccc;stroke-dasharray:0.8,1.32;stroke-dashoffset:0;stroke-opacity:0.5;stroke-width:0.8;"/>
     </g>
     <g id="line2d_24"/>
     <g id="text_13">
      <!-- 150 -->
      <g style="fill:#262626;" transform="translate(26.345313 14.357813)scale(0.1 -0.1)">
       <use xlink:href="#ArialMT-31"/>
       <use x="55.615234" xlink:href="#ArialMT-35"/>
       <use x="111.230469" xlink:href="#ArialMT-30"/>
      </g>
     </g>
    </g>
    <g id="text_14">
     <!-- Value -->
     <g style="fill:#262626;" transform="translate(14.357813 161.797656)rotate(-90)scale(0.1 -0.1)">
      <defs>
       <path d="M 1803 0 
L 28 4581 
L 684 4581 
L 1875 1253 
Q 2019 853 2116 503 
Q 2222 878 2363 1253 
L 3600 4581 
L 4219 4581 
L 2425 0 
L 1803 0 
z
" id="ArialMT-56" transform="scale(0.015625)"/>
       <path d="M 2588 409 
Q 2275 144 1986 34 
Q 1697 -75 1366 -75 
Q 819 -75 525 192 
Q 231 459 231 875 
Q 231 1119 342 1320 
Q 453 1522 633 1644 
Q 813 1766 1038 1828 
Q 1203 1872 1538 1913 
Q 2219 1994 2541 2106 
Q 2544 2222 2544 2253 
Q 2544 2597 2384 2738 
Q 2169 2928 1744 2928 
Q 1347 2928 1158 2789 
Q 969 2650 878 2297 
L 328 2372 
Q 403 2725 575 2942 
Q 747 3159 1072 3276 
Q 1397 3394 1825 3394 
Q 2250 3394 2515 3294 
Q 2781 3194 2906 3042 
Q 3031 2891 3081 2659 
Q 3109 2516 3109 2141 
L 3109 1391 
Q 3109 606 3145 398 
Q 3181 191 3288 0 
L 2700 0 
Q 2613 175 2588 409 
z
M 2541 1666 
Q 2234 1541 1622 1453 
Q 1275 1403 1131 1340 
Q 988 1278 909 1158 
Q 831 1038 831 891 
Q 831 666 1001 516 
Q 1172 366 1500 366 
Q 1825 366 2078 508 
Q 2331 650 2450 897 
Q 2541 1088 2541 1459 
L 2541 1666 
z
" id="ArialMT-61" transform="scale(0.015625)"/>
       <path d="M 409 0 
L 409 4581 
L 972 4581 
L 972 0 
L 409 0 
z
" id="ArialMT-6c" transform="scale(0.015625)"/>
       <path d="M 2597 0 
L 2597 488 
Q 2209 -75 1544 -75 
Q 1250 -75 995 37 
Q 741 150 617 320 
Q 494 491 444 738 
Q 409 903 409 1263 
L 409 3319 
L 972 3319 
L 972 1478 
Q 972 1038 1006 884 
Q 1059 663 1231 536 
Q 1403 409 1656 409 
Q 1909 409 2131 539 
Q 2353 669 2445 892 
Q 2538 1116 2538 1541 
L 2538 3319 
L 3100 3319 
L 3100 0 
L 2597 0 
z
" id="ArialMT-75" transform="scale(0.015625)"/>
      </defs>
      <use xlink:href="#ArialMT-56"/>
      <use x="59.324219" xlink:href="#ArialMT-61"/>
      <use x="114.939453" xlink:href="#ArialMT-6c"/>
      <use x="137.15625" xlink:href="#ArialMT-75"/>
      <use x="192.771484" xlink:href="#ArialMT-65"/>
     </g>
    </g>
   </g>
   <g id="patch_3">
    <path clip-path="url(#pe18fcc90f7)" d="M 269.728125 287.978906 
L 381.328125 287.978906 
L 381.328125 10.778906 
L 269.728125 10.778906 
z
" style="fill:#ffcc00;opacity:0.15;"/>
   </g>
   <g id="patch_4">
    <path clip-path="url(#pe18fcc90f7)" d="M 381.328125 287.978906 
L 492.928125 287.978906 
L 492.928125 10.778906 
L 381.328125 10.778906 
z
" style="fill:#ff3300;opacity:0.15;"/>
   </g>
   <g id="patch_5">
    <path d="M 46.528125 287.978906 
L 46.528125 10.778906 
" style="fill:none;stroke:#666666;stroke-linecap:square;stroke-linejoin:miter;stroke-width:1.5;"/>
   </g>
   <g id="patch_6">
    <path d="M 604.528125 287.978906 
L 604.528125 10.778906 
" style="fill:none;stroke:#666666;stroke-linecap:square;stroke-linejoin:miter;stroke-width:1.5;"/>
   </g>
   <g id="patch_7">
    <path d="M 46.528125 287.978906 
L 604.528125 287.978906 
" style="fill:none;stroke:#666666;stroke-linecap:square;stroke-linejoin:miter;stroke-width:1.5;"/>
   </g>
   <g id="patch_8">
    <path d="M 46.528125 10.778906 
L 604.528125 10.778906 
" style="fill:none;stroke:#666666;stroke-linecap:square;stroke-linejoin:miter;stroke-width:1.5;"/>
   </g>
   <g id="line2d_25">
    <path clip-path="url(#pe18fcc90f7)" d="M 46.528125 147.406147 
L 47.646361 150.278379 
L 48.764598 152.156092 
L 49.882834 148.724019 
L 51.001071 149.662093 
L 52.119307 152.542569 
L 53.237544 142.020889 
L 54.35578 145.385549 
L 55.474017 149.104749 
L 56.592253 158.031793 
L 57.71049 152.363024 
L 58.828726 150.281697 
L 59.946963 152.249306 
L 61.065199 150.560666 
L 62.183436 152.232296 
L 63.301672 150.825264 
L 64.419909 150.55079 
L 65.538145 149.654011 
L 66.656382 153.204981 
L 67.774618 148.542032 
L 68.892854 152.244044 
L 70.011091 153.542942 
L 71.129327 153.203139 
L 72.247564 149.945655 
L 73.3658 147.598936 
L 74.484037 149.881125 
L 75.602273 147.239618 
L 76.72051 147.323403 
L 77.838746 145.706664 
L 78.956983 148.161203 
L 80.075219 150.925332 
L 81.193456 146.809042 
L 82.311692 151.04412 
L 83.429929 153.591649 
L 84.548165 143.56511 
L 85.666402 146.904725 
L 86.784638 144.953442 
L 87.902874 151.149555 
L 89.021111 152.519713 
L 90.139347 147.55882 
L 91.257584 147.727385 
L 92.37582 151.62733 
L 93.494057 150.211988 
L 94.612293 146.583646 
L 95.73053 152.394183 
L 96.848766 154.332691 
L 97.967003 148.434711 
L 99.085239 152.853612 
L 100.203476 148.351082 
L 101.321712 148.116943 
L 102.439949 155.709378 
L 104.676422 142.729222 
L 105.794658 156.539273 
L 106.912895 145.74479 
L 108.031131 153.757218 
L 110.267604 149.837698 
L 111.38584 155.11254 
L 112.504077 148.123914 
L 113.622313 149.237169 
L 114.74055 150.038811 
L 115.858786 149.955507 
L 116.977023 148.266491 
L 118.095259 148.871162 
L 119.213496 145.953185 
L 120.331732 150.187776 
L 121.449969 149.295767 
L 122.568205 151.786122 
L 123.686442 147.703658 
L 124.804678 147.359353 
L 125.922915 145.595626 
L 127.041151 145.656959 
L 128.159388 153.416902 
L 129.277624 146.691848 
L 130.39586 149.277626 
L 131.514097 142.637897 
L 132.632333 148.207463 
L 133.75057 144.267556 
L 134.868806 149.993076 
L 135.987043 148.444417 
L 137.105279 150.923411 
L 138.223516 149.231599 
L 139.341752 146.457763 
L 140.459989 151.204311 
L 141.578225 144.266094 
L 142.696462 149.588232 
L 143.814698 148.64637 
L 144.932935 153.246842 
L 146.051171 147.415178 
L 147.169408 147.264547 
L 148.287644 148.360762 
L 149.405881 150.977874 
L 150.524117 150.532072 
L 151.642353 149.760172 
L 152.76059 145.789201 
L 154.997063 149.917432 
L 156.115299 150.447769 
L 157.233536 157.87726 
L 158.351772 151.231103 
L 159.470009 149.220999 
L 160.588245 151.899673 
L 161.706482 153.503394 
L 162.824718 146.136744 
L 163.942955 148.287632 
L 165.061191 147.908168 
L 166.179428 151.004489 
L 167.297664 146.450288 
L 168.415901 151.413328 
L 169.534137 149.611665 
L 171.77061 148.424167 
L 172.888846 147.477398 
L 174.007083 148.270361 
L 175.125319 146.902241 
L 176.243556 148.31226 
L 177.361792 147.60174 
L 178.480029 150.97922 
L 179.598265 151.651801 
L 180.716502 147.308724 
L 181.834738 144.287284 
L 182.952975 153.413525 
L 184.071211 151.67612 
L 185.189448 151.067453 
L 186.307684 152.348541 
L 187.425921 152.669114 
L 188.544157 150.877556 
L 189.662394 151.148813 
L 191.898866 146.83019 
L 193.017103 146.85598 
L 194.135339 144.929196 
L 195.253576 147.529525 
L 196.371812 146.74457 
L 197.490049 147.343345 
L 198.608285 146.564038 
L 199.726522 147.639793 
L 200.844758 146.433228 
L 201.962995 148.65019 
L 203.081231 155.162645 
L 204.199468 152.362601 
L 205.317704 150.785749 
L 206.435941 150.139824 
L 207.554177 144.254002 
L 208.672414 151.315066 
L 209.79065 151.547604 
L 210.908887 152.750395 
L 212.027123 145.424239 
L 213.145359 146.419248 
L 214.263596 149.13709 
L 215.381832 155.459101 
L 216.500069 145.138205 
L 217.618305 150.921143 
L 218.736542 148.14767 
L 219.854778 151.269476 
L 220.973015 155.143067 
L 222.091251 148.848651 
L 223.209488 151.931995 
L 224.327724 148.99708 
L 225.445961 147.967842 
L 226.564197 148.815156 
L 227.682434 151.131945 
L 228.80067 150.364273 
L 229.918907 148.111614 
L 231.037143 147.108412 
L 232.15538 144.026048 
L 233.273616 148.930169 
L 234.391852 146.524421 
L 235.510089 149.901984 
L 236.628325 151.285818 
L 237.746562 148.654442 
L 238.864798 152.250501 
L 239.983035 152.298633 
L 241.101271 151.547205 
L 242.219508 150.323846 
L 243.337744 150.3961 
L 244.455981 142.201513 
L 245.574217 150.237772 
L 246.692454 151.033095 
L 247.81069 151.191538 
L 248.928927 148.838868 
L 250.047163 147.921016 
L 251.1654 151.705506 
L 252.283636 148.31207 
L 253.401872 142.329236 
L 254.520109 154.032631 
L 255.638345 148.694917 
L 256.756582 147.189427 
L 257.874818 144.585347 
L 258.993055 152.448809 
L 260.111291 148.876604 
L 261.229528 149.024616 
L 262.347764 152.334253 
L 263.466001 145.78453 
L 264.584237 148.626274 
L 265.702474 146.292581 
L 266.82071 154.209336 
L 267.938947 151.113309 
L 269.057183 148.636331 
L 270.17542 152.249871 
L 271.293656 148.838861 
L 272.411893 143.973811 
L 273.530129 147.938757 
L 274.648365 147.570369 
L 275.766602 149.385192 
L 276.884838 143.560449 
L 278.003075 144.03421 
L 279.121311 144.18252 
L 280.239548 147.034345 
L 281.357784 145.228953 
L 282.476021 145.425536 
L 283.594257 142.272835 
L 284.712494 140.753989 
L 285.83073 142.585335 
L 286.948967 145.980167 
L 288.067203 140.271427 
L 289.18544 142.595303 
L 290.303676 144.292008 
L 291.421913 143.830471 
L 292.540149 138.022262 
L 293.658386 140.585771 
L 294.776622 143.440629 
L 295.894858 141.631176 
L 297.013095 139.035439 
L 298.131331 138.66936 
L 299.249568 140.658939 
L 300.367804 137.747546 
L 301.486041 142.101387 
L 302.604277 140.822787 
L 303.722514 139.196076 
L 304.84075 136.321823 
L 305.958987 136.064345 
L 307.077223 135.092256 
L 308.19546 138.123956 
L 309.313696 133.847825 
L 310.431933 134.942316 
L 311.550169 134.163262 
L 312.668406 137.162408 
L 313.786642 132.932391 
L 314.904879 129.813434 
L 316.023115 130.579554 
L 317.141351 128.70389 
L 318.259588 130.951673 
L 319.377824 134.042606 
L 320.496061 130.213207 
L 321.614297 132.062099 
L 322.732534 133.435943 
L 323.85077 127.336486 
L 324.969007 127.720174 
L 326.087243 129.269589 
L 327.20548 126.987608 
L 328.323716 130.138855 
L 329.441953 129.689233 
L 330.560189 127.638777 
L 331.678426 127.614569 
L 332.796662 128.251783 
L 333.914899 124.347648 
L 335.033135 125.984901 
L 336.151371 126.069997 
L 337.269608 121.362107 
L 338.387844 125.013155 
L 340.624317 116.584195 
L 341.742554 125.045128 
L 342.86079 122.486351 
L 343.979027 121.546785 
L 345.097263 125.2587 
L 346.2155 119.329782 
L 347.333736 119.953133 
L 348.451973 119.783016 
L 349.570209 113.990874 
L 350.688446 117.912038 
L 351.806682 121.25098 
L 352.924919 114.280501 
L 354.043155 118.46362 
L 356.279628 115.710137 
L 357.397864 121.176717 
L 358.516101 118.500882 
L 359.634337 109.585524 
L 360.752574 115.453274 
L 361.87081 111.402139 
L 362.989047 118.194437 
L 364.107283 112.091826 
L 365.22552 112.012831 
L 366.343756 115.328343 
L 367.461993 116.742214 
L 368.580229 113.003329 
L 369.698466 113.494157 
L 370.816702 114.147374 
L 371.934939 107.622684 
L 373.053175 114.686561 
L 374.171412 115.826862 
L 375.289648 106.486838 
L 376.407885 108.074095 
L 377.526121 109.341076 
L 378.644357 109.81058 
L 379.762594 102.559616 
L 380.88083 110.618948 
L 381.999067 263.615465 
L 383.117303 264.816336 
L 384.23554 264.824859 
L 385.353776 264.543644 
L 386.472013 255.823048 
L 387.590249 261.639964 
L 388.708486 269.871992 
L 389.826722 263.081604 
L 390.944959 250.788556 
L 392.063195 256.046261 
L 393.181432 251.744404 
L 394.299668 253.439198 
L 395.417905 255.964749 
L 396.536141 259.294616 
L 397.654378 253.622201 
L 398.772614 265.778477 
L 399.89085 253.619237 
L 401.009087 258.293614 
L 402.127323 272.207897 
L 403.24556 251.975311 
L 404.363796 258.51043 
L 405.482033 264.132362 
L 406.600269 261.734659 
L 407.718506 253.63452 
L 408.836742 253.352821 
L 409.954979 259.587152 
L 411.073215 258.526739 
L 413.309688 252.049746 
L 414.427925 257.608501 
L 415.546161 268.41133 
L 416.664398 258.350754 
L 417.782634 269.338035 
L 418.90087 269.733012 
L 420.019107 268.06903 
L 421.137343 263.102583 
L 422.25558 254.870028 
L 423.373816 261.193315 
L 424.492053 254.260675 
L 425.610289 267.065244 
L 427.846762 257.476196 
L 428.964999 262.61542 
L 430.083235 260.012665 
L 431.201472 261.459588 
L 432.319708 257.903053 
L 433.437945 250.54431 
L 434.556181 259.030674 
L 435.674418 249.567829 
L 436.792654 261.667392 
L 437.910891 254.348617 
L 439.029127 257.138632 
L 440.147363 261.997152 
L 441.2656 266.290135 
L 442.383836 266.613323 
L 443.502073 258.276105 
L 444.620309 262.089106 
L 445.738546 257.26406 
L 446.856782 254.708873 
L 447.975019 257.408812 
L 449.093255 257.37543 
L 450.211492 268.851054 
L 451.329728 264.958277 
L 452.447965 263.872761 
L 453.566201 255.833793 
L 454.684438 264.43193 
L 455.802674 257.103001 
L 456.920911 263.860529 
L 458.039147 257.5768 
L 459.157384 254.954802 
L 460.27562 251.45212 
L 461.393856 263.690925 
L 462.512093 256.018907 
L 463.630329 252.22744 
L 464.748566 255.192103 
L 465.866802 256.775821 
L 466.985039 267.943937 
L 468.103275 260.057155 
L 469.221512 270.484879 
L 470.339748 264.623513 
L 471.457985 265.743935 
L 472.576221 262.947186 
L 473.694458 259.232528 
L 474.812694 265.451354 
L 475.930931 257.426322 
L 477.049167 265.233572 
L 478.167404 260.144879 
L 479.28564 260.572238 
L 480.403877 262.27224 
L 481.522113 264.657534 
L 482.640349 262.382186 
L 483.758586 258.340583 
L 484.876822 260.400724 
L 485.995059 267.152954 
L 487.113295 268.996446 
L 488.231532 259.2629 
L 489.349768 259.866935 
L 490.468005 262.342426 
L 491.586241 261.782517 
L 492.704478 255.484426 
L 493.822714 144.999552 
L 494.940951 147.727149 
L 496.059187 148.631236 
L 497.177424 147.172438 
L 498.29566 151.013658 
L 499.413897 152.584321 
L 500.532133 151.954034 
L 501.650369 148.1918 
L 502.768606 143.715559 
L 503.886842 147.280771 
L 505.005079 145.295892 
L 506.123315 147.979935 
L 507.241552 150.989655 
L 508.359788 148.945893 
L 509.478025 151.950802 
L 510.596261 146.506739 
L 511.714498 146.654864 
L 512.832734 148.33826 
L 513.950971 151.901967 
L 515.069207 150.421644 
L 516.187444 146.659519 
L 517.30568 146.149271 
L 518.423917 152.072858 
L 519.542153 145.500596 
L 520.66039 150.822042 
L 521.778626 151.834349 
L 522.896862 143.368397 
L 524.015099 149.856941 
L 525.133335 149.832131 
L 526.251572 154.090934 
L 527.369808 143.111609 
L 528.488045 147.915682 
L 529.606281 149.823154 
L 530.724518 151.187095 
L 531.842754 144.426223 
L 532.960991 146.19682 
L 534.079227 151.379506 
L 535.197464 150.504262 
L 536.3157 150.27041 
L 537.433937 148.86528 
L 538.552173 148.102884 
L 539.67041 149.691948 
L 540.788646 152.435424 
L 541.906883 147.597912 
L 543.025119 149.489368 
L 544.143355 148.601762 
L 545.261592 146.31727 
L 546.379828 150.307688 
L 547.498065 149.50054 
L 549.734538 149.399423 
L 550.852774 146.012663 
L 551.971011 149.916882 
L 553.089247 147.761555 
L 554.207484 149.117412 
L 555.32572 150.031757 
L 556.443957 147.581512 
L 557.562193 151.324657 
L 558.68043 150.093146 
L 559.798666 149.837305 
L 560.916903 143.513498 
L 562.035139 154.884755 
L 563.153376 147.289113 
L 564.271612 146.667312 
L 565.389848 148.688528 
L 566.508085 148.888451 
L 567.626321 145.712628 
L 568.744558 145.04498 
L 569.862794 150.894202 
L 570.981031 147.352551 
L 572.099267 152.466062 
L 573.217504 149.242395 
L 574.33574 147.154723 
L 575.453977 150.097619 
L 576.572213 147.396965 
L 577.69045 150.601157 
L 578.808686 151.147052 
L 579.926923 147.906601 
L 581.045159 147.716884 
L 582.163396 151.355345 
L 583.281632 146.212878 
L 584.399868 154.579499 
L 585.518105 143.517387 
L 586.636341 149.656478 
L 587.754578 148.060426 
L 588.872814 147.144648 
L 589.991051 144.986452 
L 591.109287 151.821801 
L 592.227524 149.684485 
L 593.34576 149.704136 
L 594.463997 146.827456 
L 595.582233 144.371491 
L 596.70047 147.496867 
L 597.818706 148.423098 
L 598.936943 145.680293 
L 600.055179 151.808137 
L 601.173416 148.840889 
L 602.291652 144.518059 
L 603.409889 147.945034 
L 604.528125 150.153777 
L 604.528125 150.153777 
" style="fill:none;stroke:#3366cc;stroke-linecap:round;stroke-width:2;"/>
   </g>
  </g>
 </g>
 <defs>
  <clipPath id="pe18fcc90f7">
   <rect height="277.2" width="558" x="46.528125" y="10.778906"/>
  </clipPath>
 </defs>
</svg>
