<?xml version="1.0" encoding="utf-8" standalone="no"?>
<!DOCTYPE svg PUBLIC "-//W3C//DTD SVG 1.1//EN"
  "http://www.w3.org/Graphics/SVG/1.1/DTD/svg11.dtd">
<svg xmlns:xlink="http://www.w3.org/1999/xlink" width="864pt" height="576pt" viewBox="0 0 864 576" xmlns="http://www.w3.org/2000/svg" version="1.1">
 <metadata>
  <rdf:RDF xmlns:dc="http://purl.org/dc/elements/1.1/" xmlns:cc="http://creativecommons.org/ns#" xmlns:rdf="http://www.w3.org/1999/02/22-rdf-syntax-ns#">
   <cc:Work>
    <dc:type rdf:resource="http://purl.org/dc/dcmitype/StillImage"/>
    <dc:date>2025-05-07T18:17:14.548654</dc:date>
    <dc:format>image/svg+xml</dc:format>
    <dc:creator>
     <cc:Agent>
      <dc:title>Matplotlib v3.5.2, https://matplotlib.org/</dc:title>
     </cc:Agent>
    </dc:creator>
   </cc:Work>
  </rdf:RDF>
 </metadata>
 <defs>
  <style type="text/css">*{stroke-linejoin: round; stroke-linecap: butt}</style>
 </defs>
 <g id="figure_1">
  <g id="patch_1">
   <path d="M 0 576 
L 864 576 
L 864 0 
L 0 0 
z
" style="fill: #ffffff"/>
  </g>
  <g id="axes_1">
   <g id="patch_2">
    <path d="M 45.2 174.72 
L 853.2 174.72 
L 853.2 26.88 
L 45.2 26.88 
z
" style="fill: #ffffff"/>
   </g>
   <g id="matplotlib.axis_1">
    <g id="xtick_1">
     <g id="line2d_1">
      <defs>
       <path id="m2ebb182a30" d="M 0 0 
L 0 3.5 
" style="stroke: #000000; stroke-width: 0.8"/>
      </defs>
      <g>
       <use xlink:href="#m2ebb182a30" x="81.927273" y="174.72" style="stroke: #000000; stroke-width: 0.8"/>
      </g>
     </g>
    </g>
    <g id="xtick_2">
     <g id="line2d_2">
      <g>
       <use xlink:href="#m2ebb182a30" x="204.351515" y="174.72" style="stroke: #000000; stroke-width: 0.8"/>
      </g>
     </g>
    </g>
    <g id="xtick_3">
     <g id="line2d_3">
      <g>
       <use xlink:href="#m2ebb182a30" x="326.775758" y="174.72" style="stroke: #000000; stroke-width: 0.8"/>
      </g>
     </g>
    </g>
    <g id="xtick_4">
     <g id="line2d_4">
      <g>
       <use xlink:href="#m2ebb182a30" x="449.2" y="174.72" style="stroke: #000000; stroke-width: 0.8"/>
      </g>
     </g>
    </g>
    <g id="xtick_5">
     <g id="line2d_5">
      <g>
       <use xlink:href="#m2ebb182a30" x="571.624242" y="174.72" style="stroke: #000000; stroke-width: 0.8"/>
      </g>
     </g>
    </g>
    <g id="xtick_6">
     <g id="line2d_6">
      <g>
       <use xlink:href="#m2ebb182a30" x="694.048485" y="174.72" style="stroke: #000000; stroke-width: 0.8"/>
      </g>
     </g>
    </g>
    <g id="xtick_7">
     <g id="line2d_7">
      <g>
       <use xlink:href="#m2ebb182a30" x="816.472727" y="174.72" style="stroke: #000000; stroke-width: 0.8"/>
      </g>
     </g>
    </g>
   </g>
   <g id="matplotlib.axis_2">
    <g id="ytick_1">
     <g id="line2d_8">
      <defs>
       <path id="m541587a112" d="M 0 0 
L -3.5 0 
" style="stroke: #000000; stroke-width: 0.8"/>
      </defs>
      <g>
       <use xlink:href="#m541587a112" x="45.2" y="162.274999" style="stroke: #000000; stroke-width: 0.8"/>
      </g>
     </g>
     <g id="text_1">
      <!-- 8 -->
      <g transform="translate(32.335938 166.271874)scale(0.1 -0.1)">
       <defs>
        <path id="MicrosoftYaHei-38" d="M 306 1350 
Q 306 1769 556 2122 
Q 806 2475 1200 2625 
Q 884 2803 700 3081 
Q 516 3359 516 3684 
Q 516 4028 692 4312 
Q 869 4597 1183 4759 
Q 1497 4922 1875 4922 
Q 2256 4922 2572 4761 
Q 2888 4600 3063 4315 
Q 3238 4031 3238 3684 
Q 3238 3366 3058 3086 
Q 2878 2806 2559 2625 
Q 2953 2472 3200 2119 
Q 3447 1766 3447 1350 
Q 3447 938 3250 611 
Q 3053 284 2690 103 
Q 2328 -78 1875 -78 
Q 1425 -78 1065 103 
Q 706 284 506 612 
Q 306 941 306 1350 
z
M 906 1378 
Q 906 947 1172 687 
Q 1438 428 1878 428 
Q 2309 428 2582 692 
Q 2856 956 2856 1378 
Q 2856 1778 2579 2051 
Q 2303 2325 1878 2325 
Q 1456 2325 1181 2058 
Q 906 1791 906 1378 
z
M 1081 3634 
Q 1081 3309 1312 3076 
Q 1544 2844 1878 2844 
Q 2206 2844 2445 3078 
Q 2684 3313 2684 3634 
Q 2684 3963 2454 4191 
Q 2225 4419 1878 4419 
Q 1534 4419 1307 4195 
Q 1081 3972 1081 3634 
z
" transform="scale(0.015625)"/>
       </defs>
       <use xlink:href="#MicrosoftYaHei-38"/>
      </g>
     </g>
    </g>
    <g id="ytick_2">
     <g id="line2d_9">
      <g>
       <use xlink:href="#m541587a112" x="45.2" y="133.550265" style="stroke: #000000; stroke-width: 0.8"/>
      </g>
     </g>
     <g id="text_2">
      <!-- 9 -->
      <g transform="translate(32.335938 137.54714)scale(0.1 -0.1)">
       <defs>
        <path id="MicrosoftYaHei-39" d="M 578 656 
Q 978 425 1441 425 
Q 2091 425 2448 937 
Q 2806 1450 2806 2394 
Q 2800 2388 2794 2394 
Q 2475 1788 1722 1788 
Q 1113 1788 713 2206 
Q 313 2625 313 3294 
Q 313 4006 750 4464 
Q 1188 4922 1884 4922 
Q 2606 4922 3012 4355 
Q 3419 3788 3419 2703 
Q 3419 1363 2894 641 
Q 2369 -81 1441 -81 
Q 931 -81 578 84 
L 578 656 
z
M 931 3372 
Q 931 2884 1181 2598 
Q 1431 2313 1872 2313 
Q 2253 2313 2512 2573 
Q 2772 2834 2772 3206 
Q 2772 3728 2514 4070 
Q 2256 4413 1834 4413 
Q 1444 4413 1187 4116 
Q 931 3819 931 3372 
z
" transform="scale(0.015625)"/>
       </defs>
       <use xlink:href="#MicrosoftYaHei-39"/>
      </g>
     </g>
    </g>
    <g id="ytick_3">
     <g id="line2d_10">
      <g>
       <use xlink:href="#m541587a112" x="45.2" y="104.825531" style="stroke: #000000; stroke-width: 0.8"/>
      </g>
     </g>
     <g id="text_3">
      <!-- 10 -->
      <g transform="translate(26.471875 108.822406)scale(0.1 -0.1)">
       <defs>
        <path id="MicrosoftYaHei-31" d="M 1781 0 
L 1781 4141 
Q 1638 3997 1295 3819 
Q 953 3641 663 3569 
L 663 4169 
Q 1047 4275 1484 4508 
Q 1922 4741 2156 4947 
L 2388 4947 
L 2388 0 
L 1781 0 
z
" transform="scale(0.015625)"/>
        <path id="MicrosoftYaHei-30" d="M 284 2325 
Q 284 3606 709 4264 
Q 1134 4922 1941 4922 
Q 3478 4922 3478 2441 
Q 3478 1216 3045 567 
Q 2613 -81 1831 -81 
Q 1094 -81 689 534 
Q 284 1150 284 2325 
z
M 909 2353 
Q 909 425 1888 425 
Q 2850 425 2850 2384 
Q 2850 4413 1906 4413 
Q 909 4413 909 2353 
z
" transform="scale(0.015625)"/>
       </defs>
       <use xlink:href="#MicrosoftYaHei-31"/>
       <use xlink:href="#MicrosoftYaHei-30" x="58.642578"/>
      </g>
     </g>
    </g>
    <g id="ytick_4">
     <g id="line2d_11">
      <g>
       <use xlink:href="#m541587a112" x="45.2" y="76.100797" style="stroke: #000000; stroke-width: 0.8"/>
      </g>
     </g>
     <g id="text_4">
      <!-- 11 -->
      <g transform="translate(26.471875 80.097672)scale(0.1 -0.1)">
       <use xlink:href="#MicrosoftYaHei-31"/>
       <use xlink:href="#MicrosoftYaHei-31" x="58.642578"/>
      </g>
     </g>
    </g>
    <g id="ytick_5">
     <g id="line2d_12">
      <g>
       <use xlink:href="#m541587a112" x="45.2" y="47.376063" style="stroke: #000000; stroke-width: 0.8"/>
      </g>
     </g>
     <g id="text_5">
      <!-- 12 -->
      <g transform="translate(26.471875 51.372938)scale(0.1 -0.1)">
       <defs>
        <path id="MicrosoftYaHei-32" d="M 2666 3572 
Q 2666 3963 2419 4186 
Q 2172 4409 1747 4409 
Q 1447 4409 1140 4256 
Q 834 4103 569 3819 
L 569 4413 
Q 806 4659 1107 4790 
Q 1409 4922 1816 4922 
Q 2472 4922 2872 4570 
Q 3272 4219 3272 3619 
Q 3272 3084 3026 2693 
Q 2781 2303 2188 1894 
Q 1581 1475 1376 1294 
Q 1172 1113 1090 947 
Q 1009 781 1009 544 
L 3416 544 
L 3416 0 
L 372 0 
L 372 241 
Q 372 659 486 951 
Q 600 1244 862 1520 
Q 1125 1797 1681 2184 
Q 2250 2584 2458 2886 
Q 2666 3188 2666 3572 
z
" transform="scale(0.015625)"/>
       </defs>
       <use xlink:href="#MicrosoftYaHei-31"/>
       <use xlink:href="#MicrosoftYaHei-32" x="58.642578"/>
      </g>
     </g>
    </g>
    <g id="text_6">
     <!-- 压力 (MPa) -->
     <g transform="translate(19.985938 126.153906)rotate(-90)scale(0.1 -0.1)">
      <defs>
       <path id="MicrosoftYaHei-538b" d="M 1363 3 
L 3538 3 
L 3538 2216 
L 1819 2216 
L 1819 2684 
L 3538 2684 
L 3538 4078 
L 4063 4078 
L 4063 2684 
L 5994 2684 
L 5994 2216 
L 4063 2216 
L 4063 3 
L 6250 3 
L 6250 -459 
L 1363 -459 
L 1363 3 
z
M 1363 2772 
Q 1363 1378 1188 672 
Q 1006 -59 488 -803 
Q 338 -622 100 -384 
Q 563 303 694 884 
Q 838 1459 838 2653 
L 838 4866 
L 6219 4866 
L 6219 4391 
L 1363 4391 
L 1363 2772 
z
M 4588 1516 
L 4938 1803 
Q 5413 1316 5881 791 
L 5469 459 
Q 4875 1191 4588 1516 
z
" transform="scale(0.015625)"/>
       <path id="MicrosoftYaHei-529b" d="M 400 3916 
L 2425 3916 
Q 2444 4603 2450 5316 
L 2994 5316 
Q 2981 4653 2963 3916 
L 5831 3916 
Q 5756 1472 5688 459 
Q 5606 -616 4538 -628 
Q 4025 -628 3300 -603 
Q 3275 -359 3206 -9 
L 3225 -9 
Q 4038 -84 4488 -78 
Q 5094 -66 5156 591 
Q 5231 1709 5269 3403 
L 2950 3403 
Q 2894 1775 2431 953 
Q 1938 41 506 -803 
Q 331 -578 131 -328 
Q 1488 434 1913 1209 
Q 2353 1913 2406 3403 
L 400 3403 
L 400 3916 
z
" transform="scale(0.015625)"/>
       <path id="MicrosoftYaHei-20" transform="scale(0.015625)"/>
       <path id="MicrosoftYaHei-28" d="M 1531 -1100 
Q 478 100 478 1847 
Q 478 3594 1531 4841 
L 2072 4841 
Q 1016 3544 1016 1853 
Q 1016 166 2066 -1100 
L 1531 -1100 
z
" transform="scale(0.015625)"/>
       <path id="MicrosoftYaHei-4d" d="M 5003 0 
L 5003 3206 
Q 5003 3603 5050 4159 
L 5034 4159 
Q 4953 3809 4891 3672 
L 3294 0 
L 2947 0 
L 1353 3644 
Q 1297 3769 1209 4159 
L 1191 4159 
Q 1222 3822 1222 3178 
L 1222 0 
L 625 0 
L 625 4841 
L 1472 4841 
L 2900 1522 
Q 3063 1141 3116 928 
L 3138 928 
Q 3300 1375 3366 1534 
L 4819 4841 
L 5625 4841 
L 5625 0 
L 5003 0 
z
" transform="scale(0.015625)"/>
       <path id="MicrosoftYaHei-50" d="M 1250 1809 
L 1250 0 
L 625 0 
L 625 4841 
L 2000 4841 
Q 2784 4841 3217 4462 
Q 3650 4084 3650 3381 
Q 3650 2669 3144 2226 
Q 2638 1784 1878 1809 
L 1250 1809 
z
M 1250 4291 
L 1250 2359 
L 1828 2359 
Q 2400 2359 2697 2617 
Q 2994 2875 2994 3356 
Q 2994 4291 1888 4291 
L 1250 4291 
z
" transform="scale(0.015625)"/>
       <path id="MicrosoftYaHei-61" d="M 628 3216 
Q 1144 3538 1819 3538 
Q 3069 3538 3069 2225 
L 3069 0 
L 2463 0 
L 2463 534 
L 2447 534 
Q 2088 -81 1388 -81 
Q 884 -81 587 191 
Q 291 463 291 925 
Q 291 1894 1438 2053 
L 2463 2197 
Q 2463 3044 1763 3044 
Q 1141 3044 628 2625 
L 628 3216 
z
M 1653 1625 
Q 1228 1569 1067 1412 
Q 906 1256 906 975 
Q 906 728 1081 572 
Q 1256 416 1544 416 
Q 1944 416 2203 697 
Q 2463 978 2463 1403 
L 2463 1734 
L 1653 1625 
z
" transform="scale(0.015625)"/>
       <path id="MicrosoftYaHei-29" d="M 78 -1100 
Q 1131 163 1131 1853 
Q 1131 3547 72 4841 
L 616 4841 
Q 1672 3603 1672 1847 
Q 1672 91 616 -1100 
L 78 -1100 
z
" transform="scale(0.015625)"/>
      </defs>
      <use xlink:href="#MicrosoftYaHei-538b"/>
      <use xlink:href="#MicrosoftYaHei-529b" x="100"/>
      <use xlink:href="#MicrosoftYaHei-20" x="200"/>
      <use xlink:href="#MicrosoftYaHei-28" x="229.589844"/>
      <use xlink:href="#MicrosoftYaHei-4d" x="262.988281"/>
      <use xlink:href="#MicrosoftYaHei-50" x="360.693359"/>
      <use xlink:href="#MicrosoftYaHei-61" x="418.375"/>
      <use xlink:href="#MicrosoftYaHei-29" x="473.648438"/>
     </g>
    </g>
   </g>
   <g id="line2d_13">
    <path d="M 81.927273 99.459465 
L 82.539904 101.344333 
L 83.152536 92.346612 
L 83.765168 114.790328 
L 84.3778 95.248117 
L 84.990431 88.057453 
L 85.603063 66.462252 
L 86.215695 91.122664 
L 86.828327 99.152737 
L 87.440958 68.453371 
L 88.05359 90.922798 
L 88.666222 103.151684 
L 89.278854 97.53531 
L 89.891485 88.372579 
L 90.504117 84.491345 
L 91.116749 86.237508 
L 91.729381 74.703512 
L 92.342012 100.154011 
L 92.954644 93.338901 
L 93.567276 75.529806 
L 94.179907 97.503456 
L 94.792539 58.709254 
L 95.405171 65.053443 
L 96.017803 66.851668 
L 96.630434 72.836098 
L 97.243066 73.640995 
L 97.855698 88.32936 
L 98.46833 81.599632 
L 99.080961 78.469071 
L 99.693593 92.128511 
L 100.306225 95.274396 
L 100.918857 86.90883 
L 101.531488 108.238811 
L 102.14412 100.960943 
L 102.756752 85.341367 
L 103.369384 95.636177 
L 103.982015 79.473306 
L 104.594647 78.209685 
L 105.207279 106.608575 
L 105.819911 73.6513 
L 107.045174 82.218628 
L 107.657806 80.491107 
L 108.270437 75.63508 
L 108.883069 86.181363 
L 109.495701 102.715708 
L 110.108333 133.366128 
L 110.720964 97.816758 
L 111.333596 39.281627 
L 111.946228 81.222978 
L 112.55886 72.969991 
L 113.171491 84.690308 
L 113.784123 65.035088 
L 114.396755 83.569772 
L 115.009387 70.289265 
L 115.622018 106.287069 
L 116.23465 100.590767 
L 116.847282 90.271144 
L 117.459914 88.573817 
L 118.072545 82.633343 
L 118.685177 102.496778 
L 119.297809 101.942439 
L 119.910441 93.946702 
L 120.523072 105.550621 
L 121.135704 96.534776 
L 121.748336 96.034203 
L 122.360967 105.141348 
L 122.973599 98.928619 
L 123.586231 108.852555 
L 124.198863 92.013486 
L 124.811494 131.912262 
L 125.424126 92.327176 
L 126.036758 119.989383 
L 126.64939 106.041301 
L 127.262021 101.593953 
L 127.874653 122.717293 
L 128.487285 136.162664 
L 129.099917 94.702327 
L 129.712548 105.285844 
L 130.32518 122.720765 
L 131.550444 116.195838 
L 132.163075 138.877716 
L 132.775707 120.036342 
L 133.388339 110.528524 
L 134.000971 109.90266 
L 134.613602 140.515921 
L 135.226234 120.119212 
L 135.838866 116.03445 
L 136.451497 119.085744 
L 137.064129 95.470079 
L 137.676761 117.829056 
L 138.289393 148.035098 
L 138.902024 126.976898 
L 139.514656 141.759737 
L 140.127288 162.107257 
L 140.73992 141.045716 
L 141.352551 142.381683 
L 141.965183 133.271905 
L 142.577815 120.670376 
L 143.190447 153.726835 
L 143.803078 156.551194 
L 144.41571 116.336739 
L 145.028342 137.021212 
L 145.640974 114.992049 
L 146.253605 115.633768 
L 146.866237 145.229967 
L 147.478869 161.079458 
L 148.0915 136.709695 
L 148.704132 119.150257 
L 149.316764 133.708305 
L 149.929396 122.280282 
L 150.542027 114.112921 
L 151.154659 143.812646 
L 151.767291 126.6224 
L 152.379923 137.133654 
L 152.992554 125.240154 
L 153.605186 106.158508 
L 154.217818 122.480079 
L 154.83045 132.250688 
L 155.443081 122.677855 
L 156.055713 123.970079 
L 157.280977 108.711631 
L 157.893608 91.045515 
L 158.50624 154.804832 
L 159.118872 107.043077 
L 159.731504 100.699861 
L 160.344135 123.616463 
L 160.956767 92.615753 
L 161.569399 92.136022 
L 162.18203 102.976831 
L 162.794662 108.696125 
L 163.407294 92.989982 
L 164.019926 94.059109 
L 164.632557 94.2923 
L 165.245189 109.701167 
L 165.857821 105.126272 
L 166.470453 127.0127 
L 167.083084 89.312031 
L 167.695716 80.308892 
L 168.308348 119.414233 
L 168.92098 80.350578 
L 169.533611 74.656897 
L 170.146243 91.044536 
L 170.758875 101.851628 
L 171.371507 83.641886 
L 171.984138 75.734763 
L 172.59677 71.808312 
L 173.209402 63.402569 
L 173.822034 105.839731 
L 174.434665 94.388689 
L 175.047297 91.837787 
L 175.659929 60.175027 
L 176.27256 79.442649 
L 176.885192 62.650183 
L 177.497824 85.114203 
L 178.110456 93.643758 
L 178.723087 84.700512 
L 179.335719 86.795042 
L 179.948351 70.630779 
L 180.560983 93.536295 
L 181.173614 87.391549 
L 181.786246 60.760266 
L 182.398878 81.698595 
L 183.01151 71.770221 
L 183.624141 74.98177 
L 184.236773 88.726904 
L 184.849405 82.640921 
L 185.462037 60.220785 
L 186.074668 67.1583 
L 186.6873 95.668066 
L 187.299932 62.401716 
L 187.912563 72.037254 
L 188.525195 63.819805 
L 189.137827 82.977005 
L 189.750459 95.351949 
L 190.36309 88.471739 
L 190.975722 72.167976 
L 191.588354 71.201412 
L 192.200986 69.227869 
L 192.813617 71.984749 
L 193.426249 80.319548 
L 194.038881 96.436847 
L 194.651513 98.376428 
L 195.264144 74.203586 
L 196.489408 109.990293 
L 197.10204 104.807464 
L 197.714671 92.260583 
L 198.327303 92.472243 
L 198.939935 73.597013 
L 199.552567 114.047106 
L 200.165198 115.030921 
L 200.77783 109.596092 
L 201.390462 98.490357 
L 202.003093 81.954022 
L 202.615725 100.606543 
L 203.228357 95.65608 
L 203.840989 115.282201 
L 204.45362 121.927416 
L 205.066252 99.235198 
L 205.678884 108.70701 
L 206.291516 101.853806 
L 206.904147 110.456036 
L 208.129411 131.14637 
L 208.742043 133.601194 
L 209.354674 115.317898 
L 209.967306 108.524715 
L 210.579938 131.759004 
L 211.19257 108.417605 
L 211.805201 125.842534 
L 212.417833 113.960158 
L 213.030465 132.905585 
L 213.643097 120.55887 
L 214.255728 91.872271 
L 214.86836 131.1887 
L 216.093623 114.06825 
L 216.706255 140.996397 
L 217.318887 110.564922 
L 217.931519 139.329018 
L 219.156782 142.704635 
L 219.769414 124.542116 
L 220.382046 112.947643 
L 220.994677 162.460289 
L 221.607309 142.400355 
L 222.219941 145.127819 
L 222.832573 140.786102 
L 223.445204 125.575319 
L 224.057836 141.006788 
L 224.670468 120.324628 
L 225.2831 127.848208 
L 225.895731 124.358717 
L 226.508363 127.442425 
L 227.120995 153.010657 
L 227.733627 123.301516 
L 228.346258 148.022465 
L 228.95889 119.022888 
L 229.571522 137.224668 
L 230.184153 127.735407 
L 230.796785 142.356456 
L 231.409417 138.306001 
L 232.022049 120.665153 
L 232.63468 144.862694 
L 233.247312 130.296887 
L 233.859944 139.996058 
L 234.472576 129.819764 
L 235.085207 140.288998 
L 235.697839 153.878212 
L 236.310471 125.718709 
L 236.923103 127.490374 
L 238.148366 97.937963 
L 238.760998 136.786102 
L 239.37363 93.042365 
L 239.986261 130.01349 
L 240.598893 111.224421 
L 241.211525 113.16206 
L 241.824156 121.693294 
L 242.436788 96.793688 
L 243.04942 77.015854 
L 243.662052 128.529112 
L 244.887315 96.714903 
L 245.499947 84.163578 
L 246.112579 124.034784 
L 247.337842 85.302273 
L 247.950474 74.84768 
L 248.563106 102.987032 
L 249.175737 64.69574 
L 249.788369 98.332288 
L 250.401001 86.95038 
L 251.626264 114.877919 
L 252.238896 82.141209 
L 252.851528 108.027996 
L 253.46416 109.634071 
L 254.076791 85.131752 
L 254.689423 97.862316 
L 255.302055 62.575654 
L 255.914686 76.393433 
L 256.527318 73.659605 
L 257.13995 90.468613 
L 258.365213 74.388314 
L 258.977845 76.034754 
L 259.590477 74.964203 
L 260.203109 100.950362 
L 260.81574 69.68171 
L 261.428372 98.408447 
L 262.041004 48.181999 
L 262.653636 85.161478 
L 263.266267 84.105789 
L 263.878899 100.788083 
L 264.491531 66.011835 
L 265.104163 55.864926 
L 265.716794 65.682803 
L 266.329426 94.833763 
L 266.942058 66.726993 
L 267.55469 56.088947 
L 268.167321 67.599943 
L 268.779953 49.771499 
L 269.392585 73.64956 
L 270.005216 93.137575 
L 270.617848 66.446755 
L 271.23048 100.32327 
L 271.843112 63.446102 
L 272.455743 69.668877 
L 273.068375 57.848872 
L 273.681007 75.151576 
L 274.293639 63.765941 
L 274.90627 80.778314 
L 275.518902 101.921733 
L 276.131534 72.028163 
L 276.744166 72.709612 
L 277.356797 70.020093 
L 277.969429 88.807315 
L 278.582061 94.417105 
L 279.194693 73.920563 
L 279.807324 105.838595 
L 280.419956 93.553313 
L 281.032588 97.591429 
L 281.64522 103.382393 
L 282.257851 121.926306 
L 282.870483 88.505921 
L 283.483115 100.892361 
L 284.095746 94.084505 
L 284.708378 91.044283 
L 285.32101 90.12787 
L 286.546273 109.23421 
L 287.158905 116.687262 
L 287.771537 120.628511 
L 288.384169 135.739554 
L 288.9968 110.495523 
L 289.609432 120.447228 
L 290.222064 122.08562 
L 290.834696 99.870298 
L 291.447327 110.63797 
L 292.059959 109.567098 
L 292.672591 113.103505 
L 293.285223 136.592697 
L 293.897854 142.762645 
L 294.510486 138.3058 
L 295.123118 138.812121 
L 295.735749 99.112377 
L 296.348381 137.040009 
L 296.961013 117.096893 
L 297.573645 113.978308 
L 298.186276 126.985565 
L 298.798908 123.583398 
L 299.41154 141.804954 
L 300.024172 136.392128 
L 300.636803 129.853395 
L 301.249435 149.124649 
L 301.862067 135.929232 
L 302.474699 127.933072 
L 303.08733 128.98621 
L 303.699962 137.302125 
L 304.312594 127.001425 
L 304.925226 129.572181 
L 305.537857 142.492669 
L 306.150489 123.956145 
L 306.763121 117.705402 
L 307.375753 151.401412 
L 307.988384 128.720941 
L 308.601016 153.10919 
L 309.213648 114.10715 
L 309.826279 128.268217 
L 310.438911 123.745507 
L 311.051543 138.920685 
L 311.664175 142.037239 
L 312.276806 124.894749 
L 312.889438 122.130309 
L 313.50207 141.476411 
L 314.114702 145.52589 
L 314.727333 129.629657 
L 315.339965 118.273264 
L 315.952597 113.847823 
L 316.565229 86.700866 
L 317.17786 145.302564 
L 317.790492 114.388944 
L 319.015756 123.691429 
L 319.628387 98.323133 
L 320.241019 128.615293 
L 320.853651 123.393692 
L 321.466283 95.050264 
L 322.078914 91.558471 
L 322.691546 126.14086 
L 323.304178 112.304579 
L 323.916809 117.532775 
L 324.529441 103.000321 
L 325.142073 108.218774 
L 325.754705 99.289777 
L 326.367336 101.032509 
L 326.979968 105.364495 
L 327.5926 91.725603 
L 328.205232 111.974406 
L 328.817863 98.060351 
L 329.430495 106.768026 
L 330.043127 93.406535 
L 330.655759 86.583423 
L 331.26839 109.296726 
L 331.881022 91.865483 
L 332.493654 119.330344 
L 333.106286 97.409005 
L 333.718917 98.189943 
L 334.331549 91.653795 
L 334.944181 80.205641 
L 335.556812 87.29356 
L 336.169444 101.508522 
L 336.782076 102.151457 
L 337.394708 86.236328 
L 338.007339 77.567903 
L 338.619971 70.562287 
L 339.232603 54.896022 
L 339.845235 92.359858 
L 340.457866 72.522083 
L 341.070498 85.974258 
L 341.68313 95.106451 
L 342.295762 91.797677 
L 342.908393 90.024052 
L 343.521025 70.360421 
L 344.133657 88.083168 
L 344.746289 83.064285 
L 345.35892 62.208899 
L 345.971552 69.202161 
L 346.584184 68.206556 
L 347.196816 68.872372 
L 347.809447 78.698778 
L 348.422079 67.036556 
L 349.034711 60.177465 
L 349.647342 104.106247 
L 350.259974 76.090629 
L 350.872606 56.48081 
L 351.485238 75.196942 
L 352.097869 83.016947 
L 352.710501 88.109206 
L 353.323133 42.844441 
L 353.935765 77.860783 
L 354.548396 78.807188 
L 355.161028 84.048511 
L 355.77366 53.811598 
L 356.386292 96.420536 
L 356.998923 68.75103 
L 357.611555 58.318212 
L 358.224187 85.340685 
L 358.836819 95.843673 
L 359.44945 95.205285 
L 360.062082 103.555986 
L 360.674714 89.36132 
L 361.287346 86.368602 
L 361.899977 88.769495 
L 362.512609 78.493459 
L 363.125241 109.499673 
L 363.737872 77.321382 
L 364.350504 112.670352 
L 364.963136 101.273743 
L 365.575768 113.342444 
L 366.188399 103.311231 
L 366.801031 107.577828 
L 367.413663 97.281469 
L 368.026295 119.199578 
L 368.638926 100.225492 
L 369.251558 115.918764 
L 369.86419 147.388555 
L 370.476822 111.810006 
L 371.089453 110.155628 
L 371.702085 102.222227 
L 372.314717 124.009321 
L 372.927349 113.486036 
L 373.53998 88.559011 
L 374.152612 117.773484 
L 374.765244 134.683694 
L 375.377876 124.301006 
L 375.990507 142.478867 
L 376.603139 143.265037 
L 377.215771 132.801802 
L 377.828402 127.785211 
L 378.441034 113.128545 
L 379.053666 121.515723 
L 379.666298 125.601262 
L 380.278929 110.584019 
L 380.891561 118.074111 
L 381.504193 140.946439 
L 382.116825 150.9693 
L 382.729456 130.581205 
L 383.342088 124.748168 
L 383.95472 127.974609 
L 384.567352 150.512595 
L 385.179983 108.674734 
L 385.792615 110.047036 
L 386.405247 140.127995 
L 387.017879 112.701324 
L 387.63051 141.322486 
L 388.243142 137.674642 
L 388.855774 129.609503 
L 389.468405 119.945966 
L 390.693669 153.333095 
L 391.306301 121.644449 
L 391.918932 124.909382 
L 392.531564 139.638529 
L 393.144196 128.799637 
L 393.756828 157.898604 
L 394.369459 132.135178 
L 394.982091 122.693163 
L 395.594723 115.165271 
L 396.207355 120.409977 
L 396.819986 108.902726 
L 397.432618 103.578286 
L 398.04525 133.185772 
L 398.657882 140.669714 
L 399.270513 144.933475 
L 399.883145 118.744163 
L 400.495777 110.229931 
L 401.108409 139.723198 
L 402.333672 106.891396 
L 402.946304 129.260487 
L 403.558935 124.202663 
L 404.171567 126.531619 
L 404.784199 116.930017 
L 405.396831 102.145571 
L 406.009462 111.743123 
L 406.622094 94.661524 
L 407.234726 101.090315 
L 407.847358 113.650814 
L 408.459989 86.945997 
L 409.072621 97.517733 
L 409.685253 97.918963 
L 410.297885 102.63104 
L 410.910516 104.270445 
L 411.523148 104.552275 
L 412.13578 90.425586 
L 412.748412 112.300377 
L 413.361043 101.53992 
L 413.973675 103.220306 
L 415.198939 64.796337 
L 415.81157 97.29808 
L 416.424202 73.766599 
L 417.036834 66.223377 
L 418.262097 96.365515 
L 418.874729 98.646306 
L 419.487361 80.803354 
L 420.099992 85.74576 
L 420.712624 67.855562 
L 421.325256 80.683963 
L 421.937888 73.103844 
L 422.550519 97.43415 
L 423.163151 79.078876 
L 423.775783 66.911032 
L 424.388415 70.854953 
L 425.001046 93.949317 
L 425.613678 74.969345 
L 426.22631 60.376994 
L 426.838942 71.543256 
L 427.451573 78.697714 
L 428.064205 46.02843 
L 428.676837 78.998491 
L 429.289468 83.11104 
L 429.9021 81.799927 
L 430.514732 68.933323 
L 431.127364 76.721726 
L 431.739995 77.919843 
L 432.352627 78.144903 
L 432.965259 79.082046 
L 433.577891 69.3361 
L 434.190522 82.183987 
L 434.803154 57.698608 
L 435.415786 69.898241 
L 436.028418 59.318375 
L 436.641049 116.79054 
L 437.866313 70.364662 
L 438.478945 86.746225 
L 439.704208 78.166212 
L 440.31684 97.859197 
L 440.929472 68.264838 
L 441.542103 75.406054 
L 442.154735 86.98908 
L 442.767367 118.426709 
L 443.379998 113.995713 
L 444.605262 70.280782 
L 445.217894 89.631348 
L 445.830525 94.792765 
L 446.443157 95.172286 
L 447.055789 106.398167 
L 448.281052 73.490972 
L 448.893684 116.085192 
L 449.506316 97.802018 
L 450.118948 121.831355 
L 450.731579 72.834221 
L 451.344211 106.240527 
L 451.956843 114.493838 
L 452.569475 108.211622 
L 453.182106 105.105039 
L 453.794738 94.912498 
L 454.40737 137.930155 
L 455.020002 107.449664 
L 455.632633 126.300466 
L 456.245265 107.783644 
L 456.857897 102.836545 
L 458.08316 122.905201 
L 458.695792 141.8514 
L 459.308424 122.533606 
L 459.921055 133.487324 
L 460.533687 129.577633 
L 461.146319 96.159809 
L 461.758951 106.717044 
L 462.371582 120.773685 
L 462.984214 137.55178 
L 463.596846 113.187803 
L 464.209478 127.401329 
L 464.822109 159.768992 
L 465.434741 147.330795 
L 466.660005 134.076622 
L 467.272636 138.98827 
L 467.885268 135.803899 
L 468.4979 128.145612 
L 469.110532 148.174797 
L 469.723163 127.718027 
L 470.335795 142.40695 
L 470.948427 133.990243 
L 471.561058 127.771073 
L 472.17369 139.255255 
L 472.786322 135.6521 
L 473.398954 124.887819 
L 474.011585 126.245874 
L 474.624217 115.793165 
L 475.236849 116.530762 
L 475.849481 133.939926 
L 476.462112 131.203937 
L 477.074744 136.852751 
L 477.687376 122.827371 
L 478.300008 129.740766 
L 478.912639 146.204211 
L 479.525271 105.707337 
L 480.750535 137.29674 
L 481.363166 132.412288 
L 481.975798 97.838287 
L 482.58843 118.397728 
L 483.201061 153.926165 
L 483.813693 96.518277 
L 484.426325 110.848953 
L 485.038957 128.352243 
L 485.651588 115.372765 
L 486.26422 136.53663 
L 486.876852 118.502852 
L 487.489484 124.441888 
L 488.102115 75.596355 
L 488.714747 85.925767 
L 489.327379 109.411084 
L 489.940011 76.811722 
L 490.552642 103.665475 
L 491.165274 100.939909 
L 491.777906 120.330417 
L 492.390538 97.227594 
L 493.003169 108.481951 
L 493.615801 83.384815 
L 494.228433 108.370171 
L 494.841065 99.477527 
L 495.453696 119.608909 
L 496.066328 111.030948 
L 496.67896 92.247183 
L 497.291591 63.092673 
L 497.904223 107.388248 
L 499.129487 85.288709 
L 499.742118 91.24579 
L 500.35475 100.223876 
L 500.967382 98.985967 
L 501.580014 67.407509 
L 502.192645 89.991991 
L 502.805277 76.108291 
L 503.417909 87.410169 
L 504.030541 103.363324 
L 504.643172 72.559929 
L 505.255804 83.509223 
L 505.868436 72.766152 
L 506.481068 80.133938 
L 507.093699 57.638146 
L 507.706331 72.225983 
L 508.318963 61.431105 
L 508.931595 44.496873 
L 510.156858 90.839509 
L 510.76949 81.808741 
L 511.382121 91.791612 
L 511.994753 56.852356 
L 512.607385 71.452947 
L 513.220017 80.40263 
L 513.832648 78.104607 
L 514.44528 60.650153 
L 515.057912 77.374373 
L 515.670544 81.127272 
L 516.283175 80.191594 
L 516.895807 83.448382 
L 517.508439 74.323052 
L 518.121071 68.163326 
L 518.733702 87.754007 
L 519.346334 68.355707 
L 519.958966 99.944645 
L 520.571598 71.36353 
L 521.184229 58.923873 
L 521.796861 74.476749 
L 522.409493 83.801182 
L 523.022124 96.651274 
L 523.634756 72.431157 
L 524.247388 85.603925 
L 524.86002 107.099907 
L 525.472651 96.525142 
L 526.085283 88.135568 
L 526.697915 102.215701 
L 527.310547 107.636253 
L 527.923178 132.615561 
L 528.53581 115.946759 
L 529.761074 98.531203 
L 530.373705 99.339355 
L 530.986337 85.511457 
L 531.598969 107.510652 
L 532.211601 121.109164 
L 532.824232 103.418712 
L 533.436864 114.307511 
L 534.049496 110.948985 
L 534.662128 108.724499 
L 535.274759 104.383551 
L 535.887391 131.679332 
L 536.500023 144.823576 
L 537.112654 140.603885 
L 537.725286 92.288356 
L 538.337918 100.057905 
L 538.95055 149.240385 
L 539.563181 121.889575 
L 540.175813 111.451604 
L 540.788445 117.018966 
L 541.401077 101.345506 
L 542.013708 145.637917 
L 542.62634 132.24835 
L 543.238972 129.71499 
L 543.851604 136.668749 
L 544.464235 121.940606 
L 545.076867 137.136538 
L 545.689499 120.673456 
L 546.302131 132.06493 
L 546.914762 155.701013 
L 548.140026 120.943128 
L 548.752658 147.762903 
L 549.365289 117.669688 
L 549.977921 115.913863 
L 550.590553 132.837217 
L 551.203184 123.002906 
L 551.815816 137.224354 
L 552.428448 145.161784 
L 553.04108 128.707702 
L 553.653711 136.673155 
L 554.266343 142.95528 
L 554.878975 125.268302 
L 555.491607 120.42628 
L 556.104238 120.452926 
L 556.71687 140.425811 
L 557.329502 118.074309 
L 557.942134 142.967207 
L 558.554765 151.177008 
L 559.167397 127.214789 
L 559.780029 127.039145 
L 560.392661 136.710017 
L 561.005292 130.326541 
L 561.617924 133.175389 
L 562.230556 124.978118 
L 562.843188 119.72067 
L 563.455819 128.609767 
L 564.068451 129.393206 
L 564.681083 107.44119 
L 565.293714 101.391395 
L 565.906346 110.318803 
L 566.518978 134.336117 
L 567.13161 131.715015 
L 567.744241 114.200124 
L 568.356873 141.914125 
L 568.969505 104.71816 
L 569.582137 115.349444 
L 570.194768 123.275878 
L 571.420032 83.841778 
L 572.032664 113.547897 
L 572.645295 126.74101 
L 573.257927 106.681924 
L 573.870559 148.869735 
L 574.483191 124.266801 
L 575.095822 127.356255 
L 575.708454 150.892611 
L 576.321086 125.677945 
L 576.933717 149.286661 
L 577.546349 130.207992 
L 578.158981 140.065985 
L 578.771613 143.381063 
L 579.384244 137.416128 
L 579.996876 152.750116 
L 580.609508 125.971654 
L 581.22214 135.629469 
L 581.834771 131.75934 
L 582.447403 131.276049 
L 583.060035 135.057557 
L 583.672667 111.584524 
L 584.285298 132.757235 
L 584.89793 117.989587 
L 585.510562 150.984353 
L 586.123194 148.837158 
L 586.735825 130.920695 
L 587.348457 129.396143 
L 587.961089 134.632317 
L 588.573721 147.144018 
L 589.186352 153.456677 
L 589.798984 122.485303 
L 590.411616 160.304095 
L 591.024247 129.168295 
L 591.636879 134.573416 
L 592.249511 129.198788 
L 592.862143 139.561304 
L 593.474774 82.803145 
L 594.087406 131.030042 
L 594.700038 119.248343 
L 595.31267 118.041326 
L 595.925301 132.019102 
L 596.537933 116.569617 
L 597.150565 117.488251 
L 597.763197 113.29676 
L 598.375828 132.3027 
L 598.98846 130.242559 
L 599.601092 98.114556 
L 600.213724 97.71111 
L 600.826355 89.363916 
L 601.438987 93.848305 
L 602.051619 113.002559 
L 602.664251 91.284161 
L 603.276882 103.998929 
L 603.889514 85.474798 
L 604.502146 71.790875 
L 605.114777 79.796057 
L 605.727409 97.494528 
L 606.340041 103.829171 
L 606.952673 100.00021 
L 607.565304 104.616615 
L 608.177936 99.746075 
L 608.790568 86.882679 
L 609.4032 97.728942 
L 610.015831 95.052996 
L 610.628463 73.257575 
L 611.241095 88.246789 
L 611.853727 84.440403 
L 612.466358 79.596477 
L 613.07899 82.055079 
L 613.691622 60.737035 
L 614.304254 89.540783 
L 614.916885 75.097035 
L 615.529517 103.16481 
L 616.142149 98.019092 
L 616.75478 103.255689 
L 617.980044 79.805065 
L 618.592676 74.17398 
L 619.205307 86.88173 
L 619.817939 84.672219 
L 620.430571 88.189441 
L 621.043203 109.705664 
L 621.655834 33.6 
L 622.268466 73.791418 
L 622.881098 91.723361 
L 623.49373 76.986271 
L 624.106361 72.815431 
L 624.718993 89.097325 
L 625.331625 76.690548 
L 625.944257 98.387805 
L 626.556888 84.059349 
L 627.16952 81.326664 
L 627.782152 83.858172 
L 628.394784 74.567743 
L 629.007415 86.573619 
L 629.620047 89.863367 
L 630.232679 67.074783 
L 630.84531 74.275093 
L 631.457942 96.857201 
L 632.070574 86.724429 
L 632.683206 84.162834 
L 633.295837 86.55945 
L 633.908469 75.575312 
L 634.521101 94.146463 
L 635.133733 102.317455 
L 635.746364 101.183908 
L 636.358996 115.979953 
L 636.971628 101.142469 
L 637.58426 72.554063 
L 638.196891 118.934983 
L 638.809523 124.109889 
L 639.422155 75.809996 
L 640.034787 87.024247 
L 640.647418 82.252705 
L 641.26005 92.25557 
L 641.872682 128.393508 
L 642.485314 67.166171 
L 643.097945 97.281637 
L 644.323209 126.076217 
L 644.93584 124.606154 
L 645.548472 126.038241 
L 646.161104 132.917792 
L 646.773736 110.130914 
L 647.998999 136.87495 
L 648.611631 155.781321 
L 649.224263 124.956458 
L 649.836894 139.015796 
L 650.449526 119.259684 
L 651.062158 125.936297 
L 651.67479 111.381882 
L 652.287421 118.167828 
L 652.900053 134.418028 
L 653.512685 126.61705 
L 654.125317 136.144953 
L 654.737948 115.021027 
L 655.35058 129.933497 
L 655.963212 121.818398 
L 656.575844 139.585752 
L 657.188475 143.791049 
L 657.801107 138.252041 
L 658.413739 127.827594 
L 659.02637 142.330625 
L 659.639002 135.778866 
L 660.251634 120.544505 
L 660.864266 150.269172 
L 661.476897 101.938437 
L 662.089529 146.833546 
L 662.702161 113.601801 
L 663.314793 111.564569 
L 664.540056 168 
L 665.152688 139.052232 
L 666.377951 108.236833 
L 666.990583 137.877659 
L 667.603215 124.797849 
L 668.215847 126.90433 
L 668.828478 110.443962 
L 669.44111 133.331758 
L 670.053742 141.724072 
L 670.666373 115.436092 
L 671.279005 118.046841 
L 671.891637 130.816994 
L 672.504269 136.808067 
L 673.1169 122.701905 
L 673.729532 116.815241 
L 674.342164 117.176711 
L 674.954796 104.568653 
L 675.567427 77.433818 
L 676.180059 117.256552 
L 676.792691 128.629861 
L 677.405323 118.968236 
L 678.017954 128.683064 
L 678.630586 103.235321 
L 679.243218 99.037114 
L 679.85585 111.490245 
L 680.468481 117.745525 
L 681.081113 109.369466 
L 681.693745 98.096216 
L 682.306377 98.07287 
L 682.919008 114.707056 
L 683.53164 92.026129 
L 684.144272 121.447473 
L 684.756903 93.632554 
L 685.369535 99.270783 
L 685.982167 106.414472 
L 686.594799 103.727922 
L 687.20743 108.413871 
L 687.820062 80.350618 
L 688.432694 84.380307 
L 689.045326 90.96954 
L 689.657957 73.202075 
L 690.270589 104.317061 
L 690.883221 70.564081 
L 691.495853 96.077712 
L 692.108484 80.988598 
L 692.721116 53.345947 
L 693.333748 85.238715 
L 693.94638 99.109291 
L 694.559011 95.045798 
L 695.171643 117.050754 
L 695.784275 73.031383 
L 696.396907 87.284003 
L 697.009538 58.79195 
L 697.62217 82.707946 
L 698.234802 94.074719 
L 698.847433 78.922527 
L 699.460065 82.826892 
L 700.072697 70.666762 
L 700.685329 90.815588 
L 701.29796 82.381478 
L 701.910592 60.399516 
L 702.523224 60.655063 
L 703.135856 68.893551 
L 703.748487 87.222154 
L 704.361119 68.474836 
L 704.973751 65.388933 
L 705.586383 63.760633 
L 706.199014 93.106957 
L 706.811646 97.575437 
L 707.424278 63.013927 
L 708.03691 69.867248 
L 708.649541 79.527074 
L 709.262173 60.670604 
L 709.874805 60.887887 
L 710.487437 95.565349 
L 711.100068 85.612704 
L 711.7127 92.726794 
L 712.325332 79.052652 
L 712.937963 83.457839 
L 713.550595 83.997378 
L 714.163227 60.993243 
L 714.775859 82.114214 
L 715.38849 58.151877 
L 716.001122 69.981797 
L 716.613754 105.185908 
L 717.226386 89.462429 
L 717.839017 84.508371 
L 718.451649 89.013476 
L 719.064281 109.479711 
L 719.676913 86.190888 
L 720.289544 92.650574 
L 720.902176 87.506045 
L 721.514808 114.03913 
L 722.12744 101.877561 
L 722.740071 117.024877 
L 723.352703 94.399225 
L 723.965335 105.136968 
L 724.577966 110.089778 
L 725.190598 110.155304 
L 725.80323 78.41185 
L 726.415862 106.696383 
L 727.028493 98.368244 
L 727.641125 104.007258 
L 728.253757 98.586787 
L 728.866389 145.265562 
L 729.47902 129.226768 
L 730.091652 106.062691 
L 730.704284 112.417336 
L 731.316916 124.397848 
L 731.929547 88.521655 
L 732.542179 132.424574 
L 733.154811 119.579417 
L 733.767443 125.660829 
L 734.380074 114.494596 
L 734.992706 108.30815 
L 735.605338 133.132496 
L 736.21797 119.542023 
L 736.830601 96.725377 
L 737.443233 137.356162 
L 738.055865 139.193074 
L 738.668496 122.01591 
L 739.281128 148.028042 
L 739.89376 109.855905 
L 740.506392 134.218671 
L 741.119023 116.175494 
L 741.731655 133.12816 
L 742.344287 116.702974 
L 742.956919 141.086171 
L 743.56955 128.641862 
L 744.182182 138.136013 
L 744.794814 115.913993 
L 745.407446 142.975389 
L 746.020077 146.435217 
L 746.632709 156.156984 
L 747.245341 147.548963 
L 748.470604 96.11072 
L 749.083236 120.666852 
L 749.695868 118.309556 
L 750.3085 143.550363 
L 750.921131 132.590974 
L 751.533763 154.805202 
L 752.759026 113.213915 
L 753.98429 130.869361 
L 754.596922 136.820385 
L 755.209553 140.302524 
L 755.822185 108.304944 
L 756.434817 118.046516 
L 757.047449 143.91512 
L 757.66008 147.313904 
L 758.272712 112.042999 
L 758.885344 145.06177 
L 759.497976 108.663223 
L 760.110607 99.08956 
L 760.723239 142.093467 
L 761.335871 97.493168 
L 762.561134 119.2534 
L 763.173766 97.374344 
L 763.786398 113.023272 
L 765.011661 83.349078 
L 765.624293 100.903951 
L 766.236925 97.038546 
L 766.849556 108.566841 
L 767.462188 112.520717 
L 768.07482 101.684703 
L 768.687452 98.969314 
L 769.300083 85.619158 
L 769.912715 89.501641 
L 770.525347 57.230107 
L 771.137979 105.718803 
L 771.75061 119.573152 
L 772.363242 84.126125 
L 772.975874 106.399305 
L 773.588506 70.452335 
L 774.201137 78.94287 
L 774.813769 83.782328 
L 775.426401 92.062228 
L 776.039033 75.354661 
L 776.651664 66.198677 
L 777.264296 70.823649 
L 777.876928 77.214216 
L 778.489559 72.296682 
L 779.102191 82.73853 
L 779.714823 69.802503 
L 780.327455 60.292938 
L 780.940086 91.889507 
L 781.552718 73.636456 
L 782.16535 77.913979 
L 782.777982 84.463316 
L 783.390613 61.121122 
L 784.003245 101.965722 
L 784.615877 74.087617 
L 785.228509 60.454972 
L 785.84114 55.602379 
L 786.453772 74.355638 
L 787.066404 64.839206 
L 787.679036 78.612286 
L 788.291667 106.969082 
L 788.904299 68.049722 
L 789.516931 46.753325 
L 790.129563 66.608191 
L 790.742194 45.953324 
L 791.354826 62.060531 
L 791.967458 56.56345 
L 792.580089 78.080037 
L 793.192721 81.120684 
L 793.805353 89.069002 
L 794.417985 94.470177 
L 795.030616 80.603559 
L 795.643248 74.042598 
L 796.25588 91.885723 
L 797.481143 67.257957 
L 798.093775 67.168215 
L 798.706407 93.776597 
L 799.319039 102.702643 
L 799.93167 101.474644 
L 800.544302 87.756635 
L 801.156934 103.193731 
L 801.769566 111.711324 
L 802.382197 61.46362 
L 802.994829 100.444244 
L 803.607461 82.553529 
L 804.220093 107.193651 
L 804.832724 75.78631 
L 805.445356 89.163908 
L 806.057988 76.827075 
L 806.670619 108.210089 
L 807.283251 131.796843 
L 807.895883 92.871574 
L 808.508515 117.594857 
L 809.121146 111.268984 
L 809.733778 100.268205 
L 810.34641 125.41384 
L 810.959042 95.2003 
L 811.571673 87.912372 
L 812.184305 124.084019 
L 812.796937 118.972944 
L 813.409569 128.058665 
L 814.0222 106.975502 
L 814.634832 111.875489 
L 815.247464 110.41933 
L 815.860096 106.204757 
L 816.472727 133.008075 
L 816.472727 133.008075 
" clip-path="url(#p5ee210f5e3)" style="fill: none; stroke: #ffa500; stroke-width: 1.5; stroke-linecap: square"/>
   </g>
   <g id="patch_3">
    <path d="M 45.2 174.72 
L 45.2 26.88 
" style="fill: none; stroke: #000000; stroke-width: 0.8; stroke-linejoin: miter; stroke-linecap: square"/>
   </g>
   <g id="patch_4">
    <path d="M 853.2 174.72 
L 853.2 26.88 
" style="fill: none; stroke: #000000; stroke-width: 0.8; stroke-linejoin: miter; stroke-linecap: square"/>
   </g>
   <g id="patch_5">
    <path d="M 45.2 174.72 
L 853.2 174.72 
" style="fill: none; stroke: #000000; stroke-width: 0.8; stroke-linejoin: miter; stroke-linecap: square"/>
   </g>
   <g id="patch_6">
    <path d="M 45.2 26.88 
L 853.2 26.88 
" style="fill: none; stroke: #000000; stroke-width: 0.8; stroke-linejoin: miter; stroke-linecap: square"/>
   </g>
   <g id="text_7">
    <!-- 液压压力 -->
    <g transform="translate(425.2 20.88)scale(0.12 -0.12)">
     <defs>
      <path id="MicrosoftYaHei-6db2" d="M 2750 1841 
Q 3575 2941 3875 4016 
L 4331 3916 
Q 4231 3584 4100 3266 
L 5881 3266 
L 5881 2847 
Q 5563 1328 4825 466 
Q 5381 -34 6294 -359 
Q 6213 -459 5975 -816 
Q 5069 -416 4494 122 
Q 3913 -416 3044 -878 
Q 2888 -653 2719 -459 
Q 3588 -22 4156 497 
Q 3694 1072 3413 1972 
Q 3213 1672 2981 1372 
Q 2869 1634 2750 1841 
z
M 1381 1747 
Q 2244 2853 2631 4041 
L 3081 3934 
Q 2875 3359 2625 2841 
L 2625 -859 
L 2175 -859 
L 2175 2041 
Q 1900 1609 1588 1234 
Q 1481 1559 1381 1747 
z
M 1850 4522 
L 3931 4522 
Q 3738 4891 3594 5141 
L 4038 5334 
Q 4188 5084 4419 4653 
L 4119 4522 
L 6238 4522 
L 6238 4103 
L 1850 4103 
L 1850 4522 
z
M 3719 2472 
Q 4019 1428 4481 828 
Q 5150 1603 5375 2853 
L 3913 2853 
Q 3819 2666 3719 2472 
z
M 288 -634 
Q 656 491 931 1784 
Q 1138 1691 1406 1591 
Q 1119 453 806 -803 
L 288 -634 
z
M 81 3222 
L 400 3578 
Q 981 3184 1481 2772 
Q 1250 2516 1113 2372 
Q 544 2878 81 3222 
z
M 325 4853 
L 650 5184 
Q 1063 4872 1725 4303 
Q 1513 4097 1350 3934 
Q 706 4541 325 4853 
z
M 4056 2409 
L 4438 2591 
Q 4638 2253 4863 1822 
L 4475 1622 
Q 4300 1984 4056 2409 
z
" transform="scale(0.015625)"/>
     </defs>
     <use xlink:href="#MicrosoftYaHei-6db2"/>
     <use xlink:href="#MicrosoftYaHei-538b" x="100"/>
     <use xlink:href="#MicrosoftYaHei-538b" x="200"/>
     <use xlink:href="#MicrosoftYaHei-529b" x="300"/>
    </g>
   </g>
  </g>
  <g id="axes_2">
   <g id="patch_7">
    <path d="M 45.2 352.94 
L 853.2 352.94 
L 853.2 205.1 
L 45.2 205.1 
z
" style="fill: #ffffff"/>
   </g>
   <g id="matplotlib.axis_3">
    <g id="xtick_8">
     <g id="line2d_14">
      <g>
       <use xlink:href="#m2ebb182a30" x="81.927273" y="352.94" style="stroke: #000000; stroke-width: 0.8"/>
      </g>
     </g>
    </g>
    <g id="xtick_9">
     <g id="line2d_15">
      <g>
       <use xlink:href="#m2ebb182a30" x="204.351515" y="352.94" style="stroke: #000000; stroke-width: 0.8"/>
      </g>
     </g>
    </g>
    <g id="xtick_10">
     <g id="line2d_16">
      <g>
       <use xlink:href="#m2ebb182a30" x="326.775758" y="352.94" style="stroke: #000000; stroke-width: 0.8"/>
      </g>
     </g>
    </g>
    <g id="xtick_11">
     <g id="line2d_17">
      <g>
       <use xlink:href="#m2ebb182a30" x="449.2" y="352.94" style="stroke: #000000; stroke-width: 0.8"/>
      </g>
     </g>
    </g>
    <g id="xtick_12">
     <g id="line2d_18">
      <g>
       <use xlink:href="#m2ebb182a30" x="571.624242" y="352.94" style="stroke: #000000; stroke-width: 0.8"/>
      </g>
     </g>
    </g>
    <g id="xtick_13">
     <g id="line2d_19">
      <g>
       <use xlink:href="#m2ebb182a30" x="694.048485" y="352.94" style="stroke: #000000; stroke-width: 0.8"/>
      </g>
     </g>
    </g>
    <g id="xtick_14">
     <g id="line2d_20">
      <g>
       <use xlink:href="#m2ebb182a30" x="816.472727" y="352.94" style="stroke: #000000; stroke-width: 0.8"/>
      </g>
     </g>
    </g>
   </g>
   <g id="matplotlib.axis_4">
    <g id="ytick_6">
     <g id="line2d_21">
      <g>
       <use xlink:href="#m541587a112" x="45.2" y="325.691939" style="stroke: #000000; stroke-width: 0.8"/>
      </g>
     </g>
     <g id="text_8">
      <!-- 0 -->
      <g transform="translate(32.335938 329.688814)scale(0.1 -0.1)">
       <use xlink:href="#MicrosoftYaHei-30"/>
      </g>
     </g>
    </g>
    <g id="ytick_7">
     <g id="line2d_22">
      <g>
       <use xlink:href="#m541587a112" x="45.2" y="287.979051" style="stroke: #000000; stroke-width: 0.8"/>
      </g>
     </g>
     <g id="text_9">
      <!-- 1 -->
      <g transform="translate(32.335938 291.975926)scale(0.1 -0.1)">
       <use xlink:href="#MicrosoftYaHei-31"/>
      </g>
     </g>
    </g>
    <g id="ytick_8">
     <g id="line2d_23">
      <g>
       <use xlink:href="#m541587a112" x="45.2" y="250.266163" style="stroke: #000000; stroke-width: 0.8"/>
      </g>
     </g>
     <g id="text_10">
      <!-- 2 -->
      <g transform="translate(32.335938 254.263038)scale(0.1 -0.1)">
       <use xlink:href="#MicrosoftYaHei-32"/>
      </g>
     </g>
    </g>
    <g id="ytick_9">
     <g id="line2d_24">
      <g>
       <use xlink:href="#m541587a112" x="45.2" y="212.553275" style="stroke: #000000; stroke-width: 0.8"/>
      </g>
     </g>
     <g id="text_11">
      <!-- 3 -->
      <g transform="translate(32.335938 216.55015)scale(0.1 -0.1)">
       <defs>
        <path id="MicrosoftYaHei-33" d="M 447 809 
Q 944 425 1569 425 
Q 2069 425 2361 670 
Q 2653 916 2653 1328 
Q 2653 2247 1338 2247 
L 934 2247 
L 934 2753 
L 1319 2753 
Q 2484 2753 2484 3616 
Q 2484 4413 1594 4413 
Q 1084 4413 634 4069 
L 634 4647 
Q 1109 4922 1744 4922 
Q 2363 4922 2738 4598 
Q 3113 4275 3113 3759 
Q 3113 2809 2144 2538 
L 2144 2525 
Q 2669 2469 2973 2155 
Q 3278 1841 3278 1372 
Q 3278 719 2808 319 
Q 2338 -81 1556 -81 
Q 869 -81 447 175 
L 447 809 
z
" transform="scale(0.015625)"/>
       </defs>
       <use xlink:href="#MicrosoftYaHei-33"/>
      </g>
     </g>
    </g>
    <g id="text_12">
     <!-- 加速度 (g) -->
     <g transform="translate(25.792187 302.03875)rotate(-90)scale(0.1 -0.1)">
      <defs>
       <path id="MicrosoftYaHei-52a0" d="M 3663 4484 
L 6038 4484 
L 6038 -666 
L 5544 -666 
L 5544 -34 
L 4156 -34 
L 4156 -666 
L 3663 -666 
L 3663 4484 
z
M 231 4178 
L 1103 4178 
Q 1109 4681 1106 5297 
L 1600 5297 
Q 1600 4675 1594 4178 
L 3050 4178 
Q 3019 1778 2969 409 
Q 2944 -716 2119 -672 
Q 1875 -672 1400 -653 
Q 1356 -391 1300 -109 
Q 1738 -166 2013 -166 
Q 2431 -178 2469 428 
Q 2538 1909 2550 3703 
L 1588 3703 
Q 1581 3225 1569 2891 
Q 1544 447 394 -872 
Q 238 -678 25 -453 
Q 1063 684 1081 2941 
Q 1094 3269 1100 3703 
L 231 3703 
L 231 4178 
z
M 5544 4022 
L 4156 4022 
L 4156 416 
L 5544 416 
L 5544 4022 
z
" transform="scale(0.015625)"/>
       <path id="MicrosoftYaHei-901f" d="M 2231 3572 
L 3800 3572 
L 3800 4178 
L 1938 4178 
L 1938 4609 
L 3800 4609 
L 3800 5291 
L 4263 5291 
L 4263 4609 
L 6225 4609 
L 6225 4178 
L 4263 4178 
L 4263 3572 
L 5831 3572 
L 5831 1778 
L 5381 1778 
L 5381 1972 
L 4263 1972 
L 4263 1522 
L 4425 1772 
Q 5350 1266 6206 766 
L 5919 322 
Q 5044 916 4263 1347 
L 4263 -9 
L 3800 -9 
L 3800 1603 
Q 3044 766 2069 184 
Q 1963 347 1731 591 
Q 2869 1153 3644 1972 
L 2681 1972 
L 2681 1778 
L 2231 1778 
L 2231 3572 
z
M 2663 -222 
Q 4219 -247 6300 -197 
Q 6231 -403 6125 -691 
Q 4056 -703 2569 -666 
Q 1506 -653 1081 66 
Q 825 -172 331 -772 
L 75 -253 
Q 625 278 875 509 
L 875 2616 
L 131 2616 
L 131 3078 
L 1356 3078 
L 1356 403 
Q 1738 -216 2663 -222 
z
M 5381 3166 
L 4263 3166 
L 4263 2378 
L 5381 2378 
L 5381 3166 
z
M 2681 2378 
L 3800 2378 
L 3800 3166 
L 2681 3166 
L 2681 2378 
z
M 800 5178 
Q 1119 4791 1675 3997 
L 1231 3684 
Q 725 4478 400 4909 
L 800 5178 
z
" transform="scale(0.015625)"/>
       <path id="MicrosoftYaHei-5ea6" d="M 1550 1216 
L 1550 1628 
L 5469 1628 
L 5469 1222 
Q 4903 613 4147 163 
Q 5050 -200 6263 -309 
L 6019 -797 
Q 4625 -603 3644 -109 
Q 2600 -619 1250 -866 
Q 1150 -666 994 -416 
Q 2231 -222 3166 166 
Q 2497 600 2066 1216 
L 1550 1216 
z
M 1363 3541 
L 2294 3541 
L 2294 4066 
L 2769 4066 
L 2769 3541 
L 4538 3541 
L 4538 4072 
L 5013 4072 
L 5013 3541 
L 6150 3541 
L 6150 3128 
L 5013 3128 
L 5013 1928 
L 4538 1928 
L 4538 2147 
L 2769 2147 
L 2769 1922 
L 2294 1922 
L 2294 3128 
L 1363 3128 
L 1363 3541 
z
M 3025 5172 
L 3481 5391 
Q 3694 5056 3909 4634 
L 6213 4634 
L 6213 4197 
L 1225 4197 
L 1225 2316 
Q 1225 178 394 -872 
Q 238 -666 38 -447 
Q 725 397 738 2347 
L 738 4634 
L 3331 4634 
Q 3188 4909 3025 5172 
z
M 2769 2547 
L 4538 2547 
L 4538 3128 
L 2769 3128 
L 2769 2547 
z
M 4819 1216 
L 2588 1216 
Q 3031 728 3656 391 
Q 4334 741 4819 1216 
z
" transform="scale(0.015625)"/>
       <path id="MicrosoftYaHei-67" d="M 3547 291 
Q 3547 -1628 1684 -1628 
Q 1041 -1628 566 -1388 
L 566 -797 
Q 1144 -1119 1675 -1119 
Q 2934 -1119 2934 206 
L 2934 572 
L 2922 572 
Q 2528 -81 1747 -81 
Q 1097 -81 706 384 
Q 316 850 316 1619 
Q 316 2503 747 3020 
Q 1178 3538 1897 3538 
Q 2588 3538 2922 2988 
L 2934 2988 
L 2934 3456 
L 3547 3456 
L 3547 291 
z
M 2934 2056 
Q 2938 2456 2666 2743 
Q 2394 3031 1997 3031 
Q 1497 3031 1219 2664 
Q 941 2297 941 1656 
Q 941 1106 1209 765 
Q 1478 425 1922 425 
Q 2369 425 2653 750 
Q 2938 1075 2934 1575 
L 2934 2056 
z
" transform="scale(0.015625)"/>
      </defs>
      <use xlink:href="#MicrosoftYaHei-52a0"/>
      <use xlink:href="#MicrosoftYaHei-901f" x="100"/>
      <use xlink:href="#MicrosoftYaHei-5ea6" x="200"/>
      <use xlink:href="#MicrosoftYaHei-20" x="300"/>
      <use xlink:href="#MicrosoftYaHei-28" x="329.589844"/>
      <use xlink:href="#MicrosoftYaHei-67" x="362.988281"/>
      <use xlink:href="#MicrosoftYaHei-29" x="426.953125"/>
     </g>
    </g>
   </g>
   <g id="line2d_25">
    <path d="M 81.927273 320.722703 
L 82.539404 325.159867 
L 83.151536 323.281351 
L 83.763667 329.367055 
L 84.375798 312.823099 
L 84.98793 320.27913 
L 85.600061 322.401426 
L 86.212193 317.323786 
L 86.824324 320.079361 
L 87.436455 315.442314 
L 88.048587 313.907227 
L 88.660718 328.902889 
L 89.27285 334.866969 
L 89.884981 312.989647 
L 90.497113 332.048686 
L 91.109244 330.676469 
L 91.721375 328.893514 
L 92.333507 319.125407 
L 92.945638 329.743176 
L 93.55777 333.937046 
L 94.782032 325.414851 
L 95.394164 316.113816 
L 96.006295 332.901188 
L 96.618427 311.717642 
L 97.230558 338.460432 
L 97.842689 318.009964 
L 98.454821 334.041585 
L 99.066952 332.915571 
L 99.679084 335.921019 
L 100.291215 330.724907 
L 100.903347 331.257007 
L 101.515478 328.076351 
L 102.127609 317.04103 
L 102.739741 317.907643 
L 103.351872 330.688574 
L 103.964004 326.503661 
L 104.576135 315.812199 
L 105.188266 333.018518 
L 105.800398 322.311004 
L 106.412529 316.502992 
L 107.024661 329.061873 
L 107.636792 328.552076 
L 108.248924 317.117479 
L 108.861055 321.953425 
L 109.473186 316.136651 
L 110.085318 338.07932 
L 110.697449 331.768782 
L 111.309581 323.268135 
L 111.921712 326.950406 
L 112.533843 325.648125 
L 113.145975 325.079961 
L 114.370238 306.949416 
L 114.982369 320.055389 
L 115.594501 325.973689 
L 116.206632 328.846877 
L 116.818763 330.943985 
L 117.430895 319.483026 
L 118.043026 339.122201 
L 118.655158 307.650867 
L 119.267289 322.764859 
L 119.87942 332.750513 
L 120.491552 321.806481 
L 121.103683 323.633976 
L 121.715815 321.978032 
L 122.327946 331.483044 
L 122.940077 328.366549 
L 123.552209 326.397315 
L 124.16434 328.968047 
L 124.776472 328.212296 
L 125.388603 318.166214 
L 126.000735 319.269006 
L 126.612866 323.360972 
L 127.224997 322.834969 
L 127.837129 334.929009 
L 128.44926 328.635268 
L 129.061392 324.063218 
L 129.673523 320.669374 
L 130.285654 322.886302 
L 130.897786 309.757009 
L 131.509917 326.369678 
L 132.122049 339.936126 
L 132.73418 330.747644 
L 133.346312 333.980054 
L 133.958443 330.492599 
L 134.570574 328.195077 
L 135.182706 332.327749 
L 135.794837 324.303689 
L 136.406969 320.402766 
L 137.631231 319.346522 
L 138.243363 326.05237 
L 138.855494 329.384421 
L 139.467626 329.842585 
L 140.079757 320.127857 
L 140.691889 317.04594 
L 141.30402 336.888688 
L 141.916151 319.777301 
L 142.528283 320.377673 
L 143.140414 324.816784 
L 143.752546 339.303293 
L 144.364677 324.936939 
L 144.976808 321.85486 
L 145.58894 317.320159 
L 146.201071 309.369504 
L 146.813203 329.259715 
L 147.425334 323.044219 
L 148.037465 340.690869 
L 149.261728 325.32787 
L 149.87386 321.429678 
L 150.485991 320.203719 
L 151.098123 330.971177 
L 151.710254 338.030043 
L 152.322385 319.50349 
L 152.934517 311.529111 
L 154.15878 330.811067 
L 154.770911 333.810808 
L 155.383042 323.251049 
L 155.995174 332.272534 
L 156.607305 332.518742 
L 157.219437 331.95266 
L 157.831568 331.798598 
L 158.4437 333.856036 
L 159.055831 333.777043 
L 159.667962 318.526665 
L 160.280094 322.83813 
L 160.892225 336.299212 
L 161.504357 342.240755 
L 162.116488 346.113507 
L 162.728619 331.222899 
L 163.340751 320.913708 
L 163.952882 342.332045 
L 164.565014 317.326444 
L 165.177145 336.391246 
L 165.789276 319.888007 
L 166.401408 317.048783 
L 167.013539 323.038112 
L 167.625671 327.372381 
L 168.237802 326.924233 
L 168.849934 323.691718 
L 169.462065 325.13003 
L 170.074196 329.608202 
L 170.686328 333.123352 
L 171.298459 333.590773 
L 171.910591 333.134034 
L 172.522722 315.70192 
L 173.134853 334.11486 
L 173.746985 332.60042 
L 174.971248 320.244497 
L 175.583379 321.219549 
L 176.195511 336.232096 
L 176.807642 320.377714 
L 178.031905 301.003562 
L 178.644036 322.027145 
L 179.256168 320.985724 
L 179.868299 313.592458 
L 180.48043 340.342653 
L 181.092562 327.96364 
L 181.704693 329.918266 
L 182.316825 313.746411 
L 182.928956 325.320119 
L 183.541088 323.299674 
L 184.153219 330.342215 
L 184.76535 322.122365 
L 185.377482 319.10778 
L 185.989613 312.18227 
L 186.601745 333.814441 
L 187.213876 329.617263 
L 187.826007 320.086247 
L 188.438139 320.679805 
L 189.05027 329.1907 
L 189.662402 326.002996 
L 190.274533 309.658304 
L 190.886664 316.064403 
L 191.498796 303.118275 
L 192.110927 326.040692 
L 192.723059 324.380488 
L 193.33519 320.934338 
L 193.947322 332.010823 
L 194.559453 320.655347 
L 195.171584 324.671807 
L 195.783716 322.108448 
L 196.395847 322.910033 
L 197.007979 322.770455 
L 197.62011 325.107293 
L 198.844373 339.159939 
L 199.456504 313.900167 
L 200.068636 319.082157 
L 200.680767 335.711283 
L 201.292899 327.229195 
L 201.90503 334.598394 
L 202.517161 326.692738 
L 203.129293 325.328763 
L 203.741424 329.68965 
L 204.353556 321.99638 
L 204.965687 327.439232 
L 205.577818 335.014001 
L 206.18995 326.255764 
L 206.802081 324.904966 
L 207.414213 323.244318 
L 208.026344 315.279369 
L 208.638475 323.564005 
L 209.250607 319.932112 
L 209.862738 312.86609 
L 210.47487 321.820442 
L 211.087001 339.939765 
L 211.699133 331.940597 
L 212.311264 321.76267 
L 212.923395 314.084052 
L 213.535527 322.815516 
L 214.147658 326.305482 
L 214.75979 317.657134 
L 215.371921 332.715994 
L 215.984052 326.448852 
L 216.596184 316.96443 
L 217.208315 340.253384 
L 217.820447 338.777935 
L 218.432578 336.042867 
L 219.04471 330.240977 
L 219.656841 319.152096 
L 220.268972 330.008018 
L 220.881104 327.647498 
L 221.493235 320.811686 
L 222.105367 333.581169 
L 222.717498 326.330921 
L 223.329629 316.726896 
L 223.941761 327.048599 
L 224.553892 311.385941 
L 225.166024 308.616668 
L 225.778155 327.518398 
L 226.390287 329.208602 
L 227.002418 326.530184 
L 227.614549 328.455553 
L 228.226681 313.888355 
L 228.838812 324.28106 
L 229.450944 319.715827 
L 230.063075 327.165919 
L 230.675206 336.237243 
L 231.287338 328.963843 
L 231.899469 329.527148 
L 232.511601 326.933936 
L 233.123732 317.618786 
L 233.735863 314.010528 
L 234.347995 332.272683 
L 234.960126 311.555382 
L 235.572258 329.110694 
L 236.184389 315.138523 
L 236.796521 324.278873 
L 237.408652 318.839546 
L 238.020783 327.328133 
L 238.632915 330.127563 
L 239.245046 326.419858 
L 239.857178 325.741241 
L 240.469309 318.889942 
L 241.08144 331.840791 
L 241.693572 332.000806 
L 242.305703 318.779135 
L 242.917835 324.489936 
L 243.529966 314.350083 
L 244.142098 310.513645 
L 244.754229 328.147165 
L 245.36636 315.044388 
L 245.978492 333.637618 
L 246.590623 338.946687 
L 247.202755 321.941016 
L 247.814886 327.000736 
L 248.427017 315.576417 
L 249.039149 330.077355 
L 249.65128 321.362351 
L 250.263412 330.539155 
L 250.875543 325.296647 
L 251.487674 327.255458 
L 252.099806 319.735349 
L 252.711937 333.892632 
L 253.324069 322.504582 
L 253.9362 329.043371 
L 254.548332 329.828894 
L 255.160463 340.33252 
L 256.384726 325.844908 
L 256.996857 340.174237 
L 257.608989 320.99811 
L 258.22112 334.565998 
L 258.833251 329.318738 
L 259.445383 326.814234 
L 260.057514 333.270748 
L 260.669646 334.878284 
L 261.281777 320.212785 
L 261.893909 319.446887 
L 262.50604 320.853107 
L 263.118171 314.981433 
L 263.730303 328.037537 
L 264.342434 326.549494 
L 264.954566 320.467521 
L 265.566697 337.604037 
L 266.178828 328.122812 
L 266.79096 339.274444 
L 267.403091 316.357091 
L 268.015223 324.974125 
L 268.627354 326.020249 
L 269.239486 323.393625 
L 269.851617 327.316048 
L 270.463748 317.820569 
L 271.07588 321.998034 
L 271.688011 318.159014 
L 272.300143 319.17708 
L 272.912274 326.670219 
L 273.524405 318.120963 
L 274.136537 325.424382 
L 274.748668 338.297534 
L 275.3608 327.536718 
L 275.972931 324.153481 
L 276.585062 329.116877 
L 277.197194 314.946616 
L 277.809325 331.368744 
L 278.421457 322.168707 
L 279.033588 320.135351 
L 279.64572 327.718866 
L 280.257851 318.050122 
L 280.869982 321.955387 
L 281.482114 329.9255 
L 282.094245 325.787433 
L 282.706377 331.630027 
L 283.318508 327.51623 
L 284.542771 331.321361 
L 285.154902 316.381797 
L 285.767034 322.236956 
L 286.379165 326.3725 
L 286.991297 316.149022 
L 287.603428 332.981638 
L 288.215559 317.565796 
L 288.827691 335.532706 
L 289.439822 318.108923 
L 290.051954 328.672034 
L 290.664085 333.654914 
L 291.276216 316.054483 
L 291.888348 321.501343 
L 292.500479 328.45346 
L 293.112611 328.123446 
L 293.724742 335.01994 
L 294.336873 330.614656 
L 294.949005 319.501631 
L 295.561136 317.184849 
L 296.173268 331.923083 
L 296.785399 328.731105 
L 297.397531 335.16 
L 298.009662 317.843666 
L 298.621793 332.069058 
L 299.233925 319.386385 
L 299.846056 318.596528 
L 300.458188 310.389506 
L 301.070319 318.384024 
L 301.68245 318.571628 
L 302.294582 339.645617 
L 302.906713 328.945228 
L 303.518845 329.543522 
L 304.130976 329.392068 
L 304.743108 323.633724 
L 305.355239 345.25098 
L 305.96737 337.439969 
L 306.579502 316.708848 
L 307.191633 330.063902 
L 307.803765 320.448312 
L 308.415896 326.018868 
L 309.028027 333.657235 
L 309.640159 314.785095 
L 310.25229 325.63468 
L 310.864422 329.294351 
L 311.476553 340.18341 
L 312.088685 318.164024 
L 312.700816 324.188751 
L 313.312947 323.969824 
L 313.925079 324.294785 
L 314.53721 318.47942 
L 315.149342 329.332785 
L 315.761473 334.611619 
L 316.373604 328.326261 
L 316.985736 333.193947 
L 317.597867 324.777841 
L 318.209999 318.440106 
L 318.82213 326.546372 
L 319.434261 332.544921 
L 320.046393 323.274112 
L 320.658524 327.045492 
L 321.270656 322.152475 
L 321.882787 324.032303 
L 322.494919 320.911097 
L 323.10705 326.601771 
L 323.719181 317.088143 
L 324.331313 327.344735 
L 324.943444 329.677159 
L 325.555576 337.479977 
L 326.167707 322.558042 
L 326.779838 345.790971 
L 327.39197 327.487408 
L 328.004101 330.140585 
L 328.616233 345.003045 
L 329.228364 326.369283 
L 329.840496 330.092533 
L 330.452627 321.295094 
L 331.064758 335.874449 
L 331.67689 328.063799 
L 332.289021 333.044357 
L 332.901153 336.921579 
L 333.513284 330.427257 
L 334.125415 330.099778 
L 334.737547 337.449614 
L 335.349678 323.768635 
L 335.96181 322.813862 
L 336.573941 334.048081 
L 337.186072 314.529414 
L 337.798204 323.704642 
L 338.410335 324.774557 
L 339.022467 325.595628 
L 340.24673 321.5788 
L 340.858861 334.928083 
L 341.470992 326.885765 
L 342.083124 323.092592 
L 342.695255 325.979781 
L 343.307387 326.865615 
L 343.919518 325.971647 
L 344.531649 324.52407 
L 345.143781 312.985499 
L 345.755912 337.77123 
L 346.368044 314.537145 
L 346.980175 315.288769 
L 348.204438 333.501926 
L 348.816569 327.386954 
L 349.428701 308.77426 
L 350.040832 331.25424 
L 350.652964 321.4532 
L 351.265095 323.547555 
L 351.877226 328.325732 
L 352.489358 336.490881 
L 353.101489 322.850128 
L 353.713621 327.713004 
L 354.325752 331.012228 
L 354.937884 316.082497 
L 356.162146 335.679973 
L 356.774278 319.801313 
L 357.386409 336.951063 
L 357.998541 324.649235 
L 359.222803 314.333179 
L 359.834935 332.562564 
L 360.447066 316.456114 
L 361.671329 339.56857 
L 362.28346 339.729823 
L 362.895592 325.501363 
L 364.119855 320.980559 
L 364.731986 320.371693 
L 365.344118 337.293648 
L 365.956249 323.629415 
L 366.56838 335.533832 
L 367.180512 329.578146 
L 367.792643 318.938327 
L 369.016906 330.836035 
L 369.629037 332.32513 
L 370.241169 330.386617 
L 370.8533 332.443234 
L 371.465432 331.842992 
L 372.077563 315.267948 
L 372.689695 314.352189 
L 373.301826 321.744363 
L 373.913957 321.945472 
L 374.526089 314.373424 
L 375.13822 317.631623 
L 375.750352 325.416026 
L 376.362483 319.072456 
L 376.974614 333.466685 
L 377.586746 335.666073 
L 378.198877 325.994429 
L 378.811009 323.767628 
L 379.42314 335.455538 
L 380.035271 332.579426 
L 381.259534 324.442581 
L 381.871666 315.803484 
L 382.483797 327.462469 
L 383.095929 334.234995 
L 383.70806 329.840479 
L 384.320191 321.16053 
L 384.932323 323.773923 
L 385.544454 323.001487 
L 386.156586 334.803124 
L 386.768717 308.103657 
L 387.380848 325.852713 
L 387.99298 333.09105 
L 388.605111 325.854147 
L 389.217243 336.080721 
L 389.829374 331.816677 
L 390.441506 334.011236 
L 391.665768 330.178323 
L 392.2779 328.062241 
L 392.890031 332.741827 
L 393.502163 319.994025 
L 394.114294 340.113893 
L 394.726425 325.348489 
L 395.338557 333.072808 
L 395.950688 333.577993 
L 396.56282 334.918998 
L 397.174951 337.397224 
L 397.787083 329.147989 
L 398.399214 312.390606 
L 400.235608 332.981078 
L 400.84774 328.55642 
L 401.459871 327.283599 
L 402.072002 325.641977 
L 402.684134 327.942278 
L 403.296265 322.649764 
L 403.908397 325.465529 
L 404.520528 336.482497 
L 405.132659 328.336793 
L 405.744791 314.108706 
L 406.356922 312.437077 
L 406.969054 326.234287 
L 407.581185 332.007552 
L 408.193317 314.60856 
L 408.805448 322.252542 
L 409.417579 339.526656 
L 410.029711 317.541615 
L 410.641842 333.884022 
L 411.253974 321.302546 
L 411.866105 317.848635 
L 412.478236 312.798239 
L 413.090368 330.623192 
L 413.702499 312.94794 
L 414.314631 324.468224 
L 414.926762 329.568756 
L 415.538894 323.828155 
L 416.151025 328.420033 
L 416.763156 335.345997 
L 417.375288 327.266642 
L 417.987419 328.701993 
L 418.599551 322.774069 
L 419.211682 328.32451 
L 419.823813 309.572491 
L 420.435945 342.072963 
L 421.048076 331.885594 
L 421.660208 336.392331 
L 422.272339 322.753896 
L 422.88447 330.091611 
L 423.496602 329.25446 
L 424.108733 317.083455 
L 424.720865 320.834663 
L 425.332996 329.45356 
L 425.945128 329.04399 
L 426.557259 328.291191 
L 427.781522 314.584753 
L 428.393653 320.202186 
L 429.005785 329.602753 
L 429.617916 321.124338 
L 430.230047 324.504456 
L 430.842179 312.868536 
L 431.45431 318.057288 
L 432.066442 320.704276 
L 432.678573 335.534101 
L 433.290705 324.329229 
L 433.902836 319.017047 
L 434.514967 337.193211 
L 435.127099 328.038091 
L 435.73923 300.518646 
L 436.351362 330.009533 
L 436.963493 326.50837 
L 437.575624 328.326038 
L 438.187756 318.846191 
L 438.799887 325.216465 
L 439.412019 333.258187 
L 440.02415 333.058349 
L 440.636282 316.048223 
L 441.248413 338.131058 
L 441.860544 323.532535 
L 442.472676 329.000778 
L 443.084807 313.262584 
L 443.696939 312.143348 
L 444.30907 322.19962 
L 444.921201 314.838419 
L 445.533333 325.545019 
L 446.145464 328.708709 
L 446.757596 332.700807 
L 447.369727 323.435598 
L 447.981858 321.323072 
L 448.59399 325.385846 
L 449.206121 319.376531 
L 449.818253 322.879306 
L 450.430384 334.287861 
L 451.042516 322.711106 
L 451.654647 324.056005 
L 452.266778 313.165594 
L 452.87891 321.730663 
L 453.491041 317.173012 
L 454.103173 317.261225 
L 454.715304 328.22085 
L 455.327435 308.132074 
L 455.939567 309.472229 
L 456.551698 311.888231 
L 457.16383 320.551677 
L 457.775961 321.767783 
L 458.388093 327.753522 
L 459.000224 337.565949 
L 459.612355 327.44568 
L 460.224487 314.224878 
L 460.836618 321.435808 
L 461.44875 341.383119 
L 462.060881 339.826152 
L 462.673012 323.410524 
L 463.285144 313.143255 
L 463.897275 328.123693 
L 464.509407 318.782312 
L 465.121538 329.925444 
L 465.73367 329.04958 
L 466.345801 327.791152 
L 466.957932 315.382204 
L 467.570064 324.328292 
L 468.182195 336.12754 
L 468.794327 316.099871 
L 469.406458 317.509662 
L 470.018589 333.132738 
L 470.630721 320.706973 
L 471.242852 320.070706 
L 471.854984 322.238074 
L 473.079246 305.5929 
L 473.691378 326.022703 
L 474.303509 327.483984 
L 474.915641 323.694848 
L 475.527772 331.082865 
L 476.752035 328.819606 
L 477.976298 312.993323 
L 478.588429 326.884955 
L 479.200561 313.931289 
L 479.812692 314.899388 
L 480.424823 333.416893 
L 481.036955 337.967596 
L 481.649086 323.525523 
L 482.261218 321.972411 
L 482.873349 332.653673 
L 483.485481 327.438429 
L 484.097612 319.570591 
L 484.709743 326.321817 
L 485.321875 325.547782 
L 485.934006 313.761231 
L 486.546138 320.563032 
L 487.158269 330.477678 
L 487.7704 329.162581 
L 488.382532 314.147684 
L 488.994663 333.104689 
L 489.606795 319.881646 
L 490.218926 318.805515 
L 490.831057 342.103608 
L 491.443189 329.813938 
L 492.05532 330.649298 
L 492.667452 323.533345 
L 493.279583 328.173473 
L 493.891715 324.250074 
L 494.503846 321.5664 
L 495.115977 329.363102 
L 495.728109 316.360415 
L 496.34024 313.210127 
L 496.952372 320.830709 
L 497.564503 313.29804 
L 498.176634 325.700181 
L 498.788766 331.17229 
L 499.400897 335.193161 
L 500.013029 324.569878 
L 500.62516 332.845896 
L 501.237292 314.584281 
L 501.849423 323.092794 
L 502.461554 319.622706 
L 503.073686 336.090318 
L 503.685817 316.82453 
L 504.297949 316.85326 
L 504.91008 317.658823 
L 506.134343 334.933536 
L 506.746474 331.117476 
L 507.358606 322.011728 
L 507.970737 320.791922 
L 508.582869 317.167885 
L 509.195 323.443664 
L 509.807131 319.773367 
L 510.419263 317.61652 
L 511.031394 306.118938 
L 511.643526 332.780601 
L 512.255657 318.393861 
L 512.867788 327.381812 
L 513.47992 328.040491 
L 514.092051 322.058275 
L 514.704183 322.327557 
L 515.316314 330.688814 
L 515.928445 323.673957 
L 516.540577 325.029667 
L 517.152708 316.692486 
L 517.76484 319.619909 
L 518.376971 321.696469 
L 518.989103 305.534615 
L 519.601234 330.495698 
L 520.213365 318.748877 
L 520.825497 311.70382 
L 522.04976 332.5087 
L 523.274022 316.516336 
L 524.498285 330.89358 
L 525.110417 317.628263 
L 525.722548 336.273892 
L 526.33468 333.297962 
L 526.946811 342.085026 
L 527.558942 339.873697 
L 528.171074 320.125513 
L 528.783205 315.403608 
L 529.395337 329.030374 
L 530.007468 330.891466 
L 530.619599 339.658394 
L 531.843862 317.867227 
L 532.455994 327.202365 
L 533.068125 341.779611 
L 534.292388 325.43106 
L 534.904519 334.292687 
L 535.516651 337.252485 
L 536.128782 335.367601 
L 536.740914 317.922741 
L 537.353045 332.081406 
L 537.965176 326.974484 
L 538.577308 326.936282 
L 539.189439 330.654475 
L 539.801571 326.224075 
L 540.413702 329.217759 
L 541.025833 314.909404 
L 541.637965 326.894942 
L 542.250096 328.986232 
L 542.862228 326.55922 
L 543.474359 326.534854 
L 544.698622 332.560572 
L 545.310753 326.380616 
L 545.922885 315.403249 
L 546.535016 332.489934 
L 547.147148 319.066037 
L 547.759279 315.250348 
L 548.37141 322.338941 
L 548.983542 326.557359 
L 549.595673 328.759988 
L 550.207805 329.501373 
L 550.819936 332.074343 
L 551.432068 335.509761 
L 552.044199 328.159679 
L 552.65633 322.883646 
L 553.268462 319.723528 
L 554.492725 337.119038 
L 555.104856 319.184944 
L 555.716987 332.278548 
L 556.329119 328.547789 
L 556.94125 327.674159 
L 557.553382 318.667199 
L 558.165513 330.229609 
L 558.777644 323.536298 
L 559.389776 328.987763 
L 560.001907 323.597208 
L 560.614039 332.255982 
L 561.22617 331.826246 
L 561.838302 311.368671 
L 562.450433 328.245371 
L 563.062564 337.068446 
L 563.674696 333.851616 
L 564.286827 328.544956 
L 564.898959 318.945802 
L 565.51109 314.308499 
L 566.123221 316.353369 
L 566.735353 324.847134 
L 567.347484 329.803083 
L 567.959616 321.548165 
L 568.571747 323.941096 
L 569.183879 324.818655 
L 569.79601 336.037443 
L 570.408141 332.426741 
L 571.020273 318.241789 
L 572.244536 324.361536 
L 572.856667 317.526944 
L 573.468798 327.627196 
L 574.08093 325.485532 
L 574.693061 337.285131 
L 575.305193 314.583506 
L 575.917324 331.990486 
L 576.529455 311.063636 
L 577.141587 336.048523 
L 577.753718 316.085859 
L 578.36585 320.094955 
L 578.977981 327.200761 
L 579.590113 331.391844 
L 580.202244 325.300899 
L 580.814375 332.642666 
L 581.426507 334.732336 
L 582.038638 317.746646 
L 583.875032 340.50159 
L 584.487164 321.15125 
L 585.099295 322.037247 
L 585.711427 336.357123 
L 586.323558 326.911624 
L 586.93569 333.882083 
L 587.547821 309.836335 
L 588.159952 336.047179 
L 588.772084 330.426174 
L 589.384215 315.672799 
L 589.996347 334.281019 
L 590.608478 319.602258 
L 591.220609 323.070838 
L 591.832741 313.965842 
L 592.444872 319.686634 
L 593.057004 336.496293 
L 593.669135 326.543543 
L 594.281267 327.875106 
L 594.893398 319.548406 
L 595.505529 328.5049 
L 596.117661 327.992335 
L 597.341924 319.143104 
L 597.954055 336.703024 
L 598.566186 311.813907 
L 599.178318 326.784049 
L 599.790449 324.976569 
L 600.402581 325.669409 
L 601.014712 328.777743 
L 601.626843 313.299709 
L 602.238975 316.83001 
L 602.851106 321.225527 
L 604.075369 338.470661 
L 604.687501 322.024653 
L 605.299632 336.003415 
L 605.911763 331.527745 
L 606.523895 323.562853 
L 607.136026 330.339653 
L 607.748158 323.88946 
L 608.360289 321.84488 
L 609.584552 328.0994 
L 610.196683 325.942998 
L 610.808815 322.340331 
L 611.420946 325.024127 
L 612.033078 329.500335 
L 612.645209 328.459923 
L 613.25734 322.567766 
L 613.869472 337.875209 
L 614.481603 328.08616 
L 615.093735 328.646651 
L 615.705866 309.376818 
L 616.317997 324.468855 
L 616.930129 310.531067 
L 617.54226 315.11986 
L 618.154392 325.891989 
L 618.766523 315.355885 
L 619.990786 332.618356 
L 620.602917 323.916886 
L 621.215049 324.079092 
L 621.82718 315.477384 
L 622.439312 336.330473 
L 623.051443 333.857682 
L 624.275706 316.08558 
L 624.887837 335.744208 
L 625.499969 327.34242 
L 626.1121 332.369521 
L 627.336363 317.510486 
L 627.948494 325.940803 
L 628.560626 324.724616 
L 629.172757 330.249784 
L 630.39702 312.226593 
L 631.009151 322.419986 
L 631.621283 317.151857 
L 632.233414 330.124165 
L 632.845546 224.432115 
L 633.457677 233.213012 
L 634.069808 239.481213 
L 634.68194 232.28579 
L 635.294071 242.057407 
L 635.906203 236.198711 
L 636.518334 231.524687 
L 637.130466 225.972114 
L 638.96686 238.187435 
L 639.578991 224.33339 
L 640.191123 238.480698 
L 640.803254 243.383778 
L 641.415385 241.628744 
L 642.027517 228.850473 
L 642.639648 220.23402 
L 643.25178 222.222553 
L 643.863911 238.765146 
L 644.476042 232.501743 
L 645.088174 242.051691 
L 645.700305 211.82 
L 646.312437 237.460974 
L 646.924568 236.398592 
L 648.148831 235.079801 
L 648.760962 228.350977 
L 649.373094 240.164496 
L 649.985225 220.425998 
L 650.597357 236.227003 
L 651.209488 224.50883 
L 651.821619 220.33104 
L 652.433751 229.822117 
L 653.045882 233.73173 
L 653.658014 225.970142 
L 654.270145 227.256767 
L 654.882277 246.217998 
L 656.106539 234.809014 
L 656.718671 226.442384 
L 657.330802 320.684586 
L 657.942934 315.560484 
L 658.555065 332.313007 
L 659.167196 331.923227 
L 659.779328 333.69035 
L 660.391459 337.75226 
L 661.003591 332.866807 
L 661.615722 326.775663 
L 662.227853 328.543307 
L 662.839985 319.114978 
L 663.452116 319.15634 
L 664.064248 330.288993 
L 664.676379 327.574903 
L 665.288511 329.170819 
L 665.900642 329.863656 
L 666.512773 326.553292 
L 667.124905 319.066073 
L 667.737036 317.249795 
L 668.349168 329.266563 
L 668.961299 317.97704 
L 669.57343 329.693186 
L 670.797693 319.503701 
L 671.409825 326.39475 
L 672.021956 322.166793 
L 672.634088 329.379629 
L 673.246219 333.968345 
L 673.85835 326.743283 
L 674.470482 311.610144 
L 675.082613 325.392907 
L 675.694745 328.767752 
L 676.306876 324.756588 
L 676.919007 328.927923 
L 677.531139 343.750313 
L 678.14327 315.186766 
L 678.755402 325.264906 
L 679.367533 327.293943 
L 679.979665 332.373599 
L 680.591796 321.805692 
L 681.203927 335.861432 
L 681.816059 323.995517 
L 682.42819 326.41786 
L 683.040322 334.384268 
L 683.652453 334.904663 
L 684.264584 328.101004 
L 684.876716 328.905831 
L 685.488847 323.668647 
L 686.100979 332.922453 
L 686.71311 315.904435 
L 687.325241 311.101404 
L 687.937373 325.926684 
L 688.549504 327.186126 
L 689.161636 309.487696 
L 689.773767 330.787423 
L 690.385899 324.619163 
L 690.99803 316.431028 
L 691.610161 329.845003 
L 692.222293 325.010736 
L 692.834424 327.936388 
L 693.446556 328.36228 
L 694.058687 314.589234 
L 694.670818 310.801319 
L 695.28295 313.362407 
L 695.895081 323.83076 
L 696.507213 318.01378 
L 697.119344 320.856864 
L 697.731476 341.004336 
L 698.343607 318.203055 
L 698.955738 324.980365 
L 699.56787 330.149246 
L 700.180001 311.471424 
L 700.792133 317.969965 
L 702.016395 325.392435 
L 702.628527 313.271615 
L 703.240658 329.256514 
L 703.85279 327.2515 
L 704.464921 318.891646 
L 705.077052 324.461945 
L 705.689184 328.871166 
L 706.301315 323.40949 
L 706.913447 322.695907 
L 707.525578 331.698384 
L 708.13771 332.191558 
L 708.749841 326.226409 
L 709.361972 326.567456 
L 709.974104 323.917704 
L 710.586235 324.624642 
L 711.198367 317.168737 
L 711.810498 333.633904 
L 712.422629 327.086222 
L 713.034761 315.415321 
L 713.646892 320.834131 
L 714.259024 319.046934 
L 714.871155 324.10025 
L 715.483287 335.089516 
L 716.095418 323.805625 
L 716.707549 317.696305 
L 717.319681 316.853081 
L 717.931812 325.113877 
L 718.543944 328.818375 
L 719.156075 329.566271 
L 719.768206 325.600868 
L 720.380338 333.88705 
L 720.992469 323.302779 
L 721.604601 316.572462 
L 722.216732 323.878397 
L 722.828864 333.166138 
L 723.440995 335.018684 
L 724.053126 332.647808 
L 724.665258 305.83756 
L 725.277389 315.404172 
L 725.889521 336.316387 
L 726.501652 320.575373 
L 727.113783 316.989204 
L 727.725915 334.257976 
L 728.338046 311.712483 
L 728.950178 327.212387 
L 729.562309 337.201341 
L 730.17444 325.719742 
L 730.786572 323.589897 
L 731.398703 327.182864 
L 732.010835 341.180543 
L 733.235098 334.743067 
L 733.847229 315.28162 
L 734.45936 309.175463 
L 735.071492 333.483047 
L 735.683623 324.062307 
L 736.295755 318.403069 
L 736.907886 340.225555 
L 737.520017 343.028242 
L 738.132149 329.067867 
L 738.74428 318.679937 
L 739.356412 331.24919 
L 739.968543 340.087585 
L 740.580675 324.302745 
L 741.192806 332.490986 
L 741.804937 303.093228 
L 742.417069 337.657319 
L 743.0292 324.165127 
L 743.641332 334.065551 
L 744.253463 310.144604 
L 744.865594 328.690909 
L 745.477726 312.459335 
L 746.089857 333.446244 
L 746.701989 340.691775 
L 747.31412 333.457671 
L 747.926251 320.65737 
L 748.538383 328.511916 
L 749.150514 321.747773 
L 749.762646 319.853413 
L 750.374777 324.069456 
L 750.986909 329.431375 
L 751.59904 312.323198 
L 752.211171 323.295273 
L 752.823303 324.25268 
L 753.435434 340.650308 
L 754.047566 323.538792 
L 754.659697 330.390846 
L 755.271828 320.678875 
L 755.88396 320.736542 
L 756.496091 326.269642 
L 757.108223 332.991786 
L 757.720354 326.358293 
L 758.332486 330.183348 
L 758.944617 322.920107 
L 759.556748 329.910599 
L 760.16888 326.585285 
L 760.781011 329.03141 
L 761.393143 325.696103 
L 762.005274 331.398962 
L 762.617405 320.572706 
L 763.229537 326.26062 
L 763.841668 320.001863 
L 764.4538 325.726036 
L 765.065931 317.890964 
L 765.678063 325.440423 
L 766.290194 317.657413 
L 766.902325 328.216284 
L 767.514457 317.217021 
L 768.126588 328.977869 
L 768.73872 319.910723 
L 769.350851 319.670512 
L 769.962982 322.507145 
L 770.575114 323.471441 
L 771.187245 329.689937 
L 771.799377 322.369942 
L 772.411508 329.192121 
L 773.023639 324.053125 
L 773.635771 326.025145 
L 774.247902 325.801233 
L 774.860034 331.977766 
L 775.472165 332.883574 
L 776.084297 322.336715 
L 776.696428 317.274545 
L 777.308559 322.215878 
L 778.532822 313.595444 
L 779.144954 320.289476 
L 779.757085 325.364642 
L 780.369216 328.123557 
L 780.981348 319.650594 
L 781.593479 330.356446 
L 782.205611 327.665916 
L 782.817742 333.922576 
L 783.429874 319.529177 
L 784.042005 315.929848 
L 784.654136 322.544483 
L 785.266268 331.124122 
L 785.878399 329.598734 
L 786.490531 317.227637 
L 787.102662 324.028891 
L 787.714793 319.494286 
L 788.326925 320.964845 
L 788.939056 325.858344 
L 789.551188 318.331391 
L 790.163319 324.55011 
L 790.77545 323.93226 
L 791.387582 332.452348 
L 791.999713 329.562229 
L 792.611845 329.061539 
L 793.223976 320.706279 
L 793.836108 315.101666 
L 794.448239 316.261743 
L 795.06037 318.631758 
L 795.672502 327.918562 
L 796.896765 314.155135 
L 797.508896 328.540993 
L 798.121027 319.323324 
L 798.733159 328.330229 
L 799.34529 322.141473 
L 799.957422 333.786448 
L 800.569553 325.658378 
L 801.181685 339.577527 
L 801.793816 324.303604 
L 802.405947 323.228987 
L 803.018079 341.602281 
L 803.63021 334.881844 
L 804.242342 313.903749 
L 804.854473 346.22 
L 805.466604 326.835266 
L 806.078736 333.940593 
L 806.690867 320.786021 
L 807.302999 332.38316 
L 807.91513 319.990266 
L 808.527262 336.17482 
L 809.139393 338.219569 
L 809.751524 336.350898 
L 810.363656 332.821492 
L 810.975787 323.919615 
L 811.587919 319.539643 
L 812.20005 333.148037 
L 812.812181 331.098019 
L 813.424313 321.684608 
L 814.036444 328.308065 
L 814.648576 327.9501 
L 815.260707 316.235665 
L 815.872838 327.68884 
L 815.872838 327.68884 
" clip-path="url(#p4bdc7783f9)" style="fill: none; stroke: #800080; stroke-width: 1.5; stroke-linecap: square"/>
   </g>
   <g id="patch_8">
    <path d="M 45.2 352.94 
L 45.2 205.1 
" style="fill: none; stroke: #000000; stroke-width: 0.8; stroke-linejoin: miter; stroke-linecap: square"/>
   </g>
   <g id="patch_9">
    <path d="M 853.2 352.94 
L 853.2 205.1 
" style="fill: none; stroke: #000000; stroke-width: 0.8; stroke-linejoin: miter; stroke-linecap: square"/>
   </g>
   <g id="patch_10">
    <path d="M 45.2 352.94 
L 853.2 352.94 
" style="fill: none; stroke: #000000; stroke-width: 0.8; stroke-linejoin: miter; stroke-linecap: square"/>
   </g>
   <g id="patch_11">
    <path d="M 45.2 205.1 
L 853.2 205.1 
" style="fill: none; stroke: #000000; stroke-width: 0.8; stroke-linejoin: miter; stroke-linecap: square"/>
   </g>
   <g id="text_13">
    <!-- 三维振动 -->
    <g transform="translate(425.2 199.1)scale(0.12 -0.12)">
     <defs>
      <path id="MicrosoftYaHei-4e09" d="M 575 4691 
L 5813 4691 
L 5813 4153 
L 575 4153 
L 575 4691 
z
M 188 166 
L 6225 166 
L 6225 -359 
L 188 -359 
L 188 166 
z
M 856 2547 
L 5531 2547 
L 5531 2016 
L 856 2016 
L 856 2547 
z
" transform="scale(0.015625)"/>
      <path id="MicrosoftYaHei-7ef4" d="M 1900 2791 
Q 2713 3909 3256 5334 
L 3738 5178 
Q 3488 4634 3247 4166 
L 6175 4166 
L 6175 3741 
L 4806 3741 
L 4806 2797 
L 6125 2797 
L 6125 2372 
L 4806 2372 
L 4806 1428 
L 6125 1428 
L 6125 1003 
L 4806 1003 
L 4806 34 
L 6250 34 
L 6250 -391 
L 3075 -391 
L 3075 -816 
L 2600 -816 
L 2600 2981 
Q 2400 2650 2213 2378 
Q 2094 2572 1900 2791 
z
M 794 1616 
Q 1388 1684 2100 1766 
Q 2069 1459 2050 1316 
Q 906 1184 275 1072 
L 181 1534 
Q 534 1863 1097 2872 
Q 550 2834 200 2803 
L 81 3197 
Q 681 4153 1138 5347 
L 1625 5172 
Q 1100 4053 613 3234 
Q 834 3234 1297 3244 
Q 1516 3656 1763 4159 
L 2213 3959 
Q 1338 2403 794 1616 
z
M 3075 34 
L 4331 34 
L 4331 1003 
L 3075 1003 
L 3075 34 
z
M 3075 1428 
L 4331 1428 
L 4331 2372 
L 3075 2372 
L 3075 1428 
z
M 3075 2797 
L 4331 2797 
L 4331 3741 
L 3075 3741 
L 3075 2797 
z
M 119 72 
Q 1113 247 2288 503 
Q 2269 247 2269 22 
Q 1025 -241 238 -397 
L 119 72 
z
M 4119 5078 
L 4506 5322 
Q 4869 4866 5100 4472 
L 4688 4209 
Q 4463 4609 4119 5078 
z
" transform="scale(0.015625)"/>
      <path id="MicrosoftYaHei-632f" d="M 5813 1934 
L 6138 1572 
Q 5619 1197 5038 816 
Q 5531 59 6331 -284 
Q 6213 -428 5981 -728 
Q 4481 103 4044 2128 
L 3606 2128 
L 3606 -97 
Q 4000 84 4519 353 
Q 4538 141 4594 -103 
Q 4094 -347 3744 -528 
Q 3463 -678 3263 -834 
L 2950 -422 
Q 3169 -197 3156 128 
L 3156 2128 
L 2725 2128 
Q 2669 259 1913 -822 
Q 1738 -616 1544 -459 
Q 2256 547 2256 2497 
L 2256 4909 
L 6113 4909 
L 6113 4484 
L 2731 4484 
L 2731 2553 
L 6175 2553 
L 6175 2128 
L 4488 2128 
Q 4619 1603 4831 1178 
Q 5350 1559 5813 1934 
z
M 88 1972 
Q 469 2084 875 2216 
L 875 3672 
L 144 3672 
L 144 4097 
L 875 4097 
L 875 5259 
L 1350 5259 
L 1350 4097 
L 2013 4097 
L 2013 3672 
L 1350 3672 
L 1350 2378 
Q 1663 2497 2000 2622 
Q 2000 2322 2013 2134 
Q 1688 2016 1350 1897 
L 1350 -109 
Q 1350 -766 794 -784 
Q 513 -797 156 -791 
Q 119 -528 75 -272 
Q 419 -309 638 -309 
Q 875 -309 875 -72 
L 875 1722 
Q 519 1591 156 1453 
L 88 1972 
z
M 3088 3716 
L 5881 3716 
L 5881 3291 
L 3088 3291 
L 3088 3716 
z
" transform="scale(0.015625)"/>
      <path id="MicrosoftYaHei-52a8" d="M 2975 4022 
L 3906 4022 
Q 3916 4650 3913 5309 
L 4425 5309 
Q 4422 4656 4409 4022 
L 6094 4022 
Q 6050 1659 5969 216 
Q 5900 -666 5150 -678 
Q 4763 -678 4306 -659 
Q 4263 -397 4206 -109 
Q 4638 -166 4994 -172 
Q 5456 -172 5475 347 
Q 5569 1897 5588 3547 
L 4400 3547 
Q 4394 3278 4388 3016 
Q 4356 553 2900 -872 
Q 2725 -659 2525 -447 
Q 3831 716 3888 3028 
Q 3894 3284 3900 3547 
L 2975 3547 
L 2975 4022 
z
M 2338 1866 
Q 2731 1016 3063 178 
Q 2788 59 2594 -28 
Q 2550 91 2506 209 
Q 1316 97 338 -16 
L 119 491 
Q 394 647 563 997 
Q 869 1613 1200 2559 
L 144 2559 
L 144 3022 
L 3163 3022 
L 3163 2559 
L 1725 2559 
Q 1191 1228 800 491 
Q 1519 544 2347 631 
Q 2138 1163 1906 1672 
L 2338 1866 
z
M 406 4778 
L 2913 4778 
L 2913 4316 
L 406 4316 
L 406 4778 
z
" transform="scale(0.015625)"/>
     </defs>
     <use xlink:href="#MicrosoftYaHei-4e09"/>
     <use xlink:href="#MicrosoftYaHei-7ef4" x="100"/>
     <use xlink:href="#MicrosoftYaHei-632f" x="200"/>
     <use xlink:href="#MicrosoftYaHei-52a8" x="300"/>
    </g>
   </g>
  </g>
  <g id="axes_3">
   <g id="patch_12">
    <path d="M 45.2 531.16 
L 853.2 531.16 
L 853.2 383.32 
L 45.2 383.32 
z
" style="fill: #ffffff"/>
   </g>
   <g id="matplotlib.axis_5">
    <g id="xtick_15">
     <g id="line2d_26">
      <g>
       <use xlink:href="#m2ebb182a30" x="81.927273" y="531.16" style="stroke: #000000; stroke-width: 0.8"/>
      </g>
     </g>
     <g id="text_14">
      <!-- 0 -->
      <g transform="translate(78.995241 546.15375)scale(0.1 -0.1)">
       <use xlink:href="#MicrosoftYaHei-30"/>
      </g>
     </g>
    </g>
    <g id="xtick_16">
     <g id="line2d_27">
      <g>
       <use xlink:href="#m2ebb182a30" x="204.351515" y="531.16" style="stroke: #000000; stroke-width: 0.8"/>
      </g>
     </g>
     <g id="text_15">
      <!-- 10 -->
      <g transform="translate(198.487453 546.15375)scale(0.1 -0.1)">
       <use xlink:href="#MicrosoftYaHei-31"/>
       <use xlink:href="#MicrosoftYaHei-30" x="58.642578"/>
      </g>
     </g>
    </g>
    <g id="xtick_17">
     <g id="line2d_28">
      <g>
       <use xlink:href="#m2ebb182a30" x="326.775758" y="531.16" style="stroke: #000000; stroke-width: 0.8"/>
      </g>
     </g>
     <g id="text_16">
      <!-- 20 -->
      <g transform="translate(320.911695 546.15375)scale(0.1 -0.1)">
       <use xlink:href="#MicrosoftYaHei-32"/>
       <use xlink:href="#MicrosoftYaHei-30" x="58.642578"/>
      </g>
     </g>
    </g>
    <g id="xtick_18">
     <g id="line2d_29">
      <g>
       <use xlink:href="#m2ebb182a30" x="449.2" y="531.16" style="stroke: #000000; stroke-width: 0.8"/>
      </g>
     </g>
     <g id="text_17">
      <!-- 30 -->
      <g transform="translate(443.335938 546.15375)scale(0.1 -0.1)">
       <use xlink:href="#MicrosoftYaHei-33"/>
       <use xlink:href="#MicrosoftYaHei-30" x="58.642578"/>
      </g>
     </g>
    </g>
    <g id="xtick_19">
     <g id="line2d_30">
      <g>
       <use xlink:href="#m2ebb182a30" x="571.624242" y="531.16" style="stroke: #000000; stroke-width: 0.8"/>
      </g>
     </g>
     <g id="text_18">
      <!-- 40 -->
      <g transform="translate(565.76018 546.15375)scale(0.1 -0.1)">
       <defs>
        <path id="MicrosoftYaHei-34" d="M 2906 4841 
L 2906 1644 
L 3631 1644 
L 3631 1138 
L 2906 1138 
L 2906 0 
L 2313 0 
L 2313 1138 
L 53 1138 
L 53 1616 
Q 656 2294 1265 3178 
Q 1875 4063 2272 4841 
L 2906 4841 
z
M 741 1644 
L 2313 1644 
L 2313 3950 
Q 1988 3366 1616 2817 
Q 1244 2269 741 1644 
z
" transform="scale(0.015625)"/>
       </defs>
       <use xlink:href="#MicrosoftYaHei-34"/>
       <use xlink:href="#MicrosoftYaHei-30" x="58.642578"/>
      </g>
     </g>
    </g>
    <g id="xtick_20">
     <g id="line2d_31">
      <g>
       <use xlink:href="#m2ebb182a30" x="694.048485" y="531.16" style="stroke: #000000; stroke-width: 0.8"/>
      </g>
     </g>
     <g id="text_19">
      <!-- 50 -->
      <g transform="translate(688.184422 546.15375)scale(0.1 -0.1)">
       <defs>
        <path id="MicrosoftYaHei-35" d="M 3294 1494 
Q 3294 784 2823 350 
Q 2353 -84 1559 -84 
Q 878 -84 544 119 
L 544 744 
Q 1034 425 1544 425 
Q 2050 425 2361 704 
Q 2672 984 2672 1447 
Q 2672 1909 2348 2167 
Q 2025 2425 1434 2425 
Q 978 2425 613 2384 
L 791 4841 
L 3053 4841 
L 3053 4303 
L 1306 4303 
L 1206 2931 
L 1647 2950 
Q 2416 2950 2855 2567 
Q 3294 2184 3294 1494 
z
" transform="scale(0.015625)"/>
       </defs>
       <use xlink:href="#MicrosoftYaHei-35"/>
       <use xlink:href="#MicrosoftYaHei-30" x="58.642578"/>
      </g>
     </g>
    </g>
    <g id="xtick_21">
     <g id="line2d_32">
      <g>
       <use xlink:href="#m2ebb182a30" x="816.472727" y="531.16" style="stroke: #000000; stroke-width: 0.8"/>
      </g>
     </g>
     <g id="text_20">
      <!-- 60 -->
      <g transform="translate(810.608665 546.15375)scale(0.1 -0.1)">
       <defs>
        <path id="MicrosoftYaHei-36" d="M 3181 4219 
Q 2803 4413 2391 4413 
Q 1763 4413 1381 3866 
Q 1000 3319 994 2372 
L 1009 2372 
Q 1353 3038 2106 3038 
Q 2734 3038 3109 2628 
Q 3484 2219 3484 1541 
Q 3484 831 3051 375 
Q 2619 -81 1947 -81 
Q 1209 -81 789 495 
Q 369 1072 369 2131 
Q 369 3413 920 4167 
Q 1472 4922 2372 4922 
Q 2888 4922 3181 4781 
L 3181 4219 
z
M 1031 1584 
Q 1031 1106 1286 765 
Q 1541 425 1963 425 
Q 2363 425 2613 719 
Q 2863 1013 2863 1475 
Q 2863 1975 2627 2253 
Q 2391 2531 1956 2531 
Q 1544 2531 1287 2250 
Q 1031 1969 1031 1584 
z
" transform="scale(0.015625)"/>
       </defs>
       <use xlink:href="#MicrosoftYaHei-36"/>
       <use xlink:href="#MicrosoftYaHei-30" x="58.642578"/>
      </g>
     </g>
    </g>
    <g id="text_21">
     <!-- 时间 (秒) -->
     <g transform="translate(429.379687 560.633438)scale(0.1 -0.1)">
      <defs>
       <path id="MicrosoftYaHei-65f6" d="M 344 4728 
L 2500 4728 
L 2500 -366 
L 2006 -366 
L 2006 153 
L 838 153 
L 838 -441 
L 344 -441 
L 344 4728 
z
M 2706 3941 
L 4925 3941 
L 4925 5322 
L 5425 5322 
L 5425 3941 
L 6313 3941 
L 6313 3478 
L 5425 3478 
L 5425 116 
Q 5425 -722 4625 -722 
Q 4263 -722 3563 -703 
Q 3531 -478 3463 -178 
Q 4119 -228 4488 -228 
Q 4925 -228 4925 216 
L 4925 3478 
L 2706 3478 
L 2706 3941 
z
M 838 616 
L 2006 616 
L 2006 2234 
L 838 2234 
L 838 616 
z
M 2006 4266 
L 838 4266 
L 838 2684 
L 2006 2684 
L 2006 4266 
z
M 3406 2878 
Q 3906 1966 4163 1422 
Q 4000 1347 3663 1172 
Q 3419 1766 2963 2653 
L 3406 2878 
z
" transform="scale(0.015625)"/>
       <path id="MicrosoftYaHei-95f4" d="M 1863 3647 
L 4513 3647 
L 4513 553 
L 2313 553 
L 2313 166 
L 1863 166 
L 1863 3647 
z
M 2388 4453 
L 2388 4922 
L 6013 4922 
L 6013 -28 
Q 6013 -816 5119 -816 
Q 4756 -816 4169 -803 
Q 4144 -616 4069 -297 
Q 4588 -334 5056 -334 
Q 5525 -334 5525 122 
L 5525 4453 
L 2388 4453 
z
M 419 4084 
L 906 4084 
L 906 -816 
L 419 -816 
L 419 4084 
z
M 2313 997 
L 4063 997 
L 4063 1884 
L 2313 1884 
L 2313 997 
z
M 4063 3203 
L 2313 3203 
L 2313 2328 
L 4063 2328 
L 4063 3203 
z
M 744 5003 
L 1100 5322 
Q 1575 4872 1981 4447 
L 1575 4091 
Q 1194 4541 744 5003 
z
" transform="scale(0.015625)"/>
       <path id="MicrosoftYaHei-79d2" d="M 44 903 
Q 616 1744 978 3059 
L 113 3059 
L 113 3484 
L 1100 3484 
L 1100 4456 
Q 703 4400 281 4353 
Q 231 4566 150 4784 
Q 1244 4878 2344 5128 
L 2481 4691 
Q 2041 4603 1563 4525 
L 1563 3484 
L 2438 3484 
L 2438 3059 
L 1563 3059 
L 1563 2178 
L 1844 2422 
Q 2094 2166 2575 1603 
L 2200 1297 
Q 1809 1794 1563 2088 
L 1563 -822 
L 1100 -822 
L 1100 2175 
Q 766 1059 256 359 
Q 156 628 44 903 
z
M 1944 -316 
Q 4481 253 5594 2284 
L 6025 2003 
Q 4756 -141 2206 -766 
Q 2088 -534 1944 -316 
z
M 4025 5278 
L 4513 5278 
L 4513 1328 
L 4025 1328 
L 4025 5278 
z
M 3075 4266 
L 3544 4141 
Q 3275 3078 2906 1997 
Q 2681 2097 2425 2172 
Q 2850 3247 3075 4266 
z
M 4950 4141 
L 5375 4341 
Q 5856 3566 6281 2722 
L 5831 2484 
Q 5444 3328 4950 4141 
z
" transform="scale(0.015625)"/>
      </defs>
      <use xlink:href="#MicrosoftYaHei-65f6"/>
      <use xlink:href="#MicrosoftYaHei-95f4" x="100"/>
      <use xlink:href="#MicrosoftYaHei-20" x="200"/>
      <use xlink:href="#MicrosoftYaHei-28" x="229.589844"/>
      <use xlink:href="#MicrosoftYaHei-79d2" x="262.988281"/>
      <use xlink:href="#MicrosoftYaHei-29" x="362.988281"/>
     </g>
    </g>
   </g>
   <g id="matplotlib.axis_6">
    <g id="ytick_10">
     <g id="line2d_33">
      <g>
       <use xlink:href="#m541587a112" x="45.2" y="524.44" style="stroke: #000000; stroke-width: 0.8"/>
      </g>
     </g>
     <g id="text_22">
      <!-- 30 -->
      <g transform="translate(26.471875 528.436875)scale(0.1 -0.1)">
       <use xlink:href="#MicrosoftYaHei-33"/>
       <use xlink:href="#MicrosoftYaHei-30" x="58.642578"/>
      </g>
     </g>
    </g>
    <g id="ytick_11">
     <g id="line2d_34">
      <g>
       <use xlink:href="#m541587a112" x="45.2" y="498.297879" style="stroke: #000000; stroke-width: 0.8"/>
      </g>
     </g>
     <g id="text_23">
      <!-- 32 -->
      <g transform="translate(26.471875 502.294754)scale(0.1 -0.1)">
       <use xlink:href="#MicrosoftYaHei-33"/>
       <use xlink:href="#MicrosoftYaHei-32" x="58.642578"/>
      </g>
     </g>
    </g>
    <g id="ytick_12">
     <g id="line2d_35">
      <g>
       <use xlink:href="#m541587a112" x="45.2" y="472.155758" style="stroke: #000000; stroke-width: 0.8"/>
      </g>
     </g>
     <g id="text_24">
      <!-- 34 -->
      <g transform="translate(26.471875 476.152633)scale(0.1 -0.1)">
       <use xlink:href="#MicrosoftYaHei-33"/>
       <use xlink:href="#MicrosoftYaHei-34" x="58.642578"/>
      </g>
     </g>
    </g>
    <g id="ytick_13">
     <g id="line2d_36">
      <g>
       <use xlink:href="#m541587a112" x="45.2" y="446.013638" style="stroke: #000000; stroke-width: 0.8"/>
      </g>
     </g>
     <g id="text_25">
      <!-- 36 -->
      <g transform="translate(26.471875 450.010513)scale(0.1 -0.1)">
       <use xlink:href="#MicrosoftYaHei-33"/>
       <use xlink:href="#MicrosoftYaHei-36" x="58.642578"/>
      </g>
     </g>
    </g>
    <g id="ytick_14">
     <g id="line2d_37">
      <g>
       <use xlink:href="#m541587a112" x="45.2" y="419.871517" style="stroke: #000000; stroke-width: 0.8"/>
      </g>
     </g>
     <g id="text_26">
      <!-- 38 -->
      <g transform="translate(26.471875 423.868392)scale(0.1 -0.1)">
       <use xlink:href="#MicrosoftYaHei-33"/>
       <use xlink:href="#MicrosoftYaHei-38" x="58.642578"/>
      </g>
     </g>
    </g>
    <g id="ytick_15">
     <g id="line2d_38">
      <g>
       <use xlink:href="#m541587a112" x="45.2" y="393.729396" style="stroke: #000000; stroke-width: 0.8"/>
      </g>
     </g>
     <g id="text_27">
      <!-- 40 -->
      <g transform="translate(26.471875 397.726271)scale(0.1 -0.1)">
       <use xlink:href="#MicrosoftYaHei-34"/>
       <use xlink:href="#MicrosoftYaHei-30" x="58.642578"/>
      </g>
     </g>
    </g>
    <g id="text_28">
     <!-- 温度 (°C) -->
     <g transform="translate(19.985938 477.443125)rotate(-90)scale(0.1 -0.1)">
      <defs>
       <path id="MicrosoftYaHei-6e29" d="M 1331 -109 
L 1944 -109 
L 1944 1928 
L 5850 1928 
L 5850 -109 
L 6313 -109 
L 6313 -559 
L 1331 -559 
L 1331 -109 
z
M 2181 5003 
L 5606 5003 
L 5606 2278 
L 5144 2278 
L 5144 2553 
L 2644 2553 
L 2644 2272 
L 2181 2272 
L 2181 5003 
z
M 2644 2978 
L 5144 2978 
L 5144 3572 
L 2644 3572 
L 2644 2978 
z
M 5144 4578 
L 2644 4578 
L 2644 3984 
L 5144 3984 
L 5144 4578 
z
M 875 1809 
Q 1131 1709 1388 1622 
Q 1125 534 813 -791 
L 263 -628 
Q 613 484 875 1809 
z
M 5375 1491 
L 4694 1491 
L 4694 -109 
L 5375 -109 
L 5375 1491 
z
M 3556 -109 
L 4231 -109 
L 4231 1491 
L 3556 1491 
L 3556 -109 
z
M 2419 -109 
L 3094 -109 
L 3094 1491 
L 2419 1491 
L 2419 -109 
z
M 400 3622 
Q 869 3291 1500 2772 
Q 1269 2509 1138 2366 
Q 431 2997 88 3259 
L 400 3622 
z
M 638 5241 
Q 1113 4866 1713 4328 
Q 1500 4109 1344 3941 
Q 669 4597 319 4897 
L 638 5241 
z
" transform="scale(0.015625)"/>
       <path id="MicrosoftYaHei-b0" d="M 1306 4894 
Q 1691 4894 1967 4620 
Q 2244 4347 2244 3959 
Q 2244 3569 1967 3295 
Q 1691 3022 1306 3022 
Q 922 3022 645 3295 
Q 369 3569 369 3959 
Q 369 4347 645 4620 
Q 922 4894 1306 4894 
z
M 1306 3438 
Q 1522 3438 1675 3592 
Q 1828 3747 1828 3959 
Q 1828 4175 1673 4326 
Q 1519 4478 1306 4478 
Q 1094 4478 941 4326 
Q 788 4175 788 3959 
Q 788 3747 939 3592 
Q 1091 3438 1306 3438 
z
" transform="scale(0.015625)"/>
       <path id="MicrosoftYaHei-43" d="M 3938 200 
Q 3403 -81 2597 -81 
Q 1556 -81 934 580 
Q 313 1241 313 2328 
Q 313 3497 1013 4209 
Q 1713 4922 2791 4922 
Q 3484 4922 3938 4725 
L 3938 4072 
Q 3419 4359 2797 4359 
Q 1988 4359 1478 3820 
Q 969 3281 969 2366 
Q 969 1497 1444 986 
Q 1919 475 2688 475 
Q 3406 475 3938 800 
L 3938 200 
z
" transform="scale(0.015625)"/>
      </defs>
      <use xlink:href="#MicrosoftYaHei-6e29"/>
      <use xlink:href="#MicrosoftYaHei-5ea6" x="100"/>
      <use xlink:href="#MicrosoftYaHei-20" x="200"/>
      <use xlink:href="#MicrosoftYaHei-28" x="229.589844"/>
      <use xlink:href="#MicrosoftYaHei-b0" x="262.988281"/>
      <use xlink:href="#MicrosoftYaHei-43" x="303.759766"/>
      <use xlink:href="#MicrosoftYaHei-29" x="370.654297"/>
     </g>
    </g>
   </g>
   <g id="line2d_39">
    <path d="M 81.927273 524.44 
L 94.377196 523.77537 
L 106.827119 523.11074 
L 119.277042 522.446109 
L 131.726965 521.781479 
L 144.176888 521.116849 
L 156.62681 520.452219 
L 169.076733 519.787589 
L 181.526656 519.122958 
L 193.976579 518.458328 
L 206.426502 517.793698 
L 218.876425 517.129068 
L 231.326348 516.464438 
L 243.776271 515.799808 
L 256.226194 515.135177 
L 268.676117 514.470547 
L 281.12604 513.805917 
L 293.575963 513.141287 
L 306.025886 512.476657 
L 318.475809 511.812026 
L 330.925732 511.147396 
L 343.375655 510.482766 
L 355.825578 509.818136 
L 368.275501 509.153506 
L 380.725424 508.488875 
L 393.175347 507.824245 
L 405.62527 507.159615 
L 418.075193 506.494985 
L 430.525116 505.830355 
L 442.975039 505.165724 
L 455.424961 504.501094 
L 467.874884 503.836464 
L 480.324807 503.171834 
L 492.77473 502.507204 
L 505.224653 501.842574 
L 517.674576 501.177943 
L 530.124499 500.513313 
L 542.574422 499.848683 
L 555.024345 499.184053 
L 567.474268 498.519423 
L 579.924191 496.214994 
L 592.374114 492.266158 
L 604.824037 487.870625 
L 617.27396 483.177796 
L 629.723883 478.256481 
L 642.173806 473.147437 
L 654.623729 467.877962 
L 667.073652 462.467764 
L 679.523575 456.931814 
L 691.973498 451.281911 
L 704.423421 445.52762 
L 716.873344 439.676869 
L 729.323267 433.736347 
L 741.77319 427.71178 
L 754.223112 421.608135 
L 766.673035 415.429761 
L 779.122958 409.180504 
L 791.572881 402.863791 
L 804.022804 396.482697 
L 816.472727 390.04 
" clip-path="url(#p0477d8a7da)" style="fill: none; stroke: #ff0000; stroke-width: 1.5; stroke-linecap: square"/>
   </g>
   <g id="patch_13">
    <path d="M 45.2 531.16 
L 45.2 383.32 
" style="fill: none; stroke: #000000; stroke-width: 0.8; stroke-linejoin: miter; stroke-linecap: square"/>
   </g>
   <g id="patch_14">
    <path d="M 853.2 531.16 
L 853.2 383.32 
" style="fill: none; stroke: #000000; stroke-width: 0.8; stroke-linejoin: miter; stroke-linecap: square"/>
   </g>
   <g id="patch_15">
    <path d="M 45.2 531.16 
L 853.2 531.16 
" style="fill: none; stroke: #000000; stroke-width: 0.8; stroke-linejoin: miter; stroke-linecap: square"/>
   </g>
   <g id="patch_16">
    <path d="M 45.2 383.32 
L 853.2 383.32 
" style="fill: none; stroke: #000000; stroke-width: 0.8; stroke-linejoin: miter; stroke-linecap: square"/>
   </g>
   <g id="text_29">
    <!-- 红外温度 -->
    <g transform="translate(425.2 377.32)scale(0.12 -0.12)">
     <defs>
      <path id="MicrosoftYaHei-7ea2" d="M 2213 16 
L 4038 16 
L 4038 4253 
L 2538 4253 
L 2538 4741 
L 6081 4741 
L 6081 4253 
L 4569 4253 
L 4569 16 
L 6313 16 
L 6313 -472 
L 2213 -472 
L 2213 16 
z
M 919 1597 
Q 2063 1759 2488 1828 
Q 2450 1584 2431 1353 
Q 1644 1247 319 1041 
L 200 1503 
Q 716 2006 1241 2759 
Q 572 2719 256 2691 
L 131 3116 
Q 831 4022 1431 5347 
L 1938 5159 
Q 1319 4022 725 3153 
Q 1138 3163 1516 3175 
Q 1769 3566 2025 4016 
L 2506 3784 
Q 1688 2528 919 1597 
z
M 119 222 
Q 1231 459 2500 747 
Q 2481 497 2481 259 
Q 1475 28 263 -284 
L 119 222 
z
" transform="scale(0.015625)"/>
      <path id="MicrosoftYaHei-5916" d="M 38 2084 
Q 969 3503 1438 5316 
L 1950 5172 
Q 1800 4666 1638 4197 
L 3375 4197 
L 3375 3734 
Q 3044 628 569 -822 
Q 438 -616 244 -378 
Q 1456 341 2106 1422 
Q 1669 1791 1125 2172 
L 1444 2553 
Q 1975 2166 2350 1872 
Q 2738 2678 2850 3722 
L 1456 3722 
Q 1019 2616 325 1553 
Q 200 1809 38 2084 
z
M 3988 5266 
L 4513 5266 
L 4513 3116 
L 4763 3397 
Q 5656 2703 6356 2128 
L 6000 1666 
Q 5338 2278 4513 2972 
L 4513 -859 
L 3988 -859 
L 3988 5266 
z
" transform="scale(0.015625)"/>
     </defs>
     <use xlink:href="#MicrosoftYaHei-7ea2"/>
     <use xlink:href="#MicrosoftYaHei-5916" x="100"/>
     <use xlink:href="#MicrosoftYaHei-6e29" x="200"/>
     <use xlink:href="#MicrosoftYaHei-5ea6" x="300"/>
    </g>
   </g>
  </g>
 </g>
 <defs>
  <clipPath id="p5ee210f5e3">
   <rect x="45.2" y="26.88" width="808" height="147.84"/>
  </clipPath>
  <clipPath id="p4bdc7783f9">
   <rect x="45.2" y="205.1" width="808" height="147.84"/>
  </clipPath>
  <clipPath id="p0477d8a7da">
   <rect x="45.2" y="383.32" width="808" height="147.84"/>
  </clipPath>
 </defs>
</svg>
