<?xml version="1.0" encoding="utf-8" standalone="no"?>
<!DOCTYPE svg PUBLIC "-//W3C//DTD SVG 1.1//EN"
  "http://www.w3.org/Graphics/SVG/1.1/DTD/svg11.dtd">
<svg xmlns:xlink="http://www.w3.org/1999/xlink" width="864pt" height="432pt" viewBox="0 0 864 432" xmlns="http://www.w3.org/2000/svg" version="1.1">
 <metadata>
  <rdf:RDF xmlns:dc="http://purl.org/dc/elements/1.1/" xmlns:cc="http://creativecommons.org/ns#" xmlns:rdf="http://www.w3.org/1999/02/22-rdf-syntax-ns#">
   <cc:Work>
    <dc:type rdf:resource="http://purl.org/dc/dcmitype/StillImage"/>
    <dc:date>2025-05-07T17:57:35.684509</dc:date>
    <dc:format>image/svg+xml</dc:format>
    <dc:creator>
     <cc:Agent>
      <dc:title>Matplotlib v3.5.2, https://matplotlib.org/</dc:title>
     </cc:Agent>
    </dc:creator>
   </cc:Work>
  </rdf:RDF>
 </metadata>
 <defs>
  <style type="text/css">*{stroke-linejoin: round; stroke-linecap: butt}</style>
 </defs>
 <g id="figure_1">
  <g id="patch_1">
   <path d="M 0 432 
L 864 432 
L 864 0 
L 0 0 
z
" style="fill: #ffffff"/>
  </g>
  <g id="axes_1">
   <g id="patch_2">
    <path d="M 46.46 385.72 
L 853.2 385.72 
L 853.2 10.8 
L 46.46 10.8 
z
" style="fill: #ffffff"/>
   </g>
   <g id="matplotlib.axis_1">
    <g id="xtick_1">
     <g id="line2d_1">
      <path d="M 83.13 385.72 
L 83.13 10.8 
" clip-path="url(#pedd7cd9bc3)" style="fill: none; stroke: #b0b0b0; stroke-width: 0.8; stroke-linecap: square"/>
     </g>
     <g id="line2d_2">
      <defs>
       <path id="mf5f7206488" d="M 0 0 
L 0 3.5 
" style="stroke: #000000; stroke-width: 0.8"/>
      </defs>
      <g>
       <use xlink:href="#mf5f7206488" x="83.13" y="385.72" style="stroke: #000000; stroke-width: 0.8"/>
      </g>
     </g>
     <g id="text_1">
      <!-- 0.0 -->
      <g transform="translate(76.062031 400.71375)scale(0.1 -0.1)">
       <defs>
        <path id="MicrosoftYaHei-30" d="M 284 2325 
Q 284 3606 709 4264 
Q 1134 4922 1941 4922 
Q 3478 4922 3478 2441 
Q 3478 1216 3045 567 
Q 2613 -81 1831 -81 
Q 1094 -81 689 534 
Q 284 1150 284 2325 
z
M 909 2353 
Q 909 425 1888 425 
Q 2850 425 2850 2384 
Q 2850 4413 1906 4413 
Q 909 4413 909 2353 
z
" transform="scale(0.015625)"/>
        <path id="MicrosoftYaHei-2e" d="M 372 322 
Q 372 491 487 606 
Q 603 722 775 722 
Q 950 722 1065 605 
Q 1181 488 1181 322 
Q 1181 159 1065 42 
Q 950 -75 772 -75 
Q 600 -75 486 42 
Q 372 159 372 322 
z
" transform="scale(0.015625)"/>
       </defs>
       <use xlink:href="#MicrosoftYaHei-30"/>
       <use xlink:href="#MicrosoftYaHei-2e" x="58.642578"/>
       <use xlink:href="#MicrosoftYaHei-30" x="82.714844"/>
      </g>
     </g>
    </g>
    <g id="xtick_2">
     <g id="line2d_3">
      <path d="M 174.805 385.72 
L 174.805 10.8 
" clip-path="url(#pedd7cd9bc3)" style="fill: none; stroke: #b0b0b0; stroke-width: 0.8; stroke-linecap: square"/>
     </g>
     <g id="line2d_4">
      <g>
       <use xlink:href="#mf5f7206488" x="174.805" y="385.72" style="stroke: #000000; stroke-width: 0.8"/>
      </g>
     </g>
     <g id="text_2">
      <!-- 2.5 -->
      <g transform="translate(167.737031 400.71375)scale(0.1 -0.1)">
       <defs>
        <path id="MicrosoftYaHei-32" d="M 2666 3572 
Q 2666 3963 2419 4186 
Q 2172 4409 1747 4409 
Q 1447 4409 1140 4256 
Q 834 4103 569 3819 
L 569 4413 
Q 806 4659 1107 4790 
Q 1409 4922 1816 4922 
Q 2472 4922 2872 4570 
Q 3272 4219 3272 3619 
Q 3272 3084 3026 2693 
Q 2781 2303 2188 1894 
Q 1581 1475 1376 1294 
Q 1172 1113 1090 947 
Q 1009 781 1009 544 
L 3416 544 
L 3416 0 
L 372 0 
L 372 241 
Q 372 659 486 951 
Q 600 1244 862 1520 
Q 1125 1797 1681 2184 
Q 2250 2584 2458 2886 
Q 2666 3188 2666 3572 
z
" transform="scale(0.015625)"/>
        <path id="MicrosoftYaHei-35" d="M 3294 1494 
Q 3294 784 2823 350 
Q 2353 -84 1559 -84 
Q 878 -84 544 119 
L 544 744 
Q 1034 425 1544 425 
Q 2050 425 2361 704 
Q 2672 984 2672 1447 
Q 2672 1909 2348 2167 
Q 2025 2425 1434 2425 
Q 978 2425 613 2384 
L 791 4841 
L 3053 4841 
L 3053 4303 
L 1306 4303 
L 1206 2931 
L 1647 2950 
Q 2416 2950 2855 2567 
Q 3294 2184 3294 1494 
z
" transform="scale(0.015625)"/>
       </defs>
       <use xlink:href="#MicrosoftYaHei-32"/>
       <use xlink:href="#MicrosoftYaHei-2e" x="58.642578"/>
       <use xlink:href="#MicrosoftYaHei-35" x="82.714844"/>
      </g>
     </g>
    </g>
    <g id="xtick_3">
     <g id="line2d_5">
      <path d="M 266.48 385.72 
L 266.48 10.8 
" clip-path="url(#pedd7cd9bc3)" style="fill: none; stroke: #b0b0b0; stroke-width: 0.8; stroke-linecap: square"/>
     </g>
     <g id="line2d_6">
      <g>
       <use xlink:href="#mf5f7206488" x="266.48" y="385.72" style="stroke: #000000; stroke-width: 0.8"/>
      </g>
     </g>
     <g id="text_3">
      <!-- 5.0 -->
      <g transform="translate(259.412031 400.71375)scale(0.1 -0.1)">
       <use xlink:href="#MicrosoftYaHei-35"/>
       <use xlink:href="#MicrosoftYaHei-2e" x="58.642578"/>
       <use xlink:href="#MicrosoftYaHei-30" x="82.714844"/>
      </g>
     </g>
    </g>
    <g id="xtick_4">
     <g id="line2d_7">
      <path d="M 358.155 385.72 
L 358.155 10.8 
" clip-path="url(#pedd7cd9bc3)" style="fill: none; stroke: #b0b0b0; stroke-width: 0.8; stroke-linecap: square"/>
     </g>
     <g id="line2d_8">
      <g>
       <use xlink:href="#mf5f7206488" x="358.155" y="385.72" style="stroke: #000000; stroke-width: 0.8"/>
      </g>
     </g>
     <g id="text_4">
      <!-- 7.5 -->
      <g transform="translate(351.087031 400.71375)scale(0.1 -0.1)">
       <defs>
        <path id="MicrosoftYaHei-37" d="M 3422 4463 
Q 2659 3131 2223 1998 
Q 1788 866 1684 0 
L 1047 0 
Q 1163 853 1594 1947 
Q 2025 3041 2747 4300 
L 347 4300 
L 347 4841 
L 3422 4841 
L 3422 4463 
z
" transform="scale(0.015625)"/>
       </defs>
       <use xlink:href="#MicrosoftYaHei-37"/>
       <use xlink:href="#MicrosoftYaHei-2e" x="58.642578"/>
       <use xlink:href="#MicrosoftYaHei-35" x="82.714844"/>
      </g>
     </g>
    </g>
    <g id="xtick_5">
     <g id="line2d_9">
      <path d="M 449.83 385.72 
L 449.83 10.8 
" clip-path="url(#pedd7cd9bc3)" style="fill: none; stroke: #b0b0b0; stroke-width: 0.8; stroke-linecap: square"/>
     </g>
     <g id="line2d_10">
      <g>
       <use xlink:href="#mf5f7206488" x="449.83" y="385.72" style="stroke: #000000; stroke-width: 0.8"/>
      </g>
     </g>
     <g id="text_5">
      <!-- 10.0 -->
      <g transform="translate(439.83 400.71375)scale(0.1 -0.1)">
       <defs>
        <path id="MicrosoftYaHei-31" d="M 1781 0 
L 1781 4141 
Q 1638 3997 1295 3819 
Q 953 3641 663 3569 
L 663 4169 
Q 1047 4275 1484 4508 
Q 1922 4741 2156 4947 
L 2388 4947 
L 2388 0 
L 1781 0 
z
" transform="scale(0.015625)"/>
       </defs>
       <use xlink:href="#MicrosoftYaHei-31"/>
       <use xlink:href="#MicrosoftYaHei-30" x="58.642578"/>
       <use xlink:href="#MicrosoftYaHei-2e" x="117.285156"/>
       <use xlink:href="#MicrosoftYaHei-30" x="141.357422"/>
      </g>
     </g>
    </g>
    <g id="xtick_6">
     <g id="line2d_11">
      <path d="M 541.505 385.72 
L 541.505 10.8 
" clip-path="url(#pedd7cd9bc3)" style="fill: none; stroke: #b0b0b0; stroke-width: 0.8; stroke-linecap: square"/>
     </g>
     <g id="line2d_12">
      <g>
       <use xlink:href="#mf5f7206488" x="541.505" y="385.72" style="stroke: #000000; stroke-width: 0.8"/>
      </g>
     </g>
     <g id="text_6">
      <!-- 12.5 -->
      <g transform="translate(531.505 400.71375)scale(0.1 -0.1)">
       <use xlink:href="#MicrosoftYaHei-31"/>
       <use xlink:href="#MicrosoftYaHei-32" x="58.642578"/>
       <use xlink:href="#MicrosoftYaHei-2e" x="117.285156"/>
       <use xlink:href="#MicrosoftYaHei-35" x="141.357422"/>
      </g>
     </g>
    </g>
    <g id="xtick_7">
     <g id="line2d_13">
      <path d="M 633.18 385.72 
L 633.18 10.8 
" clip-path="url(#pedd7cd9bc3)" style="fill: none; stroke: #b0b0b0; stroke-width: 0.8; stroke-linecap: square"/>
     </g>
     <g id="line2d_14">
      <g>
       <use xlink:href="#mf5f7206488" x="633.18" y="385.72" style="stroke: #000000; stroke-width: 0.8"/>
      </g>
     </g>
     <g id="text_7">
      <!-- 15.0 -->
      <g transform="translate(623.18 400.71375)scale(0.1 -0.1)">
       <use xlink:href="#MicrosoftYaHei-31"/>
       <use xlink:href="#MicrosoftYaHei-35" x="58.642578"/>
       <use xlink:href="#MicrosoftYaHei-2e" x="117.285156"/>
       <use xlink:href="#MicrosoftYaHei-30" x="141.357422"/>
      </g>
     </g>
    </g>
    <g id="xtick_8">
     <g id="line2d_15">
      <path d="M 724.855 385.72 
L 724.855 10.8 
" clip-path="url(#pedd7cd9bc3)" style="fill: none; stroke: #b0b0b0; stroke-width: 0.8; stroke-linecap: square"/>
     </g>
     <g id="line2d_16">
      <g>
       <use xlink:href="#mf5f7206488" x="724.855" y="385.72" style="stroke: #000000; stroke-width: 0.8"/>
      </g>
     </g>
     <g id="text_8">
      <!-- 17.5 -->
      <g transform="translate(714.855 400.71375)scale(0.1 -0.1)">
       <use xlink:href="#MicrosoftYaHei-31"/>
       <use xlink:href="#MicrosoftYaHei-37" x="58.642578"/>
       <use xlink:href="#MicrosoftYaHei-2e" x="117.285156"/>
       <use xlink:href="#MicrosoftYaHei-35" x="141.357422"/>
      </g>
     </g>
    </g>
    <g id="xtick_9">
     <g id="line2d_17">
      <path d="M 816.53 385.72 
L 816.53 10.8 
" clip-path="url(#pedd7cd9bc3)" style="fill: none; stroke: #b0b0b0; stroke-width: 0.8; stroke-linecap: square"/>
     </g>
     <g id="line2d_18">
      <g>
       <use xlink:href="#mf5f7206488" x="816.53" y="385.72" style="stroke: #000000; stroke-width: 0.8"/>
      </g>
     </g>
     <g id="text_9">
      <!-- 20.0 -->
      <g transform="translate(806.53 400.71375)scale(0.1 -0.1)">
       <use xlink:href="#MicrosoftYaHei-32"/>
       <use xlink:href="#MicrosoftYaHei-30" x="58.642578"/>
       <use xlink:href="#MicrosoftYaHei-2e" x="117.285156"/>
       <use xlink:href="#MicrosoftYaHei-30" x="141.357422"/>
      </g>
     </g>
    </g>
    <g id="text_10">
     <!-- 时间（秒） -->
     <g transform="translate(419.83 416.792187)scale(0.12 -0.12)">
      <defs>
       <path id="MicrosoftYaHei-65f6" d="M 344 4728 
L 2500 4728 
L 2500 -366 
L 2006 -366 
L 2006 153 
L 838 153 
L 838 -441 
L 344 -441 
L 344 4728 
z
M 2706 3941 
L 4925 3941 
L 4925 5322 
L 5425 5322 
L 5425 3941 
L 6313 3941 
L 6313 3478 
L 5425 3478 
L 5425 116 
Q 5425 -722 4625 -722 
Q 4263 -722 3563 -703 
Q 3531 -478 3463 -178 
Q 4119 -228 4488 -228 
Q 4925 -228 4925 216 
L 4925 3478 
L 2706 3478 
L 2706 3941 
z
M 838 616 
L 2006 616 
L 2006 2234 
L 838 2234 
L 838 616 
z
M 2006 4266 
L 838 4266 
L 838 2684 
L 2006 2684 
L 2006 4266 
z
M 3406 2878 
Q 3906 1966 4163 1422 
Q 4000 1347 3663 1172 
Q 3419 1766 2963 2653 
L 3406 2878 
z
" transform="scale(0.015625)"/>
       <path id="MicrosoftYaHei-95f4" d="M 1863 3647 
L 4513 3647 
L 4513 553 
L 2313 553 
L 2313 166 
L 1863 166 
L 1863 3647 
z
M 2388 4453 
L 2388 4922 
L 6013 4922 
L 6013 -28 
Q 6013 -816 5119 -816 
Q 4756 -816 4169 -803 
Q 4144 -616 4069 -297 
Q 4588 -334 5056 -334 
Q 5525 -334 5525 122 
L 5525 4453 
L 2388 4453 
z
M 419 4084 
L 906 4084 
L 906 -816 
L 419 -816 
L 419 4084 
z
M 2313 997 
L 4063 997 
L 4063 1884 
L 2313 1884 
L 2313 997 
z
M 4063 3203 
L 2313 3203 
L 2313 2328 
L 4063 2328 
L 4063 3203 
z
M 744 5003 
L 1100 5322 
Q 1575 4872 1981 4447 
L 1575 4091 
Q 1194 4541 744 5003 
z
" transform="scale(0.015625)"/>
       <path id="MicrosoftYaHei-ff08" d="M 5288 -1100 
Q 4172 119 4172 1850 
Q 4172 3603 5288 4838 
L 5825 4838 
Q 4716 3572 4716 1856 
Q 4716 166 5819 -1100 
L 5288 -1100 
z
" transform="scale(0.015625)"/>
       <path id="MicrosoftYaHei-79d2" d="M 44 903 
Q 616 1744 978 3059 
L 113 3059 
L 113 3484 
L 1100 3484 
L 1100 4456 
Q 703 4400 281 4353 
Q 231 4566 150 4784 
Q 1244 4878 2344 5128 
L 2481 4691 
Q 2041 4603 1563 4525 
L 1563 3484 
L 2438 3484 
L 2438 3059 
L 1563 3059 
L 1563 2178 
L 1844 2422 
Q 2094 2166 2575 1603 
L 2200 1297 
Q 1809 1794 1563 2088 
L 1563 -822 
L 1100 -822 
L 1100 2175 
Q 766 1059 256 359 
Q 156 628 44 903 
z
M 1944 -316 
Q 4481 253 5594 2284 
L 6025 2003 
Q 4756 -141 2206 -766 
Q 2088 -534 1944 -316 
z
M 4025 5278 
L 4513 5278 
L 4513 1328 
L 4025 1328 
L 4025 5278 
z
M 3075 4266 
L 3544 4141 
Q 3275 3078 2906 1997 
Q 2681 2097 2425 2172 
Q 2850 3247 3075 4266 
z
M 4950 4141 
L 5375 4341 
Q 5856 3566 6281 2722 
L 5831 2484 
Q 5444 3328 4950 4141 
z
" transform="scale(0.015625)"/>
       <path id="MicrosoftYaHei-ff09" d="M 1113 -1100 
L 575 -1100 
Q 1684 163 1684 1888 
Q 1684 3581 581 4838 
L 1113 4838 
Q 2222 3628 2222 1888 
Q 2222 128 1113 -1100 
z
" transform="scale(0.015625)"/>
      </defs>
      <use xlink:href="#MicrosoftYaHei-65f6"/>
      <use xlink:href="#MicrosoftYaHei-95f4" x="100"/>
      <use xlink:href="#MicrosoftYaHei-ff08" x="200"/>
      <use xlink:href="#MicrosoftYaHei-79d2" x="300"/>
      <use xlink:href="#MicrosoftYaHei-ff09" x="400"/>
     </g>
    </g>
   </g>
   <g id="matplotlib.axis_2">
    <g id="ytick_1">
     <g id="line2d_19">
      <path d="M 46.46 368.678182 
L 853.2 368.678182 
" clip-path="url(#pedd7cd9bc3)" style="fill: none; stroke: #b0b0b0; stroke-width: 0.8; stroke-linecap: square"/>
     </g>
     <g id="line2d_20">
      <defs>
       <path id="m93ce5287ad" d="M 0 0 
L -3.5 0 
" style="stroke: #000000; stroke-width: 0.8"/>
      </defs>
      <g>
       <use xlink:href="#m93ce5287ad" x="46.46" y="368.678182" style="stroke: #000000; stroke-width: 0.8"/>
      </g>
     </g>
     <g id="text_11">
      <!-- 40 -->
      <g transform="translate(27.731875 372.675057)scale(0.1 -0.1)">
       <defs>
        <path id="MicrosoftYaHei-34" d="M 2906 4841 
L 2906 1644 
L 3631 1644 
L 3631 1138 
L 2906 1138 
L 2906 0 
L 2313 0 
L 2313 1138 
L 53 1138 
L 53 1616 
Q 656 2294 1265 3178 
Q 1875 4063 2272 4841 
L 2906 4841 
z
M 741 1644 
L 2313 1644 
L 2313 3950 
Q 1988 3366 1616 2817 
Q 1244 2269 741 1644 
z
" transform="scale(0.015625)"/>
       </defs>
       <use xlink:href="#MicrosoftYaHei-34"/>
       <use xlink:href="#MicrosoftYaHei-30" x="58.642578"/>
      </g>
     </g>
    </g>
    <g id="ytick_2">
     <g id="line2d_21">
      <path d="M 46.46 322.786376 
L 853.2 322.786376 
" clip-path="url(#pedd7cd9bc3)" style="fill: none; stroke: #b0b0b0; stroke-width: 0.8; stroke-linecap: square"/>
     </g>
     <g id="line2d_22">
      <g>
       <use xlink:href="#m93ce5287ad" x="46.46" y="322.786376" style="stroke: #000000; stroke-width: 0.8"/>
      </g>
     </g>
     <g id="text_12">
      <!-- 45 -->
      <g transform="translate(27.731875 326.783251)scale(0.1 -0.1)">
       <use xlink:href="#MicrosoftYaHei-34"/>
       <use xlink:href="#MicrosoftYaHei-35" x="58.642578"/>
      </g>
     </g>
    </g>
    <g id="ytick_3">
     <g id="line2d_23">
      <path d="M 46.46 276.894571 
L 853.2 276.894571 
" clip-path="url(#pedd7cd9bc3)" style="fill: none; stroke: #b0b0b0; stroke-width: 0.8; stroke-linecap: square"/>
     </g>
     <g id="line2d_24">
      <g>
       <use xlink:href="#m93ce5287ad" x="46.46" y="276.894571" style="stroke: #000000; stroke-width: 0.8"/>
      </g>
     </g>
     <g id="text_13">
      <!-- 50 -->
      <g transform="translate(27.731875 280.891446)scale(0.1 -0.1)">
       <use xlink:href="#MicrosoftYaHei-35"/>
       <use xlink:href="#MicrosoftYaHei-30" x="58.642578"/>
      </g>
     </g>
    </g>
    <g id="ytick_4">
     <g id="line2d_25">
      <path d="M 46.46 231.002765 
L 853.2 231.002765 
" clip-path="url(#pedd7cd9bc3)" style="fill: none; stroke: #b0b0b0; stroke-width: 0.8; stroke-linecap: square"/>
     </g>
     <g id="line2d_26">
      <g>
       <use xlink:href="#m93ce5287ad" x="46.46" y="231.002765" style="stroke: #000000; stroke-width: 0.8"/>
      </g>
     </g>
     <g id="text_14">
      <!-- 55 -->
      <g transform="translate(27.731875 234.99964)scale(0.1 -0.1)">
       <use xlink:href="#MicrosoftYaHei-35"/>
       <use xlink:href="#MicrosoftYaHei-35" x="58.642578"/>
      </g>
     </g>
    </g>
    <g id="ytick_5">
     <g id="line2d_27">
      <path d="M 46.46 185.110959 
L 853.2 185.110959 
" clip-path="url(#pedd7cd9bc3)" style="fill: none; stroke: #b0b0b0; stroke-width: 0.8; stroke-linecap: square"/>
     </g>
     <g id="line2d_28">
      <g>
       <use xlink:href="#m93ce5287ad" x="46.46" y="185.110959" style="stroke: #000000; stroke-width: 0.8"/>
      </g>
     </g>
     <g id="text_15">
      <!-- 60 -->
      <g transform="translate(27.731875 189.107834)scale(0.1 -0.1)">
       <defs>
        <path id="MicrosoftYaHei-36" d="M 3181 4219 
Q 2803 4413 2391 4413 
Q 1763 4413 1381 3866 
Q 1000 3319 994 2372 
L 1009 2372 
Q 1353 3038 2106 3038 
Q 2734 3038 3109 2628 
Q 3484 2219 3484 1541 
Q 3484 831 3051 375 
Q 2619 -81 1947 -81 
Q 1209 -81 789 495 
Q 369 1072 369 2131 
Q 369 3413 920 4167 
Q 1472 4922 2372 4922 
Q 2888 4922 3181 4781 
L 3181 4219 
z
M 1031 1584 
Q 1031 1106 1286 765 
Q 1541 425 1963 425 
Q 2363 425 2613 719 
Q 2863 1013 2863 1475 
Q 2863 1975 2627 2253 
Q 2391 2531 1956 2531 
Q 1544 2531 1287 2250 
Q 1031 1969 1031 1584 
z
" transform="scale(0.015625)"/>
       </defs>
       <use xlink:href="#MicrosoftYaHei-36"/>
       <use xlink:href="#MicrosoftYaHei-30" x="58.642578"/>
      </g>
     </g>
    </g>
    <g id="ytick_6">
     <g id="line2d_29">
      <path d="M 46.46 139.219154 
L 853.2 139.219154 
" clip-path="url(#pedd7cd9bc3)" style="fill: none; stroke: #b0b0b0; stroke-width: 0.8; stroke-linecap: square"/>
     </g>
     <g id="line2d_30">
      <g>
       <use xlink:href="#m93ce5287ad" x="46.46" y="139.219154" style="stroke: #000000; stroke-width: 0.8"/>
      </g>
     </g>
     <g id="text_16">
      <!-- 65 -->
      <g transform="translate(27.731875 143.216029)scale(0.1 -0.1)">
       <use xlink:href="#MicrosoftYaHei-36"/>
       <use xlink:href="#MicrosoftYaHei-35" x="58.642578"/>
      </g>
     </g>
    </g>
    <g id="ytick_7">
     <g id="line2d_31">
      <path d="M 46.46 93.327348 
L 853.2 93.327348 
" clip-path="url(#pedd7cd9bc3)" style="fill: none; stroke: #b0b0b0; stroke-width: 0.8; stroke-linecap: square"/>
     </g>
     <g id="line2d_32">
      <g>
       <use xlink:href="#m93ce5287ad" x="46.46" y="93.327348" style="stroke: #000000; stroke-width: 0.8"/>
      </g>
     </g>
     <g id="text_17">
      <!-- 70 -->
      <g transform="translate(27.731875 97.324223)scale(0.1 -0.1)">
       <use xlink:href="#MicrosoftYaHei-37"/>
       <use xlink:href="#MicrosoftYaHei-30" x="58.642578"/>
      </g>
     </g>
    </g>
    <g id="ytick_8">
     <g id="line2d_33">
      <path d="M 46.46 47.435542 
L 853.2 47.435542 
" clip-path="url(#pedd7cd9bc3)" style="fill: none; stroke: #b0b0b0; stroke-width: 0.8; stroke-linecap: square"/>
     </g>
     <g id="line2d_34">
      <g>
       <use xlink:href="#m93ce5287ad" x="46.46" y="47.435542" style="stroke: #000000; stroke-width: 0.8"/>
      </g>
     </g>
     <g id="text_18">
      <!-- 75 -->
      <g transform="translate(27.731875 51.432417)scale(0.1 -0.1)">
       <use xlink:href="#MicrosoftYaHei-37"/>
       <use xlink:href="#MicrosoftYaHei-35" x="58.642578"/>
      </g>
     </g>
    </g>
    <g id="text_19">
     <!-- 张力（kN） -->
     <g transform="translate(20.74875 230.404062)rotate(-90)scale(0.12 -0.12)">
      <defs>
       <path id="MicrosoftYaHei-5f20" d="M 2250 2647 
L 2994 2647 
L 2994 5284 
L 3475 5284 
L 3475 2647 
L 6225 2647 
L 6225 2197 
L 4478 2197 
Q 4963 669 6313 -128 
Q 6069 -366 5906 -566 
Q 4481 494 4028 2197 
L 3475 2197 
L 3475 53 
Q 3806 216 4394 553 
Q 4438 266 4494 59 
Q 4075 -153 3469 -516 
Q 3238 -678 3106 -809 
L 2769 -378 
Q 2994 -153 2994 141 
L 2994 2197 
L 2250 2197 
L 2250 2647 
z
M 269 4984 
L 2269 4984 
L 2269 2884 
L 1806 2884 
L 1806 3078 
L 856 3078 
L 756 1997 
L 2225 1997 
Q 2150 753 2106 172 
Q 2031 -709 1244 -709 
Q 988 -709 419 -691 
Q 381 -453 313 -159 
Q 856 -209 1156 -209 
Q 1569 -209 1625 203 
Q 1694 691 1731 1572 
L 250 1572 
L 431 3503 
L 1806 3503 
L 1806 4559 
L 269 4559 
L 269 4984 
z
M 3638 3391 
Q 4706 4022 5638 4909 
L 6006 4559 
Q 5044 3678 3931 2991 
L 3638 3391 
z
" transform="scale(0.015625)"/>
       <path id="MicrosoftYaHei-529b" d="M 400 3916 
L 2425 3916 
Q 2444 4603 2450 5316 
L 2994 5316 
Q 2981 4653 2963 3916 
L 5831 3916 
Q 5756 1472 5688 459 
Q 5606 -616 4538 -628 
Q 4025 -628 3300 -603 
Q 3275 -359 3206 -9 
L 3225 -9 
Q 4038 -84 4488 -78 
Q 5094 -66 5156 591 
Q 5231 1709 5269 3403 
L 2950 3403 
Q 2894 1775 2431 953 
Q 1938 41 506 -803 
Q 331 -578 131 -328 
Q 1488 434 1913 1209 
Q 2353 1913 2406 3403 
L 400 3403 
L 400 3916 
z
" transform="scale(0.015625)"/>
       <path id="MicrosoftYaHei-6b" d="M 3484 0 
L 2650 0 
L 1172 1666 
L 1159 1666 
L 1159 0 
L 547 0 
L 547 5116 
L 1159 5116 
L 1159 1872 
L 1172 1872 
L 2575 3456 
L 3363 3456 
L 1800 1794 
L 3484 0 
z
" transform="scale(0.015625)"/>
       <path id="MicrosoftYaHei-4e" d="M 4578 0 
L 3838 0 
L 1403 3766 
Q 1300 3925 1238 4081 
L 1219 4081 
Q 1244 3919 1244 3403 
L 1244 0 
L 625 0 
L 625 4841 
L 1409 4841 
L 3778 1141 
Q 3947 878 3978 806 
L 3991 806 
Q 3959 1013 3959 1513 
L 3959 4841 
L 4578 4841 
L 4578 0 
z
" transform="scale(0.015625)"/>
      </defs>
      <use xlink:href="#MicrosoftYaHei-5f20"/>
      <use xlink:href="#MicrosoftYaHei-529b" x="100"/>
      <use xlink:href="#MicrosoftYaHei-ff08" x="200"/>
      <use xlink:href="#MicrosoftYaHei-6b" x="300"/>
      <use xlink:href="#MicrosoftYaHei-4e" x="354.443359"/>
      <use xlink:href="#MicrosoftYaHei-ff09" x="435.742188"/>
     </g>
    </g>
   </g>
   <g id="line2d_35">
    <path d="M 83.13 368.678182 
L 266.204837 93.327348 
L 266.571721 86.144726 
L 266.938604 60.864194 
L 267.305488 47.995481 
L 267.672371 52.458754 
L 268.039255 72.547545 
L 268.773022 125.84144 
L 269.139905 138.670391 
L 269.506788 134.163083 
L 269.873672 114.042819 
L 270.607439 60.762397 
L 270.974322 47.973241 
L 271.341206 52.524573 
L 271.708089 72.676259 
L 272.441856 125.943076 
L 272.808739 138.692407 
L 273.175623 134.097062 
L 273.542506 113.914004 
L 274.276273 60.660923 
L 274.643157 47.951448 
L 275.01004 52.590795 
L 275.376923 72.805176 
L 276.11069 126.044389 
L 276.477574 138.713975 
L 276.844457 134.030638 
L 277.211341 113.784985 
L 277.945108 60.559771 
L 278.311991 47.930104 
L 278.678874 52.65742 
L 279.045758 72.934296 
L 279.779525 126.145379 
L 280.146408 138.735095 
L 280.513292 133.963813 
L 280.880175 113.655764 
L 281.613942 60.458943 
L 281.980825 47.909209 
L 282.347709 52.724446 
L 282.714592 73.063618 
L 283.448359 126.246045 
L 283.815243 138.755766 
L 284.182126 133.896586 
L 284.54901 113.526342 
L 285.282776 60.358439 
L 285.64966 47.888762 
L 286.016543 52.791874 
L 286.383427 73.19314 
L 287.117194 126.346386 
L 287.484077 138.775988 
L 287.85096 133.828958 
L 288.217844 113.39672 
L 288.951611 60.258262 
L 289.318494 47.868765 
L 289.685378 52.859702 
L 290.052261 73.322861 
L 290.786028 126.446401 
L 291.152911 138.795762 
L 291.519795 133.76093 
L 291.886678 113.2669 
L 292.620445 60.158411 
L 292.987329 47.849216 
L 293.354212 52.92793 
L 293.721096 73.452779 
L 294.454862 126.546088 
L 294.821746 138.815086 
L 295.188629 133.692502 
L 295.555513 113.136884 
L 296.28928 60.058887 
L 296.656163 47.830117 
L 297.023047 52.996557 
L 297.38993 73.582894 
L 298.123697 126.645447 
L 298.49058 138.83396 
L 298.857464 133.623676 
L 299.224347 113.006671 
L 299.958114 59.959693 
L 300.324997 47.811467 
L 300.691881 53.065582 
L 301.058764 73.713204 
L 301.792531 126.744477 
L 302.159415 138.852385 
L 302.526298 133.554451 
L 302.893182 112.876264 
L 303.626948 59.860828 
L 303.993832 47.793267 
L 304.360715 53.135006 
L 304.727599 73.843708 
L 305.461366 126.843177 
L 305.828249 138.870361 
L 306.195133 133.48483 
L 306.562016 112.745664 
L 307.295783 59.762293 
L 307.662666 47.775516 
L 308.02955 53.204826 
L 308.396433 73.974404 
L 309.1302 126.941546 
L 309.497084 138.887886 
L 309.863967 133.414811 
L 310.23085 112.614872 
L 310.964617 59.66409 
L 311.331501 47.758216 
L 311.698384 53.275043 
L 312.065268 74.105291 
L 312.799035 127.039582 
L 313.165918 138.904961 
L 313.532801 133.344396 
L 313.899685 112.48389 
L 314.633452 59.56622 
L 315.000335 47.741366 
L 315.367219 53.345655 
L 315.734102 74.236368 
L 316.467869 127.137286 
L 316.834752 138.921586 
L 317.201636 133.273586 
L 317.568519 112.352718 
L 318.302286 59.468684 
L 318.66917 47.724966 
L 319.036053 53.416662 
L 319.402936 74.367634 
L 320.136703 127.234655 
L 320.503587 138.937761 
L 320.87047 133.202382 
L 321.237354 112.221358 
L 321.971121 59.371481 
L 322.338004 47.709017 
L 322.704887 53.488064 
L 323.071771 74.499087 
L 323.805538 127.33169 
L 324.172421 138.953484 
L 324.539305 133.130783 
L 324.906188 112.089812 
L 325.639955 59.274615 
L 326.006838 47.693518 
L 326.373722 53.559859 
L 326.740605 74.630726 
L 327.474372 127.428388 
L 327.841256 138.968758 
L 328.208139 133.058792 
L 328.575023 111.95808 
L 329.308789 59.178084 
L 329.675673 47.678471 
L 330.042556 53.632047 
L 330.40944 74.76255 
L 331.143207 127.52475 
L 331.51009 138.98358 
L 331.876973 132.986407 
L 332.243857 111.826165 
L 332.977624 59.081892 
L 333.344507 47.663874 
L 333.711391 53.704628 
L 334.078274 74.894558 
L 334.812041 127.620774 
L 335.178924 138.997951 
L 335.545808 132.913631 
L 335.912691 111.694066 
L 336.646458 58.986037 
L 337.013342 47.649728 
L 337.380225 53.7776 
L 337.747109 75.026747 
L 338.480875 127.716459 
L 338.847759 139.011871 
L 339.214642 132.840464 
L 339.948409 93.327348 
L 412.958214 368.678182 
L 464.321896 368.678182 
L 464.688779 299.840473 
L 515.685578 299.840473 
L 516.052461 231.002765 
L 567.04926 231.002765 
L 567.416143 162.165056 
L 618.412941 162.165056 
L 618.779825 93.327348 
L 669.776623 93.327348 
L 670.143507 114.857339 
L 670.51039 104.177951 
L 670.877274 85.97767 
L 671.244157 80.945585 
L 671.611041 83.337867 
L 671.977924 70.467278 
L 672.344807 62.102217 
L 672.711691 74.270613 
L 673.078574 73.34998 
L 673.445458 64.601818 
L 673.812341 52.777995 
L 674.179225 59.929211 
L 674.546108 62.401814 
L 674.912991 55.536036 
L 675.279875 73.200187 
L 675.646758 44.184066 
L 676.013642 46.451685 
L 676.380525 69.259386 
L 676.747409 66.608398 
L 677.114292 49.077672 
L 677.481176 50.228878 
L 677.848059 65.998087 
L 678.214942 57.339907 
L 678.581826 65.275841 
L 678.948709 52.760548 
L 679.315593 67.951928 
L 679.682476 71.715601 
L 680.416243 81.261183 
L 680.783127 84.759473 
L 681.15001 98.631933 
L 681.516893 89.77474 
L 681.883777 96.437242 
L 682.25066 95.666006 
L 682.617544 93.147629 
L 682.984427 95.569975 
L 683.351311 111.581493 
L 683.718194 109.598401 
L 684.085078 115.198053 
L 684.818844 108.56623 
L 685.185728 133.087998 
L 685.552611 113.650984 
L 685.919495 108.844312 
L 686.286378 137.161564 
L 686.653262 127.817682 
L 687.020145 137.362266 
L 687.387029 117.917223 
L 688.120795 138.810953 
L 688.487679 137.353751 
L 688.854562 119.651647 
L 689.221446 133.161854 
L 689.588329 122.323062 
L 689.955213 135.492169 
L 690.322096 128.91898 
L 690.688979 117.708697 
L 691.055863 118.886389 
L 691.422746 116.711209 
L 691.78963 117.821441 
L 692.156513 120.31576 
L 692.523397 107.464415 
L 692.89028 128.665194 
L 693.257164 86.960441 
L 693.624047 98.640033 
L 693.99093 93.132864 
L 694.357814 109.819737 
L 694.724697 107.281363 
L 695.091581 72.210156 
L 695.458464 80.930998 
L 695.825348 76.866054 
L 696.192231 95.264472 
L 696.559115 60.900623 
L 696.925998 64.433146 
L 697.659765 55.314402 
L 698.026648 68.032273 
L 698.393532 69.946531 
L 698.760415 40.089256 
L 699.127299 66.484089 
L 699.494182 74.426219 
L 699.861066 64.316164 
L 700.227949 40.820918 
L 700.594832 69.603508 
L 700.961716 69.572452 
L 701.328599 65.923202 
L 701.695483 58.068962 
L 702.062366 53.869092 
L 702.42925 53.656481 
L 702.796133 40.173928 
L 703.5299 73.043219 
L 703.896783 56.546324 
L 704.263667 78.155892 
L 704.63055 68.318116 
L 704.997434 88.528967 
L 705.364317 77.003182 
L 705.731201 83.688852 
L 706.098084 96.397568 
L 706.464967 102.892099 
L 706.831851 87.858612 
L 707.198734 101.275136 
L 707.565618 103.795716 
L 707.932501 105.38609 
L 708.299385 126.002548 
L 708.666268 118.155325 
L 709.033152 119.429266 
L 709.400035 122.160066 
L 709.766918 123.139031 
L 710.133802 125.617687 
L 710.500685 121.017941 
L 710.867569 112.576125 
L 711.234452 128.50628 
L 711.601336 125.066519 
L 711.968219 124.382676 
L 712.335103 132.9903 
L 712.701986 127.154383 
L 713.068869 137.11791 
L 714.16952 122.267921 
L 714.536403 117.813051 
L 714.903287 126.639633 
L 715.27017 109.421113 
L 715.637054 113.287054 
L 716.003937 119.340978 
L 716.37082 110.745343 
L 716.737704 109.247937 
L 717.104587 97.58247 
L 717.471471 95.87367 
L 717.838354 110.434577 
L 718.572121 89.302392 
L 718.939005 82.418621 
L 719.305888 94.443254 
L 719.672771 78.294036 
L 720.039655 76.451873 
L 720.406538 90.486309 
L 720.773422 88.948419 
L 721.140305 68.005286 
L 721.507189 65.700676 
L 721.874072 73.167403 
L 722.240955 52.556865 
L 722.607839 55.227998 
L 722.974722 51.822894 
L 723.341606 44.120987 
L 723.708489 68.431412 
L 724.075373 55.278404 
L 724.442256 52.9104 
L 724.80914 44.578281 
L 725.176023 64.78931 
L 725.542906 50.886054 
L 725.90979 27.841818 
L 726.276673 60.204546 
L 726.643557 79.426012 
L 727.01044 66.491586 
L 727.377324 71.867273 
L 727.744207 57.993117 
L 728.111091 76.455504 
L 728.477974 76.328753 
L 728.844857 65.381786 
L 729.211741 65.571374 
L 729.578624 90.267433 
L 729.945508 83.925393 
L 730.312391 84.267675 
L 730.679275 88.630918 
L 731.046158 90.025653 
L 731.413042 107.668905 
L 731.779925 103.348073 
L 732.146808 88.748299 
L 732.513692 118.309771 
L 732.880575 101.965282 
L 733.247459 117.029879 
L 733.614342 106.090489 
L 733.981226 127.534461 
L 734.348109 134.78989 
L 734.714992 137.288061 
L 735.081876 132.995919 
L 735.448759 133.430813 
L 735.815643 126.228351 
L 736.182526 138.505951 
L 736.54941 109.819332 
L 736.916293 140.881403 
L 737.283177 106.126991 
L 737.65006 122.051037 
L 738.383827 128.84436 
L 738.75071 116.290063 
L 739.117594 132.725792 
L 739.484477 130.933879 
L 739.851361 112.672432 
L 740.218244 119.426975 
L 740.585128 111.269183 
L 740.952011 127.426692 
L 742.052661 98.638678 
L 742.419545 108.327654 
L 743.520195 86.176414 
L 743.887079 80.465383 
L 744.253962 85.14186 
L 744.620845 78.92185 
L 744.987729 68.421812 
L 745.354612 93.470962 
L 745.721496 70.352135 
L 746.088379 69.582172 
L 746.455263 72.496556 
L 746.822146 87.479332 
L 747.18903 59.111372 
L 747.555913 55.802063 
L 747.922796 59.55112 
L 748.28968 65.274168 
L 748.656563 41.020465 
L 749.023447 44.379495 
L 749.39033 44.033896 
L 750.124097 53.994294 
L 750.49098 45.397755 
L 750.857864 49.895356 
L 751.224747 65.428168 
L 751.958514 74.361181 
L 752.325398 58.614332 
L 752.692281 64.251259 
L 753.059165 56.732717 
L 753.426048 80.005275 
L 753.792931 73.087824 
L 754.159815 58.709687 
L 754.526698 91.044418 
L 754.893582 89.517334 
L 755.260465 88.658325 
L 755.994232 114.895541 
L 756.361116 95.090732 
L 756.727999 106.399896 
L 757.094882 113.311241 
L 757.461766 115.603692 
L 757.828649 116.366658 
L 758.195533 132.806676 
L 758.9293 97.251654 
L 759.296183 124.60776 
L 759.663067 123.733537 
L 760.02995 140.127834 
L 760.396833 116.718487 
L 760.763717 130.858312 
L 761.1306 135.394722 
L 761.497484 124.845948 
L 762.231251 134.041524 
L 762.598134 132.645882 
L 762.965018 135.635212 
L 763.331901 129.437342 
L 763.698784 127.084034 
L 764.065668 119.798265 
L 764.432551 120.774169 
L 764.799435 123.782122 
L 765.166318 125.615137 
L 765.533202 107.568649 
L 765.900085 116.110938 
L 766.266968 115.156128 
L 766.633852 108.145103 
L 767.000735 92.187136 
L 767.367619 91.696457 
L 767.734502 106.42998 
L 768.101386 84.985369 
L 768.468269 81.860348 
L 768.835153 83.263359 
L 769.202036 71.947728 
L 769.568919 91.132554 
L 770.302686 62.660347 
L 771.036453 74.701868 
L 771.403337 69.370691 
L 771.77022 74.184564 
L 772.137104 61.758285 
L 772.503987 67.049548 
L 772.87087 61.749254 
L 773.237754 52.32602 
L 773.604637 60.033381 
L 773.971521 52.798587 
L 774.338404 63.962057 
L 774.705288 60.757269 
L 775.072171 53.286727 
L 775.439055 67.737449 
L 776.172821 60.786176 
L 776.539705 60.651978 
L 776.906588 66.847718 
L 777.273472 79.062568 
L 777.640355 85.110533 
L 778.007239 85.999465 
L 778.741006 80.240586 
L 779.107889 81.419988 
L 779.474772 93.025797 
L 779.841656 98.933264 
L 780.208539 89.394802 
L 781.30919 116.886501 
L 781.676073 104.09826 
L 782.40984 112.314191 
L 782.776723 111.6173 
L 783.143607 108.265779 
L 783.51049 129.901382 
L 783.877374 109.624881 
L 784.244257 132.458779 
L 784.611141 129.237372 
L 784.978024 123.366804 
L 785.344907 126.208583 
L 785.711791 127.211943 
L 786.078674 137.332759 
L 786.445558 129.463525 
L 786.812441 133.209568 
L 787.179325 119.146987 
L 787.546208 128.486968 
L 787.913092 120.197295 
L 788.279975 124.069245 
L 788.646858 130.280243 
L 789.013742 121.851176 
L 789.380625 95.911666 
L 789.747509 128.695021 
L 790.114392 120.688418 
L 790.481276 105.470847 
L 790.848159 116.631693 
L 791.215043 99.181545 
L 791.581926 99.359932 
L 791.948809 102.904526 
L 792.315693 95.813239 
L 792.682576 78.50135 
L 793.04946 73.100561 
L 793.416343 82.820386 
L 793.783227 88.537209 
L 794.15011 66.958586 
L 794.516993 91.186495 
L 794.883877 68.219141 
L 795.25076 75.136905 
L 795.617644 54.520297 
L 796.351411 75.05473 
L 796.718294 50.409192 
L 797.085178 60.414134 
L 797.452061 65.933992 
L 797.818944 48.624884 
L 798.185828 57.379807 
L 798.552711 62.994323 
L 798.919595 49.983189 
L 799.286478 48.93674 
L 799.653362 49.171949 
L 800.020245 59.072595 
L 800.387129 59.871997 
L 800.754012 62.395954 
L 801.120895 64.123829 
L 801.487779 60.749536 
L 801.854662 80.21626 
L 802.221546 66.264104 
L 802.588429 90.547617 
L 802.955313 87.643481 
L 803.322196 75.308952 
L 803.68908 74.662761 
L 804.055963 95.3346 
L 804.422846 95.515259 
L 804.78973 104.292483 
L 805.156613 85.034817 
L 805.523497 108.580638 
L 805.89038 86.85694 
L 806.257264 100.301197 
L 806.624147 129.018129 
L 806.991031 120.761515 
L 807.357914 118.602997 
L 807.724797 121.865964 
L 808.091681 117.957025 
L 808.458564 125.278778 
L 808.825448 121.896333 
L 809.192331 119.978327 
L 809.559215 123.180133 
L 809.926098 121.427334 
L 810.292981 110.705064 
L 810.659865 127.934566 
L 811.026748 130.12962 
L 811.393632 131.566518 
L 811.760515 132.021289 
L 812.127399 123.95195 
L 812.494282 131.287356 
L 812.861166 121.88368 
L 813.594932 111.151854 
L 813.961816 117.59801 
L 814.328699 112.135767 
L 814.695583 115.317093 
L 815.062466 99.23696 
L 815.42935 107.649157 
L 816.163117 91.189555 
L 816.53 91.549953 
L 816.53 91.549953 
" clip-path="url(#pedd7cd9bc3)" style="fill: none; stroke: #4682b4; stroke-width: 1.5; stroke-linecap: square"/>
   </g>
   <g id="patch_3">
    <path d="M 46.46 385.72 
L 46.46 10.8 
" style="fill: none; stroke: #000000; stroke-width: 0.8; stroke-linejoin: miter; stroke-linecap: square"/>
   </g>
   <g id="patch_4">
    <path d="M 853.2 385.72 
L 853.2 10.8 
" style="fill: none; stroke: #000000; stroke-width: 0.8; stroke-linejoin: miter; stroke-linecap: square"/>
   </g>
   <g id="patch_5">
    <path d="M 46.46 385.72 
L 853.2 385.72 
" style="fill: none; stroke: #000000; stroke-width: 0.8; stroke-linejoin: miter; stroke-linecap: square"/>
   </g>
   <g id="patch_6">
    <path d="M 46.46 10.8 
L 853.2 10.8 
" style="fill: none; stroke: #000000; stroke-width: 0.8; stroke-linejoin: miter; stroke-linecap: square"/>
   </g>
   <g id="text_20">
    <!-- 正常加速起吊 -->
    <g transform="translate(101.465 212.646043)scale(0.12 -0.12)">
     <defs>
      <path id="MicrosoftYaHei-6b63" d="M 88 66 
L 1106 66 
L 1106 3416 
L 1644 3416 
L 1644 66 
L 3231 66 
L 3231 4309 
L 375 4309 
L 375 4797 
L 6063 4797 
L 6063 4309 
L 3769 4309 
L 3769 2672 
L 5850 2672 
L 5850 2191 
L 3769 2191 
L 3769 66 
L 6313 66 
L 6313 -422 
L 88 -422 
L 88 66 
z
" transform="scale(0.015625)"/>
      <path id="MicrosoftYaHei-5e38" d="M 1213 -372 
L 725 -372 
L 725 1409 
L 2963 1409 
L 2963 1997 
L 1738 1997 
L 1738 1772 
L 1263 1772 
L 1263 3366 
L 5175 3366 
L 5175 1772 
L 4700 1772 
L 4700 1997 
L 3463 1997 
L 3463 1409 
L 5756 1409 
L 5756 341 
Q 5756 -378 5000 -378 
Q 4681 -378 4269 -372 
Q 4231 -153 4175 109 
Q 4556 72 4881 72 
Q 5269 72 5269 409 
L 5269 997 
L 3463 997 
L 3463 -853 
L 2963 -853 
L 2963 997 
L 1213 997 
L 1213 -372 
z
M 356 4216 
L 1828 4216 
Q 1409 4572 956 4903 
L 1244 5228 
Q 1713 4916 2188 4572 
L 1853 4216 
L 2956 4216 
L 2956 5309 
L 3456 5309 
L 3456 4216 
L 4488 4216 
L 4238 4528 
Q 4750 4866 5213 5247 
L 5575 4878 
Q 5128 4547 4631 4216 
L 6056 4216 
L 6056 3109 
L 5569 3109 
L 5569 3791 
L 844 3791 
L 844 3109 
L 356 3109 
L 356 4216 
z
M 4700 2966 
L 1738 2966 
L 1738 2397 
L 4700 2397 
L 4700 2966 
z
" transform="scale(0.015625)"/>
      <path id="MicrosoftYaHei-52a0" d="M 3663 4484 
L 6038 4484 
L 6038 -666 
L 5544 -666 
L 5544 -34 
L 4156 -34 
L 4156 -666 
L 3663 -666 
L 3663 4484 
z
M 231 4178 
L 1103 4178 
Q 1109 4681 1106 5297 
L 1600 5297 
Q 1600 4675 1594 4178 
L 3050 4178 
Q 3019 1778 2969 409 
Q 2944 -716 2119 -672 
Q 1875 -672 1400 -653 
Q 1356 -391 1300 -109 
Q 1738 -166 2013 -166 
Q 2431 -178 2469 428 
Q 2538 1909 2550 3703 
L 1588 3703 
Q 1581 3225 1569 2891 
Q 1544 447 394 -872 
Q 238 -678 25 -453 
Q 1063 684 1081 2941 
Q 1094 3269 1100 3703 
L 231 3703 
L 231 4178 
z
M 5544 4022 
L 4156 4022 
L 4156 416 
L 5544 416 
L 5544 4022 
z
" transform="scale(0.015625)"/>
      <path id="MicrosoftYaHei-901f" d="M 2231 3572 
L 3800 3572 
L 3800 4178 
L 1938 4178 
L 1938 4609 
L 3800 4609 
L 3800 5291 
L 4263 5291 
L 4263 4609 
L 6225 4609 
L 6225 4178 
L 4263 4178 
L 4263 3572 
L 5831 3572 
L 5831 1778 
L 5381 1778 
L 5381 1972 
L 4263 1972 
L 4263 1522 
L 4425 1772 
Q 5350 1266 6206 766 
L 5919 322 
Q 5044 916 4263 1347 
L 4263 -9 
L 3800 -9 
L 3800 1603 
Q 3044 766 2069 184 
Q 1963 347 1731 591 
Q 2869 1153 3644 1972 
L 2681 1972 
L 2681 1778 
L 2231 1778 
L 2231 3572 
z
M 2663 -222 
Q 4219 -247 6300 -197 
Q 6231 -403 6125 -691 
Q 4056 -703 2569 -666 
Q 1506 -653 1081 66 
Q 825 -172 331 -772 
L 75 -253 
Q 625 278 875 509 
L 875 2616 
L 131 2616 
L 131 3078 
L 1356 3078 
L 1356 403 
Q 1738 -216 2663 -222 
z
M 5381 3166 
L 4263 3166 
L 4263 2378 
L 5381 2378 
L 5381 3166 
z
M 2681 2378 
L 3800 2378 
L 3800 3166 
L 2681 3166 
L 2681 2378 
z
M 800 5178 
Q 1119 4791 1675 3997 
L 1231 3684 
Q 725 4478 400 4909 
L 800 5178 
z
" transform="scale(0.015625)"/>
      <path id="MicrosoftYaHei-8d77" d="M 106 -266 
Q 581 566 619 2241 
L 1081 2216 
Q 1059 1606 991 1091 
Q 1225 588 1613 288 
L 1613 2616 
L 138 2616 
L 138 3072 
L 1419 3072 
L 1419 3966 
L 356 3966 
L 356 4422 
L 1419 4422 
L 1419 5309 
L 1906 5309 
L 1906 4422 
L 2956 4422 
L 2956 3966 
L 1906 3966 
L 1906 3072 
L 3081 3072 
L 3081 2616 
L 2081 2616 
L 2081 1647 
L 3031 1647 
L 3031 1197 
L 2081 1197 
L 2081 16 
Q 2516 -159 3081 -166 
Q 4613 -178 6313 -141 
Q 6200 -422 6138 -634 
Q 4169 -641 2950 -616 
Q 1438 -588 884 478 
Q 709 -341 381 -853 
Q 256 -559 106 -266 
z
M 3850 1347 
Q 3850 1009 4188 1009 
L 5263 1009 
Q 5613 1009 5656 1316 
Q 5694 1597 5725 2153 
Q 5919 2066 6200 1972 
Q 6144 1366 6088 1084 
Q 5994 559 5325 559 
L 4069 559 
Q 3375 559 3375 1272 
L 3375 3303 
L 5325 3303 
L 5325 4491 
L 3256 4491 
L 3256 4941 
L 5800 4941 
L 5800 2641 
L 5325 2641 
L 5325 2853 
L 3850 2853 
L 3850 1347 
z
" transform="scale(0.015625)"/>
      <path id="MicrosoftYaHei-540a" d="M 1006 -328 
L 513 -328 
L 513 2197 
L 2963 2197 
L 2963 2978 
L 1413 2978 
L 1413 2709 
L 913 2709 
L 913 5066 
L 5513 5066 
L 5513 2709 
L 5013 2709 
L 5013 2978 
L 3463 2978 
L 3463 2197 
L 5931 2197 
L 5931 484 
Q 5931 -234 5194 -241 
Q 4769 -247 4275 -228 
Q 4238 16 4169 278 
Q 4619 247 5038 247 
Q 5431 247 5431 622 
L 5431 1728 
L 3463 1728 
L 3463 -872 
L 2963 -872 
L 2963 1728 
L 1006 1728 
L 1006 -328 
z
M 5013 4603 
L 1413 4603 
L 1413 3441 
L 5013 3441 
L 5013 4603 
z
" transform="scale(0.015625)"/>
     </defs>
     <use xlink:href="#MicrosoftYaHei-6b63"/>
     <use xlink:href="#MicrosoftYaHei-5e38" x="100"/>
     <use xlink:href="#MicrosoftYaHei-52a0" x="200"/>
     <use xlink:href="#MicrosoftYaHei-901f" x="300"/>
     <use xlink:href="#MicrosoftYaHei-8d77" x="400"/>
     <use xlink:href="#MicrosoftYaHei-540a" x="500"/>
    </g>
   </g>
   <g id="text_21">
    <!-- 集装箱摇摆导致共振 -->
    <g transform="translate(248.145 175.932598)scale(0.12 -0.12)">
     <defs>
      <path id="MicrosoftYaHei-96c6" d="M 3056 5134 
L 3425 5359 
Q 3719 5034 3906 4722 
L 3619 4541 
L 6013 4541 
L 6013 4153 
L 3644 4153 
L 3644 3709 
L 5738 3709 
L 5738 3347 
L 3644 3347 
L 3644 2903 
L 5738 2903 
L 5738 2541 
L 3644 2541 
L 3644 2084 
L 6031 2084 
L 6031 1697 
L 1475 1697 
L 1475 1459 
L 1038 1459 
L 1038 3684 
Q 716 3309 381 3009 
Q 281 3191 81 3422 
Q 988 4178 1613 5284 
L 2044 5091 
Q 1869 4803 1688 4541 
L 3456 4541 
Q 3288 4825 3056 5134 
z
M 288 1141 
L 2981 1141 
L 2981 1566 
L 3419 1566 
L 3419 1141 
L 6106 1141 
L 6106 741 
L 3906 741 
Q 5000 -31 6338 -303 
Q 6169 -566 6044 -766 
Q 4519 -325 3419 631 
L 3419 -834 
L 2981 -834 
L 2981 638 
Q 1844 -313 356 -778 
Q 225 -584 63 -384 
Q 1406 -56 2475 741 
L 288 741 
L 288 1141 
z
M 1475 2084 
L 3206 2084 
L 3206 2541 
L 1475 2541 
L 1475 2084 
z
M 1475 2903 
L 3206 2903 
L 3206 3347 
L 1475 3347 
L 1475 2903 
z
M 1475 3709 
L 3206 3709 
L 3206 4153 
L 1475 4153 
L 1475 3709 
z
" transform="scale(0.015625)"/>
      <path id="MicrosoftYaHei-88c5" d="M 3700 241 
Q 3694 -34 3700 -253 
Q 2869 -491 2375 -666 
Q 2188 -734 1925 -872 
L 1650 -491 
Q 1800 -366 1800 -59 
L 1800 425 
Q 1163 53 363 -247 
Q 244 -22 81 197 
Q 1750 734 2716 1634 
L 163 1634 
L 163 2072 
L 3091 2072 
Q 2941 2313 2794 2522 
L 3194 2766 
Q 3406 2453 3588 2191 
L 3388 2072 
L 6275 2072 
L 6275 1634 
L 3428 1634 
Q 3688 1125 4113 756 
Q 4809 1091 5488 1466 
L 5750 1009 
Q 5128 763 4484 481 
Q 5213 19 6306 -141 
Q 6119 -391 5963 -609 
Q 3938 -213 3069 1381 
Q 2713 1028 2263 716 
L 2263 -197 
Q 3006 9 3700 241 
z
M 2825 3228 
L 4181 3228 
L 4181 4059 
L 2606 4059 
L 2606 4491 
L 4181 4491 
L 4181 5334 
L 4650 5334 
L 4650 4491 
L 6263 4491 
L 6263 4059 
L 4650 4059 
L 4650 3228 
L 6050 3228 
L 6050 2797 
L 2825 2797 
L 2825 3228 
z
M 1863 5347 
L 2325 5347 
L 2325 2466 
L 1863 2466 
L 1863 3425 
Q 1188 3038 450 2603 
Q 381 2747 194 3066 
Q 1084 3519 1863 3963 
L 1863 5347 
z
M 363 4728 
L 694 5053 
Q 1263 4584 1550 4297 
L 1175 3934 
Q 725 4416 363 4728 
z
" transform="scale(0.015625)"/>
      <path id="MicrosoftYaHei-7bb1" d="M 2838 3316 
L 5888 3316 
L 5888 -822 
L 5431 -822 
L 5431 -459 
L 3294 -459 
L 3294 -822 
L 2838 -822 
L 2838 3316 
z
M 81 478 
Q 844 1434 1138 2359 
L 238 2359 
L 238 2772 
L 1213 2772 
L 1213 3628 
L 1650 3628 
L 1650 2772 
L 2488 2772 
L 2488 2359 
L 1650 2359 
L 1650 1641 
L 1856 1853 
Q 2306 1472 2644 1141 
L 2325 816 
Q 2006 1166 1650 1497 
L 1650 -841 
L 1213 -841 
L 1213 1584 
Q 856 697 300 -28 
Q 213 197 81 478 
z
M 2125 3459 
Q 1863 3803 1600 4091 
L 1875 4297 
L 1231 4297 
Q 856 3791 388 3384 
Q 263 3534 75 3722 
Q 850 4353 1300 5309 
L 1838 5309 
Q 1681 4978 1494 4684 
L 3325 4684 
L 3325 4297 
L 1950 4297 
Q 2169 4072 2475 3728 
L 2125 3459 
z
M 4913 3397 
Q 4644 3747 4356 4053 
L 4663 4297 
L 4038 4297 
Q 3756 3822 3463 3484 
Q 3306 3622 3081 3791 
Q 3613 4359 4013 5309 
L 4550 5309 
Q 4400 4972 4250 4684 
L 6225 4684 
L 6225 4297 
L 4694 4297 
Q 5025 3966 5269 3678 
L 4913 3397 
z
M 3294 -47 
L 5431 -47 
L 5431 703 
L 3294 703 
L 3294 -47 
z
M 5431 2903 
L 3294 2903 
L 3294 2191 
L 5431 2191 
L 5431 2903 
z
M 3294 1091 
L 5431 1091 
L 5431 1803 
L 3294 1803 
L 3294 1091 
z
" transform="scale(0.015625)"/>
      <path id="MicrosoftYaHei-6447" d="M 5900 734 
L 5900 -847 
L 5444 -847 
L 5444 -541 
L 2313 -541 
L 2313 734 
L 2769 734 
L 2769 -128 
L 3875 -128 
L 3875 1147 
L 1825 1147 
L 1825 1572 
L 3875 1572 
L 3875 2403 
L 2872 2403 
Q 2644 2000 2413 1703 
Q 2250 1841 2019 1953 
Q 2469 2484 2763 3222 
L 3231 3097 
Q 3163 2950 3094 2816 
L 5963 2816 
L 5963 2403 
L 4338 2403 
L 4338 1572 
L 6300 1572 
L 6300 1147 
L 4338 1147 
L 4338 -128 
L 5444 -128 
L 5444 734 
L 5900 734 
z
M 88 2016 
Q 491 2184 875 2363 
L 875 3728 
L 131 3728 
L 131 4166 
L 875 4166 
L 875 5316 
L 1331 5316 
L 1331 4166 
L 2050 4166 
L 2050 3728 
L 1331 3728 
L 1331 2584 
Q 1672 2753 1994 2934 
Q 2013 2622 2044 2434 
Q 2003 2413 1331 2069 
L 1331 -103 
Q 1331 -741 800 -772 
Q 538 -784 231 -778 
Q 206 -528 156 -259 
Q 463 -284 625 -284 
Q 875 -284 875 -16 
L 875 1834 
Q 556 1672 150 1466 
L 88 2016 
z
M 2175 4409 
Q 2138 4622 2088 4853 
Q 4163 4909 5950 5084 
L 6038 4634 
Q 4750 4516 2175 4409 
z
M 4856 3334 
Q 5219 3859 5519 4397 
L 5944 4153 
Q 5563 3516 5225 3084 
L 4856 3334 
z
M 3613 4172 
L 4013 4341 
Q 4238 3928 4413 3441 
L 3988 3272 
Q 3881 3597 3613 4172 
z
M 2244 4016 
L 2638 4222 
Q 2925 3741 3069 3434 
L 2644 3222 
Q 2513 3534 2244 4016 
z
" transform="scale(0.015625)"/>
      <path id="MicrosoftYaHei-6446" d="M 2188 5016 
L 5938 5016 
L 5938 3028 
L 5513 3028 
L 5513 3209 
L 2613 3209 
L 2613 3028 
L 2188 3028 
L 2188 5016 
z
M 4538 466 
L 4869 728 
Q 5550 78 6100 -559 
L 5719 -866 
Q 5594 -703 5341 -416 
Q 3622 -469 2869 -522 
Q 2556 -553 2319 -616 
L 2106 -147 
Q 2381 -28 2613 153 
Q 3006 503 3397 959 
L 1900 959 
L 1900 1372 
L 3813 1372 
L 3813 2072 
L 2350 2072 
L 2350 2484 
L 3813 2484 
L 3813 3053 
L 4275 3053 
L 4275 2484 
L 5788 2484 
L 5788 2072 
L 4275 2072 
L 4275 1372 
L 6244 1372 
L 6244 959 
L 4013 959 
Q 3469 366 3013 -53 
Q 4188 -38 4984 -19 
Q 4784 200 4538 466 
z
M 100 1966 
Q 513 2078 906 2197 
L 906 3647 
L 150 3647 
L 150 4066 
L 906 4066 
L 906 5272 
L 1369 5272 
L 1369 4066 
L 1981 4066 
L 1981 3647 
L 1369 3647 
L 1369 2338 
Q 1694 2441 2006 2547 
Q 2013 2266 2044 2059 
Q 1691 1947 1369 1838 
L 1369 -78 
Q 1369 -716 831 -747 
Q 550 -759 213 -753 
Q 181 -509 131 -234 
Q 438 -272 644 -272 
Q 906 -272 906 16 
L 906 1684 
Q 509 1550 163 1428 
L 100 1966 
z
M 5513 4616 
L 4813 4616 
L 4813 3609 
L 5513 3609 
L 5513 4616 
z
M 3713 3609 
L 4400 3609 
L 4400 4616 
L 3713 4616 
L 3713 3609 
z
M 2613 3609 
L 3300 3609 
L 3300 4616 
L 2613 4616 
L 2613 3609 
z
" transform="scale(0.015625)"/>
      <path id="MicrosoftYaHei-5bfc" d="M 1750 2547 
L 5025 2547 
Q 5531 2547 5606 2866 
Q 5681 3128 5744 3559 
Q 5950 3466 6238 3366 
Q 6144 2941 6063 2672 
Q 5900 2109 5144 2109 
L 1650 2109 
Q 819 2109 819 2916 
L 819 5016 
L 5306 5016 
L 5306 3116 
L 4825 3116 
L 4825 3328 
L 1300 3328 
L 1300 2966 
Q 1300 2547 1750 2547 
z
M 94 1472 
L 4456 1472 
L 4456 1928 
L 4963 1928 
L 4963 1472 
L 6313 1472 
L 6313 1028 
L 4963 1028 
L 4963 9 
Q 4963 -734 4150 -734 
Q 3844 -734 3150 -728 
Q 3119 -497 3056 -191 
Q 3631 -234 4006 -234 
Q 4456 -234 4456 153 
L 4456 1028 
L 94 1028 
L 94 1472 
z
M 1300 4584 
L 1300 3759 
L 4825 3759 
L 4825 4584 
L 1300 4584 
z
M 1269 684 
L 1575 1009 
Q 2269 466 2613 153 
L 2250 -216 
Q 1675 334 1269 684 
z
" transform="scale(0.015625)"/>
      <path id="MicrosoftYaHei-81f4" d="M 3006 3053 
Q 3606 4109 3994 5366 
L 4450 5209 
Q 4269 4694 4066 4216 
L 6213 4216 
L 6213 3772 
L 5638 3772 
Q 5575 1784 4875 725 
Q 5463 47 6344 -353 
Q 6138 -603 5963 -809 
Q 5088 -306 4572 316 
Q 4044 -306 3025 -872 
Q 2925 -716 2713 -453 
Q 3778 94 4284 697 
Q 3663 1581 3509 3078 
Q 3409 2897 3306 2722 
Q 3194 2859 3006 3053 
z
M 188 4978 
L 3138 4978 
L 3138 4534 
L 1706 4534 
Q 1266 3628 938 3097 
Q 1694 3134 2288 3169 
Q 2116 3544 1931 3909 
L 2325 4097 
Q 2763 3278 3119 2478 
Q 2875 2359 2675 2266 
Q 2575 2516 2469 2763 
Q 1550 2691 856 2622 
Q 606 2578 413 2516 
L 181 2947 
Q 406 3072 556 3297 
Q 863 3791 1191 4534 
L 188 4534 
L 188 4978 
z
M 106 47 
Q 738 106 1388 175 
L 1388 1234 
L 244 1234 
L 244 1678 
L 1388 1678 
L 1388 2459 
L 1875 2459 
L 1875 1678 
L 3063 1678 
L 3063 1234 
L 1875 1234 
L 1875 231 
Q 2488 303 3119 384 
Q 3125 253 3150 -59 
Q 1813 -241 231 -434 
L 106 47 
z
M 4575 1109 
Q 5109 2028 5153 3772 
L 3891 3772 
Q 3978 1997 4575 1109 
z
" transform="scale(0.015625)"/>
      <path id="MicrosoftYaHei-5171" d="M 125 1847 
L 1738 1847 
L 1738 3572 
L 375 3572 
L 375 4047 
L 1738 4047 
L 1738 5247 
L 2250 5247 
L 2250 4047 
L 4144 4047 
L 4144 5253 
L 4656 5253 
L 4656 4047 
L 6025 4047 
L 6025 3572 
L 4656 3572 
L 4656 1847 
L 6275 1847 
L 6275 1372 
L 125 1372 
L 125 1847 
z
M 2250 1847 
L 4144 1847 
L 4144 3572 
L 2250 3572 
L 2250 1847 
z
M 2219 1053 
L 2606 653 
Q 1569 -103 444 -747 
Q 306 -547 113 -316 
Q 1206 266 2219 1053 
z
M 3744 622 
L 4063 1016 
Q 5138 378 6131 -303 
L 5769 -759 
Q 4781 -16 3744 622 
z
" transform="scale(0.015625)"/>
      <path id="MicrosoftYaHei-632f" d="M 5813 1934 
L 6138 1572 
Q 5619 1197 5038 816 
Q 5531 59 6331 -284 
Q 6213 -428 5981 -728 
Q 4481 103 4044 2128 
L 3606 2128 
L 3606 -97 
Q 4000 84 4519 353 
Q 4538 141 4594 -103 
Q 4094 -347 3744 -528 
Q 3463 -678 3263 -834 
L 2950 -422 
Q 3169 -197 3156 128 
L 3156 2128 
L 2725 2128 
Q 2669 259 1913 -822 
Q 1738 -616 1544 -459 
Q 2256 547 2256 2497 
L 2256 4909 
L 6113 4909 
L 6113 4484 
L 2731 4484 
L 2731 2553 
L 6175 2553 
L 6175 2128 
L 4488 2128 
Q 4619 1603 4831 1178 
Q 5350 1559 5813 1934 
z
M 88 1972 
Q 469 2084 875 2216 
L 875 3672 
L 144 3672 
L 144 4097 
L 875 4097 
L 875 5259 
L 1350 5259 
L 1350 4097 
L 2013 4097 
L 2013 3672 
L 1350 3672 
L 1350 2378 
Q 1663 2497 2000 2622 
Q 2000 2322 2013 2134 
Q 1688 2016 1350 1897 
L 1350 -109 
Q 1350 -766 794 -784 
Q 513 -797 156 -791 
Q 119 -528 75 -272 
Q 419 -309 638 -309 
Q 875 -309 875 -72 
L 875 1722 
Q 519 1591 156 1453 
L 88 1972 
z
M 3088 3716 
L 5881 3716 
L 5881 3291 
L 3088 3291 
L 3088 3716 
z
" transform="scale(0.015625)"/>
     </defs>
     <use xlink:href="#MicrosoftYaHei-96c6"/>
     <use xlink:href="#MicrosoftYaHei-88c5" x="100"/>
     <use xlink:href="#MicrosoftYaHei-7bb1" x="200"/>
     <use xlink:href="#MicrosoftYaHei-6447" x="300"/>
     <use xlink:href="#MicrosoftYaHei-6446" x="400"/>
     <use xlink:href="#MicrosoftYaHei-5bfc" x="500"/>
     <use xlink:href="#MicrosoftYaHei-81f4" x="600"/>
     <use xlink:href="#MicrosoftYaHei-5171" x="700"/>
     <use xlink:href="#MicrosoftYaHei-632f" x="800"/>
    </g>
   </g>
   <g id="text_22">
    <!-- 吊具与集装箱短暂脱钩 -->
    <g transform="translate(248.145 276.894571)scale(0.12 -0.12)">
     <defs>
      <path id="MicrosoftYaHei-5177" d="M 94 1022 
L 956 1022 
L 956 5041 
L 5438 5041 
L 5438 1022 
L 6288 1022 
L 6288 572 
L 94 572 
L 94 1022 
z
M 1438 1022 
L 4956 1022 
L 4956 1609 
L 1438 1609 
L 1438 1022 
z
M 4956 4591 
L 1438 4591 
L 1438 4016 
L 4956 4016 
L 4956 4591 
z
M 1438 3022 
L 4956 3022 
L 4956 3597 
L 1438 3597 
L 1438 3022 
z
M 1438 2028 
L 4956 2028 
L 4956 2603 
L 1438 2603 
L 1438 2028 
z
M 3719 -9 
L 3981 403 
Q 5075 72 6200 -347 
L 5956 -841 
Q 5106 -466 3719 -9 
z
M 2319 441 
L 2619 28 
Q 1519 -478 400 -872 
Q 306 -666 169 -403 
Q 1131 -116 2319 441 
z
" transform="scale(0.015625)"/>
      <path id="MicrosoftYaHei-4e0e" d="M 1163 2384 
L 1163 2859 
L 1413 5328 
L 1931 5328 
L 1834 4334 
L 6269 4334 
L 6269 3859 
L 1791 3859 
L 1694 2859 
L 5813 2859 
Q 5738 1547 5644 416 
Q 5556 -247 5263 -478 
Q 4981 -703 4322 -703 
Q 3706 -697 2900 -678 
Q 2863 -466 2794 -134 
Q 3744 -203 4213 -209 
Q 5050 -266 5125 447 
Q 5206 1278 5263 2384 
L 1163 2384 
z
M 106 1409 
L 4738 1409 
L 4738 934 
L 106 934 
L 106 1409 
z
" transform="scale(0.015625)"/>
      <path id="MicrosoftYaHei-77ed" d="M 2719 3816 
L 5844 3816 
L 5844 1541 
L 5388 1541 
L 5388 1716 
L 3175 1716 
L 3175 1541 
L 2719 1541 
L 2719 3816 
z
M 81 2591 
L 1131 2591 
L 1131 3947 
L 819 3947 
Q 666 3488 500 3116 
Q 238 3222 63 3278 
Q 469 4178 738 5341 
L 1188 5247 
Q 1075 4784 953 4378 
L 2388 4378 
L 2388 3947 
L 1581 3947 
L 1581 2591 
L 2475 2591 
L 2475 2159 
L 1572 2159 
Q 1556 1797 1506 1466 
L 1819 1634 
Q 2194 1041 2581 303 
L 2125 53 
Q 1850 656 1478 1300 
Q 1234 -28 406 -834 
Q 281 -666 88 -441 
Q 1028 522 1119 2159 
L 81 2159 
L 81 2591 
z
M 5388 3384 
L 3175 3384 
L 3175 2147 
L 5388 2147 
L 5388 3384 
z
M 2238 -153 
L 4463 -153 
Q 4903 678 5200 1391 
L 5713 1153 
Q 5331 459 4975 -153 
L 6269 -153 
L 6269 -591 
L 2238 -591 
L 2238 -153 
z
M 2438 5009 
L 6194 5009 
L 6194 4572 
L 2438 4572 
L 2438 5009 
z
M 2906 1184 
L 3325 1409 
Q 3694 809 3988 241 
L 3519 -3 
Q 3213 647 2906 1184 
z
" transform="scale(0.015625)"/>
      <path id="MicrosoftYaHei-6682" d="M 1063 1822 
L 5331 1822 
L 5331 -828 
L 4881 -828 
L 4881 -553 
L 1513 -553 
L 1513 -828 
L 1063 -828 
L 1063 1822 
z
M 881 3684 
L 1656 3684 
L 1656 4147 
L 2094 4147 
L 2094 3684 
L 3100 3684 
L 3100 3309 
L 2094 3309 
L 2094 2844 
Q 2616 2875 3081 2909 
Q 3056 2691 3044 2503 
Q 2578 2481 2094 2453 
L 2094 1953 
L 1656 1953 
L 1656 2428 
Q 928 2381 156 2322 
L 106 2747 
Q 931 2778 1656 2819 
L 1656 3309 
L 375 3309 
L 375 3691 
Q 594 4006 806 4391 
L 150 4391 
L 150 4766 
L 997 4766 
Q 1144 5066 1288 5403 
L 1719 5259 
Q 1600 5009 1475 4766 
L 3163 4766 
L 3163 4391 
L 1281 4391 
Q 1088 4028 881 3684 
z
M 3494 4859 
Q 4750 4872 5988 5078 
L 6131 4666 
Q 4950 4534 3925 4484 
L 3925 3691 
L 6231 3691 
L 6231 3316 
L 5338 3316 
L 5338 2003 
L 4900 2003 
L 4900 3316 
L 3894 3316 
Q 3778 2463 3281 1897 
Q 3131 2041 2931 2209 
Q 3494 2791 3494 3859 
L 3494 4859 
z
M 1513 -166 
L 4881 -166 
L 4881 453 
L 1513 453 
L 1513 -166 
z
M 4881 1434 
L 1513 1434 
L 1513 822 
L 4881 822 
L 4881 1434 
z
" transform="scale(0.015625)"/>
      <path id="MicrosoftYaHei-8131" d="M 2750 4066 
L 4344 4066 
Q 4850 4831 5125 5353 
L 5588 5078 
Q 5169 4472 4859 4066 
L 5781 4066 
L 5781 1591 
L 5319 1591 
L 5319 1766 
L 4900 1766 
L 4900 59 
Q 4900 -228 5175 -228 
L 5506 -228 
Q 5744 -228 5781 47 
Q 5825 359 5844 816 
Q 6044 747 6313 678 
Q 6275 259 6213 -141 
Q 6150 -659 5544 -659 
L 4981 -659 
Q 4450 -659 4450 -3 
L 4450 1766 
L 3950 1766 
Q 3919 794 3656 303 
Q 3356 -297 2588 -822 
Q 2425 -566 2288 -403 
Q 2988 41 3244 553 
Q 3478 978 3503 1766 
L 3213 1766 
L 3213 1591 
L 2750 1591 
L 2750 4066 
z
M 481 4941 
L 2156 4941 
L 2156 -128 
Q 2156 -734 1569 -734 
Q 1250 -734 988 -716 
Q 969 -534 913 -278 
Q 1231 -322 1456 -322 
Q 1719 -322 1719 -41 
L 1719 1378 
L 919 1378 
Q 925 -172 406 -822 
Q 269 -641 63 -472 
Q 481 166 481 1222 
L 481 4941 
z
M 5319 3634 
L 3213 3634 
L 3213 2197 
L 5319 2197 
L 5319 3634 
z
M 919 1766 
L 1719 1766 
L 1719 2959 
L 919 2959 
L 919 1766 
z
M 1719 4534 
L 919 4534 
L 919 3347 
L 1719 3347 
L 1719 4534 
z
M 2938 5066 
L 3294 5347 
Q 3594 5003 3988 4491 
L 3581 4191 
Q 3219 4722 2938 5066 
z
" transform="scale(0.015625)"/>
      <path id="MicrosoftYaHei-94a9" d="M 2238 3141 
Q 2919 4172 3269 5316 
L 3756 5178 
Q 3606 4763 3441 4378 
L 6075 4378 
Q 5988 1203 5956 372 
Q 5900 -691 4919 -691 
Q 4250 -691 3769 -666 
Q 3731 -416 3669 -134 
Q 4250 -203 4813 -203 
Q 5444 -203 5469 478 
Q 5513 1378 5575 3928 
L 3238 3928 
Q 2947 3322 2613 2803 
Q 2413 3009 2238 3141 
z
M 2313 534 
Q 2313 259 2344 16 
Q 1844 -253 1394 -522 
Q 1281 -597 1131 -734 
L 800 -303 
Q 1000 -97 1000 166 
L 1000 1603 
L 144 1603 
L 144 2034 
L 1000 2034 
L 1000 2859 
L 563 2859 
L 563 3256 
Q 456 3091 350 2934 
Q 231 3159 88 3409 
Q 694 4272 1056 5341 
L 1525 5184 
Q 1356 4763 1172 4378 
L 2388 4378 
L 2388 3947 
L 959 3947 
Q 778 3600 584 3291 
L 2169 3291 
L 2169 2859 
L 1456 2859 
L 1456 2034 
L 2413 2034 
L 2413 1603 
L 1456 1603 
L 1456 41 
Q 1869 272 2313 534 
z
M 3913 2303 
L 4306 2509 
Q 4869 1516 5275 659 
L 4819 416 
Q 4716 656 4613 884 
Q 3859 834 3100 778 
Q 2906 759 2550 684 
L 2338 1134 
Q 2544 1266 2675 1472 
Q 3206 2366 3631 3453 
L 4106 3259 
Q 3550 2109 3031 1228 
Q 3653 1244 4425 1288 
Q 4172 1825 3913 2303 
z
" transform="scale(0.015625)"/>
     </defs>
     <use xlink:href="#MicrosoftYaHei-540a"/>
     <use xlink:href="#MicrosoftYaHei-5177" x="100"/>
     <use xlink:href="#MicrosoftYaHei-4e0e" x="200"/>
     <use xlink:href="#MicrosoftYaHei-96c6" x="300"/>
     <use xlink:href="#MicrosoftYaHei-88c5" x="400"/>
     <use xlink:href="#MicrosoftYaHei-7bb1" x="500"/>
     <use xlink:href="#MicrosoftYaHei-77ed" x="600"/>
     <use xlink:href="#MicrosoftYaHei-6682" x="700"/>
     <use xlink:href="#MicrosoftYaHei-8131" x="800"/>
     <use xlink:href="#MicrosoftYaHei-94a9" x="900"/>
    </g>
   </g>
   <g id="text_23">
    <!-- 分段式载荷补偿 -->
    <g transform="translate(468.165 203.467681)scale(0.12 -0.12)">
     <defs>
      <path id="MicrosoftYaHei-5206" d="M 900 2559 
L 5056 2559 
Q 5025 1497 4963 484 
Q 4888 -684 3856 -678 
Q 3350 -684 2788 -647 
Q 2750 -384 2700 -116 
Q 3181 -184 3775 -191 
Q 4400 -203 4463 541 
Q 4513 1216 4538 2097 
L 2616 2097 
Q 2541 1053 2181 416 
Q 1706 -422 588 -878 
Q 425 -666 231 -459 
Q 1269 -72 1725 666 
Q 2053 1225 2103 2097 
L 900 2097 
L 900 2559 
z
M 3488 5159 
L 3938 5353 
Q 4625 3678 6350 2847 
Q 6069 2553 5944 2372 
Q 4225 3366 3488 5159 
z
M 50 2766 
Q 1338 3678 2250 5253 
L 2694 5009 
Q 1744 3347 413 2341 
Q 281 2534 50 2766 
z
" transform="scale(0.015625)"/>
      <path id="MicrosoftYaHei-6bb5" d="M 2844 1978 
L 2844 2422 
L 5763 2422 
L 5763 1953 
Q 5397 1069 4731 416 
Q 5378 -63 6338 -266 
Q 6144 -516 6019 -747 
Q 5031 -456 4359 88 
Q 3638 -488 2631 -853 
Q 2450 -559 2331 -422 
Q 3313 -75 3997 428 
Q 3400 1069 3138 1978 
L 2844 1978 
z
M 88 722 
Q 325 744 569 769 
L 569 4897 
Q 1931 4972 2719 5116 
L 2888 4653 
Q 2175 4559 1031 4484 
L 1031 3616 
L 2613 3616 
L 2613 3203 
L 1031 3203 
L 1031 2259 
L 2594 2259 
L 2594 1847 
L 1031 1847 
L 1031 819 
Q 1891 916 2838 1041 
Q 2831 916 2831 591 
Q 1894 484 1031 366 
L 1031 -816 
L 569 -816 
L 569 303 
Q 381 275 200 247 
L 88 722 
z
M 5738 3209 
Q 5981 3209 6306 3228 
L 6219 2759 
Q 5906 2747 5625 2747 
Q 4988 2747 4988 3459 
L 4988 4553 
L 3831 4553 
L 3831 4216 
Q 3831 3053 2938 2522 
Q 2781 2709 2600 2909 
Q 3363 3272 3363 4241 
L 3363 4997 
L 5456 4997 
L 5456 3497 
Q 5456 3209 5738 3209 
z
M 5256 1978 
L 3613 1978 
Q 3863 1241 4363 731 
Q 4956 1275 5256 1978 
z
" transform="scale(0.015625)"/>
      <path id="MicrosoftYaHei-5f0f" d="M 94 4122 
L 3569 4122 
Q 3544 4700 3531 5347 
L 4063 5347 
Q 4059 4728 4081 4122 
L 6231 4122 
L 6231 3653 
L 4103 3653 
Q 4225 503 5156 -172 
Q 5494 -447 5631 -22 
Q 5725 303 5800 941 
Q 6094 834 6306 778 
Q 6188 47 6050 -403 
Q 5900 -834 5475 -834 
Q 5044 -834 4619 -397 
Q 3725 553 3597 3653 
L 94 3653 
L 94 4122 
z
M 119 159 
Q 825 244 1569 344 
L 1569 2097 
L 350 2097 
L 350 2566 
L 3288 2566 
L 3288 2097 
L 2081 2097 
L 2081 416 
Q 2809 519 3575 634 
Q 3563 391 3563 128 
Q 1681 -141 244 -366 
L 119 159 
z
M 4544 4978 
L 4844 5297 
Q 5294 4972 5756 4559 
L 5400 4191 
Q 5000 4597 4544 4978 
z
" transform="scale(0.015625)"/>
      <path id="MicrosoftYaHei-8f7d" d="M 2881 -416 
Q 3622 91 4213 806 
Q 3894 1769 3806 3234 
L 125 3234 
L 125 3653 
L 1681 3653 
L 1681 4234 
L 381 4234 
L 381 4628 
L 1681 4628 
L 1681 5266 
L 2144 5266 
L 2144 4628 
L 3375 4628 
L 3375 4234 
L 2144 4234 
L 2144 3653 
L 3781 3653 
Q 3744 4397 3713 5297 
L 4194 5297 
Q 4197 4419 4241 3653 
L 6319 3653 
L 6319 3234 
L 4266 3234 
Q 4331 2081 4563 1269 
Q 5034 1941 5394 2766 
L 5825 2566 
Q 5344 1531 4744 738 
Q 4938 278 5200 -34 
Q 5363 -222 5500 -222 
Q 5669 -222 5725 28 
Q 5800 366 5869 878 
Q 6119 766 6319 709 
Q 6238 178 6138 -234 
Q 5981 -791 5581 -791 
Q 5125 -791 4713 -209 
Q 4544 22 4406 319 
Q 3869 -297 3250 -741 
Q 3063 -528 2881 -416 
z
M 1006 1472 
L 1863 1472 
L 1863 2047 
L 2306 2047 
L 2306 1472 
L 3488 1472 
L 3488 1078 
L 2306 1078 
L 2306 497 
Q 2878 544 3513 597 
Q 3494 397 3494 191 
Q 2931 153 2306 100 
L 2306 -816 
L 1863 -816 
L 1863 59 
Q 1128 -3 313 -91 
L 213 359 
Q 956 400 1863 466 
L 1863 1078 
L 488 1078 
L 488 1484 
Q 741 1813 984 2216 
L 275 2216 
L 275 2609 
L 1213 2609 
Q 1366 2888 1513 3197 
L 1975 3053 
Q 1847 2819 1725 2609 
L 3538 2609 
L 3538 2216 
L 1491 2216 
Q 1231 1791 1006 1472 
z
M 4613 4841 
L 4919 5147 
Q 5550 4672 5944 4303 
L 5588 3941 
Q 5163 4397 4613 4841 
z
" transform="scale(0.015625)"/>
      <path id="MicrosoftYaHei-8377" d="M 2175 3503 
L 6231 3503 
L 6231 3066 
L 5556 3066 
L 5556 116 
Q 5556 -716 4744 -716 
L 3856 -716 
Q 3831 -528 3744 -197 
Q 4238 -241 4619 -241 
Q 5069 -241 5069 241 
L 5069 3066 
L 2175 3066 
L 2175 3503 
z
M 2350 2422 
L 4350 2422 
L 4350 541 
L 2813 541 
L 2813 209 
L 2350 209 
L 2350 2422 
z
M 219 4728 
L 1975 4728 
L 1975 5328 
L 2463 5328 
L 2463 4728 
L 4013 4728 
L 4013 5328 
L 4500 5328 
L 4500 4728 
L 6275 4728 
L 6275 4278 
L 4500 4278 
L 4500 3828 
L 4013 3828 
L 4013 4278 
L 2463 4278 
L 2463 3859 
L 1975 3859 
L 1975 4278 
L 219 4278 
L 219 4728 
z
M 69 1653 
Q 1006 2628 1538 3847 
L 2006 3659 
Q 1759 3169 1506 2744 
L 1506 -797 
L 1019 -797 
L 1019 2006 
Q 688 1553 344 1209 
Q 225 1409 69 1653 
z
M 3888 966 
L 3888 1997 
L 2813 1997 
L 2813 966 
L 3888 966 
z
" transform="scale(0.015625)"/>
      <path id="MicrosoftYaHei-8865" d="M 163 3616 
L 163 4078 
L 2450 4078 
L 2450 3603 
Q 2106 3072 1700 2591 
L 1700 2228 
Q 1813 2147 1931 2066 
Q 2388 2516 2781 3009 
L 3169 2666 
Q 2681 2222 2256 1841 
Q 2650 1566 3031 1291 
L 2725 872 
Q 2156 1347 1700 1697 
L 1700 -841 
L 1194 -841 
L 1194 2047 
Q 750 1609 244 1228 
Q 163 1509 75 1766 
Q 1181 2597 1875 3616 
L 163 3616 
z
M 3775 5266 
L 4294 5266 
L 4294 3184 
L 4613 3434 
Q 5569 2584 6331 1784 
L 5888 1372 
Q 5194 2203 4294 3053 
L 4294 -841 
L 3775 -841 
L 3775 5266 
z
M 1038 5059 
L 1475 5278 
Q 1706 4909 1963 4422 
L 1500 4184 
Q 1256 4691 1038 5059 
z
" transform="scale(0.015625)"/>
      <path id="MicrosoftYaHei-507f" d="M 4481 622 
L 4825 897 
Q 5619 122 6125 -453 
L 5769 -766 
Q 5625 -603 5488 -447 
Q 4503 -488 2800 -566 
Q 2388 -584 2125 -641 
L 1975 -197 
Q 2213 -128 2444 103 
Q 2853 525 3325 1109 
L 1906 1109 
L 1906 1541 
L 6088 1541 
L 6088 1109 
L 3900 1109 
Q 3341 444 2750 -141 
Q 3959 -94 5109 -34 
Q 4788 313 4481 622 
z
M 69 2272 
Q 938 3528 1419 5303 
L 1900 5166 
Q 1650 4356 1356 3666 
L 1356 -791 
L 894 -791 
L 894 2706 
Q 606 2181 288 1747 
Q 206 1978 69 2272 
z
M 1850 3784 
L 3769 3784 
L 3769 5253 
L 4231 5253 
L 4231 3784 
L 6194 3784 
L 6194 2653 
L 5744 2653 
L 5744 3353 
L 2306 3353 
L 2306 2653 
L 1850 2653 
L 1850 3784 
z
M 2575 2641 
L 5450 2641 
L 5450 2209 
L 2575 2209 
L 2575 2641 
z
M 5850 4778 
Q 5506 4347 5113 3922 
L 4756 4222 
Q 5119 4566 5469 5059 
L 5850 4778 
z
M 2225 4747 
L 2569 5022 
Q 2913 4709 3300 4247 
L 2925 3941 
Q 2600 4378 2225 4747 
z
" transform="scale(0.015625)"/>
     </defs>
     <use xlink:href="#MicrosoftYaHei-5206"/>
     <use xlink:href="#MicrosoftYaHei-6bb5" x="100"/>
     <use xlink:href="#MicrosoftYaHei-5f0f" x="200"/>
     <use xlink:href="#MicrosoftYaHei-8f7d" x="300"/>
     <use xlink:href="#MicrosoftYaHei-8377" x="400"/>
     <use xlink:href="#MicrosoftYaHei-8865" x="500"/>
     <use xlink:href="#MicrosoftYaHei-507f" x="600"/>
    </g>
   </g>
   <g id="text_24">
    <!-- 海风扰动 -->
    <g transform="translate(706.52 166.754237)scale(0.12 -0.12)">
     <defs>
      <path id="MicrosoftYaHei-6d77" d="M 1475 2191 
L 2116 2191 
L 2338 3753 
L 5706 3753 
Q 5688 2884 5669 2191 
L 6325 2191 
L 6325 1753 
L 5653 1753 
Q 5634 1078 5616 603 
L 6125 603 
L 6125 178 
L 5588 178 
Q 5534 -281 5338 -509 
Q 5113 -766 4538 -766 
Q 4213 -766 3700 -741 
Q 3669 -528 3613 -234 
Q 4219 -291 4544 -291 
Q 5016 -291 5106 178 
L 1894 178 
L 1894 641 
L 2053 1753 
L 1475 1753 
L 1475 2191 
z
M 5184 1753 
L 2541 1753 
L 2388 603 
L 5141 603 
Q 5166 1116 5184 1753 
z
M 5225 3328 
L 2750 3328 
L 2597 2191 
L 5197 2191 
Q 5213 2722 5225 3328 
z
M 1425 3553 
Q 2200 4284 2675 5347 
L 3206 5347 
Q 3056 5022 2891 4728 
L 6194 4728 
L 6194 4291 
L 2628 4291 
Q 2225 3663 1744 3184 
Q 1600 3372 1425 3553 
z
M 275 -653 
Q 644 441 913 1741 
Q 1188 1622 1419 1547 
Q 1100 322 825 -822 
L 275 -653 
z
M 88 3253 
L 400 3609 
Q 975 3209 1469 2803 
Q 1244 2547 1106 2403 
Q 550 2903 88 3253 
z
M 325 4916 
L 644 5247 
Q 1019 4959 1688 4378 
Q 1475 4172 1319 4009 
Q 644 4653 325 4916 
z
M 3288 1372 
L 3575 1653 
Q 3994 1334 4356 1009 
L 4031 684 
Q 3663 1041 3288 1372 
z
M 3369 2972 
L 3650 3253 
Q 4050 2947 4438 2616 
L 4119 2291 
Q 3738 2666 3369 2972 
z
" transform="scale(0.015625)"/>
      <path id="MicrosoftYaHei-98ce" d="M 1206 4466 
L 1206 2709 
Q 1206 1297 1056 572 
Q 900 -178 450 -853 
Q 200 -559 75 -422 
Q 425 141 569 816 
Q 700 1447 700 2684 
L 700 4928 
L 5325 4928 
L 5325 1516 
Q 5325 391 5469 -53 
Q 5531 -197 5625 -197 
Q 5725 -197 5756 22 
Q 5806 353 5844 1078 
Q 6131 966 6319 909 
Q 6256 253 6188 -147 
Q 6075 -766 5606 -766 
Q 5256 -766 5025 -297 
Q 4819 134 4819 1503 
L 4819 4466 
L 1206 4466 
z
M 1594 3734 
L 1981 4022 
Q 2497 3313 3038 2534 
Q 3513 3309 3938 4147 
L 4363 3941 
Q 3897 2991 3344 2097 
Q 3956 1206 4600 234 
L 4163 -66 
Q 3584 834 3050 1634 
Q 2438 703 1731 -166 
Q 1575 -28 1325 141 
Q 2084 1053 2750 2078 
Q 2141 2975 1594 3734 
z
" transform="scale(0.015625)"/>
      <path id="MicrosoftYaHei-6270" d="M 2306 3722 
L 3234 3722 
Q 3259 4422 3256 5309 
L 3744 5309 
Q 3744 4434 3716 3722 
L 6169 3722 
L 6169 3253 
L 4663 3253 
L 4663 184 
Q 4663 -178 4969 -178 
L 5319 -178 
Q 5675 -178 5750 197 
Q 5831 591 5863 1128 
Q 6119 1022 6350 941 
Q 6275 384 6206 34 
Q 6081 -647 5400 -647 
L 4875 -647 
Q 4181 -647 4181 141 
L 4181 3253 
L 3694 3253 
Q 3638 641 2244 -872 
Q 2056 -666 1850 -484 
Q 3175 928 3213 3253 
L 2306 3253 
L 2306 3722 
z
M 88 1978 
Q 519 2084 969 2203 
L 969 3609 
L 144 3609 
L 144 4059 
L 969 4059 
L 969 5303 
L 1450 5303 
L 1450 4059 
L 2188 4059 
L 2188 3609 
L 1450 3609 
L 1450 2331 
Q 1825 2434 2213 2547 
Q 2225 2259 2256 2059 
Q 1859 1947 1450 1828 
L 1450 -59 
Q 1450 -759 825 -759 
Q 631 -759 219 -747 
Q 194 -491 138 -228 
Q 531 -272 725 -272 
Q 969 -272 969 34 
L 969 1688 
Q 566 1569 150 1441 
L 88 1978 
z
M 4319 4853 
L 4594 5172 
Q 5138 4797 5638 4391 
L 5319 4022 
Q 4888 4416 4319 4853 
z
" transform="scale(0.015625)"/>
      <path id="MicrosoftYaHei-52a8" d="M 2975 4022 
L 3906 4022 
Q 3916 4650 3913 5309 
L 4425 5309 
Q 4422 4656 4409 4022 
L 6094 4022 
Q 6050 1659 5969 216 
Q 5900 -666 5150 -678 
Q 4763 -678 4306 -659 
Q 4263 -397 4206 -109 
Q 4638 -166 4994 -172 
Q 5456 -172 5475 347 
Q 5569 1897 5588 3547 
L 4400 3547 
Q 4394 3278 4388 3016 
Q 4356 553 2900 -872 
Q 2725 -659 2525 -447 
Q 3831 716 3888 3028 
Q 3894 3284 3900 3547 
L 2975 3547 
L 2975 4022 
z
M 2338 1866 
Q 2731 1016 3063 178 
Q 2788 59 2594 -28 
Q 2550 91 2506 209 
Q 1316 97 338 -16 
L 119 491 
Q 394 647 563 997 
Q 869 1613 1200 2559 
L 144 2559 
L 144 3022 
L 3163 3022 
L 3163 2559 
L 1725 2559 
Q 1191 1228 800 491 
Q 1519 544 2347 631 
Q 2138 1163 1906 1672 
L 2338 1866 
z
M 406 4778 
L 2913 4778 
L 2913 4316 
L 406 4316 
L 406 4778 
z
" transform="scale(0.015625)"/>
     </defs>
     <use xlink:href="#MicrosoftYaHei-6d77"/>
     <use xlink:href="#MicrosoftYaHei-98ce" x="100"/>
     <use xlink:href="#MicrosoftYaHei-6270" x="200"/>
     <use xlink:href="#MicrosoftYaHei-52a8" x="300"/>
    </g>
   </g>
   <g id="legend_1">
    <g id="patch_7">
     <path d="M 744.2 34.279688 
L 846.2 34.279688 
Q 848.2 34.279688 848.2 32.279688 
L 848.2 17.8 
Q 848.2 15.8 846.2 15.8 
L 744.2 15.8 
Q 742.2 15.8 742.2 17.8 
L 742.2 32.279688 
Q 742.2 34.279688 744.2 34.279688 
z
" style="fill: #ffffff; opacity: 0.8; stroke: #cccccc; stroke-linejoin: miter"/>
    </g>
    <g id="line2d_36">
     <path d="M 746.2 24.29375 
L 756.2 24.29375 
L 766.2 24.29375 
" style="fill: none; stroke: #4682b4; stroke-width: 1.5; stroke-linecap: square"/>
    </g>
    <g id="text_25">
     <!-- 张力传感器数据 -->
     <g transform="translate(774.2 27.79375)scale(0.1 -0.1)">
      <defs>
       <path id="MicrosoftYaHei-4f20" d="M 2413 684 
L 2681 1053 
Q 3397 666 4056 278 
L 5269 1472 
L 2606 1472 
L 2606 1916 
Q 2731 2306 2847 2691 
L 1869 2691 
L 1869 3128 
L 2975 3128 
Q 3097 3550 3203 3959 
L 2175 3959 
L 2175 4397 
L 3316 4397 
Q 3425 4831 3519 5253 
L 4056 5253 
Q 3959 4838 3847 4397 
L 6050 4397 
L 6050 3959 
L 3734 3959 
Q 3625 3553 3503 3128 
L 6300 3128 
L 6300 2691 
L 3378 2691 
Q 3266 2306 3144 1909 
L 5906 1909 
L 5906 1453 
L 4481 22 
Q 4869 -209 5238 -447 
L 4913 -872 
Q 3594 34 2413 684 
z
M 88 2241 
Q 963 3528 1469 5297 
L 1975 5147 
Q 1741 4422 1475 3791 
L 1475 -803 
L 981 -803 
L 981 2763 
Q 663 2175 306 1691 
Q 213 1959 88 2241 
z
" transform="scale(0.015625)"/>
       <path id="MicrosoftYaHei-611f" d="M 3531 1422 
Q 4013 1741 4388 2131 
Q 4022 2909 3944 4147 
L 1213 4147 
L 1213 3322 
Q 1213 1803 463 872 
Q 331 1134 138 1347 
Q 763 2034 763 3328 
L 763 4547 
L 3922 4547 
Q 3903 4928 3900 5284 
L 4363 5284 
Q 4363 4928 4378 4547 
L 6200 4547 
L 6200 4147 
L 4400 4147 
Q 4466 3184 4728 2531 
Q 5150 3088 5394 3772 
L 5819 3559 
Q 5456 2741 4947 2103 
Q 5059 1922 5194 1778 
Q 5344 1622 5475 1622 
Q 5594 1622 5669 1822 
Q 5763 2084 5856 2522 
Q 6019 2434 6319 2322 
Q 6175 1766 6069 1503 
Q 5888 1066 5538 1066 
Q 5250 1066 4925 1366 
Q 4756 1522 4616 1725 
Q 4278 1375 3888 1091 
Q 3738 1259 3531 1422 
z
M 1638 2891 
L 3563 2891 
L 3563 1541 
L 2063 1541 
L 2063 1366 
L 1638 1366 
L 1638 2891 
z
M 1713 997 
L 2188 997 
L 2188 134 
Q 2188 -253 2588 -253 
L 3713 -253 
Q 4194 -253 4263 109 
Q 4313 316 4375 778 
Q 4588 691 4869 591 
Q 4788 166 4706 -103 
Q 4556 -691 3813 -691 
L 2488 -691 
Q 1713 -691 1713 78 
L 1713 997 
z
M 1444 3697 
L 3719 3697 
L 3719 3322 
L 1444 3322 
L 1444 3697 
z
M 844 1028 
L 1288 853 
Q 969 47 594 -534 
Q 438 -441 175 -297 
Q 581 291 844 1028 
z
M 3138 1916 
L 3138 2516 
L 2063 2516 
L 2063 1916 
L 3138 1916 
z
M 5113 634 
L 5463 884 
Q 5863 422 6275 -166 
L 5863 -459 
Q 5563 34 5113 634 
z
M 2706 1072 
L 3044 1328 
Q 3456 891 3781 491 
L 3388 191 
Q 3050 678 2706 1072 
z
M 5656 4866 
L 5350 4559 
Q 5081 4809 4763 5066 
L 5038 5353 
Q 5363 5116 5656 4866 
z
" transform="scale(0.015625)"/>
       <path id="MicrosoftYaHei-5668" d="M 300 2691 
L 2825 2691 
Q 2922 2925 2950 3234 
L 3400 3172 
Q 3363 2909 3291 2691 
L 4653 2691 
Q 4403 2872 4125 3047 
L 4381 3328 
Q 4794 3084 5125 2841 
L 4984 2691 
L 6150 2691 
L 6150 2278 
L 3738 2278 
Q 4459 1572 6300 1609 
Q 6150 1353 6044 1128 
Q 5878 1141 5725 1156 
L 5725 -753 
L 5288 -753 
L 5288 -409 
L 3950 -409 
L 3950 -747 
L 3513 -747 
L 3513 1184 
L 5503 1184 
Q 3716 1425 3219 2278 
L 3106 2278 
Q 2756 1534 838 1184 
L 2838 1184 
L 2838 -747 
L 2400 -747 
L 2400 -409 
L 1081 -409 
L 1081 -753 
L 644 -753 
L 644 1147 
Q 478 1116 300 1084 
Q 206 1272 56 1528 
Q 2144 1797 2563 2278 
L 300 2278 
L 300 2691 
z
M 3506 4966 
L 5719 4966 
L 5719 3122 
L 5281 3122 
L 5281 3341 
L 3944 3341 
L 3944 3147 
L 3506 3147 
L 3506 4966 
z
M 638 4966 
L 2831 4966 
L 2831 3147 
L 2394 3147 
L 2394 3341 
L 1075 3341 
L 1075 3084 
L 638 3084 
L 638 4966 
z
M 5281 4578 
L 3944 4578 
L 3944 3728 
L 5281 3728 
L 5281 4578 
z
M 2394 4578 
L 1075 4578 
L 1075 3728 
L 2394 3728 
L 2394 4578 
z
M 5288 797 
L 3950 797 
L 3950 -22 
L 5288 -22 
L 5288 797 
z
M 2400 797 
L 1081 797 
L 1081 -22 
L 2400 -22 
L 2400 797 
z
" transform="scale(0.015625)"/>
       <path id="MicrosoftYaHei-6570" d="M 4175 5303 
L 4675 5228 
Q 4544 4622 4369 4097 
L 6281 4097 
L 6281 3672 
L 5888 3672 
Q 5731 1834 5088 753 
Q 5594 66 6375 -372 
Q 6175 -647 6038 -866 
Q 5275 -372 4769 309 
Q 4194 -403 3400 -928 
Q 3263 -747 3044 -534 
Q 3919 41 4463 772 
Q 3956 1647 3794 2791 
Q 3663 2559 3519 2359 
Q 3394 2541 3206 2759 
Q 3931 3803 4175 5303 
z
M 150 1697 
L 1100 1697 
Q 1238 1934 1369 2184 
L 1819 2041 
Q 1719 1866 1619 1697 
L 3150 1697 
L 3150 1291 
Q 2913 678 2431 216 
Q 2775 53 3131 -109 
L 2856 -541 
Q 2469 -322 2050 -103 
Q 1344 -609 269 -903 
Q 169 -703 56 -466 
Q 969 -259 1600 128 
Q 1063 403 475 691 
Q 675 978 863 1284 
L 150 1284 
L 150 1697 
z
M 219 3847 
L 1656 3847 
L 1656 5247 
L 2119 5247 
L 2119 3847 
L 3319 3847 
L 3319 3434 
L 2119 3434 
L 2119 3053 
L 2306 3266 
Q 2888 2841 3281 2516 
L 2981 2166 
Q 2638 2491 2119 2897 
L 2119 2184 
L 1656 2184 
L 1656 3059 
Q 1088 2466 331 2016 
Q 213 2197 63 2397 
Q 850 2822 1506 3434 
L 219 3434 
L 219 3847 
z
M 5388 3672 
L 4219 3672 
Q 4188 3591 4150 3516 
Q 4263 2191 4775 1247 
Q 5275 2159 5388 3672 
z
M 1088 834 
Q 1531 634 2000 416 
Q 2431 784 2675 1284 
L 1375 1284 
Q 1231 1053 1088 834 
z
M 3038 5091 
L 3425 4834 
Q 3081 4384 2738 4003 
Q 2594 4128 2400 4266 
Q 2725 4647 3038 5091 
z
M 381 4816 
L 738 5059 
Q 1019 4716 1319 4322 
L 931 4047 
Q 656 4453 381 4816 
z
" transform="scale(0.015625)"/>
       <path id="MicrosoftYaHei-636e" d="M 2900 1334 
L 4188 1334 
L 4188 2128 
L 2731 2128 
Q 2663 206 1844 -841 
Q 1694 -647 1506 -447 
Q 2288 516 2288 2509 
L 2288 4947 
L 5975 4947 
L 5975 3134 
L 5525 3134 
L 5525 3328 
L 2738 3328 
L 2738 2553 
L 4188 2553 
L 4188 3209 
L 4638 3209 
L 4638 2553 
L 6288 2553 
L 6288 2128 
L 4638 2128 
L 4638 1334 
L 5938 1334 
L 5938 -778 
L 5488 -778 
L 5488 -416 
L 3350 -416 
L 3350 -778 
L 2900 -778 
L 2900 1334 
z
M 100 1966 
Q 544 2088 963 2213 
L 963 3641 
L 175 3641 
L 175 4091 
L 963 4091 
L 963 5284 
L 1425 5284 
L 1425 4091 
L 2106 4091 
L 2106 3641 
L 1425 3641 
L 1425 2356 
Q 1722 2450 2006 2547 
Q 2013 2266 2044 2059 
Q 1722 1956 1425 1856 
L 1425 -34 
Q 1425 -741 806 -753 
Q 613 -759 231 -747 
Q 206 -497 156 -228 
Q 500 -266 681 -266 
Q 963 -266 963 53 
L 963 1703 
Q 534 1559 163 1428 
L 100 1966 
z
M 5525 4534 
L 2738 4534 
L 2738 3741 
L 5525 3741 
L 5525 4534 
z
M 5488 922 
L 3350 922 
L 3350 -9 
L 5488 -9 
L 5488 922 
z
" transform="scale(0.015625)"/>
      </defs>
      <use xlink:href="#MicrosoftYaHei-5f20"/>
      <use xlink:href="#MicrosoftYaHei-529b" x="100"/>
      <use xlink:href="#MicrosoftYaHei-4f20" x="200"/>
      <use xlink:href="#MicrosoftYaHei-611f" x="300"/>
      <use xlink:href="#MicrosoftYaHei-5668" x="400"/>
      <use xlink:href="#MicrosoftYaHei-6570" x="500"/>
      <use xlink:href="#MicrosoftYaHei-636e" x="600"/>
     </g>
    </g>
   </g>
  </g>
 </g>
 <defs>
  <clipPath id="pedd7cd9bc3">
   <rect x="46.46" y="10.8" width="806.74" height="374.92"/>
  </clipPath>
 </defs>
</svg>
