<?xml version="1.0" encoding="utf-8" standalone="no"?>
<!DOCTYPE svg PUBLIC "-//W3C//DTD SVG 1.1//EN"
  "http://www.w3.org/Graphics/SVG/1.1/DTD/svg11.dtd">
<svg height="271.716484pt" version="1.1" viewBox="0 0 615.677109 271.716484" width="615.677109pt" xmlns="http://www.w3.org/2000/svg" xmlns:xlink="http://www.w3.org/1999/xlink">
 <metadata>
  <rdf:RDF xmlns:cc="http://creativecommons.org/ns#" xmlns:dc="http://purl.org/dc/elements/1.1/" xmlns:rdf="http://www.w3.org/1999/02/22-rdf-syntax-ns#">
   <cc:Work>
    <dc:type rdf:resource="http://purl.org/dc/dcmitype/StillImage"/>
    <dc:date>2025-04-26T17:23:21.657903</dc:date>
    <dc:format>image/svg+xml</dc:format>
    <dc:creator>
     <cc:Agent>
      <dc:title>Matplotlib v3.4.3, https://matplotlib.org/</dc:title>
     </cc:Agent>
    </dc:creator>
   </cc:Work>
  </rdf:RDF>
 </metadata>
 <defs>
  <style type="text/css">*{stroke-linecap:butt;stroke-linejoin:round;}</style>
 </defs>
 <g id="figure_1">
  <g id="patch_1">
   <path d="M 0 271.716484 
L 615.677109 271.716484 
L 615.677109 0 
L 0 0 
z
" style="fill:#ffffff;"/>
  </g>
  <g id="axes_1">
   <g id="patch_2">
    <path d="M 41.301562 232.896797 
L 599.301563 232.896797 
L 599.301563 11.136797 
L 41.301562 11.136797 
z
" style="fill:#ffffff;"/>
   </g>
   <g id="matplotlib.axis_1">
    <g id="xtick_1">
     <g id="line2d_1">
      <path clip-path="url(#p79410de7ff)" d="M 41.301562 232.896797 
L 41.301562 11.136797 
" style="fill:none;stroke:#cccccc;stroke-linecap:round;stroke-opacity:0.5;stroke-width:0.8;"/>
     </g>
     <g id="line2d_2"/>
     <g id="text_1">
      <!-- 0 -->
      <g style="fill:#262626;" transform="translate(38.243047 244.270391)scale(0.11 -0.11)">
       <defs>
        <path d="M 266 2259 
Q 266 3072 433 3567 
Q 600 4063 929 4331 
Q 1259 4600 1759 4600 
Q 2128 4600 2406 4451 
Q 2684 4303 2865 4023 
Q 3047 3744 3150 3342 
Q 3253 2941 3253 2259 
Q 3253 1453 3087 958 
Q 2922 463 2592 192 
Q 2263 -78 1759 -78 
Q 1097 -78 719 397 
Q 266 969 266 2259 
z
M 844 2259 
Q 844 1131 1108 757 
Q 1372 384 1759 384 
Q 2147 384 2411 759 
Q 2675 1134 2675 2259 
Q 2675 3391 2411 3762 
Q 2147 4134 1753 4134 
Q 1366 4134 1134 3806 
Q 844 3388 844 2259 
z
" id="ArialMT-30" transform="scale(0.015625)"/>
       </defs>
       <use xlink:href="#ArialMT-30"/>
      </g>
     </g>
    </g>
    <g id="xtick_2">
     <g id="line2d_3">
      <path clip-path="url(#p79410de7ff)" d="M 152.901562 232.896797 
L 152.901562 11.136797 
" style="fill:none;stroke:#cccccc;stroke-linecap:round;stroke-opacity:0.5;stroke-width:0.8;"/>
     </g>
     <g id="line2d_4"/>
     <g id="text_2">
      <!-- 40 -->
      <g style="fill:#262626;" transform="translate(146.784531 244.270391)scale(0.11 -0.11)">
       <defs>
        <path d="M 2069 0 
L 2069 1097 
L 81 1097 
L 81 1613 
L 2172 4581 
L 2631 4581 
L 2631 1613 
L 3250 1613 
L 3250 1097 
L 2631 1097 
L 2631 0 
L 2069 0 
z
M 2069 1613 
L 2069 3678 
L 634 1613 
L 2069 1613 
z
" id="ArialMT-34" transform="scale(0.015625)"/>
       </defs>
       <use xlink:href="#ArialMT-34"/>
       <use x="55.615234" xlink:href="#ArialMT-30"/>
      </g>
     </g>
    </g>
    <g id="xtick_3">
     <g id="line2d_5">
      <path clip-path="url(#p79410de7ff)" d="M 264.501562 232.896797 
L 264.501562 11.136797 
" style="fill:none;stroke:#cccccc;stroke-linecap:round;stroke-opacity:0.5;stroke-width:0.8;"/>
     </g>
     <g id="line2d_6"/>
     <g id="text_3">
      <!-- 80 -->
      <g style="fill:#262626;" transform="translate(258.384531 244.270391)scale(0.11 -0.11)">
       <defs>
        <path d="M 1131 2484 
Q 781 2613 612 2850 
Q 444 3088 444 3419 
Q 444 3919 803 4259 
Q 1163 4600 1759 4600 
Q 2359 4600 2725 4251 
Q 3091 3903 3091 3403 
Q 3091 3084 2923 2848 
Q 2756 2613 2416 2484 
Q 2838 2347 3058 2040 
Q 3278 1734 3278 1309 
Q 3278 722 2862 322 
Q 2447 -78 1769 -78 
Q 1091 -78 675 323 
Q 259 725 259 1325 
Q 259 1772 486 2073 
Q 713 2375 1131 2484 
z
M 1019 3438 
Q 1019 3113 1228 2906 
Q 1438 2700 1772 2700 
Q 2097 2700 2305 2904 
Q 2513 3109 2513 3406 
Q 2513 3716 2298 3927 
Q 2084 4138 1766 4138 
Q 1444 4138 1231 3931 
Q 1019 3725 1019 3438 
z
M 838 1322 
Q 838 1081 952 856 
Q 1066 631 1291 507 
Q 1516 384 1775 384 
Q 2178 384 2440 643 
Q 2703 903 2703 1303 
Q 2703 1709 2433 1975 
Q 2163 2241 1756 2241 
Q 1359 2241 1098 1978 
Q 838 1716 838 1322 
z
" id="ArialMT-38" transform="scale(0.015625)"/>
       </defs>
       <use xlink:href="#ArialMT-38"/>
       <use x="55.615234" xlink:href="#ArialMT-30"/>
      </g>
     </g>
    </g>
    <g id="xtick_4">
     <g id="line2d_7">
      <path clip-path="url(#p79410de7ff)" d="M 376.101562 232.896797 
L 376.101562 11.136797 
" style="fill:none;stroke:#cccccc;stroke-linecap:round;stroke-opacity:0.5;stroke-width:0.8;"/>
     </g>
     <g id="line2d_8"/>
     <g id="text_4">
      <!-- 120 -->
      <g style="fill:#262626;" transform="translate(366.926016 244.270391)scale(0.11 -0.11)">
       <defs>
        <path d="M 2384 0 
L 1822 0 
L 1822 3584 
Q 1619 3391 1289 3197 
Q 959 3003 697 2906 
L 697 3450 
Q 1169 3672 1522 3987 
Q 1875 4303 2022 4600 
L 2384 4600 
L 2384 0 
z
" id="ArialMT-31" transform="scale(0.015625)"/>
        <path d="M 3222 541 
L 3222 0 
L 194 0 
Q 188 203 259 391 
Q 375 700 629 1000 
Q 884 1300 1366 1694 
Q 2113 2306 2375 2664 
Q 2638 3022 2638 3341 
Q 2638 3675 2398 3904 
Q 2159 4134 1775 4134 
Q 1369 4134 1125 3890 
Q 881 3647 878 3216 
L 300 3275 
Q 359 3922 746 4261 
Q 1134 4600 1788 4600 
Q 2447 4600 2831 4234 
Q 3216 3869 3216 3328 
Q 3216 3053 3103 2787 
Q 2991 2522 2730 2228 
Q 2469 1934 1863 1422 
Q 1356 997 1212 845 
Q 1069 694 975 541 
L 3222 541 
z
" id="ArialMT-32" transform="scale(0.015625)"/>
       </defs>
       <use xlink:href="#ArialMT-31"/>
       <use x="55.615234" xlink:href="#ArialMT-32"/>
       <use x="111.230469" xlink:href="#ArialMT-30"/>
      </g>
     </g>
    </g>
    <g id="xtick_5">
     <g id="line2d_9">
      <path clip-path="url(#p79410de7ff)" d="M 487.701562 232.896797 
L 487.701562 11.136797 
" style="fill:none;stroke:#cccccc;stroke-linecap:round;stroke-opacity:0.5;stroke-width:0.8;"/>
     </g>
     <g id="line2d_10"/>
     <g id="text_5">
      <!-- 160 -->
      <g style="fill:#262626;" transform="translate(478.526016 244.270391)scale(0.11 -0.11)">
       <defs>
        <path d="M 3184 3459 
L 2625 3416 
Q 2550 3747 2413 3897 
Q 2184 4138 1850 4138 
Q 1581 4138 1378 3988 
Q 1113 3794 959 3422 
Q 806 3050 800 2363 
Q 1003 2672 1297 2822 
Q 1591 2972 1913 2972 
Q 2475 2972 2870 2558 
Q 3266 2144 3266 1488 
Q 3266 1056 3080 686 
Q 2894 316 2569 119 
Q 2244 -78 1831 -78 
Q 1128 -78 684 439 
Q 241 956 241 2144 
Q 241 3472 731 4075 
Q 1159 4600 1884 4600 
Q 2425 4600 2770 4297 
Q 3116 3994 3184 3459 
z
M 888 1484 
Q 888 1194 1011 928 
Q 1134 663 1356 523 
Q 1578 384 1822 384 
Q 2178 384 2434 671 
Q 2691 959 2691 1453 
Q 2691 1928 2437 2201 
Q 2184 2475 1800 2475 
Q 1419 2475 1153 2201 
Q 888 1928 888 1484 
z
" id="ArialMT-36" transform="scale(0.015625)"/>
       </defs>
       <use xlink:href="#ArialMT-31"/>
       <use x="55.615234" xlink:href="#ArialMT-36"/>
       <use x="111.230469" xlink:href="#ArialMT-30"/>
      </g>
     </g>
    </g>
    <g id="xtick_6">
     <g id="line2d_11">
      <path clip-path="url(#p79410de7ff)" d="M 599.301563 232.896797 
L 599.301563 11.136797 
" style="fill:none;stroke:#cccccc;stroke-linecap:round;stroke-opacity:0.5;stroke-width:0.8;"/>
     </g>
     <g id="line2d_12"/>
     <g id="text_6">
      <!-- 200 -->
      <g style="fill:#262626;" transform="translate(590.126016 244.270391)scale(0.11 -0.11)">
       <use xlink:href="#ArialMT-32"/>
       <use x="55.615234" xlink:href="#ArialMT-30"/>
       <use x="111.230469" xlink:href="#ArialMT-30"/>
      </g>
     </g>
    </g>
    <g id="text_7">
     <!-- Time -->
     <g style="fill:#262626;" transform="translate(308.286641 262.330234)scale(0.11 -0.11)">
      <defs>
       <path d="M 1659 0 
L 1659 4041 
L 150 4041 
L 150 4581 
L 3781 4581 
L 3781 4041 
L 2266 4041 
L 2266 0 
L 1659 0 
z
" id="ArialMT-54" transform="scale(0.015625)"/>
       <path d="M 425 3934 
L 425 4581 
L 988 4581 
L 988 3934 
L 425 3934 
z
M 425 0 
L 425 3319 
L 988 3319 
L 988 0 
L 425 0 
z
" id="ArialMT-69" transform="scale(0.015625)"/>
       <path d="M 422 0 
L 422 3319 
L 925 3319 
L 925 2853 
Q 1081 3097 1340 3245 
Q 1600 3394 1931 3394 
Q 2300 3394 2536 3241 
Q 2772 3088 2869 2813 
Q 3263 3394 3894 3394 
Q 4388 3394 4653 3120 
Q 4919 2847 4919 2278 
L 4919 0 
L 4359 0 
L 4359 2091 
Q 4359 2428 4304 2576 
Q 4250 2725 4106 2815 
Q 3963 2906 3769 2906 
Q 3419 2906 3187 2673 
Q 2956 2441 2956 1928 
L 2956 0 
L 2394 0 
L 2394 2156 
Q 2394 2531 2256 2718 
Q 2119 2906 1806 2906 
Q 1569 2906 1367 2781 
Q 1166 2656 1075 2415 
Q 984 2175 984 1722 
L 984 0 
L 422 0 
z
" id="ArialMT-6d" transform="scale(0.015625)"/>
       <path d="M 2694 1069 
L 3275 997 
Q 3138 488 2766 206 
Q 2394 -75 1816 -75 
Q 1088 -75 661 373 
Q 234 822 234 1631 
Q 234 2469 665 2931 
Q 1097 3394 1784 3394 
Q 2450 3394 2872 2941 
Q 3294 2488 3294 1666 
Q 3294 1616 3291 1516 
L 816 1516 
Q 847 969 1125 678 
Q 1403 388 1819 388 
Q 2128 388 2347 550 
Q 2566 713 2694 1069 
z
M 847 1978 
L 2700 1978 
Q 2663 2397 2488 2606 
Q 2219 2931 1791 2931 
Q 1403 2931 1139 2672 
Q 875 2413 847 1978 
z
" id="ArialMT-65" transform="scale(0.015625)"/>
      </defs>
      <use xlink:href="#ArialMT-54"/>
      <use x="57.333984" xlink:href="#ArialMT-69"/>
      <use x="79.550781" xlink:href="#ArialMT-6d"/>
      <use x="162.851562" xlink:href="#ArialMT-65"/>
     </g>
    </g>
   </g>
   <g id="matplotlib.axis_2">
    <g id="ytick_1">
     <g id="line2d_13">
      <path clip-path="url(#p79410de7ff)" d="M 41.301562 232.896797 
L 599.301563 232.896797 
" style="fill:none;stroke:#cccccc;stroke-linecap:round;stroke-opacity:0.5;stroke-width:0.8;"/>
     </g>
     <g id="line2d_14"/>
     <g id="text_8">
      <!-- −5 -->
      <g style="fill:#262626;" transform="translate(25.259844 236.833594)scale(0.11 -0.11)">
       <defs>
        <path d="M 3381 1997 
L 356 1997 
L 356 2522 
L 3381 2522 
L 3381 1997 
z
" id="ArialMT-2212" transform="scale(0.015625)"/>
        <path d="M 266 1200 
L 856 1250 
Q 922 819 1161 601 
Q 1400 384 1738 384 
Q 2144 384 2425 690 
Q 2706 997 2706 1503 
Q 2706 1984 2436 2262 
Q 2166 2541 1728 2541 
Q 1456 2541 1237 2417 
Q 1019 2294 894 2097 
L 366 2166 
L 809 4519 
L 3088 4519 
L 3088 3981 
L 1259 3981 
L 1013 2750 
Q 1425 3038 1878 3038 
Q 2478 3038 2890 2622 
Q 3303 2206 3303 1553 
Q 3303 931 2941 478 
Q 2500 -78 1738 -78 
Q 1113 -78 717 272 
Q 322 622 266 1200 
z
" id="ArialMT-35" transform="scale(0.015625)"/>
       </defs>
       <use xlink:href="#ArialMT-2212"/>
       <use x="58.398438" xlink:href="#ArialMT-35"/>
      </g>
     </g>
    </g>
    <g id="ytick_2">
     <g id="line2d_15">
      <path clip-path="url(#p79410de7ff)" d="M 41.301562 177.456797 
L 599.301563 177.456797 
" style="fill:none;stroke:#cccccc;stroke-linecap:round;stroke-opacity:0.5;stroke-width:0.8;"/>
     </g>
     <g id="line2d_16"/>
     <g id="text_9">
      <!-- 0 -->
      <g style="fill:#262626;" transform="translate(31.684531 181.393594)scale(0.11 -0.11)">
       <use xlink:href="#ArialMT-30"/>
      </g>
     </g>
    </g>
    <g id="ytick_3">
     <g id="line2d_17">
      <path clip-path="url(#p79410de7ff)" d="M 41.301562 122.016797 
L 599.301563 122.016797 
" style="fill:none;stroke:#cccccc;stroke-linecap:round;stroke-opacity:0.5;stroke-width:0.8;"/>
     </g>
     <g id="line2d_18"/>
     <g id="text_10">
      <!-- 5 -->
      <g style="fill:#262626;" transform="translate(31.684531 125.953594)scale(0.11 -0.11)">
       <use xlink:href="#ArialMT-35"/>
      </g>
     </g>
    </g>
    <g id="ytick_4">
     <g id="line2d_19">
      <path clip-path="url(#p79410de7ff)" d="M 41.301562 66.576797 
L 599.301563 66.576797 
" style="fill:none;stroke:#cccccc;stroke-linecap:round;stroke-opacity:0.5;stroke-width:0.8;"/>
     </g>
     <g id="line2d_20"/>
     <g id="text_11">
      <!-- 10 -->
      <g style="fill:#262626;" transform="translate(25.5675 70.513594)scale(0.11 -0.11)">
       <use xlink:href="#ArialMT-31"/>
       <use x="55.615234" xlink:href="#ArialMT-30"/>
      </g>
     </g>
    </g>
    <g id="ytick_5">
     <g id="line2d_21">
      <path clip-path="url(#p79410de7ff)" d="M 41.301562 11.136797 
L 599.301563 11.136797 
" style="fill:none;stroke:#cccccc;stroke-linecap:round;stroke-opacity:0.5;stroke-width:0.8;"/>
     </g>
     <g id="line2d_22"/>
     <g id="text_12">
      <!-- 15 -->
      <g style="fill:#262626;" transform="translate(25.5675 15.073594)scale(0.11 -0.11)">
       <use xlink:href="#ArialMT-31"/>
       <use x="55.615234" xlink:href="#ArialMT-35"/>
      </g>
     </g>
    </g>
    <g id="text_13">
     <!-- Value -->
     <g style="fill:#262626;" transform="translate(15.073594 135.677422)rotate(-90)scale(0.11 -0.11)">
      <defs>
       <path d="M 1803 0 
L 28 4581 
L 684 4581 
L 1875 1253 
Q 2019 853 2116 503 
Q 2222 878 2363 1253 
L 3600 4581 
L 4219 4581 
L 2425 0 
L 1803 0 
z
" id="ArialMT-56" transform="scale(0.015625)"/>
       <path d="M 2588 409 
Q 2275 144 1986 34 
Q 1697 -75 1366 -75 
Q 819 -75 525 192 
Q 231 459 231 875 
Q 231 1119 342 1320 
Q 453 1522 633 1644 
Q 813 1766 1038 1828 
Q 1203 1872 1538 1913 
Q 2219 1994 2541 2106 
Q 2544 2222 2544 2253 
Q 2544 2597 2384 2738 
Q 2169 2928 1744 2928 
Q 1347 2928 1158 2789 
Q 969 2650 878 2297 
L 328 2372 
Q 403 2725 575 2942 
Q 747 3159 1072 3276 
Q 1397 3394 1825 3394 
Q 2250 3394 2515 3294 
Q 2781 3194 2906 3042 
Q 3031 2891 3081 2659 
Q 3109 2516 3109 2141 
L 3109 1391 
Q 3109 606 3145 398 
Q 3181 191 3288 0 
L 2700 0 
Q 2613 175 2588 409 
z
M 2541 1666 
Q 2234 1541 1622 1453 
Q 1275 1403 1131 1340 
Q 988 1278 909 1158 
Q 831 1038 831 891 
Q 831 666 1001 516 
Q 1172 366 1500 366 
Q 1825 366 2078 508 
Q 2331 650 2450 897 
Q 2541 1088 2541 1459 
L 2541 1666 
z
" id="ArialMT-61" transform="scale(0.015625)"/>
       <path d="M 409 0 
L 409 4581 
L 972 4581 
L 972 0 
L 409 0 
z
" id="ArialMT-6c" transform="scale(0.015625)"/>
       <path d="M 2597 0 
L 2597 488 
Q 2209 -75 1544 -75 
Q 1250 -75 995 37 
Q 741 150 617 320 
Q 494 491 444 738 
Q 409 903 409 1263 
L 409 3319 
L 972 3319 
L 972 1478 
Q 972 1038 1006 884 
Q 1059 663 1231 536 
Q 1403 409 1656 409 
Q 1909 409 2131 539 
Q 2353 669 2445 892 
Q 2538 1116 2538 1541 
L 2538 3319 
L 3100 3319 
L 3100 0 
L 2597 0 
z
" id="ArialMT-75" transform="scale(0.015625)"/>
      </defs>
      <use xlink:href="#ArialMT-56"/>
      <use x="59.324219" xlink:href="#ArialMT-61"/>
      <use x="114.939453" xlink:href="#ArialMT-6c"/>
      <use x="137.15625" xlink:href="#ArialMT-75"/>
      <use x="192.771484" xlink:href="#ArialMT-65"/>
     </g>
    </g>
   </g>
   <g id="patch_3">
    <path clip-path="url(#p79410de7ff)" d="M 264.501562 232.896797 
L 404.001562 232.896797 
L 404.001562 11.136797 
L 264.501562 11.136797 
z
" style="fill:#d7191c;opacity:0.08;"/>
   </g>
   <g id="line2d_23">
    <path clip-path="url(#p79410de7ff)" d="M 41.301562 118.860382 
L 44.105583 121.785098 
L 46.909603 123.122803 
L 49.713623 115.973277 
L 52.517643 115.828598 
L 55.321663 118.808529 
L 58.125683 100.36589 
L 60.929703 104.166332 
L 63.733723 108.562976 
L 66.537743 121.325028 
L 69.341764 110.770478 
L 72.145784 105.996283 
L 74.949804 107.74448 
L 77.753824 103.690304 
L 80.557844 105.063603 
L 83.361864 101.56537 
L 86.165884 99.936704 
L 88.969904 97.372829 
L 91.773924 101.988683 
L 94.577944 93.528283 
L 97.381965 98.520365 
L 100.185985 99.73836 
L 102.990005 98.407498 
L 105.794025 92.483399 
L 108.598045 88.093376 
L 111.402065 91.18806 
L 114.206085 86.484692 
L 117.010105 86.222856 
L 119.814125 83.322246 
L 122.618145 87.018537 
L 125.422166 91.293611 
L 128.226186 84.643828 
L 131.030206 91.440207 
L 133.834226 95.620428 
L 136.638246 79.7658 
L 139.442266 85.380203 
L 142.246286 82.611672 
L 145.050306 92.96058 
L 147.854326 95.668471 
L 150.658346 88.325886 
L 153.462367 89.268142 
L 156.266387 96.256612 
L 159.070407 94.814742 
L 161.874427 89.904112 
L 164.678447 100.165472 
L 167.482467 104.298931 
L 170.286487 95.958753 
L 173.090507 104.187557 
L 175.894527 98.201121 
L 178.698547 99.100084 
L 181.502568 112.574327 
L 184.306588 103.824973 
L 187.110608 94.603526 
L 189.914628 118.163648 
L 192.718648 102.395168 
L 195.522668 116.752605 
L 198.326688 115.044429 
L 201.130708 113.645445 
L 203.934728 123.703723 
L 206.738748 114.159356 
L 209.542769 117.592765 
L 212.346789 120.53819 
L 215.150809 122.074101 
L 217.954829 121.043057 
L 220.758849 123.679875 
L 223.562869 120.674209 
L 226.366889 129.102203 
L 229.170909 129.313015 
L 231.974929 134.916855 
L 234.778949 129.981339 
L 237.58297 131.000002 
L 240.38699 129.716753 
L 243.19101 131.318877 
L 245.99503 145.200259 
L 248.79905 135.863426 
L 251.60307 141.378113 
L 254.40709 132.082698 
L 257.21111 142.269512 
L 260.01513 137.185306 
L 262.81915 147.506842 
L 265.623171 122.400193 
L 268.427191 122.922107 
L 271.231211 123.658691 
L 274.035231 124.602511 
L 276.839251 125.74404 
L 279.643271 127.071759 
L 282.447291 128.572268 
L 285.251311 130.230423 
L 290.859351 133.951313 
L 296.467392 138.084598 
L 304.879452 144.690789 
L 313.291512 151.25205 
L 318.899552 155.307136 
L 324.507593 158.914679 
L 327.311613 160.504356 
L 330.115633 161.929413 
L 332.919653 163.175467 
L 335.723673 164.229944 
L 338.527693 165.0822 
L 341.331713 165.723636 
L 344.135733 166.147776 
L 346.939753 166.350342 
L 349.743774 166.329287 
L 352.547794 166.084826 
L 355.351814 165.619424 
L 358.155834 164.93778 
L 360.959854 164.046772 
L 363.763874 162.955392 
L 366.567894 161.674656 
L 369.371914 160.217488 
L 372.175934 158.598595 
L 377.783975 154.942454 
L 383.392015 150.853454 
L 391.804075 144.271667 
L 400.216135 137.682764 
L 403.020155 135.588654 
L 405.824176 109.72603 
L 408.628196 108.158535 
L 411.432216 103.491717 
L 414.236236 106.097075 
L 417.040256 103.318699 
L 419.844276 102.790857 
L 422.648296 100.098399 
L 425.452316 100.418007 
L 428.256336 97.133408 
L 431.060356 99.377375 
L 433.864377 108.548344 
L 436.668397 102.87668 
L 439.472417 99.222499 
L 442.276437 97.121032 
L 445.080457 86.701657 
L 447.884477 97.065754 
L 450.688497 96.575026 
L 453.492517 97.709693 
L 456.296537 85.273033 
L 459.100557 86.227027 
L 461.904578 90.015954 
L 464.708598 99.651367 
L 467.512618 82.739154 
L 470.316638 91.675107 
L 473.120658 87.003636 
L 475.924678 91.848033 
L 478.728698 97.97909 
L 481.532718 87.925306 
L 484.336738 92.959866 
L 487.140758 88.448882 
L 489.944779 87.070188 
L 492.748799 88.776505 
L 495.552819 92.915625 
L 498.356839 92.200159 
L 501.160859 89.187971 
L 503.964879 88.252677 
L 506.768899 84.066794 
L 509.572919 92.733477 
L 512.376939 89.776486 
L 515.180959 96.142657 
L 517.98498 99.3863 
L 520.789 96.270443 
L 523.59302 103.180556 
L 526.39704 104.47314 
L 529.20106 104.542514 
L 532.00508 103.909676 
L 534.8091 105.399348 
L 537.61312 93.708137 
L 540.41714 108.028757 
L 543.22116 110.802663 
L 546.025181 112.592554 
L 548.829201 110.395781 
L 551.633221 110.521874 
L 554.437241 118.194846 
L 557.241261 114.402183 
L 560.045281 106.481399 
L 562.849301 126.869326 
L 565.653321 119.998025 
L 568.457341 119.260617 
L 571.261361 116.763579 
L 574.065382 131.008508 
L 576.869402 126.946069 
L 579.673422 128.821504 
L 582.477442 135.736927 
L 585.281462 126.854674 
L 588.085482 132.972036 
L 590.889502 130.777999 
L 593.693522 144.950093 
L 596.497542 141.46335 
L 599.301563 138.924995 
L 599.301563 138.924995 
" style="fill:none;stroke:#2c7bb6;stroke-linecap:round;stroke-opacity:0.9;stroke-width:1.5;"/>
   </g>
   <g id="patch_4">
    <path d="M 41.301562 232.896797 
L 41.301562 11.136797 
" style="fill:none;stroke:#4c4c4c;stroke-linecap:square;stroke-linejoin:miter;stroke-width:1.2;"/>
   </g>
   <g id="patch_5">
    <path d="M 599.301563 232.896797 
L 599.301563 11.136797 
" style="fill:none;stroke:#4c4c4c;stroke-linecap:square;stroke-linejoin:miter;stroke-width:1.2;"/>
   </g>
   <g id="patch_6">
    <path d="M 41.301562 232.896797 
L 599.301563 232.896797 
" style="fill:none;stroke:#4c4c4c;stroke-linecap:square;stroke-linejoin:miter;stroke-width:1.2;"/>
   </g>
   <g id="patch_7">
    <path d="M 41.301562 11.136797 
L 599.301563 11.136797 
" style="fill:none;stroke:#4c4c4c;stroke-linecap:square;stroke-linejoin:miter;stroke-width:1.2;"/>
   </g>
   <g id="patch_8">
    <path d="M 399.992474 77.664797 
Q 334.254059 77.664797 268.515644 77.664797 
" style="fill:none;stroke:#d7191c;stroke-linecap:round;stroke-width:1.8;"/>
    <path d="M 395.592474 75.464797 
L 399.992474 77.664797 
L 395.592474 79.864797 
" style="fill:none;stroke:#d7191c;stroke-linecap:round;stroke-width:1.8;"/>
    <path d="M 272.915644 79.864797 
L 268.515644 77.664797 
L 272.915644 75.464797 
" style="fill:none;stroke:#d7191c;stroke-linecap:round;stroke-width:1.8;"/>
   </g>
  </g>
 </g>
 <defs>
  <clipPath id="p79410de7ff">
   <rect height="221.76" width="558" x="41.301562" y="11.136797"/>
  </clipPath>
 </defs>
</svg>
