<?xml version="1.0" encoding="utf-8" standalone="no"?>
<!DOCTYPE svg PUBLIC "-//W3C//DTD SVG 1.1//EN"
  "http://www.w3.org/Graphics/SVG/1.1/DTD/svg11.dtd">
<svg height="432pt" version="1.1" viewBox="0 0 864 432" width="864pt" xmlns="http://www.w3.org/2000/svg" xmlns:xlink="http://www.w3.org/1999/xlink">
 <metadata>
  <rdf:RDF xmlns:cc="http://creativecommons.org/ns#" xmlns:dc="http://purl.org/dc/elements/1.1/" xmlns:rdf="http://www.w3.org/1999/02/22-rdf-syntax-ns#">
   <cc:Work>
    <dc:type rdf:resource="http://purl.org/dc/dcmitype/StillImage"/>
    <dc:date>2025-05-18T09:35:51.738060</dc:date>
    <dc:format>image/svg+xml</dc:format>
    <dc:creator>
     <cc:Agent>
      <dc:title>Matplotlib v3.4.3, https://matplotlib.org/</dc:title>
     </cc:Agent>
    </dc:creator>
   </cc:Work>
  </rdf:RDF>
 </metadata>
 <defs>
  <style type="text/css">*{stroke-linecap:butt;stroke-linejoin:round;}</style>
 </defs>
 <g id="figure_1">
  <g id="patch_1">
   <path d="M 0 432 
L 864 432 
L 864 0 
L 0 0 
z
" style="fill:#ffffff;"/>
  </g>
  <g id="axes_1">
   <g id="patch_2">
    <path d="M 57.98 382.84 
L 853.2 382.84 
L 853.2 15.48 
L 57.98 15.48 
z
" style="fill:#ffffff;"/>
   </g>
   <g id="patch_3">
    <path clip-path="url(#pe73b3c8613)" d="M 94.126364 750.2 
L 116.955646 750.2 
L 116.955646 63.457216 
L 94.126364 63.457216 
z
" style="fill:#4c72b0;"/>
   </g>
   <g id="patch_4">
    <path clip-path="url(#pe73b3c8613)" d="M 246.321579 750.2 
L 269.150861 750.2 
L 269.150861 88.805056 
L 246.321579 88.805056 
z
" style="fill:#4c72b0;"/>
   </g>
   <g id="patch_5">
    <path clip-path="url(#pe73b3c8613)" d="M 398.516794 750.2 
L 421.346077 750.2 
L 421.346077 123.924672 
L 398.516794 123.924672 
z
" style="fill:#4c72b0;"/>
   </g>
   <g id="patch_6">
    <path clip-path="url(#pe73b3c8613)" d="M 550.71201 750.2 
L 573.541292 750.2 
L 573.541292 139.28032 
L 550.71201 139.28032 
z
" style="fill:#4c72b0;"/>
   </g>
   <g id="patch_7">
    <path clip-path="url(#pe73b3c8613)" d="M 702.907225 750.2 
L 725.736507 750.2 
L 725.736507 128.332992 
L 702.907225 128.332992 
z
" style="fill:#4c72b0;"/>
   </g>
   <g id="patch_8">
    <path clip-path="url(#pe73b3c8613)" d="M 116.955646 750.2 
L 139.784928 750.2 
L 139.784928 141.778368 
L 116.955646 141.778368 
z
" style="fill:#55a868;"/>
   </g>
   <g id="patch_9">
    <path clip-path="url(#pe73b3c8613)" d="M 269.150861 750.2 
L 291.980144 750.2 
L 291.980144 107.173056 
L 269.150861 107.173056 
z
" style="fill:#55a868;"/>
   </g>
   <g id="patch_10">
    <path clip-path="url(#pe73b3c8613)" d="M 421.346077 750.2 
L 444.175359 750.2 
L 444.175359 83.588544 
L 421.346077 83.588544 
z
" style="fill:#55a868;"/>
   </g>
   <g id="patch_11">
    <path clip-path="url(#pe73b3c8613)" d="M 573.541292 750.2 
L 596.370574 750.2 
L 596.370574 116.430528 
L 573.541292 116.430528 
z
" style="fill:#55a868;"/>
   </g>
   <g id="patch_12">
    <path clip-path="url(#pe73b3c8613)" d="M 725.736507 750.2 
L 748.565789 750.2 
L 748.565789 154.048192 
L 725.736507 154.048192 
z
" style="fill:#55a868;"/>
   </g>
   <g id="patch_13">
    <path clip-path="url(#pe73b3c8613)" d="M 139.784928 750.2 
L 162.614211 750.2 
L 162.614211 101.07488 
L 139.784928 101.07488 
z
" style="fill:#c44e52;"/>
   </g>
   <g id="patch_14">
    <path clip-path="url(#pe73b3c8613)" d="M 291.980144 750.2 
L 314.809426 750.2 
L 314.809426 55.301824 
L 291.980144 55.301824 
z
" style="fill:#c44e52;"/>
   </g>
   <g id="patch_15">
    <path clip-path="url(#pe73b3c8613)" d="M 444.175359 750.2 
L 467.004641 750.2 
L 467.004641 81.163968 
L 444.175359 81.163968 
z
" style="fill:#c44e52;"/>
   </g>
   <g id="patch_16">
    <path clip-path="url(#pe73b3c8613)" d="M 596.370574 750.2 
L 619.199856 750.2 
L 619.199856 121.720512 
L 596.370574 121.720512 
z
" style="fill:#c44e52;"/>
   </g>
   <g id="patch_17">
    <path clip-path="url(#pe73b3c8613)" d="M 748.565789 750.2 
L 771.395072 750.2 
L 771.395072 144.937664 
L 748.565789 144.937664 
z
" style="fill:#c44e52;"/>
   </g>
   <g id="patch_18">
    <path clip-path="url(#pe73b3c8613)" d="M 162.614211 750.2 
L 185.443493 750.2 
L 185.443493 138.472128 
L 162.614211 138.472128 
z
" style="fill:#8172b3;"/>
   </g>
   <g id="patch_19">
    <path clip-path="url(#pe73b3c8613)" d="M 314.809426 750.2 
L 337.638708 750.2 
L 337.638708 89.172416 
L 314.809426 89.172416 
z
" style="fill:#8172b3;"/>
   </g>
   <g id="patch_20">
    <path clip-path="url(#pe73b3c8613)" d="M 467.004641 750.2 
L 489.833923 750.2 
L 489.833923 124.732864 
L 467.004641 124.732864 
z
" style="fill:#8172b3;"/>
   </g>
   <g id="patch_21">
    <path clip-path="url(#pe73b3c8613)" d="M 619.199856 750.2 
L 642.029139 750.2 
L 642.029139 137.663936 
L 619.199856 137.663936 
z
" style="fill:#8172b3;"/>
   </g>
   <g id="patch_22">
    <path clip-path="url(#pe73b3c8613)" d="M 771.395072 750.2 
L 794.224354 750.2 
L 794.224354 150.815424 
L 771.395072 150.815424 
z
" style="fill:#8172b3;"/>
   </g>
   <g id="patch_23">
    <path clip-path="url(#pe73b3c8613)" d="M 185.443493 750.2 
L 208.272775 750.2 
L 208.272775 124.145088 
L 185.443493 124.145088 
z
" style="fill:#ccb974;"/>
   </g>
   <g id="patch_24">
    <path clip-path="url(#pe73b3c8613)" d="M 337.638708 750.2 
L 360.46799 750.2 
L 360.46799 82.486464 
L 337.638708 82.486464 
z
" style="fill:#ccb974;"/>
   </g>
   <g id="patch_25">
    <path clip-path="url(#pe73b3c8613)" d="M 489.833923 750.2 
L 512.663206 750.2 
L 512.663206 99.752384 
L 489.833923 99.752384 
z
" style="fill:#ccb974;"/>
   </g>
   <g id="patch_26">
    <path clip-path="url(#pe73b3c8613)" d="M 642.029139 750.2 
L 664.858421 750.2 
L 664.858421 120.691904 
L 642.029139 120.691904 
z
" style="fill:#ccb974;"/>
   </g>
   <g id="patch_27">
    <path clip-path="url(#pe73b3c8613)" d="M 794.224354 750.2 
L 817.053636 750.2 
L 817.053636 142.513088 
L 794.224354 142.513088 
z
" style="fill:#ccb974;"/>
   </g>
   <g id="matplotlib.axis_1">
    <g id="xtick_1">
     <g id="line2d_1">
      <defs>
       <path d="M 0 0 
L 0 3.5 
" id="mc43a16ef55" style="stroke:#000000;stroke-width:0.8;"/>
      </defs>
      <g>
       <use style="stroke:#000000;stroke-width:0.8;" x="151.199569" xlink:href="#mc43a16ef55" y="382.84"/>
      </g>
     </g>
     <g id="text_1">
      <!-- 2 -->
      <g transform="translate(147.681132 399.4325)scale(0.12 -0.12)">
       <defs>
        <path d="M 2666 3572 
Q 2666 3963 2419 4186 
Q 2172 4409 1747 4409 
Q 1447 4409 1140 4256 
Q 834 4103 569 3819 
L 569 4413 
Q 806 4659 1107 4790 
Q 1409 4922 1816 4922 
Q 2472 4922 2872 4570 
Q 3272 4219 3272 3619 
Q 3272 3084 3026 2693 
Q 2781 2303 2188 1894 
Q 1581 1475 1376 1294 
Q 1172 1113 1090 947 
Q 1009 781 1009 544 
L 3416 544 
L 3416 0 
L 372 0 
L 372 241 
Q 372 659 486 951 
Q 600 1244 862 1520 
Q 1125 1797 1681 2184 
Q 2250 2584 2458 2886 
Q 2666 3188 2666 3572 
z
" id="MicrosoftYaHei-32" transform="scale(0.015625)"/>
       </defs>
       <use xlink:href="#MicrosoftYaHei-32"/>
      </g>
     </g>
    </g>
    <g id="xtick_2">
     <g id="line2d_2">
      <g>
       <use style="stroke:#000000;stroke-width:0.8;" x="303.394785" xlink:href="#mc43a16ef55" y="382.84"/>
      </g>
     </g>
     <g id="text_2">
      <!-- 4 -->
      <g transform="translate(299.876347 399.4325)scale(0.12 -0.12)">
       <defs>
        <path d="M 2906 4841 
L 2906 1644 
L 3631 1644 
L 3631 1138 
L 2906 1138 
L 2906 0 
L 2313 0 
L 2313 1138 
L 53 1138 
L 53 1616 
Q 656 2294 1265 3178 
Q 1875 4063 2272 4841 
L 2906 4841 
z
M 741 1644 
L 2313 1644 
L 2313 3950 
Q 1988 3366 1616 2817 
Q 1244 2269 741 1644 
z
" id="MicrosoftYaHei-34" transform="scale(0.015625)"/>
       </defs>
       <use xlink:href="#MicrosoftYaHei-34"/>
      </g>
     </g>
    </g>
    <g id="xtick_3">
     <g id="line2d_3">
      <g>
       <use style="stroke:#000000;stroke-width:0.8;" x="455.59" xlink:href="#mc43a16ef55" y="382.84"/>
      </g>
     </g>
     <g id="text_3">
      <!-- 6 -->
      <g transform="translate(452.071563 399.4325)scale(0.12 -0.12)">
       <defs>
        <path d="M 3181 4219 
Q 2803 4413 2391 4413 
Q 1763 4413 1381 3866 
Q 1000 3319 994 2372 
L 1009 2372 
Q 1353 3038 2106 3038 
Q 2734 3038 3109 2628 
Q 3484 2219 3484 1541 
Q 3484 831 3051 375 
Q 2619 -81 1947 -81 
Q 1209 -81 789 495 
Q 369 1072 369 2131 
Q 369 3413 920 4167 
Q 1472 4922 2372 4922 
Q 2888 4922 3181 4781 
L 3181 4219 
z
M 1031 1584 
Q 1031 1106 1286 765 
Q 1541 425 1963 425 
Q 2363 425 2613 719 
Q 2863 1013 2863 1475 
Q 2863 1975 2627 2253 
Q 2391 2531 1956 2531 
Q 1544 2531 1287 2250 
Q 1031 1969 1031 1584 
z
" id="MicrosoftYaHei-36" transform="scale(0.015625)"/>
       </defs>
       <use xlink:href="#MicrosoftYaHei-36"/>
      </g>
     </g>
    </g>
    <g id="xtick_4">
     <g id="line2d_4">
      <g>
       <use style="stroke:#000000;stroke-width:0.8;" x="607.785215" xlink:href="#mc43a16ef55" y="382.84"/>
      </g>
     </g>
     <g id="text_4">
      <!-- 8 -->
      <g transform="translate(604.266778 399.4325)scale(0.12 -0.12)">
       <defs>
        <path d="M 306 1350 
Q 306 1769 556 2122 
Q 806 2475 1200 2625 
Q 884 2803 700 3081 
Q 516 3359 516 3684 
Q 516 4028 692 4312 
Q 869 4597 1183 4759 
Q 1497 4922 1875 4922 
Q 2256 4922 2572 4761 
Q 2888 4600 3063 4315 
Q 3238 4031 3238 3684 
Q 3238 3366 3058 3086 
Q 2878 2806 2559 2625 
Q 2953 2472 3200 2119 
Q 3447 1766 3447 1350 
Q 3447 938 3250 611 
Q 3053 284 2690 103 
Q 2328 -78 1875 -78 
Q 1425 -78 1065 103 
Q 706 284 506 612 
Q 306 941 306 1350 
z
M 906 1378 
Q 906 947 1172 687 
Q 1438 428 1878 428 
Q 2309 428 2582 692 
Q 2856 956 2856 1378 
Q 2856 1778 2579 2051 
Q 2303 2325 1878 2325 
Q 1456 2325 1181 2058 
Q 906 1791 906 1378 
z
M 1081 3634 
Q 1081 3309 1312 3076 
Q 1544 2844 1878 2844 
Q 2206 2844 2445 3078 
Q 2684 3313 2684 3634 
Q 2684 3963 2454 4191 
Q 2225 4419 1878 4419 
Q 1534 4419 1307 4195 
Q 1081 3972 1081 3634 
z
" id="MicrosoftYaHei-38" transform="scale(0.015625)"/>
       </defs>
       <use xlink:href="#MicrosoftYaHei-38"/>
      </g>
     </g>
    </g>
    <g id="xtick_5">
     <g id="line2d_5">
      <g>
       <use style="stroke:#000000;stroke-width:0.8;" x="759.980431" xlink:href="#mc43a16ef55" y="382.84"/>
      </g>
     </g>
     <g id="text_5">
      <!-- 10 -->
      <g transform="translate(752.943556 399.4325)scale(0.12 -0.12)">
       <defs>
        <path d="M 1781 0 
L 1781 4141 
Q 1638 3997 1295 3819 
Q 953 3641 663 3569 
L 663 4169 
Q 1047 4275 1484 4508 
Q 1922 4741 2156 4947 
L 2388 4947 
L 2388 0 
L 1781 0 
z
" id="MicrosoftYaHei-31" transform="scale(0.015625)"/>
        <path d="M 284 2325 
Q 284 3606 709 4264 
Q 1134 4922 1941 4922 
Q 3478 4922 3478 2441 
Q 3478 1216 3045 567 
Q 2613 -81 1831 -81 
Q 1094 -81 689 534 
Q 284 1150 284 2325 
z
M 909 2353 
Q 909 425 1888 425 
Q 2850 425 2850 2384 
Q 2850 4413 1906 4413 
Q 909 4413 909 2353 
z
" id="MicrosoftYaHei-30" transform="scale(0.015625)"/>
       </defs>
       <use xlink:href="#MicrosoftYaHei-31"/>
       <use x="58.642578" xlink:href="#MicrosoftYaHei-30"/>
      </g>
     </g>
    </g>
    <g id="text_6">
     <!-- Uaformer网络层数量 -->
     <g transform="translate(388.7575 417.606875)scale(0.14 -0.14)">
      <defs>
       <path d="M 4213 1972 
Q 4213 -81 2350 -81 
Q 566 -81 566 1900 
L 566 4841 
L 1191 4841 
L 1191 1928 
Q 1191 475 2409 475 
Q 3588 475 3588 1881 
L 3588 4841 
L 4213 4841 
L 4213 1972 
z
" id="MicrosoftYaHei-55" transform="scale(0.015625)"/>
       <path d="M 628 3216 
Q 1144 3538 1819 3538 
Q 3069 3538 3069 2225 
L 3069 0 
L 2463 0 
L 2463 534 
L 2447 534 
Q 2088 -81 1388 -81 
Q 884 -81 587 191 
Q 291 463 291 925 
Q 291 1894 1438 2053 
L 2463 2197 
Q 2463 3044 1763 3044 
Q 1141 3044 628 2625 
L 628 3216 
z
M 1653 1625 
Q 1228 1569 1067 1412 
Q 906 1256 906 975 
Q 906 728 1081 572 
Q 1256 416 1544 416 
Q 1944 416 2203 697 
Q 2463 978 2463 1403 
L 2463 1734 
L 1653 1625 
z
" id="MicrosoftYaHei-61" transform="scale(0.015625)"/>
       <path d="M 2319 4594 
Q 2147 4684 1947 4684 
Q 1372 4684 1372 3972 
L 1372 3456 
L 2181 3456 
L 2181 2950 
L 1372 2950 
L 1372 0 
L 766 0 
L 766 2950 
L 175 2950 
L 175 3456 
L 766 3456 
L 766 4000 
Q 766 4556 1086 4873 
Q 1406 5191 1900 5191 
Q 2163 5191 2319 5131 
L 2319 4594 
z
" id="MicrosoftYaHei-66" transform="scale(0.015625)"/>
       <path d="M 316 1691 
Q 316 2547 794 3042 
Q 1272 3538 2091 3538 
Q 2869 3538 3311 3061 
Q 3753 2584 3753 1744 
Q 3753 925 3281 422 
Q 2809 -81 2016 -81 
Q 1241 -81 778 406 
Q 316 894 316 1691 
z
M 941 1709 
Q 941 1113 1242 769 
Q 1544 425 2053 425 
Q 2578 425 2853 761 
Q 3128 1097 3128 1725 
Q 3128 2356 2853 2693 
Q 2578 3031 2053 3031 
Q 1538 3031 1239 2678 
Q 941 2325 941 1709 
z
" id="MicrosoftYaHei-6f" transform="scale(0.015625)"/>
       <path d="M 2400 2850 
Q 2247 2959 1978 2959 
Q 1622 2959 1390 2626 
Q 1159 2294 1159 1750 
L 1159 0 
L 547 0 
L 547 3456 
L 1159 3456 
L 1159 2753 
L 1172 2753 
Q 1434 3516 2078 3516 
Q 2288 3516 2400 3469 
L 2400 2850 
z
" id="MicrosoftYaHei-72" transform="scale(0.015625)"/>
       <path d="M 5522 0 
L 4909 0 
L 4909 1984 
Q 4909 2547 4734 2789 
Q 4559 3031 4159 3031 
Q 3822 3031 3581 2715 
Q 3341 2400 3341 1969 
L 3341 0 
L 2728 0 
L 2728 2047 
Q 2728 3031 1969 3031 
Q 1619 3031 1389 2731 
Q 1159 2431 1159 1966 
L 1159 0 
L 547 0 
L 547 3456 
L 1159 3456 
L 1159 2909 
L 1172 2909 
Q 1541 3538 2250 3538 
Q 2597 3538 2862 3347 
Q 3128 3156 3231 2831 
Q 3616 3538 4381 3538 
Q 5522 3538 5522 2131 
L 5522 0 
z
" id="MicrosoftYaHei-6d" transform="scale(0.015625)"/>
       <path d="M 3363 1572 
L 944 1572 
Q 959 1019 1246 717 
Q 1534 416 2050 416 
Q 2631 416 3116 788 
L 3116 241 
Q 2659 -81 1906 -81 
Q 1156 -81 736 394 
Q 316 869 316 1713 
Q 316 2506 777 3022 
Q 1238 3538 1922 3538 
Q 2600 3538 2981 3102 
Q 3363 2666 3363 1881 
L 3363 1572 
z
M 2750 2063 
Q 2747 2531 2528 2787 
Q 2309 3044 1913 3044 
Q 1547 3044 1280 2772 
Q 1013 2500 944 2063 
L 2750 2063 
z
" id="MicrosoftYaHei-65" transform="scale(0.015625)"/>
       <path d="M 1075 3641 
L 1444 3834 
Q 1816 3244 2184 2628 
Q 2488 3281 2706 3928 
L 3131 3772 
Q 2822 2931 2450 2175 
Q 2809 1563 3163 922 
L 2738 697 
Q 2478 1191 2203 1691 
Q 1819 969 1375 328 
L 1000 544 
L 1000 -759 
L 531 -759 
L 531 4953 
L 5856 4953 
L 5856 -59 
Q 5856 -728 5138 -728 
Q 4738 -728 4181 -716 
Q 4150 -516 4094 -228 
Q 4619 -272 4988 -272 
Q 5388 -272 5388 72 
L 5388 4503 
L 1000 4503 
L 1000 572 
Q 1538 1363 1947 2150 
Q 1531 2891 1075 3641 
z
M 3156 3341 
L 3519 3553 
Q 3831 3047 4166 2481 
Q 4525 3197 4775 3891 
L 5200 3728 
Q 4847 2838 4428 2028 
Q 4822 1353 5244 597 
L 4825 359 
Q 4513 953 4175 1559 
Q 3788 866 3350 241 
L 2969 484 
Q 3506 1263 3919 2016 
Q 3553 2672 3156 3341 
z
" id="MicrosoftYaHei-7f51" transform="scale(0.015625)"/>
       <path d="M 2244 3241 
Q 3013 4303 3394 5366 
L 3863 5209 
Q 3741 4922 3609 4653 
L 5844 4653 
L 5844 4209 
Q 5391 3431 4694 2831 
Q 5297 2463 6313 2166 
Q 6188 1947 6063 1628 
Q 5028 1988 4294 2528 
Q 3453 1941 2431 1553 
Q 2300 1766 2131 1991 
Q 3091 2316 3906 2853 
Q 3441 3291 3166 3813 
Q 2881 3328 2569 2909 
Q 2450 3047 2244 3241 
z
M 2725 1584 
L 5813 1584 
L 5813 -847 
L 5331 -847 
L 5331 -534 
L 3206 -534 
L 3206 -847 
L 2725 -847 
L 2725 1584 
z
M 900 1616 
Q 1550 1678 2131 1759 
Q 2106 1478 2088 1334 
Q 981 1197 350 1103 
L 250 1559 
Q 609 1822 1256 2941 
Q 659 2900 288 2866 
L 163 3278 
Q 763 4197 1181 5297 
L 1669 5122 
Q 1250 4228 694 3316 
Q 941 3316 1475 3328 
Q 1703 3741 1963 4247 
L 2425 4047 
Q 1675 2716 900 1616 
z
M 5331 1134 
L 3206 1134 
L 3206 -84 
L 5331 -84 
L 5331 1134 
z
M 5275 4228 
L 3419 4228 
Q 3756 3584 4284 3125 
Q 4888 3609 5275 4228 
z
M 163 153 
Q 1200 353 2325 616 
Q 2300 316 2300 141 
Q 1300 -84 300 -341 
L 163 153 
z
" id="MicrosoftYaHei-7edc" transform="scale(0.015625)"/>
       <path d="M 394 -847 
Q 213 -603 50 -409 
Q 825 678 825 2709 
L 825 5022 
L 5963 5022 
L 5963 3053 
L 5488 3053 
L 5488 3284 
L 1300 3284 
L 1300 2609 
Q 1300 497 394 -847 
z
M 4294 559 
L 4631 853 
Q 5556 53 6100 -528 
L 5713 -872 
Q 5522 -656 5328 -453 
Q 3425 -463 2219 -553 
Q 2044 -566 1775 -634 
L 1563 -172 
Q 1938 -28 2144 147 
Q 2500 497 2906 1034 
L 1375 1034 
L 1375 1472 
L 6288 1472 
L 6288 1034 
L 3550 1034 
Q 3022 388 2569 -66 
Q 3741 -59 4922 -34 
Q 4613 272 4294 559 
z
M 1300 4584 
L 1300 3722 
L 5488 3722 
L 5488 4584 
L 1300 4584 
z
M 1819 2603 
L 5731 2603 
L 5731 2166 
L 1819 2166 
L 1819 2603 
z
" id="MicrosoftYaHei-5c42" transform="scale(0.015625)"/>
       <path d="M 4175 5303 
L 4675 5228 
Q 4544 4622 4369 4097 
L 6281 4097 
L 6281 3672 
L 5888 3672 
Q 5731 1834 5088 753 
Q 5594 66 6375 -372 
Q 6175 -647 6038 -866 
Q 5275 -372 4769 309 
Q 4194 -403 3400 -928 
Q 3263 -747 3044 -534 
Q 3919 41 4463 772 
Q 3956 1647 3794 2791 
Q 3663 2559 3519 2359 
Q 3394 2541 3206 2759 
Q 3931 3803 4175 5303 
z
M 150 1697 
L 1100 1697 
Q 1238 1934 1369 2184 
L 1819 2041 
Q 1719 1866 1619 1697 
L 3150 1697 
L 3150 1291 
Q 2913 678 2431 216 
Q 2775 53 3131 -109 
L 2856 -541 
Q 2469 -322 2050 -103 
Q 1344 -609 269 -903 
Q 169 -703 56 -466 
Q 969 -259 1600 128 
Q 1063 403 475 691 
Q 675 978 863 1284 
L 150 1284 
L 150 1697 
z
M 219 3847 
L 1656 3847 
L 1656 5247 
L 2119 5247 
L 2119 3847 
L 3319 3847 
L 3319 3434 
L 2119 3434 
L 2119 3053 
L 2306 3266 
Q 2888 2841 3281 2516 
L 2981 2166 
Q 2638 2491 2119 2897 
L 2119 2184 
L 1656 2184 
L 1656 3059 
Q 1088 2466 331 2016 
Q 213 2197 63 2397 
Q 850 2822 1506 3434 
L 219 3434 
L 219 3847 
z
M 5388 3672 
L 4219 3672 
Q 4188 3591 4150 3516 
Q 4263 2191 4775 1247 
Q 5275 2159 5388 3672 
z
M 1088 834 
Q 1531 634 2000 416 
Q 2431 784 2675 1284 
L 1375 1284 
Q 1231 1053 1088 834 
z
M 3038 5091 
L 3425 4834 
Q 3081 4384 2738 4003 
Q 2594 4128 2400 4266 
Q 2725 4647 3038 5091 
z
M 381 4816 
L 738 5059 
Q 1019 4716 1319 4322 
L 931 4047 
Q 656 4453 381 4816 
z
" id="MicrosoftYaHei-6570" transform="scale(0.015625)"/>
       <path d="M 113 -278 
L 2981 -278 
L 2981 78 
L 475 78 
L 475 403 
L 2981 403 
L 2981 759 
L 1494 759 
L 1494 597 
L 1069 597 
L 1069 2516 
L 5350 2516 
L 5350 597 
L 4925 597 
L 4925 759 
L 3419 759 
L 3419 403 
L 5931 403 
L 5931 78 
L 3419 78 
L 3419 -278 
L 6288 -278 
L 6288 -616 
L 113 -616 
L 113 -278 
z
M 1119 5072 
L 5306 5072 
L 5306 3284 
L 4881 3284 
L 4881 3453 
L 1544 3453 
L 1544 3284 
L 1119 3284 
L 1119 5072 
z
M 163 3153 
L 6263 3153 
L 6263 2816 
L 163 2816 
L 163 3153 
z
M 1544 3778 
L 4881 3778 
L 4881 4116 
L 1544 4116 
L 1544 3778 
z
M 4881 4747 
L 1544 4747 
L 1544 4416 
L 4881 4416 
L 4881 4747 
z
M 3419 1084 
L 4925 1084 
L 4925 1491 
L 3419 1491 
L 3419 1084 
z
M 1494 1084 
L 2981 1084 
L 2981 1491 
L 1494 1491 
L 1494 1084 
z
M 4925 2191 
L 3419 2191 
L 3419 1791 
L 4925 1791 
L 4925 2191 
z
M 1494 1791 
L 2981 1791 
L 2981 2191 
L 1494 2191 
L 1494 1791 
z
" id="MicrosoftYaHei-91cf" transform="scale(0.015625)"/>
      </defs>
      <use xlink:href="#MicrosoftYaHei-55"/>
      <use x="74.658203" xlink:href="#MicrosoftYaHei-61"/>
      <use x="129.931641" xlink:href="#MicrosoftYaHei-66"/>
      <use x="164.599609" xlink:href="#MicrosoftYaHei-6f"/>
      <use x="228.173828" xlink:href="#MicrosoftYaHei-72"/>
      <use x="266.107422" xlink:href="#MicrosoftYaHei-6d"/>
      <use x="359.808594" xlink:href="#MicrosoftYaHei-65"/>
      <use x="416.546875" xlink:href="#MicrosoftYaHei-72"/>
      <use x="454.730469" xlink:href="#MicrosoftYaHei-7f51"/>
      <use x="554.730469" xlink:href="#MicrosoftYaHei-7edc"/>
      <use x="654.730469" xlink:href="#MicrosoftYaHei-5c42"/>
      <use x="754.730469" xlink:href="#MicrosoftYaHei-6570"/>
      <use x="854.730469" xlink:href="#MicrosoftYaHei-91cf"/>
     </g>
    </g>
   </g>
   <g id="matplotlib.axis_2">
    <g id="ytick_1">
     <g id="line2d_6">
      <defs>
       <path d="M 0 0 
L -3.5 0 
" id="mebad8f1f10" style="stroke:#000000;stroke-width:0.8;"/>
      </defs>
      <g>
       <use style="stroke:#000000;stroke-width:0.8;" x="57.98" xlink:href="#mebad8f1f10" y="382.84"/>
      </g>
     </g>
     <g id="text_7">
      <!-- 50 -->
      <g transform="translate(36.90625 387.63625)scale(0.12 -0.12)">
       <defs>
        <path d="M 3294 1494 
Q 3294 784 2823 350 
Q 2353 -84 1559 -84 
Q 878 -84 544 119 
L 544 744 
Q 1034 425 1544 425 
Q 2050 425 2361 704 
Q 2672 984 2672 1447 
Q 2672 1909 2348 2167 
Q 2025 2425 1434 2425 
Q 978 2425 613 2384 
L 791 4841 
L 3053 4841 
L 3053 4303 
L 1306 4303 
L 1206 2931 
L 1647 2950 
Q 2416 2950 2855 2567 
Q 3294 2184 3294 1494 
z
" id="MicrosoftYaHei-35" transform="scale(0.015625)"/>
       </defs>
       <use xlink:href="#MicrosoftYaHei-35"/>
       <use x="58.642578" xlink:href="#MicrosoftYaHei-30"/>
      </g>
     </g>
    </g>
    <g id="ytick_2">
     <g id="line2d_7">
      <g>
       <use style="stroke:#000000;stroke-width:0.8;" x="57.98" xlink:href="#mebad8f1f10" y="309.368"/>
      </g>
     </g>
     <g id="text_8">
      <!-- 60 -->
      <g transform="translate(36.90625 314.16425)scale(0.12 -0.12)">
       <use xlink:href="#MicrosoftYaHei-36"/>
       <use x="58.642578" xlink:href="#MicrosoftYaHei-30"/>
      </g>
     </g>
    </g>
    <g id="ytick_3">
     <g id="line2d_8">
      <g>
       <use style="stroke:#000000;stroke-width:0.8;" x="57.98" xlink:href="#mebad8f1f10" y="235.896"/>
      </g>
     </g>
     <g id="text_9">
      <!-- 70 -->
      <g transform="translate(36.90625 240.69225)scale(0.12 -0.12)">
       <defs>
        <path d="M 3422 4463 
Q 2659 3131 2223 1998 
Q 1788 866 1684 0 
L 1047 0 
Q 1163 853 1594 1947 
Q 2025 3041 2747 4300 
L 347 4300 
L 347 4841 
L 3422 4841 
L 3422 4463 
z
" id="MicrosoftYaHei-37" transform="scale(0.015625)"/>
       </defs>
       <use xlink:href="#MicrosoftYaHei-37"/>
       <use x="58.642578" xlink:href="#MicrosoftYaHei-30"/>
      </g>
     </g>
    </g>
    <g id="ytick_4">
     <g id="line2d_9">
      <g>
       <use style="stroke:#000000;stroke-width:0.8;" x="57.98" xlink:href="#mebad8f1f10" y="162.424"/>
      </g>
     </g>
     <g id="text_10">
      <!-- 80 -->
      <g transform="translate(36.90625 167.22025)scale(0.12 -0.12)">
       <use xlink:href="#MicrosoftYaHei-38"/>
       <use x="58.642578" xlink:href="#MicrosoftYaHei-30"/>
      </g>
     </g>
    </g>
    <g id="ytick_5">
     <g id="line2d_10">
      <g>
       <use style="stroke:#000000;stroke-width:0.8;" x="57.98" xlink:href="#mebad8f1f10" y="88.952"/>
      </g>
     </g>
     <g id="text_11">
      <!-- 90 -->
      <g transform="translate(36.90625 93.74825)scale(0.12 -0.12)">
       <defs>
        <path d="M 578 656 
Q 978 425 1441 425 
Q 2091 425 2448 937 
Q 2806 1450 2806 2394 
Q 2800 2388 2794 2394 
Q 2475 1788 1722 1788 
Q 1113 1788 713 2206 
Q 313 2625 313 3294 
Q 313 4006 750 4464 
Q 1188 4922 1884 4922 
Q 2606 4922 3012 4355 
Q 3419 3788 3419 2703 
Q 3419 1363 2894 641 
Q 2369 -81 1441 -81 
Q 931 -81 578 84 
L 578 656 
z
M 931 3372 
Q 931 2884 1181 2598 
Q 1431 2313 1872 2313 
Q 2253 2313 2512 2573 
Q 2772 2834 2772 3206 
Q 2772 3728 2514 4070 
Q 2256 4413 1834 4413 
Q 1444 4413 1187 4116 
Q 931 3819 931 3372 
z
" id="MicrosoftYaHei-39" transform="scale(0.015625)"/>
       </defs>
       <use xlink:href="#MicrosoftYaHei-39"/>
       <use x="58.642578" xlink:href="#MicrosoftYaHei-30"/>
      </g>
     </g>
    </g>
    <g id="ytick_6">
     <g id="line2d_11">
      <g>
       <use style="stroke:#000000;stroke-width:0.8;" x="57.98" xlink:href="#mebad8f1f10" y="15.48"/>
      </g>
     </g>
     <g id="text_12">
      <!-- 100 -->
      <g transform="translate(29.869375 20.27625)scale(0.12 -0.12)">
       <use xlink:href="#MicrosoftYaHei-31"/>
       <use x="58.642578" xlink:href="#MicrosoftYaHei-30"/>
       <use x="117.285156" xlink:href="#MicrosoftYaHei-30"/>
      </g>
     </g>
    </g>
    <g id="text_13">
     <!-- F1-Score -->
     <g transform="translate(22.389062 228.561094)rotate(-90)scale(0.14 -0.14)">
      <defs>
       <path d="M 3119 4284 
L 1250 4284 
L 1250 2666 
L 2981 2666 
L 2981 2116 
L 1250 2116 
L 1250 0 
L 625 0 
L 625 4841 
L 3119 4841 
L 3119 4284 
z
" id="MicrosoftYaHei-46" transform="scale(0.015625)"/>
       <path d="M 2328 1681 
L 488 1681 
L 488 2153 
L 2328 2153 
L 2328 1681 
z
" id="MicrosoftYaHei-2d" transform="scale(0.015625)"/>
       <path d="M 400 909 
Q 622 716 994 591 
Q 1366 466 1700 466 
Q 2719 466 2719 1191 
Q 2719 1394 2609 1556 
Q 2500 1719 2309 1844 
Q 2119 1969 1594 2228 
Q 866 2591 634 2902 
Q 403 3213 403 3613 
Q 403 4216 887 4569 
Q 1372 4922 2109 4922 
Q 2831 4922 3169 4747 
L 3169 4066 
Q 2731 4369 2063 4369 
Q 1619 4369 1339 4183 
Q 1059 3997 1059 3666 
Q 1059 3372 1253 3187 
Q 1447 3003 2094 2684 
Q 2806 2344 3090 2003 
Q 3375 1663 3375 1238 
Q 3375 600 2912 259 
Q 2450 -81 1628 -81 
Q 1341 -81 958 -1 
Q 575 78 400 197 
L 400 909 
z
" id="MicrosoftYaHei-53" transform="scale(0.015625)"/>
       <path d="M 2934 156 
Q 2538 -81 1978 -81 
Q 1228 -81 772 400 
Q 316 881 316 1647 
Q 316 2497 808 3017 
Q 1300 3538 2125 3538 
Q 2600 3538 2938 3369 
L 2938 2763 
Q 2572 3031 2125 3031 
Q 1600 3031 1270 2667 
Q 941 2303 941 1697 
Q 941 1100 1252 762 
Q 1563 425 2091 425 
Q 2538 425 2934 719 
L 2934 156 
z
" id="MicrosoftYaHei-63" transform="scale(0.015625)"/>
      </defs>
      <use xlink:href="#MicrosoftYaHei-46"/>
      <use x="53.125" xlink:href="#MicrosoftYaHei-31"/>
      <use x="111.767578" xlink:href="#MicrosoftYaHei-2d"/>
      <use x="155.029297" xlink:href="#MicrosoftYaHei-53"/>
      <use x="212.744141" xlink:href="#MicrosoftYaHei-63"/>
      <use x="262.890625" xlink:href="#MicrosoftYaHei-6f"/>
      <use x="326.464844" xlink:href="#MicrosoftYaHei-72"/>
      <use x="363.273438" xlink:href="#MicrosoftYaHei-65"/>
     </g>
    </g>
   </g>
   <g id="patch_28">
    <path d="M 57.98 382.84 
L 57.98 15.48 
" style="fill:none;stroke:#000000;stroke-linecap:square;stroke-linejoin:miter;stroke-width:0.8;"/>
   </g>
   <g id="patch_29">
    <path d="M 853.2 382.84 
L 853.2 15.48 
" style="fill:none;stroke:#000000;stroke-linecap:square;stroke-linejoin:miter;stroke-width:0.8;"/>
   </g>
   <g id="patch_30">
    <path d="M 57.98 382.84 
L 853.2 382.84 
" style="fill:none;stroke:#000000;stroke-linecap:square;stroke-linejoin:miter;stroke-width:0.8;"/>
   </g>
   <g id="patch_31">
    <path d="M 57.98 15.48 
L 853.2 15.48 
" style="fill:none;stroke:#000000;stroke-linecap:square;stroke-linejoin:miter;stroke-width:0.8;"/>
   </g>
   <g id="text_14">
    <!-- 93.47 -->
    <g transform="translate(92.608974 53.624078)scale(0.1 -0.1)">
     <defs>
      <path d="M 447 809 
Q 944 425 1569 425 
Q 2069 425 2361 670 
Q 2653 916 2653 1328 
Q 2653 2247 1338 2247 
L 934 2247 
L 934 2753 
L 1319 2753 
Q 2484 2753 2484 3616 
Q 2484 4413 1594 4413 
Q 1084 4413 634 4069 
L 634 4647 
Q 1109 4922 1744 4922 
Q 2363 4922 2738 4598 
Q 3113 4275 3113 3759 
Q 3113 2809 2144 2538 
L 2144 2525 
Q 2669 2469 2973 2155 
Q 3278 1841 3278 1372 
Q 3278 719 2808 319 
Q 2338 -81 1556 -81 
Q 869 -81 447 175 
L 447 809 
z
" id="MicrosoftYaHei-33" transform="scale(0.015625)"/>
      <path d="M 372 322 
Q 372 491 487 606 
Q 603 722 775 722 
Q 950 722 1065 605 
Q 1181 488 1181 322 
Q 1181 159 1065 42 
Q 950 -75 772 -75 
Q 600 -75 486 42 
Q 372 159 372 322 
z
" id="MicrosoftYaHei-2e" transform="scale(0.015625)"/>
     </defs>
     <use xlink:href="#MicrosoftYaHei-39"/>
     <use x="58.642578" xlink:href="#MicrosoftYaHei-33"/>
     <use x="117.285156" xlink:href="#MicrosoftYaHei-2e"/>
     <use x="141.357422" xlink:href="#MicrosoftYaHei-34"/>
     <use x="200" xlink:href="#MicrosoftYaHei-37"/>
    </g>
   </g>
   <g id="text_15">
    <!-- 90.02 -->
    <g transform="translate(244.804189 78.971919)scale(0.1 -0.1)">
     <use xlink:href="#MicrosoftYaHei-39"/>
     <use x="58.642578" xlink:href="#MicrosoftYaHei-30"/>
     <use x="117.285156" xlink:href="#MicrosoftYaHei-2e"/>
     <use x="141.357422" xlink:href="#MicrosoftYaHei-30"/>
     <use x="200" xlink:href="#MicrosoftYaHei-32"/>
    </g>
   </g>
   <g id="text_16">
    <!-- 85.24 -->
    <g transform="translate(396.999404 114.091535)scale(0.1 -0.1)">
     <use xlink:href="#MicrosoftYaHei-38"/>
     <use x="58.642578" xlink:href="#MicrosoftYaHei-35"/>
     <use x="117.285156" xlink:href="#MicrosoftYaHei-2e"/>
     <use x="141.357422" xlink:href="#MicrosoftYaHei-32"/>
     <use x="200" xlink:href="#MicrosoftYaHei-34"/>
    </g>
   </g>
   <g id="text_17">
    <!-- 83.15 -->
    <g transform="translate(549.194619 129.447182)scale(0.1 -0.1)">
     <use xlink:href="#MicrosoftYaHei-38"/>
     <use x="58.642578" xlink:href="#MicrosoftYaHei-33"/>
     <use x="117.285156" xlink:href="#MicrosoftYaHei-2e"/>
     <use x="141.357422" xlink:href="#MicrosoftYaHei-31"/>
     <use x="200" xlink:href="#MicrosoftYaHei-35"/>
    </g>
   </g>
   <g id="text_18">
    <!-- 84.64 -->
    <g transform="translate(701.389835 118.499854)scale(0.1 -0.1)">
     <use xlink:href="#MicrosoftYaHei-38"/>
     <use x="58.642578" xlink:href="#MicrosoftYaHei-34"/>
     <use x="117.285156" xlink:href="#MicrosoftYaHei-2e"/>
     <use x="141.357422" xlink:href="#MicrosoftYaHei-36"/>
     <use x="200" xlink:href="#MicrosoftYaHei-34"/>
    </g>
   </g>
   <g id="text_19">
    <!-- 82.81 -->
    <g transform="translate(115.438256 131.94523)scale(0.1 -0.1)">
     <use xlink:href="#MicrosoftYaHei-38"/>
     <use x="58.642578" xlink:href="#MicrosoftYaHei-32"/>
     <use x="117.285156" xlink:href="#MicrosoftYaHei-2e"/>
     <use x="141.357422" xlink:href="#MicrosoftYaHei-38"/>
     <use x="200" xlink:href="#MicrosoftYaHei-31"/>
    </g>
   </g>
   <g id="text_20">
    <!-- 87.52 -->
    <g transform="translate(267.633471 97.339919)scale(0.1 -0.1)">
     <use xlink:href="#MicrosoftYaHei-38"/>
     <use x="58.642578" xlink:href="#MicrosoftYaHei-37"/>
     <use x="117.285156" xlink:href="#MicrosoftYaHei-2e"/>
     <use x="141.357422" xlink:href="#MicrosoftYaHei-35"/>
     <use x="200" xlink:href="#MicrosoftYaHei-32"/>
    </g>
   </g>
   <g id="text_21">
    <!-- 90.73 -->
    <g transform="translate(419.828686 73.755406)scale(0.1 -0.1)">
     <use xlink:href="#MicrosoftYaHei-39"/>
     <use x="58.642578" xlink:href="#MicrosoftYaHei-30"/>
     <use x="117.285156" xlink:href="#MicrosoftYaHei-2e"/>
     <use x="141.357422" xlink:href="#MicrosoftYaHei-37"/>
     <use x="200" xlink:href="#MicrosoftYaHei-33"/>
    </g>
   </g>
   <g id="text_22">
    <!-- 86.26 -->
    <g transform="translate(572.023902 106.59739)scale(0.1 -0.1)">
     <use xlink:href="#MicrosoftYaHei-38"/>
     <use x="58.642578" xlink:href="#MicrosoftYaHei-36"/>
     <use x="117.285156" xlink:href="#MicrosoftYaHei-2e"/>
     <use x="141.357422" xlink:href="#MicrosoftYaHei-32"/>
     <use x="200" xlink:href="#MicrosoftYaHei-36"/>
    </g>
   </g>
   <g id="text_23">
    <!-- 81.14 -->
    <g transform="translate(724.219117 144.215054)scale(0.1 -0.1)">
     <use xlink:href="#MicrosoftYaHei-38"/>
     <use x="58.642578" xlink:href="#MicrosoftYaHei-31"/>
     <use x="117.285156" xlink:href="#MicrosoftYaHei-2e"/>
     <use x="141.357422" xlink:href="#MicrosoftYaHei-31"/>
     <use x="200" xlink:href="#MicrosoftYaHei-34"/>
    </g>
   </g>
   <g id="text_24">
    <!-- 88.35 -->
    <g transform="translate(138.267538 91.241742)scale(0.1 -0.1)">
     <use xlink:href="#MicrosoftYaHei-38"/>
     <use x="58.642578" xlink:href="#MicrosoftYaHei-38"/>
     <use x="117.285156" xlink:href="#MicrosoftYaHei-2e"/>
     <use x="141.357422" xlink:href="#MicrosoftYaHei-33"/>
     <use x="200" xlink:href="#MicrosoftYaHei-35"/>
    </g>
   </g>
   <g id="text_25">
    <!-- 94.58 -->
    <g transform="translate(290.462753 45.468686)scale(0.1 -0.1)">
     <use xlink:href="#MicrosoftYaHei-39"/>
     <use x="58.642578" xlink:href="#MicrosoftYaHei-34"/>
     <use x="117.285156" xlink:href="#MicrosoftYaHei-2e"/>
     <use x="141.357422" xlink:href="#MicrosoftYaHei-35"/>
     <use x="200" xlink:href="#MicrosoftYaHei-38"/>
    </g>
   </g>
   <g id="text_26">
    <!-- 91.06 -->
    <g transform="translate(442.657969 71.33083)scale(0.1 -0.1)">
     <use xlink:href="#MicrosoftYaHei-39"/>
     <use x="58.642578" xlink:href="#MicrosoftYaHei-31"/>
     <use x="117.285156" xlink:href="#MicrosoftYaHei-2e"/>
     <use x="141.357422" xlink:href="#MicrosoftYaHei-30"/>
     <use x="200" xlink:href="#MicrosoftYaHei-36"/>
    </g>
   </g>
   <g id="text_27">
    <!-- 85.54 -->
    <g transform="translate(594.853184 111.887374)scale(0.1 -0.1)">
     <use xlink:href="#MicrosoftYaHei-38"/>
     <use x="58.642578" xlink:href="#MicrosoftYaHei-35"/>
     <use x="117.285156" xlink:href="#MicrosoftYaHei-2e"/>
     <use x="141.357422" xlink:href="#MicrosoftYaHei-35"/>
     <use x="200" xlink:href="#MicrosoftYaHei-34"/>
    </g>
   </g>
   <g id="text_28">
    <!-- 82.38 -->
    <g transform="translate(747.048399 135.104527)scale(0.1 -0.1)">
     <use xlink:href="#MicrosoftYaHei-38"/>
     <use x="58.642578" xlink:href="#MicrosoftYaHei-32"/>
     <use x="117.285156" xlink:href="#MicrosoftYaHei-2e"/>
     <use x="141.357422" xlink:href="#MicrosoftYaHei-33"/>
     <use x="200" xlink:href="#MicrosoftYaHei-38"/>
    </g>
   </g>
   <g id="text_29">
    <!-- 83.26 -->
    <g transform="translate(161.09682 128.63899)scale(0.1 -0.1)">
     <use xlink:href="#MicrosoftYaHei-38"/>
     <use x="58.642578" xlink:href="#MicrosoftYaHei-33"/>
     <use x="117.285156" xlink:href="#MicrosoftYaHei-2e"/>
     <use x="141.357422" xlink:href="#MicrosoftYaHei-32"/>
     <use x="200" xlink:href="#MicrosoftYaHei-36"/>
    </g>
   </g>
   <g id="text_30">
    <!-- 89.97 -->
    <g transform="translate(313.292036 79.339278)scale(0.1 -0.1)">
     <use xlink:href="#MicrosoftYaHei-38"/>
     <use x="58.642578" xlink:href="#MicrosoftYaHei-39"/>
     <use x="117.285156" xlink:href="#MicrosoftYaHei-2e"/>
     <use x="141.357422" xlink:href="#MicrosoftYaHei-39"/>
     <use x="200" xlink:href="#MicrosoftYaHei-37"/>
    </g>
   </g>
   <g id="text_31">
    <!-- 85.13 -->
    <g transform="translate(465.487251 114.899727)scale(0.1 -0.1)">
     <use xlink:href="#MicrosoftYaHei-38"/>
     <use x="58.642578" xlink:href="#MicrosoftYaHei-35"/>
     <use x="117.285156" xlink:href="#MicrosoftYaHei-2e"/>
     <use x="141.357422" xlink:href="#MicrosoftYaHei-31"/>
     <use x="200" xlink:href="#MicrosoftYaHei-33"/>
    </g>
   </g>
   <g id="text_32">
    <!-- 83.37 -->
    <g transform="translate(617.682466 127.830799)scale(0.1 -0.1)">
     <use xlink:href="#MicrosoftYaHei-38"/>
     <use x="58.642578" xlink:href="#MicrosoftYaHei-33"/>
     <use x="117.285156" xlink:href="#MicrosoftYaHei-2e"/>
     <use x="141.357422" xlink:href="#MicrosoftYaHei-33"/>
     <use x="200" xlink:href="#MicrosoftYaHei-37"/>
    </g>
   </g>
   <g id="text_33">
    <!-- 81.58 -->
    <g transform="translate(769.877682 140.982286)scale(0.1 -0.1)">
     <use xlink:href="#MicrosoftYaHei-38"/>
     <use x="58.642578" xlink:href="#MicrosoftYaHei-31"/>
     <use x="117.285156" xlink:href="#MicrosoftYaHei-2e"/>
     <use x="141.357422" xlink:href="#MicrosoftYaHei-35"/>
     <use x="200" xlink:href="#MicrosoftYaHei-38"/>
    </g>
   </g>
   <g id="text_34">
    <!-- 85.21 -->
    <g transform="translate(183.926103 114.311951)scale(0.1 -0.1)">
     <use xlink:href="#MicrosoftYaHei-38"/>
     <use x="58.642578" xlink:href="#MicrosoftYaHei-35"/>
     <use x="117.285156" xlink:href="#MicrosoftYaHei-2e"/>
     <use x="141.357422" xlink:href="#MicrosoftYaHei-32"/>
     <use x="200" xlink:href="#MicrosoftYaHei-31"/>
    </g>
   </g>
   <g id="text_35">
    <!-- 90.88 -->
    <g transform="translate(336.121318 72.653327)scale(0.1 -0.1)">
     <use xlink:href="#MicrosoftYaHei-39"/>
     <use x="58.642578" xlink:href="#MicrosoftYaHei-30"/>
     <use x="117.285156" xlink:href="#MicrosoftYaHei-2e"/>
     <use x="141.357422" xlink:href="#MicrosoftYaHei-38"/>
     <use x="200" xlink:href="#MicrosoftYaHei-38"/>
    </g>
   </g>
   <g id="text_36">
    <!-- 88.53 -->
    <g transform="translate(488.316533 89.919246)scale(0.1 -0.1)">
     <use xlink:href="#MicrosoftYaHei-38"/>
     <use x="58.642578" xlink:href="#MicrosoftYaHei-38"/>
     <use x="117.285156" xlink:href="#MicrosoftYaHei-2e"/>
     <use x="141.357422" xlink:href="#MicrosoftYaHei-35"/>
     <use x="200" xlink:href="#MicrosoftYaHei-33"/>
    </g>
   </g>
   <g id="text_37">
    <!-- 85.68 -->
    <g transform="translate(640.511749 110.858767)scale(0.1 -0.1)">
     <use xlink:href="#MicrosoftYaHei-38"/>
     <use x="58.642578" xlink:href="#MicrosoftYaHei-35"/>
     <use x="117.285156" xlink:href="#MicrosoftYaHei-2e"/>
     <use x="141.357422" xlink:href="#MicrosoftYaHei-36"/>
     <use x="200" xlink:href="#MicrosoftYaHei-38"/>
    </g>
   </g>
   <g id="text_38">
    <!-- 82.71 -->
    <g transform="translate(792.706964 132.679951)scale(0.1 -0.1)">
     <use xlink:href="#MicrosoftYaHei-38"/>
     <use x="58.642578" xlink:href="#MicrosoftYaHei-32"/>
     <use x="117.285156" xlink:href="#MicrosoftYaHei-2e"/>
     <use x="141.357422" xlink:href="#MicrosoftYaHei-37"/>
     <use x="200" xlink:href="#MicrosoftYaHei-31"/>
    </g>
   </g>
   <g id="legend_1">
    <g id="patch_32">
     <path d="M 739.363125 117.958125 
L 844.8 117.958125 
Q 847.2 117.958125 847.2 115.558125 
L 847.2 23.88 
Q 847.2 21.48 844.8 21.48 
L 739.363125 21.48 
Q 736.963125 21.48 736.963125 23.88 
L 736.963125 115.558125 
Q 736.963125 117.958125 739.363125 117.958125 
z
" style="fill:#ffffff;opacity:0.8;stroke:#cccccc;stroke-linejoin:miter;"/>
    </g>
    <g id="patch_33">
     <path d="M 741.763125 35.8725 
L 765.763125 35.8725 
L 765.763125 27.4725 
L 741.763125 27.4725 
z
" style="fill:#4c72b0;"/>
    </g>
    <g id="text_39">
     <!-- MSL -->
     <g transform="translate(775.363125 35.8725)scale(0.12 -0.12)">
      <defs>
       <path d="M 5003 0 
L 5003 3206 
Q 5003 3603 5050 4159 
L 5034 4159 
Q 4953 3809 4891 3672 
L 3294 0 
L 2947 0 
L 1353 3644 
Q 1297 3769 1209 4159 
L 1191 4159 
Q 1222 3822 1222 3178 
L 1222 0 
L 625 0 
L 625 4841 
L 1472 4841 
L 2900 1522 
Q 3063 1141 3116 928 
L 3138 928 
Q 3300 1375 3366 1534 
L 4819 4841 
L 5625 4841 
L 5625 0 
L 5003 0 
z
" id="MicrosoftYaHei-4d" transform="scale(0.015625)"/>
       <path d="M 3178 0 
L 625 0 
L 625 4841 
L 1250 4841 
L 1250 553 
L 3178 553 
L 3178 0 
z
" id="MicrosoftYaHei-4c" transform="scale(0.015625)"/>
      </defs>
      <use xlink:href="#MicrosoftYaHei-4d"/>
      <use x="97.705078" xlink:href="#MicrosoftYaHei-53"/>
      <use x="155.419922" xlink:href="#MicrosoftYaHei-4c"/>
     </g>
    </g>
    <g id="patch_34">
     <path d="M 741.763125 54.448125 
L 765.763125 54.448125 
L 765.763125 46.048125 
L 741.763125 46.048125 
z
" style="fill:#55a868;"/>
    </g>
    <g id="text_40">
     <!-- SWaT -->
     <g transform="translate(775.363125 54.448125)scale(0.12 -0.12)">
      <defs>
       <path d="M 6431 4841 
L 5075 0 
L 4347 0 
L 3372 3488 
Q 3306 3725 3294 3988 
L 3281 3988 
Q 3263 3728 3194 3494 
L 2209 0 
L 1488 0 
L 84 4841 
L 775 4841 
L 1763 1184 
Q 1828 938 1841 688 
L 1859 688 
Q 1875 875 1963 1184 
L 3009 4841 
L 3625 4841 
L 4625 1156 
Q 4675 975 4706 694 
L 4719 694 
Q 4734 897 4809 1169 
L 5759 4841 
L 6431 4841 
z
" id="MicrosoftYaHei-57" transform="scale(0.015625)"/>
       <path d="M 3550 4284 
L 2153 4284 
L 2153 0 
L 1525 0 
L 1525 4284 
L 134 4284 
L 134 4841 
L 3550 4841 
L 3550 4284 
z
" id="MicrosoftYaHei-54" transform="scale(0.015625)"/>
      </defs>
      <use xlink:href="#MicrosoftYaHei-53"/>
      <use x="57.714844" xlink:href="#MicrosoftYaHei-57"/>
      <use x="155.472656" xlink:href="#MicrosoftYaHei-61"/>
      <use x="210.746094" xlink:href="#MicrosoftYaHei-54"/>
     </g>
    </g>
    <g id="patch_35">
     <path d="M 741.763125 73.02375 
L 765.763125 73.02375 
L 765.763125 64.62375 
L 741.763125 64.62375 
z
" style="fill:#c44e52;"/>
    </g>
    <g id="text_41">
     <!-- WADI -->
     <g transform="translate(775.363125 73.02375)scale(0.12 -0.12)">
      <defs>
       <path d="M 4428 0 
L 3738 0 
L 3244 1325 
L 1228 1325 
L 763 0 
L 72 0 
L 1916 4841 
L 2584 4841 
L 4428 0 
z
M 3050 1872 
L 2319 3884 
Q 2284 3981 2244 4222 
L 2228 4222 
Q 2194 4003 2150 3884 
L 1425 1872 
L 3050 1872 
z
" id="MicrosoftYaHei-41" transform="scale(0.015625)"/>
       <path d="M 625 0 
L 625 4841 
L 2006 4841 
Q 3106 4841 3836 4200 
Q 4566 3559 4566 2481 
Q 4566 1356 3836 678 
Q 3106 0 1956 0 
L 625 0 
z
M 1250 4284 
L 1250 553 
L 1953 553 
Q 2875 553 3392 1056 
Q 3909 1559 3909 2466 
Q 3909 3372 3378 3828 
Q 2847 4284 1981 4284 
L 1250 4284 
z
" id="MicrosoftYaHei-44" transform="scale(0.015625)"/>
       <path d="M 1250 4841 
L 1250 0 
L 625 0 
L 625 4841 
L 1250 4841 
z
" id="MicrosoftYaHei-49" transform="scale(0.015625)"/>
      </defs>
      <use xlink:href="#MicrosoftYaHei-57"/>
      <use x="97.882812" xlink:href="#MicrosoftYaHei-41"/>
      <use x="168.244141" xlink:href="#MicrosoftYaHei-44"/>
      <use x="244.416016" xlink:href="#MicrosoftYaHei-49"/>
     </g>
    </g>
    <g id="patch_36">
     <path d="M 741.763125 91.599375 
L 765.763125 91.599375 
L 765.763125 83.199375 
L 741.763125 83.199375 
z
" style="fill:#8172b3;"/>
    </g>
    <g id="text_42">
     <!-- 港口数据集1 -->
     <g transform="translate(775.363125 91.599375)scale(0.12 -0.12)">
      <defs>
       <path d="M 1544 3347 
L 2713 3347 
L 2713 4153 
L 1856 4153 
L 1856 4566 
L 2713 4566 
L 2713 5297 
L 3175 5297 
L 3175 4566 
L 4425 4566 
L 4425 5297 
L 4888 5297 
L 4888 4566 
L 5875 4566 
L 5875 4153 
L 4888 4153 
L 4888 3347 
L 6131 3347 
L 6131 2934 
L 4909 2934 
Q 5434 2119 6313 1578 
Q 6119 1372 5981 1166 
Q 5425 1556 5006 2047 
L 5006 466 
L 4556 466 
L 4556 628 
L 2775 628 
L 2775 216 
Q 2775 -203 3169 -203 
L 4863 -203 
Q 5263 -203 5375 166 
Q 5438 409 5488 822 
Q 5681 734 5950 634 
Q 5875 272 5806 22 
Q 5625 -628 4931 -628 
L 3081 -628 
Q 2313 -628 2313 147 
L 2313 1722 
Q 1991 1378 1594 1072 
Q 1472 1259 1281 1488 
Q 1013 278 781 -791 
L 231 -628 
Q 525 366 831 1947 
Q 1094 1822 1338 1741 
Q 1313 1625 1284 1513 
Q 2172 2063 2656 2934 
L 1544 2934 
L 1544 3347 
z
M 4556 1778 
L 2775 1778 
L 2775 1028 
L 4556 1028 
L 4556 1778 
z
M 2691 2178 
L 4897 2178 
Q 4616 2531 4397 2934 
L 3150 2934 
Q 2959 2538 2691 2178 
z
M 3175 3347 
L 4425 3347 
L 4425 4153 
L 3175 4153 
L 3175 3347 
z
M 363 3666 
Q 950 3241 1488 2784 
L 1125 2384 
Q 394 3022 81 3272 
L 363 3666 
z
M 644 5184 
Q 1138 4797 1713 4278 
L 1338 3903 
Q 650 4578 325 4841 
L 644 5184 
z
" id="MicrosoftYaHei-6e2f" transform="scale(0.015625)"/>
       <path d="M 713 4684 
L 5675 4684 
L 5675 -578 
L 5138 -578 
L 5138 28 
L 1250 28 
L 1250 -578 
L 713 -578 
L 713 4684 
z
M 5138 497 
L 5138 4216 
L 1250 4216 
L 1250 497 
L 5138 497 
z
" id="MicrosoftYaHei-53e3" transform="scale(0.015625)"/>
       <path d="M 2900 1334 
L 4188 1334 
L 4188 2128 
L 2731 2128 
Q 2663 206 1844 -841 
Q 1694 -647 1506 -447 
Q 2288 516 2288 2509 
L 2288 4947 
L 5975 4947 
L 5975 3134 
L 5525 3134 
L 5525 3328 
L 2738 3328 
L 2738 2553 
L 4188 2553 
L 4188 3209 
L 4638 3209 
L 4638 2553 
L 6288 2553 
L 6288 2128 
L 4638 2128 
L 4638 1334 
L 5938 1334 
L 5938 -778 
L 5488 -778 
L 5488 -416 
L 3350 -416 
L 3350 -778 
L 2900 -778 
L 2900 1334 
z
M 100 1966 
Q 544 2088 963 2213 
L 963 3641 
L 175 3641 
L 175 4091 
L 963 4091 
L 963 5284 
L 1425 5284 
L 1425 4091 
L 2106 4091 
L 2106 3641 
L 1425 3641 
L 1425 2356 
Q 1722 2450 2006 2547 
Q 2013 2266 2044 2059 
Q 1722 1956 1425 1856 
L 1425 -34 
Q 1425 -741 806 -753 
Q 613 -759 231 -747 
Q 206 -497 156 -228 
Q 500 -266 681 -266 
Q 963 -266 963 53 
L 963 1703 
Q 534 1559 163 1428 
L 100 1966 
z
M 5525 4534 
L 2738 4534 
L 2738 3741 
L 5525 3741 
L 5525 4534 
z
M 5488 922 
L 3350 922 
L 3350 -9 
L 5488 -9 
L 5488 922 
z
" id="MicrosoftYaHei-636e" transform="scale(0.015625)"/>
       <path d="M 3056 5134 
L 3425 5359 
Q 3719 5034 3906 4722 
L 3619 4541 
L 6013 4541 
L 6013 4153 
L 3644 4153 
L 3644 3709 
L 5738 3709 
L 5738 3347 
L 3644 3347 
L 3644 2903 
L 5738 2903 
L 5738 2541 
L 3644 2541 
L 3644 2084 
L 6031 2084 
L 6031 1697 
L 1475 1697 
L 1475 1459 
L 1038 1459 
L 1038 3684 
Q 716 3309 381 3009 
Q 281 3191 81 3422 
Q 988 4178 1613 5284 
L 2044 5091 
Q 1869 4803 1688 4541 
L 3456 4541 
Q 3288 4825 3056 5134 
z
M 288 1141 
L 2981 1141 
L 2981 1566 
L 3419 1566 
L 3419 1141 
L 6106 1141 
L 6106 741 
L 3906 741 
Q 5000 -31 6338 -303 
Q 6169 -566 6044 -766 
Q 4519 -325 3419 631 
L 3419 -834 
L 2981 -834 
L 2981 638 
Q 1844 -313 356 -778 
Q 225 -584 63 -384 
Q 1406 -56 2475 741 
L 288 741 
L 288 1141 
z
M 1475 2084 
L 3206 2084 
L 3206 2541 
L 1475 2541 
L 1475 2084 
z
M 1475 2903 
L 3206 2903 
L 3206 3347 
L 1475 3347 
L 1475 2903 
z
M 1475 3709 
L 3206 3709 
L 3206 4153 
L 1475 4153 
L 1475 3709 
z
" id="MicrosoftYaHei-96c6" transform="scale(0.015625)"/>
      </defs>
      <use xlink:href="#MicrosoftYaHei-6e2f"/>
      <use x="100" xlink:href="#MicrosoftYaHei-53e3"/>
      <use x="200" xlink:href="#MicrosoftYaHei-6570"/>
      <use x="300" xlink:href="#MicrosoftYaHei-636e"/>
      <use x="400" xlink:href="#MicrosoftYaHei-96c6"/>
      <use x="500" xlink:href="#MicrosoftYaHei-31"/>
     </g>
    </g>
    <g id="patch_37">
     <path d="M 741.763125 110.175 
L 765.763125 110.175 
L 765.763125 101.775 
L 741.763125 101.775 
z
" style="fill:#ccb974;"/>
    </g>
    <g id="text_43">
     <!-- 港口数据集2 -->
     <g transform="translate(775.363125 110.175)scale(0.12 -0.12)">
      <use xlink:href="#MicrosoftYaHei-6e2f"/>
      <use x="100" xlink:href="#MicrosoftYaHei-53e3"/>
      <use x="200" xlink:href="#MicrosoftYaHei-6570"/>
      <use x="300" xlink:href="#MicrosoftYaHei-636e"/>
      <use x="400" xlink:href="#MicrosoftYaHei-96c6"/>
      <use x="500" xlink:href="#MicrosoftYaHei-32"/>
     </g>
    </g>
   </g>
  </g>
 </g>
 <defs>
  <clipPath id="pe73b3c8613">
   <rect height="367.36" width="795.22" x="57.98" y="15.48"/>
  </clipPath>
 </defs>
</svg>
