<svg width="4280" height="2458" xmlns="http://www.w3.org/2000/svg" xmlns:xlink="http://www.w3.org/1999/xlink" overflow="hidden"><defs><clipPath id="clip0"><rect x="-19" y="17" width="4280" height="2458"/></clipPath><clipPath id="clip1"><rect x="-19" y="957" width="949" height="457"/></clipPath><clipPath id="clip2"><rect x="-19" y="957" width="949" height="457"/></clipPath><clipPath id="clip3"><rect x="-19" y="957" width="949" height="457"/></clipPath><clipPath id="clip4"><rect x="-19" y="957" width="949" height="457"/></clipPath><linearGradient x1="1053.38" y1="395.583" x2="1059.32" y2="474.43" gradientUnits="userSpaceOnUse" spreadMethod="reflect" id="stroke5"><stop offset="0" stop-color="#48CB89"/><stop offset="0.0116279" stop-color="#47CA8A"/><stop offset="0.0232558" stop-color="#48CA8B"/><stop offset="0.0348837" stop-color="#48CA8D"/><stop offset="0.0465116" stop-color="#48CA8E"/><stop offset="0.0581395" stop-color="#48CA90"/><stop offset="0.0697674" stop-color="#48CA91"/><stop offset="0.0813954" stop-color="#48CA92"/><stop offset="0.0930233" stop-color="#48C994"/><stop offset="0.104651" stop-color="#48C995"/><stop offset="0.116279" stop-color="#48C996"/><stop offset="0.127907" stop-color="#48C997"/><stop offset="0.139535" stop-color="#47C899"/><stop offset="0.151163" stop-color="#47C89A"/><stop offset="0.162791" stop-color="#48C89B"/><stop offset="0.174419" stop-color="#48C79C"/><stop offset="0.186047" stop-color="#48C79E"/><stop offset="0.197674" stop-color="#48C69F"/><stop offset="0.209302" stop-color="#48C6A0"/><stop offset="0.22093" stop-color="#48C5A1"/><stop offset="0.232558" stop-color="#48C5A2"/><stop offset="0.244186" stop-color="#48C4A3"/><stop offset="0.255814" stop-color="#48C4A5"/><stop offset="0.267442" stop-color="#48C3A6"/><stop offset="0.27907" stop-color="#48C3A7"/><stop offset="0.290698" stop-color="#48C2A8"/><stop offset="0.302326" stop-color="#48C1A9"/><stop offset="0.313953" stop-color="#48C1AA"/><stop offset="0.325581" stop-color="#48C0AB"/><stop offset="0.337209" stop-color="#48BFAC"/><stop offset="0.348837" stop-color="#48BEAD"/><stop offset="0.360465" stop-color="#48BEAE"/><stop offset="0.372093" stop-color="#48BDAF"/><stop offset="0.383721" stop-color="#48BCB0"/><stop offset="0.395349" stop-color="#48BBB1"/><stop offset="0.406977" stop-color="#48BAB2"/><stop offset="0.418605" stop-color="#48BAB3"/><stop offset="0.430233" stop-color="#48B9B4"/><stop offset="0.44186" stop-color="#48B8B4"/><stop offset="0.453488" stop-color="#48B7B5"/><stop offset="0.465116" stop-color="#48B6B6"/><stop offset="0.476744" stop-color="#48B5B7"/><stop offset="0.488372" stop-color="#48B4B8"/><stop offset="0.5" stop-color="#48B3B9"/><stop offset="0.511628" stop-color="#48B2B9"/><stop offset="0.523256" stop-color="#48B1BA"/><stop offset="0.534884" stop-color="#48B0BB"/><stop offset="0.546512" stop-color="#48AEBC"/><stop offset="0.55814" stop-color="#48ADBC"/><stop offset="0.569767" stop-color="#48ACBD"/><stop offset="0.581395" stop-color="#48ABBE"/><stop offset="0.593023" stop-color="#48AABE"/><stop offset="0.604651" stop-color="#48A9BF"/><stop offset="0.616279" stop-color="#48A7C0"/><stop offset="0.627907" stop-color="#48A6C0"/><stop offset="0.639535" stop-color="#48A5C1"/><stop offset="0.651163" stop-color="#48A4C1"/><stop offset="0.662791" stop-color="#47A2C2"/><stop offset="0.674419" stop-color="#48A1C2"/><stop offset="0.686047" stop-color="#48A0C3"/><stop offset="0.697674" stop-color="#489EC3"/><stop offset="0.709302" stop-color="#489DC4"/><stop offset="0.72093" stop-color="#489BC4"/><stop offset="0.732558" stop-color="#489AC5"/><stop offset="0.744186" stop-color="#4899C5"/><stop offset="0.755814" stop-color="#4897C6"/><stop offset="0.767442" stop-color="#4896C6"/><stop offset="0.77907" stop-color="#4894C7"/><stop offset="0.790698" stop-color="#4892C7"/><stop offset="0.802326" stop-color="#4891C7"/><stop offset="0.813953" stop-color="#488FC8"/><stop offset="0.825581" stop-color="#488EC8"/><stop offset="0.837209" stop-color="#488CC8"/><stop offset="0.848837" stop-color="#488BC9"/><stop offset="0.860465" stop-color="#4889C9"/><stop offset="0.872093" stop-color="#4887C9"/><stop offset="0.883721" stop-color="#4885C9"/><stop offset="0.895349" stop-color="#4884CA"/><stop offset="0.906977" stop-color="#4882CA"/><stop offset="0.918605" stop-color="#4880CA"/><stop offset="0.930233" stop-color="#487FCA"/><stop offset="0.94186" stop-color="#487DCA"/><stop offset="0.953488" stop-color="#487BCA"/><stop offset="0.965116" stop-color="#4879CA"/><stop offset="0.976744" stop-color="#4877CA"/><stop offset="0.988372" stop-color="#4875CA"/><stop offset="1" stop-color="#4874CB"/></linearGradient><linearGradient x1="1048.65" y1="431.585" x2="1064.87" y2="561.23" gradientUnits="userSpaceOnUse" spreadMethod="reflect" id="stroke6"><stop offset="0" stop-color="#EE2FBB"/><stop offset="0.00719424" stop-color="#EE30BA"/><stop offset="0.0143885" stop-color="#EE31BA"/><stop offset="0.0215827" stop-color="#EE32BA"/><stop offset="0.028777" stop-color="#ED33BA"/><stop offset="0.0359712" stop-color="#EE34BA"/><stop offset="0.0431655" stop-color="#EE35BA"/><stop offset="0.0503597" stop-color="#ED36BA"/><stop offset="0.057554" stop-color="#EE37BA"/><stop offset="0.0647482" stop-color="#EE38BA"/><stop offset="0.0719424" stop-color="#EE39B9"/><stop offset="0.0791367" stop-color="#EE3AB9"/><stop offset="0.0863309" stop-color="#ED3BB9"/><stop offset="0.0935252" stop-color="#EE3CB9"/><stop offset="0.100719" stop-color="#EE3DB9"/><stop offset="0.107914" stop-color="#EE3EB8"/><stop offset="0.115108" stop-color="#EE40B8"/><stop offset="0.122302" stop-color="#EE41B8"/><stop offset="0.129496" stop-color="#EE42B7"/><stop offset="0.136691" stop-color="#EE42B7"/><stop offset="0.143885" stop-color="#EE43B7"/><stop offset="0.151079" stop-color="#EE44B6"/><stop offset="0.158273" stop-color="#ED45B6"/><stop offset="0.165468" stop-color="#EE46B6"/><stop offset="0.172662" stop-color="#EE47B5"/><stop offset="0.179856" stop-color="#EE48B5"/><stop offset="0.18705" stop-color="#EE49B4"/><stop offset="0.194245" stop-color="#EE4AB4"/><stop offset="0.201439" stop-color="#ED4BB4"/><stop offset="0.208633" stop-color="#EE4CB3"/><stop offset="0.215827" stop-color="#EE4DB3"/><stop offset="0.223022" stop-color="#EE4EB2"/><stop offset="0.230216" stop-color="#EE4FB2"/><stop offset="0.23741" stop-color="#EE50B1"/><stop offset="0.244604" stop-color="#EE50B1"/><stop offset="0.251799" stop-color="#EE51B0"/><stop offset="0.258993" stop-color="#EE52AF"/><stop offset="0.266187" stop-color="#EE53AF"/><stop offset="0.273381" stop-color="#EE54AE"/><stop offset="0.280576" stop-color="#EE55AE"/><stop offset="0.28777" stop-color="#EE56AD"/><stop offset="0.294964" stop-color="#EE56AC"/><stop offset="0.302158" stop-color="#EE57AC"/><stop offset="0.309353" stop-color="#EE58AB"/><stop offset="0.316547" stop-color="#EE59AA"/><stop offset="0.323741" stop-color="#EE5AAA"/><stop offset="0.330935" stop-color="#EE5AA9"/><stop offset="0.338129" stop-color="#EE5BA8"/><stop offset="0.345324" stop-color="#ED5CA7"/><stop offset="0.352518" stop-color="#EE5DA7"/><stop offset="0.359712" stop-color="#EE5EA6"/><stop offset="0.366906" stop-color="#EE5EA5"/><stop offset="0.374101" stop-color="#EE5FA4"/><stop offset="0.381295" stop-color="#EE60A4"/><stop offset="0.388489" stop-color="#EE60A3"/><stop offset="0.395683" stop-color="#EE61A2"/><stop offset="0.402878" stop-color="#ED62A1"/><stop offset="0.410072" stop-color="#EE63A0"/><stop offset="0.417266" stop-color="#EE639F"/><stop offset="0.42446" stop-color="#EE649E"/><stop offset="0.431655" stop-color="#EE659E"/><stop offset="0.438849" stop-color="#ED659D"/><stop offset="0.446043" stop-color="#EE669C"/><stop offset="0.453237" stop-color="#EE679B"/><stop offset="0.460432" stop-color="#ED679A"/><stop offset="0.467626" stop-color="#EE6899"/><stop offset="0.47482" stop-color="#EE6998"/><stop offset="0.482014" stop-color="#EE6997"/><stop offset="0.489209" stop-color="#EE6A96"/><stop offset="0.496403" stop-color="#EE6B95"/><stop offset="0.503597" stop-color="#EE6B94"/><stop offset="0.510791" stop-color="#EE6C93"/><stop offset="0.517986" stop-color="#ED6C92"/><stop offset="0.52518" stop-color="#EE6D91"/><stop offset="0.532374" stop-color="#EE6E90"/><stop offset="0.539568" stop-color="#ED6E8E"/><stop offset="0.546763" stop-color="#EE6F8D"/><stop offset="0.553957" stop-color="#EE6F8C"/><stop offset="0.561151" stop-color="#EE708B"/><stop offset="0.568345" stop-color="#EE708A"/><stop offset="0.57554" stop-color="#EE7189"/><stop offset="0.582734" stop-color="#EE7188"/><stop offset="0.589928" stop-color="#EE7286"/><stop offset="0.597122" stop-color="#EE7285"/><stop offset="0.604317" stop-color="#EE7384"/><stop offset="0.611511" stop-color="#EE7383"/><stop offset="0.618705" stop-color="#EE7482"/><stop offset="0.625899" stop-color="#ED7480"/><stop offset="0.633094" stop-color="#ED757F"/><stop offset="0.640288" stop-color="#EE757E"/><stop offset="0.647482" stop-color="#ED767D"/><stop offset="0.654676" stop-color="#ED767B"/><stop offset="0.66187" stop-color="#EE777A"/><stop offset="0.669065" stop-color="#EE7779"/><stop offset="0.676259" stop-color="#ED7777"/><stop offset="0.683453" stop-color="#EE7876"/><stop offset="0.690647" stop-color="#EE7875"/><stop offset="0.697842" stop-color="#EE7973"/><stop offset="0.705036" stop-color="#EE7972"/><stop offset="0.71223" stop-color="#EE7970"/><stop offset="0.719424" stop-color="#EE7A6F"/><stop offset="0.726619" stop-color="#EE7A6E"/><stop offset="0.733813" stop-color="#ED7B6C"/><stop offset="0.741007" stop-color="#EE7B6B"/><stop offset="0.748201" stop-color="#EE7B69"/><stop offset="0.755396" stop-color="#ED7C68"/><stop offset="0.76259" stop-color="#EE7C66"/><stop offset="0.769784" stop-color="#EE7C65"/><stop offset="0.776978" stop-color="#EE7D63"/><stop offset="0.784173" stop-color="#EE7D62"/><stop offset="0.791367" stop-color="#EE7D60"/><stop offset="0.798561" stop-color="#EE7D5F"/><stop offset="0.805755" stop-color="#EE7E5D"/><stop offset="0.81295" stop-color="#EE7E5C"/><stop offset="0.820144" stop-color="#ED7E5A"/><stop offset="0.827338" stop-color="#EE7E58"/><stop offset="0.834532" stop-color="#EE7F57"/><stop offset="0.841727" stop-color="#EE7F55"/><stop offset="0.848921" stop-color="#EE7F54"/><stop offset="0.856115" stop-color="#EE7F52"/><stop offset="0.863309" stop-color="#EE8050"/><stop offset="0.870504" stop-color="#ED804F"/><stop offset="0.877698" stop-color="#EE804D"/><stop offset="0.884892" stop-color="#EE804B"/><stop offset="0.892086" stop-color="#EE8049"/><stop offset="0.899281" stop-color="#EE8048"/><stop offset="0.906475" stop-color="#EE8146"/><stop offset="0.913669" stop-color="#EE8144"/><stop offset="0.920863" stop-color="#EE8143"/><stop offset="0.928058" stop-color="#EE8141"/><stop offset="0.935252" stop-color="#EE813F"/><stop offset="0.942446" stop-color="#EE813D"/><stop offset="0.94964" stop-color="#EE813B"/><stop offset="0.956835" stop-color="#EE813A"/><stop offset="0.964029" stop-color="#EE8138"/><stop offset="0.971223" stop-color="#EE8136"/><stop offset="0.978417" stop-color="#EE8134"/><stop offset="0.985611" stop-color="#EE8132"/><stop offset="0.992806" stop-color="#EE8130"/><stop offset="1" stop-color="#EE822F"/></linearGradient><linearGradient x1="1042.63" y1="579.109" x2="1070.92" y2="749.308" gradientUnits="userSpaceOnUse" spreadMethod="reflect" id="stroke7"><stop offset="0" stop-color="#BD7542"/><stop offset="0.0140845" stop-color="#BC7642"/><stop offset="0.028169" stop-color="#BC7842"/><stop offset="0.0422535" stop-color="#BC7A41"/><stop offset="0.056338" stop-color="#BC7C42"/><stop offset="0.0704225" stop-color="#BC7E42"/><stop offset="0.084507" stop-color="#BC7F42"/><stop offset="0.0985916" stop-color="#BC8141"/><stop offset="0.112676" stop-color="#BB8342"/><stop offset="0.126761" stop-color="#BB8542"/><stop offset="0.140845" stop-color="#BB8642"/><stop offset="0.15493" stop-color="#BA8842"/><stop offset="0.169014" stop-color="#BA8A42"/><stop offset="0.183099" stop-color="#BA8B42"/><stop offset="0.197183" stop-color="#B98D42"/><stop offset="0.211268" stop-color="#B98E42"/><stop offset="0.225352" stop-color="#B89042"/><stop offset="0.239437" stop-color="#B89142"/><stop offset="0.253521" stop-color="#B79342"/><stop offset="0.267606" stop-color="#B69442"/><stop offset="0.28169" stop-color="#B69642"/><stop offset="0.295775" stop-color="#B59742"/><stop offset="0.309859" stop-color="#B49942"/><stop offset="0.323944" stop-color="#B49A42"/><stop offset="0.338028" stop-color="#B39B42"/><stop offset="0.352113" stop-color="#B29D42"/><stop offset="0.366197" stop-color="#B29E42"/><stop offset="0.380282" stop-color="#B19F42"/><stop offset="0.394366" stop-color="#B0A042"/><stop offset="0.408451" stop-color="#AFA242"/><stop offset="0.422535" stop-color="#AEA342"/><stop offset="0.43662" stop-color="#ADA442"/><stop offset="0.450704" stop-color="#ACA542"/><stop offset="0.464789" stop-color="#ABA641"/><stop offset="0.478873" stop-color="#AAA742"/><stop offset="0.492958" stop-color="#A9A842"/><stop offset="0.507042" stop-color="#A8A942"/><stop offset="0.521127" stop-color="#A7AA42"/><stop offset="0.535211" stop-color="#A6AB42"/><stop offset="0.549296" stop-color="#A5AC42"/><stop offset="0.56338" stop-color="#A4AD42"/><stop offset="0.577465" stop-color="#A3AE42"/><stop offset="0.591549" stop-color="#A2AF42"/><stop offset="0.605634" stop-color="#A0B042"/><stop offset="0.619718" stop-color="#9FB142"/><stop offset="0.633803" stop-color="#9EB242"/><stop offset="0.647887" stop-color="#9DB242"/><stop offset="0.661972" stop-color="#9BB342"/><stop offset="0.676056" stop-color="#9AB442"/><stop offset="0.690141" stop-color="#99B442"/><stop offset="0.704225" stop-color="#97B542"/><stop offset="0.71831" stop-color="#96B642"/><stop offset="0.732394" stop-color="#94B642"/><stop offset="0.746479" stop-color="#93B742"/><stop offset="0.760563" stop-color="#91B842"/><stop offset="0.774648" stop-color="#90B842"/><stop offset="0.788732" stop-color="#8EB942"/><stop offset="0.802817" stop-color="#8DB942"/><stop offset="0.816901" stop-color="#8BBA42"/><stop offset="0.830986" stop-color="#8ABA42"/><stop offset="0.84507" stop-color="#88BA42"/><stop offset="0.859155" stop-color="#86BB42"/><stop offset="0.873239" stop-color="#85BB42"/><stop offset="0.887324" stop-color="#83BB42"/><stop offset="0.901408" stop-color="#81BC42"/><stop offset="0.915493" stop-color="#7FBC42"/><stop offset="0.929577" stop-color="#7EBC42"/><stop offset="0.943662" stop-color="#7CBC42"/><stop offset="0.957747" stop-color="#7ABC42"/><stop offset="0.971831" stop-color="#78BC42"/><stop offset="0.985915" stop-color="#76BC42"/><stop offset="1" stop-color="#75BD42"/></linearGradient><clipPath id="clip8"><rect x="3368" y="825" width="894" height="827"/></clipPath><clipPath id="clip9"><rect x="3368" y="825" width="894" height="827"/></clipPath><clipPath id="clip10"><rect x="3368" y="825" width="894" height="827"/></clipPath><clipPath id="clip11"><rect x="3368" y="825" width="894" height="827"/></clipPath><clipPath id="clip12"><rect x="878" y="1468" width="2536" height="1007"/></clipPath><clipPath id="clip13"><rect x="878" y="1468" width="2536" height="1007"/></clipPath><clipPath id="clip14"><rect x="878" y="1468" width="2536" height="1007"/></clipPath><clipPath id="clip15"><rect x="878" y="1468" width="2536" height="1007"/></clipPath><linearGradient x1="368.334" y1="398.228" x2="374.932" y2="484.042" gradientUnits="userSpaceOnUse" spreadMethod="reflect" id="stroke16"><stop offset="0" stop-color="#48CB89"/><stop offset="0.0116279" stop-color="#47CA8A"/><stop offset="0.0232558" stop-color="#48CA8B"/><stop offset="0.0348837" stop-color="#48CA8D"/><stop offset="0.0465116" stop-color="#48CA8E"/><stop offset="0.0581395" stop-color="#48CA90"/><stop offset="0.0697674" stop-color="#48CA91"/><stop offset="0.0813954" stop-color="#48CA92"/><stop offset="0.0930233" stop-color="#48C994"/><stop offset="0.104651" stop-color="#48C995"/><stop offset="0.116279" stop-color="#48C996"/><stop offset="0.127907" stop-color="#48C997"/><stop offset="0.139535" stop-color="#47C899"/><stop offset="0.151163" stop-color="#47C89A"/><stop offset="0.162791" stop-color="#48C89B"/><stop offset="0.174419" stop-color="#48C79C"/><stop offset="0.186047" stop-color="#48C79E"/><stop offset="0.197674" stop-color="#48C69F"/><stop offset="0.209302" stop-color="#48C6A0"/><stop offset="0.22093" stop-color="#48C5A1"/><stop offset="0.232558" stop-color="#48C5A2"/><stop offset="0.244186" stop-color="#48C4A3"/><stop offset="0.255814" stop-color="#48C4A5"/><stop offset="0.267442" stop-color="#48C3A6"/><stop offset="0.27907" stop-color="#48C3A7"/><stop offset="0.290698" stop-color="#48C2A8"/><stop offset="0.302326" stop-color="#48C1A9"/><stop offset="0.313953" stop-color="#48C1AA"/><stop offset="0.325581" stop-color="#48C0AB"/><stop offset="0.337209" stop-color="#48BFAC"/><stop offset="0.348837" stop-color="#48BEAD"/><stop offset="0.360465" stop-color="#48BEAE"/><stop offset="0.372093" stop-color="#48BDAF"/><stop offset="0.383721" stop-color="#48BCB0"/><stop offset="0.395349" stop-color="#48BBB1"/><stop offset="0.406977" stop-color="#48BAB2"/><stop offset="0.418605" stop-color="#48BAB3"/><stop offset="0.430233" stop-color="#48B9B4"/><stop offset="0.44186" stop-color="#48B8B4"/><stop offset="0.453488" stop-color="#48B7B5"/><stop offset="0.465116" stop-color="#48B6B6"/><stop offset="0.476744" stop-color="#48B5B7"/><stop offset="0.488372" stop-color="#48B4B8"/><stop offset="0.5" stop-color="#48B3B9"/><stop offset="0.511628" stop-color="#48B2B9"/><stop offset="0.523256" stop-color="#48B1BA"/><stop offset="0.534884" stop-color="#48B0BB"/><stop offset="0.546512" stop-color="#48AEBC"/><stop offset="0.55814" stop-color="#48ADBC"/><stop offset="0.569767" stop-color="#48ACBD"/><stop offset="0.581395" stop-color="#48ABBE"/><stop offset="0.593023" stop-color="#48AABE"/><stop offset="0.604651" stop-color="#48A9BF"/><stop offset="0.616279" stop-color="#48A7C0"/><stop offset="0.627907" stop-color="#48A6C0"/><stop offset="0.639535" stop-color="#48A5C1"/><stop offset="0.651163" stop-color="#48A4C1"/><stop offset="0.662791" stop-color="#47A2C2"/><stop offset="0.674419" stop-color="#48A1C2"/><stop offset="0.686047" stop-color="#48A0C3"/><stop offset="0.697674" stop-color="#489EC3"/><stop offset="0.709302" stop-color="#489DC4"/><stop offset="0.72093" stop-color="#489BC4"/><stop offset="0.732558" stop-color="#489AC5"/><stop offset="0.744186" stop-color="#4899C5"/><stop offset="0.755814" stop-color="#4897C6"/><stop offset="0.767442" stop-color="#4896C6"/><stop offset="0.77907" stop-color="#4894C7"/><stop offset="0.790698" stop-color="#4892C7"/><stop offset="0.802326" stop-color="#4891C7"/><stop offset="0.813953" stop-color="#488FC8"/><stop offset="0.825581" stop-color="#488EC8"/><stop offset="0.837209" stop-color="#488CC8"/><stop offset="0.848837" stop-color="#488BC9"/><stop offset="0.860465" stop-color="#4889C9"/><stop offset="0.872093" stop-color="#4887C9"/><stop offset="0.883721" stop-color="#4885C9"/><stop offset="0.895349" stop-color="#4884CA"/><stop offset="0.906977" stop-color="#4882CA"/><stop offset="0.918605" stop-color="#4880CA"/><stop offset="0.930233" stop-color="#487FCA"/><stop offset="0.94186" stop-color="#487DCA"/><stop offset="0.953488" stop-color="#487BCA"/><stop offset="0.965116" stop-color="#4879CA"/><stop offset="0.976744" stop-color="#4877CA"/><stop offset="0.988372" stop-color="#4875CA"/><stop offset="1" stop-color="#4874CB"/></linearGradient><linearGradient x1="357.169" y1="422.868" x2="377.959" y2="573.058" gradientUnits="userSpaceOnUse" spreadMethod="reflect" id="stroke17"><stop offset="0" stop-color="#EE2FBB"/><stop offset="0.00719424" stop-color="#EE30BA"/><stop offset="0.0143885" stop-color="#EE31BA"/><stop offset="0.0215827" stop-color="#EE32BA"/><stop offset="0.028777" stop-color="#ED33BA"/><stop offset="0.0359712" stop-color="#EE34BA"/><stop offset="0.0431655" stop-color="#EE35BA"/><stop offset="0.0503597" stop-color="#ED36BA"/><stop offset="0.057554" stop-color="#EE37BA"/><stop offset="0.0647482" stop-color="#EE38BA"/><stop offset="0.0719424" stop-color="#EE39B9"/><stop offset="0.0791367" stop-color="#EE3AB9"/><stop offset="0.0863309" stop-color="#ED3BB9"/><stop offset="0.0935252" stop-color="#EE3CB9"/><stop offset="0.100719" stop-color="#EE3DB9"/><stop offset="0.107914" stop-color="#EE3EB8"/><stop offset="0.115108" stop-color="#EE40B8"/><stop offset="0.122302" stop-color="#EE41B8"/><stop offset="0.129496" stop-color="#EE42B7"/><stop offset="0.136691" stop-color="#EE42B7"/><stop offset="0.143885" stop-color="#EE43B7"/><stop offset="0.151079" stop-color="#EE44B6"/><stop offset="0.158273" stop-color="#ED45B6"/><stop offset="0.165468" stop-color="#EE46B6"/><stop offset="0.172662" stop-color="#EE47B5"/><stop offset="0.179856" stop-color="#EE48B5"/><stop offset="0.18705" stop-color="#EE49B4"/><stop offset="0.194245" stop-color="#EE4AB4"/><stop offset="0.201439" stop-color="#ED4BB4"/><stop offset="0.208633" stop-color="#EE4CB3"/><stop offset="0.215827" stop-color="#EE4DB3"/><stop offset="0.223022" stop-color="#EE4EB2"/><stop offset="0.230216" stop-color="#EE4FB2"/><stop offset="0.23741" stop-color="#EE50B1"/><stop offset="0.244604" stop-color="#EE50B1"/><stop offset="0.251799" stop-color="#EE51B0"/><stop offset="0.258993" stop-color="#EE52AF"/><stop offset="0.266187" stop-color="#EE53AF"/><stop offset="0.273381" stop-color="#EE54AE"/><stop offset="0.280576" stop-color="#EE55AE"/><stop offset="0.28777" stop-color="#EE56AD"/><stop offset="0.294964" stop-color="#EE56AC"/><stop offset="0.302158" stop-color="#EE57AC"/><stop offset="0.309353" stop-color="#EE58AB"/><stop offset="0.316547" stop-color="#EE59AA"/><stop offset="0.323741" stop-color="#EE5AAA"/><stop offset="0.330935" stop-color="#EE5AA9"/><stop offset="0.338129" stop-color="#EE5BA8"/><stop offset="0.345324" stop-color="#ED5CA7"/><stop offset="0.352518" stop-color="#EE5DA7"/><stop offset="0.359712" stop-color="#EE5EA6"/><stop offset="0.366906" stop-color="#EE5EA5"/><stop offset="0.374101" stop-color="#EE5FA4"/><stop offset="0.381295" stop-color="#EE60A4"/><stop offset="0.388489" stop-color="#EE60A3"/><stop offset="0.395683" stop-color="#EE61A2"/><stop offset="0.402878" stop-color="#ED62A1"/><stop offset="0.410072" stop-color="#EE63A0"/><stop offset="0.417266" stop-color="#EE639F"/><stop offset="0.42446" stop-color="#EE649E"/><stop offset="0.431655" stop-color="#EE659E"/><stop offset="0.438849" stop-color="#ED659D"/><stop offset="0.446043" stop-color="#EE669C"/><stop offset="0.453237" stop-color="#EE679B"/><stop offset="0.460432" stop-color="#ED679A"/><stop offset="0.467626" stop-color="#EE6899"/><stop offset="0.47482" stop-color="#EE6998"/><stop offset="0.482014" stop-color="#EE6997"/><stop offset="0.489209" stop-color="#EE6A96"/><stop offset="0.496403" stop-color="#EE6B95"/><stop offset="0.503597" stop-color="#EE6B94"/><stop offset="0.510791" stop-color="#EE6C93"/><stop offset="0.517986" stop-color="#ED6C92"/><stop offset="0.52518" stop-color="#EE6D91"/><stop offset="0.532374" stop-color="#EE6E90"/><stop offset="0.539568" stop-color="#ED6E8E"/><stop offset="0.546763" stop-color="#EE6F8D"/><stop offset="0.553957" stop-color="#EE6F8C"/><stop offset="0.561151" stop-color="#EE708B"/><stop offset="0.568345" stop-color="#EE708A"/><stop offset="0.57554" stop-color="#EE7189"/><stop offset="0.582734" stop-color="#EE7188"/><stop offset="0.589928" stop-color="#EE7286"/><stop offset="0.597122" stop-color="#EE7285"/><stop offset="0.604317" stop-color="#EE7384"/><stop offset="0.611511" stop-color="#EE7383"/><stop offset="0.618705" stop-color="#EE7482"/><stop offset="0.625899" stop-color="#ED7480"/><stop offset="0.633094" stop-color="#ED757F"/><stop offset="0.640288" stop-color="#EE757E"/><stop offset="0.647482" stop-color="#ED767D"/><stop offset="0.654676" stop-color="#ED767B"/><stop offset="0.66187" stop-color="#EE777A"/><stop offset="0.669065" stop-color="#EE7779"/><stop offset="0.676259" stop-color="#ED7777"/><stop offset="0.683453" stop-color="#EE7876"/><stop offset="0.690647" stop-color="#EE7875"/><stop offset="0.697842" stop-color="#EE7973"/><stop offset="0.705036" stop-color="#EE7972"/><stop offset="0.71223" stop-color="#EE7970"/><stop offset="0.719424" stop-color="#EE7A6F"/><stop offset="0.726619" stop-color="#EE7A6E"/><stop offset="0.733813" stop-color="#ED7B6C"/><stop offset="0.741007" stop-color="#EE7B6B"/><stop offset="0.748201" stop-color="#EE7B69"/><stop offset="0.755396" stop-color="#ED7C68"/><stop offset="0.76259" stop-color="#EE7C66"/><stop offset="0.769784" stop-color="#EE7C65"/><stop offset="0.776978" stop-color="#EE7D63"/><stop offset="0.784173" stop-color="#EE7D62"/><stop offset="0.791367" stop-color="#EE7D60"/><stop offset="0.798561" stop-color="#EE7D5F"/><stop offset="0.805755" stop-color="#EE7E5D"/><stop offset="0.81295" stop-color="#EE7E5C"/><stop offset="0.820144" stop-color="#ED7E5A"/><stop offset="0.827338" stop-color="#EE7E58"/><stop offset="0.834532" stop-color="#EE7F57"/><stop offset="0.841727" stop-color="#EE7F55"/><stop offset="0.848921" stop-color="#EE7F54"/><stop offset="0.856115" stop-color="#EE7F52"/><stop offset="0.863309" stop-color="#EE8050"/><stop offset="0.870504" stop-color="#ED804F"/><stop offset="0.877698" stop-color="#EE804D"/><stop offset="0.884892" stop-color="#EE804B"/><stop offset="0.892086" stop-color="#EE8049"/><stop offset="0.899281" stop-color="#EE8048"/><stop offset="0.906475" stop-color="#EE8146"/><stop offset="0.913669" stop-color="#EE8144"/><stop offset="0.920863" stop-color="#EE8143"/><stop offset="0.928058" stop-color="#EE8141"/><stop offset="0.935252" stop-color="#EE813F"/><stop offset="0.942446" stop-color="#EE813D"/><stop offset="0.94964" stop-color="#EE813B"/><stop offset="0.956835" stop-color="#EE813A"/><stop offset="0.964029" stop-color="#EE8138"/><stop offset="0.971223" stop-color="#EE8136"/><stop offset="0.978417" stop-color="#EE8134"/><stop offset="0.985611" stop-color="#EE8132"/><stop offset="0.992806" stop-color="#EE8130"/><stop offset="1" stop-color="#EE822F"/></linearGradient><linearGradient x1="356.401" y1="542.781" x2="387.772" y2="727.905" gradientUnits="userSpaceOnUse" spreadMethod="reflect" id="stroke18"><stop offset="0" stop-color="#BD7542"/><stop offset="0.0140845" stop-color="#BC7642"/><stop offset="0.028169" stop-color="#BC7842"/><stop offset="0.0422535" stop-color="#BC7A41"/><stop offset="0.056338" stop-color="#BC7C42"/><stop offset="0.0704225" stop-color="#BC7E42"/><stop offset="0.084507" stop-color="#BC7F42"/><stop offset="0.0985916" stop-color="#BC8141"/><stop offset="0.112676" stop-color="#BB8342"/><stop offset="0.126761" stop-color="#BB8542"/><stop offset="0.140845" stop-color="#BB8642"/><stop offset="0.15493" stop-color="#BA8842"/><stop offset="0.169014" stop-color="#BA8A42"/><stop offset="0.183099" stop-color="#BA8B42"/><stop offset="0.197183" stop-color="#B98D42"/><stop offset="0.211268" stop-color="#B98E42"/><stop offset="0.225352" stop-color="#B89042"/><stop offset="0.239437" stop-color="#B89142"/><stop offset="0.253521" stop-color="#B79342"/><stop offset="0.267606" stop-color="#B69442"/><stop offset="0.28169" stop-color="#B69642"/><stop offset="0.295775" stop-color="#B59742"/><stop offset="0.309859" stop-color="#B49942"/><stop offset="0.323944" stop-color="#B49A42"/><stop offset="0.338028" stop-color="#B39B42"/><stop offset="0.352113" stop-color="#B29D42"/><stop offset="0.366197" stop-color="#B29E42"/><stop offset="0.380282" stop-color="#B19F42"/><stop offset="0.394366" stop-color="#B0A042"/><stop offset="0.408451" stop-color="#AFA242"/><stop offset="0.422535" stop-color="#AEA342"/><stop offset="0.43662" stop-color="#ADA442"/><stop offset="0.450704" stop-color="#ACA542"/><stop offset="0.464789" stop-color="#ABA641"/><stop offset="0.478873" stop-color="#AAA742"/><stop offset="0.492958" stop-color="#A9A842"/><stop offset="0.507042" stop-color="#A8A942"/><stop offset="0.521127" stop-color="#A7AA42"/><stop offset="0.535211" stop-color="#A6AB42"/><stop offset="0.549296" stop-color="#A5AC42"/><stop offset="0.56338" stop-color="#A4AD42"/><stop offset="0.577465" stop-color="#A3AE42"/><stop offset="0.591549" stop-color="#A2AF42"/><stop offset="0.605634" stop-color="#A0B042"/><stop offset="0.619718" stop-color="#9FB142"/><stop offset="0.633803" stop-color="#9EB242"/><stop offset="0.647887" stop-color="#9DB242"/><stop offset="0.661972" stop-color="#9BB342"/><stop offset="0.676056" stop-color="#9AB442"/><stop offset="0.690141" stop-color="#99B442"/><stop offset="0.704225" stop-color="#97B542"/><stop offset="0.71831" stop-color="#96B642"/><stop offset="0.732394" stop-color="#94B642"/><stop offset="0.746479" stop-color="#93B742"/><stop offset="0.760563" stop-color="#91B842"/><stop offset="0.774648" stop-color="#90B842"/><stop offset="0.788732" stop-color="#8EB942"/><stop offset="0.802817" stop-color="#8DB942"/><stop offset="0.816901" stop-color="#8BBA42"/><stop offset="0.830986" stop-color="#8ABA42"/><stop offset="0.84507" stop-color="#88BA42"/><stop offset="0.859155" stop-color="#86BB42"/><stop offset="0.873239" stop-color="#85BB42"/><stop offset="0.887324" stop-color="#83BB42"/><stop offset="0.901408" stop-color="#81BC42"/><stop offset="0.915493" stop-color="#7FBC42"/><stop offset="0.929577" stop-color="#7EBC42"/><stop offset="0.943662" stop-color="#7CBC42"/><stop offset="0.957747" stop-color="#7ABC42"/><stop offset="0.971831" stop-color="#78BC42"/><stop offset="0.985915" stop-color="#76BC42"/><stop offset="1" stop-color="#75BD42"/></linearGradient><linearGradient x1="1578.03" y1="433.224" x2="1586.19" y2="542.488" gradientUnits="userSpaceOnUse" spreadMethod="reflect" id="stroke19"><stop offset="0" stop-color="#48CB89"/><stop offset="0.0116279" stop-color="#47CA8A"/><stop offset="0.0232558" stop-color="#48CA8B"/><stop offset="0.0348837" stop-color="#48CA8D"/><stop offset="0.0465116" stop-color="#48CA8E"/><stop offset="0.0581395" stop-color="#48CA90"/><stop offset="0.0697674" stop-color="#48CA91"/><stop offset="0.0813954" stop-color="#48CA92"/><stop offset="0.0930233" stop-color="#48C994"/><stop offset="0.104651" stop-color="#48C995"/><stop offset="0.116279" stop-color="#48C996"/><stop offset="0.127907" stop-color="#48C997"/><stop offset="0.139535" stop-color="#47C899"/><stop offset="0.151163" stop-color="#47C89A"/><stop offset="0.162791" stop-color="#48C89B"/><stop offset="0.174419" stop-color="#48C79C"/><stop offset="0.186047" stop-color="#48C79E"/><stop offset="0.197674" stop-color="#48C69F"/><stop offset="0.209302" stop-color="#48C6A0"/><stop offset="0.22093" stop-color="#48C5A1"/><stop offset="0.232558" stop-color="#48C5A2"/><stop offset="0.244186" stop-color="#48C4A3"/><stop offset="0.255814" stop-color="#48C4A5"/><stop offset="0.267442" stop-color="#48C3A6"/><stop offset="0.27907" stop-color="#48C3A7"/><stop offset="0.290698" stop-color="#48C2A8"/><stop offset="0.302326" stop-color="#48C1A9"/><stop offset="0.313953" stop-color="#48C1AA"/><stop offset="0.325581" stop-color="#48C0AB"/><stop offset="0.337209" stop-color="#48BFAC"/><stop offset="0.348837" stop-color="#48BEAD"/><stop offset="0.360465" stop-color="#48BEAE"/><stop offset="0.372093" stop-color="#48BDAF"/><stop offset="0.383721" stop-color="#48BCB0"/><stop offset="0.395349" stop-color="#48BBB1"/><stop offset="0.406977" stop-color="#48BAB2"/><stop offset="0.418605" stop-color="#48BAB3"/><stop offset="0.430233" stop-color="#48B9B4"/><stop offset="0.44186" stop-color="#48B8B4"/><stop offset="0.453488" stop-color="#48B7B5"/><stop offset="0.465116" stop-color="#48B6B6"/><stop offset="0.476744" stop-color="#48B5B7"/><stop offset="0.488372" stop-color="#48B4B8"/><stop offset="0.5" stop-color="#48B3B9"/><stop offset="0.511628" stop-color="#48B2B9"/><stop offset="0.523256" stop-color="#48B1BA"/><stop offset="0.534884" stop-color="#48B0BB"/><stop offset="0.546512" stop-color="#48AEBC"/><stop offset="0.55814" stop-color="#48ADBC"/><stop offset="0.569767" stop-color="#48ACBD"/><stop offset="0.581395" stop-color="#48ABBE"/><stop offset="0.593023" stop-color="#48AABE"/><stop offset="0.604651" stop-color="#48A9BF"/><stop offset="0.616279" stop-color="#48A7C0"/><stop offset="0.627907" stop-color="#48A6C0"/><stop offset="0.639535" stop-color="#48A5C1"/><stop offset="0.651163" stop-color="#48A4C1"/><stop offset="0.662791" stop-color="#47A2C2"/><stop offset="0.674419" stop-color="#48A1C2"/><stop offset="0.686047" stop-color="#48A0C3"/><stop offset="0.697674" stop-color="#489EC3"/><stop offset="0.709302" stop-color="#489DC4"/><stop offset="0.72093" stop-color="#489BC4"/><stop offset="0.732558" stop-color="#489AC5"/><stop offset="0.744186" stop-color="#4899C5"/><stop offset="0.755814" stop-color="#4897C6"/><stop offset="0.767442" stop-color="#4896C6"/><stop offset="0.77907" stop-color="#4894C7"/><stop offset="0.790698" stop-color="#4892C7"/><stop offset="0.802326" stop-color="#4891C7"/><stop offset="0.813953" stop-color="#488FC8"/><stop offset="0.825581" stop-color="#488EC8"/><stop offset="0.837209" stop-color="#488CC8"/><stop offset="0.848837" stop-color="#488BC9"/><stop offset="0.860465" stop-color="#4889C9"/><stop offset="0.872093" stop-color="#4887C9"/><stop offset="0.883721" stop-color="#4885C9"/><stop offset="0.895349" stop-color="#4884CA"/><stop offset="0.906977" stop-color="#4882CA"/><stop offset="0.918605" stop-color="#4880CA"/><stop offset="0.930233" stop-color="#487FCA"/><stop offset="0.94186" stop-color="#487DCA"/><stop offset="0.953488" stop-color="#487BCA"/><stop offset="0.965116" stop-color="#4879CA"/><stop offset="0.976744" stop-color="#4877CA"/><stop offset="0.988372" stop-color="#4875CA"/><stop offset="1" stop-color="#4874CB"/></linearGradient><linearGradient x1="1579.09" y1="700.768" x2="1587.9" y2="814.064" gradientUnits="userSpaceOnUse" spreadMethod="reflect" id="stroke20"><stop offset="0" stop-color="#48CB89"/><stop offset="0.0116279" stop-color="#47CA8A"/><stop offset="0.0232558" stop-color="#48CA8B"/><stop offset="0.0348837" stop-color="#48CA8D"/><stop offset="0.0465116" stop-color="#48CA8E"/><stop offset="0.0581395" stop-color="#48CA90"/><stop offset="0.0697674" stop-color="#48CA91"/><stop offset="0.0813954" stop-color="#48CA92"/><stop offset="0.0930233" stop-color="#48C994"/><stop offset="0.104651" stop-color="#48C995"/><stop offset="0.116279" stop-color="#48C996"/><stop offset="0.127907" stop-color="#48C997"/><stop offset="0.139535" stop-color="#47C899"/><stop offset="0.151163" stop-color="#47C89A"/><stop offset="0.162791" stop-color="#48C89B"/><stop offset="0.174419" stop-color="#48C79C"/><stop offset="0.186047" stop-color="#48C79E"/><stop offset="0.197674" stop-color="#48C69F"/><stop offset="0.209302" stop-color="#48C6A0"/><stop offset="0.22093" stop-color="#48C5A1"/><stop offset="0.232558" stop-color="#48C5A2"/><stop offset="0.244186" stop-color="#48C4A3"/><stop offset="0.255814" stop-color="#48C4A5"/><stop offset="0.267442" stop-color="#48C3A6"/><stop offset="0.27907" stop-color="#48C3A7"/><stop offset="0.290698" stop-color="#48C2A8"/><stop offset="0.302326" stop-color="#48C1A9"/><stop offset="0.313953" stop-color="#48C1AA"/><stop offset="0.325581" stop-color="#48C0AB"/><stop offset="0.337209" stop-color="#48BFAC"/><stop offset="0.348837" stop-color="#48BEAD"/><stop offset="0.360465" stop-color="#48BEAE"/><stop offset="0.372093" stop-color="#48BDAF"/><stop offset="0.383721" stop-color="#48BCB0"/><stop offset="0.395349" stop-color="#48BBB1"/><stop offset="0.406977" stop-color="#48BAB2"/><stop offset="0.418605" stop-color="#48BAB3"/><stop offset="0.430233" stop-color="#48B9B4"/><stop offset="0.44186" stop-color="#48B8B4"/><stop offset="0.453488" stop-color="#48B7B5"/><stop offset="0.465116" stop-color="#48B6B6"/><stop offset="0.476744" stop-color="#48B5B7"/><stop offset="0.488372" stop-color="#48B4B8"/><stop offset="0.5" stop-color="#48B3B9"/><stop offset="0.511628" stop-color="#48B2B9"/><stop offset="0.523256" stop-color="#48B1BA"/><stop offset="0.534884" stop-color="#48B0BB"/><stop offset="0.546512" stop-color="#48AEBC"/><stop offset="0.55814" stop-color="#48ADBC"/><stop offset="0.569767" stop-color="#48ACBD"/><stop offset="0.581395" stop-color="#48ABBE"/><stop offset="0.593023" stop-color="#48AABE"/><stop offset="0.604651" stop-color="#48A9BF"/><stop offset="0.616279" stop-color="#48A7C0"/><stop offset="0.627907" stop-color="#48A6C0"/><stop offset="0.639535" stop-color="#48A5C1"/><stop offset="0.651163" stop-color="#48A4C1"/><stop offset="0.662791" stop-color="#47A2C2"/><stop offset="0.674419" stop-color="#48A1C2"/><stop offset="0.686047" stop-color="#48A0C3"/><stop offset="0.697674" stop-color="#489EC3"/><stop offset="0.709302" stop-color="#489DC4"/><stop offset="0.72093" stop-color="#489BC4"/><stop offset="0.732558" stop-color="#489AC5"/><stop offset="0.744186" stop-color="#4899C5"/><stop offset="0.755814" stop-color="#4897C6"/><stop offset="0.767442" stop-color="#4896C6"/><stop offset="0.77907" stop-color="#4894C7"/><stop offset="0.790698" stop-color="#4892C7"/><stop offset="0.802326" stop-color="#4891C7"/><stop offset="0.813953" stop-color="#488FC8"/><stop offset="0.825581" stop-color="#488EC8"/><stop offset="0.837209" stop-color="#488CC8"/><stop offset="0.848837" stop-color="#488BC9"/><stop offset="0.860465" stop-color="#4889C9"/><stop offset="0.872093" stop-color="#4887C9"/><stop offset="0.883721" stop-color="#4885C9"/><stop offset="0.895349" stop-color="#4884CA"/><stop offset="0.906977" stop-color="#4882CA"/><stop offset="0.918605" stop-color="#4880CA"/><stop offset="0.930233" stop-color="#487FCA"/><stop offset="0.94186" stop-color="#487DCA"/><stop offset="0.953488" stop-color="#487BCA"/><stop offset="0.965116" stop-color="#4879CA"/><stop offset="0.976744" stop-color="#4877CA"/><stop offset="0.988372" stop-color="#4875CA"/><stop offset="1" stop-color="#4874CB"/></linearGradient><clipPath id="clip21"><rect x="878" y="16" width="2535" height="1001"/></clipPath><clipPath id="clip22"><rect x="878" y="16" width="2535" height="1001"/></clipPath><clipPath id="clip23"><rect x="878" y="16" width="2535" height="1001"/></clipPath><clipPath id="clip24"><rect x="878" y="16" width="2535" height="1001"/></clipPath></defs><g clip-path="url(#clip0)" transform="translate(19 -17)"><text font-family="Cambria Math,Cambria Math_MSFontService,sans-serif" font-weight="400" font-size="128" transform="matrix(1 0 0 1 2029.28 1282)">⨁<tspan font-family="Microsoft YaHei,Microsoft YaHei_MSFontService,sans-serif" font-weight="700" font-size="101" x="-454.165" y="-10">特征拼接</tspan></text><path d="M435.844 992.223 435.844 510.844 853.124 510.844 853.124 521.156 441 521.156 446.156 516 446.156 992.223ZM847.968 500.531 878.905 516 847.968 531.469Z" fill="#4874CB"/><path d="M0-5.15625 562.93-5.15625 563.15 397.599 552.837 397.605 552.62 0.0028163 557.776 5.15625 0 5.15625ZM573.231 391.799 559.079 423.36 542.321 393.102Z" fill="#4874CB" transform="matrix(1.83697e-16 1 1 -1.83697e-16 455 1414)"/><path d="M2088.16 975 2088.16 1161.64 2077.84 1161.64 2077.84 975ZM2098.47 1156.49 2083 1187.43 2067.53 1156.49Z" fill="#4874CB"/><path d="M5.15625-1.12302e-05 5.15655 139.92-5.15595 139.92-5.15625 1.12302e-05ZM15.469 134.763 0.000360892 165.701-15.4685 134.763Z" fill="#4874CB" transform="matrix(1 0 0 -1 2088 1468.7)"/><path d="M2160 1230.84 3305.5 1230.84 3305.5 1241.16 2160 1241.16ZM3300.34 1220.53 3331.28 1236 3300.34 1251.47Z" fill="#4874CB"/><g clip-path="url(#clip1)"><g clip-path="url(#clip2)"><g clip-path="url(#clip3)"><g clip-path="url(#clip4)"><path d="M443.97 359.859C443.97 319.607 476.601 286.976 516.854 286.976L1274.28 286.976C1314.53 286.976 1347.16 319.607 1347.16 359.859L1347.16 651.387C1347.16 691.64 1314.53 724.272 1274.28 724.272L516.854 724.272C476.601 724.272 443.97 691.64 443.97 651.387Z" stroke="#000000" stroke-width="2.91319" stroke-miterlimit="8" fill="#FFFFFF" fill-rule="evenodd" transform="matrix(1.00033 0 0 1 -420.199 688.139)"/><path d="M794.824 454.14C796.031 451.893 798.784 446.807 801.428 441.839 804.065 436.872 804.288 433.797 807.917 429.539 811.547 425.281 814.737 420.669 819.358 420.669 823.979 420.669 826.185 425.281 830.805 429.539 835.426 433.797 837.625 437.227 842.246 441.839 846.867 446.452 849.835 452.72 853.802 452.366 857.761 452.011 857.977 444.323 861.944 440.065 865.903 435.808 868.764 431.668 873.385 431.313 878.005 430.958 880.205 435.808 884.825 438.291 889.446 440.775 891.652 441.485 896.273 443.613 900.894 445.743 903.201 448.108 907.822 448.818 912.443 449.527 914.979 449.882 919.269 447.043 923.559 444.205 924.767 438.291 929.057 434.743 933.347 431.195 935.884 431.668 940.504 429.539 945.125 427.41 947.325 425.281 951.945 424.217 956.566 423.152 958.765 423.507 963.386 424.217 968.007 424.927 970.213 426.701 974.833 427.765 979.454 428.829 983.084 426.701 986.382 429.539 989.688 432.378 987.596 439.001 991.226 441.839 994.855 444.678 999.368 444.678 1004.32 443.613 1009.27 442.549 1010.81 440.065 1015.76 436.517 1020.71 432.969 1023.9 428.475 1028.85 425.991 1033.8 423.507 1035.68 425.991 1040.3 424.217 1044.92 422.443 1047.23 418.303 1051.85 417.238 1056.47 416.174 1058.68 416.411 1063.3 418.894 1067.92 421.378 1070.12 425.281 1074.74 429.539 1079.36 433.797 1081.56 436.517 1086.18 440.065 1090.8 443.613 1093.01 445.269 1097.63 447.043 1102.25 448.818 1105.44 450.946 1109.07 448.818 1112.7 446.688 1112.04 439.355 1115.67 436.517 1119.3 433.678 1122.49 435.453 1127.11 434.743 1131.73 434.034 1133.93 433.678 1138.55 432.969 1143.17 432.259 1146.03 434.152 1150 431.313 1153.96 428.475 1154.29 419.959 1158.25 418.894 1162.21 417.83 1165.07 424.217 1169.69 425.991 1174.31 427.765 1176.52 427.055 1181.14 427.765 1185.76 428.475 1187.96 427.055 1192.58 429.539 1197.2 432.022 1199.4 436.517 1204.02 440.065 1208.64 443.613 1210.85 445.624 1215.47 447.043 1220.09 448.462 1222.29 447.398 1226.91 447.043 1231.53 446.688 1233.73 447.517 1238.35 445.387 1242.97 443.259 1245.28 439.355 1249.9 436.517 1254.53 433.678 1256.72 432.732 1261.34 431.313 1265.97 429.894 1268.17 427.765 1272.79 429.539 1277.41 431.313 1279.61 437.581 1284.23 440.065 1288.85 442.549 1291.05 442.549 1295.67 441.839 1300.29 441.129 1302.5 438.646 1307.12 436.517 1311.74 434.388 1316.47 432.259 1318.56 431.313" stroke="url(#stroke5)" stroke-width="2.91319" stroke-miterlimit="8" fill="none" fill-rule="evenodd" transform="matrix(1.00033 0 0 1 -420.199 688.139)"/><path d="M794.824 522.532C796.915 519.909 801.644 513.738 806.265 508.647 810.886 503.556 812.862 500.933 817.814 497.23 822.765 493.527 825.956 493.527 830.907 490.288 835.858 487.048 837.727 485.351 842.348 481.185 846.969 477.02 849.499 468.689 853.789 469.614 858.079 470.54 859.287 481.648 863.577 485.814 867.868 489.979 870.397 488.899 875.018 490.288 879.639 491.676 881.838 493.065 886.459 492.602 891.08 492.139 893.279 491.213 897.9 487.974 902.521 484.734 904.828 479.796 909.449 476.557 914.07 473.317 916.269 472.392 920.89 471.928 925.51 471.466 928.04 470.54 932.331 474.243 936.621 477.946 938.82 483.808 942.119 490.288 945.424 496.767 945.094 500.778 948.723 506.333 952.352 511.887 955.543 517.904 960.164 517.904 964.785 517.904 966.984 511.424 971.605 506.333 976.225 501.242 978.425 497.693 983.045 492.602 987.666 487.511 989.865 483.499 994.486 481.185 999.107 478.871 1001.31 481.185 1005.93 481.185 1010.55 481.185 1012.75 480.26 1017.37 481.185 1021.99 482.111 1024.3 483.962 1028.92 485.814 1033.54 487.665 1035.74 489.362 1040.36 490.288 1044.98 491.213 1047.18 490.288 1051.8 490.288 1056.42 490.288 1058.62 490.288 1063.24 490.288 1067.86 490.288 1070.72 487.048 1074.68 490.288 1078.64 493.527 1079.52 499.853 1082.82 506.333 1086.12 512.812 1087.11 518.366 1091.07 522.532 1095.03 526.698 1098.55 529.32 1102.51 527.006 1106.47 524.692 1106.69 517.441 1110.65 510.961 1114.61 504.481 1117.58 500.933 1122.2 494.916 1126.82 488.899 1129.35 487.202 1133.64 481.185 1137.93 475.169 1139.14 466.529 1143.43 465.14 1147.72 463.752 1150.25 470.077 1154.87 474.243 1159.5 478.408 1163.67 480.26 1166.32 485.814 1168.95 491.368 1165.32 497.23 1167.96 501.859 1170.61 506.487 1174.78 507.721 1179.4 508.647 1184.02 509.573 1187.54 510.035 1190.84 506.333 1194.14 502.63 1192.5 495.379 1195.8 490.288 1199.09 485.197 1202.62 483.499 1207.24 481.185 1211.86 478.871 1214.06 480.723 1218.68 478.871 1223.3 477.02 1226.49 470.077 1230.12 471.928 1233.75 473.78 1235.4 481.494 1236.72 487.974 1238.04 494.454 1236.38 497.693 1236.72 504.173 1237.05 510.653 1235.73 518.83 1238.37 520.218 1241.01 521.607 1246.18 516.052 1249.81 510.961 1253.44 505.87 1253.66 501.396 1256.3 494.916 1258.94 488.436 1259.27 482.111 1262.9 478.871 1266.53 475.631 1269.72 477.483 1274.34 478.871 1278.96 480.26 1281.16 481.185 1285.78 485.814 1290.4 490.442 1292.6 500.47 1297.22 501.859 1301.84 503.247 1304.37 497.693 1308.66 492.602 1312.95 487.511 1316.8 479.643 1318.56 476.557" stroke="url(#stroke6)" stroke-width="2.91319" stroke-miterlimit="8" fill="none" fill-rule="evenodd" transform="matrix(1.00033 0 0 1 -420.199 688.139)"/><path d="M794.824 666.419C796.89 663.718 801.993 657.609 806.233 651.641 810.472 645.679 811.992 642.838 815.907 636.87 819.816 630.903 821.99 621.953 825.574 621.953 829.159 621.953 830.685 630.477 833.615 636.87 836.551 643.264 837.53 647.383 840.136 653.77 842.742 660.165 844.592 668.548 846.543 668.548 848.501 668.548 848.825 659.739 849.804 653.77 850.782 647.808 850.134 644.821 851.437 638.859 852.74 632.891 853.064 624.084 856.325 624.084 859.586 624.084 864.041 632.891 867.626 638.859 871.211 644.821 871.427 647.808 874.039 653.77 876.645 659.739 877.948 668.974 880.554 668.548 883.167 668.122 884.361 658.035 886.967 651.641 889.573 645.247 890.228 642.838 893.489 636.87 896.749 630.903 900.226 621.527 903.156 621.953 906.093 622.38 905.762 632.466 908.044 638.859 910.326 645.247 910.872 653.345 914.457 653.77 918.042 654.203 922.174 646.531 925.758 640.988 929.343 635.448 928.695 625.789 932.28 626.215 935.865 626.641 940.32 636.73 943.581 643.118 946.841 649.512 945.532 657.895 948.469 657.895 951.405 657.895 954.882 649.086 958.136 643.118 961.397 637.156 961.289 628.346 964.549 628.346 967.81 628.346 971.395 637.156 974.331 643.118 977.261 649.086 977.153 651.501 979.111 657.895 981.069 664.283 982.041 668.402 983.999 674.796 985.956 681.19 986.935 689.568 988.887 689.568 990.844 689.568 991.391 680.765 993.673 674.796 995.955 668.828 996.933 665.987 1000.19 660.025 1003.45 654.056 1006.28 651.215 1009.86 645.247 1013.45 639.285 1013.99 633.46 1017.9 630.477 1021.81 627.494 1024.64 630.477 1029.2 630.477 1033.77 630.477 1036.05 630.477 1040.61 630.477 1045.18 630.477 1047.67 627.494 1051.91 630.477 1056.15 633.46 1058.32 639.285 1061.58 645.247 1064.84 651.215 1065.06 654.056 1067.99 660.025 1070.93 665.987 1073.54 674.796 1076.14 674.796 1078.75 674.796 1079.62 665.987 1080.92 660.025 1082.23 654.056 1080.6 645.247 1082.56 645.247 1084.51 645.247 1087.12 654.056 1090.7 660.025 1094.29 665.987 1097.44 668.402 1100.37 674.796 1103.31 681.19 1103.31 685.309 1105.27 691.703 1107.22 698.091 1108.74 706.475 1110.05 706.475 1111.35 706.475 1111.02 697.665 1111.67 691.703 1112.33 685.735 1112.98 682.894 1113.31 676.925 1113.63 670.964 1113.31 668.122 1113.31 662.154 1113.31 656.186 1111.02 652.919 1113.31 647.383 1115.59 641.84 1120.04 636.87 1124.61 634.738 1129.17 632.607 1131.34 636.018 1135.91 636.87 1140.47 637.721 1142.97 635.448 1147.21 638.859 1151.44 642.266 1152.75 651.215 1156.99 653.77 1161.22 656.332 1164.05 655.054 1168.29 651.641 1172.53 648.234 1173.72 638.999 1177.96 636.87 1182.19 634.738 1184.69 637.156 1189.25 640.988 1193.82 644.821 1195.99 652.779 1200.56 655.76 1205.12 658.747 1207.29 656.612 1211.86 655.76 1216.42 654.908 1218.7 654.203 1223.27 651.641 1227.83 649.086 1230 646.105 1234.57 643.118 1239.13 640.137 1241.3 638.147 1245.87 636.87 1250.43 635.591 1252.61 633.886 1257.17 636.87 1261.73 639.851 1264.56 645.679 1268.47 651.641 1272.38 657.609 1272.6 662.58 1276.51 666.419 1280.43 670.252 1283.36 672.381 1287.92 670.677 1292.48 668.974 1294.66 660.025 1299.22 657.895 1303.78 655.76 1306.61 656.612 1310.52 660.025 1314.43 663.432 1317.15 671.815 1318.56 674.796" stroke="url(#stroke7)" stroke-width="2.91319" stroke-miterlimit="8" fill="none" fill-rule="evenodd" transform="matrix(1.00033 0 0 1 -420.199 688.139)"/><text font-family="Microsoft YaHei,Microsoft YaHei_MSFontService,sans-serif" font-weight="400" font-size="55" transform="matrix(0.635815 0 0 0.635605 619.009 1247)">•<tspan font-size="55" x="0.513862" y="44.0525">•</tspan><tspan font-size="55" x="0" y="84.9585">•</tspan></text><path d="M775.756 660.711C751.882 660.711 732.535 657.489 732.535 653.51L732.535 562.722C732.535 558.744 713.187 555.519 689.313 555.519 713.187 555.519 732.535 552.294 732.535 548.315L732.535 457.529C732.535 453.551 751.882 450.326 775.756 450.326" stroke="#4874CB" stroke-width="2.91319" stroke-miterlimit="8" fill="none" fill-rule="evenodd" transform="matrix(1.00033 0 0 1 -420.199 688.139)"/><text font-family="Microsoft YaHei,Microsoft YaHei_MSFontService,sans-serif" font-weight="700" font-size="147" transform="matrix(0.635815 0 0 0.635605 289.523 1075)">输入数据<tspan font-family="Times New Roman,Times New Roman_MSFontService,sans-serif" font-weight="400" font-size="128" x="-407.9" y="239.142">N</tspan><tspan font-weight="400" font-size="128" x="-315.087" y="239.142">维时</tspan><tspan font-weight="400" font-size="128" x="-407.9" y="391.753">间序列</tspan></text></g></g></g></g><g clip-path="url(#clip8)"><g clip-path="url(#clip9)"><g clip-path="url(#clip10)"><g clip-path="url(#clip11)"><path d="M873.999 484.714C873.999 413.258 931.923 355.332 1003.38 355.332L1634.15 355.332C1705.61 355.332 1763.54 413.258 1763.54 484.714L1763.54 1002.22C1763.54 1073.68 1705.61 1131.61 1634.15 1131.61L1003.38 1131.61C931.923 1131.61 873.999 1073.68 873.999 1002.22Z" stroke="#000000" stroke-width="3.16541" stroke-miterlimit="8" fill="#FFFFFF" fill-rule="evenodd" transform="matrix(1.00001 0 0 1 2495.72 471.395)"/><path d="M958.602 410.237 1700.34 410.237 1700.34 540.077 958.602 540.077Z" fill="#ACD78E" transform="matrix(1.00001 0 0 1 2495.72 471.395)"/><text fill="#44546A" font-family="Microsoft YaHei,Microsoft YaHei_MSFontService,sans-serif" font-weight="400" font-size="128" transform="matrix(0.690642 0 0 0.690636 3559.18 978)">异常得分计算</text><path d="M958.602 627.788 1700.34 627.788 1700.34 758.318 958.602 758.318Z" fill="#ACD78E" transform="matrix(1.00001 0 0 1 2495.72 471.395)"/><text fill="#44546A" font-family="Microsoft YaHei,Microsoft YaHei_MSFontService,sans-serif" font-weight="400" font-size="128" transform="matrix(0.690642 0 0 0.690636 3559.18 1197)">异常阈值确定</text><path d="M958.602 846.029 1700.34 846.029 1700.34 975.868 958.602 975.868Z" fill="#ACD78E" transform="matrix(1.00001 0 0 1 2495.72 471.395)"/><text fill="#44546A" font-family="Microsoft YaHei,Microsoft YaHei_MSFontService,sans-serif" font-weight="400" font-size="128" transform="matrix(0.690642 0 0 0.690636 3647.81 1414)">异常检测</text><path d="M1333.04 540.077 1333.04 620.488 1325.91 620.488 1325.91 540.077ZM1345.01 600.916 1329.47 627.556 1313.93 600.916C1312.94 599.217 1313.52 597.036 1315.22 596.045 1316.92 595.054 1319.09 595.628 1320.09 597.327L1332.55 618.693 1326.4 618.693 1338.86 597.327C1339.85 595.628 1342.04 595.054 1343.73 596.045 1345.43 597.036 1346.01 599.217 1345.01 600.916Z" fill="#4874CB" transform="matrix(1.00001 0 0 1 2495.72 471.395)"/><path d="M1333.04 758.318 1333.04 838.729 1325.91 838.729 1325.91 758.318ZM1345.01 819.156 1329.47 845.794 1313.93 819.156C1312.94 817.457 1313.52 815.274 1315.22 814.287 1316.92 813.292 1319.09 813.866 1320.09 815.565L1332.55 836.933 1326.4 836.933 1338.86 815.565C1339.85 813.866 1342.04 813.292 1343.73 814.287 1345.43 815.274 1346.01 817.457 1345.01 819.156Z" fill="#4874CB" transform="matrix(1.00001 0 0 1 2495.72 471.395)"/><text font-family="Microsoft YaHei,Microsoft YaHei_MSFontService,sans-serif" font-weight="700" font-size="147" transform="matrix(0.690642 0 0 0.690636 3521.2 1565)">异常检测模块</text></g></g></g></g><g clip-path="url(#clip12)"><g clip-path="url(#clip13)"><g clip-path="url(#clip14)"><g clip-path="url(#clip15)"><path d="M1574.52 417.334 2357.97 417.334 2357.97 509.383 1574.52 509.383Z" stroke="#4874CB" stroke-width="7.13724" stroke-miterlimit="8" fill="#FFFFFF" transform="matrix(1.00009 0 0 1 852.006 1077.66)"/><path d="M1574.52 412.489 2338.59 412.489 2338.59 504.538 1574.52 504.538Z" stroke="#4874CB" stroke-width="7.13724" stroke-miterlimit="8" fill="#FFFFFF" transform="matrix(1.00009 0 0 1 852.006 1077.66)"/><path d="M1555.14 791.066 2357.97 791.066 2357.97 901.801 1555.14 901.801Z" stroke="#B58B02" stroke-width="7.13724" stroke-miterlimit="8" fill="#FFFFFF" transform="matrix(1.00009 0 0 1 852.006 1077.66)"/><path d="M1555.14 535.682 2357.97 535.682 2357.97 632.576 1555.14 632.576Z" stroke="#F5B7BF" stroke-width="7.13724" stroke-miterlimit="8" fill="#FFFFFF" transform="matrix(1.00009 0 0 1 852.006 1077.66)"/><path d="M1555.14 419.41 2357.97 419.41 2357.97 515.612 1555.14 515.612Z" stroke="#A9E9E4" stroke-width="7.13724" stroke-miterlimit="8" fill="#FFFFFF" transform="matrix(1.00009 0 0 1 852.006 1077.66)"/><path d="M28.7221 550.104C28.7221 462.825 99.475 392.072 186.753 392.072L2367.77 392.072C2455.05 392.072 2525.8 462.825 2525.8 550.104L2525.8 1182.21C2525.8 1269.49 2455.05 1340.24 2367.77 1340.24L186.753 1340.24C99.475 1340.24 28.7221 1269.49 28.7221 1182.21Z" stroke="#000000" stroke-width="3.17211" stroke-miterlimit="8" fill="#FFFFFF" fill-rule="evenodd" transform="matrix(1.00009 0 0 1 852.006 1077.66)"/><text fill="#FFFFFF" font-family="Times New Roman,Times New Roman_MSFontService,sans-serif" font-weight="400" font-size="83" transform="matrix(0.692161 0 0 0.692096 2008.56 1963)">Univariate</text><path d="M92.3948 461.974C93.687 459.528 96.6242 453.989 99.4438 448.581 102.263 443.171 102.498 439.823 106.375 435.187 110.252 430.551 113.659 425.528 118.593 425.528 123.527 425.528 125.877 430.551 130.811 435.187 135.746 439.823 138.095 443.558 143.029 448.581 147.964 453.603 151.136 460.429 155.365 460.043 159.595 459.656 159.829 451.285 164.059 446.649 168.288 442.013 171.342 437.505 176.277 437.119 181.211 436.732 183.561 442.013 188.495 444.717 193.429 447.421 195.779 448.195 200.713 450.512 205.647 452.83 208.115 455.406 213.049 456.179 217.983 456.952 220.685 457.338 225.267 454.247 229.849 451.156 231.141 444.717 235.722 440.853 240.305 436.99 243.007 437.505 247.941 435.187 252.875 432.869 255.225 430.551 260.159 429.392 265.093 428.232 267.443 428.619 272.377 429.392 277.311 430.164 279.661 432.096 284.595 433.255 289.529 434.414 293.407 432.096 296.931 435.187 300.455 438.277 298.223 445.49 302.1 448.581 305.977 451.672 310.793 451.672 316.08 450.512 321.367 449.353 323.012 446.649 328.299 442.785 333.585 438.922 336.992 434.028 342.279 431.323 347.565 428.619 349.563 431.323 354.497 429.392 359.431 427.46 361.898 422.952 366.832 421.793 371.766 420.634 374.116 420.892 379.051 423.596 383.985 426.301 386.334 430.551 391.269 435.187 396.203 439.823 398.553 442.785 403.487 446.649 408.421 450.512 410.771 452.315 415.705 454.247 420.639 456.179 424.046 458.497 427.923 456.179 431.8 453.861 431.095 445.876 434.972 442.785 438.849 439.694 442.256 441.626 447.19 440.853 452.124 440.081 454.474 439.694 459.408 438.922 464.342 438.149 467.397 440.21 471.626 437.119 475.856 434.028 476.208 424.755 480.437 423.596 484.667 422.438 487.722 429.392 492.655 431.323 497.59 433.255 499.939 432.483 504.874 433.255 509.808 434.028 512.157 432.483 517.092 435.187 522.026 437.891 524.376 442.785 529.31 446.649 534.244 450.512 536.594 452.701 541.528 454.247 546.462 455.792 548.812 454.634 553.746 454.247 558.68 453.861 561.03 454.763 565.964 452.444 570.898 450.126 573.366 445.876 578.3 442.785 583.234 439.694 585.584 438.664 590.518 437.119 595.453 435.573 597.801 433.255 602.736 435.187 607.67 437.119 610.02 443.944 614.954 446.649 619.888 449.353 622.238 449.353 627.173 448.581 632.107 447.808 634.456 445.104 639.39 442.785 644.325 440.467 649.377 438.149 651.609 437.119" stroke="url(#stroke16)" stroke-width="3.17211" stroke-miterlimit="8" fill="none" fill-rule="evenodd" transform="matrix(1.00009 0 0 1 852.006 1077.66)"/><path d="M92.3948 528.421C94.5909 525.363 99.5601 518.168 104.414 512.233 109.267 506.297 111.348 503.24 116.548 498.922 121.749 494.606 125.101 494.606 130.301 490.828 135.501 487.051 137.466 485.073 142.32 480.216 147.174 475.36 149.832 465.647 154.339 466.726 158.846 467.805 160.117 480.756 164.624 485.612 169.132 490.468 171.789 489.21 176.644 490.828 181.497 492.447 183.808 494.066 188.663 493.527 193.516 492.987 195.828 491.907 200.682 488.131 205.535 484.353 207.962 478.598 212.816 474.82 217.67 471.043 219.981 469.964 224.835 469.424 229.689 468.885 232.347 467.805 236.854 472.122 241.361 476.439 243.673 483.274 247.139 490.828 250.607 498.383 250.26 503.06 254.073 509.535 257.887 516.01 261.239 523.025 266.092 523.025 270.947 523.025 273.258 515.47 278.112 509.535 282.966 503.599 285.276 499.462 290.131 493.527 294.984 487.591 297.295 482.914 302.15 480.216 307.003 477.518 309.315 480.216 314.169 480.216 319.022 480.216 321.334 479.137 326.188 480.216 331.041 481.295 333.469 483.454 338.322 485.612 343.176 487.771 345.487 489.749 350.341 490.828 355.195 491.907 357.506 490.828 362.36 490.828 367.214 490.828 369.525 490.828 374.379 490.828 379.233 490.828 382.238 487.051 386.398 490.828 390.559 494.606 391.483 501.98 394.95 509.535 398.418 517.089 399.457 523.565 403.618 528.421 407.778 533.277 411.476 536.335 415.637 533.637 419.797 530.939 420.028 522.486 424.188 514.931 428.349 507.376 431.469 503.24 436.324 496.225 441.177 489.21 443.835 487.231 448.343 480.216 452.85 473.201 454.121 463.129 458.628 461.51 463.135 459.891 465.793 467.266 470.647 472.122 475.5 476.979 479.893 479.137 482.666 485.612 485.44 492.087 481.626 498.922 484.399 504.319 487.173 509.715 491.565 511.154 496.418 512.233 501.272 513.312 504.971 513.852 508.437 509.535 511.905 505.218 510.171 496.764 513.638 490.828 517.105 484.893 520.803 482.914 525.657 480.216 530.511 477.518 532.822 479.677 537.676 477.518 542.53 475.36 545.881 467.266 549.695 469.424 553.509 471.583 555.242 480.576 556.629 488.131 558.016 495.685 556.283 499.462 556.629 507.016 556.975 514.571 555.589 524.104 558.362 525.723 561.136 527.342 566.568 520.867 570.381 514.931 574.195 508.995 574.427 503.779 577.2 496.225 579.974 488.67 580.32 481.295 584.134 477.518 587.948 473.741 591.299 475.899 596.153 477.518 601.007 479.137 603.318 480.216 608.172 485.612 613.026 491.008 615.337 502.7 620.191 504.319 625.045 505.937 627.703 499.462 632.21 493.527 636.717 487.591 640.762 478.418 642.611 474.82" stroke="url(#stroke17)" stroke-width="3.17211" stroke-miterlimit="8" fill="none" fill-rule="evenodd" transform="matrix(1.00009 0 0 1 852.006 1077.66)"/><path d="M92.3948 637.749C94.5992 634.811 100.052 628.16 104.577 621.663 109.101 615.166 110.726 612.073 114.902 605.576 119.079 599.08 121.4 589.335 125.229 589.335 129.057 589.335 130.681 598.616 133.814 605.576 136.946 612.537 137.99 617.022 140.775 623.983 143.559 630.944 145.532 640.07 147.62 640.07 149.708 640.07 150.056 630.479 151.1 623.983 152.145 617.487 151.449 614.238 152.841 607.742 154.233 601.245 154.581 591.656 158.062 591.656 161.542 591.656 166.299 601.245 170.128 607.742 173.956 614.238 174.188 617.487 176.973 623.983 179.757 630.479 181.15 640.534 183.934 640.07 186.719 639.605 187.995 628.623 190.779 621.663 193.563 614.702 194.26 612.073 197.74 605.576 201.221 599.08 204.934 588.871 208.066 589.335 211.199 589.799 210.851 600.782 213.287 607.742 215.724 614.702 216.304 623.519 220.132 623.983 223.961 624.447 228.37 616.094 232.198 610.062 236.027 604.03 235.331 593.511 239.159 593.976 242.988 594.439 247.745 605.421 251.225 612.382 254.706 619.343 253.313 628.469 256.447 628.469 259.579 628.469 263.291 618.879 266.772 612.382 270.252 605.886 270.137 596.295 273.617 596.295 277.098 596.295 280.927 605.886 284.059 612.382 287.192 618.879 287.075 621.508 289.164 628.469 291.252 635.429 292.296 639.915 294.384 646.875 296.473 653.836 297.517 662.962 299.606 662.962 301.694 662.962 302.274 653.372 304.711 646.875 307.147 640.379 308.191 637.286 311.672 630.789 315.152 624.292 318.168 621.199 321.997 614.702 325.826 608.206 326.406 601.864 330.582 598.616 334.759 595.367 337.776 598.616 342.648 598.616 347.522 598.616 349.958 598.616 354.831 598.616 359.704 598.616 362.372 595.367 366.897 598.616 371.422 601.864 373.742 608.206 377.223 614.702 380.703 621.199 380.935 624.292 384.068 630.789 387.2 637.286 389.984 646.875 392.769 646.875 395.554 646.875 396.482 637.286 397.874 630.789 399.266 624.292 397.526 614.702 399.614 614.702 401.702 614.702 404.487 624.292 408.316 630.789 412.145 637.286 415.509 639.915 418.641 646.875 421.774 653.836 421.774 658.322 423.862 665.282 425.951 672.243 427.575 681.369 428.967 681.369 430.359 681.369 430.011 671.778 430.707 665.282 431.404 658.786 432.1 655.692 432.448 649.196 432.796 642.699 432.448 639.605 432.448 633.109 432.448 626.613 430.011 623.055 432.448 617.022 434.884 610.99 439.641 605.576 444.514 603.256 449.386 600.936 451.707 604.648 456.58 605.576 461.452 606.505 464.121 604.03 468.646 607.742 473.171 611.454 474.563 621.199 479.088 623.983 483.613 626.767 486.629 625.375 491.154 621.663 495.679 617.95 496.955 607.896 501.48 605.576 506.004 603.256 508.673 605.886 513.546 610.062 518.418 614.238 520.739 622.9 525.612 626.148 530.484 629.397 532.805 627.076 537.678 626.148 542.55 625.22 544.987 624.447 549.859 621.663 554.732 618.879 557.053 615.631 561.925 612.382 566.798 609.134 569.119 606.968 573.991 605.576 578.864 604.184 581.185 602.328 586.057 605.576 590.93 608.825 593.946 615.166 598.123 621.663 602.3 628.16 602.532 633.573 606.709 637.749 610.886 641.925 614.018 644.246 618.891 642.39 623.764 640.534 626.084 630.789 630.957 628.469 635.83 626.148 638.846 627.076 643.023 630.789 647.2 634.501 650.1 643.627 651.609 646.875" stroke="url(#stroke18)" stroke-width="3.17211" stroke-miterlimit="8" fill="none" fill-rule="evenodd" transform="matrix(1.00009 0 0 1 852.006 1077.66)"/><text font-family="Microsoft YaHei,Microsoft YaHei_MSFontService,sans-serif" font-weight="400" font-size="55" transform="matrix(0.692161 0 0 0.692096 1263.62 1640)">•<tspan font-size="55" x="0" y="67.9096">•</tspan><tspan font-size="55" x="0" y="34.6773">•</tspan><tspan font-size="128" x="470.307" y="56.3506">单变量注</tspan><tspan font-size="128" x="470.307" y="210.953">意力机制</tspan></text><path d="M1215.67 514.573C1217.36 511.422 1221.22 504.288 1224.91 497.321 1228.62 490.354 1228.92 486.04 1234.01 480.068 1239.09 474.096 1243.57 467.626 1250.04 467.626 1256.51 467.626 1259.59 474.096 1266.07 480.068 1272.54 486.04 1275.62 490.851 1282.09 497.321 1288.57 503.791 1292.72 512.583 1298.28 512.085 1303.83 511.588 1304.13 500.804 1309.68 494.832 1315.23 488.86 1319.24 483.054 1325.71 482.556 1332.18 482.059 1335.27 488.86 1341.74 492.344 1348.21 495.827 1351.3 496.823 1357.77 499.809 1364.24 502.795 1367.48 506.113 1373.95 507.108 1380.42 508.104 1383.97 508.601 1389.98 504.62 1395.99 500.639 1397.69 492.344 1403.7 487.367 1409.71 482.39 1413.25 483.054 1419.72 480.068 1426.2 477.082 1429.28 474.096 1435.75 472.603 1442.22 471.11 1445.31 471.607 1451.78 472.603 1458.25 473.598 1461.34 476.087 1467.81 477.58 1474.28 479.072 1479.37 476.087 1483.99 480.068 1488.62 484.049 1485.69 493.339 1490.78 497.321 1495.86 501.302 1502.18 501.302 1509.12 499.809 1516.05 498.316 1518.21 494.832 1525.14 489.855 1532.08 484.879 1536.55 478.575 1543.48 475.091 1550.42 471.607 1553.04 475.091 1559.51 472.603 1565.99 470.115 1569.22 464.308 1575.7 462.815 1582.17 461.322 1585.25 461.654 1591.72 465.138 1598.2 468.621 1601.28 474.096 1607.75 480.068 1614.22 486.04 1617.31 489.855 1623.78 494.832 1630.25 499.809 1633.34 502.132 1639.81 504.62 1646.28 507.108 1650.75 510.094 1655.84 507.108 1660.93 504.122 1660 493.837 1665.09 489.855 1670.17 485.874 1674.64 488.362 1681.12 487.367 1687.59 486.372 1690.67 485.874 1697.14 484.879 1703.62 483.883 1707.62 486.538 1713.17 482.556 1718.72 478.575 1719.19 466.631 1724.73 465.138 1730.28 463.645 1734.29 472.603 1740.76 475.091 1747.23 477.58 1750.32 476.584 1756.79 477.58 1763.26 478.575 1766.35 476.584 1772.82 480.068 1779.29 483.552 1782.38 489.855 1788.85 494.832 1795.32 499.809 1798.4 502.629 1804.88 504.62 1811.35 506.611 1814.43 505.117 1820.9 504.62 1827.38 504.122 1830.46 505.283 1836.93 502.298 1843.4 499.311 1846.64 493.837 1853.12 489.855 1859.59 485.874 1862.67 484.547 1869.14 482.556 1875.62 480.566 1878.7 477.58 1885.17 480.068 1891.64 482.556 1894.73 491.349 1901.2 494.832 1907.67 498.316 1910.76 498.316 1917.23 497.321 1923.7 496.326 1926.79 492.842 1933.26 489.855 1939.73 486.87 1946.36 483.883 1949.29 482.556" stroke="url(#stroke19)" stroke-width="3.17211" stroke-miterlimit="8" fill="none" fill-rule="evenodd" transform="matrix(1.00009 0 0 1 852.006 1077.66)"/><text font-family="Times New Roman,Times New Roman_MSFontService,sans-serif" font-weight="400" font-size="128" transform="matrix(0.692161 0 0 0.692096 1847.03 2033)">Time<tspan font-size="128" x="265" y="0">2</tspan><tspan font-size="128" x="329" y="0">vec</tspan><tspan font-family="Microsoft YaHei,Microsoft YaHei_MSFontService,sans-serif" font-size="128" x="507.673" y="0">编码</tspan></text><path d="M1257.54 1057.52 1944.1 1057.52 1944.1 1188.33 1257.54 1188.33Z" fill="#ACD78E" transform="matrix(1.00009 0 0 1 852.006 1077.66)"/><text fill="#44546A" font-family="Times New Roman,Times New Roman_MSFontService,sans-serif" font-weight="400" font-size="128" transform="matrix(0.692161 0 0 0.692096 2147.04 2232)">Uaformer<tspan font-family="Microsoft YaHei,Microsoft YaHei_MSFontService,sans-serif" font-size="128" x="499.01" y="0">网络层</tspan></text><path d="M700.768 489.153 1143.79 491.79C1145.99 491.802 1147.75 493.588 1147.74 495.778 1147.72 497.968 1145.94 499.733 1143.74 499.72L700.727 497.083C698.533 497.07 696.768 495.285 696.782 493.095 696.795 490.905 698.581 489.14 700.768 489.153ZM1122.08 478.322 1151.64 495.801 1121.87 512.928C1119.98 514.02 1117.56 513.366 1116.46 511.468 1115.37 509.57 1116.02 507.146 1117.92 506.054L1141.79 492.318 1141.75 499.167 1118.05 485.148C1116.16 484.033 1115.53 481.602 1116.65 479.717 1117.76 477.832 1120.19 477.207 1122.08 478.322Z" fill="#4874CB" transform="matrix(1.00009 0 0 1 852.006 1077.66)"/><path d="M1585.06 828.73 1587.96 1025.7C1587.99 1027.89 1586.24 1029.69 1584.05 1029.72 1581.86 1029.76 1580.06 1028.01 1580.03 1025.82L1577.13 828.84C1577.09 826.653 1578.84 824.854 1581.04 824.819 1583.23 824.785 1585.02 826.536 1585.06 828.73ZM1600.97 1003.71 1584.1 1033.63 1566.37 1004.22C1565.24 1002.35 1565.84 999.913 1567.72 998.778 1569.59 997.65 1572.03 998.252 1573.16 1000.13L1587.38 1023.71 1580.54 1023.81 1594.06 999.823C1595.14 997.913 1597.56 997.241 1599.47 998.314 1601.37 999.387 1602.05 1001.81 1600.97 1003.71Z" fill="#4874CB" transform="matrix(1.00009 0 0 1 852.006 1077.66)"/><path d="M1951.36 1125.19 2518.42 1125.19C2520.61 1125.19 2522.39 1126.97 2522.39 1129.15 2522.39 1131.34 2520.61 1133.12 2518.42 1133.12L1951.36 1133.12C1949.18 1133.12 1947.4 1131.34 1947.4 1129.15 1947.4 1126.97 1949.18 1125.19 1951.36 1125.19ZM2496.63 1111.85 2526.29 1129.15 2496.63 1146.46C2494.74 1147.56 2492.31 1146.92 2491.2 1145.03 2490.1 1143.14 2490.74 1140.71 2492.63 1139.61L2516.42 1125.73 2516.42 1132.58 2492.63 1118.7C2490.74 1117.6 2490.1 1115.17 2491.2 1113.28 2492.31 1111.39 2494.74 1110.75 2496.63 1111.85Z" fill="#4874CB" transform="matrix(1.00009 0 0 1 852.006 1077.66)"/><text fill="#E54C5E" font-family="Microsoft YaHei,Microsoft YaHei_MSFontService,sans-serif" font-weight="400" font-size="128" transform="matrix(0.692161 0 0 0.692096 2818.97 2160)">时间维度特征<tspan fill="#000000" font-weight="700" font-size="147" x="-1549.94" y="330.879">时间维度特征学习模块</tspan></text><path d="M1215.32 718.396 1580.75 718.396 1580.75 810.445 1215.32 810.445Z" stroke="#E54C5E" stroke-width="7.13724" stroke-miterlimit="8" fill="#FFFFFF" transform="matrix(1.00009 0 0 1 852.006 1077.66)"/><path d="M1580.75 718.396 1946.17 718.396 1946.17 810.445 1580.75 810.445Z" stroke="#E54C5E" stroke-width="7.13724" stroke-miterlimit="8" fill="#FFFFFF" transform="matrix(1.00009 0 0 1 852.006 1077.66)"/><path d="M1218.44 785.183C1220.12 781.909 1223.97 774.49 1227.65 767.251 1231.34 760.005 1231.64 755.527 1236.71 749.319 1241.77 743.11 1246.22 736.383 1252.67 736.383 1259.12 736.383 1262.2 743.11 1268.64 749.319 1275.09 755.527 1278.16 760.524 1284.61 767.251 1291.06 773.971 1295.2 783.114 1300.73 782.595 1306.26 782.082 1306.57 770.87 1312.1 764.662 1317.62 758.454 1321.61 752.419 1328.06 751.9 1334.51 751.388 1337.58 758.454 1344.03 762.074 1350.48 765.701 1353.55 766.732 1360 769.832 1366.45 772.94 1369.67 776.387 1376.12 777.425 1382.57 778.456 1386.1 778.975 1392.09 774.836 1398.08 770.697 1399.76 762.074 1405.76 756.904 1411.74 751.727 1415.27 752.419 1421.72 749.319 1428.17 746.211 1431.24 743.11 1437.69 741.553 1444.14 740.003 1447.21 740.522 1453.66 741.553 1460.11 742.591 1463.18 745.18 1469.62 746.73 1476.07 748.281 1481.14 745.18 1485.75 749.319 1490.35 753.457 1487.44 763.112 1492.51 767.251 1497.57 771.39 1503.87 771.39 1510.78 769.832 1517.68 768.282 1519.84 764.662 1526.74 759.492 1533.66 754.316 1538.11 747.761 1545.01 744.142 1551.93 740.522 1554.54 744.142 1560.98 741.553 1567.43 738.972 1570.66 732.937 1577.11 731.38 1583.56 729.829 1586.62 730.175 1593.07 733.795 1599.52 737.415 1602.6 743.11 1609.04 749.319 1615.49 755.527 1618.56 759.492 1625.01 764.662 1631.46 769.832 1634.53 772.248 1640.98 774.836 1647.43 777.425 1651.88 780.525 1656.95 777.425 1662.01 774.317 1661.09 763.631 1666.16 759.492 1671.23 755.354 1675.68 757.935 1682.13 756.904 1688.58 755.866 1691.65 755.354 1698.1 754.316 1704.54 753.284 1708.54 756.039 1714.07 751.9 1719.59 747.761 1720.05 735.345 1725.58 733.795 1731.11 732.245 1735.1 741.553 1741.55 744.142 1748 746.73 1751.07 745.692 1757.52 746.73 1763.97 747.761 1767.04 745.692 1773.48 749.319 1779.93 752.938 1783.01 759.492 1789.46 764.662 1795.9 769.832 1798.97 772.767 1805.42 774.836 1811.87 776.906 1814.94 775.355 1821.39 774.836 1827.84 774.317 1830.91 775.528 1837.36 772.421 1843.81 769.32 1847.03 763.631 1853.48 759.492 1859.93 755.354 1863 753.97 1869.45 751.9 1875.9 749.831 1878.96 746.73 1885.42 749.319 1891.87 751.9 1894.94 761.043 1901.38 764.662 1907.83 768.282 1910.91 768.282 1917.36 767.251 1923.8 766.213 1926.87 762.593 1933.32 759.492 1939.77 756.385 1946.37 753.284 1949.29 751.9" stroke="url(#stroke20)" stroke-width="3.17211" stroke-miterlimit="8" fill="none" fill-rule="evenodd" transform="matrix(1.00009 0 0 1 852.006 1077.66)"/><path d="M1398.03 718.396 1398.03 810.548" stroke="#E54C5E" stroke-width="7.13724" stroke-miterlimit="8" fill="none" fill-rule="evenodd" transform="matrix(1.00009 0 0 1 852.006 1077.66)"/><path d="M1763.46 718.396 1763.46 810.548" stroke="#E54C5E" stroke-width="7.13724" stroke-miterlimit="8" fill="none" fill-rule="evenodd" transform="matrix(1.00009 0 0 1 852.006 1077.66)"/><path d="M1581.6 514.56 1582.21 699.412C1582.21 701.606 1580.44 703.384 1578.26 703.391 1576.06 703.398 1574.28 701.633 1574.28 699.439L1573.67 514.587C1573.66 512.397 1575.43 510.615 1577.62 510.608 1579.81 510.601 1581.59 512.371 1581.6 514.56ZM1595.48 677.578 1578.27 707.295 1560.86 677.692C1559.76 675.804 1560.39 673.374 1562.28 672.265 1564.16 671.155 1566.59 671.786 1567.7 673.674L1581.66 697.418 1574.81 697.439 1588.61 673.605C1589.71 671.71 1592.13 671.063 1594.03 672.16 1595.93 673.257 1596.57 675.683 1595.48 677.578Z" fill="#4874CB" transform="matrix(1.00009 0 0 1 852.006 1077.66)"/><text font-family="Microsoft YaHei,Microsoft YaHei_MSFontService,sans-serif" font-weight="400" font-size="128" transform="matrix(0.692161 0 0 0.692096 2486.9 1725)">单变量<tspan font-size="128" x="385" y="0">序列分段划分</tspan></text></g></g></g></g><g clip-path="url(#clip21)"><g clip-path="url(#clip22)"><g clip-path="url(#clip23)"><g clip-path="url(#clip24)"><path d="M287.095 421.295C287.095 333.044 358.637 261.503 446.888 261.503L2626.18 261.503C2714.43 261.503 2785.97 333.044 2785.97 421.295L2785.97 1060.44C2785.97 1148.7 2714.43 1220.24 2626.18 1220.24L446.888 1220.24C358.637 1220.24 287.095 1148.7 287.095 1060.44Z" stroke="#000000" stroke-width="3.00766" stroke-miterlimit="8" fill="#FFFFFF" fill-rule="evenodd" transform="matrix(1 0 0 1.00089 593.545 -243.095)"/><text fill="#FFFFFF" font-family="Arial,Arial_MSFontService,sans-serif" font-weight="400" font-size="83" transform="matrix(0.656218 0 0 0.656805 1932.58 517)">Spatial Features<tspan fill="#000000" font-family="Microsoft YaHei,Microsoft YaHei_MSFontService,sans-serif" font-size="83" x="-972.152" y="228.378">•</tspan><tspan fill="#000000" font-family="Microsoft YaHei,Microsoft YaHei_MSFontService,sans-serif" font-size="83" x="-972.152" y="301.459">•</tspan><tspan fill="#000000" font-family="Microsoft YaHei,Microsoft YaHei_MSFontService,sans-serif" font-size="83" x="-972.152" y="382.153">•</tspan><tspan fill="#000000" font-family="Microsoft YaHei,Microsoft YaHei_MSFontService,sans-serif" font-weight="700" font-size="147" x="-356.537" y="636.414">空间维度特征学习模块</tspan><tspan fill="#000000" font-family="Times New Roman,Times New Roman_MSFontService,sans-serif" font-size="128" x="-1483.42" y="607.486">N</tspan><tspan fill="#000000" font-family="Microsoft YaHei,Microsoft YaHei_MSFontService,sans-serif" font-size="128" x="-1390.61" y="607.486">维嵌入向量</tspan></text><path d="M398.652 764.165 776.634 764.165 776.634 811.413 398.652 811.413Z" stroke="#2E54A1" stroke-width="3.00766" stroke-miterlimit="8" fill="#A9E9E4" transform="matrix(1 0 0 1.00089 593.545 -243.095)"/><path d="M398.652 811.413 776.634 811.413 776.634 858.005 398.652 858.005Z" stroke="#2E54A1" stroke-width="3.00766" stroke-miterlimit="8" fill="#F5B7BF" transform="matrix(1 0 0 1.00089 593.545 -243.095)"/><path d="M398.652 987.279 776.634 987.279 776.634 1034.53 398.652 1034.53Z" stroke="#2E54A1" stroke-width="3.00766" stroke-miterlimit="8" fill="#B58B02" transform="matrix(1 0 0 1.00089 593.545 -243.095)"/><path d="M398.652 859.973 776.634 859.973 776.634 989.248 398.652 989.248Z" stroke="#2E54A1" stroke-width="3.00766" stroke-miterlimit="8" fill="#FFFFFF" transform="matrix(1 0 0 1.00089 593.545 -243.095)"/><text font-family="Microsoft YaHei,Microsoft YaHei_MSFontService,sans-serif" font-weight="400" font-size="83" transform="matrix(0.656218 0 0 0.656805 1168.76 667)">•<tspan font-size="83" x="0" y="45.6757">•</tspan><tspan font-size="83" x="0" y="102.009">•</tspan></text><path d="M1054.21 413.089C1054.21 400.767 1063.76 390.778 1075.54 390.778 1087.32 390.778 1096.87 400.767 1096.87 413.089 1096.87 425.411 1087.32 435.4 1075.54 435.4 1063.76 435.4 1054.21 425.411 1054.21 413.089Z" stroke="#2E54A1" stroke-width="3.00766" stroke-miterlimit="8" fill="#A9E9E4" fill-rule="evenodd" transform="matrix(1 0 0 1.00089 593.545 -243.095)"/><path d="M932.157 525.958C932.157 513.636 941.705 503.647 953.484 503.647 965.263 503.647 974.811 513.636 974.811 525.958 974.811 538.281 965.263 548.27 953.484 548.27 941.705 548.27 932.157 538.281 932.157 525.958Z" stroke="#2E54A1" stroke-width="3.00766" stroke-miterlimit="8" fill="#F5B7BF" fill-rule="evenodd" transform="matrix(1 0 0 1.00089 593.545 -243.095)"/><path d="M1010.9 642.765C1010.9 630.443 1020.6 620.454 1032.56 620.454 1044.52 620.454 1054.21 630.443 1054.21 642.765 1054.21 655.088 1044.52 665.077 1032.56 665.077 1020.6 665.077 1010.9 655.088 1010.9 642.765Z" stroke="#2E54A1" stroke-width="3.00766" stroke-miterlimit="8" fill="#E54C5E" fill-rule="evenodd" transform="matrix(1 0 0 1.00089 593.545 -243.095)"/><path d="M1123.77 550.895C1123.77 538.572 1133.47 528.583 1145.43 528.583 1157.39 528.583 1167.08 538.572 1167.08 550.895 1167.08 563.217 1157.39 573.206 1145.43 573.206 1133.47 573.206 1123.77 563.217 1123.77 550.895Z" stroke="#2E54A1" stroke-width="3.00766" stroke-miterlimit="8" fill="#FED961" fill-rule="evenodd" transform="matrix(1 0 0 1.00089 593.545 -243.095)"/><path d="M0 0 91.734 81.0567" stroke="#000000" stroke-width="7.51914" stroke-linecap="round" stroke-linejoin="round" stroke-miterlimit="10" fill="none" fill-rule="evenodd" transform="matrix(-1 0 0 1.00089 1653.53 186.784)"/><path d="M970.874 545.645 1017.94 626.25" stroke="#000000" stroke-width="7.51914" stroke-linecap="round" stroke-linejoin="round" stroke-miterlimit="10" fill="none" fill-rule="evenodd" transform="matrix(1 0 0 1.00089 593.545 -243.095)"/><path d="M0 0 41.5058 182.264" stroke="#000000" stroke-width="7.51914" stroke-linecap="round" stroke-linejoin="round" stroke-miterlimit="10" fill="none" fill-rule="evenodd" transform="matrix(-1 0 0 1.00089 1667.61 195.322)"/><path d="M1090.31 429.494 1131.96 527.695" stroke="#000000" stroke-width="7.51914" stroke-linecap="round" stroke-linejoin="round" stroke-miterlimit="10" fill="none" fill-rule="evenodd" transform="matrix(1 0 0 1.00089 593.545 -243.095)"/><path d="M0 0 78.6503 66.0181" stroke="#000000" stroke-width="7.51914" stroke-linecap="round" stroke-linejoin="round" stroke-miterlimit="10" fill="none" fill-rule="evenodd" transform="matrix(1 0 0 -1.00089 1645.13 390.133)"/><text font-family="Microsoft YaHei,Microsoft YaHei_MSFontService,sans-serif" font-weight="400" font-size="128" transform="matrix(0.656218 0 0 0.656805 1006 152)">输入<tspan font-family="Times New Roman,Times New Roman_MSFontService,sans-serif" font-size="128" x="256.667" y="0">N</tspan><tspan font-size="128" x="348.667" y="0">维</tspan><tspan font-size="128" x="-17.7604" y="153.775">时间序列</tspan></text><path d="M2020.17 508.241C2020.17 495.918 2029.71 485.929 2041.49 485.929 2053.27 485.929 2062.82 495.918 2062.82 508.241 2062.82 520.563 2053.27 530.552 2041.49 530.552 2029.71 530.552 2020.17 520.563 2020.17 508.241Z" stroke="#2E54A1" stroke-width="3.00766" stroke-miterlimit="8" fill="#A9E9E4" fill-rule="evenodd" transform="matrix(1 0 0 1.00089 593.545 -243.095)"/><path d="M1886.3 388.809C1886.3 376.486 1895.99 366.498 1907.95 366.498 1919.92 366.498 1929.61 376.486 1929.61 388.809 1929.61 401.131 1919.92 411.12 1907.95 411.12 1895.99 411.12 1886.3 401.131 1886.3 388.809Z" stroke="#2E54A1" stroke-width="3.00766" stroke-miterlimit="8" fill="#F5B7BF" fill-rule="evenodd" transform="matrix(1 0 0 1.00089 593.545 -243.095)"/><path d="M1886.3 623.735C1886.3 611.412 1895.99 601.423 1907.95 601.423 1919.92 601.423 1929.61 611.412 1929.61 623.735 1929.61 636.057 1919.92 646.046 1907.95 646.046 1895.99 646.046 1886.3 636.057 1886.3 623.735Z" stroke="#2E54A1" stroke-width="3.00766" stroke-miterlimit="8" fill="#E54C5E" fill-rule="evenodd" transform="matrix(1 0 0 1.00089 593.545 -243.095)"/><path d="M2183.56 508.241C2183.56 495.918 2193.26 485.929 2205.22 485.929 2217.18 485.929 2226.87 495.918 2226.87 508.241 2226.87 520.563 2217.18 530.552 2205.22 530.552 2193.26 530.552 2183.56 520.563 2183.56 508.241Z" stroke="#2E54A1" stroke-width="3.00766" stroke-miterlimit="8" fill="#FED961" fill-rule="evenodd" transform="matrix(1 0 0 1.00089 593.545 -243.095)"/><path d="M1924.02 403.41 2025.21 489.159 2023.26 491.454 1922.07 405.705ZM2018.7 470.108 2026.51 492.236 2003.41 488.152C2002.59 488.007 2002.04 487.227 2002.19 486.41 2002.33 485.592 2003.11 485.046 2003.92 485.19L2024.5 488.826 2022.82 490.807 2015.85 471.11C2015.58 470.327 2015.99 469.468 2016.77 469.191 2017.55 468.914 2018.41 469.325 2018.7 470.108Z" transform="matrix(1 0 0 1.00089 593.545 -243.095)"/><path d="M0.96044-1.15718 111.006 90.1787 109.085 92.4932-0.96044 1.15718ZM104.295 71.195 112.342 93.242 89.1892 89.3946C88.3702 89.2581 87.8164 88.4837 87.9522 87.6641 88.0887 86.8452 88.863 86.2913 89.6826 86.4271L110.292 89.8526 108.632 91.8514 101.47 72.2259C101.185 71.4457 101.586 70.5821 102.367 70.298 103.147 70.0132 104.01 70.4148 104.295 71.195Z" transform="matrix(1 0 0 -1.00089 2523.15 381.253)"/><path d="M0.0191904-1.50371 12.0489-1.35019 12.0105 1.65723-0.0191904 1.50371ZM21.0711-1.23504 33.1008-1.08152 33.0624 1.9259 21.0328 1.77238ZM42.1231-0.966379 54.1527-0.81285 54.1143 2.19457 42.0847 2.04104ZM63.175-0.69771 75.2045-0.544187 75.1665 2.46323 63.1366 2.30971ZM84.2269-0.429044 96.2566-0.27552 96.2179 2.7319 84.1888 2.57838ZM105.279-0.160377 117.309-0.00685354 117.27 3.00057 105.24 2.84704ZM126.331 0.108289 138.36 0.261813 138.322 3.26923 126.292 3.11571ZM147.383 0.376956 159.412 0.530479 159.374 3.5379 147.344 3.38438ZM144.857-9.97812 164.977 2.10545 144.556 13.6716C143.832 14.0809 142.915 13.8268 142.506 13.1041 142.096 12.3814 142.351 11.4638 143.073 11.0545L161.252 0.758824 161.219 3.35657 143.309-7.39971C142.597-7.8273 142.366-8.75112 142.794-9.46312 143.221-10.1751 144.145-10.4057 144.857-9.97812Z" transform="matrix(1 0 0 -1.00089 2449 269.678)"/><path d="M2062.84 506.737 2179.27 508.056 2179.23 511.064 2062.8 509.744ZM2162.09 497.539 2182.23 509.594 2161.82 521.189C2161.1 521.6 2160.18 521.347 2159.78 520.625 2159.36 519.903 2159.62 518.985 2160.34 518.574L2178.5 508.253 2178.47 510.85 2160.55 500.12C2159.84 499.693 2159.61 498.77 2160.03 498.057 2160.46 497.345 2161.38 497.112 2162.09 497.539Z" transform="matrix(1 0 0 1.00089 593.545 -243.095)"/><path d="M2063.11 506.834 2068.4 506.588 2068.28 506.598 2073.49 505.942 2073.37 505.961 2078.54 504.895 2078.43 504.921 2083.48 503.486 2083.37 503.519 2088.21 501.756 2088.1 501.8 2092.78 499.668 2092.69 499.711 2097.12 497.332 2097.02 497.391 2101.12 494.766 2101.02 494.837 2104.84 491.925 2104.74 492.004 2108.15 488.928 2108.05 489.023 2111.04 485.783 2110.95 485.895 2113.53 482.491 2113.43 482.644 2115.48 479.117 2115.4 479.29 2116.91 475.681 2116.84 475.887 2117.78 472.237 2117.75 472.48 2118.07 468.789 2118.07 469.005 2117.86 465.314 2117.88 465.497 2117.23 461.847 2117.27 462.007 2116.2 458.398 2116.24 458.524 2114.85 454.997 2114.91 455.136 2113.15 451.732 2113.22 451.856 2111.13 448.616 2111.2 448.71 2108.85 445.634 2108.95 445.739 2106.32 442.868 2106.41 442.955 2103.53 440.289 2103.63 440.371 2100.6 437.992 2100.69 438.06 2097.49 435.927 2097.63 436.007 2094.27 434.244 2094.38 434.301 2090.94 432.865 2091.08 432.917 2087.52 431.851 2087.68 431.89 2084.07 431.233 2084.24 431.254 2080.59 431.008 2080.82 431.006 2077.17 431.334 2077.42 431.291 2073.81 432.234 2074.02 432.161 2070.5 433.678 2070.66 433.593 2067.18 435.644 2067.33 435.54 2063.97 438.124 2064.08 438.029 2060.88 441.023 2060.98 440.926 2057.94 444.33 2058.02 444.234 2055.15 448.048 2055.21 447.954 2052.59 452.056 2052.66 451.947 2050.31 456.376 2050.36 456.289 2048.27 460.965 2048.3 460.865 2046.54 465.705 2046.58 465.59 2045.19 470.635 2045.21 470.538 2044.14 475.706 2044.16 475.59 2043.51 480.799 2043.51 480.669 2043.42 482.985 2040.42 482.868 2040.52 480.488 2041.18 475.156 2042.27 469.882 2043.7 464.731 2045.5 459.785 2047.64 455.016 2050.02 450.488 2052.71 446.285 2055.65 442.375 2058.78 438.874 2062.08 435.784 2065.58 433.098 2069.22 430.953 2072.94 429.353 2076.78 428.349 2080.67 428 2084.52 428.259 2088.3 428.946 2092.02 430.058 2095.6 431.55 2099.1 433.381 2102.4 435.589 2105.53 438.042 2108.5 440.793 2111.21 443.76 2113.62 446.936 2115.78 450.285 2117.62 453.82 2119.06 457.481 2120.17 461.234 2120.86 465.056 2121.08 468.947 2120.73 472.87 2119.73 476.745 2118.13 480.545 2115.98 484.235 2113.3 487.771 2110.21 491.115 2106.71 494.278 2102.8 497.265 2098.6 499.954 2094.07 502.384 2089.3 504.561 2084.35 506.364 2079.2 507.829 2073.92 508.918 2068.59 509.59 2063.25 509.838ZM2054.41 466.109 2041.81 485.909 2030.78 465.193C2030.38 464.46 2030.67 463.549 2031.39 463.159 2032.13 462.769 2033.04 463.046 2033.43 463.779L2043.25 482.22 2040.65 482.119 2051.87 464.494C2052.32 463.794 2053.25 463.587 2053.95 464.033 2054.65 464.479 2054.85 465.409 2054.41 466.109Z" transform="matrix(1 0 0 1.00089 593.545 -243.095)"/><text font-family="Microsoft YaHei,Microsoft YaHei_MSFontService,sans-serif" font-weight="400" font-size="128" transform="matrix(0.656218 0 0 0.656805 2619.51 131)">图注意力网络</text><path d="M312.688 522.855 903.316 522.855C905.397 522.855 907.077 524.538 907.077 526.615 907.077 528.692 905.397 530.375 903.316 530.375L312.688 530.374C310.611 530.374 308.928 528.691 308.928 526.615 308.928 524.538 310.611 522.855 312.688 522.855ZM882.652 510.209 910.778 526.615 882.652 543.021C880.861 544.067 878.557 543.461 877.514 541.668 876.464 539.874 877.074 537.572 878.866 536.526L901.427 523.368 901.427 529.862 878.866 516.704C877.074 515.658 876.464 513.356 877.514 511.562 878.557 509.769 880.861 509.163 882.652 510.209Z" fill="#4874CB" transform="matrix(1 0 0 1.00089 593.545 -243.095)"/><path d="M3.7594-0.0369292 5.94202 222.154C5.96241 224.23 4.29581 225.93 2.21955 225.95 0.143291 225.971-1.55638 224.304-1.57678 222.227L-3.7594 0.0369292C-3.77979-2.03933-2.11318-3.739-0.0369292-3.7594 2.03933-3.77979 3.739-2.11318 3.7594-0.0369292ZM18.3849 201.368 2.25592 229.653-14.4255 201.69C-15.4893 199.908-14.9061 197.6-13.123 196.536-11.3398 195.472-9.03192 196.055-7.96819 197.838L5.41131 220.265-1.08327 220.329 11.8531 197.644C12.8816 195.84 15.1776 195.212 16.9813 196.24 18.785 197.269 19.4134 199.564 18.3849 201.368Z" fill="#4874CB" transform="matrix(1 0 0 -1.00089 1181.19 521.715)"/><path d="M1195.98 519.574 1728.41 521.947C1730.49 521.956 1732.16 523.647 1732.15 525.724 1732.14 527.8 1730.45 529.475 1728.37 529.466L1195.94 527.093C1193.86 527.084 1192.19 525.393 1192.2 523.317 1192.21 521.24 1193.9 519.565 1195.98 519.574ZM1707.8 509.208 1735.85 525.74 1707.66 542.02C1705.86 543.058 1703.55 542.443 1702.52 540.644 1701.48 538.846 1702.1 536.547 1703.9 535.508L1726.51 522.451 1726.48 528.946 1703.98 515.687C1702.19 514.632 1701.6 512.328 1702.65 510.539 1703.71 508.75 1706.01 508.155 1707.8 509.208Z" fill="#4874CB" transform="matrix(1 0 0 1.00089 593.545 -243.095)"/><path d="M3.75957-0.00978401 4.32823 218.502C4.33363 220.578 2.6548 222.266 0.578446 222.271-1.49791 222.277-3.1855 220.598-3.1909 218.521L-3.75957 0.00978401C-3.76497-2.06657-2.08614-3.75416-0.00978401-3.75957 2.06657-3.76497 3.75416-2.08614 3.75957-0.00978401ZM16.9208 197.806 0.588079 225.973-15.891 197.891C-16.9419 196.1-16.3421 193.797-14.5513 192.746-12.7605 191.695-10.4569 192.295-9.40603 194.086L3.81117 216.609-2.68371 216.625 10.4161 194.034C11.4576 192.238 13.7581 191.626 15.5543 192.667 17.3506 193.709 17.9624 196.01 16.9208 197.806Z" fill="#4874CB" transform="matrix(-1 0 0 1.00089 2646.46 342.447)"/><text font-family="Microsoft YaHei,Microsoft YaHei_MSFontService,sans-serif" font-weight="400" font-size="128" transform="matrix(0.656218 0 0 0.656805 1767.63 238)">图结构自动学习<tspan font-size="128" x="-138.479" y="625.757">更新</tspan><tspan font-family="Times New Roman,Times New Roman_MSFontService,sans-serif" font-size="128" x="118.188" y="625.757">N</tspan><tspan font-size="128" x="211" y="625.757">维嵌入向量值</tspan><tspan font-size="128" x="1394.33" y="298.414">深度更新聚合图</tspan><tspan font-size="128" x="1586.83" y="453.712">节点特征</tspan></text><path d="M0.0191904-1.50371 12.0489-1.35019 12.0105 1.65723-0.0191904 1.50371ZM21.0711-1.23504 33.1008-1.08152 33.0624 1.9259 21.0328 1.77238ZM42.1231-0.966379 54.1527-0.81285 54.1143 2.19457 42.0847 2.04104ZM63.175-0.69771 75.2045-0.544187 75.1665 2.46323 63.1366 2.30971ZM84.2269-0.429044 96.2566-0.27552 96.2179 2.7319 84.1888 2.57838ZM105.279-0.160377 117.309-0.00685354 117.27 3.00057 105.24 2.84704ZM126.331 0.108289 138.36 0.261813 138.322 3.26923 126.292 3.11571ZM147.383 0.376956 159.412 0.530479 159.374 3.5379 147.344 3.38438ZM144.857-9.97812 164.977 2.10545 144.556 13.6716C143.832 14.0809 142.915 13.8268 142.506 13.1041 142.096 12.3814 142.351 11.4638 143.073 11.0545L161.252 0.758824 161.219 3.35657 143.309-7.39971C142.597-7.8273 142.366-8.75112 142.794-9.46312 143.221-10.1751 144.145-10.4057 144.857-9.97812Z" transform="matrix(1 0 0 -1.00089 2313.82 387.903)"/><path d="M0.0191904-1.50371 12.0489-1.35019 12.0105 1.65723-0.0191904 1.50371ZM21.0711-1.23504 33.1008-1.08152 33.0624 1.9259 21.0328 1.77238ZM42.1231-0.966379 54.1527-0.81285 54.1143 2.19457 42.0847 2.04104ZM63.175-0.69771 75.2045-0.544187 75.1665 2.46323 63.1366 2.30971ZM84.2269-0.429044 96.2566-0.27552 96.2179 2.7319 84.1888 2.57838ZM105.279-0.160377 117.309-0.00685354 117.27 3.00057 105.24 2.84704ZM126.331 0.108289 138.36 0.261813 138.322 3.26923 126.292 3.11571ZM147.383 0.376956 159.412 0.530479 159.374 3.5379 147.344 3.38438ZM144.857-9.97812 164.977 2.10545 144.556 13.6716C143.832 14.0809 142.915 13.8268 142.506 13.1041 142.096 12.3814 142.351 11.4638 143.073 11.0545L161.252 0.758824 161.219 3.35657 143.309-7.39971C142.597-7.8273 142.366-8.75112 142.794-9.46312 143.221-10.1751 144.145-10.4057 144.857-9.97812Z" transform="matrix(1 0 0 -1.00089 2313.82 148.169)"/><path d="M1033.87 689.357 1033.87 939.297" stroke="#4874CB" stroke-width="7.51914" stroke-linecap="round" stroke-linejoin="round" stroke-miterlimit="10" fill="none" fill-rule="evenodd" transform="matrix(1 0 0 1.00089 593.545 -243.095)"/><path d="M1032.59 934.959 1820.11 941.508C1822.19 941.521 1823.86 943.221 1823.84 945.295 1823.82 947.375 1822.13 949.042 1820.05 949.022L1032.53 942.479C1030.45 942.46 1028.78 940.767 1028.8 938.686 1028.82 936.613 1030.51 934.94 1032.59 934.959ZM1799.55 928.686 1827.54 945.327 1799.28 961.497C1797.48 962.534 1795.18 961.903 1794.15 960.105 1793.12 958.301 1793.74 956.004 1795.54 954.974L1818.21 942 1818.16 948.497 1795.71 935.15C1793.93 934.093 1793.34 931.783 1794.4 929.998 1795.46 928.213 1797.77 927.629 1799.55 928.686Z" fill="#4874CB" transform="matrix(1 0 0 1.00089 593.545 -243.095)"/><path d="M1878.75 839.302 2204.89 839.302 2204.89 1065.04 1878.75 1065.04Z" fill="#ACD78E" transform="matrix(1 0 0 1.00089 593.545 -243.095)"/><text font-family="Microsoft YaHei,Microsoft YaHei_MSFontService,sans-serif" font-weight="400" font-size="128" transform="matrix(0.656218 0 0 0.656805 2509.01 688)">元素级<tspan font-size="128" x="64.1669" y="155.297">点乘</tspan></text><path d="M2224.27 921.179 2778.22 923.758C2780.29 923.771 2781.96 925.457 2781.96 927.537 2781.95 929.611 2780.26 931.291 2778.18 931.278L2224.23 928.699C2222.16 928.686 2220.48 926.999 2220.49 924.919 2220.5 922.845 2222.19 921.172 2224.27 921.179ZM2757.61 911.014 2785.66 927.55 2757.45 943.831C2755.65 944.868 2753.36 944.251 2752.32 942.453 2751.28 940.655 2751.9 938.352 2753.7 937.315L2776.32 924.263 2776.29 930.759 2753.79 917.497C2752 916.441 2751.41 914.137 2752.46 912.346 2753.52 910.554 2755.82 909.964 2757.61 911.014Z" fill="#4874CB" transform="matrix(1 0 0 1.00089 593.545 -243.095)"/><text fill="#E54C5E" font-family="Microsoft YaHei,Microsoft YaHei_MSFontService,sans-serif" font-weight="400" font-size="128" transform="matrix(0.656218 0 0 0.656805 2833.08 791)">空间维度特征</text></g></g></g></g></g></svg>