<svg width="4280" height="2461" xmlns="http://www.w3.org/2000/svg" xmlns:xlink="http://www.w3.org/1999/xlink" overflow="hidden"><defs><clipPath id="clip0"><rect x="-19" y="27" width="4280" height="2461"/></clipPath><clipPath id="clip1"><rect x="-19" y="957" width="949" height="457"/></clipPath><clipPath id="clip2"><rect x="-19" y="957" width="949" height="457"/></clipPath><clipPath id="clip3"><rect x="-19" y="957" width="949" height="457"/></clipPath><clipPath id="clip4"><rect x="-19" y="957" width="949" height="457"/></clipPath><linearGradient x1="1053.38" y1="395.583" x2="1059.32" y2="474.43" gradientUnits="userSpaceOnUse" spreadMethod="reflect" id="stroke5"><stop offset="0" stop-color="#48CB89"/><stop offset="0.0116279" stop-color="#47CA8A"/><stop offset="0.0232558" stop-color="#48CA8B"/><stop offset="0.0348837" stop-color="#48CA8D"/><stop offset="0.0465116" stop-color="#48CA8E"/><stop offset="0.0581395" stop-color="#48CA90"/><stop offset="0.0697674" stop-color="#48CA91"/><stop offset="0.0813954" stop-color="#48CA92"/><stop offset="0.0930233" stop-color="#48C994"/><stop offset="0.104651" stop-color="#48C995"/><stop offset="0.116279" stop-color="#48C996"/><stop offset="0.127907" stop-color="#48C997"/><stop offset="0.139535" stop-color="#47C899"/><stop offset="0.151163" stop-color="#47C89A"/><stop offset="0.162791" stop-color="#48C89B"/><stop offset="0.174419" stop-color="#48C79C"/><stop offset="0.186047" stop-color="#48C79E"/><stop offset="0.197674" stop-color="#48C69F"/><stop offset="0.209302" stop-color="#48C6A0"/><stop offset="0.22093" stop-color="#48C5A1"/><stop offset="0.232558" stop-color="#48C5A2"/><stop offset="0.244186" stop-color="#48C4A3"/><stop offset="0.255814" stop-color="#48C4A5"/><stop offset="0.267442" stop-color="#48C3A6"/><stop offset="0.27907" stop-color="#48C3A7"/><stop offset="0.290698" stop-color="#48C2A8"/><stop offset="0.302326" stop-color="#48C1A9"/><stop offset="0.313953" stop-color="#48C1AA"/><stop offset="0.325581" stop-color="#48C0AB"/><stop offset="0.337209" stop-color="#48BFAC"/><stop offset="0.348837" stop-color="#48BEAD"/><stop offset="0.360465" stop-color="#48BEAE"/><stop offset="0.372093" stop-color="#48BDAF"/><stop offset="0.383721" stop-color="#48BCB0"/><stop offset="0.395349" stop-color="#48BBB1"/><stop offset="0.406977" stop-color="#48BAB2"/><stop offset="0.418605" stop-color="#48BAB3"/><stop offset="0.430233" stop-color="#48B9B4"/><stop offset="0.44186" stop-color="#48B8B4"/><stop offset="0.453488" stop-color="#48B7B5"/><stop offset="0.465116" stop-color="#48B6B6"/><stop offset="0.476744" stop-color="#48B5B7"/><stop offset="0.488372" stop-color="#48B4B8"/><stop offset="0.5" stop-color="#48B3B9"/><stop offset="0.511628" stop-color="#48B2B9"/><stop offset="0.523256" stop-color="#48B1BA"/><stop offset="0.534884" stop-color="#48B0BB"/><stop offset="0.546512" stop-color="#48AEBC"/><stop offset="0.55814" stop-color="#48ADBC"/><stop offset="0.569767" stop-color="#48ACBD"/><stop offset="0.581395" stop-color="#48ABBE"/><stop offset="0.593023" stop-color="#48AABE"/><stop offset="0.604651" stop-color="#48A9BF"/><stop offset="0.616279" stop-color="#48A7C0"/><stop offset="0.627907" stop-color="#48A6C0"/><stop offset="0.639535" stop-color="#48A5C1"/><stop offset="0.651163" stop-color="#48A4C1"/><stop offset="0.662791" stop-color="#47A2C2"/><stop offset="0.674419" stop-color="#48A1C2"/><stop offset="0.686047" stop-color="#48A0C3"/><stop offset="0.697674" stop-color="#489EC3"/><stop offset="0.709302" stop-color="#489DC4"/><stop offset="0.72093" stop-color="#489BC4"/><stop offset="0.732558" stop-color="#489AC5"/><stop offset="0.744186" stop-color="#4899C5"/><stop offset="0.755814" stop-color="#4897C6"/><stop offset="0.767442" stop-color="#4896C6"/><stop offset="0.77907" stop-color="#4894C7"/><stop offset="0.790698" stop-color="#4892C7"/><stop offset="0.802326" stop-color="#4891C7"/><stop offset="0.813953" stop-color="#488FC8"/><stop offset="0.825581" stop-color="#488EC8"/><stop offset="0.837209" stop-color="#488CC8"/><stop offset="0.848837" stop-color="#488BC9"/><stop offset="0.860465" stop-color="#4889C9"/><stop offset="0.872093" stop-color="#4887C9"/><stop offset="0.883721" stop-color="#4885C9"/><stop offset="0.895349" stop-color="#4884CA"/><stop offset="0.906977" stop-color="#4882CA"/><stop offset="0.918605" stop-color="#4880CA"/><stop offset="0.930233" stop-color="#487FCA"/><stop offset="0.94186" stop-color="#487DCA"/><stop offset="0.953488" stop-color="#487BCA"/><stop offset="0.965116" stop-color="#4879CA"/><stop offset="0.976744" stop-color="#4877CA"/><stop offset="0.988372" stop-color="#4875CA"/><stop offset="1" stop-color="#4874CB"/></linearGradient><linearGradient x1="1048.65" y1="431.585" x2="1064.87" y2="561.23" gradientUnits="userSpaceOnUse" spreadMethod="reflect" id="stroke6"><stop offset="0" stop-color="#EE2FBB"/><stop offset="0.00719424" stop-color="#EE30BA"/><stop offset="0.0143885" stop-color="#EE31BA"/><stop offset="0.0215827" stop-color="#EE32BA"/><stop offset="0.028777" stop-color="#ED33BA"/><stop offset="0.0359712" stop-color="#EE34BA"/><stop offset="0.0431655" stop-color="#EE35BA"/><stop offset="0.0503597" stop-color="#ED36BA"/><stop offset="0.057554" stop-color="#EE37BA"/><stop offset="0.0647482" stop-color="#EE38BA"/><stop offset="0.0719424" stop-color="#EE39B9"/><stop offset="0.0791367" stop-color="#EE3AB9"/><stop offset="0.0863309" stop-color="#ED3BB9"/><stop offset="0.0935252" stop-color="#EE3CB9"/><stop offset="0.100719" stop-color="#EE3DB9"/><stop offset="0.107914" stop-color="#EE3EB8"/><stop offset="0.115108" stop-color="#EE40B8"/><stop offset="0.122302" stop-color="#EE41B8"/><stop offset="0.129496" stop-color="#EE42B7"/><stop offset="0.136691" stop-color="#EE42B7"/><stop offset="0.143885" stop-color="#EE43B7"/><stop offset="0.151079" stop-color="#EE44B6"/><stop offset="0.158273" stop-color="#ED45B6"/><stop offset="0.165468" stop-color="#EE46B6"/><stop offset="0.172662" stop-color="#EE47B5"/><stop offset="0.179856" stop-color="#EE48B5"/><stop offset="0.18705" stop-color="#EE49B4"/><stop offset="0.194245" stop-color="#EE4AB4"/><stop offset="0.201439" stop-color="#ED4BB4"/><stop offset="0.208633" stop-color="#EE4CB3"/><stop offset="0.215827" stop-color="#EE4DB3"/><stop offset="0.223022" stop-color="#EE4EB2"/><stop offset="0.230216" stop-color="#EE4FB2"/><stop offset="0.23741" stop-color="#EE50B1"/><stop offset="0.244604" stop-color="#EE50B1"/><stop offset="0.251799" stop-color="#EE51B0"/><stop offset="0.258993" stop-color="#EE52AF"/><stop offset="0.266187" stop-color="#EE53AF"/><stop offset="0.273381" stop-color="#EE54AE"/><stop offset="0.280576" stop-color="#EE55AE"/><stop offset="0.28777" stop-color="#EE56AD"/><stop offset="0.294964" stop-color="#EE56AC"/><stop offset="0.302158" stop-color="#EE57AC"/><stop offset="0.309353" stop-color="#EE58AB"/><stop offset="0.316547" stop-color="#EE59AA"/><stop offset="0.323741" stop-color="#EE5AAA"/><stop offset="0.330935" stop-color="#EE5AA9"/><stop offset="0.338129" stop-color="#EE5BA8"/><stop offset="0.345324" stop-color="#ED5CA7"/><stop offset="0.352518" stop-color="#EE5DA7"/><stop offset="0.359712" stop-color="#EE5EA6"/><stop offset="0.366906" stop-color="#EE5EA5"/><stop offset="0.374101" stop-color="#EE5FA4"/><stop offset="0.381295" stop-color="#EE60A4"/><stop offset="0.388489" stop-color="#EE60A3"/><stop offset="0.395683" stop-color="#EE61A2"/><stop offset="0.402878" stop-color="#ED62A1"/><stop offset="0.410072" stop-color="#EE63A0"/><stop offset="0.417266" stop-color="#EE639F"/><stop offset="0.42446" stop-color="#EE649E"/><stop offset="0.431655" stop-color="#EE659E"/><stop offset="0.438849" stop-color="#ED659D"/><stop offset="0.446043" stop-color="#EE669C"/><stop offset="0.453237" stop-color="#EE679B"/><stop offset="0.460432" stop-color="#ED679A"/><stop offset="0.467626" stop-color="#EE6899"/><stop offset="0.47482" stop-color="#EE6998"/><stop offset="0.482014" stop-color="#EE6997"/><stop offset="0.489209" stop-color="#EE6A96"/><stop offset="0.496403" stop-color="#EE6B95"/><stop offset="0.503597" stop-color="#EE6B94"/><stop offset="0.510791" stop-color="#EE6C93"/><stop offset="0.517986" stop-color="#ED6C92"/><stop offset="0.52518" stop-color="#EE6D91"/><stop offset="0.532374" stop-color="#EE6E90"/><stop offset="0.539568" stop-color="#ED6E8E"/><stop offset="0.546763" stop-color="#EE6F8D"/><stop offset="0.553957" stop-color="#EE6F8C"/><stop offset="0.561151" stop-color="#EE708B"/><stop offset="0.568345" stop-color="#EE708A"/><stop offset="0.57554" stop-color="#EE7189"/><stop offset="0.582734" stop-color="#EE7188"/><stop offset="0.589928" stop-color="#EE7286"/><stop offset="0.597122" stop-color="#EE7285"/><stop offset="0.604317" stop-color="#EE7384"/><stop offset="0.611511" stop-color="#EE7383"/><stop offset="0.618705" stop-color="#EE7482"/><stop offset="0.625899" stop-color="#ED7480"/><stop offset="0.633094" stop-color="#ED757F"/><stop offset="0.640288" stop-color="#EE757E"/><stop offset="0.647482" stop-color="#ED767D"/><stop offset="0.654676" stop-color="#ED767B"/><stop offset="0.66187" stop-color="#EE777A"/><stop offset="0.669065" stop-color="#EE7779"/><stop offset="0.676259" stop-color="#ED7777"/><stop offset="0.683453" stop-color="#EE7876"/><stop offset="0.690647" stop-color="#EE7875"/><stop offset="0.697842" stop-color="#EE7973"/><stop offset="0.705036" stop-color="#EE7972"/><stop offset="0.71223" stop-color="#EE7970"/><stop offset="0.719424" stop-color="#EE7A6F"/><stop offset="0.726619" stop-color="#EE7A6E"/><stop offset="0.733813" stop-color="#ED7B6C"/><stop offset="0.741007" stop-color="#EE7B6B"/><stop offset="0.748201" stop-color="#EE7B69"/><stop offset="0.755396" stop-color="#ED7C68"/><stop offset="0.76259" stop-color="#EE7C66"/><stop offset="0.769784" stop-color="#EE7C65"/><stop offset="0.776978" stop-color="#EE7D63"/><stop offset="0.784173" stop-color="#EE7D62"/><stop offset="0.791367" stop-color="#EE7D60"/><stop offset="0.798561" stop-color="#EE7D5F"/><stop offset="0.805755" stop-color="#EE7E5D"/><stop offset="0.81295" stop-color="#EE7E5C"/><stop offset="0.820144" stop-color="#ED7E5A"/><stop offset="0.827338" stop-color="#EE7E58"/><stop offset="0.834532" stop-color="#EE7F57"/><stop offset="0.841727" stop-color="#EE7F55"/><stop offset="0.848921" stop-color="#EE7F54"/><stop offset="0.856115" stop-color="#EE7F52"/><stop offset="0.863309" stop-color="#EE8050"/><stop offset="0.870504" stop-color="#ED804F"/><stop offset="0.877698" stop-color="#EE804D"/><stop offset="0.884892" stop-color="#EE804B"/><stop offset="0.892086" stop-color="#EE8049"/><stop offset="0.899281" stop-color="#EE8048"/><stop offset="0.906475" stop-color="#EE8146"/><stop offset="0.913669" stop-color="#EE8144"/><stop offset="0.920863" stop-color="#EE8143"/><stop offset="0.928058" stop-color="#EE8141"/><stop offset="0.935252" stop-color="#EE813F"/><stop offset="0.942446" stop-color="#EE813D"/><stop offset="0.94964" stop-color="#EE813B"/><stop offset="0.956835" stop-color="#EE813A"/><stop offset="0.964029" stop-color="#EE8138"/><stop offset="0.971223" stop-color="#EE8136"/><stop offset="0.978417" stop-color="#EE8134"/><stop offset="0.985611" stop-color="#EE8132"/><stop offset="0.992806" stop-color="#EE8130"/><stop offset="1" stop-color="#EE822F"/></linearGradient><linearGradient x1="1042.63" y1="579.109" x2="1070.92" y2="749.308" gradientUnits="userSpaceOnUse" spreadMethod="reflect" id="stroke7"><stop offset="0" stop-color="#BD7542"/><stop offset="0.0140845" stop-color="#BC7642"/><stop offset="0.028169" stop-color="#BC7842"/><stop offset="0.0422535" stop-color="#BC7A41"/><stop offset="0.056338" stop-color="#BC7C42"/><stop offset="0.0704225" stop-color="#BC7E42"/><stop offset="0.084507" stop-color="#BC7F42"/><stop offset="0.0985916" stop-color="#BC8141"/><stop offset="0.112676" stop-color="#BB8342"/><stop offset="0.126761" stop-color="#BB8542"/><stop offset="0.140845" stop-color="#BB8642"/><stop offset="0.15493" stop-color="#BA8842"/><stop offset="0.169014" stop-color="#BA8A42"/><stop offset="0.183099" stop-color="#BA8B42"/><stop offset="0.197183" stop-color="#B98D42"/><stop offset="0.211268" stop-color="#B98E42"/><stop offset="0.225352" stop-color="#B89042"/><stop offset="0.239437" stop-color="#B89142"/><stop offset="0.253521" stop-color="#B79342"/><stop offset="0.267606" stop-color="#B69442"/><stop offset="0.28169" stop-color="#B69642"/><stop offset="0.295775" stop-color="#B59742"/><stop offset="0.309859" stop-color="#B49942"/><stop offset="0.323944" stop-color="#B49A42"/><stop offset="0.338028" stop-color="#B39B42"/><stop offset="0.352113" stop-color="#B29D42"/><stop offset="0.366197" stop-color="#B29E42"/><stop offset="0.380282" stop-color="#B19F42"/><stop offset="0.394366" stop-color="#B0A042"/><stop offset="0.408451" stop-color="#AFA242"/><stop offset="0.422535" stop-color="#AEA342"/><stop offset="0.43662" stop-color="#ADA442"/><stop offset="0.450704" stop-color="#ACA542"/><stop offset="0.464789" stop-color="#ABA641"/><stop offset="0.478873" stop-color="#AAA742"/><stop offset="0.492958" stop-color="#A9A842"/><stop offset="0.507042" stop-color="#A8A942"/><stop offset="0.521127" stop-color="#A7AA42"/><stop offset="0.535211" stop-color="#A6AB42"/><stop offset="0.549296" stop-color="#A5AC42"/><stop offset="0.56338" stop-color="#A4AD42"/><stop offset="0.577465" stop-color="#A3AE42"/><stop offset="0.591549" stop-color="#A2AF42"/><stop offset="0.605634" stop-color="#A0B042"/><stop offset="0.619718" stop-color="#9FB142"/><stop offset="0.633803" stop-color="#9EB242"/><stop offset="0.647887" stop-color="#9DB242"/><stop offset="0.661972" stop-color="#9BB342"/><stop offset="0.676056" stop-color="#9AB442"/><stop offset="0.690141" stop-color="#99B442"/><stop offset="0.704225" stop-color="#97B542"/><stop offset="0.71831" stop-color="#96B642"/><stop offset="0.732394" stop-color="#94B642"/><stop offset="0.746479" stop-color="#93B742"/><stop offset="0.760563" stop-color="#91B842"/><stop offset="0.774648" stop-color="#90B842"/><stop offset="0.788732" stop-color="#8EB942"/><stop offset="0.802817" stop-color="#8DB942"/><stop offset="0.816901" stop-color="#8BBA42"/><stop offset="0.830986" stop-color="#8ABA42"/><stop offset="0.84507" stop-color="#88BA42"/><stop offset="0.859155" stop-color="#86BB42"/><stop offset="0.873239" stop-color="#85BB42"/><stop offset="0.887324" stop-color="#83BB42"/><stop offset="0.901408" stop-color="#81BC42"/><stop offset="0.915493" stop-color="#7FBC42"/><stop offset="0.929577" stop-color="#7EBC42"/><stop offset="0.943662" stop-color="#7CBC42"/><stop offset="0.957747" stop-color="#7ABC42"/><stop offset="0.971831" stop-color="#78BC42"/><stop offset="0.985915" stop-color="#76BC42"/><stop offset="1" stop-color="#75BD42"/></linearGradient><clipPath id="clip8"><rect x="3368" y="825" width="894" height="827"/></clipPath><clipPath id="clip9"><rect x="3368" y="825" width="894" height="827"/></clipPath><clipPath id="clip10"><rect x="3368" y="825" width="894" height="827"/></clipPath><clipPath id="clip11"><rect x="3368" y="825" width="894" height="827"/></clipPath><clipPath id="clip12"><rect x="878" y="1480" width="2536" height="1009"/></clipPath><clipPath id="clip13"><rect x="878" y="1480" width="2536" height="1009"/></clipPath><clipPath id="clip14"><rect x="878" y="1480" width="2536" height="1009"/></clipPath><clipPath id="clip15"><rect x="878" y="1480" width="2536" height="1009"/></clipPath><linearGradient x1="368.334" y1="398.228" x2="374.932" y2="484.042" gradientUnits="userSpaceOnUse" spreadMethod="reflect" id="stroke16"><stop offset="0" stop-color="#48CB89"/><stop offset="0.0116279" stop-color="#47CA8A"/><stop offset="0.0232558" stop-color="#48CA8B"/><stop offset="0.0348837" stop-color="#48CA8D"/><stop offset="0.0465116" stop-color="#48CA8E"/><stop offset="0.0581395" stop-color="#48CA90"/><stop offset="0.0697674" stop-color="#48CA91"/><stop offset="0.0813954" stop-color="#48CA92"/><stop offset="0.0930233" stop-color="#48C994"/><stop offset="0.104651" stop-color="#48C995"/><stop offset="0.116279" stop-color="#48C996"/><stop offset="0.127907" stop-color="#48C997"/><stop offset="0.139535" stop-color="#47C899"/><stop offset="0.151163" stop-color="#47C89A"/><stop offset="0.162791" stop-color="#48C89B"/><stop offset="0.174419" stop-color="#48C79C"/><stop offset="0.186047" stop-color="#48C79E"/><stop offset="0.197674" stop-color="#48C69F"/><stop offset="0.209302" stop-color="#48C6A0"/><stop offset="0.22093" stop-color="#48C5A1"/><stop offset="0.232558" stop-color="#48C5A2"/><stop offset="0.244186" stop-color="#48C4A3"/><stop offset="0.255814" stop-color="#48C4A5"/><stop offset="0.267442" stop-color="#48C3A6"/><stop offset="0.27907" stop-color="#48C3A7"/><stop offset="0.290698" stop-color="#48C2A8"/><stop offset="0.302326" stop-color="#48C1A9"/><stop offset="0.313953" stop-color="#48C1AA"/><stop offset="0.325581" stop-color="#48C0AB"/><stop offset="0.337209" stop-color="#48BFAC"/><stop offset="0.348837" stop-color="#48BEAD"/><stop offset="0.360465" stop-color="#48BEAE"/><stop offset="0.372093" stop-color="#48BDAF"/><stop offset="0.383721" stop-color="#48BCB0"/><stop offset="0.395349" stop-color="#48BBB1"/><stop offset="0.406977" stop-color="#48BAB2"/><stop offset="0.418605" stop-color="#48BAB3"/><stop offset="0.430233" stop-color="#48B9B4"/><stop offset="0.44186" stop-color="#48B8B4"/><stop offset="0.453488" stop-color="#48B7B5"/><stop offset="0.465116" stop-color="#48B6B6"/><stop offset="0.476744" stop-color="#48B5B7"/><stop offset="0.488372" stop-color="#48B4B8"/><stop offset="0.5" stop-color="#48B3B9"/><stop offset="0.511628" stop-color="#48B2B9"/><stop offset="0.523256" stop-color="#48B1BA"/><stop offset="0.534884" stop-color="#48B0BB"/><stop offset="0.546512" stop-color="#48AEBC"/><stop offset="0.55814" stop-color="#48ADBC"/><stop offset="0.569767" stop-color="#48ACBD"/><stop offset="0.581395" stop-color="#48ABBE"/><stop offset="0.593023" stop-color="#48AABE"/><stop offset="0.604651" stop-color="#48A9BF"/><stop offset="0.616279" stop-color="#48A7C0"/><stop offset="0.627907" stop-color="#48A6C0"/><stop offset="0.639535" stop-color="#48A5C1"/><stop offset="0.651163" stop-color="#48A4C1"/><stop offset="0.662791" stop-color="#47A2C2"/><stop offset="0.674419" stop-color="#48A1C2"/><stop offset="0.686047" stop-color="#48A0C3"/><stop offset="0.697674" stop-color="#489EC3"/><stop offset="0.709302" stop-color="#489DC4"/><stop offset="0.72093" stop-color="#489BC4"/><stop offset="0.732558" stop-color="#489AC5"/><stop offset="0.744186" stop-color="#4899C5"/><stop offset="0.755814" stop-color="#4897C6"/><stop offset="0.767442" stop-color="#4896C6"/><stop offset="0.77907" stop-color="#4894C7"/><stop offset="0.790698" stop-color="#4892C7"/><stop offset="0.802326" stop-color="#4891C7"/><stop offset="0.813953" stop-color="#488FC8"/><stop offset="0.825581" stop-color="#488EC8"/><stop offset="0.837209" stop-color="#488CC8"/><stop offset="0.848837" stop-color="#488BC9"/><stop offset="0.860465" stop-color="#4889C9"/><stop offset="0.872093" stop-color="#4887C9"/><stop offset="0.883721" stop-color="#4885C9"/><stop offset="0.895349" stop-color="#4884CA"/><stop offset="0.906977" stop-color="#4882CA"/><stop offset="0.918605" stop-color="#4880CA"/><stop offset="0.930233" stop-color="#487FCA"/><stop offset="0.94186" stop-color="#487DCA"/><stop offset="0.953488" stop-color="#487BCA"/><stop offset="0.965116" stop-color="#4879CA"/><stop offset="0.976744" stop-color="#4877CA"/><stop offset="0.988372" stop-color="#4875CA"/><stop offset="1" stop-color="#4874CB"/></linearGradient><linearGradient x1="357.169" y1="422.868" x2="377.959" y2="573.059" gradientUnits="userSpaceOnUse" spreadMethod="reflect" id="stroke17"><stop offset="0" stop-color="#EE2FBB"/><stop offset="0.00719424" stop-color="#EE30BA"/><stop offset="0.0143885" stop-color="#EE31BA"/><stop offset="0.0215827" stop-color="#EE32BA"/><stop offset="0.028777" stop-color="#ED33BA"/><stop offset="0.0359712" stop-color="#EE34BA"/><stop offset="0.0431655" stop-color="#EE35BA"/><stop offset="0.0503597" stop-color="#ED36BA"/><stop offset="0.057554" stop-color="#EE37BA"/><stop offset="0.0647482" stop-color="#EE38BA"/><stop offset="0.0719424" stop-color="#EE39B9"/><stop offset="0.0791367" stop-color="#EE3AB9"/><stop offset="0.0863309" stop-color="#ED3BB9"/><stop offset="0.0935252" stop-color="#EE3CB9"/><stop offset="0.100719" stop-color="#EE3DB9"/><stop offset="0.107914" stop-color="#EE3EB8"/><stop offset="0.115108" stop-color="#EE40B8"/><stop offset="0.122302" stop-color="#EE41B8"/><stop offset="0.129496" stop-color="#EE42B7"/><stop offset="0.136691" stop-color="#EE42B7"/><stop offset="0.143885" stop-color="#EE43B7"/><stop offset="0.151079" stop-color="#EE44B6"/><stop offset="0.158273" stop-color="#ED45B6"/><stop offset="0.165468" stop-color="#EE46B6"/><stop offset="0.172662" stop-color="#EE47B5"/><stop offset="0.179856" stop-color="#EE48B5"/><stop offset="0.18705" stop-color="#EE49B4"/><stop offset="0.194245" stop-color="#EE4AB4"/><stop offset="0.201439" stop-color="#ED4BB4"/><stop offset="0.208633" stop-color="#EE4CB3"/><stop offset="0.215827" stop-color="#EE4DB3"/><stop offset="0.223022" stop-color="#EE4EB2"/><stop offset="0.230216" stop-color="#EE4FB2"/><stop offset="0.23741" stop-color="#EE50B1"/><stop offset="0.244604" stop-color="#EE50B1"/><stop offset="0.251799" stop-color="#EE51B0"/><stop offset="0.258993" stop-color="#EE52AF"/><stop offset="0.266187" stop-color="#EE53AF"/><stop offset="0.273381" stop-color="#EE54AE"/><stop offset="0.280576" stop-color="#EE55AE"/><stop offset="0.28777" stop-color="#EE56AD"/><stop offset="0.294964" stop-color="#EE56AC"/><stop offset="0.302158" stop-color="#EE57AC"/><stop offset="0.309353" stop-color="#EE58AB"/><stop offset="0.316547" stop-color="#EE59AA"/><stop offset="0.323741" stop-color="#EE5AAA"/><stop offset="0.330935" stop-color="#EE5AA9"/><stop offset="0.338129" stop-color="#EE5BA8"/><stop offset="0.345324" stop-color="#ED5CA7"/><stop offset="0.352518" stop-color="#EE5DA7"/><stop offset="0.359712" stop-color="#EE5EA6"/><stop offset="0.366906" stop-color="#EE5EA5"/><stop offset="0.374101" stop-color="#EE5FA4"/><stop offset="0.381295" stop-color="#EE60A4"/><stop offset="0.388489" stop-color="#EE60A3"/><stop offset="0.395683" stop-color="#EE61A2"/><stop offset="0.402878" stop-color="#ED62A1"/><stop offset="0.410072" stop-color="#EE63A0"/><stop offset="0.417266" stop-color="#EE639F"/><stop offset="0.42446" stop-color="#EE649E"/><stop offset="0.431655" stop-color="#EE659E"/><stop offset="0.438849" stop-color="#ED659D"/><stop offset="0.446043" stop-color="#EE669C"/><stop offset="0.453237" stop-color="#EE679B"/><stop offset="0.460432" stop-color="#ED679A"/><stop offset="0.467626" stop-color="#EE6899"/><stop offset="0.47482" stop-color="#EE6998"/><stop offset="0.482014" stop-color="#EE6997"/><stop offset="0.489209" stop-color="#EE6A96"/><stop offset="0.496403" stop-color="#EE6B95"/><stop offset="0.503597" stop-color="#EE6B94"/><stop offset="0.510791" stop-color="#EE6C93"/><stop offset="0.517986" stop-color="#ED6C92"/><stop offset="0.52518" stop-color="#EE6D91"/><stop offset="0.532374" stop-color="#EE6E90"/><stop offset="0.539568" stop-color="#ED6E8E"/><stop offset="0.546763" stop-color="#EE6F8D"/><stop offset="0.553957" stop-color="#EE6F8C"/><stop offset="0.561151" stop-color="#EE708B"/><stop offset="0.568345" stop-color="#EE708A"/><stop offset="0.57554" stop-color="#EE7189"/><stop offset="0.582734" stop-color="#EE7188"/><stop offset="0.589928" stop-color="#EE7286"/><stop offset="0.597122" stop-color="#EE7285"/><stop offset="0.604317" stop-color="#EE7384"/><stop offset="0.611511" stop-color="#EE7383"/><stop offset="0.618705" stop-color="#EE7482"/><stop offset="0.625899" stop-color="#ED7480"/><stop offset="0.633094" stop-color="#ED757F"/><stop offset="0.640288" stop-color="#EE757E"/><stop offset="0.647482" stop-color="#ED767D"/><stop offset="0.654676" stop-color="#ED767B"/><stop offset="0.66187" stop-color="#EE777A"/><stop offset="0.669065" stop-color="#EE7779"/><stop offset="0.676259" stop-color="#ED7777"/><stop offset="0.683453" stop-color="#EE7876"/><stop offset="0.690647" stop-color="#EE7875"/><stop offset="0.697842" stop-color="#EE7973"/><stop offset="0.705036" stop-color="#EE7972"/><stop offset="0.71223" stop-color="#EE7970"/><stop offset="0.719424" stop-color="#EE7A6F"/><stop offset="0.726619" stop-color="#EE7A6E"/><stop offset="0.733813" stop-color="#ED7B6C"/><stop offset="0.741007" stop-color="#EE7B6B"/><stop offset="0.748201" stop-color="#EE7B69"/><stop offset="0.755396" stop-color="#ED7C68"/><stop offset="0.76259" stop-color="#EE7C66"/><stop offset="0.769784" stop-color="#EE7C65"/><stop offset="0.776978" stop-color="#EE7D63"/><stop offset="0.784173" stop-color="#EE7D62"/><stop offset="0.791367" stop-color="#EE7D60"/><stop offset="0.798561" stop-color="#EE7D5F"/><stop offset="0.805755" stop-color="#EE7E5D"/><stop offset="0.81295" stop-color="#EE7E5C"/><stop offset="0.820144" stop-color="#ED7E5A"/><stop offset="0.827338" stop-color="#EE7E58"/><stop offset="0.834532" stop-color="#EE7F57"/><stop offset="0.841727" stop-color="#EE7F55"/><stop offset="0.848921" stop-color="#EE7F54"/><stop offset="0.856115" stop-color="#EE7F52"/><stop offset="0.863309" stop-color="#EE8050"/><stop offset="0.870504" stop-color="#ED804F"/><stop offset="0.877698" stop-color="#EE804D"/><stop offset="0.884892" stop-color="#EE804B"/><stop offset="0.892086" stop-color="#EE8049"/><stop offset="0.899281" stop-color="#EE8048"/><stop offset="0.906475" stop-color="#EE8146"/><stop offset="0.913669" stop-color="#EE8144"/><stop offset="0.920863" stop-color="#EE8143"/><stop offset="0.928058" stop-color="#EE8141"/><stop offset="0.935252" stop-color="#EE813F"/><stop offset="0.942446" stop-color="#EE813D"/><stop offset="0.94964" stop-color="#EE813B"/><stop offset="0.956835" stop-color="#EE813A"/><stop offset="0.964029" stop-color="#EE8138"/><stop offset="0.971223" stop-color="#EE8136"/><stop offset="0.978417" stop-color="#EE8134"/><stop offset="0.985611" stop-color="#EE8132"/><stop offset="0.992806" stop-color="#EE8130"/><stop offset="1" stop-color="#EE822F"/></linearGradient><linearGradient x1="356.401" y1="542.781" x2="387.772" y2="727.905" gradientUnits="userSpaceOnUse" spreadMethod="reflect" id="stroke18"><stop offset="0" stop-color="#BD7542"/><stop offset="0.0140845" stop-color="#BC7642"/><stop offset="0.028169" stop-color="#BC7842"/><stop offset="0.0422535" stop-color="#BC7A41"/><stop offset="0.056338" stop-color="#BC7C42"/><stop offset="0.0704225" stop-color="#BC7E42"/><stop offset="0.084507" stop-color="#BC7F42"/><stop offset="0.0985916" stop-color="#BC8141"/><stop offset="0.112676" stop-color="#BB8342"/><stop offset="0.126761" stop-color="#BB8542"/><stop offset="0.140845" stop-color="#BB8642"/><stop offset="0.15493" stop-color="#BA8842"/><stop offset="0.169014" stop-color="#BA8A42"/><stop offset="0.183099" stop-color="#BA8B42"/><stop offset="0.197183" stop-color="#B98D42"/><stop offset="0.211268" stop-color="#B98E42"/><stop offset="0.225352" stop-color="#B89042"/><stop offset="0.239437" stop-color="#B89142"/><stop offset="0.253521" stop-color="#B79342"/><stop offset="0.267606" stop-color="#B69442"/><stop offset="0.28169" stop-color="#B69642"/><stop offset="0.295775" stop-color="#B59742"/><stop offset="0.309859" stop-color="#B49942"/><stop offset="0.323944" stop-color="#B49A42"/><stop offset="0.338028" stop-color="#B39B42"/><stop offset="0.352113" stop-color="#B29D42"/><stop offset="0.366197" stop-color="#B29E42"/><stop offset="0.380282" stop-color="#B19F42"/><stop offset="0.394366" stop-color="#B0A042"/><stop offset="0.408451" stop-color="#AFA242"/><stop offset="0.422535" stop-color="#AEA342"/><stop offset="0.43662" stop-color="#ADA442"/><stop offset="0.450704" stop-color="#ACA542"/><stop offset="0.464789" stop-color="#ABA641"/><stop offset="0.478873" stop-color="#AAA742"/><stop offset="0.492958" stop-color="#A9A842"/><stop offset="0.507042" stop-color="#A8A942"/><stop offset="0.521127" stop-color="#A7AA42"/><stop offset="0.535211" stop-color="#A6AB42"/><stop offset="0.549296" stop-color="#A5AC42"/><stop offset="0.56338" stop-color="#A4AD42"/><stop offset="0.577465" stop-color="#A3AE42"/><stop offset="0.591549" stop-color="#A2AF42"/><stop offset="0.605634" stop-color="#A0B042"/><stop offset="0.619718" stop-color="#9FB142"/><stop offset="0.633803" stop-color="#9EB242"/><stop offset="0.647887" stop-color="#9DB242"/><stop offset="0.661972" stop-color="#9BB342"/><stop offset="0.676056" stop-color="#9AB442"/><stop offset="0.690141" stop-color="#99B442"/><stop offset="0.704225" stop-color="#97B542"/><stop offset="0.71831" stop-color="#96B642"/><stop offset="0.732394" stop-color="#94B642"/><stop offset="0.746479" stop-color="#93B742"/><stop offset="0.760563" stop-color="#91B842"/><stop offset="0.774648" stop-color="#90B842"/><stop offset="0.788732" stop-color="#8EB942"/><stop offset="0.802817" stop-color="#8DB942"/><stop offset="0.816901" stop-color="#8BBA42"/><stop offset="0.830986" stop-color="#8ABA42"/><stop offset="0.84507" stop-color="#88BA42"/><stop offset="0.859155" stop-color="#86BB42"/><stop offset="0.873239" stop-color="#85BB42"/><stop offset="0.887324" stop-color="#83BB42"/><stop offset="0.901408" stop-color="#81BC42"/><stop offset="0.915493" stop-color="#7FBC42"/><stop offset="0.929577" stop-color="#7EBC42"/><stop offset="0.943662" stop-color="#7CBC42"/><stop offset="0.957747" stop-color="#7ABC42"/><stop offset="0.971831" stop-color="#78BC42"/><stop offset="0.985915" stop-color="#76BC42"/><stop offset="1" stop-color="#75BD42"/></linearGradient><linearGradient x1="1578.03" y1="433.225" x2="1586.19" y2="542.489" gradientUnits="userSpaceOnUse" spreadMethod="reflect" id="stroke19"><stop offset="0" stop-color="#48CB89"/><stop offset="0.0116279" stop-color="#47CA8A"/><stop offset="0.0232558" stop-color="#48CA8B"/><stop offset="0.0348837" stop-color="#48CA8D"/><stop offset="0.0465116" stop-color="#48CA8E"/><stop offset="0.0581395" stop-color="#48CA90"/><stop offset="0.0697674" stop-color="#48CA91"/><stop offset="0.0813954" stop-color="#48CA92"/><stop offset="0.0930233" stop-color="#48C994"/><stop offset="0.104651" stop-color="#48C995"/><stop offset="0.116279" stop-color="#48C996"/><stop offset="0.127907" stop-color="#48C997"/><stop offset="0.139535" stop-color="#47C899"/><stop offset="0.151163" stop-color="#47C89A"/><stop offset="0.162791" stop-color="#48C89B"/><stop offset="0.174419" stop-color="#48C79C"/><stop offset="0.186047" stop-color="#48C79E"/><stop offset="0.197674" stop-color="#48C69F"/><stop offset="0.209302" stop-color="#48C6A0"/><stop offset="0.22093" stop-color="#48C5A1"/><stop offset="0.232558" stop-color="#48C5A2"/><stop offset="0.244186" stop-color="#48C4A3"/><stop offset="0.255814" stop-color="#48C4A5"/><stop offset="0.267442" stop-color="#48C3A6"/><stop offset="0.27907" stop-color="#48C3A7"/><stop offset="0.290698" stop-color="#48C2A8"/><stop offset="0.302326" stop-color="#48C1A9"/><stop offset="0.313953" stop-color="#48C1AA"/><stop offset="0.325581" stop-color="#48C0AB"/><stop offset="0.337209" stop-color="#48BFAC"/><stop offset="0.348837" stop-color="#48BEAD"/><stop offset="0.360465" stop-color="#48BEAE"/><stop offset="0.372093" stop-color="#48BDAF"/><stop offset="0.383721" stop-color="#48BCB0"/><stop offset="0.395349" stop-color="#48BBB1"/><stop offset="0.406977" stop-color="#48BAB2"/><stop offset="0.418605" stop-color="#48BAB3"/><stop offset="0.430233" stop-color="#48B9B4"/><stop offset="0.44186" stop-color="#48B8B4"/><stop offset="0.453488" stop-color="#48B7B5"/><stop offset="0.465116" stop-color="#48B6B6"/><stop offset="0.476744" stop-color="#48B5B7"/><stop offset="0.488372" stop-color="#48B4B8"/><stop offset="0.5" stop-color="#48B3B9"/><stop offset="0.511628" stop-color="#48B2B9"/><stop offset="0.523256" stop-color="#48B1BA"/><stop offset="0.534884" stop-color="#48B0BB"/><stop offset="0.546512" stop-color="#48AEBC"/><stop offset="0.55814" stop-color="#48ADBC"/><stop offset="0.569767" stop-color="#48ACBD"/><stop offset="0.581395" stop-color="#48ABBE"/><stop offset="0.593023" stop-color="#48AABE"/><stop offset="0.604651" stop-color="#48A9BF"/><stop offset="0.616279" stop-color="#48A7C0"/><stop offset="0.627907" stop-color="#48A6C0"/><stop offset="0.639535" stop-color="#48A5C1"/><stop offset="0.651163" stop-color="#48A4C1"/><stop offset="0.662791" stop-color="#47A2C2"/><stop offset="0.674419" stop-color="#48A1C2"/><stop offset="0.686047" stop-color="#48A0C3"/><stop offset="0.697674" stop-color="#489EC3"/><stop offset="0.709302" stop-color="#489DC4"/><stop offset="0.72093" stop-color="#489BC4"/><stop offset="0.732558" stop-color="#489AC5"/><stop offset="0.744186" stop-color="#4899C5"/><stop offset="0.755814" stop-color="#4897C6"/><stop offset="0.767442" stop-color="#4896C6"/><stop offset="0.77907" stop-color="#4894C7"/><stop offset="0.790698" stop-color="#4892C7"/><stop offset="0.802326" stop-color="#4891C7"/><stop offset="0.813953" stop-color="#488FC8"/><stop offset="0.825581" stop-color="#488EC8"/><stop offset="0.837209" stop-color="#488CC8"/><stop offset="0.848837" stop-color="#488BC9"/><stop offset="0.860465" stop-color="#4889C9"/><stop offset="0.872093" stop-color="#4887C9"/><stop offset="0.883721" stop-color="#4885C9"/><stop offset="0.895349" stop-color="#4884CA"/><stop offset="0.906977" stop-color="#4882CA"/><stop offset="0.918605" stop-color="#4880CA"/><stop offset="0.930233" stop-color="#487FCA"/><stop offset="0.94186" stop-color="#487DCA"/><stop offset="0.953488" stop-color="#487BCA"/><stop offset="0.965116" stop-color="#4879CA"/><stop offset="0.976744" stop-color="#4877CA"/><stop offset="0.988372" stop-color="#4875CA"/><stop offset="1" stop-color="#4874CB"/></linearGradient><linearGradient x1="1579.09" y1="700.768" x2="1587.9" y2="814.064" gradientUnits="userSpaceOnUse" spreadMethod="reflect" id="stroke20"><stop offset="0" stop-color="#48CB89"/><stop offset="0.0116279" stop-color="#47CA8A"/><stop offset="0.0232558" stop-color="#48CA8B"/><stop offset="0.0348837" stop-color="#48CA8D"/><stop offset="0.0465116" stop-color="#48CA8E"/><stop offset="0.0581395" stop-color="#48CA90"/><stop offset="0.0697674" stop-color="#48CA91"/><stop offset="0.0813954" stop-color="#48CA92"/><stop offset="0.0930233" stop-color="#48C994"/><stop offset="0.104651" stop-color="#48C995"/><stop offset="0.116279" stop-color="#48C996"/><stop offset="0.127907" stop-color="#48C997"/><stop offset="0.139535" stop-color="#47C899"/><stop offset="0.151163" stop-color="#47C89A"/><stop offset="0.162791" stop-color="#48C89B"/><stop offset="0.174419" stop-color="#48C79C"/><stop offset="0.186047" stop-color="#48C79E"/><stop offset="0.197674" stop-color="#48C69F"/><stop offset="0.209302" stop-color="#48C6A0"/><stop offset="0.22093" stop-color="#48C5A1"/><stop offset="0.232558" stop-color="#48C5A2"/><stop offset="0.244186" stop-color="#48C4A3"/><stop offset="0.255814" stop-color="#48C4A5"/><stop offset="0.267442" stop-color="#48C3A6"/><stop offset="0.27907" stop-color="#48C3A7"/><stop offset="0.290698" stop-color="#48C2A8"/><stop offset="0.302326" stop-color="#48C1A9"/><stop offset="0.313953" stop-color="#48C1AA"/><stop offset="0.325581" stop-color="#48C0AB"/><stop offset="0.337209" stop-color="#48BFAC"/><stop offset="0.348837" stop-color="#48BEAD"/><stop offset="0.360465" stop-color="#48BEAE"/><stop offset="0.372093" stop-color="#48BDAF"/><stop offset="0.383721" stop-color="#48BCB0"/><stop offset="0.395349" stop-color="#48BBB1"/><stop offset="0.406977" stop-color="#48BAB2"/><stop offset="0.418605" stop-color="#48BAB3"/><stop offset="0.430233" stop-color="#48B9B4"/><stop offset="0.44186" stop-color="#48B8B4"/><stop offset="0.453488" stop-color="#48B7B5"/><stop offset="0.465116" stop-color="#48B6B6"/><stop offset="0.476744" stop-color="#48B5B7"/><stop offset="0.488372" stop-color="#48B4B8"/><stop offset="0.5" stop-color="#48B3B9"/><stop offset="0.511628" stop-color="#48B2B9"/><stop offset="0.523256" stop-color="#48B1BA"/><stop offset="0.534884" stop-color="#48B0BB"/><stop offset="0.546512" stop-color="#48AEBC"/><stop offset="0.55814" stop-color="#48ADBC"/><stop offset="0.569767" stop-color="#48ACBD"/><stop offset="0.581395" stop-color="#48ABBE"/><stop offset="0.593023" stop-color="#48AABE"/><stop offset="0.604651" stop-color="#48A9BF"/><stop offset="0.616279" stop-color="#48A7C0"/><stop offset="0.627907" stop-color="#48A6C0"/><stop offset="0.639535" stop-color="#48A5C1"/><stop offset="0.651163" stop-color="#48A4C1"/><stop offset="0.662791" stop-color="#47A2C2"/><stop offset="0.674419" stop-color="#48A1C2"/><stop offset="0.686047" stop-color="#48A0C3"/><stop offset="0.697674" stop-color="#489EC3"/><stop offset="0.709302" stop-color="#489DC4"/><stop offset="0.72093" stop-color="#489BC4"/><stop offset="0.732558" stop-color="#489AC5"/><stop offset="0.744186" stop-color="#4899C5"/><stop offset="0.755814" stop-color="#4897C6"/><stop offset="0.767442" stop-color="#4896C6"/><stop offset="0.77907" stop-color="#4894C7"/><stop offset="0.790698" stop-color="#4892C7"/><stop offset="0.802326" stop-color="#4891C7"/><stop offset="0.813953" stop-color="#488FC8"/><stop offset="0.825581" stop-color="#488EC8"/><stop offset="0.837209" stop-color="#488CC8"/><stop offset="0.848837" stop-color="#488BC9"/><stop offset="0.860465" stop-color="#4889C9"/><stop offset="0.872093" stop-color="#4887C9"/><stop offset="0.883721" stop-color="#4885C9"/><stop offset="0.895349" stop-color="#4884CA"/><stop offset="0.906977" stop-color="#4882CA"/><stop offset="0.918605" stop-color="#4880CA"/><stop offset="0.930233" stop-color="#487FCA"/><stop offset="0.94186" stop-color="#487DCA"/><stop offset="0.953488" stop-color="#487BCA"/><stop offset="0.965116" stop-color="#4879CA"/><stop offset="0.976744" stop-color="#4877CA"/><stop offset="0.988372" stop-color="#4875CA"/><stop offset="1" stop-color="#4874CB"/></linearGradient><clipPath id="clip21"><rect x="878" y="27" width="2535" height="999"/></clipPath><clipPath id="clip22"><rect x="878" y="27" width="2535" height="999"/></clipPath><clipPath id="clip23"><rect x="878" y="27" width="2535" height="999"/></clipPath><clipPath id="clip24"><rect x="878" y="27" width="2535" height="999"/></clipPath></defs><g clip-path="url(#clip0)" transform="translate(19 -27)"><text font-family="Cambria Math,Cambria Math_MSFontService,sans-serif" font-weight="400" font-size="128" transform="matrix(1 0 0 1 2029.28 1282)">⨁<tspan font-family="Microsoft YaHei,Microsoft YaHei_MSFontService,sans-serif" font-weight="700" font-size="101" x="-454.165" y="-10">特征拼接</tspan></text><path d="M435.844 992.223 435.844 510.844 853.124 510.844 853.124 521.156 441 521.156 446.156 516 446.156 992.223ZM847.968 500.531 878.905 516 847.968 531.469Z" fill="#4874CB"/><path d="M0-5.15625 562.93-5.15625 563.15 397.599 552.837 397.605 552.62 0.0028163 557.776 5.15625 0 5.15625ZM573.231 391.799 559.079 423.36 542.321 393.102Z" fill="#4874CB" transform="matrix(1.83697e-16 1 1 -1.83697e-16 455 1414)"/><path d="M2088.16 975 2088.16 1161.64 2077.84 1161.64 2077.84 975ZM2098.47 1156.49 2083 1187.43 2067.53 1156.49Z" fill="#4874CB"/><path d="M5.15625-1.12302e-05 5.15655 139.92-5.15595 139.92-5.15625 1.12302e-05ZM15.469 134.763 0.000360892 165.701-15.4685 134.763Z" fill="#4874CB" transform="matrix(1 0 0 -1 2088 1468.7)"/><path d="M2160 1230.84 3305.5 1230.84 3305.5 1241.16 2160 1241.16ZM3300.34 1220.53 3331.28 1236 3300.34 1251.47Z" fill="#4874CB"/><g clip-path="url(#clip1)"><g clip-path="url(#clip2)"><g clip-path="url(#clip3)"><g clip-path="url(#clip4)"><path d="M443.97 359.859C443.97 319.607 476.601 286.976 516.854 286.976L1274.28 286.976C1314.53 286.976 1347.16 319.607 1347.16 359.859L1347.16 651.387C1347.16 691.64 1314.53 724.272 1274.28 724.272L516.854 724.272C476.601 724.272 443.97 691.64 443.97 651.387Z" stroke="#000000" stroke-width="2.91319" stroke-miterlimit="8" fill="#FFFFFF" fill-rule="evenodd" transform="matrix(1.00033 0 0 1 -420.199 688.139)"/><path d="M794.824 454.14C796.031 451.893 798.784 446.807 801.428 441.839 804.065 436.872 804.288 433.797 807.917 429.539 811.547 425.281 814.737 420.669 819.358 420.669 823.979 420.669 826.185 425.281 830.805 429.539 835.426 433.797 837.625 437.227 842.246 441.839 846.867 446.452 849.835 452.72 853.802 452.366 857.761 452.011 857.977 444.323 861.944 440.065 865.903 435.808 868.764 431.668 873.385 431.313 878.005 430.958 880.205 435.808 884.825 438.291 889.446 440.775 891.652 441.485 896.273 443.613 900.894 445.743 903.201 448.108 907.822 448.818 912.443 449.527 914.979 449.882 919.269 447.043 923.559 444.205 924.767 438.291 929.057 434.743 933.347 431.195 935.884 431.668 940.504 429.539 945.125 427.41 947.325 425.281 951.945 424.217 956.566 423.152 958.765 423.507 963.386 424.217 968.007 424.927 970.213 426.701 974.833 427.765 979.454 428.829 983.084 426.701 986.382 429.539 989.688 432.378 987.596 439.001 991.226 441.839 994.855 444.678 999.368 444.678 1004.32 443.613 1009.27 442.549 1010.81 440.065 1015.76 436.517 1020.71 432.969 1023.9 428.475 1028.85 425.991 1033.8 423.507 1035.68 425.991 1040.3 424.217 1044.92 422.443 1047.23 418.303 1051.85 417.238 1056.47 416.174 1058.68 416.411 1063.3 418.894 1067.92 421.378 1070.12 425.281 1074.74 429.539 1079.36 433.797 1081.56 436.517 1086.18 440.065 1090.8 443.613 1093.01 445.269 1097.63 447.043 1102.25 448.818 1105.44 450.946 1109.07 448.818 1112.7 446.688 1112.04 439.355 1115.67 436.517 1119.3 433.678 1122.49 435.453 1127.11 434.743 1131.73 434.034 1133.93 433.678 1138.55 432.969 1143.17 432.259 1146.03 434.152 1150 431.313 1153.96 428.475 1154.29 419.959 1158.25 418.894 1162.21 417.83 1165.07 424.217 1169.69 425.991 1174.31 427.765 1176.52 427.055 1181.14 427.765 1185.76 428.475 1187.96 427.055 1192.58 429.539 1197.2 432.022 1199.4 436.517 1204.02 440.065 1208.64 443.613 1210.85 445.624 1215.47 447.043 1220.09 448.462 1222.29 447.398 1226.91 447.043 1231.53 446.688 1233.73 447.517 1238.35 445.387 1242.97 443.259 1245.28 439.355 1249.9 436.517 1254.53 433.678 1256.72 432.732 1261.34 431.313 1265.97 429.894 1268.17 427.765 1272.79 429.539 1277.41 431.313 1279.61 437.581 1284.23 440.065 1288.85 442.549 1291.05 442.549 1295.67 441.839 1300.29 441.129 1302.5 438.646 1307.12 436.517 1311.74 434.388 1316.47 432.259 1318.56 431.313" stroke="url(#stroke5)" stroke-width="2.91319" stroke-miterlimit="8" fill="none" fill-rule="evenodd" transform="matrix(1.00033 0 0 1 -420.199 688.139)"/><path d="M794.824 522.532C796.915 519.909 801.644 513.738 806.265 508.647 810.886 503.556 812.862 500.933 817.814 497.23 822.765 493.527 825.956 493.527 830.907 490.288 835.858 487.048 837.727 485.351 842.348 481.185 846.969 477.02 849.499 468.689 853.789 469.614 858.079 470.54 859.287 481.648 863.577 485.814 867.868 489.979 870.397 488.899 875.018 490.288 879.639 491.676 881.838 493.065 886.459 492.602 891.08 492.139 893.279 491.213 897.9 487.974 902.521 484.734 904.828 479.796 909.449 476.557 914.07 473.317 916.269 472.392 920.89 471.928 925.51 471.466 928.04 470.54 932.331 474.243 936.621 477.946 938.82 483.808 942.119 490.288 945.424 496.767 945.094 500.778 948.723 506.333 952.352 511.887 955.543 517.904 960.164 517.904 964.785 517.904 966.984 511.424 971.605 506.333 976.225 501.242 978.425 497.693 983.045 492.602 987.666 487.511 989.865 483.499 994.486 481.185 999.107 478.871 1001.31 481.185 1005.93 481.185 1010.55 481.185 1012.75 480.26 1017.37 481.185 1021.99 482.111 1024.3 483.962 1028.92 485.814 1033.54 487.665 1035.74 489.362 1040.36 490.288 1044.98 491.213 1047.18 490.288 1051.8 490.288 1056.42 490.288 1058.62 490.288 1063.24 490.288 1067.86 490.288 1070.72 487.048 1074.68 490.288 1078.64 493.527 1079.52 499.853 1082.82 506.333 1086.12 512.812 1087.11 518.366 1091.07 522.532 1095.03 526.698 1098.55 529.32 1102.51 527.006 1106.47 524.692 1106.69 517.441 1110.65 510.961 1114.61 504.481 1117.58 500.933 1122.2 494.916 1126.82 488.899 1129.35 487.202 1133.64 481.185 1137.93 475.169 1139.14 466.529 1143.43 465.14 1147.72 463.752 1150.25 470.077 1154.87 474.243 1159.5 478.408 1163.67 480.26 1166.32 485.814 1168.95 491.368 1165.32 497.23 1167.96 501.859 1170.61 506.487 1174.78 507.721 1179.4 508.647 1184.02 509.573 1187.54 510.035 1190.84 506.333 1194.14 502.63 1192.5 495.379 1195.8 490.288 1199.09 485.197 1202.62 483.499 1207.24 481.185 1211.86 478.871 1214.06 480.723 1218.68 478.871 1223.3 477.02 1226.49 470.077 1230.12 471.928 1233.75 473.78 1235.4 481.494 1236.72 487.974 1238.04 494.454 1236.38 497.693 1236.72 504.173 1237.05 510.653 1235.73 518.83 1238.37 520.218 1241.01 521.607 1246.18 516.052 1249.81 510.961 1253.44 505.87 1253.66 501.396 1256.3 494.916 1258.94 488.436 1259.27 482.111 1262.9 478.871 1266.53 475.631 1269.72 477.483 1274.34 478.871 1278.96 480.26 1281.16 481.185 1285.78 485.814 1290.4 490.442 1292.6 500.47 1297.22 501.859 1301.84 503.247 1304.37 497.693 1308.66 492.602 1312.95 487.511 1316.8 479.643 1318.56 476.557" stroke="url(#stroke6)" stroke-width="2.91319" stroke-miterlimit="8" fill="none" fill-rule="evenodd" transform="matrix(1.00033 0 0 1 -420.199 688.139)"/><path d="M794.824 666.419C796.89 663.718 801.993 657.609 806.233 651.641 810.472 645.679 811.992 642.838 815.907 636.87 819.816 630.903 821.99 621.953 825.574 621.953 829.159 621.953 830.685 630.477 833.615 636.87 836.551 643.264 837.53 647.383 840.136 653.77 842.742 660.165 844.592 668.548 846.543 668.548 848.501 668.548 848.825 659.739 849.804 653.77 850.782 647.808 850.134 644.821 851.437 638.859 852.74 632.891 853.064 624.084 856.325 624.084 859.586 624.084 864.041 632.891 867.626 638.859 871.211 644.821 871.427 647.808 874.039 653.77 876.645 659.739 877.948 668.974 880.554 668.548 883.167 668.122 884.361 658.035 886.967 651.641 889.573 645.247 890.228 642.838 893.489 636.87 896.749 630.903 900.226 621.527 903.156 621.953 906.093 622.38 905.762 632.466 908.044 638.859 910.326 645.247 910.872 653.345 914.457 653.77 918.042 654.203 922.174 646.531 925.758 640.988 929.343 635.448 928.695 625.789 932.28 626.215 935.865 626.641 940.32 636.73 943.581 643.118 946.841 649.512 945.532 657.895 948.469 657.895 951.405 657.895 954.882 649.086 958.136 643.118 961.397 637.156 961.289 628.346 964.549 628.346 967.81 628.346 971.395 637.156 974.331 643.118 977.261 649.086 977.153 651.501 979.111 657.895 981.069 664.283 982.041 668.402 983.999 674.796 985.956 681.19 986.935 689.568 988.887 689.568 990.844 689.568 991.391 680.765 993.673 674.796 995.955 668.828 996.933 665.987 1000.19 660.025 1003.45 654.056 1006.28 651.215 1009.86 645.247 1013.45 639.285 1013.99 633.46 1017.9 630.477 1021.81 627.494 1024.64 630.477 1029.2 630.477 1033.77 630.477 1036.05 630.477 1040.61 630.477 1045.18 630.477 1047.67 627.494 1051.91 630.477 1056.15 633.46 1058.32 639.285 1061.58 645.247 1064.84 651.215 1065.06 654.056 1067.99 660.025 1070.93 665.987 1073.54 674.796 1076.14 674.796 1078.75 674.796 1079.62 665.987 1080.92 660.025 1082.23 654.056 1080.6 645.247 1082.56 645.247 1084.51 645.247 1087.12 654.056 1090.7 660.025 1094.29 665.987 1097.44 668.402 1100.37 674.796 1103.31 681.19 1103.31 685.309 1105.27 691.703 1107.22 698.091 1108.74 706.475 1110.05 706.475 1111.35 706.475 1111.02 697.665 1111.67 691.703 1112.33 685.735 1112.98 682.894 1113.31 676.925 1113.63 670.964 1113.31 668.122 1113.31 662.154 1113.31 656.186 1111.02 652.919 1113.31 647.383 1115.59 641.84 1120.04 636.87 1124.61 634.738 1129.17 632.607 1131.34 636.018 1135.91 636.87 1140.47 637.721 1142.97 635.448 1147.21 638.859 1151.44 642.266 1152.75 651.215 1156.99 653.77 1161.22 656.332 1164.05 655.054 1168.29 651.641 1172.53 648.234 1173.72 638.999 1177.96 636.87 1182.19 634.738 1184.69 637.156 1189.25 640.988 1193.82 644.821 1195.99 652.779 1200.56 655.76 1205.12 658.747 1207.29 656.612 1211.86 655.76 1216.42 654.908 1218.7 654.203 1223.27 651.641 1227.83 649.086 1230 646.105 1234.57 643.118 1239.13 640.137 1241.3 638.147 1245.87 636.87 1250.43 635.591 1252.61 633.886 1257.17 636.87 1261.73 639.851 1264.56 645.679 1268.47 651.641 1272.38 657.609 1272.6 662.58 1276.51 666.419 1280.43 670.252 1283.36 672.381 1287.92 670.677 1292.48 668.974 1294.66 660.025 1299.22 657.895 1303.78 655.76 1306.61 656.612 1310.52 660.025 1314.43 663.432 1317.15 671.815 1318.56 674.796" stroke="url(#stroke7)" stroke-width="2.91319" stroke-miterlimit="8" fill="none" fill-rule="evenodd" transform="matrix(1.00033 0 0 1 -420.199 688.139)"/><text font-family="Microsoft YaHei,Microsoft YaHei_MSFontService,sans-serif" font-weight="400" font-size="55" transform="matrix(0.635815 0 0 0.635605 619.009 1247)">•<tspan font-size="55" x="0.513862" y="44.0525">•</tspan><tspan font-size="55" x="0" y="84.9585">•</tspan></text><path d="M775.756 660.711C751.882 660.711 732.535 657.489 732.535 653.51L732.535 562.722C732.535 558.744 713.187 555.519 689.313 555.519 713.187 555.519 732.535 552.294 732.535 548.315L732.535 457.529C732.535 453.551 751.882 450.326 775.756 450.326" stroke="#4874CB" stroke-width="2.91319" stroke-miterlimit="8" fill="none" fill-rule="evenodd" transform="matrix(1.00033 0 0 1 -420.199 688.139)"/><text font-family="Microsoft YaHei,Microsoft YaHei_MSFontService,sans-serif" font-weight="700" font-size="147" transform="matrix(0.635815 0 0 0.635605 289.523 1075)">输入数据<tspan font-family="Times New Roman,Times New Roman_MSFontService,sans-serif" font-weight="400" font-size="128" x="-407.9" y="239.142">N</tspan><tspan font-weight="400" font-size="128" x="-315.087" y="239.142">维时</tspan><tspan font-weight="400" font-size="128" x="-407.9" y="391.753">间序列</tspan></text></g></g></g></g><g clip-path="url(#clip8)"><g clip-path="url(#clip9)"><g clip-path="url(#clip10)"><g clip-path="url(#clip11)"><path d="M873.999 484.714C873.999 413.258 931.923 355.332 1003.38 355.332L1634.15 355.332C1705.61 355.332 1763.54 413.258 1763.54 484.714L1763.54 1002.22C1763.54 1073.68 1705.61 1131.61 1634.15 1131.61L1003.38 1131.61C931.923 1131.61 873.999 1073.68 873.999 1002.22Z" stroke="#000000" stroke-width="3.16541" stroke-miterlimit="8" fill="#FFFFFF" fill-rule="evenodd" transform="matrix(1.00001 0 0 1 2495.72 471.395)"/><path d="M958.602 410.237 1700.34 410.237 1700.34 540.077 958.602 540.077Z" fill="#ACD78E" transform="matrix(1.00001 0 0 1 2495.72 471.395)"/><text fill="#44546A" font-family="Microsoft YaHei,Microsoft YaHei_MSFontService,sans-serif" font-weight="400" font-size="128" transform="matrix(0.690642 0 0 0.690636 3559.18 978)">异常得分计算</text><path d="M958.602 627.788 1700.34 627.788 1700.34 758.318 958.602 758.318Z" fill="#ACD78E" transform="matrix(1.00001 0 0 1 2495.72 471.395)"/><text fill="#44546A" font-family="Microsoft YaHei,Microsoft YaHei_MSFontService,sans-serif" font-weight="400" font-size="128" transform="matrix(0.690642 0 0 0.690636 3559.18 1197)">异常阈值确定</text><path d="M958.602 846.029 1700.34 846.029 1700.34 975.868 958.602 975.868Z" fill="#ACD78E" transform="matrix(1.00001 0 0 1 2495.72 471.395)"/><text fill="#44546A" font-family="Microsoft YaHei,Microsoft YaHei_MSFontService,sans-serif" font-weight="400" font-size="128" transform="matrix(0.690642 0 0 0.690636 3647.81 1414)">异常检测</text><path d="M1333.04 540.077 1333.04 620.488 1325.91 620.488 1325.91 540.077ZM1345.01 600.916 1329.47 627.556 1313.93 600.916C1312.94 599.217 1313.52 597.036 1315.22 596.045 1316.92 595.054 1319.09 595.628 1320.09 597.327L1332.55 618.693 1326.4 618.693 1338.86 597.327C1339.85 595.628 1342.04 595.054 1343.73 596.045 1345.43 597.036 1346.01 599.217 1345.01 600.916Z" fill="#4874CB" transform="matrix(1.00001 0 0 1 2495.72 471.395)"/><path d="M1333.04 758.318 1333.04 838.729 1325.91 838.729 1325.91 758.318ZM1345.01 819.156 1329.47 845.794 1313.93 819.156C1312.94 817.457 1313.52 815.274 1315.22 814.287 1316.92 813.292 1319.09 813.866 1320.09 815.565L1332.55 836.933 1326.4 836.933 1338.86 815.565C1339.85 813.866 1342.04 813.292 1343.73 814.287 1345.43 815.274 1346.01 817.457 1345.01 819.156Z" fill="#4874CB" transform="matrix(1.00001 0 0 1 2495.72 471.395)"/><text font-family="Microsoft YaHei,Microsoft YaHei_MSFontService,sans-serif" font-weight="700" font-size="147" transform="matrix(0.690642 0 0 0.690636 3521.2 1565)">异常检测模块</text></g></g></g></g><g clip-path="url(#clip12)"><g clip-path="url(#clip13)"><g clip-path="url(#clip14)"><g clip-path="url(#clip15)"><path d="M1574.52 417.334 2357.97 417.334 2357.97 509.383 1574.52 509.383Z" stroke="#4874CB" stroke-width="7.13724" stroke-miterlimit="8" fill="#FFFFFF" transform="matrix(1.00009 0 0 1 852.006 1090.66)"/><path d="M1574.52 412.489 2338.59 412.489 2338.59 504.538 1574.52 504.538Z" stroke="#4874CB" stroke-width="7.13724" stroke-miterlimit="8" fill="#FFFFFF" transform="matrix(1.00009 0 0 1 852.006 1090.66)"/><path d="M1555.14 791.066 2357.97 791.066 2357.97 901.802 1555.14 901.802Z" stroke="#B58B02" stroke-width="7.13724" stroke-miterlimit="8" fill="#FFFFFF" transform="matrix(1.00009 0 0 1 852.006 1090.66)"/><path d="M1555.14 535.683 2357.97 535.683 2357.97 632.576 1555.14 632.576Z" stroke="#F5B7BF" stroke-width="7.13724" stroke-miterlimit="8" fill="#FFFFFF" transform="matrix(1.00009 0 0 1 852.006 1090.66)"/><path d="M1555.14 419.41 2357.97 419.41 2357.97 515.612 1555.14 515.612Z" stroke="#A9E9E4" stroke-width="7.13724" stroke-miterlimit="8" fill="#FFFFFF" transform="matrix(1.00009 0 0 1 852.006 1090.66)"/><path d="M28.7221 550.104C28.7221 462.826 99.475 392.073 186.753 392.073L2367.77 392.073C2455.05 392.073 2525.81 462.826 2525.81 550.104L2525.81 1182.21C2525.81 1269.49 2455.05 1340.24 2367.77 1340.24L186.753 1340.24C99.475 1340.24 28.7221 1269.49 28.7221 1182.21Z" stroke="#000000" stroke-width="3.17211" stroke-miterlimit="8" fill="#FFFFFF" fill-rule="evenodd" transform="matrix(1.00009 0 0 1 852.006 1090.66)"/><text fill="#FFFFFF" font-family="Times New Roman,Times New Roman_MSFontService,sans-serif" font-weight="400" font-size="83" transform="matrix(0.692161 0 0 0.692096 2008.56 1976)">Univariate</text><path d="M92.3949 461.974C93.687 459.528 96.6243 453.99 99.4439 448.581 102.263 443.171 102.498 439.823 106.375 435.187 110.252 430.551 113.659 425.529 118.593 425.529 123.527 425.529 125.877 430.551 130.811 435.187 135.746 439.823 138.095 443.558 143.029 448.581 147.964 453.603 151.136 460.429 155.365 460.043 159.595 459.656 159.829 451.285 164.059 446.649 168.288 442.013 171.342 437.505 176.277 437.119 181.211 436.732 183.561 442.013 188.495 444.717 193.429 447.422 195.779 448.195 200.713 450.513 205.647 452.83 208.115 455.406 213.049 456.179 217.983 456.952 220.685 457.338 225.267 454.247 229.849 451.156 231.141 444.717 235.722 440.854 240.305 436.99 243.007 437.505 247.941 435.187 252.875 432.869 255.225 430.551 260.159 429.392 265.093 428.233 267.443 428.619 272.377 429.392 277.311 430.164 279.661 432.097 284.595 433.255 289.53 434.414 293.407 432.097 296.931 435.187 300.455 438.278 298.223 445.49 302.1 448.581 305.977 451.672 310.793 451.672 316.08 450.513 321.367 449.353 323.012 446.649 328.299 442.785 333.585 438.922 336.992 434.028 342.279 431.323 347.565 428.619 349.563 431.323 354.497 429.392 359.431 427.46 361.899 422.953 366.833 421.793 371.766 420.634 374.116 420.892 379.051 423.596 383.985 426.301 386.334 430.551 391.269 435.187 396.203 439.823 398.553 442.785 403.487 446.649 408.421 450.513 410.771 452.315 415.705 454.247 420.64 456.179 424.046 458.497 427.923 456.179 431.8 453.861 431.095 445.876 434.972 442.785 438.849 439.694 442.256 441.626 447.19 440.854 452.124 440.081 454.474 439.694 459.408 438.922 464.343 438.149 467.397 440.21 471.626 437.119 475.856 434.028 476.208 424.755 480.437 423.596 484.667 422.438 487.722 429.392 492.656 431.323 497.59 433.255 499.939 432.483 504.874 433.255 509.808 434.028 512.158 432.483 517.092 435.187 522.026 437.891 524.376 442.785 529.31 446.649 534.244 450.513 536.594 452.702 541.528 454.247 546.463 455.793 548.812 454.634 553.746 454.247 558.68 453.861 561.03 454.763 565.965 452.444 570.898 450.126 573.366 445.876 578.3 442.785 583.234 439.694 585.584 438.665 590.518 437.119 595.453 435.574 597.802 433.255 602.736 435.187 607.67 437.119 610.02 443.944 614.955 446.649 619.889 449.353 622.238 449.353 627.173 448.581 632.107 447.808 634.456 445.104 639.39 442.785 644.325 440.467 649.377 438.149 651.609 437.119" stroke="url(#stroke16)" stroke-width="3.17211" stroke-miterlimit="8" fill="none" fill-rule="evenodd" transform="matrix(1.00009 0 0 1 852.006 1090.66)"/><path d="M92.3949 528.421C94.5909 525.363 99.5601 518.168 104.414 512.233 109.267 506.298 111.348 503.24 116.548 498.923 121.749 494.606 125.101 494.606 130.301 490.828 135.501 487.051 137.466 485.073 142.32 480.217 147.174 475.36 149.832 465.647 154.339 466.726 158.846 467.805 160.117 480.756 164.624 485.612 169.132 490.469 171.789 489.21 176.644 490.828 181.497 492.447 183.808 494.066 188.663 493.527 193.516 492.987 195.828 491.907 200.682 488.131 205.535 484.353 207.962 478.598 212.816 474.82 217.67 471.043 219.981 469.964 224.835 469.424 229.689 468.885 232.347 467.805 236.854 472.123 241.361 476.439 243.673 483.274 247.139 490.828 250.607 498.383 250.26 503.06 254.073 509.535 257.888 516.01 261.239 523.025 266.092 523.025 270.947 523.025 273.258 515.471 278.112 509.535 282.966 503.599 285.277 499.462 290.131 493.527 294.985 487.591 297.296 482.914 302.15 480.217 307.004 477.518 309.315 480.217 314.169 480.217 319.022 480.217 321.334 479.137 326.188 480.217 331.041 481.296 333.469 483.454 338.322 485.612 343.176 487.771 345.488 489.75 350.341 490.828 355.195 491.907 357.507 490.828 362.36 490.828 367.214 490.828 369.525 490.828 374.379 490.828 379.233 490.828 382.238 487.051 386.398 490.828 390.559 494.606 391.484 501.98 394.95 509.535 398.418 517.089 399.457 523.565 403.618 528.421 407.778 533.278 411.476 536.335 415.637 533.637 419.797 530.94 420.028 522.486 424.189 514.931 428.35 507.377 431.469 503.24 436.324 496.225 441.177 489.21 443.835 487.231 448.343 480.217 452.85 473.201 454.121 463.129 458.628 461.51 463.135 459.891 465.793 467.266 470.647 472.123 475.501 476.979 479.893 479.137 482.666 485.612 485.44 492.087 481.626 498.923 484.4 504.319 487.173 509.715 491.565 511.154 496.419 512.233 501.272 513.312 504.971 513.852 508.438 509.535 511.905 505.218 510.171 496.765 513.638 490.828 517.105 484.893 520.803 482.914 525.657 480.217 530.511 477.518 532.822 479.677 537.677 477.518 542.53 475.36 545.881 467.266 549.695 469.424 553.509 471.583 555.243 480.576 556.63 488.131 558.016 495.685 556.283 499.462 556.63 507.017 556.976 514.572 555.589 524.104 558.363 525.723 561.137 527.342 566.568 520.867 570.382 514.931 574.196 508.995 574.427 503.779 577.2 496.225 579.974 488.671 580.321 481.296 584.134 477.518 587.948 473.741 591.299 475.899 596.153 477.518 601.008 479.137 603.318 480.217 608.172 485.612 613.026 491.008 615.337 502.7 620.192 504.319 625.045 505.938 627.703 499.462 632.211 493.527 636.718 487.591 640.762 478.418 642.611 474.82" stroke="url(#stroke17)" stroke-width="3.17211" stroke-miterlimit="8" fill="none" fill-rule="evenodd" transform="matrix(1.00009 0 0 1 852.006 1090.66)"/><path d="M92.3949 637.749C94.5992 634.811 100.052 628.16 104.577 621.663 109.101 615.166 110.726 612.073 114.903 605.577 119.079 599.08 121.4 589.335 125.229 589.335 129.057 589.335 130.681 598.616 133.814 605.577 136.946 612.537 137.99 617.023 140.775 623.983 143.559 630.944 145.532 640.07 147.62 640.07 149.708 640.07 150.056 630.48 151.101 623.983 152.145 617.487 151.449 614.238 152.841 607.742 154.233 601.246 154.581 591.656 158.062 591.656 161.542 591.656 166.299 601.246 170.128 607.742 173.956 614.238 174.188 617.487 176.973 623.983 179.757 630.48 181.15 640.534 183.934 640.07 186.719 639.606 187.995 628.624 190.779 621.663 193.563 614.703 194.26 612.073 197.74 605.577 201.221 599.08 204.934 588.872 208.066 589.335 211.199 589.8 210.851 600.782 213.287 607.742 215.724 614.703 216.304 623.519 220.132 623.983 223.961 624.447 228.37 616.094 232.198 610.062 236.027 604.03 235.331 593.511 239.159 593.976 242.988 594.439 247.745 605.422 251.225 612.382 254.706 619.343 253.313 628.469 256.447 628.469 259.579 628.469 263.291 618.879 266.772 612.382 270.253 605.886 270.137 596.296 273.618 596.296 277.098 596.296 280.927 605.886 284.059 612.382 287.192 618.879 287.075 621.508 289.164 628.469 291.252 635.43 292.297 639.915 294.385 646.875 296.473 653.836 297.517 662.962 299.606 662.962 301.694 662.962 302.274 653.372 304.711 646.875 307.147 640.379 308.191 637.286 311.672 630.789 315.152 624.292 318.168 621.199 321.997 614.703 325.826 608.206 326.406 601.864 330.583 598.616 334.759 595.368 337.776 598.616 342.649 598.616 347.522 598.616 349.958 598.616 354.831 598.616 359.704 598.616 362.372 595.368 366.897 598.616 371.422 601.864 373.742 608.206 377.223 614.703 380.704 621.199 380.935 624.292 384.068 630.789 387.2 637.286 389.984 646.875 392.77 646.875 395.554 646.875 396.482 637.286 397.874 630.789 399.266 624.292 397.526 614.703 399.614 614.703 401.702 614.703 404.487 624.292 408.316 630.789 412.145 637.286 415.509 639.915 418.641 646.875 421.774 653.836 421.774 658.322 423.863 665.282 425.951 672.243 427.575 681.369 428.968 681.369 430.359 681.369 430.011 671.779 430.707 665.282 431.404 658.786 432.1 655.692 432.448 649.196 432.796 642.699 432.448 639.606 432.448 633.109 432.448 626.613 430.011 623.055 432.448 617.023 434.884 610.99 439.641 605.577 444.514 603.256 449.386 600.936 451.707 604.649 456.58 605.577 461.452 606.505 464.121 604.03 468.646 607.742 473.171 611.455 474.563 621.199 479.088 623.983 483.613 626.767 486.629 625.375 491.154 621.663 495.679 617.951 496.955 607.897 501.48 605.577 506.004 603.256 508.673 605.886 513.546 610.062 518.418 614.238 520.739 622.901 525.612 626.149 530.484 629.397 532.805 627.077 537.678 626.149 542.55 625.22 544.987 624.447 549.859 621.663 554.733 618.879 557.053 615.631 561.926 612.382 566.799 609.134 569.119 606.969 573.992 605.577 578.865 604.184 581.185 602.328 586.057 605.577 590.931 608.825 593.947 615.166 598.123 621.663 602.3 628.16 602.532 633.573 606.709 637.749 610.886 641.926 614.018 644.246 618.891 642.39 623.764 640.534 626.084 630.789 630.957 628.469 635.83 626.149 638.846 627.077 643.023 630.789 647.2 634.501 650.101 643.628 651.609 646.875" stroke="url(#stroke18)" stroke-width="3.17211" stroke-miterlimit="8" fill="none" fill-rule="evenodd" transform="matrix(1.00009 0 0 1 852.006 1090.66)"/><text font-family="Microsoft YaHei,Microsoft YaHei_MSFontService,sans-serif" font-weight="400" font-size="55" transform="matrix(0.692161 0 0 0.692096 1263.62 1653)">•<tspan font-size="55" x="0" y="67.9096">•</tspan><tspan font-size="55" x="0" y="34.6773">•</tspan><tspan font-size="128" x="470.307" y="56.3505">单变量注</tspan><tspan font-size="128" x="470.307" y="210.953">意力机制</tspan></text><path d="M1215.67 514.574C1217.36 511.422 1221.22 504.288 1224.91 497.321 1228.62 490.354 1228.92 486.04 1234.01 480.068 1239.09 474.096 1243.57 467.626 1250.04 467.626 1256.51 467.626 1259.59 474.096 1266.07 480.068 1272.54 486.04 1275.62 490.851 1282.09 497.321 1288.57 503.791 1292.73 512.583 1298.28 512.086 1303.83 511.588 1304.13 500.804 1309.68 494.832 1315.23 488.86 1319.24 483.054 1325.71 482.557 1332.18 482.059 1335.27 488.86 1341.74 492.344 1348.21 495.828 1351.3 496.823 1357.77 499.809 1364.24 502.796 1367.48 506.113 1373.95 507.109 1380.42 508.104 1383.97 508.602 1389.98 504.62 1395.99 500.639 1397.69 492.344 1403.7 487.367 1409.71 482.39 1413.25 483.054 1419.72 480.068 1426.2 477.082 1429.28 474.096 1435.75 472.603 1442.23 471.11 1445.31 471.608 1451.78 472.603 1458.25 473.598 1461.34 476.087 1467.81 477.58 1474.28 479.073 1479.37 476.087 1483.99 480.068 1488.62 484.049 1485.69 493.339 1490.78 497.321 1495.86 501.302 1502.18 501.302 1509.12 499.809 1516.05 498.316 1518.21 494.832 1525.15 489.855 1532.08 484.879 1536.55 478.575 1543.49 475.092 1550.42 471.608 1553.04 475.092 1559.51 472.603 1565.99 470.115 1569.22 464.308 1575.7 462.815 1582.17 461.322 1585.25 461.654 1591.72 465.138 1598.2 468.621 1601.28 474.096 1607.75 480.068 1614.22 486.04 1617.31 489.855 1623.78 494.832 1630.25 499.809 1633.34 502.132 1639.81 504.62 1646.28 507.109 1650.75 510.094 1655.84 507.109 1660.93 504.122 1660 493.837 1665.09 489.855 1670.17 485.874 1674.64 488.363 1681.12 487.367 1687.59 486.372 1690.67 485.874 1697.14 484.879 1703.62 483.883 1707.62 486.538 1713.17 482.557 1718.72 478.575 1719.19 466.631 1724.73 465.138 1730.28 463.645 1734.29 472.603 1740.76 475.092 1747.23 477.58 1750.32 476.584 1756.79 477.58 1763.26 478.575 1766.35 476.584 1772.82 480.068 1779.29 483.552 1782.38 489.855 1788.85 494.832 1795.32 499.809 1798.41 502.629 1804.88 504.62 1811.35 506.611 1814.43 505.118 1820.91 504.62 1827.38 504.122 1830.46 505.284 1836.93 502.298 1843.41 499.312 1846.64 493.837 1853.12 489.855 1859.59 485.874 1862.67 484.547 1869.14 482.557 1875.62 480.566 1878.7 477.58 1885.17 480.068 1891.64 482.557 1894.73 491.349 1901.2 494.832 1907.67 498.316 1910.76 498.316 1917.23 497.321 1923.7 496.326 1926.79 492.842 1933.26 489.855 1939.73 486.87 1946.36 483.883 1949.29 482.557" stroke="url(#stroke19)" stroke-width="3.17211" stroke-miterlimit="8" fill="none" fill-rule="evenodd" transform="matrix(1.00009 0 0 1 852.006 1090.66)"/><text font-family="Times New Roman,Times New Roman_MSFontService,sans-serif" font-weight="400" font-size="128" transform="matrix(0.692161 0 0 0.692096 1847.03 2046)">Time<tspan font-size="128" x="265" y="0">2</tspan><tspan font-size="128" x="329" y="0">vec</tspan><tspan font-family="Microsoft YaHei,Microsoft YaHei_MSFontService,sans-serif" font-size="128" x="507.673" y="0">编码</tspan></text><path d="M1257.54 1057.52 1944.1 1057.52 1944.1 1188.33 1257.54 1188.33Z" fill="#ACD78E" transform="matrix(1.00009 0 0 1 852.006 1090.66)"/><text fill="#44546A" font-family="Times New Roman,Times New Roman_MSFontService,sans-serif" font-weight="400" font-size="128" transform="matrix(0.692161 0 0 0.692096 2147.04 2245)">Uaformer<tspan font-family="Microsoft YaHei,Microsoft YaHei_MSFontService,sans-serif" font-size="128" x="499.01" y="0">网络层</tspan></text><path d="M700.768 489.154 1143.79 491.79C1145.99 491.802 1147.75 493.589 1147.74 495.778 1147.72 497.968 1145.94 499.733 1143.74 499.72L700.727 497.084C698.533 497.071 696.768 495.285 696.782 493.095 696.796 490.905 698.581 489.141 700.768 489.154ZM1122.08 478.322 1151.64 495.801 1121.87 512.928C1119.98 514.02 1117.56 513.367 1116.46 511.468 1115.37 509.57 1116.02 507.146 1117.92 506.054L1141.79 492.318 1141.75 499.168 1118.05 485.148C1116.16 484.033 1115.53 481.602 1116.65 479.717 1117.76 477.832 1120.19 477.207 1122.08 478.322Z" fill="#4874CB" transform="matrix(1.00009 0 0 1 852.006 1090.66)"/><path d="M1585.06 828.73 1587.96 1025.7C1587.99 1027.89 1586.24 1029.69 1584.05 1029.72 1581.86 1029.76 1580.06 1028.01 1580.03 1025.82L1577.13 828.841C1577.09 826.654 1578.84 824.854 1581.04 824.82 1583.23 824.785 1585.03 826.536 1585.06 828.73ZM1600.97 1003.71 1584.1 1033.63 1566.37 1004.22C1565.24 1002.35 1565.84 999.913 1567.72 998.778 1569.59 997.65 1572.03 998.252 1573.16 1000.13L1587.39 1023.71 1580.54 1023.81 1594.06 999.823C1595.14 997.913 1597.56 997.242 1599.47 998.314 1601.37 999.387 1602.05 1001.81 1600.97 1003.71Z" fill="#4874CB" transform="matrix(1.00009 0 0 1 852.006 1090.66)"/><path d="M1951.37 1125.19 2518.42 1125.19C2520.61 1125.19 2522.39 1126.97 2522.39 1129.16 2522.39 1131.34 2520.61 1133.12 2518.42 1133.12L1951.37 1133.12C1949.18 1133.12 1947.4 1131.34 1947.4 1129.16 1947.4 1126.97 1949.18 1125.19 1951.37 1125.19ZM2496.63 1111.85 2526.29 1129.16 2496.63 1146.46C2494.74 1147.56 2492.31 1146.92 2491.2 1145.03 2490.1 1143.14 2490.74 1140.71 2492.63 1139.61L2516.42 1125.73 2516.42 1132.58 2492.63 1118.7C2490.74 1117.6 2490.1 1115.17 2491.2 1113.28 2492.31 1111.39 2494.74 1110.75 2496.63 1111.85Z" fill="#4874CB" transform="matrix(1.00009 0 0 1 852.006 1090.66)"/><text fill="#E54C5E" font-family="Microsoft YaHei,Microsoft YaHei_MSFontService,sans-serif" font-weight="400" font-size="128" transform="matrix(0.692161 0 0 0.692096 2818.97 2173)">时间维度特征<tspan fill="#000000" font-weight="700" font-size="147" x="-1549.94" y="330.879">时间维度特征学习模块</tspan></text><path d="M1215.32 718.396 1580.75 718.396 1580.75 810.445 1215.32 810.445Z" stroke="#E54C5E" stroke-width="7.13724" stroke-miterlimit="8" fill="#FFFFFF" transform="matrix(1.00009 0 0 1 852.006 1090.66)"/><path d="M1580.75 718.396 1946.17 718.396 1946.17 810.445 1580.75 810.445Z" stroke="#E54C5E" stroke-width="7.13724" stroke-miterlimit="8" fill="#FFFFFF" transform="matrix(1.00009 0 0 1 852.006 1090.66)"/><path d="M1218.44 785.183C1220.12 781.91 1223.97 774.49 1227.65 767.251 1231.34 760.005 1231.64 755.527 1236.71 749.319 1241.77 743.111 1246.22 736.384 1252.67 736.384 1259.12 736.384 1262.2 743.111 1268.64 749.319 1275.09 755.527 1278.16 760.524 1284.61 767.251 1291.06 773.971 1295.2 783.114 1300.73 782.595 1306.26 782.083 1306.57 770.871 1312.1 764.663 1317.62 758.455 1321.61 752.419 1328.06 751.9 1334.51 751.388 1337.58 758.455 1344.03 762.074 1350.48 765.701 1353.55 766.732 1360 769.833 1366.45 772.94 1369.67 776.387 1376.12 777.425 1382.57 778.456 1386.1 778.975 1392.09 774.836 1398.08 770.698 1399.76 762.074 1405.76 756.904 1411.75 751.727 1415.27 752.419 1421.73 749.319 1428.18 746.211 1431.24 743.111 1437.69 741.554 1444.14 740.003 1447.21 740.522 1453.66 741.554 1460.11 742.592 1463.18 745.18 1469.62 746.73 1476.08 748.281 1481.14 745.18 1485.75 749.319 1490.35 753.458 1487.44 763.112 1492.51 767.251 1497.57 771.39 1503.87 771.39 1510.78 769.833 1517.68 768.282 1519.84 764.663 1526.74 759.493 1533.66 754.316 1538.11 747.762 1545.02 744.142 1551.93 740.522 1554.54 744.142 1560.98 741.554 1567.43 738.972 1570.66 732.937 1577.11 731.38 1583.56 729.829 1586.62 730.176 1593.07 733.795 1599.52 737.415 1602.6 743.111 1609.04 749.319 1615.49 755.527 1618.56 759.493 1625.01 764.663 1631.46 769.833 1634.53 772.248 1640.98 774.836 1647.43 777.425 1651.88 780.526 1656.95 777.425 1662.01 774.317 1661.09 763.631 1666.16 759.493 1671.23 755.354 1675.68 757.935 1682.13 756.904 1688.58 755.866 1691.65 755.354 1698.1 754.316 1704.54 753.285 1708.54 756.039 1714.07 751.9 1719.59 747.762 1720.05 735.345 1725.58 733.795 1731.11 732.245 1735.1 741.554 1741.55 744.142 1748 746.73 1751.07 745.692 1757.52 746.73 1763.97 747.762 1767.04 745.692 1773.48 749.319 1779.93 752.939 1783.01 759.493 1789.46 764.663 1795.9 769.833 1798.97 772.767 1805.42 774.836 1811.87 776.906 1814.94 775.356 1821.39 774.836 1827.84 774.317 1830.91 775.529 1837.36 772.421 1843.81 769.32 1847.03 763.631 1853.48 759.493 1859.93 755.354 1863 753.97 1869.45 751.9 1875.9 749.831 1878.97 746.73 1885.42 749.319 1891.87 751.9 1894.94 761.043 1901.38 764.663 1907.83 768.282 1910.91 768.282 1917.36 767.251 1923.8 766.213 1926.87 762.593 1933.32 759.493 1939.77 756.385 1946.37 753.285 1949.29 751.9" stroke="url(#stroke20)" stroke-width="3.17211" stroke-miterlimit="8" fill="none" fill-rule="evenodd" transform="matrix(1.00009 0 0 1 852.006 1090.66)"/><path d="M1398.03 718.396 1398.03 810.549" stroke="#E54C5E" stroke-width="7.13724" stroke-miterlimit="8" fill="none" fill-rule="evenodd" transform="matrix(1.00009 0 0 1 852.006 1090.66)"/><path d="M1763.46 718.396 1763.46 810.549" stroke="#E54C5E" stroke-width="7.13724" stroke-miterlimit="8" fill="none" fill-rule="evenodd" transform="matrix(1.00009 0 0 1 852.006 1090.66)"/><path d="M1581.6 514.56 1582.21 699.412C1582.22 701.606 1580.44 703.384 1578.26 703.391 1576.06 703.398 1574.28 701.633 1574.28 699.44L1573.67 514.587C1573.66 512.397 1575.43 510.616 1577.62 510.609 1579.81 510.601 1581.59 512.371 1581.6 514.56ZM1595.48 677.578 1578.27 707.295 1560.86 677.692C1559.76 675.804 1560.39 673.374 1562.28 672.265 1564.17 671.156 1566.59 671.786 1567.7 673.674L1581.66 697.419 1574.81 697.439 1588.61 673.606C1589.71 671.71 1592.13 671.063 1594.03 672.161 1595.93 673.258 1596.57 675.683 1595.48 677.578Z" fill="#4874CB" transform="matrix(1.00009 0 0 1 852.006 1090.66)"/><text font-family="Microsoft YaHei,Microsoft YaHei_MSFontService,sans-serif" font-weight="400" font-size="128" transform="matrix(0.692161 0 0 0.692096 2486.9 1738)">单变量<tspan font-size="128" x="385" y="0">序列分段划分</tspan></text></g></g></g></g><g clip-path="url(#clip21)"><g clip-path="url(#clip22)"><g clip-path="url(#clip23)"><g clip-path="url(#clip24)"><path d="M287.064 421.25C287.064 333.008 358.598 261.475 446.84 261.475L2625.89 261.475C2714.14 261.475 2785.67 333.008 2785.67 421.25L2785.67 1060.33C2785.67 1148.57 2714.14 1220.11 2625.89 1220.11L446.84 1220.11C358.598 1220.11 287.064 1148.57 287.064 1060.33Z" stroke="#000000" stroke-width="3.00734" stroke-miterlimit="8" fill="#FFFFFF" fill-rule="evenodd" transform="matrix(1.00011 0 0 1 593.545 -232.834)"/><text fill="#FFFFFF" font-family="Arial,Arial_MSFontService,sans-serif" font-weight="400" font-size="83" transform="matrix(0.656218 0 0 0.656147 1932.58 526)">Spatial Features<tspan fill="#000000" font-family="Microsoft YaHei,Microsoft YaHei_MSFontService,sans-serif" font-size="83" x="-972.152" y="228.607">•</tspan><tspan fill="#000000" font-family="Microsoft YaHei,Microsoft YaHei_MSFontService,sans-serif" font-size="83" x="-972.152" y="301.762">•</tspan><tspan fill="#000000" font-family="Microsoft YaHei,Microsoft YaHei_MSFontService,sans-serif" font-size="83" x="-972.152" y="382.536">•</tspan><tspan fill="#000000" font-family="Microsoft YaHei,Microsoft YaHei_MSFontService,sans-serif" font-weight="700" font-size="147" x="-356.537" y="637.052">空间维度特征学习模块</tspan><tspan fill="#000000" font-family="Times New Roman,Times New Roman_MSFontService,sans-serif" font-size="128" x="-1483.42" y="608.095">N</tspan><tspan fill="#000000" font-family="Microsoft YaHei,Microsoft YaHei_MSFontService,sans-serif" font-size="128" x="-1390.61" y="608.095">维嵌入向量</tspan></text><path d="M398.609 764.083 776.55 764.083 776.55 811.326 398.609 811.326Z" stroke="#2E54A1" stroke-width="3.00734" stroke-miterlimit="8" fill="#A9E9E4" transform="matrix(1.00011 0 0 1 593.545 -232.834)"/><path d="M398.609 811.326 776.55 811.326 776.55 857.913 398.609 857.913Z" stroke="#2E54A1" stroke-width="3.00734" stroke-miterlimit="8" fill="#F5B7BF" transform="matrix(1.00011 0 0 1 593.545 -232.834)"/><path d="M398.609 987.173 776.55 987.173 776.55 1034.42 398.609 1034.42Z" stroke="#2E54A1" stroke-width="3.00734" stroke-miterlimit="8" fill="#B58B02" transform="matrix(1.00011 0 0 1 593.545 -232.834)"/><path d="M398.609 859.881 776.55 859.881 776.55 989.142 398.609 989.142Z" stroke="#2E54A1" stroke-width="3.00734" stroke-miterlimit="8" fill="#FFFFFF" transform="matrix(1.00011 0 0 1 593.545 -232.834)"/><text font-family="Microsoft YaHei,Microsoft YaHei_MSFontService,sans-serif" font-weight="400" font-size="83" transform="matrix(0.656218 0 0 0.656147 1168.76 676)">•<tspan font-size="83" x="0" y="45.7215">•</tspan><tspan font-size="83" x="0" y="102.111">•</tspan></text><path d="M1054.1 413.045C1054.1 400.724 1063.65 390.736 1075.43 390.736 1087.2 390.736 1096.75 400.724 1096.75 413.045 1096.75 425.366 1087.2 435.354 1075.43 435.354 1063.65 435.354 1054.1 425.366 1054.1 413.045Z" stroke="#2E54A1" stroke-width="3.00734" stroke-miterlimit="8" fill="#A9E9E4" fill-rule="evenodd" transform="matrix(1.00011 0 0 1 593.545 -232.834)"/><path d="M932.057 525.902C932.057 513.581 941.604 503.593 953.382 503.593 965.16 503.593 974.707 513.581 974.707 525.902 974.707 538.223 965.16 548.211 953.382 548.211 941.604 548.211 932.057 538.223 932.057 525.902Z" stroke="#2E54A1" stroke-width="3.00734" stroke-miterlimit="8" fill="#F5B7BF" fill-rule="evenodd" transform="matrix(1.00011 0 0 1 593.545 -232.834)"/><path d="M1010.79 642.696C1010.79 630.375 1020.49 620.387 1032.45 620.387 1044.41 620.387 1054.1 630.375 1054.1 642.696 1054.1 655.017 1044.41 665.005 1032.45 665.005 1020.49 665.005 1010.79 655.017 1010.79 642.696Z" stroke="#2E54A1" stroke-width="3.00734" stroke-miterlimit="8" fill="#E54C5E" fill-rule="evenodd" transform="matrix(1.00011 0 0 1 593.545 -232.834)"/><path d="M1123.65 550.836C1123.65 538.514 1133.34 528.527 1145.3 528.527 1157.27 528.527 1166.96 538.514 1166.96 550.836 1166.96 563.157 1157.27 573.145 1145.3 573.145 1133.34 573.145 1123.65 563.157 1123.65 550.836Z" stroke="#2E54A1" stroke-width="3.00734" stroke-miterlimit="8" fill="#FED961" fill-rule="evenodd" transform="matrix(1.00011 0 0 1 593.545 -232.834)"/><path d="M0 0 91.7241 81.048" stroke="#000000" stroke-width="7.51833" stroke-linecap="round" stroke-linejoin="round" stroke-miterlimit="10" fill="none" fill-rule="evenodd" transform="matrix(-1.00011 0 0 1 1653.53 196.614)"/><path d="M970.77 545.586 1017.84 626.183" stroke="#000000" stroke-width="7.51833" stroke-linecap="round" stroke-linejoin="round" stroke-miterlimit="10" fill="none" fill-rule="evenodd" transform="matrix(1.00011 0 0 1 593.545 -232.834)"/><path d="M0 0 41.5013 182.245" stroke="#000000" stroke-width="7.51833" stroke-linecap="round" stroke-linejoin="round" stroke-miterlimit="10" fill="none" fill-rule="evenodd" transform="matrix(-1.00011 0 0 1 1667.61 205.144)"/><path d="M1090.19 429.448 1131.84 527.638" stroke="#000000" stroke-width="7.51833" stroke-linecap="round" stroke-linejoin="round" stroke-miterlimit="10" fill="none" fill-rule="evenodd" transform="matrix(1.00011 0 0 1 593.545 -232.834)"/><path d="M0 0 78.6419 66.011" stroke="#000000" stroke-width="7.51833" stroke-linecap="round" stroke-linejoin="round" stroke-miterlimit="10" fill="none" fill-rule="evenodd" transform="matrix(1.00011 0 0 -1 1645.13 399.76)"/><text font-family="Microsoft YaHei,Microsoft YaHei_MSFontService,sans-serif" font-weight="400" font-size="128" transform="matrix(0.656218 0 0 0.656147 1006 162)">输入<tspan font-family="Times New Roman,Times New Roman_MSFontService,sans-serif" font-size="128" x="256.667" y="0">N</tspan><tspan font-size="128" x="348.667" y="0">维</tspan><tspan font-size="128" x="-17.7604" y="153.929">时间序列</tspan></text><path d="M2019.95 508.186C2019.95 495.865 2029.5 485.877 2041.27 485.877 2053.05 485.877 2062.6 495.865 2062.6 508.186 2062.6 520.507 2053.05 530.495 2041.27 530.495 2029.5 530.495 2019.95 520.507 2019.95 508.186Z" stroke="#2E54A1" stroke-width="3.00734" stroke-miterlimit="8" fill="#A9E9E4" fill-rule="evenodd" transform="matrix(1.00011 0 0 1 593.545 -232.834)"/><path d="M1886.1 388.767C1886.1 376.446 1895.79 366.458 1907.75 366.458 1919.71 366.458 1929.4 376.446 1929.4 388.767 1929.4 401.088 1919.71 411.076 1907.75 411.076 1895.79 411.076 1886.1 401.088 1886.1 388.767Z" stroke="#2E54A1" stroke-width="3.00734" stroke-miterlimit="8" fill="#F5B7BF" fill-rule="evenodd" transform="matrix(1.00011 0 0 1 593.545 -232.834)"/><path d="M1886.1 623.668C1886.1 611.347 1895.79 601.359 1907.75 601.359 1919.71 601.359 1929.4 611.347 1929.4 623.668 1929.4 635.989 1919.71 645.977 1907.75 645.977 1895.79 645.977 1886.1 635.989 1886.1 623.668Z" stroke="#2E54A1" stroke-width="3.00734" stroke-miterlimit="8" fill="#E54C5E" fill-rule="evenodd" transform="matrix(1.00011 0 0 1 593.545 -232.834)"/><path d="M2183.33 508.186C2183.33 495.865 2193.02 485.877 2204.98 485.877 2216.94 485.877 2226.64 495.865 2226.64 508.186 2226.64 520.507 2216.94 530.495 2204.98 530.495 2193.02 530.495 2183.33 520.507 2183.33 508.186Z" stroke="#2E54A1" stroke-width="3.00734" stroke-miterlimit="8" fill="#FED961" fill-rule="evenodd" transform="matrix(1.00011 0 0 1 593.545 -232.834)"/><path d="M1923.81 403.367 2024.99 489.107 2023.05 491.401 1921.87 405.662ZM2018.48 470.057 2026.29 492.183 2003.19 488.099C2002.37 487.955 2001.83 487.175 2001.97 486.357 2002.12 485.54 2002.9 484.994 2003.71 485.138L2024.28 488.773 2022.6 490.755 2015.64 471.059C2015.36 470.276 2015.78 469.418 2016.56 469.141 2017.34 468.864 2018.2 469.275 2018.48 470.057Z" transform="matrix(1.00011 0 0 1 593.545 -232.834)"/><path d="M0.960337-1.15706 110.994 90.1691 109.073 92.4833-0.960337 1.15706ZM104.283 71.1874 112.33 93.2319 89.1796 89.385C88.3607 89.2485 87.8069 88.4742 87.9428 87.6547 88.0792 86.8358 88.8535 86.282 89.673 86.4179L110.28 89.843 108.621 91.8416 101.459 72.2182C101.174 71.438 101.576 70.5745 102.356 70.2904 103.136 70.0057 103.999 70.4072 104.283 71.1874Z" transform="matrix(1.00011 0 0 -1 2523.15 390.888)"/><path d="M0.0191884-1.50355 12.0476-1.35004 12.0092 1.65705-0.0191884 1.50355ZM21.0689-1.23491 33.0972-1.0814 33.0589 1.92569 21.0305 1.77219ZM42.1185-0.966275 54.1469-0.812763 54.1085 2.19433 42.0802 2.04082ZM63.1682-0.697635 75.1964-0.544128 75.1584 2.46297 63.1298 2.30946ZM84.2178-0.428998 96.2463-0.275491 96.2076 2.73161 84.1797 2.5781ZM105.268-0.16036 117.296-0.0068528 117.257 3.00025 105.229 2.84673ZM126.318 0.108277 138.345 0.261785 138.307 3.26888 126.279 3.11537ZM147.367 0.376915 159.395 0.530422 159.357 3.53752 147.329 3.38401ZM144.842-9.97705 164.959 2.10523 144.54 13.6701C143.817 14.0794 142.9 13.8253 142.49 13.1027 142.081 12.3801 142.335 11.4626 143.058 11.0533L161.234 0.758742 161.202 3.35621 143.293-7.39891C142.581-7.82646 142.35-8.75018 142.778-9.4621 143.206-10.174 144.129-10.4046 144.842-9.97705Z" transform="matrix(1.00011 0 0 -1 2449 279.425)"/><path d="M2062.62 506.682 2179.03 508.002 2179 511.009 2062.58 509.689ZM2161.86 497.486 2182 509.54 2161.59 521.133C2160.87 521.544 2159.95 521.291 2159.54 520.569 2159.13 519.847 2159.39 518.929 2160.11 518.518L2178.27 508.198 2178.24 510.795 2160.32 500.066C2159.6 499.64 2159.37 498.716 2159.8 498.004 2160.23 497.291 2161.15 497.059 2161.86 497.486Z" transform="matrix(1.00011 0 0 1 593.545 -232.834)"/><path d="M2062.89 506.78 2068.18 506.534 2068.06 506.544 2073.27 505.888 2073.15 505.907 2078.31 504.84 2078.21 504.867 2083.25 503.432 2083.15 503.465 2087.98 501.702 2087.88 501.747 2092.55 499.614 2092.47 499.657 2096.9 497.279 2096.8 497.337 2100.9 494.713 2100.79 494.784 2104.61 491.872 2104.51 491.952 2107.92 488.876 2107.82 488.971 2110.81 485.731 2110.72 485.843 2113.31 482.439 2113.2 482.592 2115.25 479.066 2115.17 479.239 2116.68 475.63 2116.61 475.836 2117.56 472.186 2117.52 472.429 2117.85 468.738 2117.84 468.955 2117.64 465.264 2117.66 465.447 2117 461.797 2117.04 461.957 2115.97 458.348 2116.02 458.475 2114.62 454.948 2114.68 455.087 2112.92 451.683 2112.99 451.807 2110.9 448.568 2110.97 448.662 2108.63 445.586 2108.72 445.691 2106.09 442.821 2106.18 442.908 2103.31 440.242 2103.4 440.323 2100.37 437.945 2100.46 438.013 2097.26 435.881 2097.4 435.961 2094.04 434.198 2094.16 434.254 2090.71 432.818 2090.86 432.871 2087.3 431.805 2087.45 431.843 2083.84 431.187 2084.02 431.208 2080.37 430.962 2080.6 430.959 2076.95 431.288 2077.2 431.245 2073.59 432.188 2073.8 432.114 2070.28 433.632 2070.44 433.547 2066.96 435.597 2067.11 435.493 2063.75 438.077 2063.86 437.982 2060.66 440.976 2060.75 440.879 2057.72 444.283 2057.8 444.186 2054.93 448 2054.99 447.906 2052.37 452.007 2052.44 451.898 2050.09 456.327 2050.14 456.24 2048.05 460.915 2048.08 460.815 2046.32 465.655 2046.36 465.54 2044.97 470.585 2044.99 470.488 2043.92 475.655 2043.94 475.539 2043.29 480.747 2043.29 480.617 2043.2 482.933 2040.2 482.816 2040.3 480.436 2040.97 475.105 2042.05 469.832 2043.48 464.681 2045.28 459.735 2047.42 454.967 2049.8 450.439 2052.49 446.237 2055.43 442.328 2058.56 438.827 2061.86 435.737 2065.35 433.052 2069 430.907 2072.72 429.307 2076.55 428.303 2080.45 427.954 2084.3 428.213 2088.08 428.9 2091.8 430.012 2095.37 431.503 2098.87 433.334 2102.18 435.543 2105.31 437.995 2108.27 440.746 2110.98 443.712 2113.4 446.888 2115.56 450.236 2117.39 453.772 2118.84 457.432 2119.95 461.184 2120.63 465.006 2120.85 468.897 2120.5 472.819 2119.5 476.694 2117.9 480.493 2115.75 484.183 2113.08 487.719 2109.99 491.062 2106.48 494.224 2102.57 497.212 2098.37 499.901 2093.84 502.33 2089.07 504.507 2084.13 506.309 2078.98 507.775 2073.7 508.864 2068.37 509.535 2063.03 509.784ZM2054.19 466.059 2041.59 485.857 2030.56 465.143C2030.17 464.41 2030.45 463.5 2031.18 463.109 2031.91 462.719 2032.82 462.996 2033.21 463.729L2043.03 482.168 2040.43 482.067 2051.65 464.445C2052.1 463.744 2053.03 463.537 2053.73 463.983 2054.43 464.429 2054.63 465.359 2054.19 466.059Z" transform="matrix(1.00011 0 0 1 593.545 -232.834)"/><text font-family="Microsoft YaHei,Microsoft YaHei_MSFontService,sans-serif" font-weight="400" font-size="128" transform="matrix(0.656218 0 0 0.656147 2619.51 141)">图注意力网络</text><path d="M312.654 522.799 903.219 522.799C905.299 522.799 906.979 524.482 906.979 526.559 906.979 528.635 905.299 530.318 903.219 530.318L312.654 530.317C310.578 530.317 308.895 528.634 308.895 526.558 308.895 524.482 310.578 522.799 312.654 522.799ZM882.557 510.154 910.68 526.559 882.557 542.962C880.766 544.009 878.463 543.403 877.42 541.609 876.37 539.816 876.98 537.514 878.771 536.469L901.33 523.312 901.33 529.805 878.771 516.648C876.98 515.602 876.37 513.301 877.42 511.507 878.463 509.714 880.766 509.108 882.557 510.154Z" fill="#4874CB" transform="matrix(1.00011 0 0 1 593.545 -232.834)"/><path d="M3.759-0.0369253 5.94138 222.13C5.96177 224.206 4.29535 225.906 2.21931 225.926 0.143276 225.946-1.55622 224.28-1.57661 222.204L-3.759 0.0369253C-3.77939-2.03911-2.11296-3.7386-0.0369253-3.759 2.03911-3.77939 3.7386-2.11296 3.759-0.0369253ZM18.3829 201.347 2.25568 229.628-14.424 201.669C-15.4876 199.886-14.9045 197.578-13.1216 196.515-11.3386 195.451-9.03095 196.034-7.96733 197.817L5.41073 220.242-1.08315 220.305 11.8518 197.622C12.8802 195.819 15.176 195.191 16.9794 196.219 18.783 197.248 19.4113 199.543 18.3829 201.347Z" fill="#4874CB" transform="matrix(1.00011 0 0 -1 1181.19 531.21)"/><path d="M1195.85 519.518 1728.22 521.891C1730.3 521.9 1731.97 523.591 1731.97 525.667 1731.95 527.743 1730.27 529.418 1728.19 529.409L1195.81 527.036C1193.74 527.027 1192.06 525.337 1192.07 523.26 1192.08 521.184 1193.77 519.509 1195.85 519.518ZM1707.62 509.154 1735.66 525.683 1707.47 541.962C1705.67 543 1703.37 542.384 1702.33 540.586 1701.3 538.788 1701.91 536.489 1703.71 535.451L1726.32 522.395 1726.3 528.889 1703.8 515.631C1702.01 514.577 1701.42 512.273 1702.47 510.484 1703.52 508.695 1705.83 508.1 1707.62 509.154Z" fill="#4874CB" transform="matrix(1.00011 0 0 1 593.545 -232.834)"/><path d="M3.75917-0.00978296 4.32776 218.479C4.33317 220.555 2.65452 222.242 0.578384 222.248-1.49775 222.253-3.18516 220.574-3.19056 218.498L-3.75917 0.00978296C-3.76457-2.06635-2.08591-3.75376-0.00978296-3.75917 2.06635-3.76457 3.75376-2.08591 3.75917-0.00978296ZM16.919 197.784 0.588015 225.949-15.8893 197.87C-16.9401 196.079-16.3404 193.776-14.5497 192.725-12.7592 191.674-10.4558 192.274-9.40502 194.065L3.81076 216.586-2.68342 216.602 10.415 194.013C11.4564 192.217 13.7566 191.605 15.5527 192.647 17.3487 193.688 17.9605 195.989 16.919 197.784Z" fill="#4874CB" transform="matrix(-1.00011 0 0 1 2646.46 352.121)"/><text font-family="Microsoft YaHei,Microsoft YaHei_MSFontService,sans-serif" font-weight="400" font-size="128" transform="matrix(0.656218 0 0 0.656147 1767.63 248)">图<tspan font-size="128" x="128.333" y="0">结构</tspan><tspan font-size="128" x="385" y="0">动态</tspan><tspan font-size="128" x="641.667" y="0">学习</tspan><tspan font-size="128" x="-138.479" y="624.86">更新</tspan><tspan font-family="Times New Roman,Times New Roman_MSFontService,sans-serif" font-size="128" x="118.188" y="624.86">N</tspan><tspan font-size="128" x="211" y="624.86">维嵌入向量值</tspan><tspan font-size="128" x="1394.33" y="298.713">深度更新聚合图</tspan><tspan font-size="128" x="1586.83" y="452.642">节点特征</tspan></text><path d="M0.0191884-1.50355 12.0476-1.35004 12.0092 1.65705-0.0191884 1.50355ZM21.0689-1.23491 33.0972-1.0814 33.0589 1.92569 21.0305 1.77219ZM42.1185-0.966275 54.1469-0.812763 54.1085 2.19433 42.0802 2.04082ZM63.1682-0.697635 75.1964-0.544128 75.1584 2.46297 63.1298 2.30946ZM84.2178-0.428998 96.2463-0.275491 96.2076 2.73161 84.1797 2.5781ZM105.268-0.16036 117.296-0.0068528 117.257 3.00025 105.229 2.84673ZM126.318 0.108277 138.345 0.261785 138.307 3.26888 126.279 3.11537ZM147.367 0.376915 159.395 0.530422 159.357 3.53752 147.329 3.38401ZM144.842-9.97705 164.959 2.10523 144.54 13.6701C143.817 14.0794 142.9 13.8253 142.49 13.1027 142.081 12.3801 142.335 11.4626 143.058 11.0533L161.234 0.758742 161.202 3.35621 143.293-7.39891C142.581-7.82646 142.35-8.75018 142.778-9.4621 143.206-10.174 144.129-10.4046 144.842-9.97705Z" transform="matrix(1.00011 0 0 -1 2313.82 397.532)"/><path d="M0.0191884-1.50355 12.0476-1.35004 12.0092 1.65705-0.0191884 1.50355ZM21.0689-1.23491 33.0972-1.0814 33.0589 1.92569 21.0305 1.77219ZM42.1185-0.966275 54.1469-0.812763 54.1085 2.19433 42.0802 2.04082ZM63.1682-0.697635 75.1964-0.544128 75.1584 2.46297 63.1298 2.30946ZM84.2178-0.428998 96.2463-0.275491 96.2076 2.73161 84.1797 2.5781ZM105.268-0.16036 117.296-0.0068528 117.257 3.00025 105.229 2.84673ZM126.318 0.108277 138.345 0.261785 138.307 3.26888 126.279 3.11537ZM147.367 0.376915 159.395 0.530422 159.357 3.53752 147.329 3.38401ZM144.842-9.97705 164.959 2.10523 144.54 13.6701C143.817 14.0794 142.9 13.8253 142.49 13.1027 142.081 12.3801 142.335 11.4626 143.058 11.0533L161.234 0.758742 161.202 3.35621 143.293-7.39891C142.581-7.82646 142.35-8.75018 142.778-9.4621 143.206-10.174 144.129-10.4046 144.842-9.97705Z" transform="matrix(1.00011 0 0 -1 2313.82 158.038)"/><path d="M1033.76 689.283 1033.76 939.196" stroke="#4874CB" stroke-width="7.51833" stroke-linecap="round" stroke-linejoin="round" stroke-miterlimit="10" fill="none" fill-rule="evenodd" transform="matrix(1.00011 0 0 1 593.545 -232.834)"/><path d="M1032.48 934.859 1819.92 941.407C1821.99 941.42 1823.66 943.12 1823.64 945.193 1823.62 947.273 1821.93 948.94 1819.85 948.92L1032.41 942.378C1030.34 942.359 1028.67 940.666 1028.69 938.586 1028.71 936.512 1030.4 934.839 1032.48 934.859ZM1799.36 928.586 1827.34 945.226 1799.09 961.393C1797.29 962.43 1794.99 961.8 1793.96 960.002 1792.93 958.198 1793.55 955.901 1795.35 954.871L1818.01 941.899 1817.96 948.395 1795.52 935.049C1793.74 933.993 1793.15 931.683 1794.21 929.898 1795.27 928.114 1797.57 927.53 1799.36 928.586Z" fill="#4874CB" transform="matrix(1.00011 0 0 1 593.545 -232.834)"/><path d="M1878.55 839.212 2204.65 839.212 2204.65 1064.93 1878.55 1064.93Z" fill="#ACD78E" transform="matrix(1.00011 0 0 1 593.545 -232.834)"/><text font-family="Microsoft YaHei,Microsoft YaHei_MSFontService,sans-serif" font-weight="400" font-size="128" transform="matrix(0.656218 0 0 0.656147 2509.01 698)">元素级<tspan font-size="128" x="64.1669" y="153.929">点乘</tspan></text><path d="M2224.03 921.08 2777.92 923.658C2779.99 923.672 2781.66 925.358 2781.66 927.438 2781.65 929.511 2779.96 931.191 2777.88 931.178L2223.99 928.599C2221.92 928.586 2220.24 926.9 2220.25 924.82 2220.26 922.746 2221.95 921.073 2224.03 921.08ZM2757.31 910.916 2785.36 927.451 2757.16 943.73C2755.36 944.767 2753.06 944.15 2752.03 942.352 2750.99 940.554 2751.61 938.251 2753.4 937.214L2776.02 924.164 2775.99 930.659 2753.5 917.399C2751.7 916.342 2751.11 914.039 2752.16 912.248 2753.22 910.457 2755.52 909.866 2757.31 910.916Z" fill="#4874CB" transform="matrix(1.00011 0 0 1 593.545 -232.834)"/><text fill="#E54C5E" font-family="Microsoft YaHei,Microsoft YaHei_MSFontService,sans-serif" font-weight="400" font-size="128" transform="matrix(0.656218 0 0 0.656147 2833.08 801)">空间维度特征</text></g></g></g></g></g></svg>