<svg width="4251" height="2408" xmlns="http://www.w3.org/2000/svg" xmlns:xlink="http://www.w3.org/1999/xlink" overflow="hidden"><defs><clipPath id="clip0"><rect x="-19" y="63" width="4251" height="2408"/></clipPath><clipPath id="clip1"><rect x="-19" y="957" width="926" height="446"/></clipPath><clipPath id="clip2"><rect x="-19" y="957" width="926" height="446"/></clipPath><clipPath id="clip3"><rect x="-19" y="957" width="926" height="446"/></clipPath><clipPath id="clip4"><rect x="-19" y="957" width="926" height="446"/></clipPath><linearGradient x1="1028.03" y1="386.061" x2="1033.83" y2="463.01" gradientUnits="userSpaceOnUse" spreadMethod="reflect" id="stroke5"><stop offset="0" stop-color="#48CB89"/><stop offset="0.0116279" stop-color="#47CA8A"/><stop offset="0.0232558" stop-color="#48CA8B"/><stop offset="0.0348837" stop-color="#48CA8D"/><stop offset="0.0465116" stop-color="#48CA8E"/><stop offset="0.0581395" stop-color="#48CA90"/><stop offset="0.0697674" stop-color="#48CA91"/><stop offset="0.0813954" stop-color="#48CA92"/><stop offset="0.0930233" stop-color="#48C994"/><stop offset="0.104651" stop-color="#48C995"/><stop offset="0.116279" stop-color="#48C996"/><stop offset="0.127907" stop-color="#48C997"/><stop offset="0.139535" stop-color="#47C899"/><stop offset="0.151163" stop-color="#47C89A"/><stop offset="0.162791" stop-color="#48C89B"/><stop offset="0.174419" stop-color="#48C79C"/><stop offset="0.186047" stop-color="#48C79E"/><stop offset="0.197674" stop-color="#48C69F"/><stop offset="0.209302" stop-color="#48C6A0"/><stop offset="0.22093" stop-color="#48C5A1"/><stop offset="0.232558" stop-color="#48C5A2"/><stop offset="0.244186" stop-color="#48C4A3"/><stop offset="0.255814" stop-color="#48C4A5"/><stop offset="0.267442" stop-color="#48C3A6"/><stop offset="0.27907" stop-color="#48C3A7"/><stop offset="0.290698" stop-color="#48C2A8"/><stop offset="0.302326" stop-color="#48C1A9"/><stop offset="0.313953" stop-color="#48C1AA"/><stop offset="0.325581" stop-color="#48C0AB"/><stop offset="0.337209" stop-color="#48BFAC"/><stop offset="0.348837" stop-color="#48BEAD"/><stop offset="0.360465" stop-color="#48BEAE"/><stop offset="0.372093" stop-color="#48BDAF"/><stop offset="0.383721" stop-color="#48BCB0"/><stop offset="0.395349" stop-color="#48BBB1"/><stop offset="0.406977" stop-color="#48BAB2"/><stop offset="0.418605" stop-color="#48BAB3"/><stop offset="0.430233" stop-color="#48B9B4"/><stop offset="0.44186" stop-color="#48B8B4"/><stop offset="0.453488" stop-color="#48B7B5"/><stop offset="0.465116" stop-color="#48B6B6"/><stop offset="0.476744" stop-color="#48B5B7"/><stop offset="0.488372" stop-color="#48B4B8"/><stop offset="0.5" stop-color="#48B3B9"/><stop offset="0.511628" stop-color="#48B2B9"/><stop offset="0.523256" stop-color="#48B1BA"/><stop offset="0.534884" stop-color="#48B0BB"/><stop offset="0.546512" stop-color="#48AEBC"/><stop offset="0.55814" stop-color="#48ADBC"/><stop offset="0.569767" stop-color="#48ACBD"/><stop offset="0.581395" stop-color="#48ABBE"/><stop offset="0.593023" stop-color="#48AABE"/><stop offset="0.604651" stop-color="#48A9BF"/><stop offset="0.616279" stop-color="#48A7C0"/><stop offset="0.627907" stop-color="#48A6C0"/><stop offset="0.639535" stop-color="#48A5C1"/><stop offset="0.651163" stop-color="#48A4C1"/><stop offset="0.662791" stop-color="#47A2C2"/><stop offset="0.674419" stop-color="#48A1C2"/><stop offset="0.686047" stop-color="#48A0C3"/><stop offset="0.697674" stop-color="#489EC3"/><stop offset="0.709302" stop-color="#489DC4"/><stop offset="0.72093" stop-color="#489BC4"/><stop offset="0.732558" stop-color="#489AC5"/><stop offset="0.744186" stop-color="#4899C5"/><stop offset="0.755814" stop-color="#4897C6"/><stop offset="0.767442" stop-color="#4896C6"/><stop offset="0.77907" stop-color="#4894C7"/><stop offset="0.790698" stop-color="#4892C7"/><stop offset="0.802326" stop-color="#4891C7"/><stop offset="0.813953" stop-color="#488FC8"/><stop offset="0.825581" stop-color="#488EC8"/><stop offset="0.837209" stop-color="#488CC8"/><stop offset="0.848837" stop-color="#488BC9"/><stop offset="0.860465" stop-color="#4889C9"/><stop offset="0.872093" stop-color="#4887C9"/><stop offset="0.883721" stop-color="#4885C9"/><stop offset="0.895349" stop-color="#4884CA"/><stop offset="0.906977" stop-color="#4882CA"/><stop offset="0.918605" stop-color="#4880CA"/><stop offset="0.930233" stop-color="#487FCA"/><stop offset="0.94186" stop-color="#487DCA"/><stop offset="0.953488" stop-color="#487BCA"/><stop offset="0.965116" stop-color="#4879CA"/><stop offset="0.976744" stop-color="#4877CA"/><stop offset="0.988372" stop-color="#4875CA"/><stop offset="1" stop-color="#4874CB"/></linearGradient><linearGradient x1="1023.41" y1="421.196" x2="1039.24" y2="547.721" gradientUnits="userSpaceOnUse" spreadMethod="reflect" id="stroke6"><stop offset="0" stop-color="#EE2FBB"/><stop offset="0.00719424" stop-color="#EE30BA"/><stop offset="0.0143885" stop-color="#EE31BA"/><stop offset="0.0215827" stop-color="#EE32BA"/><stop offset="0.028777" stop-color="#ED33BA"/><stop offset="0.0359712" stop-color="#EE34BA"/><stop offset="0.0431655" stop-color="#EE35BA"/><stop offset="0.0503597" stop-color="#ED36BA"/><stop offset="0.057554" stop-color="#EE37BA"/><stop offset="0.0647482" stop-color="#EE38BA"/><stop offset="0.0719424" stop-color="#EE39B9"/><stop offset="0.0791367" stop-color="#EE3AB9"/><stop offset="0.0863309" stop-color="#ED3BB9"/><stop offset="0.0935252" stop-color="#EE3CB9"/><stop offset="0.100719" stop-color="#EE3DB9"/><stop offset="0.107914" stop-color="#EE3EB8"/><stop offset="0.115108" stop-color="#EE40B8"/><stop offset="0.122302" stop-color="#EE41B8"/><stop offset="0.129496" stop-color="#EE42B7"/><stop offset="0.136691" stop-color="#EE42B7"/><stop offset="0.143885" stop-color="#EE43B7"/><stop offset="0.151079" stop-color="#EE44B6"/><stop offset="0.158273" stop-color="#ED45B6"/><stop offset="0.165468" stop-color="#EE46B6"/><stop offset="0.172662" stop-color="#EE47B5"/><stop offset="0.179856" stop-color="#EE48B5"/><stop offset="0.18705" stop-color="#EE49B4"/><stop offset="0.194245" stop-color="#EE4AB4"/><stop offset="0.201439" stop-color="#ED4BB4"/><stop offset="0.208633" stop-color="#EE4CB3"/><stop offset="0.215827" stop-color="#EE4DB3"/><stop offset="0.223022" stop-color="#EE4EB2"/><stop offset="0.230216" stop-color="#EE4FB2"/><stop offset="0.23741" stop-color="#EE50B1"/><stop offset="0.244604" stop-color="#EE50B1"/><stop offset="0.251799" stop-color="#EE51B0"/><stop offset="0.258993" stop-color="#EE52AF"/><stop offset="0.266187" stop-color="#EE53AF"/><stop offset="0.273381" stop-color="#EE54AE"/><stop offset="0.280576" stop-color="#EE55AE"/><stop offset="0.28777" stop-color="#EE56AD"/><stop offset="0.294964" stop-color="#EE56AC"/><stop offset="0.302158" stop-color="#EE57AC"/><stop offset="0.309353" stop-color="#EE58AB"/><stop offset="0.316547" stop-color="#EE59AA"/><stop offset="0.323741" stop-color="#EE5AAA"/><stop offset="0.330935" stop-color="#EE5AA9"/><stop offset="0.338129" stop-color="#EE5BA8"/><stop offset="0.345324" stop-color="#ED5CA7"/><stop offset="0.352518" stop-color="#EE5DA7"/><stop offset="0.359712" stop-color="#EE5EA6"/><stop offset="0.366906" stop-color="#EE5EA5"/><stop offset="0.374101" stop-color="#EE5FA4"/><stop offset="0.381295" stop-color="#EE60A4"/><stop offset="0.388489" stop-color="#EE60A3"/><stop offset="0.395683" stop-color="#EE61A2"/><stop offset="0.402878" stop-color="#ED62A1"/><stop offset="0.410072" stop-color="#EE63A0"/><stop offset="0.417266" stop-color="#EE639F"/><stop offset="0.42446" stop-color="#EE649E"/><stop offset="0.431655" stop-color="#EE659E"/><stop offset="0.438849" stop-color="#ED659D"/><stop offset="0.446043" stop-color="#EE669C"/><stop offset="0.453237" stop-color="#EE679B"/><stop offset="0.460432" stop-color="#ED679A"/><stop offset="0.467626" stop-color="#EE6899"/><stop offset="0.47482" stop-color="#EE6998"/><stop offset="0.482014" stop-color="#EE6997"/><stop offset="0.489209" stop-color="#EE6A96"/><stop offset="0.496403" stop-color="#EE6B95"/><stop offset="0.503597" stop-color="#EE6B94"/><stop offset="0.510791" stop-color="#EE6C93"/><stop offset="0.517986" stop-color="#ED6C92"/><stop offset="0.52518" stop-color="#EE6D91"/><stop offset="0.532374" stop-color="#EE6E90"/><stop offset="0.539568" stop-color="#ED6E8E"/><stop offset="0.546763" stop-color="#EE6F8D"/><stop offset="0.553957" stop-color="#EE6F8C"/><stop offset="0.561151" stop-color="#EE708B"/><stop offset="0.568345" stop-color="#EE708A"/><stop offset="0.57554" stop-color="#EE7189"/><stop offset="0.582734" stop-color="#EE7188"/><stop offset="0.589928" stop-color="#EE7286"/><stop offset="0.597122" stop-color="#EE7285"/><stop offset="0.604317" stop-color="#EE7384"/><stop offset="0.611511" stop-color="#EE7383"/><stop offset="0.618705" stop-color="#EE7482"/><stop offset="0.625899" stop-color="#ED7480"/><stop offset="0.633094" stop-color="#ED757F"/><stop offset="0.640288" stop-color="#EE757E"/><stop offset="0.647482" stop-color="#ED767D"/><stop offset="0.654676" stop-color="#ED767B"/><stop offset="0.66187" stop-color="#EE777A"/><stop offset="0.669065" stop-color="#EE7779"/><stop offset="0.676259" stop-color="#ED7777"/><stop offset="0.683453" stop-color="#EE7876"/><stop offset="0.690647" stop-color="#EE7875"/><stop offset="0.697842" stop-color="#EE7973"/><stop offset="0.705036" stop-color="#EE7972"/><stop offset="0.71223" stop-color="#EE7970"/><stop offset="0.719424" stop-color="#EE7A6F"/><stop offset="0.726619" stop-color="#EE7A6E"/><stop offset="0.733813" stop-color="#ED7B6C"/><stop offset="0.741007" stop-color="#EE7B6B"/><stop offset="0.748201" stop-color="#EE7B69"/><stop offset="0.755396" stop-color="#ED7C68"/><stop offset="0.76259" stop-color="#EE7C66"/><stop offset="0.769784" stop-color="#EE7C65"/><stop offset="0.776978" stop-color="#EE7D63"/><stop offset="0.784173" stop-color="#EE7D62"/><stop offset="0.791367" stop-color="#EE7D60"/><stop offset="0.798561" stop-color="#EE7D5F"/><stop offset="0.805755" stop-color="#EE7E5D"/><stop offset="0.81295" stop-color="#EE7E5C"/><stop offset="0.820144" stop-color="#ED7E5A"/><stop offset="0.827338" stop-color="#EE7E58"/><stop offset="0.834532" stop-color="#EE7F57"/><stop offset="0.841727" stop-color="#EE7F55"/><stop offset="0.848921" stop-color="#EE7F54"/><stop offset="0.856115" stop-color="#EE7F52"/><stop offset="0.863309" stop-color="#EE8050"/><stop offset="0.870504" stop-color="#ED804F"/><stop offset="0.877698" stop-color="#EE804D"/><stop offset="0.884892" stop-color="#EE804B"/><stop offset="0.892086" stop-color="#EE8049"/><stop offset="0.899281" stop-color="#EE8048"/><stop offset="0.906475" stop-color="#EE8146"/><stop offset="0.913669" stop-color="#EE8144"/><stop offset="0.920863" stop-color="#EE8143"/><stop offset="0.928058" stop-color="#EE8141"/><stop offset="0.935252" stop-color="#EE813F"/><stop offset="0.942446" stop-color="#EE813D"/><stop offset="0.94964" stop-color="#EE813B"/><stop offset="0.956835" stop-color="#EE813A"/><stop offset="0.964029" stop-color="#EE8138"/><stop offset="0.971223" stop-color="#EE8136"/><stop offset="0.978417" stop-color="#EE8134"/><stop offset="0.985611" stop-color="#EE8132"/><stop offset="0.992806" stop-color="#EE8130"/><stop offset="1" stop-color="#EE822F"/></linearGradient><linearGradient x1="1017.54" y1="565.17" x2="1045.14" y2="731.272" gradientUnits="userSpaceOnUse" spreadMethod="reflect" id="stroke7"><stop offset="0" stop-color="#BD7542"/><stop offset="0.0140845" stop-color="#BC7642"/><stop offset="0.028169" stop-color="#BC7842"/><stop offset="0.0422535" stop-color="#BC7A41"/><stop offset="0.056338" stop-color="#BC7C42"/><stop offset="0.0704225" stop-color="#BC7E42"/><stop offset="0.084507" stop-color="#BC7F42"/><stop offset="0.0985916" stop-color="#BC8141"/><stop offset="0.112676" stop-color="#BB8342"/><stop offset="0.126761" stop-color="#BB8542"/><stop offset="0.140845" stop-color="#BB8642"/><stop offset="0.15493" stop-color="#BA8842"/><stop offset="0.169014" stop-color="#BA8A42"/><stop offset="0.183099" stop-color="#BA8B42"/><stop offset="0.197183" stop-color="#B98D42"/><stop offset="0.211268" stop-color="#B98E42"/><stop offset="0.225352" stop-color="#B89042"/><stop offset="0.239437" stop-color="#B89142"/><stop offset="0.253521" stop-color="#B79342"/><stop offset="0.267606" stop-color="#B69442"/><stop offset="0.28169" stop-color="#B69642"/><stop offset="0.295775" stop-color="#B59742"/><stop offset="0.309859" stop-color="#B49942"/><stop offset="0.323944" stop-color="#B49A42"/><stop offset="0.338028" stop-color="#B39B42"/><stop offset="0.352113" stop-color="#B29D42"/><stop offset="0.366197" stop-color="#B29E42"/><stop offset="0.380282" stop-color="#B19F42"/><stop offset="0.394366" stop-color="#B0A042"/><stop offset="0.408451" stop-color="#AFA242"/><stop offset="0.422535" stop-color="#AEA342"/><stop offset="0.43662" stop-color="#ADA442"/><stop offset="0.450704" stop-color="#ACA542"/><stop offset="0.464789" stop-color="#ABA641"/><stop offset="0.478873" stop-color="#AAA742"/><stop offset="0.492958" stop-color="#A9A842"/><stop offset="0.507042" stop-color="#A8A942"/><stop offset="0.521127" stop-color="#A7AA42"/><stop offset="0.535211" stop-color="#A6AB42"/><stop offset="0.549296" stop-color="#A5AC42"/><stop offset="0.56338" stop-color="#A4AD42"/><stop offset="0.577465" stop-color="#A3AE42"/><stop offset="0.591549" stop-color="#A2AF42"/><stop offset="0.605634" stop-color="#A0B042"/><stop offset="0.619718" stop-color="#9FB142"/><stop offset="0.633803" stop-color="#9EB242"/><stop offset="0.647887" stop-color="#9DB242"/><stop offset="0.661972" stop-color="#9BB342"/><stop offset="0.676056" stop-color="#9AB442"/><stop offset="0.690141" stop-color="#99B442"/><stop offset="0.704225" stop-color="#97B542"/><stop offset="0.71831" stop-color="#96B642"/><stop offset="0.732394" stop-color="#94B642"/><stop offset="0.746479" stop-color="#93B742"/><stop offset="0.760563" stop-color="#91B842"/><stop offset="0.774648" stop-color="#90B842"/><stop offset="0.788732" stop-color="#8EB942"/><stop offset="0.802817" stop-color="#8DB942"/><stop offset="0.816901" stop-color="#8BBA42"/><stop offset="0.830986" stop-color="#8ABA42"/><stop offset="0.84507" stop-color="#88BA42"/><stop offset="0.859155" stop-color="#86BB42"/><stop offset="0.873239" stop-color="#85BB42"/><stop offset="0.887324" stop-color="#83BB42"/><stop offset="0.901408" stop-color="#81BC42"/><stop offset="0.915493" stop-color="#7FBC42"/><stop offset="0.929577" stop-color="#7EBC42"/><stop offset="0.943662" stop-color="#7CBC42"/><stop offset="0.957747" stop-color="#7ABC42"/><stop offset="0.971831" stop-color="#78BC42"/><stop offset="0.985915" stop-color="#76BC42"/><stop offset="1" stop-color="#75BD42"/></linearGradient><clipPath id="clip8"><rect x="3368" y="825" width="864" height="799"/></clipPath><clipPath id="clip9"><rect x="3368" y="825" width="864" height="799"/></clipPath><clipPath id="clip10"><rect x="3368" y="825" width="864" height="799"/></clipPath><clipPath id="clip11"><rect x="3368" y="825" width="864" height="799"/></clipPath><clipPath id="clip12"><rect x="878" y="1480" width="2491" height="991"/></clipPath><clipPath id="clip13"><rect x="878" y="1480" width="2491" height="991"/></clipPath><clipPath id="clip14"><rect x="878" y="1480" width="2491" height="991"/></clipPath><clipPath id="clip15"><rect x="878" y="1480" width="2491" height="991"/></clipPath><linearGradient x1="361.826" y1="391.193" x2="368.308" y2="475.49" gradientUnits="userSpaceOnUse" spreadMethod="reflect" id="stroke16"><stop offset="0" stop-color="#48CB89"/><stop offset="0.0116279" stop-color="#47CA8A"/><stop offset="0.0232558" stop-color="#48CA8B"/><stop offset="0.0348837" stop-color="#48CA8D"/><stop offset="0.0465116" stop-color="#48CA8E"/><stop offset="0.0581395" stop-color="#48CA90"/><stop offset="0.0697674" stop-color="#48CA91"/><stop offset="0.0813954" stop-color="#48CA92"/><stop offset="0.0930233" stop-color="#48C994"/><stop offset="0.104651" stop-color="#48C995"/><stop offset="0.116279" stop-color="#48C996"/><stop offset="0.127907" stop-color="#48C997"/><stop offset="0.139535" stop-color="#47C899"/><stop offset="0.151163" stop-color="#47C89A"/><stop offset="0.162791" stop-color="#48C89B"/><stop offset="0.174419" stop-color="#48C79C"/><stop offset="0.186047" stop-color="#48C79E"/><stop offset="0.197674" stop-color="#48C69F"/><stop offset="0.209302" stop-color="#48C6A0"/><stop offset="0.22093" stop-color="#48C5A1"/><stop offset="0.232558" stop-color="#48C5A2"/><stop offset="0.244186" stop-color="#48C4A3"/><stop offset="0.255814" stop-color="#48C4A5"/><stop offset="0.267442" stop-color="#48C3A6"/><stop offset="0.27907" stop-color="#48C3A7"/><stop offset="0.290698" stop-color="#48C2A8"/><stop offset="0.302326" stop-color="#48C1A9"/><stop offset="0.313953" stop-color="#48C1AA"/><stop offset="0.325581" stop-color="#48C0AB"/><stop offset="0.337209" stop-color="#48BFAC"/><stop offset="0.348837" stop-color="#48BEAD"/><stop offset="0.360465" stop-color="#48BEAE"/><stop offset="0.372093" stop-color="#48BDAF"/><stop offset="0.383721" stop-color="#48BCB0"/><stop offset="0.395349" stop-color="#48BBB1"/><stop offset="0.406977" stop-color="#48BAB2"/><stop offset="0.418605" stop-color="#48BAB3"/><stop offset="0.430233" stop-color="#48B9B4"/><stop offset="0.44186" stop-color="#48B8B4"/><stop offset="0.453488" stop-color="#48B7B5"/><stop offset="0.465116" stop-color="#48B6B6"/><stop offset="0.476744" stop-color="#48B5B7"/><stop offset="0.488372" stop-color="#48B4B8"/><stop offset="0.5" stop-color="#48B3B9"/><stop offset="0.511628" stop-color="#48B2B9"/><stop offset="0.523256" stop-color="#48B1BA"/><stop offset="0.534884" stop-color="#48B0BB"/><stop offset="0.546512" stop-color="#48AEBC"/><stop offset="0.55814" stop-color="#48ADBC"/><stop offset="0.569767" stop-color="#48ACBD"/><stop offset="0.581395" stop-color="#48ABBE"/><stop offset="0.593023" stop-color="#48AABE"/><stop offset="0.604651" stop-color="#48A9BF"/><stop offset="0.616279" stop-color="#48A7C0"/><stop offset="0.627907" stop-color="#48A6C0"/><stop offset="0.639535" stop-color="#48A5C1"/><stop offset="0.651163" stop-color="#48A4C1"/><stop offset="0.662791" stop-color="#47A2C2"/><stop offset="0.674419" stop-color="#48A1C2"/><stop offset="0.686047" stop-color="#48A0C3"/><stop offset="0.697674" stop-color="#489EC3"/><stop offset="0.709302" stop-color="#489DC4"/><stop offset="0.72093" stop-color="#489BC4"/><stop offset="0.732558" stop-color="#489AC5"/><stop offset="0.744186" stop-color="#4899C5"/><stop offset="0.755814" stop-color="#4897C6"/><stop offset="0.767442" stop-color="#4896C6"/><stop offset="0.77907" stop-color="#4894C7"/><stop offset="0.790698" stop-color="#4892C7"/><stop offset="0.802326" stop-color="#4891C7"/><stop offset="0.813953" stop-color="#488FC8"/><stop offset="0.825581" stop-color="#488EC8"/><stop offset="0.837209" stop-color="#488CC8"/><stop offset="0.848837" stop-color="#488BC9"/><stop offset="0.860465" stop-color="#4889C9"/><stop offset="0.872093" stop-color="#4887C9"/><stop offset="0.883721" stop-color="#4885C9"/><stop offset="0.895349" stop-color="#4884CA"/><stop offset="0.906977" stop-color="#4882CA"/><stop offset="0.918605" stop-color="#4880CA"/><stop offset="0.930233" stop-color="#487FCA"/><stop offset="0.94186" stop-color="#487DCA"/><stop offset="0.953488" stop-color="#487BCA"/><stop offset="0.965116" stop-color="#4879CA"/><stop offset="0.976744" stop-color="#4877CA"/><stop offset="0.988372" stop-color="#4875CA"/><stop offset="1" stop-color="#4874CB"/></linearGradient><linearGradient x1="350.859" y1="415.397" x2="371.281" y2="562.934" gradientUnits="userSpaceOnUse" spreadMethod="reflect" id="stroke17"><stop offset="0" stop-color="#EE2FBB"/><stop offset="0.00719424" stop-color="#EE30BA"/><stop offset="0.0143885" stop-color="#EE31BA"/><stop offset="0.0215827" stop-color="#EE32BA"/><stop offset="0.028777" stop-color="#ED33BA"/><stop offset="0.0359712" stop-color="#EE34BA"/><stop offset="0.0431655" stop-color="#EE35BA"/><stop offset="0.0503597" stop-color="#ED36BA"/><stop offset="0.057554" stop-color="#EE37BA"/><stop offset="0.0647482" stop-color="#EE38BA"/><stop offset="0.0719424" stop-color="#EE39B9"/><stop offset="0.0791367" stop-color="#EE3AB9"/><stop offset="0.0863309" stop-color="#ED3BB9"/><stop offset="0.0935252" stop-color="#EE3CB9"/><stop offset="0.100719" stop-color="#EE3DB9"/><stop offset="0.107914" stop-color="#EE3EB8"/><stop offset="0.115108" stop-color="#EE40B8"/><stop offset="0.122302" stop-color="#EE41B8"/><stop offset="0.129496" stop-color="#EE42B7"/><stop offset="0.136691" stop-color="#EE42B7"/><stop offset="0.143885" stop-color="#EE43B7"/><stop offset="0.151079" stop-color="#EE44B6"/><stop offset="0.158273" stop-color="#ED45B6"/><stop offset="0.165468" stop-color="#EE46B6"/><stop offset="0.172662" stop-color="#EE47B5"/><stop offset="0.179856" stop-color="#EE48B5"/><stop offset="0.18705" stop-color="#EE49B4"/><stop offset="0.194245" stop-color="#EE4AB4"/><stop offset="0.201439" stop-color="#ED4BB4"/><stop offset="0.208633" stop-color="#EE4CB3"/><stop offset="0.215827" stop-color="#EE4DB3"/><stop offset="0.223022" stop-color="#EE4EB2"/><stop offset="0.230216" stop-color="#EE4FB2"/><stop offset="0.23741" stop-color="#EE50B1"/><stop offset="0.244604" stop-color="#EE50B1"/><stop offset="0.251799" stop-color="#EE51B0"/><stop offset="0.258993" stop-color="#EE52AF"/><stop offset="0.266187" stop-color="#EE53AF"/><stop offset="0.273381" stop-color="#EE54AE"/><stop offset="0.280576" stop-color="#EE55AE"/><stop offset="0.28777" stop-color="#EE56AD"/><stop offset="0.294964" stop-color="#EE56AC"/><stop offset="0.302158" stop-color="#EE57AC"/><stop offset="0.309353" stop-color="#EE58AB"/><stop offset="0.316547" stop-color="#EE59AA"/><stop offset="0.323741" stop-color="#EE5AAA"/><stop offset="0.330935" stop-color="#EE5AA9"/><stop offset="0.338129" stop-color="#EE5BA8"/><stop offset="0.345324" stop-color="#ED5CA7"/><stop offset="0.352518" stop-color="#EE5DA7"/><stop offset="0.359712" stop-color="#EE5EA6"/><stop offset="0.366906" stop-color="#EE5EA5"/><stop offset="0.374101" stop-color="#EE5FA4"/><stop offset="0.381295" stop-color="#EE60A4"/><stop offset="0.388489" stop-color="#EE60A3"/><stop offset="0.395683" stop-color="#EE61A2"/><stop offset="0.402878" stop-color="#ED62A1"/><stop offset="0.410072" stop-color="#EE63A0"/><stop offset="0.417266" stop-color="#EE639F"/><stop offset="0.42446" stop-color="#EE649E"/><stop offset="0.431655" stop-color="#EE659E"/><stop offset="0.438849" stop-color="#ED659D"/><stop offset="0.446043" stop-color="#EE669C"/><stop offset="0.453237" stop-color="#EE679B"/><stop offset="0.460432" stop-color="#ED679A"/><stop offset="0.467626" stop-color="#EE6899"/><stop offset="0.47482" stop-color="#EE6998"/><stop offset="0.482014" stop-color="#EE6997"/><stop offset="0.489209" stop-color="#EE6A96"/><stop offset="0.496403" stop-color="#EE6B95"/><stop offset="0.503597" stop-color="#EE6B94"/><stop offset="0.510791" stop-color="#EE6C93"/><stop offset="0.517986" stop-color="#ED6C92"/><stop offset="0.52518" stop-color="#EE6D91"/><stop offset="0.532374" stop-color="#EE6E90"/><stop offset="0.539568" stop-color="#ED6E8E"/><stop offset="0.546763" stop-color="#EE6F8D"/><stop offset="0.553957" stop-color="#EE6F8C"/><stop offset="0.561151" stop-color="#EE708B"/><stop offset="0.568345" stop-color="#EE708A"/><stop offset="0.57554" stop-color="#EE7189"/><stop offset="0.582734" stop-color="#EE7188"/><stop offset="0.589928" stop-color="#EE7286"/><stop offset="0.597122" stop-color="#EE7285"/><stop offset="0.604317" stop-color="#EE7384"/><stop offset="0.611511" stop-color="#EE7383"/><stop offset="0.618705" stop-color="#EE7482"/><stop offset="0.625899" stop-color="#ED7480"/><stop offset="0.633094" stop-color="#ED757F"/><stop offset="0.640288" stop-color="#EE757E"/><stop offset="0.647482" stop-color="#ED767D"/><stop offset="0.654676" stop-color="#ED767B"/><stop offset="0.66187" stop-color="#EE777A"/><stop offset="0.669065" stop-color="#EE7779"/><stop offset="0.676259" stop-color="#ED7777"/><stop offset="0.683453" stop-color="#EE7876"/><stop offset="0.690647" stop-color="#EE7875"/><stop offset="0.697842" stop-color="#EE7973"/><stop offset="0.705036" stop-color="#EE7972"/><stop offset="0.71223" stop-color="#EE7970"/><stop offset="0.719424" stop-color="#EE7A6F"/><stop offset="0.726619" stop-color="#EE7A6E"/><stop offset="0.733813" stop-color="#ED7B6C"/><stop offset="0.741007" stop-color="#EE7B6B"/><stop offset="0.748201" stop-color="#EE7B69"/><stop offset="0.755396" stop-color="#ED7C68"/><stop offset="0.76259" stop-color="#EE7C66"/><stop offset="0.769784" stop-color="#EE7C65"/><stop offset="0.776978" stop-color="#EE7D63"/><stop offset="0.784173" stop-color="#EE7D62"/><stop offset="0.791367" stop-color="#EE7D60"/><stop offset="0.798561" stop-color="#EE7D5F"/><stop offset="0.805755" stop-color="#EE7E5D"/><stop offset="0.81295" stop-color="#EE7E5C"/><stop offset="0.820144" stop-color="#ED7E5A"/><stop offset="0.827338" stop-color="#EE7E58"/><stop offset="0.834532" stop-color="#EE7F57"/><stop offset="0.841727" stop-color="#EE7F55"/><stop offset="0.848921" stop-color="#EE7F54"/><stop offset="0.856115" stop-color="#EE7F52"/><stop offset="0.863309" stop-color="#EE8050"/><stop offset="0.870504" stop-color="#ED804F"/><stop offset="0.877698" stop-color="#EE804D"/><stop offset="0.884892" stop-color="#EE804B"/><stop offset="0.892086" stop-color="#EE8049"/><stop offset="0.899281" stop-color="#EE8048"/><stop offset="0.906475" stop-color="#EE8146"/><stop offset="0.913669" stop-color="#EE8144"/><stop offset="0.920863" stop-color="#EE8143"/><stop offset="0.928058" stop-color="#EE8141"/><stop offset="0.935252" stop-color="#EE813F"/><stop offset="0.942446" stop-color="#EE813D"/><stop offset="0.94964" stop-color="#EE813B"/><stop offset="0.956835" stop-color="#EE813A"/><stop offset="0.964029" stop-color="#EE8138"/><stop offset="0.971223" stop-color="#EE8136"/><stop offset="0.978417" stop-color="#EE8134"/><stop offset="0.985611" stop-color="#EE8132"/><stop offset="0.992806" stop-color="#EE8130"/><stop offset="1" stop-color="#EE822F"/></linearGradient><linearGradient x1="350.105" y1="533.192" x2="380.921" y2="715.045" gradientUnits="userSpaceOnUse" spreadMethod="reflect" id="stroke18"><stop offset="0" stop-color="#BD7542"/><stop offset="0.0140845" stop-color="#BC7642"/><stop offset="0.028169" stop-color="#BC7842"/><stop offset="0.0422535" stop-color="#BC7A41"/><stop offset="0.056338" stop-color="#BC7C42"/><stop offset="0.0704225" stop-color="#BC7E42"/><stop offset="0.084507" stop-color="#BC7F42"/><stop offset="0.0985916" stop-color="#BC8141"/><stop offset="0.112676" stop-color="#BB8342"/><stop offset="0.126761" stop-color="#BB8542"/><stop offset="0.140845" stop-color="#BB8642"/><stop offset="0.15493" stop-color="#BA8842"/><stop offset="0.169014" stop-color="#BA8A42"/><stop offset="0.183099" stop-color="#BA8B42"/><stop offset="0.197183" stop-color="#B98D42"/><stop offset="0.211268" stop-color="#B98E42"/><stop offset="0.225352" stop-color="#B89042"/><stop offset="0.239437" stop-color="#B89142"/><stop offset="0.253521" stop-color="#B79342"/><stop offset="0.267606" stop-color="#B69442"/><stop offset="0.28169" stop-color="#B69642"/><stop offset="0.295775" stop-color="#B59742"/><stop offset="0.309859" stop-color="#B49942"/><stop offset="0.323944" stop-color="#B49A42"/><stop offset="0.338028" stop-color="#B39B42"/><stop offset="0.352113" stop-color="#B29D42"/><stop offset="0.366197" stop-color="#B29E42"/><stop offset="0.380282" stop-color="#B19F42"/><stop offset="0.394366" stop-color="#B0A042"/><stop offset="0.408451" stop-color="#AFA242"/><stop offset="0.422535" stop-color="#AEA342"/><stop offset="0.43662" stop-color="#ADA442"/><stop offset="0.450704" stop-color="#ACA542"/><stop offset="0.464789" stop-color="#ABA641"/><stop offset="0.478873" stop-color="#AAA742"/><stop offset="0.492958" stop-color="#A9A842"/><stop offset="0.507042" stop-color="#A8A942"/><stop offset="0.521127" stop-color="#A7AA42"/><stop offset="0.535211" stop-color="#A6AB42"/><stop offset="0.549296" stop-color="#A5AC42"/><stop offset="0.56338" stop-color="#A4AD42"/><stop offset="0.577465" stop-color="#A3AE42"/><stop offset="0.591549" stop-color="#A2AF42"/><stop offset="0.605634" stop-color="#A0B042"/><stop offset="0.619718" stop-color="#9FB142"/><stop offset="0.633803" stop-color="#9EB242"/><stop offset="0.647887" stop-color="#9DB242"/><stop offset="0.661972" stop-color="#9BB342"/><stop offset="0.676056" stop-color="#9AB442"/><stop offset="0.690141" stop-color="#99B442"/><stop offset="0.704225" stop-color="#97B542"/><stop offset="0.71831" stop-color="#96B642"/><stop offset="0.732394" stop-color="#94B642"/><stop offset="0.746479" stop-color="#93B742"/><stop offset="0.760563" stop-color="#91B842"/><stop offset="0.774648" stop-color="#90B842"/><stop offset="0.788732" stop-color="#8EB942"/><stop offset="0.802817" stop-color="#8DB942"/><stop offset="0.816901" stop-color="#8BBA42"/><stop offset="0.830986" stop-color="#8ABA42"/><stop offset="0.84507" stop-color="#88BA42"/><stop offset="0.859155" stop-color="#86BB42"/><stop offset="0.873239" stop-color="#85BB42"/><stop offset="0.887324" stop-color="#83BB42"/><stop offset="0.901408" stop-color="#81BC42"/><stop offset="0.915493" stop-color="#7FBC42"/><stop offset="0.929577" stop-color="#7EBC42"/><stop offset="0.943662" stop-color="#7CBC42"/><stop offset="0.957747" stop-color="#7ABC42"/><stop offset="0.971831" stop-color="#78BC42"/><stop offset="0.985915" stop-color="#76BC42"/><stop offset="1" stop-color="#75BD42"/></linearGradient><linearGradient x1="1550.15" y1="425.571" x2="1558.16" y2="532.904" gradientUnits="userSpaceOnUse" spreadMethod="reflect" id="stroke19"><stop offset="0" stop-color="#48CB89"/><stop offset="0.0116279" stop-color="#47CA8A"/><stop offset="0.0232558" stop-color="#48CA8B"/><stop offset="0.0348837" stop-color="#48CA8D"/><stop offset="0.0465116" stop-color="#48CA8E"/><stop offset="0.0581395" stop-color="#48CA90"/><stop offset="0.0697674" stop-color="#48CA91"/><stop offset="0.0813954" stop-color="#48CA92"/><stop offset="0.0930233" stop-color="#48C994"/><stop offset="0.104651" stop-color="#48C995"/><stop offset="0.116279" stop-color="#48C996"/><stop offset="0.127907" stop-color="#48C997"/><stop offset="0.139535" stop-color="#47C899"/><stop offset="0.151163" stop-color="#47C89A"/><stop offset="0.162791" stop-color="#48C89B"/><stop offset="0.174419" stop-color="#48C79C"/><stop offset="0.186047" stop-color="#48C79E"/><stop offset="0.197674" stop-color="#48C69F"/><stop offset="0.209302" stop-color="#48C6A0"/><stop offset="0.22093" stop-color="#48C5A1"/><stop offset="0.232558" stop-color="#48C5A2"/><stop offset="0.244186" stop-color="#48C4A3"/><stop offset="0.255814" stop-color="#48C4A5"/><stop offset="0.267442" stop-color="#48C3A6"/><stop offset="0.27907" stop-color="#48C3A7"/><stop offset="0.290698" stop-color="#48C2A8"/><stop offset="0.302326" stop-color="#48C1A9"/><stop offset="0.313953" stop-color="#48C1AA"/><stop offset="0.325581" stop-color="#48C0AB"/><stop offset="0.337209" stop-color="#48BFAC"/><stop offset="0.348837" stop-color="#48BEAD"/><stop offset="0.360465" stop-color="#48BEAE"/><stop offset="0.372093" stop-color="#48BDAF"/><stop offset="0.383721" stop-color="#48BCB0"/><stop offset="0.395349" stop-color="#48BBB1"/><stop offset="0.406977" stop-color="#48BAB2"/><stop offset="0.418605" stop-color="#48BAB3"/><stop offset="0.430233" stop-color="#48B9B4"/><stop offset="0.44186" stop-color="#48B8B4"/><stop offset="0.453488" stop-color="#48B7B5"/><stop offset="0.465116" stop-color="#48B6B6"/><stop offset="0.476744" stop-color="#48B5B7"/><stop offset="0.488372" stop-color="#48B4B8"/><stop offset="0.5" stop-color="#48B3B9"/><stop offset="0.511628" stop-color="#48B2B9"/><stop offset="0.523256" stop-color="#48B1BA"/><stop offset="0.534884" stop-color="#48B0BB"/><stop offset="0.546512" stop-color="#48AEBC"/><stop offset="0.55814" stop-color="#48ADBC"/><stop offset="0.569767" stop-color="#48ACBD"/><stop offset="0.581395" stop-color="#48ABBE"/><stop offset="0.593023" stop-color="#48AABE"/><stop offset="0.604651" stop-color="#48A9BF"/><stop offset="0.616279" stop-color="#48A7C0"/><stop offset="0.627907" stop-color="#48A6C0"/><stop offset="0.639535" stop-color="#48A5C1"/><stop offset="0.651163" stop-color="#48A4C1"/><stop offset="0.662791" stop-color="#47A2C2"/><stop offset="0.674419" stop-color="#48A1C2"/><stop offset="0.686047" stop-color="#48A0C3"/><stop offset="0.697674" stop-color="#489EC3"/><stop offset="0.709302" stop-color="#489DC4"/><stop offset="0.72093" stop-color="#489BC4"/><stop offset="0.732558" stop-color="#489AC5"/><stop offset="0.744186" stop-color="#4899C5"/><stop offset="0.755814" stop-color="#4897C6"/><stop offset="0.767442" stop-color="#4896C6"/><stop offset="0.77907" stop-color="#4894C7"/><stop offset="0.790698" stop-color="#4892C7"/><stop offset="0.802326" stop-color="#4891C7"/><stop offset="0.813953" stop-color="#488FC8"/><stop offset="0.825581" stop-color="#488EC8"/><stop offset="0.837209" stop-color="#488CC8"/><stop offset="0.848837" stop-color="#488BC9"/><stop offset="0.860465" stop-color="#4889C9"/><stop offset="0.872093" stop-color="#4887C9"/><stop offset="0.883721" stop-color="#4885C9"/><stop offset="0.895349" stop-color="#4884CA"/><stop offset="0.906977" stop-color="#4882CA"/><stop offset="0.918605" stop-color="#4880CA"/><stop offset="0.930233" stop-color="#487FCA"/><stop offset="0.94186" stop-color="#487DCA"/><stop offset="0.953488" stop-color="#487BCA"/><stop offset="0.965116" stop-color="#4879CA"/><stop offset="0.976744" stop-color="#4877CA"/><stop offset="0.988372" stop-color="#4875CA"/><stop offset="1" stop-color="#4874CB"/></linearGradient><linearGradient x1="1551.2" y1="688.388" x2="1559.84" y2="799.682" gradientUnits="userSpaceOnUse" spreadMethod="reflect" id="stroke20"><stop offset="0" stop-color="#48CB89"/><stop offset="0.0116279" stop-color="#47CA8A"/><stop offset="0.0232558" stop-color="#48CA8B"/><stop offset="0.0348837" stop-color="#48CA8D"/><stop offset="0.0465116" stop-color="#48CA8E"/><stop offset="0.0581395" stop-color="#48CA90"/><stop offset="0.0697674" stop-color="#48CA91"/><stop offset="0.0813954" stop-color="#48CA92"/><stop offset="0.0930233" stop-color="#48C994"/><stop offset="0.104651" stop-color="#48C995"/><stop offset="0.116279" stop-color="#48C996"/><stop offset="0.127907" stop-color="#48C997"/><stop offset="0.139535" stop-color="#47C899"/><stop offset="0.151163" stop-color="#47C89A"/><stop offset="0.162791" stop-color="#48C89B"/><stop offset="0.174419" stop-color="#48C79C"/><stop offset="0.186047" stop-color="#48C79E"/><stop offset="0.197674" stop-color="#48C69F"/><stop offset="0.209302" stop-color="#48C6A0"/><stop offset="0.22093" stop-color="#48C5A1"/><stop offset="0.232558" stop-color="#48C5A2"/><stop offset="0.244186" stop-color="#48C4A3"/><stop offset="0.255814" stop-color="#48C4A5"/><stop offset="0.267442" stop-color="#48C3A6"/><stop offset="0.27907" stop-color="#48C3A7"/><stop offset="0.290698" stop-color="#48C2A8"/><stop offset="0.302326" stop-color="#48C1A9"/><stop offset="0.313953" stop-color="#48C1AA"/><stop offset="0.325581" stop-color="#48C0AB"/><stop offset="0.337209" stop-color="#48BFAC"/><stop offset="0.348837" stop-color="#48BEAD"/><stop offset="0.360465" stop-color="#48BEAE"/><stop offset="0.372093" stop-color="#48BDAF"/><stop offset="0.383721" stop-color="#48BCB0"/><stop offset="0.395349" stop-color="#48BBB1"/><stop offset="0.406977" stop-color="#48BAB2"/><stop offset="0.418605" stop-color="#48BAB3"/><stop offset="0.430233" stop-color="#48B9B4"/><stop offset="0.44186" stop-color="#48B8B4"/><stop offset="0.453488" stop-color="#48B7B5"/><stop offset="0.465116" stop-color="#48B6B6"/><stop offset="0.476744" stop-color="#48B5B7"/><stop offset="0.488372" stop-color="#48B4B8"/><stop offset="0.5" stop-color="#48B3B9"/><stop offset="0.511628" stop-color="#48B2B9"/><stop offset="0.523256" stop-color="#48B1BA"/><stop offset="0.534884" stop-color="#48B0BB"/><stop offset="0.546512" stop-color="#48AEBC"/><stop offset="0.55814" stop-color="#48ADBC"/><stop offset="0.569767" stop-color="#48ACBD"/><stop offset="0.581395" stop-color="#48ABBE"/><stop offset="0.593023" stop-color="#48AABE"/><stop offset="0.604651" stop-color="#48A9BF"/><stop offset="0.616279" stop-color="#48A7C0"/><stop offset="0.627907" stop-color="#48A6C0"/><stop offset="0.639535" stop-color="#48A5C1"/><stop offset="0.651163" stop-color="#48A4C1"/><stop offset="0.662791" stop-color="#47A2C2"/><stop offset="0.674419" stop-color="#48A1C2"/><stop offset="0.686047" stop-color="#48A0C3"/><stop offset="0.697674" stop-color="#489EC3"/><stop offset="0.709302" stop-color="#489DC4"/><stop offset="0.72093" stop-color="#489BC4"/><stop offset="0.732558" stop-color="#489AC5"/><stop offset="0.744186" stop-color="#4899C5"/><stop offset="0.755814" stop-color="#4897C6"/><stop offset="0.767442" stop-color="#4896C6"/><stop offset="0.77907" stop-color="#4894C7"/><stop offset="0.790698" stop-color="#4892C7"/><stop offset="0.802326" stop-color="#4891C7"/><stop offset="0.813953" stop-color="#488FC8"/><stop offset="0.825581" stop-color="#488EC8"/><stop offset="0.837209" stop-color="#488CC8"/><stop offset="0.848837" stop-color="#488BC9"/><stop offset="0.860465" stop-color="#4889C9"/><stop offset="0.872093" stop-color="#4887C9"/><stop offset="0.883721" stop-color="#4885C9"/><stop offset="0.895349" stop-color="#4884CA"/><stop offset="0.906977" stop-color="#4882CA"/><stop offset="0.918605" stop-color="#4880CA"/><stop offset="0.930233" stop-color="#487FCA"/><stop offset="0.94186" stop-color="#487DCA"/><stop offset="0.953488" stop-color="#487BCA"/><stop offset="0.965116" stop-color="#4879CA"/><stop offset="0.976744" stop-color="#4877CA"/><stop offset="0.988372" stop-color="#4875CA"/><stop offset="1" stop-color="#4874CB"/></linearGradient><clipPath id="clip21"><rect x="848" y="62" width="2460" height="1011"/></clipPath><clipPath id="clip22"><rect x="848" y="62" width="2460" height="1011"/></clipPath><clipPath id="clip23"><rect x="848" y="62" width="2460" height="1011"/></clipPath><clipPath id="clip24"><rect x="848" y="62" width="2460" height="1011"/></clipPath></defs><g clip-path="url(#clip0)" transform="translate(19 -63)"><text font-family="Cambria Math,Cambria Math_MSFontService,sans-serif" font-weight="400" font-size="128" transform="matrix(1 0 0 1 2029.28 1282)">⨁<tspan font-family="Microsoft YaHei,Microsoft YaHei_MSFontService,sans-serif" font-weight="700" font-size="101" x="-454.165" y="-10">特征拼接</tspan></text><path d="M435.844 992.223 435.844 510.844 853.124 510.844 853.124 521.156 441 521.156 446.156 516 446.156 992.223ZM847.968 500.531 878.905 516 847.968 531.469Z" fill="#4874CB"/><path d="M0-5.15625 575.072-5.15625 575.157 409.344 564.845 409.346 564.76 0.00106602 569.917 5.15625 0 5.15625ZM585.383 403.936 570.424 435.123 554.45 404.443Z" fill="#4874CB" transform="matrix(1.83697e-16 1 1 -1.83697e-16 444 1403)"/><path d="M2088.16 975 2088.16 1161.64 2077.84 1161.64 2077.84 975ZM2098.47 1156.49 2083 1187.43 2067.53 1156.49Z" fill="#4874CB"/><path d="M5.15625-1.12302e-05 5.15655 139.92-5.15595 139.92-5.15625 1.12302e-05ZM15.469 134.763 0.000360892 165.701-15.4685 134.763Z" fill="#4874CB" transform="matrix(1 0 0 -1 2088 1468.7)"/><path d="M2160 1230.84 3305.5 1230.84 3305.5 1241.16 2160 1241.16ZM3300.34 1220.53 3331.28 1236 3300.34 1251.47Z" fill="#4874CB"/><g clip-path="url(#clip1)"><g clip-path="url(#clip2)"><g clip-path="url(#clip3)"><g clip-path="url(#clip4)"><path d="M433.284 351.197C433.284 311.914 465.129 280.068 504.413 280.068L1243.61 280.068C1282.89 280.068 1314.74 311.914 1314.74 351.197L1314.74 635.708C1314.74 674.992 1282.89 706.838 1243.61 706.838L504.413 706.838C465.129 706.838 433.284 674.992 433.284 635.708Z" stroke="#000000" stroke-width="2.84307" stroke-miterlimit="8" fill="#FFFFFF" fill-rule="evenodd" transform="matrix(1.00013 0 0 1 -410.465 694.611)"/><path d="M775.692 443.208C776.871 441.016 779.557 436.052 782.137 431.204 784.712 426.357 784.929 423.356 788.471 419.2 792.013 415.045 795.127 410.543 799.636 410.543 804.146 410.543 806.298 415.045 810.808 419.2 815.318 423.356 817.464 426.703 821.973 431.204 826.483 435.706 829.38 441.823 833.251 441.477 837.115 441.131 837.326 433.628 841.197 429.473 845.061 425.318 847.853 421.278 852.362 420.931 856.872 420.585 859.018 425.318 863.528 427.742 868.037 430.165 870.19 430.858 874.699 432.936 879.209 435.014 881.461 437.322 885.97 438.015 890.48 438.707 892.955 439.053 897.142 436.283 901.329 433.513 902.508 427.742 906.695 424.279 910.882 420.816 913.357 421.278 917.866 419.2 922.376 417.122 924.522 415.045 929.032 414.006 933.542 412.967 935.688 413.313 940.197 414.006 944.707 414.699 946.859 416.43 951.369 417.468 955.879 418.507 959.421 416.43 962.64 419.2 965.866 421.97 963.825 428.434 967.367 431.204 970.909 433.975 975.313 433.975 980.145 432.936 984.977 431.897 986.479 429.473 991.311 426.01 996.143 422.547 999.257 418.161 1004.09 415.737 1008.92 413.313 1010.75 415.737 1015.26 414.006 1019.77 412.274 1022.02 408.234 1026.53 407.195 1031.04 406.157 1033.19 406.388 1037.7 408.811 1042.21 411.235 1044.36 415.045 1048.87 419.2 1053.38 423.356 1055.52 426.01 1060.03 429.473 1064.54 432.936 1066.7 434.551 1071.21 436.283 1075.72 438.015 1078.83 440.092 1082.37 438.015 1085.91 435.937 1085.27 428.78 1088.82 426.01 1092.36 423.24 1095.47 424.971 1099.98 424.279 1104.49 423.586 1106.64 423.24 1111.15 422.547 1115.66 421.854 1118.45 423.702 1122.32 420.931 1126.18 418.161 1126.51 409.85 1130.37 408.811 1134.24 407.773 1137.03 414.006 1141.54 415.737 1146.05 417.468 1148.2 416.776 1152.71 417.468 1157.22 418.161 1159.36 416.776 1163.87 419.2 1168.38 421.624 1170.53 426.01 1175.04 429.473 1179.55 432.936 1181.7 434.898 1186.21 436.283 1190.72 437.668 1192.87 436.63 1197.38 436.283 1201.89 435.937 1204.03 436.745 1208.54 434.667 1213.05 432.589 1215.31 428.78 1219.82 426.01 1224.33 423.24 1226.47 422.317 1230.98 420.931 1235.49 419.546 1237.65 417.468 1242.16 419.2 1246.67 420.931 1248.81 427.049 1253.32 429.473 1257.83 431.897 1259.98 431.897 1264.49 431.204 1269 430.511 1271.15 428.088 1275.66 426.01 1280.17 423.932 1284.78 421.854 1286.82 420.931" stroke="url(#stroke5)" stroke-width="2.84307" stroke-miterlimit="8" fill="none" fill-rule="evenodd" transform="matrix(1.00013 0 0 1 -410.465 694.611)"/><path d="M775.692 509.955C777.733 507.395 782.348 501.373 786.858 496.404 791.367 491.435 793.297 488.875 798.129 485.262 802.961 481.648 806.075 481.648 810.907 478.487 815.739 475.325 817.563 473.669 822.073 469.603 826.582 465.538 829.051 457.407 833.238 458.31 837.425 459.214 838.604 470.055 842.791 474.12 846.978 478.185 849.447 477.131 853.956 478.487 858.466 479.841 860.612 481.197 865.122 480.745 869.631 480.293 871.778 479.39 876.287 476.228 880.797 473.066 883.049 468.248 887.558 465.086 892.068 461.924 894.214 461.021 898.724 460.569 903.233 460.117 905.702 459.214 909.889 462.828 914.076 466.441 916.223 472.163 919.442 478.487 922.668 484.81 922.345 488.725 925.887 494.146 929.429 499.566 932.543 505.438 937.052 505.438 941.562 505.438 943.708 499.114 948.218 494.146 952.728 489.177 954.874 485.714 959.384 480.745 963.893 475.776 966.039 471.862 970.549 469.603 975.059 467.345 977.205 469.603 981.715 469.603 986.224 469.603 988.37 468.7 992.88 469.603 997.39 470.506 999.641 472.313 1004.15 474.12 1008.66 475.927 1010.81 477.583 1015.32 478.487 1019.83 479.39 1021.97 478.487 1026.48 478.487 1030.99 478.487 1033.14 478.487 1037.65 478.487 1042.16 478.487 1044.95 475.325 1048.81 478.487 1052.68 481.648 1053.53 487.822 1056.75 494.146 1059.98 500.469 1060.94 505.889 1064.81 509.955 1068.68 514.02 1072.11 516.579 1075.97 514.321 1079.84 512.062 1080.05 504.986 1083.92 498.662 1087.78 492.339 1090.68 488.875 1095.19 483.004 1099.7 477.131 1102.17 475.475 1106.35 469.603 1110.54 463.731 1111.72 455.299 1115.91 453.944 1120.1 452.589 1122.57 458.763 1127.08 462.828 1131.59 466.893 1135.66 468.7 1138.24 474.12 1140.82 479.54 1137.27 485.262 1139.85 489.779 1142.43 494.296 1146.51 495.5 1151.01 496.404 1155.52 497.307 1158.96 497.759 1162.18 494.146 1165.4 490.532 1163.79 483.455 1167.01 478.487 1170.23 473.518 1173.67 471.862 1178.18 469.603 1182.69 467.345 1184.83 469.152 1189.34 467.345 1193.85 465.538 1196.97 458.763 1200.51 460.569 1204.05 462.376 1205.66 469.904 1206.95 476.228 1208.24 482.552 1206.62 485.714 1206.95 492.037 1207.27 498.361 1205.99 506.341 1208.56 507.696 1211.13 509.051 1216.18 503.631 1219.73 498.662 1223.27 493.693 1223.48 489.327 1226.06 483.004 1228.63 476.68 1228.96 470.506 1232.5 467.345 1236.05 464.183 1239.16 465.99 1243.66 467.345 1248.17 468.7 1250.33 469.603 1254.83 474.12 1259.34 478.637 1261.48 488.424 1265.99 489.779 1270.5 491.134 1272.97 485.714 1277.16 480.745 1281.35 475.776 1285.11 468.098 1286.82 465.086" stroke="url(#stroke6)" stroke-width="2.84307" stroke-miterlimit="8" fill="none" fill-rule="evenodd" transform="matrix(1.00013 0 0 1 -410.465 694.611)"/><path d="M775.692 650.378C777.708 647.742 782.689 641.781 786.827 635.956 790.964 630.138 792.447 627.365 796.268 621.54 800.083 615.717 802.204 606.983 805.703 606.983 809.201 606.983 810.69 615.301 813.55 621.54 816.415 627.78 817.371 631.8 819.914 638.034 822.457 644.274 824.262 652.456 826.167 652.456 828.077 652.456 828.394 643.859 829.349 638.034 830.304 632.216 829.671 629.3 830.943 623.482 832.215 617.658 832.531 609.063 835.713 609.063 838.895 609.063 843.244 617.658 846.742 623.482 850.241 629.3 850.452 632.216 853.001 638.034 855.544 643.859 856.816 652.872 859.359 652.456 861.909 652.041 863.075 642.196 865.618 635.956 868.161 629.716 868.8 627.365 871.982 621.54 875.165 615.717 878.558 606.567 881.417 606.983 884.283 607.399 883.961 617.242 886.187 623.482 888.414 629.716 888.948 637.619 892.446 638.034 895.945 638.456 899.977 630.969 903.475 625.56 906.974 620.153 906.341 610.726 909.84 611.142 913.338 611.558 917.687 621.404 920.869 627.638 924.051 633.878 922.773 642.06 925.639 642.06 928.505 642.06 931.898 633.462 935.074 627.638 938.256 621.819 938.15 613.221 941.333 613.221 944.515 613.221 948.013 621.819 950.879 627.638 953.739 633.462 953.633 635.82 955.544 642.06 957.454 648.294 958.403 652.314 960.314 658.554 962.224 664.794 963.18 672.97 965.084 672.97 966.995 672.97 967.528 664.379 969.755 658.554 971.982 652.729 972.937 649.956 976.113 644.138 979.295 638.313 982.056 635.541 985.554 629.716 989.053 623.897 989.586 618.212 993.401 615.301 997.216 612.39 999.976 615.301 1004.43 615.301 1008.88 615.301 1011.11 615.301 1015.56 615.301 1020.02 615.301 1022.46 612.39 1026.59 615.301 1030.73 618.212 1032.85 623.897 1036.03 629.716 1039.21 635.541 1039.42 638.313 1042.29 644.138 1045.15 649.956 1047.7 658.554 1050.24 658.554 1052.78 658.554 1053.63 649.956 1054.9 644.138 1056.18 638.313 1054.59 629.716 1056.5 629.716 1058.4 629.716 1060.95 638.313 1064.45 644.138 1067.95 649.956 1071.03 652.314 1073.89 658.554 1076.75 664.794 1076.75 668.814 1078.66 675.054 1080.57 681.288 1082.06 689.47 1083.33 689.47 1084.6 689.47 1084.28 680.872 1084.91 675.054 1085.55 669.229 1086.19 666.457 1086.51 660.632 1086.83 654.813 1086.51 652.041 1086.51 646.216 1086.51 640.391 1084.28 637.203 1086.51 631.8 1088.74 626.391 1093.08 621.54 1097.54 619.46 1101.99 617.38 1104.11 620.709 1108.57 621.54 1113.02 622.371 1115.46 620.153 1119.6 623.482 1123.73 626.807 1125 635.541 1129.14 638.034 1133.27 640.534 1136.03 639.287 1140.17 635.956 1144.3 632.631 1145.47 623.618 1149.61 621.54 1153.74 619.46 1156.18 621.819 1160.63 625.56 1165.08 629.3 1167.2 637.066 1171.66 639.976 1176.11 642.891 1178.23 640.807 1182.69 639.976 1187.14 639.144 1189.37 638.456 1193.82 635.956 1198.28 633.462 1200.4 630.553 1204.85 627.638 1209.3 624.729 1211.43 622.787 1215.88 621.54 1220.33 620.292 1222.46 618.628 1226.91 621.54 1231.36 624.449 1234.12 630.138 1237.94 635.956 1241.75 641.781 1241.97 646.632 1245.78 650.378 1249.61 654.119 1252.47 656.197 1256.92 654.534 1261.37 652.872 1263.49 644.138 1267.95 642.06 1272.4 639.976 1275.16 640.807 1278.98 644.138 1282.79 647.463 1285.45 655.645 1286.82 658.554" stroke="url(#stroke7)" stroke-width="2.84307" stroke-miterlimit="8" fill="none" fill-rule="evenodd" transform="matrix(1.00013 0 0 1 -410.465 694.611)"/><text font-family="Microsoft YaHei,Microsoft YaHei_MSFontService,sans-serif" font-weight="400" font-size="55" transform="matrix(0.620389 0 0 0.620306 603.529 1240)">•<tspan font-size="55" x="0.513849" y="45.139">•</tspan><tspan font-size="55" x="0" y="85.4417">•</tspan></text><path d="M757.083 644.808C733.784 644.808 714.902 641.663 714.902 637.78L714.902 549.177C714.902 545.295 696.02 542.147 672.722 542.147 696.02 542.147 714.902 539 714.902 535.117L714.902 446.517C714.902 442.634 733.784 439.487 757.083 439.487" stroke="#4874CB" stroke-width="2.84307" stroke-miterlimit="8" fill="none" fill-rule="evenodd" transform="matrix(1.00013 0 0 1 -410.465 694.611)"/><text font-family="Microsoft YaHei,Microsoft YaHei_MSFontService,sans-serif" font-weight="700" font-size="147" transform="matrix(0.620389 0 0 0.620306 282.038 1072)">输入数据<tspan font-family="Times New Roman,Times New Roman_MSFontService,sans-serif" font-weight="400" font-size="128" x="-407.9" y="240.204">N</tspan><tspan font-weight="400" font-size="128" x="-315.087" y="240.204">维时</tspan><tspan font-weight="400" font-size="128" x="-407.9" y="393.354">间序列</tspan></text></g></g></g></g><g clip-path="url(#clip8)"><g clip-path="url(#clip9)"><g clip-path="url(#clip10)"><g clip-path="url(#clip11)"><path d="M845.43 468.87C845.43 399.75 901.46 343.717 970.584 343.717L1580.74 343.717C1649.86 343.717 1705.89 399.75 1705.89 468.87L1705.89 969.462C1705.89 1038.59 1649.86 1094.62 1580.74 1094.62L970.584 1094.62C901.46 1094.62 845.43 1038.59 845.43 969.462Z" stroke="#000000" stroke-width="3.06194" stroke-miterlimit="8" fill="#FFFFFF" fill-rule="evenodd" transform="matrix(1.00023 0 0 1 2524.05 482.953)"/><path d="M927.267 396.828 1644.76 396.828 1644.76 522.423 927.267 522.423Z" fill="#ACD78E" transform="matrix(1.00023 0 0 1 2524.05 482.953)"/><text fill="#44546A" font-family="Microsoft YaHei,Microsoft YaHei_MSFontService,sans-serif" font-weight="400" font-size="128" transform="matrix(0.668213 0 0 0.66806 3552.97 973)">异常得分计算</text><path d="M927.267 607.267 1644.76 607.267 1644.76 733.53 927.267 733.53Z" fill="#ACD78E" transform="matrix(1.00023 0 0 1 2524.05 482.953)"/><text fill="#44546A" font-family="Microsoft YaHei,Microsoft YaHei_MSFontService,sans-serif" font-weight="400" font-size="128" transform="matrix(0.668213 0 0 0.66806 3552.97 1184)">异常阈值确定</text><path d="M927.267 818.374 1644.76 818.374 1644.76 943.969 927.267 943.969Z" fill="#ACD78E" transform="matrix(1.00023 0 0 1 2524.05 482.953)"/><text fill="#44546A" font-family="Microsoft YaHei,Microsoft YaHei_MSFontService,sans-serif" font-weight="400" font-size="128" transform="matrix(0.668213 0 0 0.66806 3638.73 1395)">异常检测</text><path d="M1289.46 522.423 1289.46 600.205 1282.57 600.205 1282.57 522.423ZM1301.05 581.273 1286.02 607.042 1270.98 581.273C1270.02 579.63 1270.58 577.521 1272.23 576.562 1273.87 575.603 1275.97 576.158 1276.94 577.802L1288.99 598.47 1283.04 598.47 1295.09 577.802C1296.06 576.158 1298.17 575.603 1299.81 576.562 1301.45 577.521 1302.01 579.63 1301.05 581.273Z" fill="#4874CB" transform="matrix(1.00023 0 0 1 2524.05 482.953)"/><path d="M1289.46 733.53 1289.46 811.312 1282.57 811.312 1282.57 733.53ZM1301.05 792.379 1286.02 818.146 1270.98 792.379C1270.02 790.736 1270.58 788.625 1272.23 787.67 1273.87 786.708 1275.97 787.262 1276.94 788.905L1288.99 809.575 1283.04 809.575 1295.09 788.905C1296.06 787.262 1298.17 786.708 1299.81 787.67 1301.45 788.625 1302.01 790.736 1301.05 792.379Z" fill="#4874CB" transform="matrix(1.00023 0 0 1 2524.05 482.953)"/><text font-family="Microsoft YaHei,Microsoft YaHei_MSFontService,sans-serif" font-weight="700" font-size="147" transform="matrix(0.668213 0 0 0.66806 3516.22 1541)">异常检测模块</text></g></g></g></g><g clip-path="url(#clip12)"><g clip-path="url(#clip13)"><g clip-path="url(#clip14)"><g clip-path="url(#clip15)"><path d="M1546.7 409.961 2316.31 409.961 2316.31 500.384 1546.7 500.384Z" stroke="#4874CB" stroke-width="7.01115" stroke-miterlimit="8" fill="#FFFFFF" transform="matrix(1 0 0 1.0008 852.485 1097.25)"/><path d="M1546.7 405.202 2297.28 405.202 2297.28 495.624 1546.7 495.624Z" stroke="#4874CB" stroke-width="7.01115" stroke-miterlimit="8" fill="#FFFFFF" transform="matrix(1 0 0 1.0008 852.485 1097.25)"/><path d="M1527.67 777.09 2316.31 777.09 2316.31 885.869 1527.67 885.869Z" stroke="#B58B02" stroke-width="7.01115" stroke-miterlimit="8" fill="#FFFFFF" transform="matrix(1 0 0 1.0008 852.485 1097.25)"/><path d="M1527.67 526.219 2316.31 526.219 2316.31 621.4 1527.67 621.4Z" stroke="#F5B7BF" stroke-width="7.01115" stroke-miterlimit="8" fill="#FFFFFF" transform="matrix(1 0 0 1.0008 852.485 1097.25)"/><path d="M1527.67 412.001 2316.31 412.001 2316.31 506.502 1527.67 506.502Z" stroke="#A9E9E4" stroke-width="7.01115" stroke-miterlimit="8" fill="#FFFFFF" transform="matrix(1 0 0 1.0008 852.485 1097.25)"/><path d="M28.2146 540.385C28.2146 454.649 97.7176 385.146 183.454 385.146L2325.94 385.146C2411.68 385.146 2481.18 454.649 2481.18 540.385L2481.18 1161.32C2481.18 1247.06 2411.68 1316.57 2325.94 1316.57L183.454 1316.57C97.7176 1316.57 28.2146 1247.06 28.2146 1161.32Z" stroke="#000000" stroke-width="3.11606" stroke-miterlimit="8" fill="#FFFFFF" fill-rule="evenodd" transform="matrix(1 0 0 1.0008 852.485 1097.25)"/><text fill="#FFFFFF" font-family="Times New Roman,Times New Roman_MSFontService,sans-serif" font-weight="400" font-size="83" transform="matrix(0.679869 0 0 0.680412 1988.5 1967)">Univariate</text><path d="M90.7625 453.812C92.0318 451.409 94.9172 445.969 97.687 440.656 100.457 435.342 100.687 432.053 104.496 427.499 108.304 422.944 111.651 418.011 116.498 418.011 121.345 418.011 123.653 422.944 128.5 427.499 133.347 432.053 135.656 435.722 140.502 440.656 145.35 445.59 148.466 452.294 152.62 451.915 156.775 451.536 157.006 443.312 161.16 438.758 165.315 434.204 168.315 429.776 173.163 429.396 178.009 429.016 180.318 434.204 185.165 436.86 190.012 439.517 192.32 440.276 197.167 442.553 202.014 444.83 204.438 447.361 209.285 448.119 214.132 448.879 216.786 449.258 221.287 446.222 225.788 443.185 227.057 436.86 231.558 433.065 236.059 429.27 238.714 429.776 243.56 427.499 248.408 425.221 250.716 422.944 255.563 421.806 260.41 420.667 262.718 421.046 267.565 421.806 272.412 422.564 274.72 424.463 279.567 425.601 284.414 426.739 288.223 424.463 291.685 427.499 295.147 430.534 292.954 437.619 296.763 440.656 300.571 443.692 305.303 443.692 310.496 442.553 315.69 441.414 317.305 438.758 322.499 434.962 327.691 431.167 331.038 426.36 336.232 423.703 341.425 421.046 343.387 423.703 348.234 421.806 353.081 419.908 355.505 415.48 360.352 414.341 365.198 413.203 367.507 413.456 372.354 416.112 377.201 418.769 379.509 422.944 384.356 427.499 389.203 432.053 391.511 434.962 396.358 438.758 401.206 442.553 403.514 444.324 408.361 446.222 413.208 448.119 416.554 450.397 420.363 448.119 424.172 445.842 423.479 437.999 427.287 434.962 431.096 431.926 434.442 433.824 439.29 433.065 444.137 432.306 446.445 431.926 451.292 431.167 456.139 430.408 459.139 432.433 463.294 429.396 467.449 426.36 467.795 417.251 471.949 416.112 476.104 414.974 479.105 421.806 483.952 423.703 488.799 425.601 491.107 424.842 495.954 425.601 500.801 426.36 503.109 424.842 507.957 427.499 512.803 430.155 515.112 434.962 519.958 438.758 524.806 442.553 527.114 444.704 531.961 446.222 536.808 447.74 539.116 446.602 543.963 446.222 548.81 445.842 551.118 446.728 555.966 444.451 560.812 442.174 563.236 437.999 568.083 434.962 572.93 431.926 575.238 430.915 580.085 429.396 584.933 427.878 587.24 425.601 592.088 427.499 596.934 429.396 599.243 436.101 604.09 438.758 608.937 441.414 611.245 441.414 616.092 440.656 620.939 439.896 623.247 437.24 628.094 434.962 632.942 432.686 637.904 430.408 640.097 429.396" stroke="url(#stroke16)" stroke-width="3.11606" stroke-miterlimit="8" fill="none" fill-rule="evenodd" transform="matrix(1 0 0 1.0008 852.485 1097.25)"/><path d="M90.7625 519.085C92.9197 516.082 97.8012 509.014 102.569 503.183 107.337 497.353 109.381 494.349 114.489 490.108 119.598 485.868 122.89 485.868 127.999 482.157 133.107 478.446 135.038 476.503 139.806 471.732 144.573 466.962 147.185 457.421 151.612 458.48 156.039 459.54 157.288 472.262 161.716 477.033 166.144 481.803 168.754 480.567 173.523 482.157 178.291 483.747 180.561 485.337 185.33 484.808 190.097 484.277 192.368 483.217 197.136 479.507 201.904 475.796 204.288 470.142 209.056 466.432 213.824 462.721 216.095 461.661 220.863 461.131 225.631 460.601 228.242 459.54 232.669 463.781 237.097 468.022 239.368 474.736 242.773 482.157 246.179 489.578 245.839 494.172 249.585 500.533 253.331 506.894 256.623 513.784 261.391 513.784 266.16 513.784 268.43 506.364 273.199 500.533 277.966 494.702 280.237 490.638 285.005 484.808 289.773 478.977 292.043 474.383 296.812 471.732 301.58 469.082 303.85 471.732 308.618 471.732 313.386 471.732 315.657 470.672 320.425 471.732 325.193 472.792 327.577 474.913 332.345 477.033 337.113 479.153 339.384 481.097 344.152 482.157 348.92 483.217 351.19 482.157 355.958 482.157 360.726 482.157 362.997 482.157 367.765 482.157 372.533 482.157 375.485 478.446 379.572 482.157 383.659 485.868 384.567 493.112 387.973 500.533 391.379 507.954 392.4 514.315 396.487 519.085 400.574 523.856 404.207 526.86 408.294 524.21 412.381 521.559 412.608 513.255 416.694 505.833 420.782 498.413 423.847 494.349 428.615 487.458 433.383 480.567 435.994 478.623 440.422 471.732 444.849 464.841 446.098 454.947 450.525 453.356 454.953 451.766 457.564 459.011 462.332 463.781 467.1 468.552 471.414 470.672 474.139 477.033 476.863 483.394 473.117 490.108 475.842 495.409 478.566 500.71 482.88 502.123 487.648 503.183 492.416 504.243 496.049 504.773 499.455 500.533 502.861 496.292 501.158 487.988 504.563 482.157 507.97 476.326 511.602 474.383 516.37 471.732 521.139 469.082 523.409 471.202 528.177 469.082 532.945 466.962 536.237 459.011 539.984 461.131 543.73 463.251 545.433 472.085 546.795 479.507 548.157 486.928 546.455 490.638 546.795 498.059 547.135 505.481 545.774 514.845 548.498 516.435 551.223 518.025 556.558 511.665 560.304 505.833 564.051 500.003 564.278 494.879 567.003 487.458 569.727 480.037 570.068 472.792 573.814 469.082 577.561 465.372 580.853 467.491 585.621 469.082 590.389 470.672 592.659 471.732 597.427 477.033 602.196 482.334 604.466 493.819 609.235 495.409 614.003 496.999 616.613 490.638 621.041 484.808 625.469 478.977 629.442 469.966 631.258 466.432" stroke="url(#stroke17)" stroke-width="3.11606" stroke-miterlimit="8" fill="none" fill-rule="evenodd" transform="matrix(1 0 0 1.0008 852.485 1097.25)"/><path d="M90.7625 626.482C92.9279 623.596 98.2846 617.062 102.73 610.68 107.174 604.298 108.77 601.259 112.873 594.878 116.976 588.496 119.255 578.923 123.016 578.923 126.777 578.923 128.372 588.04 131.45 594.878 134.527 601.715 135.552 606.122 138.288 612.959 141.023 619.797 142.961 628.762 145.012 628.762 147.063 628.762 147.405 619.341 148.431 612.959 149.457 606.578 148.773 603.386 150.141 597.005 151.508 590.623 151.85 581.203 155.269 581.203 158.688 581.203 163.361 590.623 167.122 597.005 170.883 603.386 171.111 606.578 173.847 612.959 176.582 619.341 177.95 629.217 180.685 628.762 183.42 628.306 184.673 617.517 187.409 610.68 190.144 603.843 190.828 601.259 194.247 594.878 197.666 588.496 201.313 578.468 204.39 578.923 207.467 579.38 207.125 590.168 209.519 597.005 211.912 603.843 212.482 612.503 216.243 612.959 220.004 613.415 224.335 605.21 228.096 599.284 231.857 593.358 231.173 583.026 234.934 583.482 238.695 583.937 243.368 594.726 246.787 601.563 250.206 608.401 248.838 617.366 251.916 617.366 254.993 617.366 258.64 607.945 262.059 601.563 265.478 595.182 265.364 585.761 268.783 585.761 272.203 585.761 275.964 595.182 279.041 601.563 282.118 607.945 282.004 610.528 284.055 617.366 286.107 624.203 287.132 628.61 289.184 635.447 291.235 642.284 292.261 651.249 294.313 651.249 296.364 651.249 296.933 641.829 299.327 635.447 301.72 629.066 302.746 626.027 306.165 619.645 309.584 613.263 312.547 610.225 316.308 603.843 320.069 597.461 320.639 591.231 324.742 588.04 328.845 584.849 331.809 588.04 336.595 588.04 341.382 588.04 343.775 588.04 348.562 588.04 353.349 588.04 355.97 584.849 360.415 588.04 364.86 591.231 367.139 597.461 370.559 603.843 373.978 610.225 374.205 613.263 377.282 619.645 380.359 626.027 383.095 635.447 385.83 635.447 388.566 635.447 389.477 626.027 390.845 619.645 392.212 613.263 390.503 603.843 392.554 603.843 394.605 603.843 397.341 613.263 401.102 619.645 404.863 626.027 408.168 628.61 411.245 635.447 414.322 642.284 414.322 646.691 416.374 653.529 418.425 660.366 420.021 669.331 421.389 669.331 422.756 669.331 422.414 659.91 423.098 653.529 423.782 647.147 424.466 644.108 424.808 637.727 425.15 631.345 424.808 628.306 424.808 621.924 424.808 615.542 422.414 612.047 424.808 606.122 427.201 600.196 431.874 594.878 436.661 592.598 441.447 590.319 443.727 593.966 448.514 594.878 453.3 595.79 455.921 593.358 460.366 597.005 464.811 600.652 466.179 610.225 470.624 612.959 475.069 615.694 478.031 614.327 482.476 610.68 486.921 607.033 488.175 597.157 492.62 594.878 497.064 592.598 499.686 595.182 504.473 599.284 509.259 603.386 511.539 611.896 516.326 615.086 521.112 618.278 523.392 615.998 528.179 615.086 532.965 614.175 535.359 613.415 540.145 610.68 544.932 607.945 547.212 604.754 551.998 601.563 556.785 598.372 559.064 596.245 563.851 594.878 568.638 593.51 570.917 591.687 575.703 594.878 580.49 598.068 583.453 604.298 587.556 610.68 591.659 617.062 591.887 622.38 595.99 626.482 600.093 630.585 603.17 632.864 607.957 631.041 612.744 629.217 615.023 619.645 619.81 617.366 624.597 615.086 627.56 615.998 631.663 619.645 635.766 623.292 638.615 632.256 640.097 635.447" stroke="url(#stroke18)" stroke-width="3.11606" stroke-miterlimit="8" fill="none" fill-rule="evenodd" transform="matrix(1 0 0 1.0008 852.485 1097.25)"/><text font-family="Microsoft YaHei,Microsoft YaHei_MSFontService,sans-serif" font-weight="400" font-size="55" transform="matrix(0.679869 0 0 0.680412 1256.79 1650)">•<tspan font-size="55" x="0" y="69.0758">•</tspan><tspan font-size="55" x="0" y="35.2727">•</tspan><tspan font-size="128" x="470.307" y="57.3182">单变量注</tspan><tspan font-size="128" x="470.307" y="211.636">意力机制</tspan></text><path d="M1194.19 505.483C1195.86 502.386 1199.64 495.379 1203.27 488.535 1206.91 481.691 1207.21 477.453 1212.21 471.586 1217.2 465.72 1221.6 459.364 1227.95 459.364 1234.31 459.364 1237.34 465.72 1243.7 471.586 1250.05 477.453 1253.09 482.179 1259.44 488.535 1265.8 494.89 1269.89 503.527 1275.34 503.038 1280.79 502.55 1281.09 491.957 1286.54 486.09 1292 480.223 1295.93 474.52 1302.29 474.031 1308.65 473.542 1311.68 480.223 1318.03 483.646 1324.39 487.068 1327.42 488.046 1333.78 490.979 1340.14 493.913 1343.32 497.172 1349.68 498.149 1356.03 499.127 1359.52 499.616 1365.42 495.705 1371.33 491.794 1373 483.646 1378.9 478.757 1384.8 473.868 1388.29 474.52 1394.64 471.586 1401 468.653 1404.03 465.72 1410.39 464.253 1416.74 462.787 1419.78 463.276 1426.13 464.253 1432.49 465.231 1435.52 467.676 1441.88 469.142 1448.24 470.609 1453.23 467.676 1457.77 471.586 1462.32 475.498 1459.44 484.623 1464.44 488.535 1469.43 492.445 1475.64 492.445 1482.45 490.979 1489.27 489.512 1491.39 486.09 1498.2 481.201 1505.01 476.313 1509.4 470.12 1516.22 466.698 1523.03 463.276 1525.61 466.698 1531.96 464.253 1538.32 461.809 1541.5 456.105 1547.86 454.639 1554.21 453.172 1557.25 453.498 1563.6 456.92 1569.96 460.342 1572.99 465.72 1579.35 471.586 1585.71 477.453 1588.74 481.201 1595.09 486.09 1601.45 490.979 1604.48 493.261 1610.84 495.705 1617.2 498.149 1621.59 501.082 1626.59 498.149 1631.58 495.216 1630.67 485.112 1635.67 481.201 1640.67 477.29 1645.06 479.735 1651.42 478.757 1657.77 477.779 1660.8 477.29 1667.16 476.313 1673.52 475.334 1677.45 477.942 1682.91 474.031 1688.36 470.12 1688.81 458.387 1694.26 456.92 1699.71 455.454 1703.65 464.253 1710.01 466.698 1716.36 469.142 1719.4 468.165 1725.75 469.142 1732.11 470.12 1735.14 468.165 1741.5 471.586 1747.85 475.009 1750.89 481.201 1757.24 486.09 1763.6 490.979 1766.63 493.749 1772.99 495.705 1779.35 497.661 1782.38 496.193 1788.74 495.705 1795.09 495.216 1798.12 496.357 1804.48 493.424 1810.84 490.49 1814.02 485.112 1820.38 481.201 1826.73 477.29 1829.77 475.986 1836.12 474.031 1842.48 472.076 1845.51 469.142 1851.87 471.586 1858.22 474.031 1861.26 482.668 1867.61 486.09 1873.97 489.512 1877 489.512 1883.36 488.535 1889.72 487.557 1892.75 484.135 1899.11 481.201 1905.46 478.268 1911.97 475.334 1914.85 474.031" stroke="url(#stroke19)" stroke-width="3.11606" stroke-miterlimit="8" fill="none" fill-rule="evenodd" transform="matrix(1 0 0 1.0008 852.485 1097.25)"/><text font-family="Times New Roman,Times New Roman_MSFontService,sans-serif" font-weight="400" font-size="128" transform="matrix(0.679869 0 0 0.680412 1829.84 2037)">Time2<tspan font-size="128" x="329" y="0">vec</tspan><tspan font-family="Microsoft YaHei,Microsoft YaHei_MSFontService,sans-serif" font-size="128" x="507.673" y="0">编码</tspan></text><path d="M1235.32 1038.84 1909.75 1038.84 1909.75 1167.33 1235.32 1167.33Z" fill="#ACD78E" transform="matrix(1 0 0 1.0008 852.485 1097.25)"/><text fill="#44546A" font-family="Times New Roman,Times New Roman_MSFontService,sans-serif" font-weight="400" font-size="128" transform="matrix(0.679869 0 0 0.680412 2124.52 2232)">Uaformer<tspan font-family="Microsoft YaHei,Microsoft YaHei_MSFontService,sans-serif" font-size="128" x="499.01" y="0">网络层</tspan></text><path d="M688.388 480.512 1123.59 483.101C1125.74 483.114 1127.47 484.868 1127.46 487.019 1127.45 489.17 1125.69 490.904 1123.54 490.891L688.347 488.302C686.192 488.289 684.458 486.535 684.472 484.384 684.485 482.232 686.239 480.499 688.388 480.512ZM1102.26 469.872 1131.3 487.042 1102.05 503.866C1100.19 504.939 1097.81 504.297 1096.74 502.432 1095.66 500.568 1096.3 498.186 1098.17 497.113L1121.62 483.62 1121.58 490.349 1098.29 476.577C1096.44 475.482 1095.83 473.094 1096.92 471.242 1098.02 469.39 1100.4 468.776 1102.26 469.872Z" fill="#4874CB" transform="matrix(1 0 0 1.0008 852.485 1097.25)"/><path d="M1557.06 814.089 1559.9 1007.58C1559.93 1009.73 1558.22 1011.5 1556.06 1011.53 1553.92 1011.56 1552.15 1009.84 1552.11 1007.69L1549.26 814.197C1549.23 812.049 1550.95 810.281 1553.11 810.247 1555.25 810.213 1557.02 811.933 1557.06 814.089ZM1572.69 985.98 1556.12 1015.37 1538.7 986.483C1537.58 984.641 1538.18 982.247 1540.02 981.132 1541.86 980.024 1544.25 980.616 1545.37 982.458L1559.34 1005.63 1552.62 1005.72 1565.9 982.159C1566.96 980.283 1569.33 979.623 1571.21 980.677 1573.08 981.731 1573.75 984.11 1572.69 985.98Z" fill="#4874CB" transform="matrix(1 0 0 1.0008 852.485 1097.25)"/><path d="M1916.89 1105.31 2473.93 1105.31C2476.08 1105.31 2477.82 1107.06 2477.82 1109.21 2477.82 1111.35 2476.08 1113.1 2473.93 1113.1L1916.89 1113.1C1914.74 1113.1 1912.99 1111.35 1912.99 1109.21 1912.99 1107.06 1914.74 1105.31 1916.89 1105.31ZM2452.52 1092.21 2481.66 1109.21 2452.52 1126.2C2450.66 1127.29 2448.28 1126.66 2447.19 1124.8 2446.11 1122.95 2446.73 1120.56 2448.6 1119.47L2471.96 1105.84 2471.96 1112.57 2448.6 1098.94C2446.73 1097.85 2446.11 1095.47 2447.19 1093.61 2448.28 1091.75 2450.66 1091.13 2452.52 1092.21Z" fill="#4874CB" transform="matrix(1 0 0 1.0008 852.485 1097.25)"/><text fill="#E54C5E" font-family="Microsoft YaHei,Microsoft YaHei_MSFontService,sans-serif" font-weight="400" font-size="128" transform="matrix(0.679869 0 0 0.680412 2784.52 2161)">时间维度特征<tspan fill="#000000" font-weight="700" font-size="147" x="-1549.94" y="332.152">时间维度特征学习模块</tspan></text><path d="M1193.85 705.704 1552.82 705.704 1552.82 796.127 1193.85 796.127Z" stroke="#E54C5E" stroke-width="7.01115" stroke-miterlimit="8" fill="#FFFFFF" transform="matrix(1 0 0 1.0008 852.485 1097.25)"/><path d="M1552.82 705.704 1911.79 705.704 1911.79 796.127 1552.82 796.127Z" stroke="#E54C5E" stroke-width="7.01115" stroke-miterlimit="8" fill="#FFFFFF" transform="matrix(1 0 0 1.0008 852.485 1097.25)"/><path d="M1196.91 771.311C1198.57 768.096 1202.34 760.807 1205.96 753.696 1209.58 746.578 1209.88 742.179 1214.86 736.081 1219.83 729.982 1224.21 723.374 1230.54 723.374 1236.88 723.374 1239.9 729.982 1246.23 736.081 1252.56 742.179 1255.58 747.088 1261.92 753.696 1268.25 760.297 1272.32 769.279 1277.75 768.769 1283.18 768.266 1283.48 757.252 1288.92 751.153 1294.34 745.055 1298.26 739.126 1304.6 738.616 1310.94 738.113 1313.95 745.055 1320.29 748.61 1326.62 752.173 1329.64 753.186 1335.97 756.232 1342.31 759.284 1345.47 762.67 1351.81 763.69 1358.15 764.703 1361.61 765.213 1367.5 761.147 1373.38 757.082 1375.03 748.61 1380.92 743.532 1386.8 738.446 1390.27 739.126 1396.61 736.081 1402.94 733.028 1405.96 729.982 1412.29 728.452 1418.63 726.929 1421.64 727.439 1427.98 728.452 1434.31 729.472 1437.33 732.015 1443.66 733.538 1450 735.061 1454.97 732.015 1459.5 736.081 1464.02 740.146 1461.16 749.63 1466.14 753.696 1471.11 757.761 1477.3 757.761 1484.09 756.232 1490.87 754.709 1492.99 751.153 1499.77 746.075 1506.56 740.989 1510.93 734.551 1517.72 730.995 1524.51 727.439 1527.07 730.995 1533.4 728.452 1539.74 725.916 1542.91 719.988 1549.24 718.458 1555.58 716.935 1558.59 717.275 1564.93 720.831 1571.27 724.387 1574.28 729.982 1580.61 736.081 1586.95 742.179 1589.97 746.075 1596.31 751.153 1602.63 756.232 1605.65 758.605 1611.99 761.147 1618.33 763.69 1622.7 766.736 1627.67 763.69 1632.65 760.637 1631.75 750.14 1636.72 746.075 1641.7 742.009 1646.08 744.545 1652.41 743.532 1658.74 742.512 1661.76 742.009 1668.1 740.989 1674.43 739.976 1678.35 742.682 1683.78 738.616 1689.21 734.551 1689.66 722.354 1695.1 720.831 1700.52 719.308 1704.45 728.452 1710.78 730.995 1717.12 733.538 1720.13 732.518 1726.47 733.538 1732.8 734.551 1735.82 732.518 1742.15 736.081 1748.49 739.636 1751.51 746.075 1757.84 751.153 1764.17 756.232 1767.19 759.115 1773.53 761.147 1779.86 763.18 1782.87 761.657 1789.21 761.147 1795.55 760.637 1798.56 761.827 1804.9 758.775 1811.23 755.729 1814.4 750.14 1820.74 746.075 1827.07 742.009 1830.08 740.649 1836.42 738.616 1842.76 736.584 1845.77 733.538 1852.11 736.081 1858.44 738.616 1861.46 747.597 1867.79 751.153 1874.13 754.709 1877.15 754.709 1883.48 753.696 1889.81 752.676 1892.83 749.12 1899.17 746.075 1905.5 743.022 1911.98 739.976 1914.85 738.616" stroke="url(#stroke20)" stroke-width="3.11606" stroke-miterlimit="8" fill="none" fill-rule="evenodd" transform="matrix(1 0 0 1.0008 852.485 1097.25)"/><path d="M1373.34 705.704 1373.34 796.229" stroke="#E54C5E" stroke-width="7.01115" stroke-miterlimit="8" fill="none" fill-rule="evenodd" transform="matrix(1 0 0 1.0008 852.485 1097.25)"/><path d="M1732.31 705.704 1732.31 796.229" stroke="#E54C5E" stroke-width="7.01115" stroke-miterlimit="8" fill="none" fill-rule="evenodd" transform="matrix(1 0 0 1.0008 852.485 1097.25)"/><path d="M1553.66 505.47 1554.26 687.055C1554.26 689.21 1552.52 690.958 1550.37 690.964 1548.22 690.971 1546.47 689.238 1546.46 687.082L1545.87 505.495C1545.86 503.344 1547.6 501.594 1549.75 501.588 1551.9 501.58 1553.65 503.319 1553.66 505.47ZM1567.29 665.607 1550.39 694.799 1533.29 665.719C1532.2 663.865 1532.82 661.478 1534.68 660.388 1536.53 659.298 1538.92 659.917 1540.01 661.772L1553.72 685.097 1546.99 685.117 1560.54 661.705C1561.62 659.843 1564 659.207 1565.87 660.285 1567.73 661.363 1568.36 663.746 1567.29 665.607Z" fill="#4874CB" transform="matrix(1 0 0 1.0008 852.485 1097.25)"/><text font-family="Microsoft YaHei,Microsoft YaHei_MSFontService,sans-serif" font-weight="400" font-size="128" transform="matrix(0.679869 0 0 0.680412 2458.35 1734)">单变量<tspan font-size="128" x="385" y="0">序列分段划分</tspan></text></g></g></g></g><g clip-path="url(#clip21)"><g clip-path="url(#clip22)"><g clip-path="url(#clip23)"><g clip-path="url(#clip24)"><path d="M136.283 472.797C136.283 385.651 206.93 315.004 294.076 315.004L2380.53 315.004C2467.67 315.004 2538.32 385.651 2538.32 472.797L2538.32 1103.95C2538.32 1191.1 2467.67 1261.74 2380.53 1261.74L294.076 1261.74C206.93 1261.74 136.283 1191.1 136.283 1103.95Z" stroke="#000000" stroke-width="3.16269" stroke-miterlimit="8" fill="#FFFFFF" fill-rule="evenodd" transform="matrix(1 0 0 1.00016 742.424 -237.906)"/><text fill="#FFFFFF" font-family="Arial,Arial_MSFontService,sans-serif" font-weight="400" font-size="83" transform="matrix(0.690042 0 0 0.690151 1872.37 570)">Spatial Features<tspan fill="#000000" font-family="Microsoft YaHei,Microsoft YaHei_MSFontService,sans-serif" font-weight="700" font-size="147" x="-229.689" y="602.767">空间维度特征学习模块</tspan><tspan fill="#000000" font-family="Microsoft YaHei,Microsoft YaHei_MSFontService,sans-serif" font-size="128" x="-1407.14" y="518.727">全局静态图结构</tspan></text><path d="M942.942 475.094C942.942 462.136 952.983 451.633 965.369 451.633 977.755 451.633 987.795 462.136 987.795 475.094 987.795 488.052 977.755 498.555 965.369 498.555 952.983 498.555 942.942 488.052 942.942 475.094Z" stroke="#2E54A1" stroke-width="3.16269" stroke-miterlimit="8" fill="#A9E9E4" fill-rule="evenodd" transform="matrix(1 0 0 1.00016 742.424 -237.906)"/><path d="M814.595 593.436C814.595 580.288 824.787 569.63 837.366 569.63 849.945 569.63 860.137 580.288 860.137 593.436 860.137 606.584 849.945 617.243 837.366 617.243 824.787 617.243 814.595 606.584 814.595 593.436Z" stroke="#2E54A1" stroke-width="3.16269" stroke-miterlimit="8" fill="#F5B7BF" fill-rule="evenodd" transform="matrix(1 0 0 1.00016 742.424 -237.906)"/><path d="M898.09 715.919C898.09 702.96 908.13 692.457 920.516 692.457 932.902 692.457 942.942 702.96 942.942 715.919 942.942 728.878 932.902 739.38 920.516 739.38 908.13 739.38 898.09 728.878 898.09 715.919Z" stroke="#2E54A1" stroke-width="3.16269" stroke-miterlimit="8" fill="#E54C5E" fill-rule="evenodd" transform="matrix(1 0 0 1.00016 742.424 -237.906)"/><path d="M1016.78 619.313C1016.78 606.355 1026.82 595.851 1039.2 595.851 1051.59 595.851 1061.63 606.355 1061.63 619.313 1061.63 632.27 1051.59 642.774 1039.2 642.774 1026.82 642.774 1016.78 632.27 1016.78 619.313Z" stroke="#2E54A1" stroke-width="3.16269" stroke-miterlimit="8" fill="#FED961" fill-rule="evenodd" transform="matrix(1 0 0 1.00016 742.424 -237.906)"/><path d="M0 0 96.4624 85.2347" stroke="#000000" stroke-width="7.90671" stroke-linecap="round" stroke-linejoin="round" stroke-miterlimit="10" fill="none" fill-rule="evenodd" transform="matrix(-1 0 0 1.00016 1692.12 253.827)"/><path d="M855.997 613.792 905.494 698.55" stroke="#000000" stroke-width="7.90671" stroke-linecap="round" stroke-linejoin="round" stroke-miterlimit="10" fill="none" fill-rule="evenodd" transform="matrix(1 0 0 1.00016 742.424 -237.906)"/><path d="M0 0 43.6452 191.659" stroke="#000000" stroke-width="7.90671" stroke-linecap="round" stroke-linejoin="round" stroke-miterlimit="10" fill="none" fill-rule="evenodd" transform="matrix(-1 0 0 1.00016 1706.93 262.799)"/><path d="M981.585 491.655 1025.39 594.917" stroke="#000000" stroke-width="7.90671" stroke-linecap="round" stroke-linejoin="round" stroke-miterlimit="10" fill="none" fill-rule="evenodd" transform="matrix(1 0 0 1.00016 742.424 -237.906)"/><path d="M0 0 82.7043 69.421" stroke="#000000" stroke-width="7.90671" stroke-linecap="round" stroke-linejoin="round" stroke-miterlimit="10" fill="none" fill-rule="evenodd" transform="matrix(1 0 0 -1.00016 1683.3 467.497)"/><text font-family="Microsoft YaHei,Microsoft YaHei_MSFontService,sans-serif" font-weight="400" font-size="128" transform="matrix(0.690042 0 0 0.690151 1010.94 218)">输入<tspan font-family="Times New Roman,Times New Roman_MSFontService,sans-serif" font-size="128" x="256.667" y="0">N</tspan><tspan font-size="128" x="348.667" y="0">维</tspan><tspan font-size="128" x="-17.7604" y="153.59">时间序列</tspan></text><path d="M1770.99 489.585C1770.99 476.627 1781.03 466.123 1793.42 466.123 1805.81 466.123 1815.85 476.627 1815.85 489.585 1815.85 502.542 1805.81 513.046 1793.42 513.046 1781.03 513.046 1770.99 502.542 1770.99 489.585Z" stroke="#2E54A1" stroke-width="3.16269" stroke-miterlimit="8" fill="#A9E9E4" fill-rule="evenodd" transform="matrix(1 0 0 1.00016 742.424 -237.906)"/><path d="M1630.22 363.997C1630.22 351.04 1640.26 340.536 1652.65 340.536 1665.04 340.536 1675.08 351.04 1675.08 363.997 1675.08 376.955 1665.04 387.459 1652.65 387.459 1640.26 387.459 1630.22 376.955 1630.22 363.997Z" stroke="#2E54A1" stroke-width="3.16269" stroke-miterlimit="8" fill="#F5B7BF" fill-rule="evenodd" transform="matrix(1 0 0 1.00016 742.424 -237.906)"/><path d="M1630.22 611.032C1630.22 598.075 1640.26 587.571 1652.65 587.571 1665.04 587.571 1675.08 598.075 1675.08 611.032 1675.08 623.99 1665.04 634.494 1652.65 634.494 1640.26 634.494 1630.22 623.99 1630.22 611.032Z" stroke="#2E54A1" stroke-width="3.16269" stroke-miterlimit="8" fill="#E54C5E" fill-rule="evenodd" transform="matrix(1 0 0 1.00016 742.424 -237.906)"/><path d="M1942.81 489.585C1942.81 476.627 1952.85 466.123 1965.24 466.123 1977.63 466.123 1987.67 476.627 1987.67 489.585 1987.67 502.542 1977.63 513.046 1965.24 513.046 1952.85 513.046 1942.81 502.542 1942.81 489.585Z" stroke="#2E54A1" stroke-width="3.16269" stroke-miterlimit="8" fill="#FED961" fill-rule="evenodd" transform="matrix(1 0 0 1.00016 742.424 -237.906)"/><path d="M1669.89 380.042 1776.3 470.21 1774.25 472.623 1667.85 382.454ZM1769.45 450.177 1777.67 473.445 1753.37 469.151C1752.51 468.999 1751.93 468.178 1752.09 467.319 1752.24 466.459 1753.06 465.885 1753.91 466.036L1775.55 469.859 1773.78 471.943 1766.46 451.23C1766.17 450.407 1766.6 449.504 1767.43 449.213 1768.25 448.921 1769.15 449.353 1769.45 450.177Z" transform="matrix(1 0 0 1.00016 742.424 -237.906)"/><path d="M1.00995-1.21683 116.728 94.827 114.708 97.2607-1.00995 1.21683ZM109.67 74.8647 118.132 98.0481 93.7864 94.0024C92.9252 93.8588 92.3428 93.0446 92.4856 92.1827 92.6292 91.3215 93.4434 90.7391 94.3053 90.882L115.977 94.484 114.232 96.5859 106.7 75.9488C106.4 75.1283 106.823 74.2202 107.643 73.9214 108.464 73.622 109.371 74.0443 109.67 74.8647Z" transform="matrix(1 0 0 -1.00016 2417.5 373.28)"/><path d="M0.0201796-1.58122 12.6699-1.41978 12.6296 1.74265-0.0201796 1.58122ZM22.1572-1.2987 34.807-1.13727 34.7666 2.02517 22.1169 1.86373ZM44.2943-1.01619 56.944-0.854748 56.9036 2.30769 44.2539 2.14624ZM66.4313-0.733673 79.0809-0.572237 79.0409 2.5902 66.3909 2.42876ZM88.5683-0.451158 101.218-0.289722 101.177 2.87271 88.5283 2.71128ZM110.706-0.168644 123.355-0.0072068 123.315 3.15523 110.665 2.99379ZM132.843 0.113871 145.492 0.275308 145.452 3.43774 132.802 3.27631ZM154.979 0.396386 167.629 0.557822 167.589 3.72026 154.939 3.55882ZM152.324-10.4924 173.481 2.21398 152.007 14.3763C151.246 14.8067 150.281 14.5395 149.851 13.7796 149.42 13.0196 149.688 12.0547 150.448 11.6243L169.563 0.797937 169.529 3.52959 150.696-7.78112C149.947-8.23075 149.704-9.20219 150.154-9.95089 150.604-10.6996 151.575-10.9421 152.324-10.4924Z" transform="matrix(1 0 0 -1.00016 2339.53 256.731)"/><path d="M1815.87 488.694 1938.29 490.082 1938.26 493.244 1815.82 491.856ZM1920.24 479.022 1941.41 491.698 1919.95 503.891C1919.19 504.323 1918.23 504.057 1917.8 503.297 1917.36 502.538 1917.63 501.573 1918.39 501.142L1937.49 490.288 1937.46 493.019 1918.61 481.736C1917.86 481.287 1917.62 480.316 1918.07 479.567 1918.52 478.817 1919.49 478.573 1920.24 479.022Z" transform="matrix(1 0 0 1.00016 742.424 -237.906)"/><path d="M1816.15 488.106 1821.71 487.847 1821.59 487.858 1827.07 487.168 1826.94 487.188 1832.37 486.066 1832.26 486.095 1837.57 484.585 1837.46 484.62 1842.54 482.766 1842.43 482.813 1847.35 480.57 1847.26 480.616 1851.91 478.114 1851.81 478.176 1856.12 475.415 1856.01 475.49 1860.03 472.428 1859.93 472.512 1863.51 469.277 1863.4 469.378 1866.55 465.97 1866.45 466.087 1869.17 462.508 1869.06 462.669 1871.22 458.96 1871.13 459.142 1872.73 455.347 1872.65 455.564 1873.64 451.726 1873.6 451.981 1873.95 448.099 1873.94 448.327 1873.73 444.446 1873.75 444.638 1873.06 440.8 1873.1 440.968 1871.97 437.173 1872.02 437.306 1870.56 433.597 1870.62 433.743 1868.76 430.164 1868.84 430.294 1866.65 426.887 1866.72 426.986 1864.25 423.751 1864.35 423.862 1861.59 420.843 1861.68 420.935 1858.66 418.131 1858.76 418.217 1855.57 415.715 1855.67 415.787 1852.3 413.544 1852.45 413.628 1848.91 411.774 1849.04 411.834 1845.41 410.324 1845.57 410.38 1841.82 409.258 1841.98 409.299 1838.19 408.609 1838.37 408.63 1834.53 408.372 1834.77 408.369 1830.94 408.714 1831.2 408.669 1827.4 409.661 1827.62 409.583 1823.92 411.179 1824.09 411.09 1820.43 413.246 1820.59 413.137 1817.05 415.855 1817.17 415.755 1813.8 418.903 1813.91 418.801 1810.71 422.38 1810.8 422.279 1807.78 426.29 1807.85 426.191 1805.09 430.504 1805.16 430.39 1802.69 435.047 1802.74 434.956 1800.54 439.872 1800.58 439.767 1798.73 444.856 1798.77 444.736 1797.3 450.041 1797.32 449.939 1796.21 455.373 1796.23 455.252 1795.54 460.729 1795.54 460.593 1795.45 463.027 1792.29 462.904 1792.39 460.402 1793.09 454.795 1794.24 449.249 1795.74 443.833 1797.63 438.631 1799.87 433.617 1802.39 428.855 1805.22 424.436 1808.31 420.325 1811.59 416.643 1815.07 413.393 1818.74 410.569 1822.57 408.314 1826.49 406.631 1830.52 405.576 1834.61 405.208 1838.67 405.481 1842.64 406.203 1846.55 407.373 1850.31 408.941 1853.98 410.866 1857.47 413.189 1860.76 415.768 1863.88 418.661 1866.73 421.781 1869.27 425.12 1871.54 428.642 1873.46 432.36 1874.99 436.209 1876.16 440.155 1876.88 444.174 1877.11 448.266 1876.73 452.391 1875.69 456.466 1874 460.462 1871.75 464.342 1868.92 468.06 1865.68 471.576 1862 474.902 1857.88 478.044 1853.47 480.872 1848.71 483.426 1843.69 485.716 1838.49 487.611 1833.07 489.152 1827.52 490.298 1821.92 491.004 1816.29 491.265ZM1807 445.282 1793.75 466.102 1782.15 444.319C1781.74 443.548 1782.03 442.59 1782.8 442.18 1783.57 441.769 1784.53 442.061 1784.94 442.832L1795.27 462.223 1792.54 462.117 1804.34 443.584C1804.8 442.847 1805.78 442.63 1806.52 443.099 1807.25 443.567 1807.47 444.545 1807 445.282Z" transform="matrix(1 0 0 1.00016 742.424 -237.906)"/><text font-family="Microsoft YaHei,Microsoft YaHei_MSFontService,sans-serif" font-weight="400" font-size="128" transform="matrix(0.690042 0 0 0.690151 2624.6 175)">图注意力网络</text><path d="M163.885 590.518 784.957 590.518C787.145 590.518 788.911 592.288 788.911 594.471 788.911 596.654 787.145 598.424 784.957 598.424L163.885 598.424C161.702 598.424 159.932 596.654 159.932 594.471 159.932 592.288 161.702 590.518 163.885 590.518ZM763.228 577.219 792.803 594.471 763.228 611.723C761.344 612.823 758.922 612.186 757.825 610.3 756.721 608.414 757.363 605.994 759.246 604.894L782.97 591.057 782.97 597.886 759.246 584.049C757.363 582.95 756.721 580.529 757.825 578.642 758.922 576.756 761.344 576.12 763.228 577.219Z" fill="#4874CB" transform="matrix(1 0 0 1.00016 742.424 -237.906)"/><text font-family="Microsoft YaHei,Microsoft YaHei_MSFontService,sans-serif" font-weight="400" font-size="128" transform="matrix(0.690042 0 0 0.690151 1898.33 561)">图<tspan font-size="128" x="128.333" y="0">节点特征</tspan></text><path d="M0.0201796-1.58122 12.6699-1.41978 12.6296 1.74265-0.0201796 1.58122ZM22.1572-1.2987 34.807-1.13727 34.7666 2.02517 22.1169 1.86373ZM44.2943-1.01619 56.944-0.854748 56.9036 2.30769 44.2539 2.14624ZM66.4313-0.733673 79.0809-0.572237 79.0409 2.5902 66.3909 2.42876ZM88.5683-0.451158 101.218-0.289722 101.177 2.87271 88.5283 2.71128ZM110.706-0.168644 123.355-0.0072068 123.315 3.15523 110.665 2.99379ZM132.843 0.113871 145.492 0.275308 145.452 3.43774 132.802 3.27631ZM154.979 0.396386 167.629 0.557822 167.589 3.72026 154.939 3.55882ZM152.324-10.4924 173.481 2.21398 152.007 14.3763C151.246 14.8067 150.281 14.5395 149.851 13.7796 149.42 13.0196 149.688 12.0547 150.448 11.6243L169.563 0.797937 169.529 3.52959 150.696-7.78112C149.947-8.23075 149.704-9.20219 150.154-9.95089 150.604-10.6996 151.575-10.9421 152.324-10.4924Z" transform="matrix(1 0 0 -1.00016 2198.07 380.268)"/><path d="M0.0201796-1.58122 12.6699-1.41978 12.6296 1.74265-0.0201796 1.58122ZM22.1572-1.2987 34.807-1.13727 34.7666 2.02517 22.1169 1.86373ZM44.2943-1.01619 56.944-0.854748 56.9036 2.30769 44.2539 2.14624ZM66.4313-0.733673 79.0809-0.572237 79.0409 2.5902 66.3909 2.42876ZM88.5683-0.451158 101.218-0.289722 101.177 2.87271 88.5283 2.71128ZM110.706-0.168644 123.355-0.0072068 123.315 3.15523 110.665 2.99379ZM132.843 0.113871 145.492 0.275308 145.452 3.43774 132.802 3.27631ZM154.979 0.396386 167.629 0.557822 167.589 3.72026 154.939 3.55882ZM152.324-10.4924 173.481 2.21398 152.007 14.3763C151.246 14.8067 150.281 14.5395 149.851 13.7796 149.42 13.0196 149.688 12.0547 150.448 11.6243L169.563 0.797937 169.529 3.52959 150.696-7.78112C149.947-8.23075 149.704-9.20219 150.154-9.95089 150.604-10.6996 151.575-10.9421 152.324-10.4924Z" transform="matrix(1 0 0 -1.00016 2198.07 129.053)"/><path d="M830.811 902.575 1162.03 902.575 1162.03 1032.99 830.811 1032.99Z" fill="#ACD78E" transform="matrix(1 0 0 1.00016 742.424 -237.906)"/><text font-family="Microsoft YaHei,Microsoft YaHei_MSFontService,sans-serif" font-weight="400" font-size="128" transform="matrix(0.690042 0 0 0.690151 1605.86 761)">图<tspan font-size="128" x="128.333" y="0">融合</tspan></text><path d="M1965.59 544.975 2523.79 546.293C2525.97 546.298 2527.74 548.072 2527.74 550.256 2527.73 552.439 2525.96 554.205 2523.77 554.2L1965.58 552.882C1963.39 552.877 1961.62 551.103 1961.63 548.919 1961.64 546.735 1963.41 544.97 1965.59 544.975ZM2502.1 532.944 2531.63 550.265 2502.02 567.446C2500.13 568.542 2497.71 567.9 2496.61 566.011 2495.52 564.122 2496.16 561.703 2498.05 560.607L2521.8 546.827 2521.79 553.657 2498.1 539.764C2496.21 538.659 2495.59 536.237 2496.69 534.353 2497.79 532.47 2500.22 531.839 2502.1 532.944Z" fill="#4874CB" transform="matrix(1 0 0 1.00016 742.424 -237.906)"/><text fill="#E54C5E" font-family="Microsoft YaHei,Microsoft YaHei_MSFontService,sans-serif" font-weight="400" font-size="128" transform="matrix(0.690042 0 0 0.690151 2722.89 436)">空间维度特征<tspan fill="#000000" font-size="128" x="-1879.47" y="-362.24">局部动态</tspan><tspan fill="#000000" font-size="128" x="-1366.14" y="-362.24">图</tspan><tspan fill="#000000" font-size="128" x="-1237.8" y="-362.24">结构</tspan></text><path d="M443.352 792.168C443.352 779.023 453.393 768.362 465.778 768.362 478.164 768.362 488.205 779.023 488.205 792.168 488.205 805.314 478.164 815.975 465.778 815.975 453.393 815.975 443.352 805.314 443.352 792.168Z" stroke="#2E54A1" stroke-width="3.16269" stroke-miterlimit="8" fill="#A9E9E4" fill-rule="evenodd" transform="matrix(1 0 0 1.00016 742.424 -237.906)"/><path d="M315.004 910.51C315.004 897.551 325.045 887.049 337.431 887.049 349.816 887.049 359.857 897.551 359.857 910.51 359.857 923.469 349.816 933.972 337.431 933.972 325.045 933.972 315.004 923.469 315.004 910.51Z" stroke="#2E54A1" stroke-width="3.16269" stroke-miterlimit="8" fill="#F5B7BF" fill-rule="evenodd" transform="matrix(1 0 0 1.00016 742.424 -237.906)"/><path d="M397.809 1033.34C397.809 1020.38 408.005 1009.88 420.581 1009.88 433.157 1009.88 443.352 1020.38 443.352 1033.34 443.352 1046.3 433.157 1056.8 420.581 1056.8 408.005 1056.8 397.809 1046.3 397.809 1033.34Z" stroke="#2E54A1" stroke-width="3.16269" stroke-miterlimit="8" fill="#E54C5E" fill-rule="evenodd" transform="matrix(1 0 0 1.00016 742.424 -237.906)"/><path d="M517.187 936.732C517.187 923.773 527.227 913.271 539.613 913.271 551.998 913.271 562.039 923.773 562.039 936.732 562.039 949.691 551.998 960.193 539.613 960.193 527.227 960.193 517.187 949.691 517.187 936.732Z" stroke="#2E54A1" stroke-width="3.16269" stroke-miterlimit="8" fill="#FED961" fill-rule="evenodd" transform="matrix(1 0 0 1.00016 742.424 -237.906)"/><path d="M0 0 96.4624 85.2347" stroke="#000000" stroke-width="7.90671" stroke-linecap="round" stroke-linejoin="round" stroke-miterlimit="10" fill="none" fill-rule="evenodd" transform="matrix(-1 0 0 1.00016 1192.53 571.296)"/><path d="M355.717 931.212 405.213 1015.97" stroke="#000000" stroke-width="7.90671" stroke-linecap="round" stroke-linejoin="round" stroke-miterlimit="10" fill="none" fill-rule="evenodd" transform="matrix(1 0 0 1.00016 742.424 -237.906)"/><path d="M0 0 43.6452 191.659" stroke="#000000" stroke-width="7.90671" stroke-linecap="round" stroke-linejoin="round" stroke-miterlimit="10" fill="none" fill-rule="evenodd" transform="matrix(-1 0 0 1.00016 1206.65 580.268)"/><path d="M481.304 809.074 525.107 912.339" stroke="#000000" stroke-width="7.90671" stroke-linecap="round" stroke-linejoin="round" stroke-miterlimit="10" fill="none" fill-rule="evenodd" transform="matrix(1 0 0 1.00016 742.424 -237.906)"/><path d="M0 0 82.7043 69.421" stroke="#000000" stroke-width="7.90671" stroke-linecap="round" stroke-linejoin="round" stroke-miterlimit="10" fill="none" fill-rule="evenodd" transform="matrix(1 0 0 -1.00016 1183.02 784.966)"/><path d="M1007.62 681.417 1007.62 881.97C1007.62 884.151 1005.85 885.924 1003.67 885.924 1001.49 885.924 999.712 884.151 999.712 881.97L999.712 681.417C999.712 679.233 1001.49 677.463 1003.67 677.463 1005.85 677.463 1007.62 679.233 1007.62 681.417ZM1020.92 860.241 1003.67 889.816 986.415 860.241C985.318 858.357 985.953 855.935 987.837 854.831 989.72 853.734 992.142 854.369 993.247 856.259L1007.08 879.976 1000.25 879.976 1014.09 856.259C1015.19 854.369 1017.61 853.734 1019.5 854.831 1021.38 855.935 1022.02 858.357 1020.92 860.241Z" fill="#4874CB" transform="matrix(1 0 0 1.00016 742.424 -237.906)"/><path d="M582.05 956.24 823.434 956.24C825.615 956.24 827.388 958.013 827.388 960.193 827.388 962.374 825.615 964.147 823.434 964.147L582.05 964.147C579.867 964.147 578.097 962.374 578.097 960.193 578.097 958.013 579.867 956.24 582.05 956.24ZM801.705 942.942 831.28 960.193 801.705 977.445C799.821 978.549 797.399 977.907 796.295 976.023 795.198 974.139 795.832 971.717 797.716 970.613L821.44 956.778 821.44 963.609 797.723 949.774C795.832 948.67 795.198 946.248 796.295 944.364 797.399 942.48 799.821 941.845 801.705 942.942Z" fill="#4874CB" transform="matrix(1 0 0 1.00016 742.424 -237.906)"/><path d="M462.486 609.652 462.486 731.5C462.486 733.687 460.716 735.454 458.533 735.454 456.35 735.454 454.58 733.687 454.58 731.5L454.58 609.652C454.58 607.469 456.35 605.699 458.533 605.699 460.716 605.699 462.486 607.469 462.486 609.652ZM475.785 709.77 458.533 739.345 441.281 709.77C440.181 707.886 440.818 705.464 442.704 704.367 444.59 703.263 447.011 703.905 448.111 705.789L461.948 729.512 455.119 729.512 468.955 705.789C470.055 703.905 472.476 703.263 474.362 704.367 476.248 705.464 476.885 707.886 475.785 709.77Z" fill="#4874CB" transform="matrix(1 0 0 1.00016 742.424 -237.906)"/><path d="M1445.64 842.541 1776.86 842.541 1776.86 1079.92 1445.64 1079.92Z" fill="#FFFF00" transform="matrix(1 0 0 1.00016 742.424 -237.906)"/><text font-family="Microsoft YaHei,Microsoft YaHei_MSFontService,sans-serif" font-weight="400" font-size="128" transform="matrix(0.690042 0 0 0.690151 2220.67 701)">图神经<tspan font-size="128" x="64.1669" y="155.039">网络</tspan></text><path d="M1170 954.169 1436.23 956.44C1438.41 956.46 1440.16 958.241 1440.15 960.428 1440.12 962.609 1438.34 964.368 1436.16 964.348L1169.93 962.077C1167.75 962.057 1165.99 960.269 1166.01 958.089 1166.03 955.908 1167.81 954.149 1170 954.169ZM1414.61 942.956 1444.04 960.463 1414.32 977.458C1412.42 978.542 1410 977.886 1408.92 975.989 1407.84 974.098 1408.49 971.683 1410.39 970.592L1434.22 956.964 1434.17 963.789 1410.57 949.753C1408.69 948.635 1408.07 946.213 1409.19 944.336 1410.31 942.459 1412.73 941.838 1414.61 942.956Z" fill="#4874CB" transform="matrix(1 0 0 1.00016 742.424 -237.906)"/><path d="M3.95219-0.0962657 8.26208 176.846C8.31521 179.029 6.58887 180.841 4.40613 180.895 2.2234 180.948 0.410839 179.221 0.357674 177.039L-3.95219 0.0962657C-4.00536-2.08647-2.279-3.89903-0.0962657-3.95219 2.08647-4.00536 3.89903-2.279 3.95219-0.0962657ZM21.0273 154.801 4.50093 184.786-13.4657 155.641C-14.6114 153.782-14.0335 151.347-12.175 150.201-10.3163 149.055-7.88083 149.634-6.73507 151.492L7.6752 174.868 0.847551 175.035 14.1027 150.985C15.1565 149.072 17.561 148.376 19.4732 149.43 21.3854 150.484 22.0812 152.888 21.0273 154.801Z" fill="#4874CB" transform="matrix(1 0 0 -1.00016 2374.03 587.004)"/></g></g></g></g></g></svg>