<svg width="2865" height="2388" xmlns="http://www.w3.org/2000/svg" xmlns:xlink="http://www.w3.org/1999/xlink" overflow="hidden"><defs><clipPath id="clip0"><rect x="668" y="76" width="2865" height="2388"/></clipPath></defs><g clip-path="url(#clip0)" transform="translate(-668 -76)"><rect x="2182" y="1102" width="255" height="149" fill="#FFFFFF"/><text font-family="Times New Roman,Times New Roman_MSFontService,sans-serif" font-weight="400" font-size="110" transform="matrix(1 0 0 1 2269.78 1217)">V</text><rect x="2184" y="1693" width="256" height="149" fill="#FFFFFF"/><text font-family="Times New Roman,Times New Roman_MSFontService,sans-serif" font-weight="400" font-size="110" transform="matrix(1 0 0 1 2272.36 1808)">K</text><rect x="2716" y="1848" width="216" height="117" fill="#FFFFFF"/><text font-family="Times New Roman,Times New Roman_MSFontService,sans-serif" font-weight="400" font-size="110" transform="matrix(1 0 0 1 2783.77 1946)">Q</text><rect x="1764" y="1102" width="255" height="149" fill="#FFFFFF"/><text font-family="Times New Roman,Times New Roman_MSFontService,sans-serif" font-weight="400" font-size="110" transform="matrix(1 0 0 1 1851.72 1217)">V</text><rect x="1764" y="1693" width="255" height="149" fill="#FFFFFF"/><text font-family="Times New Roman,Times New Roman_MSFontService,sans-serif" font-weight="400" font-size="110" transform="matrix(1 0 0 1 1851.72 1808)">K</text><rect x="1302" y="1848" width="216" height="117" fill="#FFFFFF"/><text font-family="Times New Roman,Times New Roman_MSFontService,sans-serif" font-weight="400" font-size="110" transform="matrix(1 0 0 1 1370.63 1946)">Q</text><rect x="1811.5" y="79.4999" width="667" height="475" stroke="#325395" stroke-width="6.875" stroke-miterlimit="8" stroke-dasharray="27.5 20.625" fill="#FFFFFF"/><rect x="2366.5" y="1985.5" width="692" height="475" stroke="#325395" stroke-width="6.875" stroke-miterlimit="8" stroke-dasharray="27.5 20.625" fill="#FFFFFF"/><rect x="1154.5" y="1985.5" width="692" height="475" stroke="#325395" stroke-width="6.875" stroke-miterlimit="8" stroke-dasharray="27.5 20.625" fill="#FFFFFF"/><rect x="1326.5" y="2140.5" width="294" height="285" fill="#EE822F"/><path d="M1620.5 2140.5 1715.5 2045.5 1715.5 2330.5 1620.5 2425.5Z" fill="#BF6926" fill-rule="evenodd"/><path d="M1326.5 2140.5 1421.5 2045.5 1715.5 2045.5 1620.5 2140.5Z" fill="#F19B58" fill-rule="evenodd"/><path d="M1326.5 2140.5 1421.5 2045.5 1715.5 2045.5 1715.5 2330.5 1620.5 2425.5 1326.5 2425.5ZM1326.5 2140.5 1620.5 2140.5 1715.5 2045.5M1620.5 2140.5 1620.5 2425.5" stroke="#325395" stroke-width="4.58333" stroke-miterlimit="8" fill="none" fill-rule="evenodd"/><path d="M0 0 75.2204 98.6752" stroke="#000000" stroke-width="4.58333" stroke-miterlimit="8" fill="none" fill-rule="evenodd" transform="matrix(-1 0 0 1 1500.72 2044.5)"/><path d="M1430.5 2144.5 1430.5 2425.16" stroke="#000000" stroke-width="4.58333" stroke-miterlimit="8" fill="none" fill-rule="evenodd"/><path d="M0 0 76.838 96.6535" stroke="#000000" stroke-width="4.58333" stroke-miterlimit="8" fill="none" fill-rule="evenodd" transform="matrix(-1 0 0 1 1601.34 2046.5)"/><path d="M1524.5 2143.5 1524.5 2425.78" stroke="#000000" stroke-width="4.58333" stroke-miterlimit="8" fill="none" fill-rule="evenodd"/><path d="M1394.5 2075.5 1682.44 2075.5" stroke="#000000" stroke-width="4.58333" stroke-miterlimit="8" fill="none" fill-rule="evenodd"/><path d="M1358.5 2109.5 1653.32 2109.5" stroke="#000000" stroke-width="4.58333" stroke-miterlimit="8" fill="none" fill-rule="evenodd"/><path d="M1326.5 2228.5 1627.38 2228.5" stroke="#000000" stroke-width="4.58333" stroke-miterlimit="8" fill="none" fill-rule="evenodd"/><path d="M1328.5 2329.5 1631 2329.5" stroke="#000000" stroke-width="4.58333" stroke-miterlimit="8" fill="none" fill-rule="evenodd"/><path d="M0 0 87.3536 92.2069" stroke="#000000" stroke-width="4.58333" stroke-miterlimit="8" fill="none" fill-rule="evenodd" transform="matrix(1 0 0 -1 1624.5 2235.71)"/><path d="M0 0 90.5891 93.823" stroke="#000000" stroke-width="4.58333" stroke-miterlimit="8" fill="none" fill-rule="evenodd" transform="matrix(1 0 0 -1 1624.5 2329.32)"/><path d="M1653.5 2109.5 1653.5 2389.35" stroke="#000000" stroke-width="4.58333" stroke-miterlimit="8" fill="none" fill-rule="evenodd"/><path d="M1682.5 2075.5 1682.5 2356.97" stroke="#000000" stroke-width="4.58333" stroke-miterlimit="8" fill="none" fill-rule="evenodd"/><rect x="1947.5" y="209.5" width="293" height="285" fill="#75BD42"/><path d="M2240.5 209.5 2335.5 114.5 2335.5 399.5 2240.5 494.5Z" fill="#5E9835" fill-rule="evenodd"/><path d="M1947.5 209.5 2042.5 114.5 2335.5 114.5 2240.5 209.5Z" fill="#90CA67" fill-rule="evenodd"/><path d="M1947.5 209.5 2042.5 114.5 2335.5 114.5 2335.5 399.5 2240.5 494.5 1947.5 494.5ZM1947.5 209.5 2240.5 209.5 2335.5 114.5M2240.5 209.5 2240.5 494.5" stroke="#325395" stroke-width="4.58333" stroke-miterlimit="8" fill="none" fill-rule="evenodd"/><path d="M0 0 75.2204 98.6752" stroke="#000000" stroke-width="4.58333" stroke-miterlimit="8" fill="none" fill-rule="evenodd" transform="matrix(-1 0 0 1 2121.72 113.5)"/><path d="M2051.5 214.5 2051.5 495.162" stroke="#000000" stroke-width="4.58333" stroke-miterlimit="8" fill="none" fill-rule="evenodd"/><path d="M0 0 76.838 96.6535" stroke="#000000" stroke-width="4.58333" stroke-miterlimit="8" fill="none" fill-rule="evenodd" transform="matrix(-1 0 0 1 2221.34 115.5)"/><path d="M2144.5 212.5 2144.5 494.781" stroke="#000000" stroke-width="4.58333" stroke-miterlimit="8" fill="none" fill-rule="evenodd"/><path d="M2015.5 144.5 2303.44 144.5" stroke="#000000" stroke-width="4.58333" stroke-miterlimit="8" fill="none" fill-rule="evenodd"/><path d="M1979.5 178.5 2274.32 178.5" stroke="#000000" stroke-width="4.58333" stroke-miterlimit="8" fill="none" fill-rule="evenodd"/><path d="M1947.5 298.5 2248.38 298.5" stroke="#000000" stroke-width="4.58333" stroke-miterlimit="8" fill="none" fill-rule="evenodd"/><path d="M1949.5 398.5 2252 398.5" stroke="#000000" stroke-width="4.58333" stroke-miterlimit="8" fill="none" fill-rule="evenodd"/><path d="M0 0 87.3536 92.2069" stroke="#000000" stroke-width="4.58333" stroke-miterlimit="8" fill="none" fill-rule="evenodd" transform="matrix(1 0 0 -1 2245.5 304.707)"/><path d="M0 0 90.5891 93.823" stroke="#000000" stroke-width="4.58333" stroke-miterlimit="8" fill="none" fill-rule="evenodd" transform="matrix(1 0 0 -1 2245.5 398.323)"/><path d="M2274.5 178.5 2274.5 458.353" stroke="#000000" stroke-width="4.58333" stroke-miterlimit="8" fill="none" fill-rule="evenodd"/><path d="M2303.5 144.5 2303.5 425.97" stroke="#000000" stroke-width="4.58333" stroke-miterlimit="8" fill="none" fill-rule="evenodd"/><rect x="2512.5" y="2140.5" width="293" height="285" fill="#00B0F0"/><path d="M2805.5 2140.5 2900.5 2045.5 2900.5 2330.5 2805.5 2425.5Z" fill="#008DC1" fill-rule="evenodd"/><path d="M2512.5 2140.5 2607.5 2045.5 2900.5 2045.5 2805.5 2140.5Z" fill="#32BFF3" fill-rule="evenodd"/><path d="M2512.5 2140.5 2607.5 2045.5 2900.5 2045.5 2900.5 2330.5 2805.5 2425.5 2512.5 2425.5ZM2512.5 2140.5 2805.5 2140.5 2900.5 2045.5M2805.5 2140.5 2805.5 2425.5" stroke="#325395" stroke-width="4.58333" stroke-miterlimit="8" fill="none" fill-rule="evenodd"/><path d="M0 0 75.2204 98.6752" stroke="#000000" stroke-width="4.58333" stroke-miterlimit="8" fill="none" fill-rule="evenodd" transform="matrix(-1 0 0 1 2685.72 2044.5)"/><path d="M2615.5 2144.5 2615.5 2425.16" stroke="#000000" stroke-width="4.58333" stroke-miterlimit="8" fill="none" fill-rule="evenodd"/><path d="M0 0 76.838 96.6535" stroke="#000000" stroke-width="4.58333" stroke-miterlimit="8" fill="none" fill-rule="evenodd" transform="matrix(-1 0 0 1 2786.34 2046.5)"/><path d="M2709.5 2143.5 2709.5 2425.78" stroke="#000000" stroke-width="4.58333" stroke-miterlimit="8" fill="none" fill-rule="evenodd"/><path d="M2580.5 2075.5 2868.44 2075.5" stroke="#000000" stroke-width="4.58333" stroke-miterlimit="8" fill="none" fill-rule="evenodd"/><path d="M2544.5 2109.5 2839.32 2109.5" stroke="#000000" stroke-width="4.58333" stroke-miterlimit="8" fill="none" fill-rule="evenodd"/><path d="M2512.5 2228.5 2813.38 2228.5" stroke="#000000" stroke-width="4.58333" stroke-miterlimit="8" fill="none" fill-rule="evenodd"/><path d="M2513.5 2329.5 2816 2329.5" stroke="#000000" stroke-width="4.58333" stroke-miterlimit="8" fill="none" fill-rule="evenodd"/><path d="M0 0 87.3536 92.2069" stroke="#000000" stroke-width="4.58333" stroke-miterlimit="8" fill="none" fill-rule="evenodd" transform="matrix(1 0 0 -1 2809.5 2235.71)"/><path d="M0 0 90.5891 93.823" stroke="#000000" stroke-width="4.58333" stroke-miterlimit="8" fill="none" fill-rule="evenodd" transform="matrix(1 0 0 -1 2809.5 2329.32)"/><path d="M2838.5 2109.5 2838.5 2389.35" stroke="#000000" stroke-width="4.58333" stroke-miterlimit="8" fill="none" fill-rule="evenodd"/><path d="M2867.5 2075.5 2867.5 2356.97" stroke="#000000" stroke-width="4.58333" stroke-miterlimit="8" fill="none" fill-rule="evenodd"/><rect x="1210.5" y="923.5" width="585" height="924" stroke="#000000" stroke-width="6.875" stroke-miterlimit="8" fill="#FFF2CA"/><rect x="1305.5" y="1583.5" width="398" height="205" stroke="#325395" stroke-width="4.58333" stroke-miterlimit="8" fill="#75BD42"/><text font-family="Microsoft YaHei,Microsoft YaHei_MSFontService,sans-serif" font-weight="400" font-size="83" transform="matrix(1 0 0 1 1338.75 1714)">缩放点积</text><rect x="1305.5" y="1279.5" width="398" height="212" stroke="#325395" stroke-width="4.58333" stroke-miterlimit="8" fill="#7DDFD6"/><text font-family="Times New Roman,Times New Roman_MSFontService,sans-serif" font-weight="400" font-size="83" transform="matrix(1 0 0 1 1359.38 1366)">SoftMax<tspan font-family="Microsoft YaHei,Microsoft YaHei_MSFontService,sans-serif" font-size="83" x="20.625" y="97">归一化</tspan></text><rect x="1305.5" y="974.5" width="398" height="213" stroke="#325395" stroke-width="4.58333" stroke-miterlimit="8" fill="#EF949E"/><text font-family="Microsoft YaHei,Microsoft YaHei_MSFontService,sans-serif" font-weight="400" font-size="83" transform="matrix(1 0 0 1 1338.76 1109)">矩阵乘法</text><path d="M5.15625-2.02704e-05 5.15651 66.02-5.15599 66.0201-5.15625 2.02704e-05ZM15.469 60.8637 0.000360892 91.8013-15.4685 60.8638Z" transform="matrix(1 0 0 -1 1504 1582.8)"/><path d="M5.15625-2.02704e-05 5.15651 66.02-5.15599 66.0201-5.15625 2.02704e-05ZM15.469 60.8637 0.000360892 91.8013-15.4685 60.8638Z" transform="matrix(1 0 0 -1 1504 1278.8)"/><path d="M2362.83 2113.96 2028.76 2113.96 2028.76 1686 2033.91 1691.16 1730.78 1691.16 1730.78 1680.84 2039.07 1680.84 2039.07 2108.8 2033.91 2103.64 2362.83 2103.64ZM1735.94 1701.47 1705 1686 1735.94 1670.53Z"/><path d="M0-5.15625 607.043-5.15625 607.065 302.753 596.752 302.754 596.731 0.000358798 601.887 5.15625 0 5.15625ZM617.356 297.534 602.014 328.534 586.419 297.66Z" transform="matrix(-1.83697e-16 -1 -1 1.83697e-16 2033.53 1683.01)"/><path d="M5.15521-0.103458 8.57959 170.53-1.73084 170.737-5.15521 0.103458ZM18.7866 165.168 3.94167 196.41-12.1447 165.789Z" transform="matrix(1 0 0 -1 1500 1984.41)"/><rect x="2416.5" y="923.5" width="586" height="924" stroke="#000000" stroke-width="6.875" stroke-miterlimit="8" fill="#FFF2CA"/><rect x="2512.5" y="1583.5" width="397" height="205" stroke="#325395" stroke-width="4.58333" stroke-miterlimit="8" fill="#75BD42"/><text font-family="Microsoft YaHei,Microsoft YaHei_MSFontService,sans-serif" font-weight="400" font-size="83" transform="matrix(1 0 0 1 2545.47 1714)">缩放点积</text><rect x="2512.5" y="1279.5" width="397" height="212" stroke="#325395" stroke-width="4.58333" stroke-miterlimit="8" fill="#7DDFD6"/><text font-family="Times New Roman,Times New Roman_MSFontService,sans-serif" font-weight="400" font-size="83" transform="matrix(1 0 0 1 2566.09 1366)">SoftMax<tspan font-family="Microsoft YaHei,Microsoft YaHei_MSFontService,sans-serif" font-size="83" x="20.625" y="97">归一化</tspan></text><rect x="2512.5" y="974.5" width="397" height="213" stroke="#325395" stroke-width="4.58333" stroke-miterlimit="8" fill="#EF949E"/><text font-family="Microsoft YaHei,Microsoft YaHei_MSFontService,sans-serif" font-weight="400" font-size="83" transform="matrix(1 0 0 1 2545.47 1109)">矩阵乘法</text><path d="M5.15625-2.02704e-05 5.15651 66.02-5.15599 66.0201-5.15625 2.02704e-05ZM15.469 60.8637 0.000360892 91.8013-15.4685 60.8638Z" transform="matrix(1 0 0 -1 2710 1582.8)"/><path d="M5.15625-2.02704e-05 5.15651 66.02-5.15599 66.0201-5.15625 2.02704e-05ZM15.469 60.8637 0.000360892 91.8013-15.4685 60.8638Z" transform="matrix(1 0 0 -1 2710 1278.8)"/><path d="M2706.56 1984.45 2705.07 1813.83 2715.38 1813.73 2716.88 1984.36ZM2694.8 1819.07 2710 1788 2725.74 1818.8Z"/><path d="M0-5.15625 337.961-5.15625 337.961 536.772 332.805 531.616 639.828 531.616 639.828 541.928 327.649 541.928 327.649 0 332.805 5.15625 0 5.15625ZM634.672 521.303 665.61 536.772 634.672 552.241Z" transform="matrix(1 0 0 -1 1846 2222.77)"/><path d="M2176.84 1686.25 2176.84 1077.59 2486.05 1077.29 2486.06 1087.6 2182.01 1087.89 2187.16 1082.74 2187.16 1686.25ZM2480.04 1067.29 2511.8 1081 2481.78 1098.18Z"/><path d="M2033.5 730.5C2033.5 681.347 2072.23 641.5 2120 641.5 2167.77 641.5 2206.5 681.347 2206.5 730.5 2206.5 779.653 2167.77 819.5 2120 819.5 2072.23 819.5 2033.5 779.653 2033.5 730.5Z" fill="#FFFFFF" fill-rule="evenodd"/><path d="M2120 641.5 2120 819.5M2033.5 730.5 2206.5 730.5" stroke="#000000" stroke-width="6.875" stroke-miterlimit="8" fill="none" fill-rule="evenodd"/><path d="M2033.5 730.5C2033.5 681.347 2072.23 641.5 2120 641.5 2167.77 641.5 2206.5 681.347 2206.5 730.5 2206.5 779.653 2167.77 819.5 2120 819.5 2072.23 819.5 2033.5 779.653 2033.5 730.5Z" stroke="#000000" stroke-width="6.875" stroke-miterlimit="8" fill="none" fill-rule="evenodd"/><path d="M1498.84 974.645 1498.84 724.844 2007.95 724.844 2007.95 735.157 1504 735.157 1509.16 730 1509.16 974.645ZM2002.79 714.532 2033.73 730 2002.79 745.469Z"/><path d="M0-5.15625 249.801-5.15625 249.801 478.52 239.488 478.52 239.488 0 244.645 5.15625 0 5.15625ZM260.113 473.363 244.645 504.301 229.176 473.363Z" transform="matrix(-1.83697e-16 -1 -1 1.83697e-16 2710.3 974.645)"/><rect x="674" y="2179" width="465" height="116" fill="#FFFFFF"/><text font-family="Microsoft YaHei,Microsoft YaHei_MSFontService,sans-serif" font-weight="400" font-size="92" transform="matrix(1 0 0 1 723.276 2215)">时间维度<tspan font-size="92" x="91.6667" y="110">特征</tspan></text><rect x="3062" y="2199" width="465" height="117" fill="#FFFFFF"/><text font-family="Microsoft YaHei,Microsoft YaHei_MSFontService,sans-serif" font-weight="400" font-size="92" transform="matrix(1 0 0 1 3110.73 2235)">空间<tspan font-size="92" x="183.334" y="0">维度</tspan><tspan font-size="92" x="91.6668" y="110">特征</tspan></text><rect x="1844" y="826" width="531" height="116" fill="#FFFFFF"/><text font-family="Microsoft YaHei,Microsoft YaHei_MSFontService,sans-serif" font-weight="400" font-size="92" transform="matrix(1 0 0 1 1926.15 917)">矩阵加法</text><path d="M5.15625-1.2711e-05 5.15655 120.615-5.15595 120.615-5.15625 1.2711e-05ZM15.469 115.459 0.000360892 146.396-15.4685 115.459Z" transform="matrix(1 0 0 -1 2120 640.396)"/><rect x="2491" y="292" width="465" height="116" fill="#FFFFFF"/><text font-family="Microsoft YaHei,Microsoft YaHei_MSFontService,sans-serif" font-weight="400" font-size="92" transform="matrix(1 0 0 1 2540.18 383)">输出<tspan font-size="92" x="183.333" y="0">特征</tspan></text></g></svg>