<svg width="1288" height="2435" xmlns="http://www.w3.org/2000/svg" xmlns:xlink="http://www.w3.org/1999/xlink" overflow="hidden"><defs><clipPath id="clip0"><rect x="1624" y="20" width="1288" height="2435"/></clipPath></defs><g clip-path="url(#clip0)" transform="translate(-1624 -20)"><rect x="2316.5" y="209.5" width="447" height="186" stroke="#F5B7BF" stroke-width="4.58333" stroke-miterlimit="8" fill="#F5B7BF"/><path d="M1918 2231C1941.2 2186.84 1964.4 2142.67 1985.99 2137.29 2007.57 2131.9 2031.31 2195.99 2047.5 2198.68 2063.69 2201.38 2069.09 2149.67 2083.11 2153.44 2097.14 2157.21 2113.87 2222.92 2131.68 2221.31 2149.48 2219.69 2174.31 2149.14 2189.95 2143.75 2205.6 2138.36 2209.38 2179.3 2225.57 2188.99 2241.75 2198.68 2266.04 2211.07 2287.08 2201.92 2308.12 2192.76 2331.87 2131.9 2351.83 2134.06 2371.8 2136.21 2385.83 2212.15 2406.87 2214.84 2427.91 2217.54 2456.51 2149.67 2478.1 2150.21 2499.68 2150.75 2514.25 2209.46 2536.37 2218.07 2558.49 2226.69 2584.4 2213.23 2610.84 2201.92 2637.28 2190.61 2669.65 2152.37 2695.01 2150.21 2720.37 2148.06 2763 2188.99 2763 2188.99L2763 2188.99" stroke="#C00000" stroke-width="10.3125" stroke-miterlimit="8" fill="none" fill-rule="evenodd"/><path d="M1918.5 1582.85C1933.33 1452.36 1948.16 1321.87 1954.09 1317.56 1960.02 1313.25 1948.7 1540.25 1954.09 1556.97 1959.48 1573.68 1975.66 1415.16 1986.44 1417.85 1997.23 1420.55 2010.71 1553.19 2018.79 1573.14 2026.88 1593.09 2027.96 1538.09 2034.97 1537.56 2041.98 1537.02 2053.84 1571.53 2060.85 1569.91 2067.86 1568.29 2069.48 1528.39 2077.03 1527.85 2084.58 1527.31 2093.21 1565.06 2106.15 1566.67 2119.09 1568.29 2141.2 1537.56 2154.68 1537.56 2168.16 1537.56 2180.02 1566.13 2187.03 1566.67 2194.04 1567.21 2192.42 1541.87 2196.74 1540.79 2201.05 1539.71 2208.06 1573.68 2212.91 1560.2 2217.76 1546.72 2222.08 1459.37 2225.85 1459.91 2229.63 1460.45 2229.63 1550.5 2235.56 1563.44 2241.49 1576.38 2253.35 1537.56 2261.44 1537.56 2269.53 1537.56 2267.37 1561.28 2284.09 1563.44 2300.8 1565.59 2342.86 1549.96 2361.74 1550.5 2380.61 1551.04 2384.92 1566.67 2397.32 1566.67 2409.73 1566.67 2423.75 1548.88 2436.15 1550.5 2448.55 1552.11 2462.57 1576.92 2471.74 1576.38 2480.9 1575.84 2477.67 1545.1 2491.15 1547.26 2504.63 1549.42 2539.14 1590.94 2552.62 1589.32 2566.1 1587.7 2566.1 1538.09 2572.03 1537.56 2577.96 1537.02 2582.81 1587.7 2588.21 1586.08 2593.6 1584.47 2597.91 1530.01 2604.38 1527.85 2610.85 1525.69 2618.4 1569.37 2627.03 1573.14 2635.66 1576.92 2644.82 1547.8 2656.15 1550.5 2667.47 1553.19 2685.26 1587.7 2694.97 1589.32 2704.68 1590.94 2702.52 1557.51 2714.38 1560.2 2726.25 1562.9 2754.82 1604.96 2766.15 1605.5 2777.47 1606.03 2776.93 1565.59 2782.32 1563.44 2787.72 1561.28 2793.11 1576.92 2798.5 1592.55" stroke="#00B050" stroke-width="6.875" stroke-miterlimit="8" fill="none" fill-rule="evenodd"/><path d="M3.4375-4.7931e-06 3.43783 235.907-3.43717 235.907-3.4375 4.7931e-06ZM13.7503 231.323 0.000360892 258.823-13.7497 231.323Z" transform="matrix(1 0 0 -1 1855.5 2290.32)"/><path d="M1855.5 2287.06 2861.41 2287.06 2861.41 2293.94 1855.5 2293.94ZM2856.82 2276.75 2884.32 2290.5 2856.82 2304.25Z"/><text font-family="Microsoft YaHei,Microsoft YaHei_MSFontService,sans-serif" font-weight="400" font-size="73" transform="matrix(1 -2.44929e-16 2.44929e-16 1 2263.24 2394)">时间</text><text font-family="Microsoft YaHei,Microsoft YaHei_MSFontService,sans-serif" font-weight="400" font-size="73" transform="matrix(1 0 0 1 1668.27 2226)">数值</text><path d="M3.4375-4.7931e-06 3.43783 235.907-3.43717 235.907-3.4375 4.7931e-06ZM13.7503 231.323 0.000360892 258.823-13.7497 231.323Z" transform="matrix(1 0 0 -1 1855.5 1632.32)"/><path d="M1855.5 1629.06 2861.41 1629.06 2861.41 1635.94 1855.5 1635.94ZM2856.82 1618.75 2884.32 1632.5 2856.82 1646.25Z"/><text font-family="Microsoft YaHei,Microsoft YaHei_MSFontService,sans-serif" font-weight="400" font-size="73" transform="matrix(1 -2.44929e-16 2.44929e-16 1 2263.24 1736)">频率</text><text font-family="Microsoft YaHei,Microsoft YaHei_MSFontService,sans-serif" font-weight="400" font-size="73" transform="matrix(1 0 0 1 1668.27 1568)">振幅</text><path d="M0 0 46.9117 64.7055" stroke="#000000" stroke-width="4.58333" stroke-miterlimit="8" fill="none" fill-rule="evenodd" transform="matrix(1 0 0 -1 1954.5 1317.21)"/><path d="M2001.5 1255.5 2166.5 1255.5" stroke="#000000" stroke-width="4.58333" stroke-miterlimit="8" fill="none" fill-rule="evenodd"/><text font-family="Microsoft YaHei,Microsoft YaHei_MSFontService,sans-serif" font-weight="400" font-size="64" transform="matrix(1 -2.44929e-16 2.44929e-16 1 2000.37 1229)">频率<tspan font-family="Times New Roman,Times New Roman_MSFontService,sans-serif" font-size="64" x="128.333" y="3.14326e-14">1</tspan></text><path d="M0 0 46.9117 64.7055" stroke="#000000" stroke-width="4.58333" stroke-miterlimit="8" fill="none" fill-rule="evenodd" transform="matrix(1 0 0 -1 1999.5 1462.21)"/><path d="M2046.5 1400.5 2211.5 1400.5" stroke="#000000" stroke-width="4.58333" stroke-miterlimit="8" fill="none" fill-rule="evenodd"/><text font-family="Microsoft YaHei,Microsoft YaHei_MSFontService,sans-serif" font-weight="400" font-size="64" transform="matrix(1 -2.44929e-16 2.44929e-16 1 2045.66 1373)">频率<tspan font-family="Times New Roman,Times New Roman_MSFontService,sans-serif" font-size="64" x="128.333" y="3.14326e-14">2</tspan></text><path d="M0 0 46.9117 64.7055" stroke="#000000" stroke-width="4.58333" stroke-miterlimit="8" fill="none" fill-rule="evenodd" transform="matrix(1 0 0 -1 2236.5 1511.21)"/><path d="M2283.5 1449.5 2448.5 1449.5" stroke="#000000" stroke-width="4.58333" stroke-miterlimit="8" fill="none" fill-rule="evenodd"/><text font-family="Microsoft YaHei,Microsoft YaHei_MSFontService,sans-serif" font-weight="400" font-size="64" transform="matrix(1 -2.44929e-16 2.44929e-16 1 2282.65 1423)">频率<tspan font-family="Times New Roman,Times New Roman_MSFontService,sans-serif" font-size="64" x="128.333" y="3.14326e-14">3</tspan></text><rect x="1977.5" y="1881.5" width="654" height="140" stroke="#FED961" stroke-width="4.58333" stroke-miterlimit="8" fill="#FED961"/><text font-family="Microsoft YaHei,Microsoft YaHei_MSFontService,sans-serif" font-weight="400" font-size="73" transform="matrix(1 0 0 1 2047.5 1976)">快速傅里叶变换</text><rect x="1977.5" y="951.5" width="654" height="140" stroke="#B6C7EA" stroke-width="4.58333" stroke-miterlimit="8" fill="#B6C7EA"/><text font-family="Microsoft YaHei,Microsoft YaHei_MSFontService,sans-serif" font-weight="400" font-size="73" transform="matrix(1 0 0 1 2047.5 1046)">频率相似度计算</text><rect x="1977.5" y="689.5" width="654" height="140" stroke="#30C0B4" stroke-width="4.58333" stroke-miterlimit="8" fill="#30C0B4"/><text font-family="Microsoft YaHei,Microsoft YaHei_MSFontService,sans-serif" font-weight="400" font-size="73" transform="matrix(1 0 0 1 2084.16 784)">主导周期选择</text><path d="M1918 364C1941.2 319.836 1964.4 275.673 1985.99 270.287 2007.57 264.901 2031.31 328.992 2047.5 331.685 2063.69 334.378 2069.09 282.675 2083.11 286.445 2097.14 290.215 2113.87 355.921 2131.68 354.305 2149.48 352.69 2174.31 282.136 2189.95 276.75 2205.6 271.364 2209.38 312.296 2225.57 321.991 2241.75 331.685 2266.04 344.072 2287.08 334.917 2308.12 325.761 2331.87 264.901 2351.83 267.056 2371.8 269.21 2385.83 345.149 2406.87 347.842 2427.91 350.536 2456.51 282.675 2478.1 283.213 2499.68 283.752 2514.25 342.457 2536.37 351.074 2558.49 359.691 2584.4 346.227 2610.84 334.917 2637.28 323.607 2669.65 285.367 2695.01 283.213 2720.37 281.059 2763 321.991 2763 321.991L2763 321.991" stroke="#C00000" stroke-width="10.3125" stroke-miterlimit="8" fill="none" fill-rule="evenodd"/><path d="M3.4375-4.7931e-06 3.43783 235.907-3.43717 235.907-3.4375 4.7931e-06ZM13.7503 231.323 0.000360892 258.823-13.7497 231.323Z" transform="matrix(1 0 0 -1 1855.5 423.324)"/><path d="M1855.5 420.062 2861.41 420.063 2861.41 426.938 1855.5 426.938ZM2856.82 409.75 2884.32 423.5 2856.82 437.25Z"/><text font-family="Microsoft YaHei,Microsoft YaHei_MSFontService,sans-serif" font-weight="400" font-size="73" transform="matrix(1 -2.44929e-16 2.44929e-16 1 2263.24 527)">时间</text><text font-family="Microsoft YaHei,Microsoft YaHei_MSFontService,sans-serif" font-weight="400" font-size="73" transform="matrix(1 0 0 1 1668.27 359)">数值</text><rect x="1977.5" y="22.4998" width="675" height="187" stroke="#FFFFFF" stroke-width="4.58333" stroke-miterlimit="8" fill="none"/><text font-family="Microsoft YaHei,Microsoft YaHei_MSFontService,sans-serif" font-weight="400" font-size="73" transform="matrix(1 0 0 1 2021.17 140)">主导周期掩码序列</text><path d="M5.15625-1.6412e-05 5.15653 87.6021-5.15597 87.6021-5.15625 1.6412e-05ZM15.469 82.4458 0.000360892 113.383-15.4685 82.4459Z" fill="#4874CB" transform="matrix(1 0 0 -1 2304 2134.38)"/><path d="M5.15625-1.47675e-05 5.15654 100.228-5.15596 100.228-5.15625 1.47675e-05ZM15.469 95.072 0.000360892 126.01-15.4685 95.0721Z" fill="#4874CB" transform="matrix(1 0 0 -1 2304 1881.01)"/><path d="M5.15625-1.01672e-05 5.15656 157.244-5.15594 157.244-5.15625 1.01672e-05ZM15.4691 152.088 0.000360892 183.025-15.4684 152.088Z" fill="#4874CB" transform="matrix(1 0 0 -1 2298 1317.03)"/><path d="M5.15625-1.51976e-05 5.15653 96.6627-5.15597 96.6627-5.15625 1.51976e-05ZM15.469 91.5064 0.000360892 122.444-15.4685 91.5065Z" fill="#4874CB" transform="matrix(1 0 0 -1 2304 951.444)"/><path d="M5.15625-1.28889e-05 5.15655 118.595-5.15595 118.595-5.15625 1.28889e-05ZM15.469 113.439 0.000360892 144.376-15.4685 113.439Z" fill="#4874CB" transform="matrix(1 0 0 -1 2304 688.377)"/></g></svg>