<?xml version="1.0" encoding="utf-8" standalone="no"?>
<!DOCTYPE svg PUBLIC "-//W3C//DTD SVG 1.1//EN"
  "http://www.w3.org/Graphics/SVG/1.1/DTD/svg11.dtd">
<svg height="423.809775pt" version="1.1" viewBox="0 0 713.177812 423.809775" width="713.177812pt" xmlns="http://www.w3.org/2000/svg" xmlns:xlink="http://www.w3.org/1999/xlink">
 <metadata>
  <rdf:RDF xmlns:cc="http://creativecommons.org/ns#" xmlns:dc="http://purl.org/dc/elements/1.1/" xmlns:rdf="http://www.w3.org/1999/02/22-rdf-syntax-ns#">
   <cc:Work>
    <dc:type rdf:resource="http://purl.org/dc/dcmitype/StillImage"/>
    <dc:date>2025-05-04T21:17:52.573730</dc:date>
    <dc:format>image/svg+xml</dc:format>
    <dc:creator>
     <cc:Agent>
      <dc:title>Matplotlib v3.4.3, https://matplotlib.org/</dc:title>
     </cc:Agent>
    </dc:creator>
   </cc:Work>
  </rdf:RDF>
 </metadata>
 <defs>
  <style type="text/css">*{stroke-linecap:butt;stroke-linejoin:round;}</style>
 </defs>
 <g id="figure_1">
  <g id="patch_1">
   <path d="M 0 423.809775 
L 713.177812 423.809775 
L 713.177812 0 
L 0 0 
z
" style="fill:#ffffff;"/>
  </g>
  <g id="axes_1">
   <g id="patch_2">
    <path d="M 54.367812 369.146978 
L 705.977813 369.146978 
L 705.977813 38.39125 
L 54.367812 38.39125 
z
" style="fill:#ffffff;"/>
   </g>
   <g id="patch_3">
    <path clip-path="url(#pa0496eb1d9)" d="M 83.986449 369.146978 
L 137.838515 369.146978 
L 137.838515 197.116368 
L 83.986449 197.116368 
z
" style="fill:#414487;stroke:#000000;stroke-linejoin:miter;stroke-width:0.8;"/>
   </g>
   <g id="patch_4">
    <path clip-path="url(#pa0496eb1d9)" d="M 160.917972 369.146978 
L 214.770038 369.146978 
L 214.770038 121.852976 
L 160.917972 121.852976 
z
" style="fill:#365c8d;stroke:#000000;stroke-linejoin:miter;stroke-width:0.8;"/>
   </g>
   <g id="patch_5">
    <path clip-path="url(#pa0496eb1d9)" d="M 237.849495 369.146978 
L 291.701561 369.146978 
L 291.701561 159.484672 
L 237.849495 159.484672 
z
" style="fill:#2c718e;stroke:#000000;stroke-linejoin:miter;stroke-width:0.8;"/>
   </g>
   <g id="patch_6">
    <path clip-path="url(#pa0496eb1d9)" d="M 314.781018 369.146978 
L 368.633084 369.146978 
L 368.633084 178.30052 
L 314.781018 178.30052 
z
" style="fill:#24868e;stroke:#000000;stroke-linejoin:miter;stroke-width:0.8;"/>
   </g>
   <g id="patch_7">
    <path clip-path="url(#pa0496eb1d9)" d="M 391.712541 369.146978 
L 445.564607 369.146978 
L 445.564607 129.916911 
L 391.712541 129.916911 
z
" style="fill:#1f9a8a;stroke:#000000;stroke-linejoin:miter;stroke-width:0.8;"/>
   </g>
   <g id="patch_8">
    <path clip-path="url(#pa0496eb1d9)" d="M 468.644064 369.146978 
L 522.49613 369.146978 
L 522.49613 140.668824 
L 468.644064 140.668824 
z
" style="fill:#28ae80;stroke:#000000;stroke-linejoin:miter;stroke-width:0.8;"/>
   </g>
   <g id="patch_9">
    <path clip-path="url(#pa0496eb1d9)" d="M 545.575587 369.146978 
L 599.427653 369.146978 
L 599.427653 81.533301 
L 545.575587 81.533301 
z
" style="fill:#4ac16d;stroke:#000000;stroke-linejoin:miter;stroke-width:0.8;"/>
   </g>
   <g id="patch_10">
    <path clip-path="url(#pa0496eb1d9)" d="M 622.50711 369.146978 
L 676.359176 369.146978 
L 676.359176 143.356802 
L 622.50711 143.356802 
z
" style="fill:#7ad151;stroke:#000000;stroke-linejoin:miter;stroke-width:0.8;"/>
   </g>
   <g id="matplotlib.axis_1">
    <g id="xtick_1">
     <g id="line2d_1">
      <defs>
       <path d="M 0 0 
L 0 3.5 
" id="m5034321940" style="stroke:#000000;stroke-width:0.8;"/>
      </defs>
      <g>
       <use style="stroke:#000000;stroke-width:0.8;" x="110.912482" xlink:href="#m5034321940" y="369.146978"/>
      </g>
     </g>
     <g id="text_1">
      <!-- 环保车 -->
      <g transform="translate(81.291299 391.632919)rotate(-15)scale(0.1 -0.1)">
       <defs>
        <path d="M 2606 4447 
L 2606 4916 
L 6050 4916 
L 6050 4447 
L 4441 4447 
Q 4228 3716 3959 3053 
L 4369 3053 
L 4369 -816 
L 3875 -816 
L 3875 2850 
Q 3247 1381 2338 259 
Q 2175 422 1944 566 
Q 3284 2200 3925 4447 
L 2606 4447 
z
M 94 922 
Q 544 1031 1050 1166 
L 1050 2641 
L 213 2641 
L 213 3091 
L 1050 3091 
L 1050 4241 
L 169 4241 
L 169 4691 
L 2375 4691 
L 2375 4241 
L 1544 4241 
L 1544 3091 
L 2369 3091 
L 2369 2641 
L 1544 2641 
L 1544 1297 
Q 1922 1400 2331 1516 
Q 2313 1284 2325 1084 
Q 1081 691 175 391 
L 94 922 
z
M 4856 2909 
Q 5813 1628 6313 834 
L 5888 509 
Q 5225 1622 4469 2653 
L 4856 2909 
z
" id="MicrosoftYaHei-73af" transform="scale(0.015625)"/>
        <path d="M 2263 5003 
L 5750 5003 
L 5750 2647 
L 5275 2647 
L 5275 2884 
L 4225 2884 
L 4225 2041 
L 6288 2041 
L 6288 1616 
L 4588 1616 
Q 5163 659 6338 109 
Q 6144 -159 6025 -353 
Q 4850 359 4225 1572 
L 4225 -847 
L 3769 -847 
L 3769 1597 
Q 3013 234 1875 -478 
Q 1731 -303 1525 -97 
Q 2638 516 3331 1616 
L 1694 1616 
L 1694 2041 
L 3769 2041 
L 3769 2884 
L 2738 2884 
L 2738 2603 
L 2263 2603 
L 2263 5003 
z
M 69 2247 
Q 906 3497 1369 5278 
L 1831 5141 
Q 1575 4316 1275 3597 
L 1275 -816 
L 825 -816 
L 825 2653 
Q 556 2159 263 1734 
Q 175 1997 69 2247 
z
M 5275 4584 
L 2738 4584 
L 2738 3303 
L 5275 3303 
L 5275 4584 
z
" id="MicrosoftYaHei-4fdd" transform="scale(0.015625)"/>
        <path d="M 163 922 
L 3206 922 
L 3206 1991 
L 913 1991 
L 913 2447 
Q 1334 3200 1688 3909 
L 400 3909 
L 400 4372 
L 1913 4372 
Q 2156 4878 2363 5359 
L 2831 5216 
Q 2625 4772 2434 4372 
L 5950 4372 
L 5950 3909 
L 2209 3909 
Q 1797 3063 1456 2441 
L 3206 2441 
L 3206 3647 
L 3694 3647 
L 3694 2441 
L 5500 2441 
L 5500 1991 
L 3694 1991 
L 3694 922 
L 6188 922 
L 6188 459 
L 3694 459 
L 3694 -853 
L 3206 -853 
L 3206 459 
L 163 459 
L 163 922 
z
" id="MicrosoftYaHei-8f66" transform="scale(0.015625)"/>
       </defs>
       <use xlink:href="#MicrosoftYaHei-73af"/>
       <use x="100" xlink:href="#MicrosoftYaHei-4fdd"/>
       <use x="200" xlink:href="#MicrosoftYaHei-8f66"/>
      </g>
     </g>
    </g>
    <g id="xtick_2">
     <g id="line2d_2">
      <g>
       <use style="stroke:#000000;stroke-width:0.8;" x="187.844005" xlink:href="#m5034321940" y="369.146978"/>
      </g>
     </g>
     <g id="text_2">
      <!-- 装载车 -->
      <g transform="translate(158.222822 391.632919)rotate(-15)scale(0.1 -0.1)">
       <defs>
        <path d="M 3700 241 
Q 3694 -34 3700 -253 
Q 2869 -491 2375 -666 
Q 2188 -734 1925 -872 
L 1650 -491 
Q 1800 -366 1800 -59 
L 1800 425 
Q 1163 53 363 -247 
Q 244 -22 81 197 
Q 1750 734 2716 1634 
L 163 1634 
L 163 2072 
L 3091 2072 
Q 2941 2313 2794 2522 
L 3194 2766 
Q 3406 2453 3588 2191 
L 3388 2072 
L 6275 2072 
L 6275 1634 
L 3428 1634 
Q 3688 1125 4113 756 
Q 4809 1091 5488 1466 
L 5750 1009 
Q 5128 763 4484 481 
Q 5213 19 6306 -141 
Q 6119 -391 5963 -609 
Q 3938 -213 3069 1381 
Q 2713 1028 2263 716 
L 2263 -197 
Q 3006 9 3700 241 
z
M 2825 3228 
L 4181 3228 
L 4181 4059 
L 2606 4059 
L 2606 4491 
L 4181 4491 
L 4181 5334 
L 4650 5334 
L 4650 4491 
L 6263 4491 
L 6263 4059 
L 4650 4059 
L 4650 3228 
L 6050 3228 
L 6050 2797 
L 2825 2797 
L 2825 3228 
z
M 1863 5347 
L 2325 5347 
L 2325 2466 
L 1863 2466 
L 1863 3425 
Q 1188 3038 450 2603 
Q 381 2747 194 3066 
Q 1084 3519 1863 3963 
L 1863 5347 
z
M 363 4728 
L 694 5053 
Q 1263 4584 1550 4297 
L 1175 3934 
Q 725 4416 363 4728 
z
" id="MicrosoftYaHei-88c5" transform="scale(0.015625)"/>
        <path d="M 2881 -416 
Q 3622 91 4213 806 
Q 3894 1769 3806 3234 
L 125 3234 
L 125 3653 
L 1681 3653 
L 1681 4234 
L 381 4234 
L 381 4628 
L 1681 4628 
L 1681 5266 
L 2144 5266 
L 2144 4628 
L 3375 4628 
L 3375 4234 
L 2144 4234 
L 2144 3653 
L 3781 3653 
Q 3744 4397 3713 5297 
L 4194 5297 
Q 4197 4419 4241 3653 
L 6319 3653 
L 6319 3234 
L 4266 3234 
Q 4331 2081 4563 1269 
Q 5034 1941 5394 2766 
L 5825 2566 
Q 5344 1531 4744 738 
Q 4938 278 5200 -34 
Q 5363 -222 5500 -222 
Q 5669 -222 5725 28 
Q 5800 366 5869 878 
Q 6119 766 6319 709 
Q 6238 178 6138 -234 
Q 5981 -791 5581 -791 
Q 5125 -791 4713 -209 
Q 4544 22 4406 319 
Q 3869 -297 3250 -741 
Q 3063 -528 2881 -416 
z
M 1006 1472 
L 1863 1472 
L 1863 2047 
L 2306 2047 
L 2306 1472 
L 3488 1472 
L 3488 1078 
L 2306 1078 
L 2306 497 
Q 2878 544 3513 597 
Q 3494 397 3494 191 
Q 2931 153 2306 100 
L 2306 -816 
L 1863 -816 
L 1863 59 
Q 1128 -3 313 -91 
L 213 359 
Q 956 400 1863 466 
L 1863 1078 
L 488 1078 
L 488 1484 
Q 741 1813 984 2216 
L 275 2216 
L 275 2609 
L 1213 2609 
Q 1366 2888 1513 3197 
L 1975 3053 
Q 1847 2819 1725 2609 
L 3538 2609 
L 3538 2216 
L 1491 2216 
Q 1231 1791 1006 1472 
z
M 4613 4841 
L 4919 5147 
Q 5550 4672 5944 4303 
L 5588 3941 
Q 5163 4397 4613 4841 
z
" id="MicrosoftYaHei-8f7d" transform="scale(0.015625)"/>
       </defs>
       <use xlink:href="#MicrosoftYaHei-88c5"/>
       <use x="100" xlink:href="#MicrosoftYaHei-8f7d"/>
       <use x="200" xlink:href="#MicrosoftYaHei-8f66"/>
      </g>
     </g>
    </g>
    <g id="xtick_3">
     <g id="line2d_3">
      <g>
       <use style="stroke:#000000;stroke-width:0.8;" x="264.775528" xlink:href="#m5034321940" y="369.146978"/>
      </g>
     </g>
     <g id="text_3">
      <!-- 集卡车 -->
      <g transform="translate(235.154345 391.632919)rotate(-15)scale(0.1 -0.1)">
       <defs>
        <path d="M 3056 5134 
L 3425 5359 
Q 3719 5034 3906 4722 
L 3619 4541 
L 6013 4541 
L 6013 4153 
L 3644 4153 
L 3644 3709 
L 5738 3709 
L 5738 3347 
L 3644 3347 
L 3644 2903 
L 5738 2903 
L 5738 2541 
L 3644 2541 
L 3644 2084 
L 6031 2084 
L 6031 1697 
L 1475 1697 
L 1475 1459 
L 1038 1459 
L 1038 3684 
Q 716 3309 381 3009 
Q 281 3191 81 3422 
Q 988 4178 1613 5284 
L 2044 5091 
Q 1869 4803 1688 4541 
L 3456 4541 
Q 3288 4825 3056 5134 
z
M 288 1141 
L 2981 1141 
L 2981 1566 
L 3419 1566 
L 3419 1141 
L 6106 1141 
L 6106 741 
L 3906 741 
Q 5000 -31 6338 -303 
Q 6169 -566 6044 -766 
Q 4519 -325 3419 631 
L 3419 -834 
L 2981 -834 
L 2981 638 
Q 1844 -313 356 -778 
Q 225 -584 63 -384 
Q 1406 -56 2475 741 
L 288 741 
L 288 1141 
z
M 1475 2084 
L 3206 2084 
L 3206 2541 
L 1475 2541 
L 1475 2084 
z
M 1475 2903 
L 3206 2903 
L 3206 3347 
L 1475 3347 
L 1475 2903 
z
M 1475 3709 
L 3206 3709 
L 3206 4153 
L 1475 4153 
L 1475 3709 
z
" id="MicrosoftYaHei-96c6" transform="scale(0.015625)"/>
        <path d="M 194 2909 
L 2688 2909 
L 2688 5297 
L 3213 5297 
L 3213 4366 
L 5838 4366 
L 5838 3903 
L 3213 3903 
L 3213 2909 
L 6231 2909 
L 6231 2434 
L 194 2434 
L 194 2909 
z
M 2681 2209 
L 3206 2209 
L 3206 1491 
L 3463 1822 
Q 4950 1141 5881 616 
L 5556 153 
Q 4706 672 3206 1397 
L 3206 -859 
L 2681 -859 
L 2681 2209 
z
" id="MicrosoftYaHei-5361" transform="scale(0.015625)"/>
       </defs>
       <use xlink:href="#MicrosoftYaHei-96c6"/>
       <use x="100" xlink:href="#MicrosoftYaHei-5361"/>
       <use x="200" xlink:href="#MicrosoftYaHei-8f66"/>
      </g>
     </g>
    </g>
    <g id="xtick_4">
     <g id="line2d_4">
      <g>
       <use style="stroke:#000000;stroke-width:0.8;" x="341.707051" xlink:href="#m5034321940" y="369.146978"/>
      </g>
     </g>
     <g id="text_4">
      <!-- 叉车 -->
      <g transform="translate(321.745126 389.044728)rotate(-15)scale(0.1 -0.1)">
       <defs>
        <path d="M 613 4809 
L 5438 4809 
L 5438 4341 
Q 4934 2241 3600 897 
Q 4516 238 6313 -228 
Q 6081 -516 5881 -784 
Q 4119 -169 3197 541 
Q 2181 -241 438 -809 
Q 288 -584 94 -322 
Q 1863 181 2803 881 
Q 1434 2169 1025 4353 
L 613 4353 
L 613 4809 
z
M 4894 4353 
L 1550 4353 
Q 1838 2469 3203 1225 
Q 4463 2425 4894 4353 
z
M 2531 3728 
L 2906 3984 
Q 3425 3353 3781 2884 
L 3356 2591 
Q 2719 3509 2531 3728 
z
" id="MicrosoftYaHei-53c9" transform="scale(0.015625)"/>
       </defs>
       <use xlink:href="#MicrosoftYaHei-53c9"/>
       <use x="100" xlink:href="#MicrosoftYaHei-8f66"/>
      </g>
     </g>
    </g>
    <g id="xtick_5">
     <g id="line2d_5">
      <g>
       <use style="stroke:#000000;stroke-width:0.8;" x="418.638574" xlink:href="#m5034321940" y="369.146978"/>
      </g>
     </g>
     <g id="text_5">
      <!-- 牵引车 -->
      <g transform="translate(389.017391 391.632919)rotate(-15)scale(0.1 -0.1)">
       <defs>
        <path d="M 225 666 
L 3100 666 
L 3100 1422 
L 1663 1422 
Q 1400 1047 1106 741 
Q 956 903 744 1053 
Q 1425 1728 1756 2422 
L 2200 2259 
Q 2075 2034 1944 1834 
L 3100 1834 
L 3100 2459 
L 3594 2459 
L 3594 1834 
L 5300 1834 
L 5300 1422 
L 3594 1422 
L 3594 666 
L 6188 666 
L 6188 253 
L 3594 253 
L 3594 -847 
L 3100 -847 
L 3100 253 
L 225 253 
L 225 666 
z
M 500 4678 
L 2944 4678 
Q 3031 4947 3031 5322 
L 3500 5266 
Q 3475 4941 3413 4678 
L 5975 4678 
L 5975 4266 
L 3281 4266 
L 3194 4122 
Q 4488 3878 5625 3584 
L 5406 3153 
Q 4306 3497 2931 3816 
Q 2369 3316 869 3159 
Q 788 3353 625 3597 
Q 2338 3753 2725 4266 
L 500 4266 
L 500 4678 
z
M 313 3041 
L 6113 3041 
L 6113 1891 
L 5638 1891 
L 5638 2628 
L 788 2628 
L 788 1891 
L 313 1891 
L 313 3041 
z
" id="MicrosoftYaHei-7275" transform="scale(0.015625)"/>
        <path d="M 1075 2078 
L 3663 2078 
Q 3575 828 3500 247 
Q 3413 -716 2438 -716 
Q 1863 -716 1144 -684 
Q 1100 -409 1013 -109 
Q 1688 -178 2344 -178 
Q 2963 -178 3006 441 
Q 3056 822 3113 1609 
L 463 1609 
L 831 3522 
L 3081 3522 
L 3081 4566 
L 463 4566 
L 463 5028 
L 3594 5028 
L 3594 2822 
L 3081 2822 
L 3081 3059 
L 1256 3059 
L 1075 2078 
z
M 5175 5291 
L 5700 5291 
L 5700 -828 
L 5175 -828 
L 5175 5291 
z
" id="MicrosoftYaHei-5f15" transform="scale(0.015625)"/>
       </defs>
       <use xlink:href="#MicrosoftYaHei-7275"/>
       <use x="100" xlink:href="#MicrosoftYaHei-5f15"/>
       <use x="200" xlink:href="#MicrosoftYaHei-8f66"/>
      </g>
     </g>
    </g>
    <g id="xtick_6">
     <g id="line2d_6">
      <g>
       <use style="stroke:#000000;stroke-width:0.8;" x="495.570097" xlink:href="#m5034321940" y="369.146978"/>
      </g>
     </g>
     <g id="text_6">
      <!-- 起重机 -->
      <g transform="translate(465.948914 391.632919)rotate(-15)scale(0.1 -0.1)">
       <defs>
        <path d="M 106 -266 
Q 581 566 619 2241 
L 1081 2216 
Q 1059 1606 991 1091 
Q 1225 588 1613 288 
L 1613 2616 
L 138 2616 
L 138 3072 
L 1419 3072 
L 1419 3966 
L 356 3966 
L 356 4422 
L 1419 4422 
L 1419 5309 
L 1906 5309 
L 1906 4422 
L 2956 4422 
L 2956 3966 
L 1906 3966 
L 1906 3072 
L 3081 3072 
L 3081 2616 
L 2081 2616 
L 2081 1647 
L 3031 1647 
L 3031 1197 
L 2081 1197 
L 2081 16 
Q 2516 -159 3081 -166 
Q 4613 -178 6313 -141 
Q 6200 -422 6138 -634 
Q 4169 -641 2950 -616 
Q 1438 -588 884 478 
Q 709 -341 381 -853 
Q 256 -559 106 -266 
z
M 3850 1347 
Q 3850 1009 4188 1009 
L 5263 1009 
Q 5613 1009 5656 1316 
Q 5694 1597 5725 2153 
Q 5919 2066 6200 1972 
Q 6144 1366 6088 1084 
Q 5994 559 5325 559 
L 4069 559 
Q 3375 559 3375 1272 
L 3375 3303 
L 5325 3303 
L 5325 4491 
L 3256 4491 
L 3256 4941 
L 5800 4941 
L 5800 2641 
L 5325 2641 
L 5325 2853 
L 3850 2853 
L 3850 1347 
z
" id="MicrosoftYaHei-8d77" transform="scale(0.015625)"/>
        <path d="M 113 -203 
L 2975 -203 
L 2975 259 
L 600 259 
L 600 628 
L 2975 628 
L 2975 1153 
L 1288 1153 
L 1288 928 
L 850 928 
L 850 3278 
L 2975 3278 
L 2975 3728 
L 163 3728 
L 163 4116 
L 2975 4116 
L 2975 4606 
Q 1841 4572 625 4547 
Q 588 4747 538 4972 
Q 3706 5009 5669 5141 
L 5744 4716 
Q 4631 4663 3425 4619 
L 3425 4116 
L 6263 4116 
L 6263 3728 
L 3425 3728 
L 3425 3278 
L 5569 3278 
L 5569 934 
L 5131 934 
L 5131 1153 
L 3425 1153 
L 3425 628 
L 5806 628 
L 5806 259 
L 3425 259 
L 3425 -203 
L 6263 -203 
L 6263 -591 
L 113 -591 
L 113 -203 
z
M 3425 1516 
L 5131 1516 
L 5131 2053 
L 3425 2053 
L 3425 1516 
z
M 1288 1516 
L 2975 1516 
L 2975 2053 
L 1288 2053 
L 1288 1516 
z
M 5131 2916 
L 3425 2916 
L 3425 2384 
L 5131 2384 
L 5131 2916 
z
M 1288 2384 
L 2975 2384 
L 2975 2916 
L 1288 2916 
L 1288 2384 
z
" id="MicrosoftYaHei-91cd" transform="scale(0.015625)"/>
        <path d="M 3375 4434 
L 3375 2366 
Q 3375 128 2256 -878 
Q 2081 -666 1888 -453 
Q 2875 416 2875 2253 
L 2875 4909 
L 5200 4909 
L 5200 209 
Q 5200 -103 5419 -103 
L 5563 -103 
Q 5763 -103 5819 247 
Q 5881 728 5906 1284 
Q 6125 1178 6381 1084 
Q 6325 466 6269 72 
Q 6169 -591 5631 -591 
L 5300 -591 
Q 4700 -591 4700 122 
L 4700 4434 
L 3375 4434 
z
M 81 1403 
Q 781 2447 1078 3653 
L 144 3653 
L 144 4078 
L 1119 4078 
L 1119 5309 
L 1569 5309 
L 1569 4078 
L 2444 4078 
L 2444 3653 
L 1569 3653 
L 1569 2616 
L 1819 2866 
Q 2300 2428 2575 2153 
L 2238 1809 
Q 1853 2234 1569 2516 
L 1569 -784 
L 1119 -784 
L 1119 2566 
Q 784 1506 288 853 
Q 188 1134 81 1403 
z
" id="MicrosoftYaHei-673a" transform="scale(0.015625)"/>
       </defs>
       <use xlink:href="#MicrosoftYaHei-8d77"/>
       <use x="100" xlink:href="#MicrosoftYaHei-91cd"/>
       <use x="200" xlink:href="#MicrosoftYaHei-673a"/>
      </g>
     </g>
    </g>
    <g id="xtick_7">
     <g id="line2d_7">
      <g>
       <use style="stroke:#000000;stroke-width:0.8;" x="572.50162" xlink:href="#m5034321940" y="369.146978"/>
      </g>
     </g>
     <g id="text_7">
      <!-- 挖掘机 -->
      <g transform="translate(542.880437 391.632919)rotate(-15)scale(0.1 -0.1)">
       <defs>
        <path d="M 2194 2622 
Q 2944 3116 3563 3678 
L 3894 3347 
Q 3350 2884 2800 2478 
L 5344 2478 
L 5344 1947 
Q 4031 1166 3331 509 
Q 3025 234 3025 47 
Q 3025 -234 3588 -234 
L 5044 -234 
Q 5631 -234 5700 297 
Q 5744 691 5775 1128 
Q 5925 1059 6256 953 
Q 6194 372 6150 122 
Q 6031 -684 5138 -684 
L 3394 -684 
Q 2519 -684 2519 -47 
Q 2519 391 3056 859 
Q 3706 1447 4694 2041 
L 2775 2041 
L 2775 2453 
Q 2619 2341 2469 2234 
L 2194 2622 
z
M 200 1909 
Q 588 2016 1000 2153 
L 1000 3578 
L 244 3578 
L 244 4016 
L 1000 4016 
L 1000 5241 
L 1450 5241 
L 1450 4016 
L 2100 4016 
L 2100 3578 
L 1450 3578 
L 1450 2303 
Q 1750 2409 2069 2528 
Q 2075 2259 2088 2059 
Q 1794 1959 1450 1834 
L 1450 -134 
Q 1450 -734 894 -747 
Q 663 -747 344 -747 
Q 313 -503 263 -253 
Q 563 -291 756 -291 
Q 1000 -291 1000 -41 
L 1000 1672 
Q 656 1553 275 1416 
L 200 1909 
z
M 2363 4409 
L 6156 4409 
L 6156 3359 
L 5706 3359 
L 5706 3972 
L 2813 3972 
L 2813 3334 
L 2363 3334 
L 2363 4409 
z
M 6244 2616 
L 5913 2241 
Q 5281 2828 4600 3334 
L 4906 3666 
Q 5638 3122 6244 2616 
z
M 3756 5091 
L 4156 5334 
Q 4425 4997 4638 4678 
L 4225 4416 
Q 4025 4753 3756 5091 
z
" id="MicrosoftYaHei-6316" transform="scale(0.015625)"/>
        <path d="M 2588 2547 
Q 2588 266 1756 -866 
Q 1606 -672 1400 -484 
Q 2138 497 2138 2478 
L 2138 4978 
L 6013 4978 
L 6013 3347 
L 5563 3347 
L 5563 3522 
L 2588 3522 
L 2588 2547 
z
M 3219 -122 
L 4206 -122 
L 4206 1497 
L 3031 1497 
L 3031 2928 
L 3469 2928 
L 3469 1897 
L 4206 1897 
L 4206 3278 
L 4644 3278 
L 4644 1897 
L 5381 1897 
L 5381 2928 
L 5819 2928 
L 5819 1266 
L 5381 1266 
L 5381 1497 
L 4644 1497 
L 4644 -122 
L 5631 -122 
L 5631 1041 
L 6069 1041 
L 6069 -834 
L 5631 -834 
L 5631 -522 
L 2781 -522 
L 2781 1041 
L 3219 1041 
L 3219 -122 
z
M 75 1959 
Q 456 2109 875 2297 
L 875 3709 
L 131 3709 
L 131 4147 
L 875 4147 
L 875 5297 
L 1325 5297 
L 1325 4147 
L 1925 4147 
L 1925 3709 
L 1325 3709 
L 1325 2503 
Q 1588 2628 1863 2766 
Q 1881 2484 1913 2266 
Q 1625 2134 1325 1991 
L 1325 3 
Q 1325 -659 744 -672 
Q 525 -678 231 -672 
Q 206 -447 156 -203 
Q 450 -234 644 -234 
Q 875 -234 875 22 
L 875 1772 
Q 538 1609 188 1428 
L 75 1959 
z
M 5563 4591 
L 2588 4591 
L 2588 3909 
L 5563 3909 
L 5563 4591 
z
" id="MicrosoftYaHei-6398" transform="scale(0.015625)"/>
       </defs>
       <use xlink:href="#MicrosoftYaHei-6316"/>
       <use x="100" xlink:href="#MicrosoftYaHei-6398"/>
       <use x="200" xlink:href="#MicrosoftYaHei-673a"/>
      </g>
     </g>
    </g>
    <g id="xtick_8">
     <g id="line2d_8">
      <g>
       <use style="stroke:#000000;stroke-width:0.8;" x="649.433143" xlink:href="#m5034321940" y="369.146978"/>
      </g>
     </g>
     <g id="text_8">
      <!-- 抓料机 -->
      <g transform="translate(619.81196 391.632919)rotate(-15)scale(0.1 -0.1)">
       <defs>
        <path d="M 2825 4347 
L 2825 2041 
Q 2825 266 2025 -853 
Q 1863 -647 1669 -428 
Q 2363 503 2363 2153 
L 2363 4772 
Q 3919 4841 5713 5072 
L 5913 4609 
Q 5600 4575 5272 4544 
Q 5269 2394 5481 1409 
Q 5694 309 6313 -328 
Q 6081 -541 5913 -728 
Q 5269 -16 5044 1147 
Q 4822 2228 4822 4500 
Q 4453 4469 4063 4434 
L 4063 -691 
L 3600 -691 
L 3600 4400 
Q 3222 4372 2825 4347 
z
M 88 2009 
Q 531 2134 938 2256 
L 938 3659 
L 156 3659 
L 156 4109 
L 938 4109 
L 938 5297 
L 1400 5297 
L 1400 4109 
L 2106 4109 
L 2106 3659 
L 1400 3659 
L 1400 2397 
Q 1756 2509 2081 2616 
Q 2069 2309 2069 2134 
Q 1744 2028 1400 1916 
L 1400 -9 
Q 1400 -703 794 -716 
Q 594 -722 188 -709 
Q 163 -453 113 -191 
Q 463 -228 650 -228 
Q 938 -228 938 122 
L 938 1759 
Q 556 1631 156 1491 
L 88 2009 
z
" id="MicrosoftYaHei-6293" transform="scale(0.015625)"/>
        <path d="M 88 541 
Q 756 1397 1113 2472 
L 150 2472 
L 150 2897 
L 1194 2897 
L 1194 5297 
L 1656 5297 
L 1656 2897 
L 2675 2897 
L 2675 2472 
L 1656 2472 
L 1656 1853 
L 1938 2078 
Q 2363 1628 2706 1216 
L 2350 928 
Q 2025 1372 1656 1778 
L 1656 -828 
L 1194 -828 
L 1194 1691 
Q 800 641 281 41 
Q 200 297 88 541 
z
M 2850 1353 
L 4850 1597 
L 4850 5297 
L 5331 5297 
L 5331 1653 
L 6281 1772 
L 6319 1322 
L 5331 1197 
L 5331 -828 
L 4850 -828 
L 4850 1141 
L 2913 903 
L 2850 1353 
z
M 2981 2778 
L 3250 3109 
Q 3844 2716 4356 2309 
L 4050 1934 
Q 3569 2347 2981 2778 
z
M 1806 3347 
Q 2094 4053 2288 4653 
L 2731 4516 
Q 2500 3897 2194 3184 
L 1806 3347 
z
M 3119 4366 
L 3406 4697 
Q 3944 4309 4463 3859 
L 4150 3491 
Q 3744 3884 3119 4366 
z
M 144 4516 
L 519 4666 
Q 750 4128 1025 3416 
L 594 3222 
Q 313 4066 144 4516 
z
" id="MicrosoftYaHei-6599" transform="scale(0.015625)"/>
       </defs>
       <use xlink:href="#MicrosoftYaHei-6293"/>
       <use x="100" xlink:href="#MicrosoftYaHei-6599"/>
       <use x="200" xlink:href="#MicrosoftYaHei-673a"/>
      </g>
     </g>
    </g>
    <g id="text_9">
     <!-- 设备类型 -->
     <g transform="translate(356.172813 413.62665)scale(0.12 -0.12)">
      <defs>
       <path d="M 2231 2116 
L 2231 2547 
L 5638 2547 
L 5638 2116 
Q 5144 1031 4419 416 
Q 5216 -109 6338 -316 
Q 6119 -597 5956 -822 
Q 4841 -500 4013 113 
Q 3163 -463 1863 -872 
Q 1700 -641 1538 -422 
Q 2778 -88 3613 431 
Q 2888 1131 2559 2116 
L 2231 2116 
z
M 4856 4553 
L 3294 4553 
L 3294 4372 
Q 3294 3222 2244 2659 
Q 2075 2866 1881 3047 
Q 2806 3522 2806 4359 
L 2806 5016 
L 5344 5016 
L 5344 3741 
Q 5344 3459 5631 3459 
L 6319 3459 
Q 6288 3203 6269 2997 
L 5444 2997 
Q 4856 2997 4856 3647 
L 4856 4553 
z
M 2250 1028 
Q 2263 734 2294 472 
Q 1438 -84 1019 -422 
L 719 -9 
Q 931 197 931 553 
L 931 2778 
L 138 2778 
L 138 3228 
L 1406 3228 
L 1406 453 
Q 1813 722 2250 1028 
z
M 988 5128 
Q 1469 4653 1906 4166 
L 1469 3803 
Q 1013 4391 613 4803 
L 988 5128 
z
M 3031 2116 
Q 3347 1319 4022 713 
Q 4684 1225 5081 2116 
L 3031 2116 
z
" id="MicrosoftYaHei-8bbe" transform="scale(0.015625)"/>
       <path d="M 975 2097 
L 5425 2097 
L 5425 -816 
L 4975 -816 
L 4975 -541 
L 1425 -541 
L 1425 -816 
L 975 -816 
L 975 2097 
z
M 1869 5403 
L 2338 5203 
Q 2200 4975 2041 4753 
L 5425 4753 
L 5425 4334 
Q 4847 3638 3869 3119 
Q 4903 2772 6338 2697 
Q 6131 2403 5988 2172 
Q 4372 2366 3278 2838 
Q 2038 2306 281 2003 
Q 169 2222 19 2453 
Q 1569 2678 2719 3119 
Q 1981 3547 1559 4138 
Q 1094 3603 506 3109 
Q 338 3297 163 3453 
Q 1281 4353 1869 5403 
z
M 4756 4341 
L 1953 4341 
Q 2456 3741 3275 3353 
Q 4156 3772 4756 4341 
z
M 1425 953 
L 2975 953 
L 2975 1722 
L 1425 1722 
L 1425 953 
z
M 4975 1722 
L 3425 1722 
L 3425 953 
L 4975 953 
L 4975 1722 
z
M 3425 -166 
L 4975 -166 
L 4975 597 
L 3425 597 
L 3425 -166 
z
M 1425 -166 
L 2975 -166 
L 2975 597 
L 1425 597 
L 1425 -166 
z
" id="MicrosoftYaHei-5907" transform="scale(0.015625)"/>
       <path d="M 6338 -359 
Q 6213 -503 6006 -853 
Q 3975 -459 3200 884 
Q 2644 -497 400 -897 
Q 288 -684 131 -434 
Q 2244 -147 2744 1047 
L 275 1047 
L 275 1484 
L 2875 1484 
Q 2925 1691 2956 1978 
L 3456 1978 
Q 3413 1697 3369 1484 
L 6125 1484 
L 6125 1047 
L 3619 1047 
Q 4450 -159 6338 -359 
z
M 325 3741 
L 2975 3741 
L 2975 5303 
L 3450 5303 
L 3450 3741 
L 6075 3741 
L 6075 3322 
L 3450 3322 
L 3450 2953 
L 3625 3191 
Q 5325 2528 6231 2128 
L 6013 1722 
Q 4956 2266 3450 2847 
L 3450 2197 
L 2975 2197 
L 2975 3241 
Q 1863 2191 450 1741 
Q 319 1934 144 2153 
Q 1569 2553 2538 3322 
L 325 3322 
L 325 3741 
z
M 5550 4784 
Q 5163 4459 4394 3891 
L 4069 4222 
Q 4569 4578 5194 5122 
L 5550 4784 
z
M 900 4791 
L 1206 5122 
Q 1875 4647 2306 4266 
L 1969 3897 
Q 1581 4284 900 4791 
z
" id="MicrosoftYaHei-7c7b" transform="scale(0.015625)"/>
       <path d="M 150 3503 
L 1100 3503 
Q 1106 3638 1106 4547 
L 413 4547 
L 413 4959 
L 3675 4959 
L 3675 4547 
L 2994 4547 
L 2994 3503 
L 3881 3503 
L 3881 3091 
L 2994 3091 
L 2994 1747 
L 2538 1747 
L 2538 3091 
L 1528 3091 
Q 1450 2191 638 1534 
Q 475 1716 294 1897 
Q 1013 2453 1066 3091 
L 150 3091 
L 150 3503 
z
M 138 -103 
L 2938 -103 
L 2938 741 
L 706 741 
L 706 1172 
L 2938 1172 
L 2938 1659 
L 3425 1659 
L 3425 1172 
L 5713 1172 
L 5713 741 
L 3425 741 
L 3425 -103 
L 6256 -103 
L 6256 -534 
L 138 -534 
L 138 -103 
z
M 5856 5209 
L 5856 2334 
Q 5856 1672 5200 1659 
Q 4825 1647 4331 1659 
Q 4306 1897 4256 2153 
Q 4781 2122 5044 2122 
Q 5400 2122 5400 2516 
L 5400 5209 
L 5856 5209 
z
M 1556 3503 
L 2538 3503 
L 2538 4547 
L 1563 4547 
Q 1563 3791 1556 3503 
z
M 4138 4859 
L 4588 4859 
L 4588 2697 
L 4138 2697 
L 4138 4859 
z
" id="MicrosoftYaHei-578b" transform="scale(0.015625)"/>
      </defs>
      <use xlink:href="#MicrosoftYaHei-8bbe"/>
      <use x="100" xlink:href="#MicrosoftYaHei-5907"/>
      <use x="200" xlink:href="#MicrosoftYaHei-7c7b"/>
      <use x="300" xlink:href="#MicrosoftYaHei-578b"/>
     </g>
    </g>
   </g>
   <g id="matplotlib.axis_2">
    <g id="ytick_1">
     <g id="line2d_9">
      <path clip-path="url(#pa0496eb1d9)" d="M 54.367812 369.146978 
L 705.977813 369.146978 
" style="fill:none;stroke:#b0b0b0;stroke-dasharray:0.8,1.32;stroke-dashoffset:0;stroke-opacity:0.4;stroke-width:0.8;"/>
     </g>
     <g id="line2d_10">
      <defs>
       <path d="M 0 0 
L -3.5 0 
" id="m774661ae52" style="stroke:#000000;stroke-width:0.8;"/>
      </defs>
      <g>
       <use style="stroke:#000000;stroke-width:0.8;" x="54.367812" xlink:href="#m774661ae52" y="369.146978"/>
      </g>
     </g>
     <g id="text_10">
      <!-- 0 -->
      <g transform="translate(41.50375 373.143853)scale(0.1 -0.1)">
       <defs>
        <path d="M 284 2325 
Q 284 3606 709 4264 
Q 1134 4922 1941 4922 
Q 3478 4922 3478 2441 
Q 3478 1216 3045 567 
Q 2613 -81 1831 -81 
Q 1094 -81 689 534 
Q 284 1150 284 2325 
z
M 909 2353 
Q 909 425 1888 425 
Q 2850 425 2850 2384 
Q 2850 4413 1906 4413 
Q 909 4413 909 2353 
z
" id="MicrosoftYaHei-30" transform="scale(0.015625)"/>
       </defs>
       <use xlink:href="#MicrosoftYaHei-30"/>
      </g>
     </g>
    </g>
    <g id="ytick_2">
     <g id="line2d_11">
      <path clip-path="url(#pa0496eb1d9)" d="M 54.367812 315.387412 
L 705.977813 315.387412 
" style="fill:none;stroke:#b0b0b0;stroke-dasharray:0.8,1.32;stroke-dashoffset:0;stroke-opacity:0.4;stroke-width:0.8;"/>
     </g>
     <g id="line2d_12">
      <g>
       <use style="stroke:#000000;stroke-width:0.8;" x="54.367812" xlink:href="#m774661ae52" y="315.387412"/>
      </g>
     </g>
     <g id="text_11">
      <!-- 20 -->
      <g transform="translate(35.639688 319.384287)scale(0.1 -0.1)">
       <defs>
        <path d="M 2666 3572 
Q 2666 3963 2419 4186 
Q 2172 4409 1747 4409 
Q 1447 4409 1140 4256 
Q 834 4103 569 3819 
L 569 4413 
Q 806 4659 1107 4790 
Q 1409 4922 1816 4922 
Q 2472 4922 2872 4570 
Q 3272 4219 3272 3619 
Q 3272 3084 3026 2693 
Q 2781 2303 2188 1894 
Q 1581 1475 1376 1294 
Q 1172 1113 1090 947 
Q 1009 781 1009 544 
L 3416 544 
L 3416 0 
L 372 0 
L 372 241 
Q 372 659 486 951 
Q 600 1244 862 1520 
Q 1125 1797 1681 2184 
Q 2250 2584 2458 2886 
Q 2666 3188 2666 3572 
z
" id="MicrosoftYaHei-32" transform="scale(0.015625)"/>
       </defs>
       <use xlink:href="#MicrosoftYaHei-32"/>
       <use x="58.642578" xlink:href="#MicrosoftYaHei-30"/>
      </g>
     </g>
    </g>
    <g id="ytick_3">
     <g id="line2d_13">
      <path clip-path="url(#pa0496eb1d9)" d="M 54.367812 261.627846 
L 705.977813 261.627846 
" style="fill:none;stroke:#b0b0b0;stroke-dasharray:0.8,1.32;stroke-dashoffset:0;stroke-opacity:0.4;stroke-width:0.8;"/>
     </g>
     <g id="line2d_14">
      <g>
       <use style="stroke:#000000;stroke-width:0.8;" x="54.367812" xlink:href="#m774661ae52" y="261.627846"/>
      </g>
     </g>
     <g id="text_12">
      <!-- 40 -->
      <g transform="translate(35.639688 265.624721)scale(0.1 -0.1)">
       <defs>
        <path d="M 2906 4841 
L 2906 1644 
L 3631 1644 
L 3631 1138 
L 2906 1138 
L 2906 0 
L 2313 0 
L 2313 1138 
L 53 1138 
L 53 1616 
Q 656 2294 1265 3178 
Q 1875 4063 2272 4841 
L 2906 4841 
z
M 741 1644 
L 2313 1644 
L 2313 3950 
Q 1988 3366 1616 2817 
Q 1244 2269 741 1644 
z
" id="MicrosoftYaHei-34" transform="scale(0.015625)"/>
       </defs>
       <use xlink:href="#MicrosoftYaHei-34"/>
       <use x="58.642578" xlink:href="#MicrosoftYaHei-30"/>
      </g>
     </g>
    </g>
    <g id="ytick_4">
     <g id="line2d_15">
      <path clip-path="url(#pa0496eb1d9)" d="M 54.367812 207.868281 
L 705.977813 207.868281 
" style="fill:none;stroke:#b0b0b0;stroke-dasharray:0.8,1.32;stroke-dashoffset:0;stroke-opacity:0.4;stroke-width:0.8;"/>
     </g>
     <g id="line2d_16">
      <g>
       <use style="stroke:#000000;stroke-width:0.8;" x="54.367812" xlink:href="#m774661ae52" y="207.868281"/>
      </g>
     </g>
     <g id="text_13">
      <!-- 60 -->
      <g transform="translate(35.639688 211.865156)scale(0.1 -0.1)">
       <defs>
        <path d="M 3181 4219 
Q 2803 4413 2391 4413 
Q 1763 4413 1381 3866 
Q 1000 3319 994 2372 
L 1009 2372 
Q 1353 3038 2106 3038 
Q 2734 3038 3109 2628 
Q 3484 2219 3484 1541 
Q 3484 831 3051 375 
Q 2619 -81 1947 -81 
Q 1209 -81 789 495 
Q 369 1072 369 2131 
Q 369 3413 920 4167 
Q 1472 4922 2372 4922 
Q 2888 4922 3181 4781 
L 3181 4219 
z
M 1031 1584 
Q 1031 1106 1286 765 
Q 1541 425 1963 425 
Q 2363 425 2613 719 
Q 2863 1013 2863 1475 
Q 2863 1975 2627 2253 
Q 2391 2531 1956 2531 
Q 1544 2531 1287 2250 
Q 1031 1969 1031 1584 
z
" id="MicrosoftYaHei-36" transform="scale(0.015625)"/>
       </defs>
       <use xlink:href="#MicrosoftYaHei-36"/>
       <use x="58.642578" xlink:href="#MicrosoftYaHei-30"/>
      </g>
     </g>
    </g>
    <g id="ytick_5">
     <g id="line2d_17">
      <path clip-path="url(#pa0496eb1d9)" d="M 54.367812 154.108715 
L 705.977813 154.108715 
" style="fill:none;stroke:#b0b0b0;stroke-dasharray:0.8,1.32;stroke-dashoffset:0;stroke-opacity:0.4;stroke-width:0.8;"/>
     </g>
     <g id="line2d_18">
      <g>
       <use style="stroke:#000000;stroke-width:0.8;" x="54.367812" xlink:href="#m774661ae52" y="154.108715"/>
      </g>
     </g>
     <g id="text_14">
      <!-- 80 -->
      <g transform="translate(35.639688 158.10559)scale(0.1 -0.1)">
       <defs>
        <path d="M 306 1350 
Q 306 1769 556 2122 
Q 806 2475 1200 2625 
Q 884 2803 700 3081 
Q 516 3359 516 3684 
Q 516 4028 692 4312 
Q 869 4597 1183 4759 
Q 1497 4922 1875 4922 
Q 2256 4922 2572 4761 
Q 2888 4600 3063 4315 
Q 3238 4031 3238 3684 
Q 3238 3366 3058 3086 
Q 2878 2806 2559 2625 
Q 2953 2472 3200 2119 
Q 3447 1766 3447 1350 
Q 3447 938 3250 611 
Q 3053 284 2690 103 
Q 2328 -78 1875 -78 
Q 1425 -78 1065 103 
Q 706 284 506 612 
Q 306 941 306 1350 
z
M 906 1378 
Q 906 947 1172 687 
Q 1438 428 1878 428 
Q 2309 428 2582 692 
Q 2856 956 2856 1378 
Q 2856 1778 2579 2051 
Q 2303 2325 1878 2325 
Q 1456 2325 1181 2058 
Q 906 1791 906 1378 
z
M 1081 3634 
Q 1081 3309 1312 3076 
Q 1544 2844 1878 2844 
Q 2206 2844 2445 3078 
Q 2684 3313 2684 3634 
Q 2684 3963 2454 4191 
Q 2225 4419 1878 4419 
Q 1534 4419 1307 4195 
Q 1081 3972 1081 3634 
z
" id="MicrosoftYaHei-38" transform="scale(0.015625)"/>
       </defs>
       <use xlink:href="#MicrosoftYaHei-38"/>
       <use x="58.642578" xlink:href="#MicrosoftYaHei-30"/>
      </g>
     </g>
    </g>
    <g id="ytick_6">
     <g id="line2d_19">
      <path clip-path="url(#pa0496eb1d9)" d="M 54.367812 100.349149 
L 705.977813 100.349149 
" style="fill:none;stroke:#b0b0b0;stroke-dasharray:0.8,1.32;stroke-dashoffset:0;stroke-opacity:0.4;stroke-width:0.8;"/>
     </g>
     <g id="line2d_20">
      <g>
       <use style="stroke:#000000;stroke-width:0.8;" x="54.367812" xlink:href="#m774661ae52" y="100.349149"/>
      </g>
     </g>
     <g id="text_15">
      <!-- 100 -->
      <g transform="translate(29.775625 104.346024)scale(0.1 -0.1)">
       <defs>
        <path d="M 1781 0 
L 1781 4141 
Q 1638 3997 1295 3819 
Q 953 3641 663 3569 
L 663 4169 
Q 1047 4275 1484 4508 
Q 1922 4741 2156 4947 
L 2388 4947 
L 2388 0 
L 1781 0 
z
" id="MicrosoftYaHei-31" transform="scale(0.015625)"/>
       </defs>
       <use xlink:href="#MicrosoftYaHei-31"/>
       <use x="58.642578" xlink:href="#MicrosoftYaHei-30"/>
       <use x="117.285156" xlink:href="#MicrosoftYaHei-30"/>
      </g>
     </g>
    </g>
    <g id="ytick_7">
     <g id="line2d_21">
      <path clip-path="url(#pa0496eb1d9)" d="M 54.367812 46.589584 
L 705.977813 46.589584 
" style="fill:none;stroke:#b0b0b0;stroke-dasharray:0.8,1.32;stroke-dashoffset:0;stroke-opacity:0.4;stroke-width:0.8;"/>
     </g>
     <g id="line2d_22">
      <g>
       <use style="stroke:#000000;stroke-width:0.8;" x="54.367812" xlink:href="#m774661ae52" y="46.589584"/>
      </g>
     </g>
     <g id="text_16">
      <!-- 120 -->
      <g transform="translate(29.775625 50.586459)scale(0.1 -0.1)">
       <use xlink:href="#MicrosoftYaHei-31"/>
       <use x="58.642578" xlink:href="#MicrosoftYaHei-32"/>
       <use x="117.285156" xlink:href="#MicrosoftYaHei-30"/>
      </g>
     </g>
    </g>
    <g id="text_17">
     <!-- 传感器数量 -->
     <g transform="translate(16.7925 233.769114)rotate(-90)scale(0.12 -0.12)">
      <defs>
       <path d="M 2413 684 
L 2681 1053 
Q 3397 666 4056 278 
L 5269 1472 
L 2606 1472 
L 2606 1916 
Q 2731 2306 2847 2691 
L 1869 2691 
L 1869 3128 
L 2975 3128 
Q 3097 3550 3203 3959 
L 2175 3959 
L 2175 4397 
L 3316 4397 
Q 3425 4831 3519 5253 
L 4056 5253 
Q 3959 4838 3847 4397 
L 6050 4397 
L 6050 3959 
L 3734 3959 
Q 3625 3553 3503 3128 
L 6300 3128 
L 6300 2691 
L 3378 2691 
Q 3266 2306 3144 1909 
L 5906 1909 
L 5906 1453 
L 4481 22 
Q 4869 -209 5238 -447 
L 4913 -872 
Q 3594 34 2413 684 
z
M 88 2241 
Q 963 3528 1469 5297 
L 1975 5147 
Q 1741 4422 1475 3791 
L 1475 -803 
L 981 -803 
L 981 2763 
Q 663 2175 306 1691 
Q 213 1959 88 2241 
z
" id="MicrosoftYaHei-4f20" transform="scale(0.015625)"/>
       <path d="M 3531 1422 
Q 4013 1741 4388 2131 
Q 4022 2909 3944 4147 
L 1213 4147 
L 1213 3322 
Q 1213 1803 463 872 
Q 331 1134 138 1347 
Q 763 2034 763 3328 
L 763 4547 
L 3922 4547 
Q 3903 4928 3900 5284 
L 4363 5284 
Q 4363 4928 4378 4547 
L 6200 4547 
L 6200 4147 
L 4400 4147 
Q 4466 3184 4728 2531 
Q 5150 3088 5394 3772 
L 5819 3559 
Q 5456 2741 4947 2103 
Q 5059 1922 5194 1778 
Q 5344 1622 5475 1622 
Q 5594 1622 5669 1822 
Q 5763 2084 5856 2522 
Q 6019 2434 6319 2322 
Q 6175 1766 6069 1503 
Q 5888 1066 5538 1066 
Q 5250 1066 4925 1366 
Q 4756 1522 4616 1725 
Q 4278 1375 3888 1091 
Q 3738 1259 3531 1422 
z
M 1638 2891 
L 3563 2891 
L 3563 1541 
L 2063 1541 
L 2063 1366 
L 1638 1366 
L 1638 2891 
z
M 1713 997 
L 2188 997 
L 2188 134 
Q 2188 -253 2588 -253 
L 3713 -253 
Q 4194 -253 4263 109 
Q 4313 316 4375 778 
Q 4588 691 4869 591 
Q 4788 166 4706 -103 
Q 4556 -691 3813 -691 
L 2488 -691 
Q 1713 -691 1713 78 
L 1713 997 
z
M 1444 3697 
L 3719 3697 
L 3719 3322 
L 1444 3322 
L 1444 3697 
z
M 844 1028 
L 1288 853 
Q 969 47 594 -534 
Q 438 -441 175 -297 
Q 581 291 844 1028 
z
M 3138 1916 
L 3138 2516 
L 2063 2516 
L 2063 1916 
L 3138 1916 
z
M 5113 634 
L 5463 884 
Q 5863 422 6275 -166 
L 5863 -459 
Q 5563 34 5113 634 
z
M 2706 1072 
L 3044 1328 
Q 3456 891 3781 491 
L 3388 191 
Q 3050 678 2706 1072 
z
M 5656 4866 
L 5350 4559 
Q 5081 4809 4763 5066 
L 5038 5353 
Q 5363 5116 5656 4866 
z
" id="MicrosoftYaHei-611f" transform="scale(0.015625)"/>
       <path d="M 300 2691 
L 2825 2691 
Q 2922 2925 2950 3234 
L 3400 3172 
Q 3363 2909 3291 2691 
L 4653 2691 
Q 4403 2872 4125 3047 
L 4381 3328 
Q 4794 3084 5125 2841 
L 4984 2691 
L 6150 2691 
L 6150 2278 
L 3738 2278 
Q 4459 1572 6300 1609 
Q 6150 1353 6044 1128 
Q 5878 1141 5725 1156 
L 5725 -753 
L 5288 -753 
L 5288 -409 
L 3950 -409 
L 3950 -747 
L 3513 -747 
L 3513 1184 
L 5503 1184 
Q 3716 1425 3219 2278 
L 3106 2278 
Q 2756 1534 838 1184 
L 2838 1184 
L 2838 -747 
L 2400 -747 
L 2400 -409 
L 1081 -409 
L 1081 -753 
L 644 -753 
L 644 1147 
Q 478 1116 300 1084 
Q 206 1272 56 1528 
Q 2144 1797 2563 2278 
L 300 2278 
L 300 2691 
z
M 3506 4966 
L 5719 4966 
L 5719 3122 
L 5281 3122 
L 5281 3341 
L 3944 3341 
L 3944 3147 
L 3506 3147 
L 3506 4966 
z
M 638 4966 
L 2831 4966 
L 2831 3147 
L 2394 3147 
L 2394 3341 
L 1075 3341 
L 1075 3084 
L 638 3084 
L 638 4966 
z
M 5281 4578 
L 3944 4578 
L 3944 3728 
L 5281 3728 
L 5281 4578 
z
M 2394 4578 
L 1075 4578 
L 1075 3728 
L 2394 3728 
L 2394 4578 
z
M 5288 797 
L 3950 797 
L 3950 -22 
L 5288 -22 
L 5288 797 
z
M 2400 797 
L 1081 797 
L 1081 -22 
L 2400 -22 
L 2400 797 
z
" id="MicrosoftYaHei-5668" transform="scale(0.015625)"/>
       <path d="M 4175 5303 
L 4675 5228 
Q 4544 4622 4369 4097 
L 6281 4097 
L 6281 3672 
L 5888 3672 
Q 5731 1834 5088 753 
Q 5594 66 6375 -372 
Q 6175 -647 6038 -866 
Q 5275 -372 4769 309 
Q 4194 -403 3400 -928 
Q 3263 -747 3044 -534 
Q 3919 41 4463 772 
Q 3956 1647 3794 2791 
Q 3663 2559 3519 2359 
Q 3394 2541 3206 2759 
Q 3931 3803 4175 5303 
z
M 150 1697 
L 1100 1697 
Q 1238 1934 1369 2184 
L 1819 2041 
Q 1719 1866 1619 1697 
L 3150 1697 
L 3150 1291 
Q 2913 678 2431 216 
Q 2775 53 3131 -109 
L 2856 -541 
Q 2469 -322 2050 -103 
Q 1344 -609 269 -903 
Q 169 -703 56 -466 
Q 969 -259 1600 128 
Q 1063 403 475 691 
Q 675 978 863 1284 
L 150 1284 
L 150 1697 
z
M 219 3847 
L 1656 3847 
L 1656 5247 
L 2119 5247 
L 2119 3847 
L 3319 3847 
L 3319 3434 
L 2119 3434 
L 2119 3053 
L 2306 3266 
Q 2888 2841 3281 2516 
L 2981 2166 
Q 2638 2491 2119 2897 
L 2119 2184 
L 1656 2184 
L 1656 3059 
Q 1088 2466 331 2016 
Q 213 2197 63 2397 
Q 850 2822 1506 3434 
L 219 3434 
L 219 3847 
z
M 5388 3672 
L 4219 3672 
Q 4188 3591 4150 3516 
Q 4263 2191 4775 1247 
Q 5275 2159 5388 3672 
z
M 1088 834 
Q 1531 634 2000 416 
Q 2431 784 2675 1284 
L 1375 1284 
Q 1231 1053 1088 834 
z
M 3038 5091 
L 3425 4834 
Q 3081 4384 2738 4003 
Q 2594 4128 2400 4266 
Q 2725 4647 3038 5091 
z
M 381 4816 
L 738 5059 
Q 1019 4716 1319 4322 
L 931 4047 
Q 656 4453 381 4816 
z
" id="MicrosoftYaHei-6570" transform="scale(0.015625)"/>
       <path d="M 113 -278 
L 2981 -278 
L 2981 78 
L 475 78 
L 475 403 
L 2981 403 
L 2981 759 
L 1494 759 
L 1494 597 
L 1069 597 
L 1069 2516 
L 5350 2516 
L 5350 597 
L 4925 597 
L 4925 759 
L 3419 759 
L 3419 403 
L 5931 403 
L 5931 78 
L 3419 78 
L 3419 -278 
L 6288 -278 
L 6288 -616 
L 113 -616 
L 113 -278 
z
M 1119 5072 
L 5306 5072 
L 5306 3284 
L 4881 3284 
L 4881 3453 
L 1544 3453 
L 1544 3284 
L 1119 3284 
L 1119 5072 
z
M 163 3153 
L 6263 3153 
L 6263 2816 
L 163 2816 
L 163 3153 
z
M 1544 3778 
L 4881 3778 
L 4881 4116 
L 1544 4116 
L 1544 3778 
z
M 4881 4747 
L 1544 4747 
L 1544 4416 
L 4881 4416 
L 4881 4747 
z
M 3419 1084 
L 4925 1084 
L 4925 1491 
L 3419 1491 
L 3419 1084 
z
M 1494 1084 
L 2981 1084 
L 2981 1491 
L 1494 1491 
L 1494 1084 
z
M 4925 2191 
L 3419 2191 
L 3419 1791 
L 4925 1791 
L 4925 2191 
z
M 1494 1791 
L 2981 1791 
L 2981 2191 
L 1494 2191 
L 1494 1791 
z
" id="MicrosoftYaHei-91cf" transform="scale(0.015625)"/>
      </defs>
      <use xlink:href="#MicrosoftYaHei-4f20"/>
      <use x="100" xlink:href="#MicrosoftYaHei-611f"/>
      <use x="200" xlink:href="#MicrosoftYaHei-5668"/>
      <use x="300" xlink:href="#MicrosoftYaHei-6570"/>
      <use x="400" xlink:href="#MicrosoftYaHei-91cf"/>
     </g>
    </g>
   </g>
   <g id="patch_11">
    <path d="M 54.367812 369.146978 
L 54.367812 38.39125 
" style="fill:none;stroke:#000000;stroke-linecap:square;stroke-linejoin:miter;stroke-width:0.8;"/>
   </g>
   <g id="patch_12">
    <path d="M 54.367812 369.146978 
L 705.977812 369.146978 
" style="fill:none;stroke:#000000;stroke-linecap:square;stroke-linejoin:miter;stroke-width:0.8;"/>
   </g>
   <g id="text_18">
    <!-- 64 -->
    <g transform="translate(104.745294 189.254474)scale(0.1 -0.1)">
     <defs>
      <path d="M 3378 3938 
Q 3009 4147 2575 4147 
Q 2016 4147 1680 3708 
Q 1344 3269 1344 2572 
L 1363 2572 
Q 1709 3103 2391 3103 
Q 3000 3103 3358 2686 
Q 3716 2269 3716 1600 
Q 3716 869 3250 392 
Q 2784 -84 2059 -84 
Q 1228 -84 786 516 
Q 344 1116 344 2159 
Q 344 3388 917 4155 
Q 1491 4922 2513 4922 
Q 3063 4922 3378 4791 
L 3378 3938 
z
M 1378 1591 
Q 1378 1216 1565 953 
Q 1753 691 2059 691 
Q 2369 691 2547 931 
Q 2725 1172 2725 1534 
Q 2725 2350 2053 2350 
Q 1750 2350 1564 2134 
Q 1378 1919 1378 1591 
z
" id="MicrosoftYaHei-Bold-36" transform="scale(0.015625)"/>
      <path d="M 3184 4841 
L 3184 1766 
L 3869 1766 
L 3869 1031 
L 3184 1031 
L 3184 0 
L 2266 0 
L 2266 1031 
L 103 1031 
L 103 1772 
Q 775 2522 1362 3359 
Q 1950 4197 2250 4841 
L 3184 4841 
z
M 997 1766 
L 2266 1766 
L 2266 3541 
Q 2116 3259 1836 2859 
Q 1556 2459 997 1766 
z
" id="MicrosoftYaHei-Bold-34" transform="scale(0.015625)"/>
     </defs>
     <use xlink:href="#MicrosoftYaHei-Bold-36"/>
     <use x="61.669922" xlink:href="#MicrosoftYaHei-Bold-34"/>
    </g>
   </g>
   <g id="text_19">
    <!-- 92 -->
    <g transform="translate(181.676817 113.991082)scale(0.1 -0.1)">
     <defs>
      <path d="M 544 941 
Q 931 691 1456 691 
Q 2628 691 2653 2216 
L 2634 2222 
Q 2316 1731 1650 1731 
Q 1047 1731 658 2154 
Q 269 2578 269 3222 
Q 269 3978 737 4450 
Q 1206 4922 1959 4922 
Q 2744 4922 3191 4325 
Q 3638 3728 3638 2659 
Q 3638 1391 3098 653 
Q 2559 -84 1547 -84 
Q 975 -84 544 100 
L 544 941 
z
M 1259 3313 
Q 1259 2928 1445 2709 
Q 1631 2491 1953 2491 
Q 2241 2491 2427 2700 
Q 2613 2909 2613 3219 
Q 2613 3591 2427 3869 
Q 2241 4147 1928 4147 
Q 1625 4147 1442 3906 
Q 1259 3666 1259 3313 
z
" id="MicrosoftYaHei-Bold-39" transform="scale(0.015625)"/>
      <path d="M 1500 841 
L 3553 841 
L 3553 0 
L 334 0 
L 334 359 
Q 334 738 473 1050 
Q 613 1363 856 1633 
Q 1100 1903 1613 2266 
Q 2081 2616 2268 2886 
Q 2456 3156 2456 3459 
Q 2456 4113 1744 4113 
Q 1119 4113 550 3613 
L 550 4513 
Q 1184 4922 1975 4922 
Q 2700 4922 3122 4551 
Q 3544 4181 3544 3531 
Q 3544 3169 3422 2876 
Q 3300 2584 3069 2328 
Q 2838 2072 2328 1713 
Q 1838 1363 1669 1172 
Q 1500 981 1500 841 
z
" id="MicrosoftYaHei-Bold-32" transform="scale(0.015625)"/>
     </defs>
     <use xlink:href="#MicrosoftYaHei-Bold-39"/>
     <use x="61.669922" xlink:href="#MicrosoftYaHei-Bold-32"/>
    </g>
   </g>
   <g id="text_20">
    <!-- 78 -->
    <g transform="translate(258.60834 151.622778)scale(0.1 -0.1)">
     <defs>
      <path d="M 3675 4225 
Q 3088 3172 2798 2528 
Q 2509 1884 2328 1275 
Q 2147 666 2050 0 
L 966 0 
Q 1122 947 1517 1917 
Q 1913 2888 2609 4009 
L 300 4009 
L 300 4841 
L 3675 4841 
L 3675 4225 
z
" id="MicrosoftYaHei-Bold-37" transform="scale(0.015625)"/>
      <path d="M 269 1303 
Q 269 1725 512 2053 
Q 756 2381 1219 2534 
Q 850 2719 648 3003 
Q 447 3288 447 3634 
Q 447 3997 645 4292 
Q 844 4588 1200 4755 
Q 1556 4922 1997 4922 
Q 2441 4922 2800 4758 
Q 3159 4594 3359 4298 
Q 3559 4003 3559 3647 
Q 3559 3309 3339 3018 
Q 3119 2728 2747 2559 
Q 3200 2403 3453 2076 
Q 3706 1750 3706 1313 
Q 3706 697 3228 309 
Q 2750 -78 1988 -78 
Q 1225 -78 747 309 
Q 269 697 269 1303 
z
M 1278 1394 
Q 1278 1056 1472 853 
Q 1666 650 1991 650 
Q 2303 650 2503 853 
Q 2703 1056 2703 1394 
Q 2703 1709 2500 1920 
Q 2297 2131 1991 2131 
Q 1675 2131 1476 1920 
Q 1278 1709 1278 1394 
z
M 1428 3531 
Q 1428 3266 1592 3077 
Q 1756 2888 2006 2888 
Q 2247 2888 2415 3072 
Q 2584 3256 2584 3531 
Q 2584 3806 2420 3997 
Q 2256 4188 2006 4188 
Q 1750 4188 1589 3997 
Q 1428 3806 1428 3531 
z
" id="MicrosoftYaHei-Bold-38" transform="scale(0.015625)"/>
     </defs>
     <use xlink:href="#MicrosoftYaHei-Bold-37"/>
     <use x="61.669922" xlink:href="#MicrosoftYaHei-Bold-38"/>
    </g>
   </g>
   <g id="text_21">
    <!-- 71 -->
    <g transform="translate(335.539863 170.438626)scale(0.1 -0.1)">
     <defs>
      <path d="M 2716 4947 
L 2716 0 
L 1700 0 
L 1700 3809 
Q 1513 3647 1188 3517 
Q 863 3388 591 3356 
L 591 4222 
Q 1447 4472 2072 4947 
L 2716 4947 
z
" id="MicrosoftYaHei-Bold-31" transform="scale(0.015625)"/>
     </defs>
     <use xlink:href="#MicrosoftYaHei-Bold-37"/>
     <use x="61.669922" xlink:href="#MicrosoftYaHei-Bold-31"/>
    </g>
   </g>
   <g id="text_22">
    <!-- 89 -->
    <g transform="translate(412.471387 122.055016)scale(0.1 -0.1)">
     <use xlink:href="#MicrosoftYaHei-Bold-38"/>
     <use x="61.669922" xlink:href="#MicrosoftYaHei-Bold-39"/>
    </g>
   </g>
   <g id="text_23">
    <!-- 85 -->
    <g transform="translate(489.40291 132.80693)scale(0.1 -0.1)">
     <defs>
      <path d="M 541 125 
L 541 997 
Q 1044 691 1613 691 
Q 2041 691 2283 902 
Q 2525 1113 2525 1472 
Q 2525 2225 1494 2225 
Q 1113 2225 616 2169 
L 797 4841 
L 3359 4841 
L 3359 4009 
L 1613 4009 
L 1544 2991 
Q 1803 3013 2022 3013 
Q 2731 3013 3142 2625 
Q 3553 2238 3553 1575 
Q 3553 844 3056 380 
Q 2559 -84 1706 -84 
Q 1016 -84 541 125 
z
" id="MicrosoftYaHei-Bold-35" transform="scale(0.015625)"/>
     </defs>
     <use xlink:href="#MicrosoftYaHei-Bold-38"/>
     <use x="61.669922" xlink:href="#MicrosoftYaHei-Bold-35"/>
    </g>
   </g>
   <g id="text_24">
    <!-- 107 -->
    <g transform="translate(563.250839 73.671407)scale(0.1 -0.1)">
     <defs>
      <path d="M 244 2341 
Q 244 3597 706 4259 
Q 1169 4922 2044 4922 
Q 3713 4922 3713 2453 
Q 3713 1238 3259 577 
Q 2806 -84 1950 -84 
Q 244 -84 244 2341 
z
M 1266 2366 
Q 1266 691 1981 691 
Q 2684 691 2684 2416 
Q 2684 4147 2000 4147 
Q 1266 4147 1266 2366 
z
" id="MicrosoftYaHei-Bold-30" transform="scale(0.015625)"/>
     </defs>
     <use xlink:href="#MicrosoftYaHei-Bold-31"/>
     <use x="61.669922" xlink:href="#MicrosoftYaHei-Bold-30"/>
     <use x="123.339844" xlink:href="#MicrosoftYaHei-Bold-37"/>
    </g>
   </g>
   <g id="text_25">
    <!-- 84 -->
    <g transform="translate(643.265956 135.494908)scale(0.1 -0.1)">
     <use xlink:href="#MicrosoftYaHei-Bold-38"/>
     <use x="61.669922" xlink:href="#MicrosoftYaHei-Bold-34"/>
    </g>
   </g>
   <g id="text_26">
    <!-- 港口设备传感器配置数量对比 -->
    <g transform="translate(289.172813 18.39125)scale(0.14 -0.14)">
     <defs>
      <path d="M 4294 5297 
L 5094 5297 
L 5094 4709 
L 5850 4709 
L 5850 4047 
L 5094 4047 
L 5094 3491 
L 6163 3491 
L 6163 2828 
L 5163 2828 
Q 5603 2341 6319 1966 
Q 6100 1622 5881 1172 
Q 5450 1447 5100 1803 
L 5100 572 
L 2925 572 
L 2925 303 
Q 2925 3 3213 3 
L 4894 3 
Q 5131 3 5212 161 
Q 5294 319 5306 1041 
Q 5756 816 6125 703 
Q 6041 -194 5787 -473 
Q 5534 -753 4963 -753 
L 2963 -753 
Q 2138 -753 2138 72 
L 2138 1275 
Q 2016 1172 1888 1072 
Q 1619 1516 1375 1834 
Q 2072 2272 2525 2828 
L 1613 2828 
L 1613 3491 
L 2550 3491 
L 2550 4047 
L 1850 4047 
L 1850 4709 
L 2550 4709 
L 2550 5297 
L 3350 5297 
L 3350 4709 
L 4294 4709 
L 4294 5297 
z
M 3350 3491 
L 4294 3491 
L 4294 4047 
L 3350 4047 
L 3350 3491 
z
M 3122 2347 
L 4644 2347 
Q 4478 2575 4341 2828 
L 3413 2828 
Q 3284 2578 3122 2347 
z
M 4325 1209 
L 4325 1709 
L 2925 1709 
L 2925 1209 
L 4325 1209 
z
M 781 5278 
Q 1306 4897 1738 4534 
L 1138 3916 
Q 725 4334 244 4747 
L 781 5278 
z
M 606 3647 
Q 1081 3303 1594 2859 
L 1019 2209 
Q 825 2403 81 3078 
L 606 3647 
z
M 781 1766 
Q 1188 1591 1588 1472 
Q 1350 547 1050 -822 
Q 644 -678 225 -566 
Q 444 116 781 1766 
z
" id="MicrosoftYaHei-Bold-6e2f" transform="scale(0.015625)"/>
      <path d="M 538 -672 
L 538 4784 
L 5869 4784 
L 5869 -672 
L 4931 -672 
L 4931 -228 
L 1475 -228 
L 1475 -672 
L 538 -672 
z
M 4931 3928 
L 1475 3928 
L 1475 628 
L 4931 628 
L 4931 3928 
z
" id="MicrosoftYaHei-Bold-53e3" transform="scale(0.015625)"/>
      <path d="M 1100 5341 
Q 1613 4728 1994 4222 
L 1219 3697 
Q 769 4441 400 4878 
L 1100 5341 
z
M 6281 3828 
Q 6163 3322 6125 3059 
Q 5544 3047 5275 3047 
Q 4569 3047 4569 3716 
L 4569 4347 
L 3500 4347 
Q 3494 3456 2659 2753 
L 5825 2753 
L 5825 2016 
Q 5384 1147 4747 525 
Q 5441 197 6313 59 
Q 6063 -322 5825 -816 
Q 4809 -575 4006 -72 
Q 3197 -609 2150 -859 
Q 1988 -466 1663 -41 
Q 2569 156 3247 500 
Q 2716 984 2306 1622 
L 2853 1978 
L 2181 1978 
L 2181 2753 
L 2609 2753 
Q 2363 3038 1969 3416 
Q 2644 3891 2644 4703 
L 2644 5109 
L 5413 5109 
L 5413 4109 
Q 5413 3869 5561 3841 
Q 5709 3813 6281 3828 
z
M 3997 975 
Q 4534 1406 4844 1978 
L 3044 1978 
Q 3441 1391 3997 975 
z
M 2125 1553 
Q 2175 1078 2306 597 
Q 1431 -178 1019 -641 
L 563 28 
Q 694 203 700 516 
L 700 2384 
L 94 2384 
L 94 3234 
L 1544 3234 
L 1544 966 
Q 1719 1153 2125 1553 
z
" id="MicrosoftYaHei-Bold-8bbe" transform="scale(0.015625)"/>
      <path d="M 5669 4847 
L 5669 4203 
Q 5119 3644 4275 3213 
Q 5159 3019 6306 2972 
Q 6088 2528 5944 2172 
Q 4325 2325 3194 2750 
Q 2184 2391 884 2153 
L 5600 2153 
L 5600 -828 
L 4738 -828 
L 4738 -584 
L 1663 -584 
L 1663 -828 
L 800 -828 
L 800 2138 
Q 609 2103 413 2072 
Q 269 2416 88 2816 
Q 1294 2978 2219 3219 
Q 1797 3481 1484 3800 
Q 1091 3469 663 3209 
Q 481 3422 119 3759 
Q 1156 4384 1900 5347 
L 2794 5247 
Q 2647 5041 2494 4847 
L 5669 4847 
z
M 3206 3534 
Q 3959 3825 4431 4197 
L 2116 4197 
Q 2550 3803 3206 3534 
z
M 4738 1522 
L 3606 1522 
L 3606 1072 
L 4738 1072 
L 4738 1522 
z
M 1663 1072 
L 2794 1072 
L 2794 1522 
L 1663 1522 
L 1663 1072 
z
M 3606 47 
L 4738 47 
L 4738 497 
L 3606 497 
L 3606 47 
z
M 1663 47 
L 2794 47 
L 2794 497 
L 1663 497 
L 1663 47 
z
" id="MicrosoftYaHei-Bold-5907" transform="scale(0.015625)"/>
      <path d="M 1306 5347 
L 2131 5128 
Q 1891 4375 1600 3681 
L 1600 -853 
L 806 -853 
L 806 2041 
Q 556 1597 281 1178 
Q 206 1672 75 2347 
Q 856 3609 1306 5347 
z
M 2325 334 
L 2738 1009 
Q 3278 816 4028 516 
L 4819 1297 
L 2450 1297 
L 2450 1978 
Q 2550 2263 2647 2559 
L 1875 2559 
L 1875 3272 
L 2866 3272 
L 3025 3828 
L 2175 3828 
L 2175 4528 
L 3209 4528 
L 3388 5278 
L 4319 5278 
L 4134 4528 
L 6075 4528 
L 6075 3828 
L 3950 3828 
L 3794 3272 
L 6300 3272 
L 6300 2559 
L 3578 2559 
Q 3488 2269 3394 1997 
L 6019 1997 
L 6019 1341 
L 4872 169 
L 5650 -159 
L 5206 -897 
Q 4088 -359 2325 334 
z
" id="MicrosoftYaHei-Bold-4f20" transform="scale(0.015625)"/>
      <path d="M 631 4766 
L 3769 4766 
Q 3756 5034 3750 5328 
L 4538 5328 
Q 4544 5034 4559 4766 
L 5006 4766 
Q 4903 4963 4806 5122 
L 5506 5316 
Q 5700 4981 5816 4766 
L 6225 4766 
L 6225 4053 
L 4613 4053 
Q 4672 3406 4778 2934 
Q 5050 3341 5275 3816 
L 5919 3441 
Q 5516 2691 5059 2113 
Q 5206 1828 5350 1828 
Q 5472 1828 5531 2051 
Q 5591 2275 5663 2628 
Q 6006 2416 6338 2278 
Q 6169 1572 6019 1326 
Q 5869 1081 5616 1000 
Q 5988 516 6313 -22 
L 5613 -447 
Q 5269 184 4894 728 
L 5313 966 
Q 4838 988 4494 1475 
Q 4278 1263 4050 1084 
Q 3841 1344 3669 1525 
L 3669 1403 
L 3309 1403 
Q 3634 1019 3938 628 
L 3313 191 
Q 3050 597 2625 1128 
L 3053 1403 
L 1613 1403 
L 1613 2947 
L 3669 2947 
L 3669 1725 
Q 3922 1925 4150 2159 
Q 3916 2816 3813 4053 
L 1413 4053 
L 1413 3266 
Q 1413 1950 972 1144 
L 1525 941 
Q 1231 209 838 -578 
L 113 -234 
Q 438 397 631 897 
Q 338 1188 75 1384 
Q 631 2022 631 3347 
L 631 4766 
z
M 2981 1966 
L 2981 2384 
L 2300 2384 
L 2300 1966 
L 2981 1966 
z
M 3681 3222 
L 1594 3222 
L 1594 3778 
L 3681 3778 
L 3681 3222 
z
M 4244 791 
Q 4638 547 5044 391 
Q 4781 -409 4517 -571 
Q 4253 -734 3844 -734 
L 2525 -734 
Q 1594 -734 1594 53 
L 1594 1059 
L 2419 1059 
L 2419 266 
Q 2419 -28 2763 -28 
L 3588 -28 
Q 3909 -28 4040 112 
Q 4172 253 4244 791 
z
" id="MicrosoftYaHei-Bold-611f" transform="scale(0.015625)"/>
      <path d="M 506 5059 
L 2956 5059 
L 2956 3297 
L 506 3297 
L 506 5059 
z
M 2194 3934 
L 2194 4422 
L 1269 4422 
L 1269 3934 
L 2194 3934 
z
M 3444 5059 
L 5888 5059 
L 5888 3297 
L 3444 3297 
L 3444 5059 
z
M 5125 3934 
L 5125 4422 
L 4213 4422 
L 4213 3934 
L 5125 3934 
z
M 3438 -797 
L 3438 1228 
L 4738 1228 
Q 3700 1456 3194 1984 
Q 2763 1466 1522 1228 
L 2950 1228 
L 2950 -809 
L 2225 -809 
L 2225 -572 
L 1231 -572 
L 1231 -809 
L 506 -809 
L 506 1097 
Q 372 1084 231 1078 
Q 194 1378 100 1716 
Q 2025 1766 2428 2253 
L 181 2253 
L 181 2891 
L 2728 2891 
Q 2756 3034 2769 3203 
L 3644 3203 
Q 3628 3038 3600 2891 
L 4444 2891 
L 4344 3134 
L 5144 3234 
L 5288 2891 
L 6231 2891 
L 6231 2253 
L 3772 2253 
Q 4438 1738 6306 1709 
Q 6200 1359 6144 1066 
Q 6013 1069 5888 1078 
L 5888 -809 
L 5163 -809 
L 5163 -572 
L 4163 -572 
L 4163 -797 
L 3438 -797 
z
M 5163 591 
L 4163 591 
L 4163 66 
L 5163 66 
L 5163 591 
z
M 2225 591 
L 1231 591 
L 1231 66 
L 2225 66 
L 2225 591 
z
" id="MicrosoftYaHei-Bold-5668" transform="scale(0.015625)"/>
      <path d="M 163 5009 
L 3406 5009 
L 3406 4297 
L 2519 4297 
L 2519 3753 
L 3325 3753 
L 3325 -797 
L 2663 -797 
L 2663 -391 
L 994 -391 
L 994 -784 
L 331 -784 
L 331 3753 
L 1138 3753 
L 1138 4297 
L 163 4297 
L 163 5009 
z
M 1700 3753 
L 1981 3753 
L 1981 4297 
L 1700 4297 
L 1700 3753 
z
M 1350 1397 
Q 1166 1556 994 1694 
L 994 1266 
L 2663 1266 
L 2663 1634 
L 2531 1634 
Q 1981 1634 1981 2197 
L 1981 3097 
L 1697 3097 
Q 1672 1950 1350 1397 
z
M 2738 2159 
L 2781 2159 
L 2781 3097 
L 2519 3097 
L 2519 2397 
Q 2519 2159 2738 2159 
z
M 888 1941 
Q 1131 2303 1131 3097 
L 888 3097 
L 888 1941 
z
M 994 259 
L 2663 259 
L 2663 647 
L 994 647 
L 994 259 
z
M 5538 1334 
Q 5819 1209 6331 1047 
Q 6209 119 6125 -164 
Q 6041 -447 5842 -578 
Q 5644 -709 5325 -709 
L 4513 -709 
Q 3713 -709 3713 153 
L 3713 3003 
L 5188 3003 
L 5188 4184 
L 3619 4184 
L 3619 4984 
L 6000 4984 
L 6000 2203 
L 4519 2203 
L 4519 359 
Q 4519 78 4788 78 
L 5081 78 
Q 5316 78 5394 250 
Q 5472 422 5538 1334 
z
" id="MicrosoftYaHei-Bold-914d" transform="scale(0.015625)"/>
      <path d="M 81 -97 
L 775 -97 
L 775 2609 
L 2650 2609 
L 2650 2859 
L 213 2859 
L 213 3422 
L 2650 3422 
L 2650 3697 
L 475 3697 
L 475 5109 
L 5931 5109 
L 5931 3697 
L 3600 3697 
L 3600 3422 
L 6175 3422 
L 6175 2859 
L 3600 2859 
L 3600 2609 
L 5619 2609 
L 5619 -97 
L 6319 -97 
L 6319 -672 
L 81 -672 
L 81 -97 
z
M 1644 -97 
L 4750 -97 
L 4750 147 
L 1644 147 
L 1644 -97 
z
M 4750 2059 
L 1644 2059 
L 1644 1822 
L 4750 1822 
L 4750 2059 
z
M 1644 547 
L 4750 547 
L 4750 784 
L 1644 784 
L 1644 547 
z
M 1644 1184 
L 4750 1184 
L 4750 1422 
L 1644 1422 
L 1644 1184 
z
M 2813 4209 
L 3594 4209 
L 3594 4597 
L 2813 4597 
L 2813 4209 
z
M 5113 4209 
L 5113 4597 
L 4331 4597 
L 4331 4209 
L 5113 4209 
z
M 1294 4209 
L 2075 4209 
L 2075 4597 
L 1294 4597 
L 1294 4209 
z
" id="MicrosoftYaHei-Bold-7f6e" transform="scale(0.015625)"/>
      <path d="M 238 4091 
L 725 4091 
Q 559 4425 281 4803 
L 844 5153 
Q 1038 4922 1369 4428 
L 806 4091 
L 1506 4091 
L 1506 5316 
L 2300 5316 
L 2300 4091 
L 2956 4091 
L 2438 4428 
Q 2750 4809 2963 5172 
L 3550 4822 
Q 3341 4466 3031 4091 
L 3394 4091 
L 3394 3453 
L 2300 3453 
L 2300 3016 
L 2513 3303 
Q 2903 3094 3253 2891 
Q 3766 3841 4138 5347 
L 4994 5266 
Q 4869 4781 4728 4341 
L 6294 4341 
L 6294 3578 
L 6041 3578 
Q 5906 1922 5338 856 
Q 5738 391 6319 53 
Q 6094 -203 5775 -778 
Q 5228 -413 4828 109 
Q 4313 -497 3631 -872 
Q 3378 -513 3072 -197 
L 2850 -566 
Q 2475 -350 2031 -128 
Q 1347 -584 394 -778 
Q 281 -434 63 -9 
Q 716 59 1213 253 
Q 781 444 300 641 
Q 513 950 681 1259 
L 169 1259 
L 169 1897 
L 991 1897 
Q 1094 2144 1169 2391 
L 1506 2359 
L 1506 2959 
Q 1044 2472 344 2053 
Q 213 2472 50 2803 
Q 672 3044 1172 3453 
L 238 3453 
L 238 4091 
z
M 4394 3400 
Q 4519 2359 4831 1659 
Q 5203 2478 5275 3578 
L 4463 3578 
Q 4431 3488 4394 3400 
z
M 2300 2216 
L 1984 2216 
Q 1913 2063 1825 1897 
L 3281 1897 
L 3281 1316 
Q 3038 806 2672 413 
L 3294 166 
L 3169 -38 
Q 3859 322 4347 894 
Q 4041 1522 3878 2300 
Q 3769 2103 3656 1922 
Q 3513 2172 3322 2438 
L 3138 2159 
Q 2750 2422 2300 2691 
L 2300 2216 
z
M 1300 934 
L 1950 691 
Q 2231 934 2413 1259 
L 1484 1259 
L 1300 934 
z
" id="MicrosoftYaHei-Bold-6570" transform="scale(0.015625)"/>
      <path d="M 725 5103 
L 5675 5103 
L 5675 3416 
L 725 3416 
L 725 5103 
z
M 4825 4666 
L 1575 4666 
L 1575 4447 
L 4825 4447 
L 4825 4666 
z
M 4825 3853 
L 4825 4072 
L 1575 4072 
L 1575 3853 
L 4825 3853 
z
M 138 3209 
L 6288 3209 
L 6288 2747 
L 138 2747 
L 138 3209 
z
M 113 -184 
L 2781 -184 
L 2781 53 
L 506 53 
L 506 491 
L 2781 491 
L 2781 716 
L 713 716 
L 713 2534 
L 5681 2534 
L 5681 716 
L 3606 716 
L 3606 491 
L 5925 491 
L 5925 53 
L 3606 53 
L 3606 -184 
L 6300 -184 
L 6300 -647 
L 113 -647 
L 113 -184 
z
M 4881 2097 
L 3606 2097 
L 3606 1816 
L 4881 1816 
L 4881 2097 
z
M 1513 1816 
L 2781 1816 
L 2781 2097 
L 1513 2097 
L 1513 1816 
z
M 4881 1153 
L 4881 1434 
L 3606 1434 
L 3606 1153 
L 4881 1153 
z
M 1513 1153 
L 2781 1153 
L 2781 1434 
L 1513 1434 
L 1513 1153 
z
" id="MicrosoftYaHei-Bold-91cf" transform="scale(0.015625)"/>
      <path d="M 3050 4234 
L 4850 4234 
L 4850 5309 
L 5744 5309 
L 5744 4234 
L 6319 4234 
L 6319 3409 
L 5744 3409 
L 5744 216 
Q 5744 -250 5539 -490 
Q 5334 -731 4987 -754 
Q 4641 -778 3656 -778 
Q 3594 -359 3450 147 
Q 3931 109 4409 109 
Q 4850 109 4850 516 
L 4850 3409 
L 3050 3409 
L 3050 4234 
z
M 863 3772 
L 1691 2509 
Q 1934 3206 2025 4016 
L 188 4016 
L 188 4834 
L 2900 4834 
L 2900 4028 
Q 2709 2722 2247 1669 
L 3169 278 
L 2394 -228 
L 1781 778 
Q 1269 -47 550 -684 
Q 369 -316 88 153 
Q 816 772 1278 1594 
L 181 3341 
L 863 3772 
z
M 3463 3047 
Q 4069 2278 4588 1528 
L 3844 1041 
Q 3375 1841 2813 2609 
L 3463 3047 
z
" id="MicrosoftYaHei-Bold-5bf9" transform="scale(0.015625)"/>
      <path d="M 5481 4441 
L 6294 3803 
Q 5234 2791 4119 1894 
L 4119 547 
Q 4119 153 4438 153 
L 4875 153 
Q 5119 153 5197 325 
Q 5275 497 5363 1597 
Q 5856 1409 6294 1278 
Q 6231 688 6131 248 
Q 6031 -191 5900 -358 
Q 5769 -525 5511 -617 
Q 5253 -709 4881 -709 
L 4094 -709 
Q 3194 -709 3194 247 
L 3194 5316 
L 4119 5316 
L 4119 3009 
Q 4797 3656 5481 4441 
z
M 1419 5241 
L 1419 3453 
L 2850 3453 
L 2850 2591 
L 1419 2591 
L 1419 372 
L 2869 866 
Q 2856 372 2888 -78 
Q 1500 -503 725 -922 
L 275 -184 
Q 494 -16 494 366 
L 494 5241 
L 1419 5241 
z
" id="MicrosoftYaHei-Bold-6bd4" transform="scale(0.015625)"/>
     </defs>
     <use xlink:href="#MicrosoftYaHei-Bold-6e2f"/>
     <use x="100" xlink:href="#MicrosoftYaHei-Bold-53e3"/>
     <use x="200" xlink:href="#MicrosoftYaHei-Bold-8bbe"/>
     <use x="300" xlink:href="#MicrosoftYaHei-Bold-5907"/>
     <use x="400" xlink:href="#MicrosoftYaHei-Bold-4f20"/>
     <use x="500" xlink:href="#MicrosoftYaHei-Bold-611f"/>
     <use x="600" xlink:href="#MicrosoftYaHei-Bold-5668"/>
     <use x="700" xlink:href="#MicrosoftYaHei-Bold-914d"/>
     <use x="800" xlink:href="#MicrosoftYaHei-Bold-7f6e"/>
     <use x="900" xlink:href="#MicrosoftYaHei-Bold-6570"/>
     <use x="1000" xlink:href="#MicrosoftYaHei-Bold-91cf"/>
     <use x="1100" xlink:href="#MicrosoftYaHei-Bold-5bf9"/>
     <use x="1200" xlink:href="#MicrosoftYaHei-Bold-6bd4"/>
    </g>
   </g>
  </g>
 </g>
 <defs>
  <clipPath id="pa0496eb1d9">
   <rect height="330.755728" width="651.61" x="54.367812" y="38.39125"/>
  </clipPath>
 </defs>
</svg>
