<?xml version="1.0" encoding="utf-8" standalone="no"?>
<!DOCTYPE svg PUBLIC "-//W3C//DTD SVG 1.1//EN"
  "http://www.w3.org/Graphics/SVG/1.1/DTD/svg11.dtd">
<svg height="266.529531pt" version="1.1" viewBox="0 0 609.508594 266.529531" width="609.508594pt" xmlns="http://www.w3.org/2000/svg" xmlns:xlink="http://www.w3.org/1999/xlink">
 <metadata>
  <rdf:RDF xmlns:cc="http://creativecommons.org/ns#" xmlns:dc="http://purl.org/dc/elements/1.1/" xmlns:rdf="http://www.w3.org/1999/02/22-rdf-syntax-ns#">
   <cc:Work>
    <dc:type rdf:resource="http://purl.org/dc/dcmitype/StillImage"/>
    <dc:date>2025-04-26T17:07:10.936023</dc:date>
    <dc:format>image/svg+xml</dc:format>
    <dc:creator>
     <cc:Agent>
      <dc:title>Matplotlib v3.4.3, https://matplotlib.org/</dc:title>
     </cc:Agent>
    </dc:creator>
   </cc:Work>
  </rdf:RDF>
 </metadata>
 <defs>
  <style type="text/css">*{stroke-linecap:butt;stroke-linejoin:round;}</style>
 </defs>
 <g id="figure_1">
  <g id="patch_1">
   <path d="M 0 266.529531 
L 609.508594 266.529531 
L 609.508594 0 
L 0 0 
z
" style="fill:none;"/>
  </g>
  <g id="axes_1">
   <g id="patch_2">
    <path d="M 35.967188 232.538906 
L 593.967188 232.538906 
L 593.967188 10.778906 
L 35.967188 10.778906 
z
" style="fill:none;"/>
   </g>
   <g id="matplotlib.axis_1">
    <g id="xtick_1">
     <g id="line2d_1">
      <path clip-path="url(#p006b81a4be)" d="M 35.967188 232.538906 
L 35.967188 10.778906 
" style="fill:none;stroke:#e6e6e6;stroke-dasharray:0.8,1.32;stroke-dashoffset:0;stroke-width:0.8;"/>
     </g>
     <g id="line2d_2"/>
     <g id="text_1">
      <!-- 0 -->
      <g style="fill:#262626;" transform="translate(33.186719 243.196719)scale(0.1 -0.1)">
       <defs>
        <path d="M 266 2259 
Q 266 3072 433 3567 
Q 600 4063 929 4331 
Q 1259 4600 1759 4600 
Q 2128 4600 2406 4451 
Q 2684 4303 2865 4023 
Q 3047 3744 3150 3342 
Q 3253 2941 3253 2259 
Q 3253 1453 3087 958 
Q 2922 463 2592 192 
Q 2263 -78 1759 -78 
Q 1097 -78 719 397 
Q 266 969 266 2259 
z
M 844 2259 
Q 844 1131 1108 757 
Q 1372 384 1759 384 
Q 2147 384 2411 759 
Q 2675 1134 2675 2259 
Q 2675 3391 2411 3762 
Q 2147 4134 1753 4134 
Q 1366 4134 1134 3806 
Q 844 3388 844 2259 
z
" id="ArialMT-30" transform="scale(0.015625)"/>
       </defs>
       <use xlink:href="#ArialMT-30"/>
      </g>
     </g>
    </g>
    <g id="xtick_2">
     <g id="line2d_3">
      <path clip-path="url(#p006b81a4be)" d="M 147.567187 232.538906 
L 147.567187 10.778906 
" style="fill:none;stroke:#e6e6e6;stroke-dasharray:0.8,1.32;stroke-dashoffset:0;stroke-width:0.8;"/>
     </g>
     <g id="line2d_4"/>
     <g id="text_2">
      <!-- 40 -->
      <g style="fill:#262626;" transform="translate(142.00625 243.196719)scale(0.1 -0.1)">
       <defs>
        <path d="M 2069 0 
L 2069 1097 
L 81 1097 
L 81 1613 
L 2172 4581 
L 2631 4581 
L 2631 1613 
L 3250 1613 
L 3250 1097 
L 2631 1097 
L 2631 0 
L 2069 0 
z
M 2069 1613 
L 2069 3678 
L 634 1613 
L 2069 1613 
z
" id="ArialMT-34" transform="scale(0.015625)"/>
       </defs>
       <use xlink:href="#ArialMT-34"/>
       <use x="55.615234" xlink:href="#ArialMT-30"/>
      </g>
     </g>
    </g>
    <g id="xtick_3">
     <g id="line2d_5">
      <path clip-path="url(#p006b81a4be)" d="M 259.167188 232.538906 
L 259.167188 10.778906 
" style="fill:none;stroke:#e6e6e6;stroke-dasharray:0.8,1.32;stroke-dashoffset:0;stroke-width:0.8;"/>
     </g>
     <g id="line2d_6"/>
     <g id="text_3">
      <!-- 80 -->
      <g style="fill:#262626;" transform="translate(253.60625 243.196719)scale(0.1 -0.1)">
       <defs>
        <path d="M 1131 2484 
Q 781 2613 612 2850 
Q 444 3088 444 3419 
Q 444 3919 803 4259 
Q 1163 4600 1759 4600 
Q 2359 4600 2725 4251 
Q 3091 3903 3091 3403 
Q 3091 3084 2923 2848 
Q 2756 2613 2416 2484 
Q 2838 2347 3058 2040 
Q 3278 1734 3278 1309 
Q 3278 722 2862 322 
Q 2447 -78 1769 -78 
Q 1091 -78 675 323 
Q 259 725 259 1325 
Q 259 1772 486 2073 
Q 713 2375 1131 2484 
z
M 1019 3438 
Q 1019 3113 1228 2906 
Q 1438 2700 1772 2700 
Q 2097 2700 2305 2904 
Q 2513 3109 2513 3406 
Q 2513 3716 2298 3927 
Q 2084 4138 1766 4138 
Q 1444 4138 1231 3931 
Q 1019 3725 1019 3438 
z
M 838 1322 
Q 838 1081 952 856 
Q 1066 631 1291 507 
Q 1516 384 1775 384 
Q 2178 384 2440 643 
Q 2703 903 2703 1303 
Q 2703 1709 2433 1975 
Q 2163 2241 1756 2241 
Q 1359 2241 1098 1978 
Q 838 1716 838 1322 
z
" id="ArialMT-38" transform="scale(0.015625)"/>
       </defs>
       <use xlink:href="#ArialMT-38"/>
       <use x="55.615234" xlink:href="#ArialMT-30"/>
      </g>
     </g>
    </g>
    <g id="xtick_4">
     <g id="line2d_7">
      <path clip-path="url(#p006b81a4be)" d="M 370.767188 232.538906 
L 370.767188 10.778906 
" style="fill:none;stroke:#e6e6e6;stroke-dasharray:0.8,1.32;stroke-dashoffset:0;stroke-width:0.8;"/>
     </g>
     <g id="line2d_8"/>
     <g id="text_4">
      <!-- 120 -->
      <g style="fill:#262626;" transform="translate(362.425781 243.196719)scale(0.1 -0.1)">
       <defs>
        <path d="M 2384 0 
L 1822 0 
L 1822 3584 
Q 1619 3391 1289 3197 
Q 959 3003 697 2906 
L 697 3450 
Q 1169 3672 1522 3987 
Q 1875 4303 2022 4600 
L 2384 4600 
L 2384 0 
z
" id="ArialMT-31" transform="scale(0.015625)"/>
        <path d="M 3222 541 
L 3222 0 
L 194 0 
Q 188 203 259 391 
Q 375 700 629 1000 
Q 884 1300 1366 1694 
Q 2113 2306 2375 2664 
Q 2638 3022 2638 3341 
Q 2638 3675 2398 3904 
Q 2159 4134 1775 4134 
Q 1369 4134 1125 3890 
Q 881 3647 878 3216 
L 300 3275 
Q 359 3922 746 4261 
Q 1134 4600 1788 4600 
Q 2447 4600 2831 4234 
Q 3216 3869 3216 3328 
Q 3216 3053 3103 2787 
Q 2991 2522 2730 2228 
Q 2469 1934 1863 1422 
Q 1356 997 1212 845 
Q 1069 694 975 541 
L 3222 541 
z
" id="ArialMT-32" transform="scale(0.015625)"/>
       </defs>
       <use xlink:href="#ArialMT-31"/>
       <use x="55.615234" xlink:href="#ArialMT-32"/>
       <use x="111.230469" xlink:href="#ArialMT-30"/>
      </g>
     </g>
    </g>
    <g id="xtick_5">
     <g id="line2d_9">
      <path clip-path="url(#p006b81a4be)" d="M 482.367188 232.538906 
L 482.367188 10.778906 
" style="fill:none;stroke:#e6e6e6;stroke-dasharray:0.8,1.32;stroke-dashoffset:0;stroke-width:0.8;"/>
     </g>
     <g id="line2d_10"/>
     <g id="text_5">
      <!-- 160 -->
      <g style="fill:#262626;" transform="translate(474.025781 243.196719)scale(0.1 -0.1)">
       <defs>
        <path d="M 3184 3459 
L 2625 3416 
Q 2550 3747 2413 3897 
Q 2184 4138 1850 4138 
Q 1581 4138 1378 3988 
Q 1113 3794 959 3422 
Q 806 3050 800 2363 
Q 1003 2672 1297 2822 
Q 1591 2972 1913 2972 
Q 2475 2972 2870 2558 
Q 3266 2144 3266 1488 
Q 3266 1056 3080 686 
Q 2894 316 2569 119 
Q 2244 -78 1831 -78 
Q 1128 -78 684 439 
Q 241 956 241 2144 
Q 241 3472 731 4075 
Q 1159 4600 1884 4600 
Q 2425 4600 2770 4297 
Q 3116 3994 3184 3459 
z
M 888 1484 
Q 888 1194 1011 928 
Q 1134 663 1356 523 
Q 1578 384 1822 384 
Q 2178 384 2434 671 
Q 2691 959 2691 1453 
Q 2691 1928 2437 2201 
Q 2184 2475 1800 2475 
Q 1419 2475 1153 2201 
Q 888 1928 888 1484 
z
" id="ArialMT-36" transform="scale(0.015625)"/>
       </defs>
       <use xlink:href="#ArialMT-31"/>
       <use x="55.615234" xlink:href="#ArialMT-36"/>
       <use x="111.230469" xlink:href="#ArialMT-30"/>
      </g>
     </g>
    </g>
    <g id="xtick_6">
     <g id="line2d_11">
      <path clip-path="url(#p006b81a4be)" d="M 593.967188 232.538906 
L 593.967188 10.778906 
" style="fill:none;stroke:#e6e6e6;stroke-dasharray:0.8,1.32;stroke-dashoffset:0;stroke-width:0.8;"/>
     </g>
     <g id="line2d_12"/>
     <g id="text_6">
      <!-- 200 -->
      <g style="fill:#262626;" transform="translate(585.625781 243.196719)scale(0.1 -0.1)">
       <use xlink:href="#ArialMT-32"/>
       <use x="55.615234" xlink:href="#ArialMT-30"/>
       <use x="111.230469" xlink:href="#ArialMT-30"/>
      </g>
     </g>
    </g>
    <g id="text_7">
     <!-- Time -->
     <g style="fill:#262626;" transform="translate(304.044531 257.342031)scale(0.1 -0.1)">
      <defs>
       <path d="M 1659 0 
L 1659 4041 
L 150 4041 
L 150 4581 
L 3781 4581 
L 3781 4041 
L 2266 4041 
L 2266 0 
L 1659 0 
z
" id="ArialMT-54" transform="scale(0.015625)"/>
       <path d="M 425 3934 
L 425 4581 
L 988 4581 
L 988 3934 
L 425 3934 
z
M 425 0 
L 425 3319 
L 988 3319 
L 988 0 
L 425 0 
z
" id="ArialMT-69" transform="scale(0.015625)"/>
       <path d="M 422 0 
L 422 3319 
L 925 3319 
L 925 2853 
Q 1081 3097 1340 3245 
Q 1600 3394 1931 3394 
Q 2300 3394 2536 3241 
Q 2772 3088 2869 2813 
Q 3263 3394 3894 3394 
Q 4388 3394 4653 3120 
Q 4919 2847 4919 2278 
L 4919 0 
L 4359 0 
L 4359 2091 
Q 4359 2428 4304 2576 
Q 4250 2725 4106 2815 
Q 3963 2906 3769 2906 
Q 3419 2906 3187 2673 
Q 2956 2441 2956 1928 
L 2956 0 
L 2394 0 
L 2394 2156 
Q 2394 2531 2256 2718 
Q 2119 2906 1806 2906 
Q 1569 2906 1367 2781 
Q 1166 2656 1075 2415 
Q 984 2175 984 1722 
L 984 0 
L 422 0 
z
" id="ArialMT-6d" transform="scale(0.015625)"/>
       <path d="M 2694 1069 
L 3275 997 
Q 3138 488 2766 206 
Q 2394 -75 1816 -75 
Q 1088 -75 661 373 
Q 234 822 234 1631 
Q 234 2469 665 2931 
Q 1097 3394 1784 3394 
Q 2450 3394 2872 2941 
Q 3294 2488 3294 1666 
Q 3294 1616 3291 1516 
L 816 1516 
Q 847 969 1125 678 
Q 1403 388 1819 388 
Q 2128 388 2347 550 
Q 2566 713 2694 1069 
z
M 847 1978 
L 2700 1978 
Q 2663 2397 2488 2606 
Q 2219 2931 1791 2931 
Q 1403 2931 1139 2672 
Q 875 2413 847 1978 
z
" id="ArialMT-65" transform="scale(0.015625)"/>
      </defs>
      <use xlink:href="#ArialMT-54"/>
      <use x="57.333984" xlink:href="#ArialMT-69"/>
      <use x="79.550781" xlink:href="#ArialMT-6d"/>
      <use x="162.851562" xlink:href="#ArialMT-65"/>
     </g>
    </g>
   </g>
   <g id="matplotlib.axis_2">
    <g id="ytick_1">
     <g id="line2d_13">
      <path clip-path="url(#p006b81a4be)" d="M 35.967188 232.538906 
L 593.967188 232.538906 
" style="fill:none;stroke:#e6e6e6;stroke-dasharray:0.8,1.32;stroke-dashoffset:0;stroke-width:0.8;"/>
     </g>
     <g id="line2d_14"/>
     <g id="text_8">
      <!-- 2 -->
      <g style="fill:#262626;" transform="translate(26.90625 236.117812)scale(0.1 -0.1)">
       <use xlink:href="#ArialMT-32"/>
      </g>
     </g>
    </g>
    <g id="ytick_2">
     <g id="line2d_15">
      <path clip-path="url(#p006b81a4be)" d="M 35.967188 177.098906 
L 593.967188 177.098906 
" style="fill:none;stroke:#e6e6e6;stroke-dasharray:0.8,1.32;stroke-dashoffset:0;stroke-width:0.8;"/>
     </g>
     <g id="line2d_16"/>
     <g id="text_9">
      <!-- 4 -->
      <g style="fill:#262626;" transform="translate(26.90625 180.677812)scale(0.1 -0.1)">
       <use xlink:href="#ArialMT-34"/>
      </g>
     </g>
    </g>
    <g id="ytick_3">
     <g id="line2d_17">
      <path clip-path="url(#p006b81a4be)" d="M 35.967188 121.658906 
L 593.967188 121.658906 
" style="fill:none;stroke:#e6e6e6;stroke-dasharray:0.8,1.32;stroke-dashoffset:0;stroke-width:0.8;"/>
     </g>
     <g id="line2d_18"/>
     <g id="text_10">
      <!-- 6 -->
      <g style="fill:#262626;" transform="translate(26.90625 125.237812)scale(0.1 -0.1)">
       <use xlink:href="#ArialMT-36"/>
      </g>
     </g>
    </g>
    <g id="ytick_4">
     <g id="line2d_19">
      <path clip-path="url(#p006b81a4be)" d="M 35.967188 66.218906 
L 593.967188 66.218906 
" style="fill:none;stroke:#e6e6e6;stroke-dasharray:0.8,1.32;stroke-dashoffset:0;stroke-width:0.8;"/>
     </g>
     <g id="line2d_20"/>
     <g id="text_11">
      <!-- 8 -->
      <g style="fill:#262626;" transform="translate(26.90625 69.797812)scale(0.1 -0.1)">
       <use xlink:href="#ArialMT-38"/>
      </g>
     </g>
    </g>
    <g id="ytick_5">
     <g id="line2d_21">
      <path clip-path="url(#p006b81a4be)" d="M 35.967188 10.778906 
L 593.967188 10.778906 
" style="fill:none;stroke:#e6e6e6;stroke-dasharray:0.8,1.32;stroke-dashoffset:0;stroke-width:0.8;"/>
     </g>
     <g id="line2d_22"/>
     <g id="text_12">
      <!-- 10 -->
      <g style="fill:#262626;" transform="translate(21.345313 14.357812)scale(0.1 -0.1)">
       <use xlink:href="#ArialMT-31"/>
       <use x="55.615234" xlink:href="#ArialMT-30"/>
      </g>
     </g>
    </g>
    <g id="text_13">
     <!-- Value -->
     <g style="fill:#262626;" transform="translate(14.357813 134.077656)rotate(-90)scale(0.1 -0.1)">
      <defs>
       <path d="M 1803 0 
L 28 4581 
L 684 4581 
L 1875 1253 
Q 2019 853 2116 503 
Q 2222 878 2363 1253 
L 3600 4581 
L 4219 4581 
L 2425 0 
L 1803 0 
z
" id="ArialMT-56" transform="scale(0.015625)"/>
       <path d="M 2588 409 
Q 2275 144 1986 34 
Q 1697 -75 1366 -75 
Q 819 -75 525 192 
Q 231 459 231 875 
Q 231 1119 342 1320 
Q 453 1522 633 1644 
Q 813 1766 1038 1828 
Q 1203 1872 1538 1913 
Q 2219 1994 2541 2106 
Q 2544 2222 2544 2253 
Q 2544 2597 2384 2738 
Q 2169 2928 1744 2928 
Q 1347 2928 1158 2789 
Q 969 2650 878 2297 
L 328 2372 
Q 403 2725 575 2942 
Q 747 3159 1072 3276 
Q 1397 3394 1825 3394 
Q 2250 3394 2515 3294 
Q 2781 3194 2906 3042 
Q 3031 2891 3081 2659 
Q 3109 2516 3109 2141 
L 3109 1391 
Q 3109 606 3145 398 
Q 3181 191 3288 0 
L 2700 0 
Q 2613 175 2588 409 
z
M 2541 1666 
Q 2234 1541 1622 1453 
Q 1275 1403 1131 1340 
Q 988 1278 909 1158 
Q 831 1038 831 891 
Q 831 666 1001 516 
Q 1172 366 1500 366 
Q 1825 366 2078 508 
Q 2331 650 2450 897 
Q 2541 1088 2541 1459 
L 2541 1666 
z
" id="ArialMT-61" transform="scale(0.015625)"/>
       <path d="M 409 0 
L 409 4581 
L 972 4581 
L 972 0 
L 409 0 
z
" id="ArialMT-6c" transform="scale(0.015625)"/>
       <path d="M 2597 0 
L 2597 488 
Q 2209 -75 1544 -75 
Q 1250 -75 995 37 
Q 741 150 617 320 
Q 494 491 444 738 
Q 409 903 409 1263 
L 409 3319 
L 972 3319 
L 972 1478 
Q 972 1038 1006 884 
Q 1059 663 1231 536 
Q 1403 409 1656 409 
Q 1909 409 2131 539 
Q 2353 669 2445 892 
Q 2538 1116 2538 1541 
L 2538 3319 
L 3100 3319 
L 3100 0 
L 2597 0 
z
" id="ArialMT-75" transform="scale(0.015625)"/>
      </defs>
      <use xlink:href="#ArialMT-56"/>
      <use x="59.324219" xlink:href="#ArialMT-61"/>
      <use x="114.939453" xlink:href="#ArialMT-6c"/>
      <use x="137.15625" xlink:href="#ArialMT-75"/>
      <use x="192.771484" xlink:href="#ArialMT-65"/>
     </g>
    </g>
   </g>
   <g id="line2d_23">
    <path clip-path="url(#p006b81a4be)" d="M 35.967188 149.378906 
L 42.676606 124.62894 
L 46.031316 112.960566 
L 49.386025 102.122071 
L 51.622498 95.480369 
L 53.858971 89.385115 
L 56.095444 83.898104 
L 58.331917 79.074967 
L 60.56839 74.964603 
L 62.804863 71.608683 
L 63.923099 70.224582 
L 65.041336 69.041233 
L 66.159572 68.061639 
L 67.277809 67.288282 
L 68.396045 66.723126 
L 69.514282 66.367603 
L 70.632518 66.222614 
L 71.750755 66.288529 
L 72.868991 66.565178 
L 73.987228 67.051862 
L 75.105464 67.747345 
L 76.223701 68.649863 
L 77.341937 69.757128 
L 78.460173 71.066331 
L 79.57841 72.574153 
L 81.814883 76.169858 
L 84.051356 80.507789 
L 86.287829 85.543966 
L 88.524302 91.227331 
L 90.760775 97.500261 
L 92.997248 104.299161 
L 96.351957 115.33163 
L 99.706666 127.139948 
L 105.297849 147.808329 
L 112.007268 172.625052 
L 115.361977 184.378789 
L 118.716686 195.334969 
L 120.953159 202.07179 
L 123.189632 208.274386 
L 125.426105 213.879874 
L 127.662578 218.831422 
L 129.899051 223.07883 
L 132.135524 226.579035 
L 133.253761 228.037541 
L 134.371997 229.296551 
L 135.490234 230.352872 
L 136.60847 231.203826 
L 137.726707 231.847254 
L 138.844943 232.281524 
L 139.963179 232.505534 
L 141.081416 232.518718 
L 142.199652 232.32104 
L 143.317889 231.913004 
L 144.436125 231.295642 
L 145.554362 230.470522 
L 146.672598 229.439735 
L 147.790835 228.205897 
L 148.909071 226.772136 
L 151.145544 223.31989 
L 153.382017 219.117998 
L 155.61849 214.209059 
L 157.854963 208.642844 
L 160.091436 202.475784 
L 162.327909 195.770405 
L 165.682618 184.85302 
L 169.037328 173.127273 
L 174.62851 152.5195 
L 182.456165 123.631265 
L 185.810875 112.022114 
L 189.165584 101.264226 
L 191.402057 94.687255 
L 193.63853 88.664773 
L 195.875003 83.257837 
L 198.111476 78.521266 
L 200.347949 74.503081 
L 202.584422 71.244021 
L 203.702658 78.499351 
L 205.939131 74.484867 
L 208.175604 71.229692 
L 209.293841 69.897469 
L 210.412077 68.766828 
L 211.530314 67.840637 
L 212.64855 67.121246 
L 213.766787 66.610477 
L 214.885023 66.309628 
L 216.00326 66.219461 
L 217.121496 66.340204 
L 218.239733 71.424807 
L 219.357969 72.981705 
L 221.594442 76.67234 
L 223.830915 81.100107 
L 226.067388 86.220115 
L 228.303861 91.980454 
L 230.540334 98.322725 
L 232.776807 105.182626 
L 236.131516 116.289634 
L 239.486226 128.150661 
L 245.077408 148.855353 
L 251.786827 173.628554 
L 255.141536 185.325846 
L 258.496246 196.204001 
L 260.732719 202.877674 
L 262.969192 209.008952 
L 265.205664 214.535675 
L 267.442137 219.401809 
L 269.67861 223.55802 
L 271.915083 226.96217 
L 273.03332 228.371129 
L 274.151556 229.579747 
L 275.269793 230.584957 
L 276.388029 231.384211 
L 277.506266 231.975482 
L 278.624502 232.35727 
L 279.742739 232.528606 
L 280.860975 232.489056 
L 281.979212 232.238721 
L 283.097448 231.778235 
L 284.215684 231.108767 
L 285.333921 230.232013 
L 286.452157 229.150198 
L 287.570394 227.866066 
L 288.68863 226.382873 
L 290.925103 222.834848 
L 293.161576 218.542093 
L 295.398049 213.548132 
L 297.634522 207.903594 
L 299.870995 201.665707 
L 302.107468 194.897712 
L 305.462177 183.90317 
L 308.816887 172.121909 
L 314.408069 151.472912 
L 321.117488 126.635903 
L 324.472198 114.854643 
L 327.826907 103.8601 
L 330.06338 97.092106 
L 332.299853 90.854219 
L 334.536326 85.209681 
L 336.772799 80.215719 
L 339.009272 75.922965 
L 341.245745 72.374939 
L 342.363981 70.891746 
L 343.482218 69.607614 
L 344.600454 68.525799 
L 345.718691 67.649046 
L 346.836927 66.979577 
L 347.955163 66.519091 
L 349.0734 66.268756 
L 350.191636 66.229207 
L 351.309873 66.400543 
L 352.428109 66.782331 
L 353.546346 67.373601 
L 354.664582 68.172855 
L 355.782819 69.178066 
L 356.901055 70.386683 
L 358.019292 71.795642 
L 360.255765 75.199792 
L 362.492238 79.356003 
L 364.728711 84.222137 
L 366.965183 89.74886 
L 369.201656 95.880139 
L 371.438129 102.553812 
L 374.792839 113.431967 
L 378.147548 125.129259 
L 383.738731 145.715195 
L 391.566386 174.62821 
L 394.921095 186.267204 
L 398.275805 197.065609 
L 400.512278 203.675076 
L 402.748751 209.734065 
L 404.985224 215.181146 
L 407.221697 219.961095 
L 409.458169 224.02545 
L 411.694642 227.333005 
L 412.812879 228.692194 
L 413.931115 229.850227 
L 415.049352 230.804167 
L 416.167588 231.551595 
L 417.285825 232.090615 
L 418.404061 232.41986 
L 419.522298 232.538494 
L 420.640534 232.446218 
L 421.758771 232.143265 
L 422.877007 231.630403 
L 423.995244 230.908933 
L 425.11348 229.980686 
L 426.231717 228.848014 
L 427.349953 227.513792 
L 428.46819 225.981402 
L 430.704662 222.338159 
L 432.941135 217.955223 
L 435.177608 212.87703 
L 437.414081 207.155065 
L 439.650554 200.847339 
L 441.887027 194.017804 
L 445.241737 182.947846 
L 448.596446 171.112939 
L 454.187628 150.425992 
L 460.897047 125.630539 
L 464.251757 113.904792 
L 467.606466 102.987408 
L 469.842939 96.282028 
L 472.079412 90.114969 
L 474.315885 84.548753 
L 476.552358 79.639815 
L 478.788831 75.437922 
L 481.025304 71.985676 
L 482.14354 70.551915 
L 483.261777 69.318077 
L 484.380013 68.287291 
L 485.49825 67.46217 
L 486.616486 66.844809 
L 487.734723 66.436772 
L 488.852959 66.239095 
L 489.971196 66.252278 
L 491.089432 66.476289 
L 492.207668 66.910559 
L 493.325905 67.553986 
L 494.444141 68.40494 
L 495.562378 69.461262 
L 496.680614 70.720272 
L 497.798851 72.178778 
L 500.035324 75.678983 
L 502.271797 79.92639 
L 504.50827 84.877939 
L 506.744743 90.483427 
L 508.981216 96.686023 
L 511.217689 103.422843 
L 514.572398 114.379024 
L 517.927107 126.13276 
L 523.51829 146.761555 
L 530.227709 171.617865 
L 533.582418 183.426183 
L 536.937127 194.458651 
L 539.1736 201.257551 
L 541.410073 207.530482 
L 543.646546 213.213846 
L 545.883019 218.250023 
L 548.119492 222.587955 
L 550.355965 226.18366 
L 551.474202 227.691481 
L 552.592438 229.000684 
L 553.710674 230.107949 
L 554.828911 231.010468 
L 555.947147 231.705951 
L 557.065384 232.192634 
L 558.18362 232.469284 
L 559.301857 232.535198 
L 560.420093 232.39021 
L 561.53833 232.034686 
L 562.656566 231.46953 
L 563.774803 230.696174 
L 564.893039 229.716579 
L 566.011276 228.53323 
L 567.129512 227.149129 
L 568.247749 225.567785 
L 570.484222 221.829903 
L 572.720695 217.357481 
L 574.957167 212.195862 
L 577.19364 206.397376 
L 579.430113 200.020812 
L 582.784823 189.514929 
L 586.139532 178.09445 
L 590.612478 161.896511 
L 593.967188 149.378906 
L 593.967188 149.378906 
" style="fill:none;stroke:#4c72b0;stroke-linecap:round;stroke-width:2;"/>
   </g>
   <g id="patch_3">
    <path d="M 35.967188 232.538906 
L 35.967188 10.778906 
" style="fill:none;stroke:#4c4c4c;stroke-linecap:square;stroke-linejoin:miter;"/>
   </g>
   <g id="patch_4">
    <path d="M 593.967188 232.538906 
L 593.967188 10.778906 
" style="fill:none;stroke:#4c4c4c;stroke-linecap:square;stroke-linejoin:miter;"/>
   </g>
   <g id="patch_5">
    <path d="M 35.967188 232.538906 
L 593.967188 232.538906 
" style="fill:none;stroke:#4c4c4c;stroke-linecap:square;stroke-linejoin:miter;"/>
   </g>
   <g id="patch_6">
    <path d="M 35.967188 10.778906 
L 593.967188 10.778906 
" style="fill:none;stroke:#4c4c4c;stroke-linecap:square;stroke-linejoin:miter;"/>
   </g>
   <g id="PathCollection_1">
    <path clip-path="url(#p006b81a4be)" d="M 203.702658 82.971487 
C 204.888683 82.971487 206.02629 82.500274 206.864936 81.661629 
C 207.703582 80.822983 208.174794 79.685375 208.174794 78.499351 
C 208.174794 77.313327 207.703582 76.175719 206.864936 75.337073 
C 206.02629 74.498427 204.888683 74.027215 203.702658 74.027215 
C 202.516634 74.027215 201.379027 74.498427 200.540381 75.337073 
C 199.701735 76.175719 199.230522 77.313327 199.230522 78.499351 
C 199.230522 79.685375 199.701735 80.822983 200.540381 81.661629 
C 201.379027 82.500274 202.516634 82.971487 203.702658 82.971487 
z
" style="fill:none;stroke:#d62728;stroke-width:2;"/>
   </g>
   <g id="patch_7">
    <path d="M 241.38656 103.459871 
Q 224.629598 92.360636 209.550428 82.372712 
" style="fill:none;stroke:#d62728;stroke-linecap:round;stroke-width:1.8;"/>
    <path d="M 211.780804 86.248976 
L 209.550428 82.372712 
L 213.989665 82.91417 
" style="fill:none;stroke:#d62728;stroke-linecap:round;stroke-width:1.8;"/>
   </g>
  </g>
 </g>
 <defs>
  <clipPath id="p006b81a4be">
   <rect height="221.76" width="558" x="35.967188" y="10.778906"/>
  </clipPath>
 </defs>
</svg>
