<?xml version="1.0" encoding="utf-8" standalone="no"?>
<!DOCTYPE svg PUBLIC "-//W3C//DTD SVG 1.1//EN"
  "http://www.w3.org/Graphics/SVG/1.1/DTD/svg11.dtd">
<svg height="271.358594pt" version="1.1" viewBox="0 0 608.776719 271.358594" width="608.776719pt" xmlns="http://www.w3.org/2000/svg" xmlns:xlink="http://www.w3.org/1999/xlink">
 <metadata>
  <rdf:RDF xmlns:cc="http://creativecommons.org/ns#" xmlns:dc="http://purl.org/dc/elements/1.1/" xmlns:rdf="http://www.w3.org/1999/02/22-rdf-syntax-ns#">
   <cc:Work>
    <dc:type rdf:resource="http://purl.org/dc/dcmitype/StillImage"/>
    <dc:date>2025-04-26T18:25:33.011308</dc:date>
    <dc:format>image/svg+xml</dc:format>
    <dc:creator>
     <cc:Agent>
      <dc:title>Matplotlib v3.4.3, https://matplotlib.org/</dc:title>
     </cc:Agent>
    </dc:creator>
   </cc:Work>
  </rdf:RDF>
 </metadata>
 <defs>
  <style type="text/css">*{stroke-linecap:butt;stroke-linejoin:round;}</style>
 </defs>
 <g id="figure_1">
  <g id="patch_1">
   <path d="M -0 271.358594 
L 608.776719 271.358594 
L 608.776719 0 
L -0 0 
z
" style="fill:#ffffff;"/>
  </g>
  <g id="axes_1">
   <g id="patch_2">
    <path d="M 35.235312 232.538906 
L 593.235312 232.538906 
L 593.235312 10.778906 
L 35.235312 10.778906 
z
" style="fill:#ffffff;"/>
   </g>
   <g id="matplotlib.axis_1">
    <g id="xtick_1">
     <g id="line2d_1">
      <path clip-path="url(#pb95fad43d8)" d="M 35.235312 232.538906 
L 35.235312 10.778906 
" style="fill:none;stroke:#cccccc;stroke-linecap:round;stroke-opacity:0.4;stroke-width:0.8;"/>
     </g>
     <g id="line2d_2"/>
     <g id="text_1">
      <!-- 0 -->
      <g style="fill:#262626;" transform="translate(32.454844 243.196719)scale(0.1 -0.1)">
       <defs>
        <path d="M 266 2259 
Q 266 3072 433 3567 
Q 600 4063 929 4331 
Q 1259 4600 1759 4600 
Q 2128 4600 2406 4451 
Q 2684 4303 2865 4023 
Q 3047 3744 3150 3342 
Q 3253 2941 3253 2259 
Q 3253 1453 3087 958 
Q 2922 463 2592 192 
Q 2263 -78 1759 -78 
Q 1097 -78 719 397 
Q 266 969 266 2259 
z
M 844 2259 
Q 844 1131 1108 757 
Q 1372 384 1759 384 
Q 2147 384 2411 759 
Q 2675 1134 2675 2259 
Q 2675 3391 2411 3762 
Q 2147 4134 1753 4134 
Q 1366 4134 1134 3806 
Q 844 3388 844 2259 
z
" id="ArialMT-30" transform="scale(0.015625)"/>
       </defs>
       <use xlink:href="#ArialMT-30"/>
      </g>
     </g>
    </g>
    <g id="xtick_2">
     <g id="line2d_3">
      <path clip-path="url(#pb95fad43d8)" d="M 146.835312 232.538906 
L 146.835312 10.778906 
" style="fill:none;stroke:#cccccc;stroke-linecap:round;stroke-opacity:0.4;stroke-width:0.8;"/>
     </g>
     <g id="line2d_4"/>
     <g id="text_2">
      <!-- 40 -->
      <g style="fill:#262626;" transform="translate(141.274375 243.196719)scale(0.1 -0.1)">
       <defs>
        <path d="M 2069 0 
L 2069 1097 
L 81 1097 
L 81 1613 
L 2172 4581 
L 2631 4581 
L 2631 1613 
L 3250 1613 
L 3250 1097 
L 2631 1097 
L 2631 0 
L 2069 0 
z
M 2069 1613 
L 2069 3678 
L 634 1613 
L 2069 1613 
z
" id="ArialMT-34" transform="scale(0.015625)"/>
       </defs>
       <use xlink:href="#ArialMT-34"/>
       <use x="55.615234" xlink:href="#ArialMT-30"/>
      </g>
     </g>
    </g>
    <g id="xtick_3">
     <g id="line2d_5">
      <path clip-path="url(#pb95fad43d8)" d="M 258.435313 232.538906 
L 258.435313 10.778906 
" style="fill:none;stroke:#cccccc;stroke-linecap:round;stroke-opacity:0.4;stroke-width:0.8;"/>
     </g>
     <g id="line2d_6"/>
     <g id="text_3">
      <!-- 80 -->
      <g style="fill:#262626;" transform="translate(252.874375 243.196719)scale(0.1 -0.1)">
       <defs>
        <path d="M 1131 2484 
Q 781 2613 612 2850 
Q 444 3088 444 3419 
Q 444 3919 803 4259 
Q 1163 4600 1759 4600 
Q 2359 4600 2725 4251 
Q 3091 3903 3091 3403 
Q 3091 3084 2923 2848 
Q 2756 2613 2416 2484 
Q 2838 2347 3058 2040 
Q 3278 1734 3278 1309 
Q 3278 722 2862 322 
Q 2447 -78 1769 -78 
Q 1091 -78 675 323 
Q 259 725 259 1325 
Q 259 1772 486 2073 
Q 713 2375 1131 2484 
z
M 1019 3438 
Q 1019 3113 1228 2906 
Q 1438 2700 1772 2700 
Q 2097 2700 2305 2904 
Q 2513 3109 2513 3406 
Q 2513 3716 2298 3927 
Q 2084 4138 1766 4138 
Q 1444 4138 1231 3931 
Q 1019 3725 1019 3438 
z
M 838 1322 
Q 838 1081 952 856 
Q 1066 631 1291 507 
Q 1516 384 1775 384 
Q 2178 384 2440 643 
Q 2703 903 2703 1303 
Q 2703 1709 2433 1975 
Q 2163 2241 1756 2241 
Q 1359 2241 1098 1978 
Q 838 1716 838 1322 
z
" id="ArialMT-38" transform="scale(0.015625)"/>
       </defs>
       <use xlink:href="#ArialMT-38"/>
       <use x="55.615234" xlink:href="#ArialMT-30"/>
      </g>
     </g>
    </g>
    <g id="xtick_4">
     <g id="line2d_7">
      <path clip-path="url(#pb95fad43d8)" d="M 370.035313 232.538906 
L 370.035313 10.778906 
" style="fill:none;stroke:#cccccc;stroke-linecap:round;stroke-opacity:0.4;stroke-width:0.8;"/>
     </g>
     <g id="line2d_8"/>
     <g id="text_4">
      <!-- 120 -->
      <g style="fill:#262626;" transform="translate(361.693906 243.196719)scale(0.1 -0.1)">
       <defs>
        <path d="M 2384 0 
L 1822 0 
L 1822 3584 
Q 1619 3391 1289 3197 
Q 959 3003 697 2906 
L 697 3450 
Q 1169 3672 1522 3987 
Q 1875 4303 2022 4600 
L 2384 4600 
L 2384 0 
z
" id="ArialMT-31" transform="scale(0.015625)"/>
        <path d="M 3222 541 
L 3222 0 
L 194 0 
Q 188 203 259 391 
Q 375 700 629 1000 
Q 884 1300 1366 1694 
Q 2113 2306 2375 2664 
Q 2638 3022 2638 3341 
Q 2638 3675 2398 3904 
Q 2159 4134 1775 4134 
Q 1369 4134 1125 3890 
Q 881 3647 878 3216 
L 300 3275 
Q 359 3922 746 4261 
Q 1134 4600 1788 4600 
Q 2447 4600 2831 4234 
Q 3216 3869 3216 3328 
Q 3216 3053 3103 2787 
Q 2991 2522 2730 2228 
Q 2469 1934 1863 1422 
Q 1356 997 1212 845 
Q 1069 694 975 541 
L 3222 541 
z
" id="ArialMT-32" transform="scale(0.015625)"/>
       </defs>
       <use xlink:href="#ArialMT-31"/>
       <use x="55.615234" xlink:href="#ArialMT-32"/>
       <use x="111.230469" xlink:href="#ArialMT-30"/>
      </g>
     </g>
    </g>
    <g id="xtick_5">
     <g id="line2d_9">
      <path clip-path="url(#pb95fad43d8)" d="M 481.635312 232.538906 
L 481.635312 10.778906 
" style="fill:none;stroke:#cccccc;stroke-linecap:round;stroke-opacity:0.4;stroke-width:0.8;"/>
     </g>
     <g id="line2d_10"/>
     <g id="text_5">
      <!-- 160 -->
      <g style="fill:#262626;" transform="translate(473.293906 243.196719)scale(0.1 -0.1)">
       <defs>
        <path d="M 3184 3459 
L 2625 3416 
Q 2550 3747 2413 3897 
Q 2184 4138 1850 4138 
Q 1581 4138 1378 3988 
Q 1113 3794 959 3422 
Q 806 3050 800 2363 
Q 1003 2672 1297 2822 
Q 1591 2972 1913 2972 
Q 2475 2972 2870 2558 
Q 3266 2144 3266 1488 
Q 3266 1056 3080 686 
Q 2894 316 2569 119 
Q 2244 -78 1831 -78 
Q 1128 -78 684 439 
Q 241 956 241 2144 
Q 241 3472 731 4075 
Q 1159 4600 1884 4600 
Q 2425 4600 2770 4297 
Q 3116 3994 3184 3459 
z
M 888 1484 
Q 888 1194 1011 928 
Q 1134 663 1356 523 
Q 1578 384 1822 384 
Q 2178 384 2434 671 
Q 2691 959 2691 1453 
Q 2691 1928 2437 2201 
Q 2184 2475 1800 2475 
Q 1419 2475 1153 2201 
Q 888 1928 888 1484 
z
" id="ArialMT-36" transform="scale(0.015625)"/>
       </defs>
       <use xlink:href="#ArialMT-31"/>
       <use x="55.615234" xlink:href="#ArialMT-36"/>
       <use x="111.230469" xlink:href="#ArialMT-30"/>
      </g>
     </g>
    </g>
    <g id="xtick_6">
     <g id="line2d_11">
      <path clip-path="url(#pb95fad43d8)" d="M 593.235312 232.538906 
L 593.235312 10.778906 
" style="fill:none;stroke:#cccccc;stroke-linecap:round;stroke-opacity:0.4;stroke-width:0.8;"/>
     </g>
     <g id="line2d_12"/>
     <g id="text_6">
      <!-- 200 -->
      <g style="fill:#262626;" transform="translate(584.893906 243.196719)scale(0.1 -0.1)">
       <use xlink:href="#ArialMT-32"/>
       <use x="55.615234" xlink:href="#ArialMT-30"/>
       <use x="111.230469" xlink:href="#ArialMT-30"/>
      </g>
     </g>
    </g>
    <g id="text_7">
     <!-- Time -->
     <g style="fill:#262626;" transform="translate(301.128125 261.773594)scale(0.12 -0.12)">
      <defs>
       <path d="M 1659 0 
L 1659 4041 
L 150 4041 
L 150 4581 
L 3781 4581 
L 3781 4041 
L 2266 4041 
L 2266 0 
L 1659 0 
z
" id="ArialMT-54" transform="scale(0.015625)"/>
       <path d="M 425 3934 
L 425 4581 
L 988 4581 
L 988 3934 
L 425 3934 
z
M 425 0 
L 425 3319 
L 988 3319 
L 988 0 
L 425 0 
z
" id="ArialMT-69" transform="scale(0.015625)"/>
       <path d="M 422 0 
L 422 3319 
L 925 3319 
L 925 2853 
Q 1081 3097 1340 3245 
Q 1600 3394 1931 3394 
Q 2300 3394 2536 3241 
Q 2772 3088 2869 2813 
Q 3263 3394 3894 3394 
Q 4388 3394 4653 3120 
Q 4919 2847 4919 2278 
L 4919 0 
L 4359 0 
L 4359 2091 
Q 4359 2428 4304 2576 
Q 4250 2725 4106 2815 
Q 3963 2906 3769 2906 
Q 3419 2906 3187 2673 
Q 2956 2441 2956 1928 
L 2956 0 
L 2394 0 
L 2394 2156 
Q 2394 2531 2256 2718 
Q 2119 2906 1806 2906 
Q 1569 2906 1367 2781 
Q 1166 2656 1075 2415 
Q 984 2175 984 1722 
L 984 0 
L 422 0 
z
" id="ArialMT-6d" transform="scale(0.015625)"/>
       <path d="M 2694 1069 
L 3275 997 
Q 3138 488 2766 206 
Q 2394 -75 1816 -75 
Q 1088 -75 661 373 
Q 234 822 234 1631 
Q 234 2469 665 2931 
Q 1097 3394 1784 3394 
Q 2450 3394 2872 2941 
Q 3294 2488 3294 1666 
Q 3294 1616 3291 1516 
L 816 1516 
Q 847 969 1125 678 
Q 1403 388 1819 388 
Q 2128 388 2347 550 
Q 2566 713 2694 1069 
z
M 847 1978 
L 2700 1978 
Q 2663 2397 2488 2606 
Q 2219 2931 1791 2931 
Q 1403 2931 1139 2672 
Q 875 2413 847 1978 
z
" id="ArialMT-65" transform="scale(0.015625)"/>
      </defs>
      <use xlink:href="#ArialMT-54"/>
      <use x="57.333984" xlink:href="#ArialMT-69"/>
      <use x="79.550781" xlink:href="#ArialMT-6d"/>
      <use x="162.851562" xlink:href="#ArialMT-65"/>
     </g>
    </g>
   </g>
   <g id="matplotlib.axis_2">
    <g id="ytick_1">
     <g id="line2d_13">
      <path clip-path="url(#pb95fad43d8)" d="M 35.235312 232.538906 
L 593.235312 232.538906 
" style="fill:none;stroke:#cccccc;stroke-linecap:round;stroke-opacity:0.4;stroke-width:0.8;"/>
     </g>
     <g id="line2d_14"/>
     <g id="text_8">
      <!-- 2 -->
      <g style="fill:#262626;" transform="translate(26.174375 236.117812)scale(0.1 -0.1)">
       <use xlink:href="#ArialMT-32"/>
      </g>
     </g>
    </g>
    <g id="ytick_2">
     <g id="line2d_15">
      <path clip-path="url(#pb95fad43d8)" d="M 35.235312 195.578906 
L 593.235312 195.578906 
" style="fill:none;stroke:#cccccc;stroke-linecap:round;stroke-opacity:0.4;stroke-width:0.8;"/>
     </g>
     <g id="line2d_16"/>
     <g id="text_9">
      <!-- 3 -->
      <g style="fill:#262626;" transform="translate(26.174375 199.157812)scale(0.1 -0.1)">
       <defs>
        <path d="M 269 1209 
L 831 1284 
Q 928 806 1161 595 
Q 1394 384 1728 384 
Q 2125 384 2398 659 
Q 2672 934 2672 1341 
Q 2672 1728 2419 1979 
Q 2166 2231 1775 2231 
Q 1616 2231 1378 2169 
L 1441 2663 
Q 1497 2656 1531 2656 
Q 1891 2656 2178 2843 
Q 2466 3031 2466 3422 
Q 2466 3731 2256 3934 
Q 2047 4138 1716 4138 
Q 1388 4138 1169 3931 
Q 950 3725 888 3313 
L 325 3413 
Q 428 3978 793 4289 
Q 1159 4600 1703 4600 
Q 2078 4600 2393 4439 
Q 2709 4278 2876 4000 
Q 3044 3722 3044 3409 
Q 3044 3113 2884 2869 
Q 2725 2625 2413 2481 
Q 2819 2388 3044 2092 
Q 3269 1797 3269 1353 
Q 3269 753 2831 336 
Q 2394 -81 1725 -81 
Q 1122 -81 723 278 
Q 325 638 269 1209 
z
" id="ArialMT-33" transform="scale(0.015625)"/>
       </defs>
       <use xlink:href="#ArialMT-33"/>
      </g>
     </g>
    </g>
    <g id="ytick_3">
     <g id="line2d_17">
      <path clip-path="url(#pb95fad43d8)" d="M 35.235312 158.618906 
L 593.235312 158.618906 
" style="fill:none;stroke:#cccccc;stroke-linecap:round;stroke-opacity:0.4;stroke-width:0.8;"/>
     </g>
     <g id="line2d_18"/>
     <g id="text_10">
      <!-- 4 -->
      <g style="fill:#262626;" transform="translate(26.174375 162.197812)scale(0.1 -0.1)">
       <use xlink:href="#ArialMT-34"/>
      </g>
     </g>
    </g>
    <g id="ytick_4">
     <g id="line2d_19">
      <path clip-path="url(#pb95fad43d8)" d="M 35.235312 121.658906 
L 593.235312 121.658906 
" style="fill:none;stroke:#cccccc;stroke-linecap:round;stroke-opacity:0.4;stroke-width:0.8;"/>
     </g>
     <g id="line2d_20"/>
     <g id="text_11">
      <!-- 5 -->
      <g style="fill:#262626;" transform="translate(26.174375 125.237812)scale(0.1 -0.1)">
       <defs>
        <path d="M 266 1200 
L 856 1250 
Q 922 819 1161 601 
Q 1400 384 1738 384 
Q 2144 384 2425 690 
Q 2706 997 2706 1503 
Q 2706 1984 2436 2262 
Q 2166 2541 1728 2541 
Q 1456 2541 1237 2417 
Q 1019 2294 894 2097 
L 366 2166 
L 809 4519 
L 3088 4519 
L 3088 3981 
L 1259 3981 
L 1013 2750 
Q 1425 3038 1878 3038 
Q 2478 3038 2890 2622 
Q 3303 2206 3303 1553 
Q 3303 931 2941 478 
Q 2500 -78 1738 -78 
Q 1113 -78 717 272 
Q 322 622 266 1200 
z
" id="ArialMT-35" transform="scale(0.015625)"/>
       </defs>
       <use xlink:href="#ArialMT-35"/>
      </g>
     </g>
    </g>
    <g id="ytick_5">
     <g id="line2d_21">
      <path clip-path="url(#pb95fad43d8)" d="M 35.235312 84.698906 
L 593.235312 84.698906 
" style="fill:none;stroke:#cccccc;stroke-linecap:round;stroke-opacity:0.4;stroke-width:0.8;"/>
     </g>
     <g id="line2d_22"/>
     <g id="text_12">
      <!-- 6 -->
      <g style="fill:#262626;" transform="translate(26.174375 88.277812)scale(0.1 -0.1)">
       <use xlink:href="#ArialMT-36"/>
      </g>
     </g>
    </g>
    <g id="ytick_6">
     <g id="line2d_23">
      <path clip-path="url(#pb95fad43d8)" d="M 35.235312 47.738906 
L 593.235312 47.738906 
" style="fill:none;stroke:#cccccc;stroke-linecap:round;stroke-opacity:0.4;stroke-width:0.8;"/>
     </g>
     <g id="line2d_24"/>
     <g id="text_13">
      <!-- 7 -->
      <g style="fill:#262626;" transform="translate(26.174375 51.317812)scale(0.1 -0.1)">
       <defs>
        <path d="M 303 3981 
L 303 4522 
L 3269 4522 
L 3269 4084 
Q 2831 3619 2401 2847 
Q 1972 2075 1738 1259 
Q 1569 684 1522 0 
L 944 0 
Q 953 541 1156 1306 
Q 1359 2072 1739 2783 
Q 2119 3494 2547 3981 
L 303 3981 
z
" id="ArialMT-37" transform="scale(0.015625)"/>
       </defs>
       <use xlink:href="#ArialMT-37"/>
      </g>
     </g>
    </g>
    <g id="ytick_7">
     <g id="line2d_25">
      <path clip-path="url(#pb95fad43d8)" d="M 35.235312 10.778906 
L 593.235312 10.778906 
" style="fill:none;stroke:#cccccc;stroke-linecap:round;stroke-opacity:0.4;stroke-width:0.8;"/>
     </g>
     <g id="line2d_26"/>
     <g id="text_14">
      <!-- 8 -->
      <g style="fill:#262626;" transform="translate(26.174375 14.357812)scale(0.1 -0.1)">
       <use xlink:href="#ArialMT-38"/>
      </g>
     </g>
    </g>
    <g id="text_15">
     <!-- Value -->
     <g style="fill:#262626;" transform="translate(15.789375 136.561406)rotate(-90)scale(0.12 -0.12)">
      <defs>
       <path d="M 1803 0 
L 28 4581 
L 684 4581 
L 1875 1253 
Q 2019 853 2116 503 
Q 2222 878 2363 1253 
L 3600 4581 
L 4219 4581 
L 2425 0 
L 1803 0 
z
" id="ArialMT-56" transform="scale(0.015625)"/>
       <path d="M 2588 409 
Q 2275 144 1986 34 
Q 1697 -75 1366 -75 
Q 819 -75 525 192 
Q 231 459 231 875 
Q 231 1119 342 1320 
Q 453 1522 633 1644 
Q 813 1766 1038 1828 
Q 1203 1872 1538 1913 
Q 2219 1994 2541 2106 
Q 2544 2222 2544 2253 
Q 2544 2597 2384 2738 
Q 2169 2928 1744 2928 
Q 1347 2928 1158 2789 
Q 969 2650 878 2297 
L 328 2372 
Q 403 2725 575 2942 
Q 747 3159 1072 3276 
Q 1397 3394 1825 3394 
Q 2250 3394 2515 3294 
Q 2781 3194 2906 3042 
Q 3031 2891 3081 2659 
Q 3109 2516 3109 2141 
L 3109 1391 
Q 3109 606 3145 398 
Q 3181 191 3288 0 
L 2700 0 
Q 2613 175 2588 409 
z
M 2541 1666 
Q 2234 1541 1622 1453 
Q 1275 1403 1131 1340 
Q 988 1278 909 1158 
Q 831 1038 831 891 
Q 831 666 1001 516 
Q 1172 366 1500 366 
Q 1825 366 2078 508 
Q 2331 650 2450 897 
Q 2541 1088 2541 1459 
L 2541 1666 
z
" id="ArialMT-61" transform="scale(0.015625)"/>
       <path d="M 409 0 
L 409 4581 
L 972 4581 
L 972 0 
L 409 0 
z
" id="ArialMT-6c" transform="scale(0.015625)"/>
       <path d="M 2597 0 
L 2597 488 
Q 2209 -75 1544 -75 
Q 1250 -75 995 37 
Q 741 150 617 320 
Q 494 491 444 738 
Q 409 903 409 1263 
L 409 3319 
L 972 3319 
L 972 1478 
Q 972 1038 1006 884 
Q 1059 663 1231 536 
Q 1403 409 1656 409 
Q 1909 409 2131 539 
Q 2353 669 2445 892 
Q 2538 1116 2538 1541 
L 2538 3319 
L 3100 3319 
L 3100 0 
L 2597 0 
z
" id="ArialMT-75" transform="scale(0.015625)"/>
      </defs>
      <use xlink:href="#ArialMT-56"/>
      <use x="59.324219" xlink:href="#ArialMT-61"/>
      <use x="114.939453" xlink:href="#ArialMT-6c"/>
      <use x="137.15625" xlink:href="#ArialMT-75"/>
      <use x="192.771484" xlink:href="#ArialMT-65"/>
     </g>
    </g>
   </g>
   <g id="patch_3">
    <path clip-path="url(#pb95fad43d8)" d="M 174.735312 244.99813 
L 258.435313 244.99813 
L 258.435313 2.913706 
L 174.735312 2.913706 
z
" style="fill:#d62728;opacity:0.15;"/>
   </g>
   <g id="patch_4">
    <path clip-path="url(#pb95fad43d8)" d="M 370.035313 244.99813 
L 453.735313 244.99813 
L 453.735313 2.913706 
L 370.035313 2.913706 
z
" style="fill:#d62728;opacity:0.15;"/>
   </g>
   <g id="patch_5">
    <path d="M 35.235312 232.538906 
L 35.235312 10.778906 
" style="fill:none;stroke:#666666;stroke-linecap:square;stroke-linejoin:miter;stroke-width:1.2;"/>
   </g>
   <g id="patch_6">
    <path d="M 593.235312 232.538906 
L 593.235312 10.778906 
" style="fill:none;stroke:#666666;stroke-linecap:square;stroke-linejoin:miter;stroke-width:1.2;"/>
   </g>
   <g id="patch_7">
    <path d="M 35.235312 232.538906 
L 593.235312 232.538906 
" style="fill:none;stroke:#666666;stroke-linecap:square;stroke-linejoin:miter;stroke-width:1.2;"/>
   </g>
   <g id="patch_8">
    <path d="M 35.235312 10.778906 
L 593.235312 10.778906 
" style="fill:none;stroke:#666666;stroke-linecap:square;stroke-linejoin:miter;stroke-width:1.2;"/>
   </g>
   <g id="line2d_27">
    <path clip-path="url(#pb95fad43d8)" d="M 35.235312 117.987195 
L 36.353549 122.680956 
L 37.471785 116.871193 
L 38.590022 110.40067 
L 39.708258 123.389768 
L 40.826495 123.389647 
L 41.944731 109.985365 
L 43.062968 115.986029 
L 44.181204 125.129261 
L 45.299441 117.648302 
L 46.417677 125.08449 
L 47.535914 125.101581 
L 48.65415 119.870321 
L 49.772387 135.801874 
L 50.890623 134.409499 
L 52.00886 125.815336 
L 53.127096 129.145754 
L 54.245333 119.33599 
L 55.363569 128.37102 
L 56.481805 132.098655 
L 57.600042 110.824831 
L 58.718278 123.327845 
L 59.836515 121.159738 
L 60.954751 132.190645 
L 62.072988 125.682983 
L 63.191224 120.838966 
L 64.309461 130.167051 
L 65.427697 118.881746 
L 66.545934 126.098827 
L 67.66417 123.815106 
L 68.782407 126.106722 
L 69.900643 107.966866 
L 71.01888 121.758678 
L 72.137116 129.477505 
L 73.255353 115.578654 
L 74.373589 130.683383 
L 75.491826 120.114987 
L 76.610062 136.144788 
L 77.728298 131.476858 
L 78.846535 120.203708 
L 79.964771 116.200161 
L 81.083008 120.392152 
L 82.201244 122.513778 
L 83.319481 123.884665 
L 84.437717 132.588141 
L 85.555954 126.979995 
L 86.67419 125.063948 
L 87.792427 113.844659 
L 88.910663 119.11888 
L 90.0289 134.691299 
L 91.147136 119.263278 
L 92.265373 124.505434 
L 93.383609 126.662714 
L 94.501846 117.137395 
L 95.620082 114.037758 
L 96.738319 114.774884 
L 97.856555 127.862402 
L 98.974791 123.944604 
L 101.211264 114.447677 
L 102.329501 125.200962 
L 103.447737 123.031297 
L 104.565974 129.836934 
L 105.68421 130.501266 
L 106.802447 115.652715 
L 107.920683 111.63358 
L 109.03892 122.191205 
L 110.157156 114.240791 
L 111.275393 118.985693 
L 112.393629 126.427631 
L 113.511866 118.98747 
L 114.630102 110.28974 
L 115.748339 121.923732 
L 116.866575 110.09306 
L 117.984811 141.024062 
L 119.103048 115.583403 
L 120.221284 121.015454 
L 121.339521 123.869169 
L 122.457757 120.980611 
L 123.575994 136.351016 
L 124.69423 123.282721 
L 125.812467 119.01913 
L 126.930703 110.734313 
L 128.04894 125.48996 
L 129.167176 127.635291 
L 130.285413 125.367894 
L 131.403649 114.892254 
L 132.521886 119.228778 
L 133.640122 125.574894 
L 134.758359 117.864833 
L 135.876595 120.941309 
L 136.994832 114.498682 
L 138.113068 126.848483 
L 139.231304 124.080985 
L 140.349541 124.55737 
L 141.467777 132.477209 
L 142.586014 119.469985 
L 143.70425 119.729186 
L 145.940723 123.392974 
L 147.05896 132.121327 
L 148.177196 124.768316 
L 149.295433 124.192252 
L 150.413669 127.58934 
L 151.531906 122.85113 
L 152.650142 118.672162 
L 153.768379 107.71622 
L 154.886615 120.368427 
L 156.004852 119.755094 
L 157.123088 122.20921 
L 158.241325 135.842463 
L 159.359561 121.854897 
L 160.477797 121.213685 
L 161.596034 103.450621 
L 162.71427 123.080839 
L 163.832507 119.429868 
L 164.950743 121.915496 
L 166.06898 130.297774 
L 167.187216 113.21116 
L 168.305453 116.100617 
L 169.423689 115.811598 
L 170.541926 128.381098 
L 171.660162 111.289451 
L 172.778399 132.021389 
L 173.896635 117.320859 
L 175.014872 22.412602 
L 176.133108 15.144498 
L 177.251345 39.597118 
L 178.369581 25.097438 
L 179.487818 34.068456 
L 180.606054 32.859737 
L 181.72429 33.637882 
L 182.842527 35.645526 
L 183.960763 28.900234 
L 185.079 35.40129 
L 186.197236 27.259689 
L 187.315473 29.630266 
L 188.433709 31.02521 
L 189.551946 35.967617 
L 190.670182 33.5224 
L 191.788419 23.675054 
L 192.906655 25.556126 
L 194.024892 36.484995 
L 195.143128 28.524642 
L 196.261365 23.704653 
L 197.379601 41.59915 
L 198.497838 25.242388 
L 199.616074 34.157021 
L 200.73431 25.041041 
L 201.852547 34.900918 
L 202.970783 42.600595 
L 204.08902 41.2897 
L 205.207256 28.903462 
L 206.325493 27.339038 
L 207.443729 35.943615 
L 208.561966 24.538431 
L 209.680202 41.540863 
L 210.798439 29.747368 
L 211.916675 38.210738 
L 213.034912 34.077279 
L 214.153148 28.908535 
L 215.271385 35.619082 
L 216.389621 32.101541 
L 217.507858 21.82039 
L 218.626094 33.523291 
L 219.744331 23.08147 
L 220.862567 37.609699 
L 221.980803 25.342594 
L 223.09904 18.602831 
L 224.217276 47.529302 
L 225.335513 35.149556 
L 226.453749 24.993189 
L 227.571986 30.759818 
L 228.690222 26.515396 
L 229.808459 33.723565 
L 230.926695 28.618835 
L 232.044932 30.409672 
L 233.163168 20.626661 
L 234.281405 27.378227 
L 235.399641 26.763347 
L 236.517878 32.303501 
L 237.636114 32.863291 
L 238.754351 32.456376 
L 239.872587 26.343116 
L 240.990824 32.370824 
L 242.10906 27.116891 
L 243.227296 13.917544 
L 245.463769 31.668872 
L 246.582006 20.379533 
L 248.818479 44.324723 
L 249.936715 36.71068 
L 251.054952 43.0878 
L 252.173188 31.857294 
L 253.291425 29.122758 
L 254.409661 16.866682 
L 255.527898 26.842259 
L 256.646134 30.878497 
L 257.764371 23.12794 
L 258.882607 119.014142 
L 260.000844 117.513587 
L 261.11908 113.652991 
L 262.237317 113.869201 
L 263.355553 131.842638 
L 264.473789 128.591309 
L 265.592026 117.851766 
L 267.828499 117.851674 
L 268.946735 93.179515 
L 270.064972 117.438884 
L 271.183208 113.264805 
L 272.301445 114.606925 
L 273.419681 116.843822 
L 274.537918 123.989377 
L 275.656154 116.048606 
L 276.774391 127.37163 
L 277.892627 123.409469 
L 279.010864 125.246714 
L 280.1291 121.053693 
L 281.247337 104.54895 
L 282.365573 135.461731 
L 283.483809 116.586071 
L 284.602046 133.580102 
L 285.720282 125.147427 
L 286.838519 113.609383 
L 287.956755 121.183748 
L 289.074992 129.625596 
L 290.193228 126.946431 
L 291.311465 116.63532 
L 292.429701 127.057776 
L 293.547938 120.058844 
L 294.666174 121.322039 
L 295.784411 126.475536 
L 296.902647 105.810872 
L 298.020884 116.972977 
L 299.13912 136.62876 
L 300.257357 120.280636 
L 301.375593 126.550832 
L 302.49383 115.357719 
L 303.612066 127.51722 
L 305.848539 117.92604 
L 306.966775 115.259244 
L 308.085012 130.531497 
L 309.203248 124.131539 
L 310.321485 125.169702 
L 311.439721 126.488316 
L 312.557958 108.608669 
L 313.676194 118.665281 
L 314.794431 130.97936 
L 315.912667 114.874071 
L 317.030904 105.971928 
L 318.14914 114.026923 
L 319.267377 132.890089 
L 320.385613 125.238365 
L 321.50385 112.293899 
L 322.622086 126.889999 
L 323.740323 118.378193 
L 324.858559 115.932811 
L 325.976795 128.510776 
L 327.095032 122.098918 
L 328.213268 145.618354 
L 329.331505 129.23118 
L 330.449741 123.52589 
L 331.567978 130.88252 
L 332.686214 109.592122 
L 333.804451 132.230511 
L 334.922687 124.911715 
L 336.040924 120.692472 
L 337.15916 111.005014 
L 338.277397 132.272799 
L 339.395633 113.0608 
L 340.51387 121.583263 
L 341.632106 128.914218 
L 342.750343 118.243037 
L 343.868579 120.187457 
L 344.986816 126.095709 
L 346.105052 121.142929 
L 347.223288 124.507144 
L 349.459761 116.764436 
L 350.577998 109.93507 
L 351.696234 130.808838 
L 352.814471 105.891524 
L 353.932707 136.088739 
L 355.050944 122.780902 
L 356.16918 117.310065 
L 357.287417 119.581814 
L 358.405653 126.261901 
L 359.52389 123.197346 
L 360.642126 125.303169 
L 361.760363 126.015491 
L 362.878599 115.378648 
L 363.996836 119.019848 
L 365.115072 126.780894 
L 366.233308 115.009064 
L 367.351545 119.387348 
L 368.469781 115.650229 
L 369.588018 117.00469 
L 370.706254 230.403618 
L 371.824491 212.317243 
L 372.942727 208.360671 
L 374.060964 224.988616 
L 375.1792 205.604276 
L 377.415673 217.128715 
L 378.53391 209.381383 
L 379.652146 197.273945 
L 380.770383 212.714551 
L 381.888619 212.22406 
L 383.006856 217.454502 
L 384.125092 220.340956 
L 385.243329 207.921064 
L 386.361565 220.387078 
L 387.479801 213.529889 
L 388.598038 217.58975 
L 389.716274 210.518287 
L 390.834511 211.592476 
L 391.952747 206.389411 
L 393.070984 217.828947 
L 394.18922 216.053822 
L 395.307457 221.293928 
L 396.425693 217.343122 
L 397.54393 211.269901 
L 398.662166 208.463246 
L 399.780403 220.875552 
L 400.898639 207.630779 
L 402.016876 204.038031 
L 403.135112 211.002795 
L 404.253349 200.185632 
L 405.371585 219.778756 
L 406.489822 223.259394 
L 407.608058 227.207206 
L 408.726294 203.000147 
L 409.844531 209.221835 
L 410.962767 214.469788 
L 412.081004 211.989378 
L 413.19924 222.378521 
L 414.317477 195.979908 
L 415.435713 213.103703 
L 416.55395 213.25026 
L 417.672186 208.694039 
L 419.908659 212.403956 
L 421.026896 219.902093 
L 422.145132 210.573812 
L 423.263369 200.146981 
L 424.381605 204.113561 
L 425.499842 202.282071 
L 426.618078 217.837813 
L 427.736315 221.374065 
L 428.854551 214.988723 
L 429.972787 213.646988 
L 431.091024 205.970643 
L 432.20926 226.569605 
L 433.327497 202.75247 
L 434.445733 215.226901 
L 435.56397 217.214411 
L 437.800443 226.291607 
L 438.918679 207.974029 
L 440.036916 213.51694 
L 441.155152 223.594297 
L 442.273389 223.632129 
L 443.391625 216.541027 
L 444.509862 201.721499 
L 445.628098 215.977806 
L 446.746335 225.170139 
L 447.864571 215.875439 
L 448.982807 216.074879 
L 450.101044 233.994292 
L 451.21928 214.460254 
L 452.337517 215.765974 
L 453.455753 208.912549 
L 454.57399 127.331139 
L 455.692226 115.210712 
L 456.810463 120.303642 
L 457.928699 105.471883 
L 459.046936 127.633847 
L 460.165172 127.86613 
L 461.283409 126.089617 
L 462.401645 137.358743 
L 463.519882 125.545287 
L 464.638118 127.270415 
L 465.756355 120.547195 
L 466.874591 119.132646 
L 467.992828 107.790251 
L 469.111064 114.633373 
L 470.2293 125.923378 
L 471.347537 128.299988 
L 472.465773 118.02264 
L 473.58401 131.41807 
L 474.702246 108.120763 
L 475.820483 112.940485 
L 476.938719 125.127053 
L 478.056956 134.322397 
L 479.175192 111.651082 
L 480.293429 122.505585 
L 481.411665 112.508968 
L 482.529902 133.444916 
L 483.648138 126.089486 
L 484.766375 121.620145 
L 485.884611 121.311626 
L 487.002848 124.98579 
L 488.121084 117.0548 
L 489.239321 129.550756 
L 490.357557 122.711375 
L 491.475793 120.769681 
L 492.59403 117.856174 
L 493.712266 116.398649 
L 494.830503 129.972261 
L 495.948739 132.999078 
L 497.066976 112.214319 
L 498.185212 119.202441 
L 499.303449 127.191719 
L 500.421685 110.192791 
L 501.539922 120.803839 
L 502.658158 112.941541 
L 503.776395 121.15981 
L 504.894631 106.425858 
L 506.012868 108.683427 
L 507.131104 123.499249 
L 508.249341 114.477054 
L 509.367577 116.888287 
L 510.485814 111.541982 
L 511.60405 128.79162 
L 512.722286 116.587614 
L 513.840523 113.835032 
L 514.958759 134.659509 
L 516.076996 130.405553 
L 517.195232 136.732911 
L 518.313469 123.650362 
L 519.431705 116.354834 
L 520.549942 110.553483 
L 521.668178 121.111198 
L 522.786415 109.62018 
L 523.904651 131.860616 
L 525.022888 134.250309 
L 526.141124 122.069515 
L 527.259361 118.819894 
L 528.377597 121.900586 
L 529.495834 136.941438 
L 530.61407 122.317682 
L 531.732306 131.301545 
L 532.850543 116.708687 
L 533.968779 118.949012 
L 535.087016 128.606498 
L 536.205252 125.457411 
L 537.323489 129.488613 
L 539.559962 114.598494 
L 540.678198 128.945393 
L 541.796435 117.932994 
L 542.914671 125.578571 
L 544.032908 127.519822 
L 545.151144 122.450075 
L 546.269381 129.311417 
L 547.387617 125.751482 
L 548.505854 130.51362 
L 549.62409 107.135658 
L 550.742327 121.398238 
L 551.860563 126.831277 
L 552.978799 120.077167 
L 554.097036 122.489235 
L 555.215272 123.292314 
L 556.333509 117.118986 
L 557.451745 116.059409 
L 558.569982 125.580371 
L 559.688218 125.915355 
L 560.806455 123.692088 
L 561.924691 138.674707 
L 563.042928 132.859199 
L 564.161164 111.554972 
L 565.279401 109.499305 
L 566.397637 123.499781 
L 567.515874 117.396997 
L 568.63411 119.358145 
L 569.752347 98.899819 
L 570.870583 113.383009 
L 571.98882 122.604473 
L 573.107056 128.722261 
L 574.225292 133.533757 
L 575.343529 120.154903 
L 576.461765 127.249851 
L 577.580002 132.172206 
L 578.698238 126.438373 
L 579.816475 129.653709 
L 580.934711 109.187555 
L 582.052948 115.141825 
L 583.171184 121.71784 
L 584.289421 110.719159 
L 585.407657 121.087 
L 586.525894 128.025519 
L 587.64413 110.399973 
L 588.762367 117.675283 
L 589.880603 129.32623 
L 590.99884 123.06589 
L 592.117076 128.131476 
L 593.235312 131.880562 
L 593.235312 131.880562 
" style="fill:none;stroke:#2c7bb6;stroke-linecap:round;stroke-width:1.5;"/>
   </g>
  </g>
 </g>
 <defs>
  <clipPath id="pb95fad43d8">
   <rect height="221.76" width="558" x="35.235312" y="10.778906"/>
  </clipPath>
 </defs>
</svg>
