<?xml version="1.0" encoding="utf-8" standalone="no"?>
<!DOCTYPE svg PUBLIC "-//W3C//DTD SVG 1.1//EN"
  "http://www.w3.org/Graphics/SVG/1.1/DTD/svg11.dtd">
<svg height="360pt" version="1.1" viewBox="0 0 864 360" width="864pt" xmlns="http://www.w3.org/2000/svg" xmlns:xlink="http://www.w3.org/1999/xlink">
 <metadata>
  <rdf:RDF xmlns:cc="http://creativecommons.org/ns#" xmlns:dc="http://purl.org/dc/elements/1.1/" xmlns:rdf="http://www.w3.org/1999/02/22-rdf-syntax-ns#">
   <cc:Work>
    <dc:type rdf:resource="http://purl.org/dc/dcmitype/StillImage"/>
    <dc:date>2025-05-15T23:29:49.741960</dc:date>
    <dc:format>image/svg+xml</dc:format>
    <dc:creator>
     <cc:Agent>
      <dc:title>Matplotlib v3.4.3, https://matplotlib.org/</dc:title>
     </cc:Agent>
    </dc:creator>
   </cc:Work>
  </rdf:RDF>
 </metadata>
 <defs>
  <style type="text/css">*{stroke-linecap:butt;stroke-linejoin:round;}</style>
 </defs>
 <g id="figure_1">
  <g id="patch_1">
   <path d="M 0 360 
L 864 360 
L 864 0 
L 0 0 
z
" style="fill:#ffffff;"/>
  </g>
  <g id="axes_1">
   <g id="patch_2">
    <path d="M 49.52 122.280627 
L 853.2 122.280627 
L 853.2 33.352941 
L 49.52 33.352941 
z
" style="fill:#ffffff;"/>
   </g>
   <g id="matplotlib.axis_1">
    <g id="xtick_1">
     <g id="line2d_1">
      <defs>
       <path d="M 0 0 
L 0 3.5 
" id="ma4a1e32940" style="stroke:#000000;stroke-width:0.8;"/>
      </defs>
      <g>
       <use style="stroke:#000000;stroke-width:0.8;" x="147.037402" xlink:href="#ma4a1e32940" y="122.280627"/>
      </g>
     </g>
    </g>
    <g id="xtick_2">
     <g id="line2d_2">
      <g>
       <use style="stroke:#000000;stroke-width:0.8;" x="269.010387" xlink:href="#ma4a1e32940" y="122.280627"/>
      </g>
     </g>
    </g>
    <g id="xtick_3">
     <g id="line2d_3">
      <g>
       <use style="stroke:#000000;stroke-width:0.8;" x="390.983372" xlink:href="#ma4a1e32940" y="122.280627"/>
      </g>
     </g>
    </g>
    <g id="xtick_4">
     <g id="line2d_4">
      <g>
       <use style="stroke:#000000;stroke-width:0.8;" x="512.956358" xlink:href="#ma4a1e32940" y="122.280627"/>
      </g>
     </g>
    </g>
    <g id="xtick_5">
     <g id="line2d_5">
      <g>
       <use style="stroke:#000000;stroke-width:0.8;" x="634.929343" xlink:href="#ma4a1e32940" y="122.280627"/>
      </g>
     </g>
    </g>
    <g id="xtick_6">
     <g id="line2d_6">
      <g>
       <use style="stroke:#000000;stroke-width:0.8;" x="756.902328" xlink:href="#ma4a1e32940" y="122.280627"/>
      </g>
     </g>
    </g>
   </g>
   <g id="matplotlib.axis_2">
    <g id="ytick_1">
     <g id="line2d_7">
      <defs>
       <path d="M 0 0 
L -3.5 0 
" id="m64de7c95d9" style="stroke:#000000;stroke-width:0.8;"/>
      </defs>
      <g>
       <use style="stroke:#000000;stroke-width:0.8;" x="49.52" xlink:href="#m64de7c95d9" y="111.79847"/>
      </g>
     </g>
     <g id="text_1">
      <!-- −1 -->
      <g transform="translate(27.777813 115.597689)scale(0.1 -0.1)">
       <defs>
        <path d="M 678 2272 
L 4684 2272 
L 4684 1741 
L 678 1741 
L 678 2272 
z
" id="DejaVuSans-2212" transform="scale(0.015625)"/>
        <path d="M 794 531 
L 1825 531 
L 1825 4091 
L 703 3866 
L 703 4441 
L 1819 4666 
L 2450 4666 
L 2450 531 
L 3481 531 
L 3481 0 
L 794 0 
L 794 531 
z
" id="DejaVuSans-31" transform="scale(0.015625)"/>
       </defs>
       <use xlink:href="#DejaVuSans-2212"/>
       <use x="83.789062" xlink:href="#DejaVuSans-31"/>
      </g>
     </g>
    </g>
    <g id="ytick_2">
     <g id="line2d_8">
      <g>
       <use style="stroke:#000000;stroke-width:0.8;" x="49.52" xlink:href="#m64de7c95d9" y="77.621037"/>
      </g>
     </g>
     <g id="text_2">
      <!-- 0 -->
      <g transform="translate(36.1575 81.420256)scale(0.1 -0.1)">
       <defs>
        <path d="M 2034 4250 
Q 1547 4250 1301 3770 
Q 1056 3291 1056 2328 
Q 1056 1369 1301 889 
Q 1547 409 2034 409 
Q 2525 409 2770 889 
Q 3016 1369 3016 2328 
Q 3016 3291 2770 3770 
Q 2525 4250 2034 4250 
z
M 2034 4750 
Q 2819 4750 3233 4129 
Q 3647 3509 3647 2328 
Q 3647 1150 3233 529 
Q 2819 -91 2034 -91 
Q 1250 -91 836 529 
Q 422 1150 422 2328 
Q 422 3509 836 4129 
Q 1250 4750 2034 4750 
z
" id="DejaVuSans-30" transform="scale(0.015625)"/>
       </defs>
       <use xlink:href="#DejaVuSans-30"/>
      </g>
     </g>
    </g>
    <g id="ytick_3">
     <g id="line2d_9">
      <g>
       <use style="stroke:#000000;stroke-width:0.8;" x="49.52" xlink:href="#m64de7c95d9" y="43.443603"/>
      </g>
     </g>
     <g id="text_3">
      <!-- 1 -->
      <g transform="translate(36.1575 47.242822)scale(0.1 -0.1)">
       <use xlink:href="#DejaVuSans-31"/>
      </g>
     </g>
    </g>
    <g id="text_4">
     <!-- $x_1$ -->
     <g transform="translate(21.074219 84.771784)rotate(-90)scale(0.13 -0.13)">
      <defs>
       <path d="M 3841 3500 
L 2234 1784 
L 3219 0 
L 2559 0 
L 1819 1388 
L 531 0 
L -166 0 
L 1556 1844 
L 641 3500 
L 1300 3500 
L 1972 2234 
L 3144 3500 
L 3841 3500 
z
" id="DejaVuSans-Oblique-78" transform="scale(0.015625)"/>
      </defs>
      <use transform="translate(0 0.3125)" xlink:href="#DejaVuSans-Oblique-78"/>
      <use transform="translate(59.179688 -16.09375)scale(0.7)" xlink:href="#DejaVuSans-31"/>
     </g>
    </g>
   </g>
   <g id="line2d_10">
    <path clip-path="url(#p7421250e27)" d="M 86.050909 78.586382 
L 87.270639 76.878256 
L 88.490369 75.566768 
L 89.710099 67.305741 
L 90.929829 68.265867 
L 92.149558 69.475665 
L 93.369288 69.071547 
L 94.589018 60.630822 
L 95.808748 62.520188 
L 97.028478 58.07994 
L 98.248208 53.015652 
L 99.467937 58.297186 
L 100.687667 56.884436 
L 101.907397 52.972361 
L 103.127127 48.469332 
L 104.346857 57.929557 
L 105.566587 49.555128 
L 106.786317 51.554304 
L 108.006046 45.326238 
L 109.225776 42.421117 
L 110.445506 48.129203 
L 111.665236 48.05558 
L 112.884966 42.937062 
L 114.104696 42.091812 
L 115.324426 40.164943 
L 116.544155 43.824854 
L 117.763885 44.540316 
L 118.983615 44.724293 
L 120.203345 50.215483 
L 121.423075 43.180506 
L 122.642805 43.69237 
L 123.862535 47.516823 
L 125.082264 50.537726 
L 126.301994 48.938502 
L 127.521724 43.883964 
L 128.741454 55.088073 
L 129.961184 49.138111 
L 131.180914 55.02282 
L 132.400643 53.520635 
L 133.620373 57.774633 
L 134.840103 51.324195 
L 136.059833 58.76885 
L 137.279563 64.267245 
L 138.499293 58.383106 
L 139.719023 64.027069 
L 140.938752 70.942518 
L 142.158482 69.480574 
L 143.378212 74.567785 
L 144.597942 75.334581 
L 145.817672 72.216871 
L 147.037402 79.352563 
L 148.257132 75.340833 
L 149.476861 82.862524 
L 150.696591 87.482343 
L 151.916321 84.624665 
L 153.136051 90.874505 
L 154.355781 91.057018 
L 155.575511 87.935766 
L 156.795241 95.818086 
L 158.01497 99.30035 
L 159.2347 98.964248 
L 160.45443 96.643599 
L 162.89389 109.962402 
L 164.11362 106.756461 
L 165.33335 106.811774 
L 166.553079 108.360592 
L 167.772809 112.715567 
L 170.212269 110.282275 
L 171.431999 117.307111 
L 172.651729 114.512995 
L 175.091188 110.895044 
L 176.310918 105.540916 
L 177.530648 110.719235 
L 178.750378 110.376637 
L 179.970108 112.723261 
L 181.189838 108.112246 
L 182.409567 109.75265 
L 183.629297 108.970073 
L 184.849027 111.171927 
L 186.068757 107.574245 
L 187.288487 105.60964 
L 188.508217 99.118004 
L 189.727947 101.052867 
L 190.947676 101.49095 
L 192.167406 102.416871 
L 193.387136 100.194881 
L 194.606866 98.292377 
L 195.826596 101.519984 
L 197.046326 99.349015 
L 198.266056 93.288068 
L 199.485785 84.682899 
L 200.705515 88.906181 
L 201.925245 88.143148 
L 203.144975 89.645242 
L 204.364705 77.965767 
L 205.584435 77.714509 
L 206.804165 76.480787 
L 208.023894 40.021208 
L 209.243624 41.777396 
L 210.463354 44.970415 
L 211.683084 43.816776 
L 212.902814 47.654992 
L 214.122544 43.600008 
L 215.342273 55.108963 
L 216.562003 61.854996 
L 217.781733 58.534089 
L 220.221193 64.010307 
L 221.440923 72.534898 
L 222.660653 76.893971 
L 223.880382 83.69013 
L 225.100112 83.82315 
L 226.319842 88.861736 
L 227.539572 96.422101 
L 228.759302 96.523539 
L 229.979032 97.915273 
L 231.198762 103.929069 
L 232.418491 111.038137 
L 233.638221 111.029422 
L 234.857951 116.032671 
L 236.077681 112.01553 
L 237.297411 116.170016 
L 238.517141 109.060038 
L 239.736871 118.23846 
L 240.9566 109.232172 
L 242.17633 109.778202 
L 243.39606 108.802111 
L 244.61579 98.163107 
L 245.83552 103.666707 
L 247.05525 106.106771 
L 248.27498 98.927283 
L 249.494709 97.983472 
L 250.714439 86.117605 
L 251.934169 79.943016 
L 253.153899 77.024864 
L 254.373629 80.757073 
L 255.593359 74.653533 
L 256.813088 72.452244 
L 258.032818 57.677667 
L 259.252548 55.924337 
L 260.472278 59.530498 
L 261.692008 47.946413 
L 262.911738 46.736705 
L 264.131468 40.75424 
L 265.351197 41.677934 
L 266.570927 40.907912 
L 267.790657 43.940572 
L 269.010387 40.521003 
L 270.230117 46.748455 
L 271.449847 43.20699 
L 272.669577 48.592204 
L 273.889306 45.748445 
L 276.328766 60.753323 
L 277.548496 62.281164 
L 278.768226 60.276755 
L 279.987956 61.780357 
L 281.207686 70.875487 
L 282.427415 77.05334 
L 283.647145 69.360321 
L 284.866875 80.385472 
L 286.086605 98.801803 
L 287.306335 95.440369 
L 288.526065 95.454397 
L 289.745795 95.148216 
L 290.965524 96.863293 
L 292.185254 103.186434 
L 293.404984 107.967521 
L 294.624714 109.950909 
L 295.844444 110.596128 
L 297.064174 115.222816 
L 298.283903 113.564862 
L 299.503633 111.391397 
L 300.723363 115.074551 
L 301.943093 106.099642 
L 303.162823 108.15973 
L 304.382553 111.358425 
L 305.602283 110.315448 
L 306.822012 98.379754 
L 308.041742 91.635906 
L 309.261472 97.030001 
L 310.481202 84.572618 
L 311.700932 84.443201 
L 312.920662 84.837969 
L 314.140392 73.022499 
L 315.360121 69.456381 
L 316.579851 67.596923 
L 317.799581 64.477339 
L 319.019311 57.044703 
L 320.239041 59.258969 
L 321.458771 55.896784 
L 322.678501 49.485788 
L 323.89823 48.024875 
L 325.11796 39.579861 
L 326.33769 40.871996 
L 327.55742 44.552197 
L 328.77715 37.395109 
L 329.99688 46.002591 
L 331.21661 40.818837 
L 332.436339 52.100912 
L 333.656069 45.480138 
L 334.875799 50.275692 
L 336.095529 54.193395 
L 338.534989 51.681697 
L 339.754718 59.434529 
L 340.974448 61.21755 
L 342.194178 60.229405 
L 343.413908 79.627383 
L 344.633638 73.205578 
L 345.853368 84.63606 
L 347.073098 84.150079 
L 348.292827 90.29562 
L 349.512557 95.518133 
L 350.732287 96.305864 
L 353.171747 100.645971 
L 354.391477 103.804085 
L 355.611207 111.598132 
L 356.830936 104.564084 
L 358.050666 112.602761 
L 359.270396 111.023993 
L 360.490126 111.828435 
L 361.709856 110.116552 
L 362.929586 115.425191 
L 364.149316 113.2867 
L 365.369045 110.342747 
L 366.588775 100.162704 
L 367.808505 102.652653 
L 369.028235 93.710782 
L 370.247965 95.270209 
L 371.467695 88.549743 
L 372.687424 88.793912 
L 373.907154 86.02314 
L 375.126884 80.480784 
L 376.346614 70.25071 
L 377.566344 65.798205 
L 378.786074 68.691159 
L 380.005804 61.059616 
L 382.445263 51.361345 
L 383.664993 56.476274 
L 384.884723 51.293017 
L 386.104453 43.736249 
L 387.324183 45.592487 
L 388.543913 44.621735 
L 389.763642 47.339384 
L 390.983372 46.938993 
L 392.203102 43.164252 
L 393.422832 46.28216 
L 394.642562 48.228139 
L 395.862292 47.560683 
L 397.082022 54.830486 
L 398.301751 48.771553 
L 399.521481 59.566662 
L 400.741211 59.571247 
L 401.960941 59.939168 
L 403.180671 69.187933 
L 404.400401 68.647719 
L 405.620131 77.784758 
L 406.83986 85.338326 
L 408.05959 85.782767 
L 409.27932 83.384852 
L 410.49905 98.61618 
L 411.71878 97.500343 
L 412.93851 97.753308 
L 414.158239 105.460502 
L 415.377969 108.019062 
L 416.597699 108.516828 
L 417.817429 110.859409 
L 419.037159 112.170482 
L 420.256889 114.961193 
L 421.476619 109.844072 
L 422.696348 111.931155 
L 423.916078 108.264725 
L 425.135808 111.984238 
L 426.355538 105.447624 
L 427.575268 107.954146 
L 428.794998 102.18871 
L 430.014728 92.369954 
L 431.234457 89.436678 
L 432.454187 95.213921 
L 433.673917 86.018206 
L 434.893647 79.282047 
L 436.113377 81.990623 
L 437.333107 70.854625 
L 438.552837 64.132318 
L 439.772566 58.983232 
L 440.992296 63.419355 
L 443.431756 53.01803 
L 444.651486 51.435718 
L 447.090946 39.056901 
L 448.310675 48.845048 
L 449.530405 46.728341 
L 450.750135 42.83832 
L 451.969865 82.886634 
L 453.189595 77.947534 
L 454.409325 72.074598 
L 455.629054 69.487535 
L 456.848784 71.590591 
L 458.068514 67.770742 
L 459.288244 66.403957 
L 460.507974 65.754081 
L 462.947434 64.891127 
L 464.167163 58.213334 
L 465.386893 56.191181 
L 466.606623 58.561068 
L 467.826353 54.799679 
L 469.046083 58.206885 
L 470.265813 51.788657 
L 471.485543 47.263313 
L 472.705272 48.150286 
L 473.925002 48.145584 
L 475.144732 43.048011 
L 476.364462 45.126695 
L 477.584192 40.222615 
L 478.803922 41.41053 
L 480.023652 44.850976 
L 481.243381 44.967063 
L 482.463111 48.137531 
L 483.682841 41.923305 
L 484.902571 41.709144 
L 486.122301 46.18783 
L 487.342031 41.438238 
L 488.561761 45.470984 
L 489.78149 46.758546 
L 491.00122 42.744776 
L 492.22095 60.144748 
L 493.44068 51.828817 
L 494.66041 51.049184 
L 495.88014 50.534017 
L 497.099869 54.74416 
L 498.319599 51.918655 
L 499.539329 56.972985 
L 500.759059 58.401877 
L 501.978789 58.904517 
L 503.198519 62.347345 
L 504.418249 65.296545 
L 505.637978 66.609159 
L 506.857708 68.246218 
L 508.077438 68.906829 
L 509.297168 73.305735 
L 510.516898 74.47204 
L 511.736628 83.528347 
L 512.956358 72.713484 
L 514.176087 82.055691 
L 515.395817 81.058323 
L 516.615547 81.399797 
L 517.835277 90.884596 
L 519.055007 86.359383 
L 520.274737 94.797643 
L 521.494467 92.490007 
L 522.714196 85.709396 
L 523.933926 100.051542 
L 525.153656 101.903765 
L 526.373386 99.723712 
L 527.593116 103.606046 
L 528.812846 98.167442 
L 530.032576 103.448276 
L 531.252305 106.460515 
L 532.472035 111.960874 
L 533.691765 111.539336 
L 534.911495 110.445381 
L 536.131225 111.79658 
L 537.350955 108.014259 
L 539.790414 112.401242 
L 541.010144 109.806117 
L 542.229874 112.955749 
L 543.449604 106.51521 
L 544.669334 110.943144 
L 545.889064 114.173841 
L 547.108793 108.264738 
L 548.328523 107.627137 
L 549.548253 112.891718 
L 550.767983 110.287662 
L 551.987713 115.328398 
L 553.207443 103.857387 
L 554.427173 107.452204 
L 555.646902 108.691812 
L 556.866632 102.142333 
L 558.086362 101.295014 
L 559.306092 96.311172 
L 560.525822 94.604936 
L 561.745552 101.208832 
L 562.965282 92.039588 
L 564.185011 85.75915 
L 565.404741 92.470525 
L 566.624471 88.8257 
L 567.844201 90.239995 
L 569.063931 87.893991 
L 570.283661 87.44352 
L 571.50339 80.256702 
L 572.72312 79.315185 
L 573.94285 80.393997 
L 575.16258 80.593854 
L 576.38231 71.055141 
L 577.60204 75.750385 
L 578.82177 65.375944 
L 580.041499 60.470714 
L 581.261229 68.914596 
L 582.480959 67.848164 
L 583.700689 61.247027 
L 584.920419 60.331382 
L 586.140149 55.974055 
L 587.359879 55.565605 
L 588.579608 51.951778 
L 589.799338 50.310854 
L 591.019068 49.130737 
L 592.238798 50.512436 
L 593.458528 56.828681 
L 594.678258 46.958581 
L 595.897988 46.729528 
L 597.117717 47.429142 
L 598.337447 39.253376 
L 599.557177 47.340596 
L 600.776907 44.225499 
L 601.996637 46.748223 
L 603.216367 48.188971 
L 604.436097 46.130946 
L 605.655826 41.478556 
L 606.875556 42.150349 
L 608.095286 43.491677 
L 610.534746 48.000625 
L 612.974205 46.84376 
L 614.193935 51.31111 
L 615.413665 47.747815 
L 616.633395 49.398271 
L 617.853125 56.416803 
L 620.292585 53.772362 
L 621.512314 62.388366 
L 622.732044 55.680478 
L 623.951774 62.267774 
L 625.171504 67.355626 
L 626.391234 70.422371 
L 627.610964 64.553736 
L 628.830694 63.434419 
L 630.050423 71.089556 
L 631.270153 73.105351 
L 632.489883 76.463715 
L 633.709613 78.182389 
L 634.929343 78.812011 
L 636.149073 82.14628 
L 637.368803 80.709143 
L 638.588532 83.390066 
L 639.808262 85.547189 
L 642.247722 95.071185 
L 643.467452 88.459435 
L 644.687182 92.300258 
L 645.906912 100.889856 
L 647.126641 94.170433 
L 648.346371 96.154275 
L 649.566101 96.963029 
L 650.785831 104.183635 
L 652.005561 101.512864 
L 653.225291 109.496612 
L 654.44502 104.426515 
L 655.66475 108.656184 
L 656.88448 109.933151 
L 659.32394 109.773889 
L 660.54367 107.982514 
L 661.7634 114.443862 
L 662.983129 109.637841 
L 664.202859 111.89044 
L 665.422589 109.161207 
L 667.862049 117.318788 
L 669.081779 106.67794 
L 670.301509 112.610564 
L 671.521238 104.511236 
L 672.740968 105.031522 
L 673.960698 106.899564 
L 675.180428 110.030955 
L 676.400158 106.843211 
L 677.619888 99.429868 
L 678.839618 107.809356 
L 680.059347 93.260286 
L 681.279077 96.639495 
L 682.498807 95.368899 
L 683.718537 94.699522 
L 684.938267 92.513139 
L 686.157997 97.29726 
L 688.597456 86.808953 
L 689.817186 91.931349 
L 691.036916 85.878095 
L 692.256646 81.489949 
L 693.476376 77.913277 
L 694.696106 80.852502 
L 695.915835 44.891538 
L 697.135565 40.877181 
L 698.355295 44.969178 
L 699.575025 44.690227 
L 700.794755 45.301308 
L 702.014485 41.374685 
L 703.234215 40.141929 
L 704.453944 44.527205 
L 705.673674 51.354164 
L 706.893404 55.043685 
L 709.332864 43.07562 
L 710.552594 51.821815 
L 711.772324 54.929208 
L 712.992053 62.802339 
L 714.211783 57.263107 
L 715.431513 63.430826 
L 716.651243 60.26724 
L 717.870973 68.30499 
L 719.090703 65.072766 
L 720.310433 63.69941 
L 721.530162 62.963149 
L 722.749892 73.85225 
L 723.969622 78.48346 
L 725.189352 78.465965 
L 726.409082 79.532792 
L 727.628812 87.341886 
L 728.848542 75.198643 
L 730.068271 90.821656 
L 731.288001 77.894441 
L 732.507731 85.316822 
L 733.727461 85.629563 
L 734.947191 90.015997 
L 736.166921 93.15589 
L 737.38665 93.545515 
L 738.60638 95.984791 
L 739.82611 106.91893 
L 741.04584 105.773196 
L 742.26557 106.230746 
L 743.4853 104.480449 
L 744.70503 106.473901 
L 745.924759 104.597632 
L 747.144489 103.019104 
L 748.364219 103.290181 
L 749.583949 116.03998 
L 750.803679 112.507729 
L 752.023409 111.164218 
L 753.243139 102.606075 
L 754.462868 113.237534 
L 755.682598 109.613068 
L 756.902328 113.7703 
L 758.122058 112.416528 
L 759.341788 110.743592 
L 760.561518 107.304348 
L 761.781248 112.241738 
L 763.000977 113.977898 
L 764.220707 112.23079 
L 765.440437 106.006845 
L 766.660167 105.682631 
L 767.879897 94.773747 
L 769.099627 102.968264 
L 770.319357 103.776925 
L 771.539086 100.137631 
L 772.758816 98.559035 
L 773.978546 95.20697 
L 775.198276 100.34547 
L 776.418006 98.577974 
L 777.637736 89.451969 
L 778.857465 82.997502 
L 780.077195 92.747889 
L 781.296925 81.578053 
L 782.516655 85.451759 
L 783.736385 81.198022 
L 784.956115 85.80969 
L 786.175845 73.837186 
L 787.395574 81.413523 
L 789.835034 69.264196 
L 791.054764 73.785497 
L 792.274494 66.413576 
L 793.494224 69.081314 
L 794.713954 61.284568 
L 795.933683 57.697724 
L 797.153413 60.044975 
L 798.373143 56.491713 
L 799.592873 56.808303 
L 800.812603 54.324932 
L 802.032333 50.116708 
L 803.252063 53.294518 
L 804.471792 45.363197 
L 805.691522 48.025704 
L 806.911252 54.046598 
L 808.130982 41.933838 
L 809.350712 44.025703 
L 810.570442 42.548117 
L 811.790171 50.348198 
L 813.009901 48.658174 
L 814.229631 45.883186 
L 815.449361 40.398877 
L 816.669091 44.82006 
L 816.669091 44.82006 
" style="fill:none;stroke:#0000ff;stroke-linecap:square;stroke-width:1.5;"/>
   </g>
   <g id="line2d_11">
    <path clip-path="url(#p7421250e27)" d="M 208.023894 122.280627 
L 208.023894 33.352941 
" style="fill:none;stroke:#000000;stroke-dasharray:3.7,1.6;stroke-dashoffset:0;"/>
   </g>
   <g id="line2d_12">
    <path clip-path="url(#p7421250e27)" d="M 329.99688 122.280627 
L 329.99688 33.352941 
" style="fill:none;stroke:#000000;stroke-dasharray:3.7,1.6;stroke-dashoffset:0;"/>
   </g>
   <g id="line2d_13">
    <path clip-path="url(#p7421250e27)" d="M 451.969865 122.280627 
L 451.969865 33.352941 
" style="fill:none;stroke:#000000;stroke-dasharray:3.7,1.6;stroke-dashoffset:0;"/>
   </g>
   <g id="line2d_14">
    <path clip-path="url(#p7421250e27)" d="M 573.94285 122.280627 
L 573.94285 33.352941 
" style="fill:none;stroke:#000000;stroke-dasharray:3.7,1.6;stroke-dashoffset:0;"/>
   </g>
   <g id="line2d_15">
    <path clip-path="url(#p7421250e27)" d="M 695.915835 122.280627 
L 695.915835 33.352941 
" style="fill:none;stroke:#000000;stroke-dasharray:3.7,1.6;stroke-dashoffset:0;"/>
   </g>
   <g id="patch_3">
    <path d="M 49.52 122.280627 
L 49.52 33.352941 
" style="fill:none;stroke:#000000;stroke-linecap:square;stroke-linejoin:miter;stroke-width:0.8;"/>
   </g>
   <g id="patch_4">
    <path d="M 853.2 122.280627 
L 853.2 33.352941 
" style="fill:none;stroke:#000000;stroke-linecap:square;stroke-linejoin:miter;stroke-width:0.8;"/>
   </g>
   <g id="patch_5">
    <path d="M 49.52 122.280627 
L 853.2 122.280627 
" style="fill:none;stroke:#000000;stroke-linecap:square;stroke-linejoin:miter;stroke-width:0.8;"/>
   </g>
   <g id="patch_6">
    <path d="M 49.52 33.352941 
L 853.2 33.352941 
" style="fill:none;stroke:#000000;stroke-linecap:square;stroke-linejoin:miter;stroke-width:0.8;"/>
   </g>
   <g id="patch_7">
    <path d="M 147.037402 20.169049 
Q 147.037402 21.315164 147.037402 21.343246 
" style="fill:none;stroke:#000000;stroke-linecap:round;"/>
    <path d="M 149.637402 16.143246 
L 147.037402 21.343246 
L 144.437402 16.143246 
" style="fill:none;stroke:#000000;stroke-linecap:round;"/>
   </g>
   <g id="text_5">
    <!-- $G_1$ -->
    <g transform="translate(138.912402 21.756579)scale(0.13 -0.13)">
     <defs>
      <path d="M 3494 697 
L 3738 1919 
L 2700 1919 
L 2797 2438 
L 4453 2438 
L 4050 384 
Q 3634 156 3143 32 
Q 2653 -91 2156 -91 
Q 1278 -91 783 396 
Q 288 884 288 1753 
Q 288 2475 589 3126 
Q 891 3778 1422 4213 
Q 1756 4484 2153 4617 
Q 2550 4750 3034 4750 
Q 3472 4750 3873 4639 
Q 4275 4528 4641 4306 
L 4513 3634 
Q 4231 3928 3853 4083 
Q 3475 4238 3047 4238 
Q 2550 4238 2172 4048 
Q 1794 3859 1497 3463 
Q 1244 3125 1098 2667 
Q 953 2209 953 1734 
Q 953 1081 1287 751 
Q 1622 422 2284 422 
Q 2616 422 2925 492 
Q 3234 563 3494 697 
z
" id="DejaVuSans-Oblique-47" transform="scale(0.015625)"/>
     </defs>
     <use transform="translate(0 0.78125)" xlink:href="#DejaVuSans-Oblique-47"/>
     <use transform="translate(77.490234 -15.625)scale(0.7)" xlink:href="#DejaVuSans-31"/>
    </g>
   </g>
   <g id="patch_8">
    <path d="M 269.010387 20.169049 
Q 269.010387 21.315164 269.010387 21.343246 
" style="fill:none;stroke:#000000;stroke-linecap:round;"/>
    <path d="M 271.610387 16.143246 
L 269.010387 21.343246 
L 266.410387 16.143246 
" style="fill:none;stroke:#000000;stroke-linecap:round;"/>
   </g>
   <g id="text_6">
    <!-- $G_2$ -->
    <g transform="translate(260.885387 21.756579)scale(0.13 -0.13)">
     <defs>
      <path d="M 1228 531 
L 3431 531 
L 3431 0 
L 469 0 
L 469 531 
Q 828 903 1448 1529 
Q 2069 2156 2228 2338 
Q 2531 2678 2651 2914 
Q 2772 3150 2772 3378 
Q 2772 3750 2511 3984 
Q 2250 4219 1831 4219 
Q 1534 4219 1204 4116 
Q 875 4013 500 3803 
L 500 4441 
Q 881 4594 1212 4672 
Q 1544 4750 1819 4750 
Q 2544 4750 2975 4387 
Q 3406 4025 3406 3419 
Q 3406 3131 3298 2873 
Q 3191 2616 2906 2266 
Q 2828 2175 2409 1742 
Q 1991 1309 1228 531 
z
" id="DejaVuSans-32" transform="scale(0.015625)"/>
     </defs>
     <use transform="translate(0 0.78125)" xlink:href="#DejaVuSans-Oblique-47"/>
     <use transform="translate(77.490234 -15.625)scale(0.7)" xlink:href="#DejaVuSans-32"/>
    </g>
   </g>
   <g id="patch_9">
    <path d="M 390.983372 20.169049 
Q 390.983372 21.315164 390.983372 21.343246 
" style="fill:none;stroke:#000000;stroke-linecap:round;"/>
    <path d="M 393.583372 16.143246 
L 390.983372 21.343246 
L 388.383372 16.143246 
" style="fill:none;stroke:#000000;stroke-linecap:round;"/>
   </g>
   <g id="text_7">
    <!-- $G_2$ -->
    <g transform="translate(382.858372 21.756579)scale(0.13 -0.13)">
     <use transform="translate(0 0.78125)" xlink:href="#DejaVuSans-Oblique-47"/>
     <use transform="translate(77.490234 -15.625)scale(0.7)" xlink:href="#DejaVuSans-32"/>
    </g>
   </g>
   <g id="patch_10">
    <path d="M 512.956358 20.169049 
Q 512.956358 21.315164 512.956358 21.343246 
" style="fill:none;stroke:#000000;stroke-linecap:round;"/>
    <path d="M 515.556358 16.143246 
L 512.956358 21.343246 
L 510.356358 16.143246 
" style="fill:none;stroke:#000000;stroke-linecap:round;"/>
   </g>
   <g id="text_8">
    <!-- $G_1$ -->
    <g transform="translate(504.831358 21.756579)scale(0.13 -0.13)">
     <use transform="translate(0 0.78125)" xlink:href="#DejaVuSans-Oblique-47"/>
     <use transform="translate(77.490234 -15.625)scale(0.7)" xlink:href="#DejaVuSans-31"/>
    </g>
   </g>
   <g id="patch_11">
    <path d="M 634.929343 20.169049 
Q 634.929343 21.315164 634.929343 21.343246 
" style="fill:none;stroke:#000000;stroke-linecap:round;"/>
    <path d="M 637.529343 16.143246 
L 634.929343 21.343246 
L 632.329343 16.143246 
" style="fill:none;stroke:#000000;stroke-linecap:round;"/>
   </g>
   <g id="text_9">
    <!-- $G_1$ -->
    <g transform="translate(626.804343 21.756579)scale(0.13 -0.13)">
     <use transform="translate(0 0.78125)" xlink:href="#DejaVuSans-Oblique-47"/>
     <use transform="translate(77.490234 -15.625)scale(0.7)" xlink:href="#DejaVuSans-31"/>
    </g>
   </g>
   <g id="patch_12">
    <path d="M 756.902328 20.169049 
Q 756.902328 21.315164 756.902328 21.343246 
" style="fill:none;stroke:#000000;stroke-linecap:round;"/>
    <path d="M 759.502328 16.143246 
L 756.902328 21.343246 
L 754.302328 16.143246 
" style="fill:none;stroke:#000000;stroke-linecap:round;"/>
   </g>
   <g id="text_10">
    <!-- $G_3$ -->
    <g transform="translate(748.777328 21.756579)scale(0.13 -0.13)">
     <defs>
      <path d="M 2597 2516 
Q 3050 2419 3304 2112 
Q 3559 1806 3559 1356 
Q 3559 666 3084 287 
Q 2609 -91 1734 -91 
Q 1441 -91 1130 -33 
Q 819 25 488 141 
L 488 750 
Q 750 597 1062 519 
Q 1375 441 1716 441 
Q 2309 441 2620 675 
Q 2931 909 2931 1356 
Q 2931 1769 2642 2001 
Q 2353 2234 1838 2234 
L 1294 2234 
L 1294 2753 
L 1863 2753 
Q 2328 2753 2575 2939 
Q 2822 3125 2822 3475 
Q 2822 3834 2567 4026 
Q 2313 4219 1838 4219 
Q 1578 4219 1281 4162 
Q 984 4106 628 3988 
L 628 4550 
Q 988 4650 1302 4700 
Q 1616 4750 1894 4750 
Q 2613 4750 3031 4423 
Q 3450 4097 3450 3541 
Q 3450 3153 3228 2886 
Q 3006 2619 2597 2516 
z
" id="DejaVuSans-33" transform="scale(0.015625)"/>
     </defs>
     <use transform="translate(0 0.78125)" xlink:href="#DejaVuSans-Oblique-47"/>
     <use transform="translate(77.490234 -15.625)scale(0.7)" xlink:href="#DejaVuSans-33"/>
    </g>
   </g>
  </g>
  <g id="axes_2">
   <g id="patch_13">
    <path d="M 49.52 225.508314 
L 853.2 225.508314 
L 853.2 136.580627 
L 49.52 136.580627 
z
" style="fill:#ffffff;"/>
   </g>
   <g id="matplotlib.axis_3">
    <g id="xtick_7">
     <g id="line2d_16">
      <g>
       <use style="stroke:#000000;stroke-width:0.8;" x="147.037402" xlink:href="#ma4a1e32940" y="225.508314"/>
      </g>
     </g>
    </g>
    <g id="xtick_8">
     <g id="line2d_17">
      <g>
       <use style="stroke:#000000;stroke-width:0.8;" x="269.010387" xlink:href="#ma4a1e32940" y="225.508314"/>
      </g>
     </g>
    </g>
    <g id="xtick_9">
     <g id="line2d_18">
      <g>
       <use style="stroke:#000000;stroke-width:0.8;" x="390.983372" xlink:href="#ma4a1e32940" y="225.508314"/>
      </g>
     </g>
    </g>
    <g id="xtick_10">
     <g id="line2d_19">
      <g>
       <use style="stroke:#000000;stroke-width:0.8;" x="512.956358" xlink:href="#ma4a1e32940" y="225.508314"/>
      </g>
     </g>
    </g>
    <g id="xtick_11">
     <g id="line2d_20">
      <g>
       <use style="stroke:#000000;stroke-width:0.8;" x="634.929343" xlink:href="#ma4a1e32940" y="225.508314"/>
      </g>
     </g>
    </g>
    <g id="xtick_12">
     <g id="line2d_21">
      <g>
       <use style="stroke:#000000;stroke-width:0.8;" x="756.902328" xlink:href="#ma4a1e32940" y="225.508314"/>
      </g>
     </g>
    </g>
   </g>
   <g id="matplotlib.axis_4">
    <g id="ytick_4">
     <g id="line2d_22">
      <g>
       <use style="stroke:#000000;stroke-width:0.8;" x="49.52" xlink:href="#m64de7c95d9" y="214.159952"/>
      </g>
     </g>
     <g id="text_11">
      <!-- −1 -->
      <g transform="translate(27.777813 217.959171)scale(0.1 -0.1)">
       <use xlink:href="#DejaVuSans-2212"/>
       <use x="83.789062" xlink:href="#DejaVuSans-31"/>
      </g>
     </g>
    </g>
    <g id="ytick_5">
     <g id="line2d_23">
      <g>
       <use style="stroke:#000000;stroke-width:0.8;" x="49.52" xlink:href="#m64de7c95d9" y="180.273852"/>
      </g>
     </g>
     <g id="text_12">
      <!-- 0 -->
      <g transform="translate(36.1575 184.073071)scale(0.1 -0.1)">
       <use xlink:href="#DejaVuSans-30"/>
      </g>
     </g>
    </g>
    <g id="ytick_6">
     <g id="line2d_24">
      <g>
       <use style="stroke:#000000;stroke-width:0.8;" x="49.52" xlink:href="#m64de7c95d9" y="146.387752"/>
      </g>
     </g>
     <g id="text_13">
      <!-- 1 -->
      <g transform="translate(36.1575 150.186971)scale(0.1 -0.1)">
       <use xlink:href="#DejaVuSans-31"/>
      </g>
     </g>
    </g>
    <g id="text_14">
     <!-- $x_2$ -->
     <g transform="translate(21.074219 187.999471)rotate(-90)scale(0.13 -0.13)">
      <use transform="translate(0 0.3125)" xlink:href="#DejaVuSans-Oblique-78"/>
      <use transform="translate(59.179688 -16.09375)scale(0.7)" xlink:href="#DejaVuSans-32"/>
     </g>
    </g>
   </g>
   <g id="line2d_25">
    <path clip-path="url(#p31317dcd30)" d="M 86.050909 147.423802 
L 87.270639 146.212995 
L 88.490369 152.702544 
L 89.710099 142.252217 
L 90.929829 146.967415 
L 92.149558 144.984412 
L 93.369288 153.168363 
L 94.589018 147.958076 
L 95.808748 149.157104 
L 97.028478 153.66491 
L 98.248208 157.605503 
L 99.467937 153.674026 
L 100.687667 151.919734 
L 101.907397 155.395468 
L 103.127127 154.621092 
L 104.346857 161.404162 
L 105.566587 156.462168 
L 106.786317 164.851101 
L 108.006046 167.857441 
L 109.225776 166.42332 
L 110.445506 172.386275 
L 111.665236 175.927582 
L 114.104696 178.28538 
L 115.324426 176.421424 
L 116.544155 176.787556 
L 118.983615 185.754789 
L 120.203345 186.567883 
L 121.423075 191.496608 
L 122.642805 194.807422 
L 123.862535 193.794105 
L 125.082264 195.580854 
L 126.301994 199.037761 
L 127.521724 197.654784 
L 128.741454 200.400104 
L 129.961184 202.747059 
L 131.180914 197.801259 
L 132.400643 207.470614 
L 133.620373 209.966546 
L 134.840103 209.030308 
L 136.059833 215.566108 
L 137.279563 215.890812 
L 139.719023 208.078681 
L 140.938752 217.705082 
L 142.158482 209.478633 
L 143.378212 207.006041 
L 144.597942 214.428924 
L 145.817672 220.6903 
L 147.037402 213.149271 
L 148.257132 214.626033 
L 149.476861 214.067092 
L 150.696591 206.165441 
L 151.916321 215.048513 
L 153.136051 207.795733 
L 154.355781 209.447479 
L 155.575511 214.037175 
L 158.01497 203.624835 
L 159.2347 203.204194 
L 160.45443 207.029426 
L 161.67416 199.52967 
L 162.89389 199.620282 
L 165.33335 201.11291 
L 166.553079 196.451737 
L 167.772809 195.503452 
L 168.992539 191.049425 
L 170.212269 189.912242 
L 171.431999 191.730329 
L 172.651729 188.041991 
L 173.871458 188.952634 
L 175.091188 181.952597 
L 176.310918 179.611762 
L 177.530648 179.802932 
L 178.750378 177.931378 
L 179.970108 174.2882 
L 181.189838 170.16022 
L 182.409567 168.120729 
L 183.629297 168.836446 
L 184.849027 161.13661 
L 186.068757 165.142947 
L 187.288487 159.814345 
L 188.508217 162.193075 
L 189.727947 155.082408 
L 190.947676 154.4831 
L 192.167406 155.131272 
L 193.387136 150.498901 
L 194.606866 156.760738 
L 195.826596 145.044124 
L 197.046326 147.988046 
L 198.266056 147.950966 
L 199.485785 148.851726 
L 200.705515 152.221418 
L 201.925245 151.879463 
L 203.144975 149.791436 
L 204.364705 144.759441 
L 205.584435 148.694952 
L 206.804165 148.024253 
L 208.023894 178.627952 
L 209.243624 182.525325 
L 210.463354 176.713502 
L 211.683084 172.61258 
L 212.902814 172.889174 
L 214.122544 169.518673 
L 215.342273 162.037043 
L 216.562003 161.819028 
L 217.781733 165.896976 
L 219.001463 163.158195 
L 220.221193 157.894163 
L 221.440923 160.566266 
L 222.660653 152.000695 
L 223.880382 154.770282 
L 225.100112 155.398383 
L 226.319842 155.560907 
L 227.539572 150.552844 
L 228.759302 156.508587 
L 229.979032 149.265285 
L 231.198762 147.635391 
L 232.418491 150.987791 
L 233.638221 147.466416 
L 234.857951 144.734674 
L 236.077681 149.041442 
L 237.297411 141.534078 
L 238.517141 150.251731 
L 239.736871 141.623057 
L 240.9566 146.808201 
L 242.17633 143.380671 
L 243.39606 147.510653 
L 244.61579 149.424969 
L 245.83552 156.775269 
L 247.05525 148.0105 
L 248.27498 152.334832 
L 249.494709 151.143003 
L 250.714439 155.500696 
L 251.934169 152.82742 
L 253.153899 151.861589 
L 254.373629 159.915033 
L 255.593359 159.070921 
L 256.813088 156.940149 
L 258.032818 162.843191 
L 259.252548 165.397035 
L 260.472278 160.306862 
L 261.692008 161.771432 
L 262.911738 170.114384 
L 264.131468 170.044532 
L 265.351197 177.016082 
L 266.570927 172.553386 
L 267.790657 179.791471 
L 269.010387 185.070621 
L 270.230117 186.676968 
L 271.449847 182.188656 
L 272.669577 189.447102 
L 273.889306 188.727731 
L 275.109036 186.96195 
L 276.328766 197.281394 
L 277.548496 197.119151 
L 278.768226 192.690798 
L 279.987956 198.00455 
L 281.207686 204.478096 
L 282.427415 200.670289 
L 283.647145 200.373829 
L 284.866875 208.439569 
L 286.086605 203.82017 
L 287.306335 208.117058 
L 288.526065 213.233535 
L 289.745795 213.953096 
L 290.965524 212.29663 
L 292.185254 211.132052 
L 293.404984 216.449314 
L 294.624714 218.84389 
L 295.844444 215.058102 
L 297.064174 209.104168 
L 298.283903 219.724259 
L 299.503633 214.01022 
L 300.723363 209.411328 
L 301.943093 211.349501 
L 303.162823 212.132894 
L 304.382553 213.416577 
L 305.602283 217.694511 
L 306.822012 214.580768 
L 308.041742 208.286527 
L 309.261472 208.843577 
L 310.481202 204.191282 
L 311.700932 205.953489 
L 312.920662 208.546262 
L 314.140392 203.868542 
L 315.360121 197.350298 
L 316.579851 202.634312 
L 317.799581 200.672916 
L 319.019311 194.71469 
L 320.239041 192.249052 
L 321.458771 195.89518 
L 322.678501 184.923102 
L 323.89823 189.213645 
L 325.11796 189.691062 
L 326.33769 183.528522 
L 327.55742 184.054334 
L 328.77715 185.154014 
L 329.99688 180.64605 
L 331.21661 178.518309 
L 332.436339 177.833881 
L 333.656069 177.294209 
L 334.875799 171.963535 
L 336.095529 168.662767 
L 337.315259 170.63559 
L 338.534989 167.608198 
L 339.754718 160.884564 
L 340.974448 164.90068 
L 342.194178 159.716822 
L 343.413908 160.978697 
L 344.633638 160.411845 
L 345.853368 160.051627 
L 347.073098 149.065417 
L 348.292827 153.578839 
L 349.512557 148.887187 
L 350.732287 153.638648 
L 351.952017 148.474429 
L 353.171747 146.644245 
L 354.391477 146.023832 
L 355.611207 147.351984 
L 356.830936 155.238459 
L 358.050666 148.317801 
L 359.270396 144.721381 
L 360.490126 145.346884 
L 361.709856 152.282339 
L 362.929586 143.190819 
L 364.149316 145.682603 
L 365.369045 150.14318 
L 366.588775 148.925514 
L 367.808505 148.443836 
L 369.028235 143.797539 
L 370.247965 152.347943 
L 372.687424 152.270925 
L 373.907154 157.251942 
L 375.126884 155.649174 
L 376.346614 155.518364 
L 377.566344 160.98732 
L 378.786074 156.917812 
L 380.005804 158.995042 
L 381.225533 170.685191 
L 382.445263 162.209223 
L 383.664993 167.768417 
L 384.884723 171.952665 
L 386.104453 175.367564 
L 387.324183 169.707305 
L 388.543913 171.847612 
L 389.763642 178.481828 
L 390.983372 188.321672 
L 392.203102 185.431718 
L 393.422832 181.749286 
L 394.642562 186.358168 
L 395.862292 193.074431 
L 397.082022 185.730387 
L 398.301751 188.347676 
L 399.521481 191.298804 
L 400.741211 194.983621 
L 401.960941 195.789485 
L 403.180671 197.142282 
L 404.400401 202.189332 
L 405.620131 202.846043 
L 406.83986 204.08692 
L 408.05959 204.245565 
L 409.27932 209.234269 
L 410.49905 210.010627 
L 411.71878 210.444136 
L 412.93851 207.223477 
L 414.158239 212.370855 
L 415.377969 216.656114 
L 416.597699 213.997247 
L 417.817429 219.107486 
L 419.037159 210.359038 
L 420.256889 218.342565 
L 421.476619 211.862449 
L 422.696348 208.525484 
L 423.916078 210.566667 
L 425.135808 211.192559 
L 426.355538 212.603603 
L 427.575268 210.919793 
L 428.794998 207.473376 
L 430.014728 211.599206 
L 431.234457 213.793996 
L 432.454187 211.517896 
L 433.673917 205.066813 
L 434.893647 209.957568 
L 436.113377 202.069683 
L 437.333107 205.21844 
L 438.552837 207.2887 
L 439.772566 198.570376 
L 440.992296 201.957792 
L 442.212026 191.139778 
L 443.431756 199.578045 
L 444.651486 189.496481 
L 445.871216 185.379163 
L 447.090946 191.211239 
L 448.310675 190.026223 
L 449.530405 177.952015 
L 450.750135 173.163195 
L 451.969865 143.684613 
L 454.409325 149.957846 
L 455.629054 142.308801 
L 456.848784 152.308339 
L 458.068514 151.795468 
L 459.288244 145.890497 
L 460.507974 152.431241 
L 461.727704 150.560945 
L 462.947434 153.474635 
L 464.167163 161.984517 
L 465.386893 161.380691 
L 466.606623 159.268592 
L 467.826353 157.598844 
L 469.046083 157.05506 
L 470.265813 159.373717 
L 471.485543 164.736979 
L 472.705272 166.799999 
L 473.925002 163.63385 
L 475.144732 164.434092 
L 476.364462 171.817026 
L 477.584192 178.193923 
L 478.803922 172.631934 
L 480.023652 174.812349 
L 481.243381 174.800409 
L 482.463111 183.749413 
L 483.682841 183.650043 
L 484.902571 186.223073 
L 486.122301 190.244477 
L 487.342031 187.886963 
L 488.561761 189.854448 
L 489.78149 189.307621 
L 491.00122 199.113668 
L 492.22095 198.949038 
L 493.44068 196.538334 
L 494.66041 197.731396 
L 495.88014 207.329504 
L 497.099869 202.21753 
L 498.319599 201.696865 
L 499.539329 212.701798 
L 500.759059 211.56376 
L 501.978789 209.639931 
L 503.198519 209.115356 
L 504.418249 209.51683 
L 505.637978 210.895491 
L 506.857708 216.35104 
L 508.077438 212.53545 
L 509.297168 209.553283 
L 510.516898 211.379333 
L 511.736628 221.466146 
L 512.956358 214.808964 
L 514.176087 216.930884 
L 515.395817 211.098116 
L 516.615547 211.812961 
L 517.835277 211.30584 
L 519.055007 206.254274 
L 520.274737 214.195092 
L 521.494467 208.282543 
L 522.714196 209.76413 
L 523.933926 210.057189 
L 525.153656 206.11614 
L 526.373386 203.088972 
L 527.593116 202.815076 
L 528.812846 206.787373 
L 530.032576 208.051585 
L 531.252305 202.729077 
L 532.472035 192.686319 
L 533.691765 192.065558 
L 534.911495 197.538697 
L 536.131225 194.769708 
L 537.350955 187.635345 
L 538.570684 191.038376 
L 539.790414 182.385371 
L 541.010144 177.814541 
L 542.229874 179.519398 
L 543.449604 180.009903 
L 544.669334 178.242126 
L 545.889064 178.134861 
L 547.108793 177.275524 
L 548.328523 165.987889 
L 549.548253 168.322999 
L 550.767983 168.687859 
L 551.987713 163.939055 
L 553.207443 164.642896 
L 554.427173 164.484422 
L 555.646902 162.714191 
L 556.866632 156.596583 
L 558.086362 157.584962 
L 559.306092 157.512269 
L 560.525822 153.840383 
L 561.745552 154.542436 
L 562.965282 154.458062 
L 564.185011 149.188918 
L 565.404741 147.894498 
L 566.624471 149.825374 
L 567.844201 148.364394 
L 570.283661 151.563826 
L 571.50339 151.915719 
L 572.72312 144.348718 
L 573.94285 149.261164 
L 575.16258 140.890202 
L 576.38231 149.133845 
L 577.60204 140.622795 
L 578.82177 148.162724 
L 580.041499 149.813934 
L 581.261229 147.802753 
L 582.480959 149.536074 
L 583.700689 148.23923 
L 584.920419 144.249982 
L 586.140149 153.90745 
L 587.359879 152.511564 
L 588.579608 155.679202 
L 589.799338 154.812597 
L 591.019068 158.165027 
L 592.238798 156.742427 
L 593.458528 165.450749 
L 594.678258 166.367646 
L 595.897988 166.811502 
L 597.117717 172.186166 
L 598.337447 166.523669 
L 600.776907 176.786241 
L 601.996637 176.583695 
L 603.216367 179.948272 
L 604.436097 186.241638 
L 605.655826 180.1443 
L 606.875556 191.753454 
L 608.095286 187.632532 
L 609.315016 188.348637 
L 610.534746 191.93558 
L 611.754476 191.62752 
L 612.974205 194.327322 
L 614.193935 199.362946 
L 615.413665 198.032895 
L 616.633395 203.394969 
L 617.853125 198.969797 
L 619.072855 204.733119 
L 620.292585 206.576594 
L 621.512314 206.269139 
L 622.732044 204.985251 
L 623.951774 209.156135 
L 625.171504 219.065887 
L 626.391234 209.237295 
L 627.610964 206.691225 
L 628.830694 207.384987 
L 630.050423 213.8286 
L 631.270153 214.905956 
L 633.709613 208.366594 
L 634.929343 214.43591 
L 636.149073 210.46814 
L 637.368803 219.044354 
L 638.588532 210.572731 
L 639.808262 211.079229 
L 641.027992 206.459665 
L 642.247722 210.833182 
L 643.467452 212.096943 
L 644.687182 203.799827 
L 645.906912 205.229874 
L 647.126641 209.533549 
L 648.346371 208.277006 
L 649.566101 202.950288 
L 650.785831 208.010279 
L 652.005561 208.017931 
L 653.225291 204.100461 
L 654.44502 195.191058 
L 655.66475 191.420002 
L 656.88448 188.477953 
L 658.10421 192.791107 
L 659.32394 190.972651 
L 660.54367 191.249311 
L 661.7634 182.685423 
L 662.983129 184.211594 
L 664.202859 184.948061 
L 665.422589 180.854991 
L 666.642319 179.950411 
L 667.862049 171.394316 
L 669.081779 169.089884 
L 670.301509 168.257749 
L 671.521238 174.12962 
L 672.740968 173.552309 
L 673.960698 166.722078 
L 675.180428 158.846749 
L 676.400158 157.602559 
L 677.619888 156.179963 
L 678.839618 158.131754 
L 680.059347 156.515066 
L 681.279077 152.432431 
L 682.498807 155.464806 
L 683.718537 152.528183 
L 684.938267 148.052588 
L 686.157997 154.592468 
L 687.377727 143.187887 
L 688.597456 152.677559 
L 689.817186 144.144179 
L 691.036916 144.445164 
L 692.256646 148.82002 
L 693.476376 149.412428 
L 694.696106 147.121788 
L 695.915835 148.133456 
L 697.135565 143.639111 
L 698.355295 147.509008 
L 699.575025 145.348885 
L 700.794755 147.783683 
L 702.014485 143.607714 
L 703.234215 143.030177 
L 704.453944 146.423406 
L 705.673674 154.734043 
L 706.893404 159.228758 
L 708.113134 152.08378 
L 709.332864 143.593105 
L 710.552594 159.252054 
L 711.772324 155.04096 
L 712.992053 163.880557 
L 714.211783 162.869767 
L 715.431513 169.866351 
L 716.651243 161.160515 
L 717.870973 172.609972 
L 720.310433 164.084439 
L 721.530162 167.804566 
L 722.749892 176.337847 
L 723.969622 179.927233 
L 725.189352 181.055905 
L 726.409082 180.914394 
L 727.628812 189.333206 
L 728.848542 178.229266 
L 730.068271 193.314784 
L 731.288001 183.06132 
L 732.507731 187.296562 
L 733.727461 187.653511 
L 736.166921 194.442702 
L 737.38665 199.284521 
L 738.60638 198.784253 
L 739.82611 212.64381 
L 741.04584 208.499578 
L 743.4853 209.167304 
L 744.70503 206.953011 
L 745.924759 208.522699 
L 747.144489 205.462622 
L 748.364219 205.850988 
L 749.583949 217.797858 
L 750.803679 213.202118 
L 752.023409 213.380679 
L 753.243139 203.109559 
L 754.462868 216.825822 
L 755.682598 213.672251 
L 756.902328 215.098881 
L 758.122058 214.448652 
L 759.341788 211.007018 
L 760.561518 209.47347 
L 761.781248 218.26784 
L 763.000977 217.706635 
L 764.220707 213.312894 
L 765.440437 208.297479 
L 766.660167 206.902044 
L 767.879897 197.349586 
L 769.099627 205.736563 
L 770.319357 203.734958 
L 771.539086 202.459462 
L 772.758816 200.10904 
L 773.978546 199.057185 
L 775.198276 203.724028 
L 776.418006 199.782525 
L 778.857465 185.59506 
L 780.077195 194.61969 
L 781.296925 182.351061 
L 782.516655 188.778379 
L 783.736385 181.332508 
L 784.956115 186.472194 
L 786.175845 176.316228 
L 787.395574 184.385233 
L 788.615304 176.295957 
L 789.835034 174.157706 
L 791.054764 174.834209 
L 792.274494 170.017064 
L 793.494224 170.952412 
L 794.713954 164.434075 
L 795.933683 162.72484 
L 797.153413 162.17255 
L 798.373143 159.386525 
L 799.592873 158.322174 
L 800.812603 158.114763 
L 802.032333 148.88449 
L 803.252063 154.060752 
L 804.471792 147.209651 
L 806.911252 157.191372 
L 808.130982 144.643766 
L 809.350712 145.389819 
L 810.570442 148.250053 
L 811.790171 152.427249 
L 813.009901 154.465453 
L 814.229631 147.419521 
L 815.449361 144.751249 
L 816.669091 148.501856 
L 816.669091 148.501856 
" style="fill:none;stroke:#0000ff;stroke-linecap:square;stroke-width:1.5;"/>
   </g>
   <g id="line2d_26">
    <path clip-path="url(#p31317dcd30)" d="M 208.023894 225.508314 
L 208.023894 136.580627 
" style="fill:none;stroke:#000000;stroke-dasharray:3.7,1.6;stroke-dashoffset:0;"/>
   </g>
   <g id="line2d_27">
    <path clip-path="url(#p31317dcd30)" d="M 329.99688 225.508314 
L 329.99688 136.580627 
" style="fill:none;stroke:#000000;stroke-dasharray:3.7,1.6;stroke-dashoffset:0;"/>
   </g>
   <g id="line2d_28">
    <path clip-path="url(#p31317dcd30)" d="M 451.969865 225.508314 
L 451.969865 136.580627 
" style="fill:none;stroke:#000000;stroke-dasharray:3.7,1.6;stroke-dashoffset:0;"/>
   </g>
   <g id="line2d_29">
    <path clip-path="url(#p31317dcd30)" d="M 573.94285 225.508314 
L 573.94285 136.580627 
" style="fill:none;stroke:#000000;stroke-dasharray:3.7,1.6;stroke-dashoffset:0;"/>
   </g>
   <g id="line2d_30">
    <path clip-path="url(#p31317dcd30)" d="M 695.915835 225.508314 
L 695.915835 136.580627 
" style="fill:none;stroke:#000000;stroke-dasharray:3.7,1.6;stroke-dashoffset:0;"/>
   </g>
   <g id="patch_14">
    <path d="M 49.52 225.508314 
L 49.52 136.580627 
" style="fill:none;stroke:#000000;stroke-linecap:square;stroke-linejoin:miter;stroke-width:0.8;"/>
   </g>
   <g id="patch_15">
    <path d="M 853.2 225.508314 
L 853.2 136.580627 
" style="fill:none;stroke:#000000;stroke-linecap:square;stroke-linejoin:miter;stroke-width:0.8;"/>
   </g>
   <g id="patch_16">
    <path d="M 49.52 225.508314 
L 853.2 225.508314 
" style="fill:none;stroke:#000000;stroke-linecap:square;stroke-linejoin:miter;stroke-width:0.8;"/>
   </g>
   <g id="patch_17">
    <path d="M 49.52 136.580627 
L 853.2 136.580627 
" style="fill:none;stroke:#000000;stroke-linecap:square;stroke-linejoin:miter;stroke-width:0.8;"/>
   </g>
  </g>
  <g id="axes_3">
   <g id="patch_18">
    <path d="M 49.52 328.736 
L 853.2 328.736 
L 853.2 239.808314 
L 49.52 239.808314 
z
" style="fill:#ffffff;"/>
   </g>
   <g id="matplotlib.axis_5">
    <g id="xtick_13">
     <g id="line2d_31">
      <g>
       <use style="stroke:#000000;stroke-width:0.8;" x="147.037402" xlink:href="#ma4a1e32940" y="328.736"/>
      </g>
     </g>
     <g id="text_15">
      <!-- $t_1$ -->
      <g transform="translate(141.817402 344.854125)scale(0.12 -0.12)">
       <defs>
        <path d="M 2706 3500 
L 2619 3053 
L 1472 3053 
L 1100 1153 
Q 1081 1047 1072 975 
Q 1063 903 1063 863 
Q 1063 663 1183 572 
Q 1303 481 1569 481 
L 2150 481 
L 2053 0 
L 1503 0 
Q 991 0 739 200 
Q 488 400 488 806 
Q 488 878 497 964 
Q 506 1050 525 1153 
L 897 3053 
L 409 3053 
L 500 3500 
L 978 3500 
L 1172 4494 
L 1747 4494 
L 1556 3500 
L 2706 3500 
z
" id="DejaVuSans-Oblique-74" transform="scale(0.015625)"/>
       </defs>
       <use transform="translate(0 0.78125)" xlink:href="#DejaVuSans-Oblique-74"/>
       <use transform="translate(39.208984 -15.625)scale(0.7)" xlink:href="#DejaVuSans-31"/>
      </g>
     </g>
    </g>
    <g id="xtick_14">
     <g id="line2d_32">
      <g>
       <use style="stroke:#000000;stroke-width:0.8;" x="269.010387" xlink:href="#ma4a1e32940" y="328.736"/>
      </g>
     </g>
     <g id="text_16">
      <!-- $t_2$ -->
      <g transform="translate(263.790387 344.854125)scale(0.12 -0.12)">
       <use transform="translate(0 0.78125)" xlink:href="#DejaVuSans-Oblique-74"/>
       <use transform="translate(39.208984 -15.625)scale(0.7)" xlink:href="#DejaVuSans-32"/>
      </g>
     </g>
    </g>
    <g id="xtick_15">
     <g id="line2d_33">
      <g>
       <use style="stroke:#000000;stroke-width:0.8;" x="390.983372" xlink:href="#ma4a1e32940" y="328.736"/>
      </g>
     </g>
     <g id="text_17">
      <!-- $t_3$ -->
      <g transform="translate(385.763372 344.854125)scale(0.12 -0.12)">
       <use transform="translate(0 0.78125)" xlink:href="#DejaVuSans-Oblique-74"/>
       <use transform="translate(39.208984 -15.625)scale(0.7)" xlink:href="#DejaVuSans-33"/>
      </g>
     </g>
    </g>
    <g id="xtick_16">
     <g id="line2d_34">
      <g>
       <use style="stroke:#000000;stroke-width:0.8;" x="512.956358" xlink:href="#ma4a1e32940" y="328.736"/>
      </g>
     </g>
     <g id="text_18">
      <!-- $t_4$ -->
      <g transform="translate(507.736358 344.854125)scale(0.12 -0.12)">
       <defs>
        <path d="M 2419 4116 
L 825 1625 
L 2419 1625 
L 2419 4116 
z
M 2253 4666 
L 3047 4666 
L 3047 1625 
L 3713 1625 
L 3713 1100 
L 3047 1100 
L 3047 0 
L 2419 0 
L 2419 1100 
L 313 1100 
L 313 1709 
L 2253 4666 
z
" id="DejaVuSans-34" transform="scale(0.015625)"/>
       </defs>
       <use transform="translate(0 0.78125)" xlink:href="#DejaVuSans-Oblique-74"/>
       <use transform="translate(39.208984 -15.625)scale(0.7)" xlink:href="#DejaVuSans-34"/>
      </g>
     </g>
    </g>
    <g id="xtick_17">
     <g id="line2d_35">
      <g>
       <use style="stroke:#000000;stroke-width:0.8;" x="634.929343" xlink:href="#ma4a1e32940" y="328.736"/>
      </g>
     </g>
     <g id="text_19">
      <!-- $t_5$ -->
      <g transform="translate(629.709343 344.854125)scale(0.12 -0.12)">
       <defs>
        <path d="M 691 4666 
L 3169 4666 
L 3169 4134 
L 1269 4134 
L 1269 2991 
Q 1406 3038 1543 3061 
Q 1681 3084 1819 3084 
Q 2600 3084 3056 2656 
Q 3513 2228 3513 1497 
Q 3513 744 3044 326 
Q 2575 -91 1722 -91 
Q 1428 -91 1123 -41 
Q 819 9 494 109 
L 494 744 
Q 775 591 1075 516 
Q 1375 441 1709 441 
Q 2250 441 2565 725 
Q 2881 1009 2881 1497 
Q 2881 1984 2565 2268 
Q 2250 2553 1709 2553 
Q 1456 2553 1204 2497 
Q 953 2441 691 2322 
L 691 4666 
z
" id="DejaVuSans-35" transform="scale(0.015625)"/>
       </defs>
       <use transform="translate(0 0.78125)" xlink:href="#DejaVuSans-Oblique-74"/>
       <use transform="translate(39.208984 -15.625)scale(0.7)" xlink:href="#DejaVuSans-35"/>
      </g>
     </g>
    </g>
    <g id="xtick_18">
     <g id="line2d_36">
      <g>
       <use style="stroke:#000000;stroke-width:0.8;" x="756.902328" xlink:href="#ma4a1e32940" y="328.736"/>
      </g>
     </g>
     <g id="text_20">
      <!-- $t_6$ -->
      <g transform="translate(751.682328 344.854125)scale(0.12 -0.12)">
       <defs>
        <path d="M 2113 2584 
Q 1688 2584 1439 2293 
Q 1191 2003 1191 1497 
Q 1191 994 1439 701 
Q 1688 409 2113 409 
Q 2538 409 2786 701 
Q 3034 994 3034 1497 
Q 3034 2003 2786 2293 
Q 2538 2584 2113 2584 
z
M 3366 4563 
L 3366 3988 
Q 3128 4100 2886 4159 
Q 2644 4219 2406 4219 
Q 1781 4219 1451 3797 
Q 1122 3375 1075 2522 
Q 1259 2794 1537 2939 
Q 1816 3084 2150 3084 
Q 2853 3084 3261 2657 
Q 3669 2231 3669 1497 
Q 3669 778 3244 343 
Q 2819 -91 2113 -91 
Q 1303 -91 875 529 
Q 447 1150 447 2328 
Q 447 3434 972 4092 
Q 1497 4750 2381 4750 
Q 2619 4750 2861 4703 
Q 3103 4656 3366 4563 
z
" id="DejaVuSans-36" transform="scale(0.015625)"/>
       </defs>
       <use transform="translate(0 0.78125)" xlink:href="#DejaVuSans-Oblique-74"/>
       <use transform="translate(39.208984 -15.625)scale(0.7)" xlink:href="#DejaVuSans-36"/>
      </g>
     </g>
    </g>
   </g>
   <g id="matplotlib.axis_6">
    <g id="ytick_7">
     <g id="line2d_37">
      <g>
       <use style="stroke:#000000;stroke-width:0.8;" x="49.52" xlink:href="#m64de7c95d9" y="317.462599"/>
      </g>
     </g>
     <g id="text_21">
      <!-- −1 -->
      <g transform="translate(27.777813 321.261817)scale(0.1 -0.1)">
       <use xlink:href="#DejaVuSans-2212"/>
       <use x="83.789062" xlink:href="#DejaVuSans-31"/>
      </g>
     </g>
    </g>
    <g id="ytick_8">
     <g id="line2d_38">
      <g>
       <use style="stroke:#000000;stroke-width:0.8;" x="49.52" xlink:href="#m64de7c95d9" y="284.378515"/>
      </g>
     </g>
     <g id="text_22">
      <!-- 0 -->
      <g transform="translate(36.1575 288.177733)scale(0.1 -0.1)">
       <use xlink:href="#DejaVuSans-30"/>
      </g>
     </g>
    </g>
    <g id="ytick_9">
     <g id="line2d_39">
      <g>
       <use style="stroke:#000000;stroke-width:0.8;" x="49.52" xlink:href="#m64de7c95d9" y="251.294431"/>
      </g>
     </g>
     <g id="text_23">
      <!-- 1 -->
      <g transform="translate(36.1575 255.09365)scale(0.1 -0.1)">
       <use xlink:href="#DejaVuSans-31"/>
      </g>
     </g>
    </g>
    <g id="text_24">
     <!-- $x_3$ -->
     <g transform="translate(21.074219 291.227157)rotate(-90)scale(0.13 -0.13)">
      <use transform="translate(0 0.3125)" xlink:href="#DejaVuSans-Oblique-78"/>
      <use transform="translate(59.179688 -16.09375)scale(0.7)" xlink:href="#DejaVuSans-33"/>
     </g>
    </g>
   </g>
   <g id="line2d_40">
    <path clip-path="url(#p8c3e54c78a)" d="M 86.050909 285.713552 
L 87.270639 279.404041 
L 88.490369 276.786043 
L 89.710099 264.834579 
L 90.929829 269.882622 
L 92.149558 264.869124 
L 93.369288 258.588089 
L 94.589018 251.378377 
L 95.808748 256.871389 
L 97.028478 253.714661 
L 98.248208 253.805952 
L 99.467937 248.951465 
L 100.687667 250.546269 
L 101.907397 257.250624 
L 103.127127 258.323782 
L 104.346857 249.357653 
L 105.566587 255.047839 
L 106.786317 257.706915 
L 108.006046 263.670652 
L 109.225776 258.367948 
L 110.445506 266.448082 
L 111.665236 277.189159 
L 112.884966 270.39178 
L 115.324426 279.764853 
L 116.544155 288.705475 
L 117.763885 285.679439 
L 118.983615 291.747541 
L 120.203345 292.293339 
L 121.423075 306.660968 
L 122.642805 308.143055 
L 123.862535 305.864927 
L 125.082264 308.214034 
L 126.301994 311.247246 
L 127.521724 316.255496 
L 128.741454 317.608947 
L 129.961184 313.948033 
L 131.180914 322.926247 
L 132.400643 318.532772 
L 133.620373 315.002372 
L 134.840103 316.035202 
L 136.059833 312.016609 
L 137.279563 309.254983 
L 138.499293 305.987252 
L 139.719023 309.247536 
L 140.938752 301.086866 
L 142.158482 300.6173 
L 143.378212 296.758376 
L 144.597942 289.329827 
L 145.817672 285.476123 
L 147.037402 275.712761 
L 148.257132 279.560942 
L 151.916321 264.650689 
L 153.136051 262.05065 
L 154.355781 258.304948 
L 155.575511 263.497419 
L 156.795241 256.598679 
L 158.01497 256.089525 
L 159.2347 249.907815 
L 160.45443 257.734647 
L 161.67416 251.490123 
L 164.11362 248.166031 
L 165.33335 249.769272 
L 166.553079 256.125355 
L 167.772809 249.733941 
L 168.992539 260.899433 
L 170.212269 268.350322 
L 171.431999 267.637585 
L 172.651729 276.217373 
L 173.871458 273.17696 
L 175.091188 284.476037 
L 176.310918 286.850757 
L 177.530648 284.084091 
L 178.750378 289.056617 
L 179.970108 290.098117 
L 181.189838 293.691278 
L 182.409567 305.070351 
L 183.629297 302.75736 
L 184.849027 308.214102 
L 186.068757 310.889124 
L 187.288487 312.087119 
L 188.508217 311.978103 
L 189.727947 315.603412 
L 190.947676 324.049459 
L 192.167406 319.112053 
L 193.387136 318.311398 
L 194.606866 316.965922 
L 195.826596 317.08718 
L 197.046326 309.286245 
L 198.266056 304.7904 
L 199.485785 303.69705 
L 200.705515 299.919351 
L 201.925245 305.216485 
L 203.144975 294.200613 
L 204.364705 294.62112 
L 205.584435 288.36299 
L 206.804165 285.758469 
L 208.023894 281.931398 
L 209.243624 285.288785 
L 210.463354 278.295356 
L 211.683084 274.308683 
L 212.902814 276.727673 
L 214.122544 273.342085 
L 215.342273 265.610299 
L 216.562003 266.509215 
L 217.781733 271.234078 
L 219.001463 267.595146 
L 220.221193 259.343947 
L 221.440923 263.060109 
L 222.660653 257.314558 
L 223.880382 259.323302 
L 225.100112 262.109356 
L 226.319842 257.707096 
L 227.539572 255.819442 
L 228.759302 262.424668 
L 229.979032 255.828212 
L 231.198762 250.194315 
L 232.418491 256.061554 
L 233.638221 255.977229 
L 234.857951 250.178367 
L 236.077681 252.324259 
L 237.297411 245.451412 
L 238.517141 255.818838 
L 239.736871 248.668514 
L 240.9566 252.844233 
L 242.17633 248.212959 
L 243.39606 251.330569 
L 244.61579 252.915099 
L 245.83552 262.021676 
L 247.05525 256.118883 
L 248.27498 252.727496 
L 249.494709 256.822605 
L 250.714439 260.049984 
L 251.934169 260.557525 
L 253.153899 256.211229 
L 254.373629 265.352414 
L 255.593359 264.303899 
L 256.813088 261.584818 
L 258.032818 266.550603 
L 259.252548 268.757885 
L 260.472278 264.275506 
L 261.692008 264.712796 
L 262.911738 277.986125 
L 264.131468 273.447118 
L 265.351197 280.846615 
L 266.570927 276.985036 
L 267.790657 285.593209 
L 269.010387 287.4003 
L 270.230117 287.96069 
L 271.449847 286.671176 
L 272.669577 292.825723 
L 273.889306 292.300444 
L 275.109036 292.597662 
L 276.328766 300.664201 
L 277.548496 299.820954 
L 278.768226 296.984681 
L 279.987956 303.872371 
L 281.207686 308.612831 
L 282.427415 305.641522 
L 283.647145 305.801664 
L 284.866875 313.167965 
L 286.086605 307.903934 
L 287.306335 312.974721 
L 288.526065 316.085085 
L 289.745795 316.833627 
L 290.965524 314.087564 
L 292.185254 314.675486 
L 293.404984 318.770938 
L 294.624714 321.165036 
L 295.844444 316.895908 
L 297.064174 312.040889 
L 298.283903 323.439572 
L 299.503633 319.3792 
L 300.723363 311.577351 
L 301.943093 314.311447 
L 303.162823 319.491278 
L 304.382553 315.26666 
L 305.602283 320.434087 
L 306.822012 314.490083 
L 308.041742 310.489412 
L 309.261472 310.727546 
L 310.481202 308.691179 
L 311.700932 311.657802 
L 312.920662 313.4597 
L 314.140392 306.710229 
L 315.360121 300.700846 
L 316.579851 305.439207 
L 317.799581 302.728463 
L 319.019311 299.340373 
L 320.239041 299.519748 
L 321.458771 297.484501 
L 322.678501 290.93213 
L 323.89823 294.894778 
L 325.11796 294.66815 
L 326.33769 291.770837 
L 327.55742 287.842446 
L 328.77715 287.131481 
L 329.99688 284.56163 
L 331.21661 280.775469 
L 332.436339 282.332319 
L 333.656069 279.64445 
L 334.875799 272.819382 
L 336.095529 273.092895 
L 337.315259 274.80014 
L 339.754718 266.136306 
L 340.974448 271.858924 
L 342.194178 263.737719 
L 343.413908 267.319135 
L 344.633638 269.162218 
L 345.853368 263.100228 
L 347.073098 250.76238 
L 348.292827 257.640351 
L 349.512557 253.8717 
L 350.732287 256.343648 
L 351.952017 252.280663 
L 353.171747 252.915179 
L 354.391477 250.590249 
L 355.611207 253.54806 
L 356.830936 260.025295 
L 358.050666 253.342482 
L 359.270396 249.551748 
L 360.490126 248.191121 
L 361.709856 259.076534 
L 362.929586 249.324124 
L 364.149316 250.621675 
L 365.369045 254.123613 
L 366.588775 252.583389 
L 367.808505 252.326699 
L 369.028235 250.727967 
L 370.247965 257.266402 
L 371.467695 258.214905 
L 372.687424 258.009588 
L 373.907154 262.845441 
L 375.126884 260.909277 
L 376.346614 255.674386 
L 377.566344 266.143879 
L 380.005804 261.087521 
L 381.225533 275.096321 
L 382.445263 267.397073 
L 383.664993 271.189938 
L 384.884723 275.63195 
L 386.104453 279.094132 
L 387.324183 273.424197 
L 388.543913 275.705359 
L 389.763642 279.91628 
L 390.983372 291.299037 
L 392.203102 291.868774 
L 393.422832 285.509809 
L 394.642562 289.939498 
L 395.862292 298.43823 
L 397.082022 291.232094 
L 398.301751 289.127716 
L 399.521481 295.953709 
L 400.741211 298.278325 
L 401.960941 299.824413 
L 403.180671 301.749649 
L 404.400401 305.492581 
L 405.620131 304.762336 
L 406.83986 305.714829 
L 408.05959 307.079067 
L 409.27932 313.457933 
L 411.71878 316.665807 
L 412.93851 309.997455 
L 414.158239 313.444972 
L 415.377969 319.586125 
L 416.597699 314.299617 
L 417.817429 324.693832 
L 419.037159 312.078459 
L 420.256889 321.771943 
L 421.476619 314.646981 
L 422.696348 312.415305 
L 423.916078 314.691683 
L 425.135808 312.789876 
L 426.355538 313.141572 
L 427.575268 311.354707 
L 428.794998 309.865815 
L 430.014728 314.216422 
L 431.234457 313.303149 
L 432.454187 314.64536 
L 433.673917 305.532606 
L 434.893647 311.7496 
L 436.113377 306.273077 
L 437.333107 310.924197 
L 438.552837 308.485261 
L 439.772566 302.925934 
L 440.992296 306.044586 
L 442.212026 295.273654 
L 443.431756 304.52938 
L 444.651486 295.044613 
L 445.871216 289.271083 
L 447.090946 298.512899 
L 448.310675 294.261454 
L 449.530405 280.653633 
L 450.750135 280.19055 
L 451.969865 287.28759 
L 453.189595 281.050066 
L 454.409325 276.49439 
L 456.848784 268.712649 
L 458.068514 265.73334 
L 459.288244 259.324463 
L 460.507974 259.158331 
L 461.727704 254.184628 
L 462.947434 253.227689 
L 465.386893 254.861632 
L 466.606623 247.019326 
L 467.826353 251.673328 
L 469.046083 255.322627 
L 470.265813 249.195594 
L 471.485543 257.518787 
L 472.705272 251.089506 
L 473.925002 256.170794 
L 475.144732 263.419204 
L 476.364462 265.006137 
L 477.584192 267.247588 
L 478.803922 272.426136 
L 480.023652 272.302497 
L 481.243381 286.620779 
L 482.463111 288.808195 
L 483.682841 285.769268 
L 484.902571 292.012102 
L 486.122301 302.57427 
L 487.342031 301.855644 
L 489.78149 307.697472 
L 491.00122 308.248791 
L 492.22095 319.560422 
L 493.44068 319.129668 
L 494.66041 314.821832 
L 495.88014 317.578626 
L 497.099869 311.639216 
L 498.319599 313.241448 
L 499.539329 317.296374 
L 500.759059 320.128157 
L 501.978789 313.346815 
L 503.198519 311.731815 
L 504.418249 315.00142 
L 505.637978 305.685209 
L 506.857708 304.34626 
L 508.077438 296.064522 
L 509.297168 291.343091 
L 510.516898 289.88466 
L 511.736628 283.493811 
L 512.956358 280.315909 
L 514.176087 276.136591 
L 515.395817 273.769184 
L 516.615547 275.112787 
L 517.835277 265.301559 
L 520.274737 265.304477 
L 521.494467 253.065469 
L 522.714196 257.021897 
L 523.933926 248.539163 
L 525.153656 248.554308 
L 526.373386 254.322213 
L 527.593116 250.932104 
L 528.812846 250.716798 
L 530.032576 254.632335 
L 531.252305 258.123789 
L 532.472035 253.518173 
L 533.691765 260.941954 
L 534.911495 256.23537 
L 536.131225 263.118604 
L 537.350955 261.897892 
L 538.570684 270.058489 
L 539.790414 275.631562 
L 541.010144 275.108735 
L 542.229874 282.414717 
L 543.449604 291.179508 
L 544.669334 289.215564 
L 545.889064 293.177795 
L 547.108793 303.409086 
L 548.328523 306.942272 
L 549.548253 304.642104 
L 550.767983 314.585115 
L 551.987713 317.716602 
L 553.207443 319.226675 
L 554.427173 317.888537 
L 555.646902 317.10343 
L 556.866632 318.699123 
L 558.086362 321.414297 
L 559.306092 317.087968 
L 560.525822 311.719869 
L 561.745552 309.188165 
L 562.965282 309.16796 
L 564.185011 307.545425 
L 565.404741 297.018683 
L 566.624471 310.283977 
L 567.844201 302.474056 
L 569.063931 303.750439 
L 570.283661 290.935834 
L 571.50339 292.96046 
L 572.72312 289.192069 
L 573.94285 281.2979 
L 575.16258 281.137452 
L 576.38231 274.123598 
L 577.60204 269.704917 
L 578.82177 264.583927 
L 580.041499 265.140387 
L 581.261229 266.194031 
L 582.480959 259.377859 
L 583.700689 254.237028 
L 584.920419 258.615438 
L 586.140149 251.432056 
L 587.359879 251.268697 
L 588.579608 255.434197 
L 589.799338 246.251894 
L 591.019068 254.405185 
L 592.238798 259.184296 
L 594.678258 255.040945 
L 595.897988 254.798535 
L 597.117717 259.400124 
L 598.337447 265.898806 
L 599.557177 271.084072 
L 600.776907 274.760758 
L 601.996637 274.772232 
L 603.216367 276.339035 
L 604.436097 286.699155 
L 605.655826 287.818511 
L 606.875556 297.528681 
L 608.095286 300.343279 
L 609.315016 301.710812 
L 610.534746 304.061226 
L 611.754476 311.036662 
L 612.974205 314.452744 
L 614.193935 312.66783 
L 615.413665 311.753079 
L 616.633395 320.866929 
L 617.853125 317.842822 
L 619.072855 318.707155 
L 620.292585 315.14346 
L 621.512314 314.884025 
L 622.732044 311.272671 
L 623.951774 308.070669 
L 625.171504 307.852869 
L 626.391234 312.528261 
L 627.610964 306.201797 
L 628.830694 306.793077 
L 630.050423 296.323672 
L 631.270153 295.852577 
L 633.709613 283.457695 
L 634.929343 289.197377 
L 636.149073 274.983479 
L 637.368803 276.984511 
L 638.588532 275.145209 
L 639.808262 265.036702 
L 641.027992 263.175583 
L 642.247722 260.02438 
L 643.467452 256.438853 
L 644.687182 257.425087 
L 645.906912 255.65404 
L 647.126641 249.879502 
L 648.346371 249.311998 
L 649.566101 243.850481 
L 650.785831 253.269547 
L 652.005561 255.5629 
L 653.225291 261.429195 
L 654.44502 252.736615 
L 655.66475 261.52409 
L 656.88448 261.048608 
L 658.10421 255.922504 
L 659.32394 264.183745 
L 660.54367 275.025908 
L 661.7634 275.243277 
L 662.983129 276.203508 
L 664.202859 286.727985 
L 665.422589 280.719188 
L 666.642319 286.110369 
L 667.862049 300.321379 
L 669.081779 299.164217 
L 670.301509 302.188814 
L 671.521238 313.240162 
L 672.740968 308.320918 
L 673.960698 310.286191 
L 675.180428 315.286749 
L 676.400158 313.623141 
L 677.619888 316.732296 
L 678.839618 317.57342 
L 680.059347 319.812334 
L 681.279077 313.032693 
L 682.498807 313.170967 
L 684.938267 314.230059 
L 686.157997 312.803213 
L 687.377727 306.479321 
L 688.597456 301.558586 
L 689.817186 302.704837 
L 691.036916 299.956222 
L 692.256646 293.87642 
L 693.476376 284.549506 
L 694.696106 282.559035 
L 695.915835 289.603007 
L 697.135565 278.473178 
L 698.355295 274.047148 
L 699.575025 276.877509 
L 700.794755 271.334337 
L 702.014485 264.327809 
L 703.234215 259.603286 
L 704.453944 257.469497 
L 705.673674 257.002323 
L 706.893404 254.035128 
L 708.113134 254.788726 
L 709.332864 251.76098 
L 710.552594 251.781222 
L 711.772324 249.635317 
L 712.992053 253.17628 
L 714.211783 255.3672 
L 715.431513 258.978276 
L 716.651243 254.720778 
L 717.870973 265.441161 
L 719.090703 268.167183 
L 720.310433 262.807287 
L 721.530162 271.832866 
L 722.749892 272.039907 
L 723.969622 279.487254 
L 725.189352 281.6563 
L 726.409082 282.843661 
L 727.628812 289.144262 
L 728.848542 291.082393 
L 731.288001 306.030146 
L 732.507731 300.538389 
L 733.727461 310.566747 
L 734.947191 308.311556 
L 736.166921 318.551636 
L 737.38665 307.971547 
L 738.60638 318.899124 
L 739.82611 316.987082 
L 741.04584 312.342838 
L 742.26557 317.885873 
L 743.4853 319.860171 
L 744.70503 318.821565 
L 745.924759 311.46848 
L 747.144489 309.260503 
L 748.364219 313.892705 
L 749.583949 305.463546 
L 750.803679 301.62796 
L 752.023409 301.199352 
L 753.243139 297.559066 
L 754.462868 290.42552 
L 755.682598 284.129056 
L 756.902328 280.986655 
L 758.122058 280.000193 
L 759.341788 272.604237 
L 760.561518 266.162345 
L 761.781248 267.948493 
L 763.000977 269.4553 
L 764.220707 257.619213 
L 765.440437 257.808648 
L 766.660167 254.209994 
L 767.879897 253.726985 
L 769.099627 253.48966 
L 770.319357 251.451461 
L 771.539086 257.690082 
L 772.758816 252.631269 
L 773.978546 249.964801 
L 775.198276 251.057538 
L 776.418006 256.482718 
L 777.637736 261.248877 
L 778.857465 256.296167 
L 780.077195 263.778945 
L 781.296925 257.803599 
L 783.736385 274.576229 
L 784.956115 275.308805 
L 786.175845 283.33674 
L 787.395574 290.389683 
L 788.615304 294.648393 
L 789.835034 295.412797 
L 791.054764 297.746603 
L 792.274494 298.15044 
L 793.494224 309.381472 
L 794.713954 307.652188 
L 795.933683 307.306513 
L 797.153413 316.948624 
L 798.373143 316.243545 
L 799.592873 315.6944 
L 800.812603 320.996276 
L 802.032333 317.371356 
L 803.252063 318.577491 
L 804.471792 320.798595 
L 805.691522 309.888352 
L 806.911252 315.677945 
L 808.130982 312.283445 
L 809.350712 305.077049 
L 810.570442 301.540759 
L 811.790171 300.850465 
L 813.009901 298.774534 
L 815.449361 283.475178 
L 816.669091 289.427815 
L 816.669091 289.427815 
" style="fill:none;stroke:#0000ff;stroke-linecap:square;stroke-width:1.5;"/>
   </g>
   <g id="line2d_41">
    <path clip-path="url(#p8c3e54c78a)" d="M 208.023894 328.736 
L 208.023894 239.808314 
" style="fill:none;stroke:#000000;stroke-dasharray:3.7,1.6;stroke-dashoffset:0;"/>
   </g>
   <g id="line2d_42">
    <path clip-path="url(#p8c3e54c78a)" d="M 329.99688 328.736 
L 329.99688 239.808314 
" style="fill:none;stroke:#000000;stroke-dasharray:3.7,1.6;stroke-dashoffset:0;"/>
   </g>
   <g id="line2d_43">
    <path clip-path="url(#p8c3e54c78a)" d="M 451.969865 328.736 
L 451.969865 239.808314 
" style="fill:none;stroke:#000000;stroke-dasharray:3.7,1.6;stroke-dashoffset:0;"/>
   </g>
   <g id="line2d_44">
    <path clip-path="url(#p8c3e54c78a)" d="M 573.94285 328.736 
L 573.94285 239.808314 
" style="fill:none;stroke:#000000;stroke-dasharray:3.7,1.6;stroke-dashoffset:0;"/>
   </g>
   <g id="line2d_45">
    <path clip-path="url(#p8c3e54c78a)" d="M 695.915835 328.736 
L 695.915835 239.808314 
" style="fill:none;stroke:#000000;stroke-dasharray:3.7,1.6;stroke-dashoffset:0;"/>
   </g>
   <g id="patch_19">
    <path d="M 49.52 328.736 
L 49.52 239.808314 
" style="fill:none;stroke:#000000;stroke-linecap:square;stroke-linejoin:miter;stroke-width:0.8;"/>
   </g>
   <g id="patch_20">
    <path d="M 853.2 328.736 
L 853.2 239.808314 
" style="fill:none;stroke:#000000;stroke-linecap:square;stroke-linejoin:miter;stroke-width:0.8;"/>
   </g>
   <g id="patch_21">
    <path d="M 49.52 328.736 
L 853.2 328.736 
" style="fill:none;stroke:#000000;stroke-linecap:square;stroke-linejoin:miter;stroke-width:0.8;"/>
   </g>
   <g id="patch_22">
    <path d="M 49.52 239.808314 
L 853.2 239.808314 
" style="fill:none;stroke:#000000;stroke-linecap:square;stroke-linejoin:miter;stroke-width:0.8;"/>
   </g>
  </g>
 </g>
 <defs>
  <clipPath id="p7421250e27">
   <rect height="88.927686" width="803.68" x="49.52" y="33.352941"/>
  </clipPath>
  <clipPath id="p31317dcd30">
   <rect height="88.927686" width="803.68" x="49.52" y="136.580627"/>
  </clipPath>
  <clipPath id="p8c3e54c78a">
   <rect height="88.927686" width="803.68" x="49.52" y="239.808314"/>
  </clipPath>
 </defs>
</svg>
