<?xml version="1.0" encoding="utf-8" standalone="no"?>
<!DOCTYPE svg PUBLIC "-//W3C//DTD SVG 1.1//EN"
  "http://www.w3.org/Graphics/SVG/1.1/DTD/svg11.dtd">
<svg height="276.631016pt" version="1.1" viewBox="0 0 513.160469 276.631016" width="513.160469pt" xmlns="http://www.w3.org/2000/svg" xmlns:xlink="http://www.w3.org/1999/xlink">
 <metadata>
  <rdf:RDF xmlns:cc="http://creativecommons.org/ns#" xmlns:dc="http://purl.org/dc/elements/1.1/" xmlns:rdf="http://www.w3.org/1999/02/22-rdf-syntax-ns#">
   <cc:Work>
    <dc:type rdf:resource="http://purl.org/dc/dcmitype/StillImage"/>
    <dc:date>2025-04-26T17:14:40.723876</dc:date>
    <dc:format>image/svg+xml</dc:format>
    <dc:creator>
     <cc:Agent>
      <dc:title>Matplotlib v3.4.3, https://matplotlib.org/</dc:title>
     </cc:Agent>
    </dc:creator>
   </cc:Work>
  </rdf:RDF>
 </metadata>
 <defs>
  <style type="text/css">*{stroke-linecap:butt;stroke-linejoin:round;}</style>
 </defs>
 <g id="figure_1">
  <g id="patch_1">
   <path d="M 0 276.631016 
L 513.160469 276.631016 
L 513.160469 0 
L 0 0 
z
" style="fill:#ffffff;"/>
  </g>
  <g id="axes_1">
   <g id="patch_2">
    <path d="M 49.062344 233.139141 
L 495.462344 233.139141 
L 495.462344 11.379141 
L 49.062344 11.379141 
z
" style="fill:#ffffff;"/>
   </g>
   <g id="matplotlib.axis_1">
    <g id="xtick_1">
     <g id="line2d_1">
      <path clip-path="url(#p8910484d77)" d="M 49.062344 233.139141 
L 49.062344 11.379141 
" style="fill:none;stroke:#b0b0b0;stroke-dasharray:2.96,1.28;stroke-dashoffset:0;stroke-opacity:0.6;stroke-width:0.8;"/>
     </g>
     <g id="line2d_2">
      <defs>
       <path d="M 0 0 
L 0 3.5 
" id="mc9a94e49cc" style="stroke:#000000;stroke-width:0.8;"/>
      </defs>
      <g>
       <use style="stroke:#000000;stroke-width:0.8;" x="49.062344" xlink:href="#mc9a94e49cc" y="233.139141"/>
      </g>
     </g>
     <g id="text_1">
      <!-- 0 -->
      <g transform="translate(45.562969 248.497422)scale(0.11 -0.11)">
       <defs>
        <path d="M 2034 4250 
Q 1547 4250 1301 3770 
Q 1056 3291 1056 2328 
Q 1056 1369 1301 889 
Q 1547 409 2034 409 
Q 2525 409 2770 889 
Q 3016 1369 3016 2328 
Q 3016 3291 2770 3770 
Q 2525 4250 2034 4250 
z
M 2034 4750 
Q 2819 4750 3233 4129 
Q 3647 3509 3647 2328 
Q 3647 1150 3233 529 
Q 2819 -91 2034 -91 
Q 1250 -91 836 529 
Q 422 1150 422 2328 
Q 422 3509 836 4129 
Q 1250 4750 2034 4750 
z
" id="DejaVuSans-30" transform="scale(0.015625)"/>
       </defs>
       <use xlink:href="#DejaVuSans-30"/>
      </g>
     </g>
    </g>
    <g id="xtick_2">
     <g id="line2d_3">
      <path clip-path="url(#p8910484d77)" d="M 138.342344 233.139141 
L 138.342344 11.379141 
" style="fill:none;stroke:#b0b0b0;stroke-dasharray:2.96,1.28;stroke-dashoffset:0;stroke-opacity:0.6;stroke-width:0.8;"/>
     </g>
     <g id="line2d_4">
      <g>
       <use style="stroke:#000000;stroke-width:0.8;" x="138.342344" xlink:href="#mc9a94e49cc" y="233.139141"/>
      </g>
     </g>
     <g id="text_2">
      <!-- 40 -->
      <g transform="translate(131.343594 248.497422)scale(0.11 -0.11)">
       <defs>
        <path d="M 2419 4116 
L 825 1625 
L 2419 1625 
L 2419 4116 
z
M 2253 4666 
L 3047 4666 
L 3047 1625 
L 3713 1625 
L 3713 1100 
L 3047 1100 
L 3047 0 
L 2419 0 
L 2419 1100 
L 313 1100 
L 313 1709 
L 2253 4666 
z
" id="DejaVuSans-34" transform="scale(0.015625)"/>
       </defs>
       <use xlink:href="#DejaVuSans-34"/>
       <use x="63.623047" xlink:href="#DejaVuSans-30"/>
      </g>
     </g>
    </g>
    <g id="xtick_3">
     <g id="line2d_5">
      <path clip-path="url(#p8910484d77)" d="M 227.622344 233.139141 
L 227.622344 11.379141 
" style="fill:none;stroke:#b0b0b0;stroke-dasharray:2.96,1.28;stroke-dashoffset:0;stroke-opacity:0.6;stroke-width:0.8;"/>
     </g>
     <g id="line2d_6">
      <g>
       <use style="stroke:#000000;stroke-width:0.8;" x="227.622344" xlink:href="#mc9a94e49cc" y="233.139141"/>
      </g>
     </g>
     <g id="text_3">
      <!-- 80 -->
      <g transform="translate(220.623594 248.497422)scale(0.11 -0.11)">
       <defs>
        <path d="M 2034 2216 
Q 1584 2216 1326 1975 
Q 1069 1734 1069 1313 
Q 1069 891 1326 650 
Q 1584 409 2034 409 
Q 2484 409 2743 651 
Q 3003 894 3003 1313 
Q 3003 1734 2745 1975 
Q 2488 2216 2034 2216 
z
M 1403 2484 
Q 997 2584 770 2862 
Q 544 3141 544 3541 
Q 544 4100 942 4425 
Q 1341 4750 2034 4750 
Q 2731 4750 3128 4425 
Q 3525 4100 3525 3541 
Q 3525 3141 3298 2862 
Q 3072 2584 2669 2484 
Q 3125 2378 3379 2068 
Q 3634 1759 3634 1313 
Q 3634 634 3220 271 
Q 2806 -91 2034 -91 
Q 1263 -91 848 271 
Q 434 634 434 1313 
Q 434 1759 690 2068 
Q 947 2378 1403 2484 
z
M 1172 3481 
Q 1172 3119 1398 2916 
Q 1625 2713 2034 2713 
Q 2441 2713 2670 2916 
Q 2900 3119 2900 3481 
Q 2900 3844 2670 4047 
Q 2441 4250 2034 4250 
Q 1625 4250 1398 4047 
Q 1172 3844 1172 3481 
z
" id="DejaVuSans-38" transform="scale(0.015625)"/>
       </defs>
       <use xlink:href="#DejaVuSans-38"/>
       <use x="63.623047" xlink:href="#DejaVuSans-30"/>
      </g>
     </g>
    </g>
    <g id="xtick_4">
     <g id="line2d_7">
      <path clip-path="url(#p8910484d77)" d="M 316.902344 233.139141 
L 316.902344 11.379141 
" style="fill:none;stroke:#b0b0b0;stroke-dasharray:2.96,1.28;stroke-dashoffset:0;stroke-opacity:0.6;stroke-width:0.8;"/>
     </g>
     <g id="line2d_8">
      <g>
       <use style="stroke:#000000;stroke-width:0.8;" x="316.902344" xlink:href="#mc9a94e49cc" y="233.139141"/>
      </g>
     </g>
     <g id="text_4">
      <!-- 120 -->
      <g transform="translate(306.404219 248.497422)scale(0.11 -0.11)">
       <defs>
        <path d="M 794 531 
L 1825 531 
L 1825 4091 
L 703 3866 
L 703 4441 
L 1819 4666 
L 2450 4666 
L 2450 531 
L 3481 531 
L 3481 0 
L 794 0 
L 794 531 
z
" id="DejaVuSans-31" transform="scale(0.015625)"/>
        <path d="M 1228 531 
L 3431 531 
L 3431 0 
L 469 0 
L 469 531 
Q 828 903 1448 1529 
Q 2069 2156 2228 2338 
Q 2531 2678 2651 2914 
Q 2772 3150 2772 3378 
Q 2772 3750 2511 3984 
Q 2250 4219 1831 4219 
Q 1534 4219 1204 4116 
Q 875 4013 500 3803 
L 500 4441 
Q 881 4594 1212 4672 
Q 1544 4750 1819 4750 
Q 2544 4750 2975 4387 
Q 3406 4025 3406 3419 
Q 3406 3131 3298 2873 
Q 3191 2616 2906 2266 
Q 2828 2175 2409 1742 
Q 1991 1309 1228 531 
z
" id="DejaVuSans-32" transform="scale(0.015625)"/>
       </defs>
       <use xlink:href="#DejaVuSans-31"/>
       <use x="63.623047" xlink:href="#DejaVuSans-32"/>
       <use x="127.246094" xlink:href="#DejaVuSans-30"/>
      </g>
     </g>
    </g>
    <g id="xtick_5">
     <g id="line2d_9">
      <path clip-path="url(#p8910484d77)" d="M 406.182344 233.139141 
L 406.182344 11.379141 
" style="fill:none;stroke:#b0b0b0;stroke-dasharray:2.96,1.28;stroke-dashoffset:0;stroke-opacity:0.6;stroke-width:0.8;"/>
     </g>
     <g id="line2d_10">
      <g>
       <use style="stroke:#000000;stroke-width:0.8;" x="406.182344" xlink:href="#mc9a94e49cc" y="233.139141"/>
      </g>
     </g>
     <g id="text_5">
      <!-- 160 -->
      <g transform="translate(395.684219 248.497422)scale(0.11 -0.11)">
       <defs>
        <path d="M 2113 2584 
Q 1688 2584 1439 2293 
Q 1191 2003 1191 1497 
Q 1191 994 1439 701 
Q 1688 409 2113 409 
Q 2538 409 2786 701 
Q 3034 994 3034 1497 
Q 3034 2003 2786 2293 
Q 2538 2584 2113 2584 
z
M 3366 4563 
L 3366 3988 
Q 3128 4100 2886 4159 
Q 2644 4219 2406 4219 
Q 1781 4219 1451 3797 
Q 1122 3375 1075 2522 
Q 1259 2794 1537 2939 
Q 1816 3084 2150 3084 
Q 2853 3084 3261 2657 
Q 3669 2231 3669 1497 
Q 3669 778 3244 343 
Q 2819 -91 2113 -91 
Q 1303 -91 875 529 
Q 447 1150 447 2328 
Q 447 3434 972 4092 
Q 1497 4750 2381 4750 
Q 2619 4750 2861 4703 
Q 3103 4656 3366 4563 
z
" id="DejaVuSans-36" transform="scale(0.015625)"/>
       </defs>
       <use xlink:href="#DejaVuSans-31"/>
       <use x="63.623047" xlink:href="#DejaVuSans-36"/>
       <use x="127.246094" xlink:href="#DejaVuSans-30"/>
      </g>
     </g>
    </g>
    <g id="xtick_6">
     <g id="line2d_11">
      <path clip-path="url(#p8910484d77)" d="M 495.462344 233.139141 
L 495.462344 11.379141 
" style="fill:none;stroke:#b0b0b0;stroke-dasharray:2.96,1.28;stroke-dashoffset:0;stroke-opacity:0.6;stroke-width:0.8;"/>
     </g>
     <g id="line2d_12">
      <g>
       <use style="stroke:#000000;stroke-width:0.8;" x="495.462344" xlink:href="#mc9a94e49cc" y="233.139141"/>
      </g>
     </g>
     <g id="text_6">
      <!-- 200 -->
      <g transform="translate(484.964219 248.497422)scale(0.11 -0.11)">
       <use xlink:href="#DejaVuSans-32"/>
       <use x="63.623047" xlink:href="#DejaVuSans-30"/>
       <use x="127.246094" xlink:href="#DejaVuSans-30"/>
      </g>
     </g>
    </g>
    <g id="text_7">
     <!-- Time -->
     <g transform="translate(258.805391 267.143359)scale(0.11 -0.11)">
      <defs>
       <path d="M -19 4666 
L 3928 4666 
L 3928 4134 
L 2272 4134 
L 2272 0 
L 1638 0 
L 1638 4134 
L -19 4134 
L -19 4666 
z
" id="DejaVuSans-54" transform="scale(0.015625)"/>
       <path d="M 603 3500 
L 1178 3500 
L 1178 0 
L 603 0 
L 603 3500 
z
M 603 4863 
L 1178 4863 
L 1178 4134 
L 603 4134 
L 603 4863 
z
" id="DejaVuSans-69" transform="scale(0.015625)"/>
       <path d="M 3328 2828 
Q 3544 3216 3844 3400 
Q 4144 3584 4550 3584 
Q 5097 3584 5394 3201 
Q 5691 2819 5691 2113 
L 5691 0 
L 5113 0 
L 5113 2094 
Q 5113 2597 4934 2840 
Q 4756 3084 4391 3084 
Q 3944 3084 3684 2787 
Q 3425 2491 3425 1978 
L 3425 0 
L 2847 0 
L 2847 2094 
Q 2847 2600 2669 2842 
Q 2491 3084 2119 3084 
Q 1678 3084 1418 2786 
Q 1159 2488 1159 1978 
L 1159 0 
L 581 0 
L 581 3500 
L 1159 3500 
L 1159 2956 
Q 1356 3278 1631 3431 
Q 1906 3584 2284 3584 
Q 2666 3584 2933 3390 
Q 3200 3197 3328 2828 
z
" id="DejaVuSans-6d" transform="scale(0.015625)"/>
       <path d="M 3597 1894 
L 3597 1613 
L 953 1613 
Q 991 1019 1311 708 
Q 1631 397 2203 397 
Q 2534 397 2845 478 
Q 3156 559 3463 722 
L 3463 178 
Q 3153 47 2828 -22 
Q 2503 -91 2169 -91 
Q 1331 -91 842 396 
Q 353 884 353 1716 
Q 353 2575 817 3079 
Q 1281 3584 2069 3584 
Q 2775 3584 3186 3129 
Q 3597 2675 3597 1894 
z
M 3022 2063 
Q 3016 2534 2758 2815 
Q 2500 3097 2075 3097 
Q 1594 3097 1305 2825 
Q 1016 2553 972 2059 
L 3022 2063 
z
" id="DejaVuSans-65" transform="scale(0.015625)"/>
      </defs>
      <use xlink:href="#DejaVuSans-54"/>
      <use x="57.958984" xlink:href="#DejaVuSans-69"/>
      <use x="85.742188" xlink:href="#DejaVuSans-6d"/>
      <use x="183.154297" xlink:href="#DejaVuSans-65"/>
     </g>
    </g>
   </g>
   <g id="matplotlib.axis_2">
    <g id="ytick_1">
     <g id="line2d_13">
      <path clip-path="url(#p8910484d77)" d="M 49.062344 233.139141 
L 495.462344 233.139141 
" style="fill:none;stroke:#b0b0b0;stroke-dasharray:2.96,1.28;stroke-dashoffset:0;stroke-opacity:0.6;stroke-width:0.8;"/>
     </g>
     <g id="line2d_14">
      <defs>
       <path d="M 0 0 
L -3.5 0 
" id="m7560ad51ac" style="stroke:#000000;stroke-width:0.8;"/>
      </defs>
      <g>
       <use style="stroke:#000000;stroke-width:0.8;" x="49.062344" xlink:href="#m7560ad51ac" y="233.139141"/>
      </g>
     </g>
     <g id="text_8">
      <!-- −5 -->
      <g transform="translate(25.845937 237.318281)scale(0.11 -0.11)">
       <defs>
        <path d="M 678 2272 
L 4684 2272 
L 4684 1741 
L 678 1741 
L 678 2272 
z
" id="DejaVuSans-2212" transform="scale(0.015625)"/>
        <path d="M 691 4666 
L 3169 4666 
L 3169 4134 
L 1269 4134 
L 1269 2991 
Q 1406 3038 1543 3061 
Q 1681 3084 1819 3084 
Q 2600 3084 3056 2656 
Q 3513 2228 3513 1497 
Q 3513 744 3044 326 
Q 2575 -91 1722 -91 
Q 1428 -91 1123 -41 
Q 819 9 494 109 
L 494 744 
Q 775 591 1075 516 
Q 1375 441 1709 441 
Q 2250 441 2565 725 
Q 2881 1009 2881 1497 
Q 2881 1984 2565 2268 
Q 2250 2553 1709 2553 
Q 1456 2553 1204 2497 
Q 953 2441 691 2322 
L 691 4666 
z
" id="DejaVuSans-35" transform="scale(0.015625)"/>
       </defs>
       <use xlink:href="#DejaVuSans-2212"/>
       <use x="83.789062" xlink:href="#DejaVuSans-35"/>
      </g>
     </g>
    </g>
    <g id="ytick_2">
     <g id="line2d_15">
      <path clip-path="url(#p8910484d77)" d="M 49.062344 177.699141 
L 495.462344 177.699141 
" style="fill:none;stroke:#b0b0b0;stroke-dasharray:2.96,1.28;stroke-dashoffset:0;stroke-opacity:0.6;stroke-width:0.8;"/>
     </g>
     <g id="line2d_16">
      <g>
       <use style="stroke:#000000;stroke-width:0.8;" x="49.062344" xlink:href="#m7560ad51ac" y="177.699141"/>
      </g>
     </g>
     <g id="text_9">
      <!-- 0 -->
      <g transform="translate(35.063594 181.878281)scale(0.11 -0.11)">
       <use xlink:href="#DejaVuSans-30"/>
      </g>
     </g>
    </g>
    <g id="ytick_3">
     <g id="line2d_17">
      <path clip-path="url(#p8910484d77)" d="M 49.062344 122.259141 
L 495.462344 122.259141 
" style="fill:none;stroke:#b0b0b0;stroke-dasharray:2.96,1.28;stroke-dashoffset:0;stroke-opacity:0.6;stroke-width:0.8;"/>
     </g>
     <g id="line2d_18">
      <g>
       <use style="stroke:#000000;stroke-width:0.8;" x="49.062344" xlink:href="#m7560ad51ac" y="122.259141"/>
      </g>
     </g>
     <g id="text_10">
      <!-- 5 -->
      <g transform="translate(35.063594 126.438281)scale(0.11 -0.11)">
       <use xlink:href="#DejaVuSans-35"/>
      </g>
     </g>
    </g>
    <g id="ytick_4">
     <g id="line2d_19">
      <path clip-path="url(#p8910484d77)" d="M 49.062344 66.819141 
L 495.462344 66.819141 
" style="fill:none;stroke:#b0b0b0;stroke-dasharray:2.96,1.28;stroke-dashoffset:0;stroke-opacity:0.6;stroke-width:0.8;"/>
     </g>
     <g id="line2d_20">
      <g>
       <use style="stroke:#000000;stroke-width:0.8;" x="49.062344" xlink:href="#m7560ad51ac" y="66.819141"/>
      </g>
     </g>
     <g id="text_11">
      <!-- 10 -->
      <g transform="translate(28.064844 70.998281)scale(0.11 -0.11)">
       <use xlink:href="#DejaVuSans-31"/>
       <use x="63.623047" xlink:href="#DejaVuSans-30"/>
      </g>
     </g>
    </g>
    <g id="ytick_5">
     <g id="line2d_21">
      <path clip-path="url(#p8910484d77)" d="M 49.062344 11.379141 
L 495.462344 11.379141 
" style="fill:none;stroke:#b0b0b0;stroke-dasharray:2.96,1.28;stroke-dashoffset:0;stroke-opacity:0.6;stroke-width:0.8;"/>
     </g>
     <g id="line2d_22">
      <g>
       <use style="stroke:#000000;stroke-width:0.8;" x="49.062344" xlink:href="#m7560ad51ac" y="11.379141"/>
      </g>
     </g>
     <g id="text_12">
      <!-- 15 -->
      <g transform="translate(28.064844 15.558281)scale(0.11 -0.11)">
       <use xlink:href="#DejaVuSans-31"/>
       <use x="63.623047" xlink:href="#DejaVuSans-35"/>
      </g>
     </g>
    </g>
    <g id="text_13">
     <!-- Value -->
     <g transform="translate(15.558281 137.363516)rotate(-90)scale(0.11 -0.11)">
      <defs>
       <path d="M 1831 0 
L 50 4666 
L 709 4666 
L 2188 738 
L 3669 4666 
L 4325 4666 
L 2547 0 
L 1831 0 
z
" id="DejaVuSans-56" transform="scale(0.015625)"/>
       <path d="M 2194 1759 
Q 1497 1759 1228 1600 
Q 959 1441 959 1056 
Q 959 750 1161 570 
Q 1363 391 1709 391 
Q 2188 391 2477 730 
Q 2766 1069 2766 1631 
L 2766 1759 
L 2194 1759 
z
M 3341 1997 
L 3341 0 
L 2766 0 
L 2766 531 
Q 2569 213 2275 61 
Q 1981 -91 1556 -91 
Q 1019 -91 701 211 
Q 384 513 384 1019 
Q 384 1609 779 1909 
Q 1175 2209 1959 2209 
L 2766 2209 
L 2766 2266 
Q 2766 2663 2505 2880 
Q 2244 3097 1772 3097 
Q 1472 3097 1187 3025 
Q 903 2953 641 2809 
L 641 3341 
Q 956 3463 1253 3523 
Q 1550 3584 1831 3584 
Q 2591 3584 2966 3190 
Q 3341 2797 3341 1997 
z
" id="DejaVuSans-61" transform="scale(0.015625)"/>
       <path d="M 603 4863 
L 1178 4863 
L 1178 0 
L 603 0 
L 603 4863 
z
" id="DejaVuSans-6c" transform="scale(0.015625)"/>
       <path d="M 544 1381 
L 544 3500 
L 1119 3500 
L 1119 1403 
Q 1119 906 1312 657 
Q 1506 409 1894 409 
Q 2359 409 2629 706 
Q 2900 1003 2900 1516 
L 2900 3500 
L 3475 3500 
L 3475 0 
L 2900 0 
L 2900 538 
Q 2691 219 2414 64 
Q 2138 -91 1772 -91 
Q 1169 -91 856 284 
Q 544 659 544 1381 
z
M 1991 3584 
L 1991 3584 
z
" id="DejaVuSans-75" transform="scale(0.015625)"/>
      </defs>
      <use xlink:href="#DejaVuSans-56"/>
      <use x="60.658203" xlink:href="#DejaVuSans-61"/>
      <use x="121.9375" xlink:href="#DejaVuSans-6c"/>
      <use x="149.720703" xlink:href="#DejaVuSans-75"/>
      <use x="213.099609" xlink:href="#DejaVuSans-65"/>
     </g>
    </g>
   </g>
   <g id="line2d_23">
    <path clip-path="url(#p8910484d77)" d="M 49.062344 117.524519 
L 51.30556 122.74702 
L 53.548776 125.586895 
L 55.791992 115.691711 
L 58.035208 116.297492 
L 60.278424 121.581804 
L 62.52164 94.72182 
L 64.764856 101.21399 
L 67.008072 108.585994 
L 69.251288 128.489682 
L 71.494505 113.400117 
L 73.737721 106.960859 
L 75.980937 110.283143 
L 78.224153 104.878056 
L 80.467369 107.588658 
L 82.710585 102.9648 
L 84.953801 101.116555 
L 87.197017 97.835257 
L 89.440233 105.291886 
L 91.683449 93.101127 
L 93.926665 101.054818 
L 96.169881 103.311933 
L 98.413098 101.709228 
L 100.656314 93.179142 
L 102.89953 86.911744 
L 105.142746 91.832179 
L 107.385962 85.015604 
L 109.629178 84.820798 
L 111.872394 80.626795 
L 114.11561 86.286719 
L 116.358826 92.773095 
L 118.602042 82.83028 
L 120.845258 93.014722 
L 123.088474 99.232966 
L 125.33169 75.357107 
L 127.574907 83.643202 
L 129.818123 79.313645 
L 132.061339 94.619442 
L 134.304555 98.42346 
L 136.547771 87.11216 
L 138.790987 88.189269 
L 141.034203 98.297694 
L 143.277419 95.723551 
L 145.520635 87.910247 
L 147.763851 102.820038 
L 150.007067 108.504302 
L 152.250283 95.44574 
L 154.4935 107.209666 
L 156.736716 97.621205 
L 158.979932 98.332857 
L 161.223148 28.011141 
L 163.466364 104.069139 
L 165.70958 89.526122 
L 167.952796 124.134285 
L 170.196012 99.730219 
L 172.439228 120.497598 
L 174.682444 117.151071 
L 176.92566 114.254822 
L 179.168876 128.532974 
L 181.412092 113.397706 
L 183.655309 117.72172 
L 185.898525 121.308457 
L 188.141741 122.777725 
L 190.384957 120.395468 
L 192.628173 123.516023 
L 194.871389 118.175975 
L 197.114605 129.991642 
L 199.357821 129.488848 
L 201.601037 137.084971 
L 203.844253 128.883484 
L 206.087469 129.626703 
L 208.330685 126.932473 
L 210.573902 128.583663 
L 212.817118 148.672999 
L 215.060334 133.956123 
L 217.30355 141.539433 
L 219.546766 126.932234 
L 221.789982 141.574701 
L 224.033198 133.338569 
L 226.276414 148.240522 
L 228.51963 145.622572 
L 230.762846 152.606339 
L 233.006062 149.512917 
L 235.249278 143.752937 
L 237.492495 155.969915 
L 239.735711 140.069411 
L 241.978927 153.517812 
L 244.222143 151.854964 
L 246.465359 163.414562 
L 248.708575 149.856564 
L 250.951791 149.851474 
L 253.195007 152.756342 
L 255.438223 159.228198 
L 257.681439 158.265416 
L 259.924655 156.436081 
L 262.167871 146.845002 
L 264.411087 151.852349 
L 266.654304 156.380158 
L 268.89752 157.342059 
L 271.140736 174.779833 
L 273.383952 158.354947 
L 275.627168 152.976685 
L 277.870384 158.77298 
L 280.1136 161.912476 
L 282.356816 143.447963 
L 284.600032 147.7524 
L 286.843248 145.913018 
L 289.086464 152.346891 
L 291.32968 140.353402 
L 293.572897 151.137862 
L 295.816113 145.626454 
L 300.302545 140.232016 
L 302.545761 136.609167 
L 304.788977 137.113925 
L 307.032193 132.387865 
L 309.275409 134.28876 
L 311.518625 131.063529 
L 313.761841 137.616497 
L 316.005057 137.648636 
L 318.248273 125.618115 
L 320.491489 116.738496 
L 322.734706 136.9964 
L 324.977922 131.168793 
L 327.221138 128.041583 
L 329.464354 129.445415 
L 331.70757 128.543864 
L 333.950786 122.577268 
L 336.194002 121.569707 
L 340.680434 107.929401 
L 342.92365 106.382538 
L 345.166866 100.174293 
L 347.410082 104.859914 
L 349.653299 101.453573 
L 351.896515 101.404752 
L 354.139731 98.088848 
L 356.382947 99.26906 
L 358.626163 95.019209 
L 360.869379 99.036746 
L 363.112595 113.417678 
L 365.355811 105.50598 
L 367.599027 100.590317 
L 369.842243 97.97211 
L 372.085459 82.844078 
L 374.328675 98.857026 
L 376.571891 98.552328 
L 378.815108 100.649228 
L 381.058324 82.351644 
L 383.30154 84.101644 
L 385.544756 213.180741 
L 387.787972 104.757867 
L 390.031188 79.588936 
L 392.274404 93.151239 
L 394.51762 86.26099 
L 396.760836 93.602833 
L 399.004052 102.832762 
L 401.247268 87.743445 
L 403.490484 95.244681 
L 405.733701 88.385765 
L 407.976917 86.183681 
L 410.220133 88.567849 
L 412.463349 94.5604 
L 414.706565 93.230796 
L 416.949781 88.416481 
L 419.192997 86.678625 
L 421.436213 80.026852 
L 423.679429 92.616831 
L 425.922645 87.735242 
L 428.165861 96.803463 
L 430.409077 101.154173 
L 432.652293 95.933215 
L 434.89551 105.720175 
L 437.138726 107.051265 
L 439.381942 106.519497 
L 441.625158 104.907971 
L 443.868374 106.455447 
L 446.11159 88.208567 
L 448.354806 108.958194 
L 450.598022 112.368358 
L 452.841238 114.285003 
L 455.084454 110.206095 
L 457.32767 109.597906 
L 459.570886 120.298469 
L 461.814103 113.791058 
L 464.057319 101.084006 
L 466.300535 130.834649 
L 468.543751 119.693177 
L 470.786967 117.751377 
L 473.030183 113.171076 
L 475.273399 133.706774 
L 477.516615 126.78657 
L 479.759831 128.780416 
L 482.003047 138.343548 
L 484.246263 124.221516 
L 486.489479 132.612274 
L 488.732696 128.551283 
L 490.975912 149.056781 
L 493.219128 143.093216 
L 495.462344 138.573278 
L 495.462344 138.573278 
" style="fill:none;stroke:#2c7bb6;stroke-linecap:square;stroke-opacity:0.9;stroke-width:1.5;"/>
   </g>
   <g id="patch_3">
    <path d="M 49.062344 233.139141 
L 49.062344 11.379141 
" style="fill:none;stroke:#4c4c4c;stroke-linecap:square;stroke-linejoin:miter;stroke-width:1.2;"/>
   </g>
   <g id="patch_4">
    <path d="M 495.462344 233.139141 
L 495.462344 11.379141 
" style="fill:none;stroke:#4c4c4c;stroke-linecap:square;stroke-linejoin:miter;stroke-width:1.2;"/>
   </g>
   <g id="patch_5">
    <path d="M 49.062344 233.139141 
L 495.462344 233.139141 
" style="fill:none;stroke:#4c4c4c;stroke-linecap:square;stroke-linejoin:miter;stroke-width:1.2;"/>
   </g>
   <g id="patch_6">
    <path d="M 49.062344 11.379141 
L 495.462344 11.379141 
" style="fill:none;stroke:#4c4c4c;stroke-linecap:square;stroke-linejoin:miter;stroke-width:1.2;"/>
   </g>
   <g id="PathCollection_1">
    <defs>
     <path d="M 0 4.472136 
C 1.186024 4.472136 2.323632 4.000923 3.162278 3.162278 
C 4.000923 2.323632 4.472136 1.186024 4.472136 -0 
C 4.472136 -1.186024 4.000923 -2.323632 3.162278 -3.162278 
C 2.323632 -4.000923 1.186024 -4.472136 0 -4.472136 
C -1.186024 -4.472136 -2.323632 -4.000923 -3.162278 -3.162278 
C -4.000923 -2.323632 -4.472136 -1.186024 -4.472136 0 
C -4.472136 1.186024 -4.000923 2.323632 -3.162278 3.162278 
C -2.323632 4.000923 -1.186024 4.472136 0 4.472136 
z
" id="C0_0_ffe8779566"/>
    </defs>
    <g clip-path="url(#p8910484d77)">
     <use style="fill:none;stroke:#d7191c;stroke-width:1.8;" x="160.662344" xlink:href="#C0_0_ffe8779566" y="28.011141"/>
    </g>
    <g clip-path="url(#p8910484d77)">
     <use style="fill:none;stroke:#d7191c;stroke-width:1.8;" x="383.862344" xlink:href="#C0_0_ffe8779566" y="213.180741"/>
    </g>
   </g>
   <g id="patch_7">
    <path d="M 237.765397 87.275109 
Q 211.470103 43.454928 164.18292 29.068586 
" style="fill:none;stroke:#d7191c;stroke-linecap:round;stroke-width:1.5;"/>
    <path d="M 167.752084 32.454006 
L 164.18292 29.068586 
L 169.032755 28.244507 
" style="fill:none;stroke:#d7191c;stroke-linecap:round;stroke-width:1.5;"/>
   </g>
   <g id="patch_8">
    <path d="M 460.048577 156.041602 
Q 411.824568 169.316378 385.829015 210.072554 
" style="fill:none;stroke:#d7191c;stroke-linecap:round;stroke-width:1.5;"/>
    <path d="M 390.049962 207.545974 
L 385.829015 210.072554 
L 386.340319 205.179848 
" style="fill:none;stroke:#d7191c;stroke-linecap:round;stroke-width:1.5;"/>
   </g>
  </g>
 </g>
 <defs>
  <clipPath id="p8910484d77">
   <rect height="221.76" width="446.4" x="49.062344" y="11.379141"/>
  </clipPath>
 </defs>
</svg>
