<svg width="2642" height="2495" xmlns="http://www.w3.org/2000/svg" xmlns:xlink="http://www.w3.org/1999/xlink" overflow="hidden"><defs><clipPath id="clip0"><rect x="604" y="25" width="2642" height="2495"/></clipPath></defs><g clip-path="url(#clip0)" transform="translate(-604 -25)"><path d="M875.5 976.337C875.5 889.166 946.166 818.5 1033.34 818.5L1664.66 818.5C1751.83 818.5 1822.5 889.166 1822.5 976.337L1822.5 1754.66C1822.5 1841.83 1751.83 1912.5 1664.66 1912.5L1033.34 1912.5C946.166 1912.5 875.5 1841.83 875.5 1754.66Z" stroke="#000000" stroke-width="6.875" stroke-miterlimit="8" fill="none" fill-rule="evenodd"/><path d="M1404.5 1976.5 1404.5 2072.5M1358.5 2024.5 1450.5 2024.5" stroke="#000000" stroke-width="6.875" stroke-miterlimit="8" fill="none" fill-rule="evenodd"/><path d="M1358.5 2024.5C1358.5 1997.99 1379.09 1976.5 1404.5 1976.5 1429.91 1976.5 1450.5 1997.99 1450.5 2024.5 1450.5 2051.01 1429.91 2072.5 1404.5 2072.5 1379.09 2072.5 1358.5 2051.01 1358.5 2024.5Z" stroke="#000000" stroke-width="6.875" stroke-miterlimit="8" fill="none" fill-rule="evenodd"/><path d="M5.15625-6.14549e-06 5.15658 277.018-5.15592 277.018-5.15625 6.14549e-06ZM15.4691 271.862 0.000360892 302.8-15.4684 271.862Z" transform="matrix(1 0 0 -1 1404 1975.8)"/><path d="M0 0 195.734 0.000360892" stroke="#000000" stroke-width="10.3125" stroke-miterlimit="8" fill="none" fill-rule="evenodd" transform="matrix(-1 0 0 1 1400.73 1774)"/><path d="M5.15625-1.98008e-05 5.15651 68.1973-5.15599 68.1973-5.15625 1.98008e-05ZM15.469 63.041 0.000360892 93.9785-15.4685 63.0411Z" transform="matrix(1 0 0 -1 1205 1773.98)"/><path d="M0 0 195.734 0.000360892" stroke="#000000" stroke-width="10.3125" stroke-miterlimit="8" fill="none" fill-rule="evenodd" transform="matrix(-1 0 0 1 1596.73 1774)"/><path d="M5.15625-1.98008e-05 5.15651 68.1973-5.15599 68.1973-5.15625 1.98008e-05ZM15.469 63.041 0.000360892 93.9785-15.4685 63.0411Z" transform="matrix(1 0 0 -1 1593 1773.98)"/><path d="M0-5.15625 15.1741-5.15625 15.1741 461.029 10.0178 455.873 434.797 455.873 429.641 461.029 429.641 404.31 439.954 404.31 439.954 466.185 4.86159 466.185 4.86159 0 10.0178 5.15625 0 5.15625ZM419.329 409.466 434.797 378.528 450.266 409.466Z" transform="matrix(-1.83697e-16 -1 -1 1.83697e-16 1404.53 1840.8)"/><text font-family="Calibri,Calibri_MSFontService,sans-serif" font-weight="400" font-size="73" transform="matrix(1 0 0 1 680.027 1395)">N<tspan font-family="Microsoft YaHei,Microsoft YaHei_MSFontService,sans-serif" font-size="73" x="47.5521" y="0">层</tspan></text><path d="M1059.5 2194.33C1059.5 2180.62 1070.62 2169.5 1084.33 2169.5L1724.67 2169.5C1738.38 2169.5 1749.5 2180.62 1749.5 2194.33L1749.5 2293.67C1749.5 2307.38 1738.38 2318.5 1724.67 2318.5L1084.33 2318.5C1070.62 2318.5 1059.5 2307.38 1059.5 2293.67Z" stroke="#325395" stroke-width="4.58333" stroke-miterlimit="8" fill="#D0CECE" fill-rule="evenodd"/><text font-family="Microsoft YaHei,Microsoft YaHei_MSFontService,sans-serif" font-weight="400" font-size="73" transform="matrix(1 0 0 1 1257.42 2269)">输入<tspan font-size="73" x="146.667" y="0">嵌入</tspan></text><path d="M606.5 1981C606.5 1968.02 617.021 1957.5 630 1957.5L1167 1957.5C1179.98 1957.5 1190.5 1968.02 1190.5 1981L1190.5 2075C1190.5 2087.98 1179.98 2098.5 1167 2098.5L630 2098.5C617.021 2098.5 606.5 2087.98 606.5 2075Z" stroke="#325395" stroke-width="4.58333" stroke-miterlimit="8" fill="#FEE695" fill-rule="evenodd"/><text font-family="Microsoft YaHei,Microsoft YaHei_MSFontService,sans-serif" font-weight="400" font-size="73" transform="matrix(1 0 0 1 750.898 2053)">位置编码</text><path d="M0.112919-5.15501 142.421-2.03779 142.195 8.27224-0.112919 5.15501ZM137.492-12.4607 168.083 3.68182 136.814 18.4693Z" transform="matrix(1 0 0 -1 1190 2027.68)"/><path d="M5.15625-3.86097e-05 5.15678 70.6116-5.15572 70.6117-5.15625 3.86097e-05ZM15.4692 65.4553 0.000721785 96.3929-15.4683 65.4555Z" transform="matrix(1 0 0 -1 1404 2168.39)"/><path d="M5.15625-1.23951e-05 5.15655 124.347-5.15595 124.347-5.15625 1.23951e-05ZM15.469 119.191 0.000360892 150.128-15.4685 119.191Z" transform="matrix(1 0 0 -1 1404 2468.13)"/><text font-family="Microsoft YaHei,Microsoft YaHei_MSFontService,sans-serif" font-weight="400" font-size="73" transform="matrix(1 0 0 1 1174.34 2458)">输入</text><path d="M1026.5 1135C1026.5 1122.02 1037.02 1111.5 1050 1111.5L1760 1111.5C1772.98 1111.5 1783.5 1122.02 1783.5 1135L1783.5 1229C1783.5 1241.98 1772.98 1252.5 1760 1252.5L1050 1252.5C1037.02 1252.5 1026.5 1241.98 1026.5 1229Z" stroke="#325395" stroke-width="4.58333" stroke-miterlimit="8" fill="#C8E5B3" fill-rule="evenodd"/><text font-family="Microsoft YaHei,Microsoft YaHei_MSFontService,sans-serif" font-weight="400" font-size="73" transform="matrix(1 0 0 1 1257.42 1206)">前馈网络</text><path d="M1404.21 1310.06 935.342 1310.06 935.342 957.843 997.219 957.843 997.219 968.155 940.498 968.155 945.655 962.999 945.655 1304.9 940.498 1299.74 1404.21 1299.74ZM992.062 947.53 1023 962.999 992.062 978.468Z"/><path d="M1023.5 916.001C1023.5 903.022 1034.02 892.5 1047 892.5L1757 892.5C1769.98 892.5 1780.5 903.022 1780.5 916.001L1780.5 1010C1780.5 1022.98 1769.98 1033.5 1757 1033.5L1047 1033.5C1034.02 1033.5 1023.5 1022.98 1023.5 1010Z" stroke="#325395" stroke-width="4.58333" stroke-miterlimit="8" fill="#D4F4F1" fill-rule="evenodd"/><text font-family="Microsoft YaHei,Microsoft YaHei_MSFontService,sans-serif" font-weight="400" font-size="73" transform="matrix(1 0 0 1 1066.53 988)">残差连接<tspan font-family="Calibri,Calibri_MSFontService,sans-serif" font-size="73" x="309.948" y="0">&amp; </tspan><tspan font-size="73" x="376.406" y="0">层归一化</tspan></text><path d="M1026.5 1553.5C1026.5 1540.25 1037.25 1529.5 1050.5 1529.5L1759.5 1529.5C1772.75 1529.5 1783.5 1540.25 1783.5 1553.5L1783.5 1649.5C1783.5 1662.75 1772.75 1673.5 1759.5 1673.5L1050.5 1673.5C1037.25 1673.5 1026.5 1662.75 1026.5 1649.5Z" stroke="#325395" stroke-width="4.58333" stroke-miterlimit="8" fill="#FCE6D5" fill-rule="evenodd"/><text font-family="Microsoft YaHei,Microsoft YaHei_MSFontService,sans-serif" font-weight="400" font-size="73" transform="matrix(1 0 0 1 1220.75 1626)">多头注意力</text><path d="M1026.5 1358.33C1026.5 1345.17 1037.17 1334.5 1050.33 1334.5L1759.67 1334.5C1772.83 1334.5 1783.5 1345.17 1783.5 1358.33L1783.5 1453.67C1783.5 1466.83 1772.83 1477.5 1759.67 1477.5L1050.33 1477.5C1037.17 1477.5 1026.5 1466.83 1026.5 1453.67Z" stroke="#325395" stroke-width="4.58333" stroke-miterlimit="8" fill="#D4F4F1" fill-rule="evenodd"/><text font-family="Microsoft YaHei,Microsoft YaHei_MSFontService,sans-serif" font-weight="400" font-size="73" transform="matrix(1 0 0 1 1069.22 1431)">残差连接<tspan font-family="Calibri,Calibri_MSFontService,sans-serif" font-size="73" x="309.948" y="0">&amp; </tspan><tspan font-size="73" x="376.406" y="0">层归一化</tspan></text><path d="M0 0 0.000360892 51.9324" stroke="#000000" stroke-width="10.3125" stroke-miterlimit="8" fill="none" fill-rule="evenodd" transform="matrix(1 0 0 -1 1404 1528.93)"/><path d="M1398.84 1333.99 1398.84 1277.78 1409.16 1277.78 1409.16 1333.99ZM1388.53 1282.94 1404 1252 1419.47 1282.94Z"/><path d="M1992.5 539.169C1992.5 448.777 2065.78 375.5 2156.17 375.5L2810.83 375.5C2901.22 375.5 2974.5 448.777 2974.5 539.169L2974.5 1748.83C2974.5 1839.22 2901.22 1912.5 2810.83 1912.5L2156.17 1912.5C2065.78 1912.5 1992.5 1839.22 1992.5 1748.83Z" stroke="#000000" stroke-width="6.875" stroke-miterlimit="8" fill="none" fill-rule="evenodd"/><path d="M2069.5 1594.5C2069.5 1581.25 2080.25 1570.5 2093.5 1570.5L2802.5 1570.5C2815.75 1570.5 2826.5 1581.25 2826.5 1594.5L2826.5 1690.5C2826.5 1703.75 2815.75 1714.5 2802.5 1714.5L2093.5 1714.5C2080.25 1714.5 2069.5 1703.75 2069.5 1690.5Z" stroke="#325395" stroke-width="4.58333" stroke-miterlimit="8" fill="#FCE6D5" fill-rule="evenodd"/><text font-family="Microsoft YaHei,Microsoft YaHei_MSFontService,sans-serif" font-weight="400" font-size="73" transform="matrix(1 0 0 1 2154.32 1667)">屏蔽的多头注意力</text><path d="M2069.5 1400C2069.5 1386.47 2080.47 1375.5 2094 1375.5L2802 1375.5C2815.53 1375.5 2826.5 1386.47 2826.5 1400L2826.5 1498C2826.5 1511.53 2815.53 1522.5 2802 1522.5L2094 1522.5C2080.47 1522.5 2069.5 1511.53 2069.5 1498Z" stroke="#325395" stroke-width="4.58333" stroke-miterlimit="8" fill="#D4F4F1" fill-rule="evenodd"/><text font-family="Microsoft YaHei,Microsoft YaHei_MSFontService,sans-serif" font-weight="400" font-size="73" transform="matrix(1 0 0 1 2112.78 1473)">残差连接<tspan font-family="Calibri,Calibri_MSFontService,sans-serif" font-size="73" x="309.948" y="0">&amp; </tspan><tspan font-size="73" x="376.406" y="0">层归一化</tspan></text><path d="M2066.5 648.834C2066.5 635.947 2076.95 625.5 2089.83 625.5L2800.17 625.5C2813.05 625.5 2823.5 635.947 2823.5 648.834L2823.5 742.167C2823.5 755.053 2813.05 765.5 2800.17 765.5L2089.83 765.5C2076.95 765.5 2066.5 755.053 2066.5 742.167Z" stroke="#325395" stroke-width="4.58333" stroke-miterlimit="8" fill="#C8E5B3" fill-rule="evenodd"/><text font-family="Microsoft YaHei,Microsoft YaHei_MSFontService,sans-serif" font-weight="400" font-size="73" transform="matrix(1 0 0 1 2298.3 720)">前馈网络</text><path d="M2445.5 1979.5 2445.5 2076.5M2399.5 2028 2491.5 2028" stroke="#000000" stroke-width="6.875" stroke-miterlimit="8" fill="none" fill-rule="evenodd"/><path d="M2399.5 2028C2399.5 2001.21 2420.09 1979.5 2445.5 1979.5 2470.91 1979.5 2491.5 2001.21 2491.5 2028 2491.5 2054.79 2470.91 2076.5 2445.5 2076.5 2420.09 2076.5 2399.5 2054.79 2399.5 2028Z" stroke="#000000" stroke-width="6.875" stroke-miterlimit="8" fill="none" fill-rule="evenodd"/><path d="M5.15599-0.052092 7.57696 239.572-2.73502 239.676-5.15599 0.052092ZM17.8368 234.312 2.68143 265.404-13.0991 234.624Z" transform="matrix(1 0 0 -1 2445 1979.4)"/><path d="M0 0 195.734 0.000360892" stroke="#000000" stroke-width="10.3125" stroke-miterlimit="8" fill="none" fill-rule="evenodd" transform="matrix(-1 0 0 1 2444.73 1821)"/><path d="M5.15625-1.74986e-05 5.15652 80.5618-5.15598 80.5619-5.15625 1.74986e-05ZM15.469 75.4055 0.000360892 106.343-15.4685 75.4056Z" transform="matrix(1 0 0 -1 2249 1820.34)"/><path d="M0 0 195.734 0.000360892" stroke="#000000" stroke-width="10.3125" stroke-miterlimit="8" fill="none" fill-rule="evenodd" transform="matrix(-1 0 0 1 2626.73 1820)"/><path d="M5.15625-1.74986e-05 5.15652 80.5618-5.15598 80.5619-5.15625 1.74986e-05ZM15.469 75.4055 0.000360892 106.343-15.4685 75.4056Z" transform="matrix(1 0 0 -1 2627 1820.34)"/><path d="M2442.84 1855.56 2442.84 1848.43 2895.29 1848.43 2890.13 1853.58 2890.13 1448 2895.29 1453.16 2851.51 1453.16 2851.51 1442.84 2900.45 1442.84 2900.45 1858.74 2448 1858.74 2453.16 1853.58 2453.16 1855.56ZM2856.67 1463.47 2825.73 1448 2856.67 1432.53Z"/><path d="M2448 1570.37 2448 1522" stroke="#000000" stroke-width="10.3125" stroke-miterlimit="8" fill="none" fill-rule="evenodd"/><path d="M0-5.15625 457.035-5.15625 457.035 347.056 401.627 347.056 401.627 336.743 451.879 336.743 446.723 341.899 446.723 0 451.879 5.15625 0 5.15625ZM406.783 357.368 375.846 341.899 406.783 326.431Z" transform="matrix(1 0 0 -1 2445 817.899)"/><text font-family="Calibri,Calibri_MSFontService,sans-serif" font-weight="400" font-size="73" transform="matrix(1 0 0 1 3014.12 1135)">N<tspan font-family="Microsoft YaHei,Microsoft YaHei_MSFontService,sans-serif" font-size="73" x="47.552" y="0">层</tspan></text><path d="M2100.5 2194.33C2100.5 2180.62 2111.62 2169.5 2125.33 2169.5L2765.67 2169.5C2779.38 2169.5 2790.5 2180.62 2790.5 2194.33L2790.5 2293.67C2790.5 2307.38 2779.38 2318.5 2765.67 2318.5L2125.33 2318.5C2111.62 2318.5 2100.5 2307.38 2100.5 2293.67Z" stroke="#325395" stroke-width="4.58333" stroke-miterlimit="8" fill="#D0CECE" fill-rule="evenodd"/><text font-family="Microsoft YaHei,Microsoft YaHei_MSFontService,sans-serif" font-weight="400" font-size="73" transform="matrix(1 0 0 1 2298.3 2269)">输出嵌入</text><path d="M2659.5 1980C2659.5 1967.02 2670.02 1956.5 2683 1956.5L3220 1956.5C3232.98 1956.5 3243.5 1967.02 3243.5 1980L3243.5 2074C3243.5 2086.98 3232.98 2097.5 3220 2097.5L2683 2097.5C2670.02 2097.5 2659.5 2086.98 2659.5 2074Z" stroke="#325395" stroke-width="4.58333" stroke-miterlimit="8" fill="#FEE695" fill-rule="evenodd"/><text font-family="Microsoft YaHei,Microsoft YaHei_MSFontService,sans-serif" font-weight="400" font-size="73" transform="matrix(1 0 0 1 2804.56 2052)">位置编码</text><path d="M0.0311588-5.15616 142.065-4.29784 142.002 6.01447-0.0311588 5.15616ZM136.971-14.6413 167.814 1.01411 136.784 16.2956Z" transform="matrix(-1 0 0 1 2658.81 2027)"/><path d="M2064.5 430.001C2064.5 417.022 2075.02 406.5 2088 406.5L2798 406.5C2810.98 406.5 2821.5 417.022 2821.5 430.001L2821.5 523.999C2821.5 536.978 2810.98 547.5 2798 547.5L2088 547.5C2075.02 547.5 2064.5 536.978 2064.5 523.999Z" stroke="#325395" stroke-width="4.58333" stroke-miterlimit="8" fill="#D4F4F1" fill-rule="evenodd"/><text font-family="Microsoft YaHei,Microsoft YaHei_MSFontService,sans-serif" font-weight="400" font-size="73" transform="matrix(1 0 0 1 2107.42 501)">残差连接<tspan font-family="Calibri,Calibri_MSFontService,sans-serif" font-size="73" x="309.948" y="0">&amp; </tspan><tspan font-size="73" x="376.406" y="0">层归一化</tspan></text><path d="M5.15625-2.00716e-05 5.15651 66.9295-5.15599 66.9295-5.15625 2.00716e-05ZM15.469 61.7732 0.000360892 92.7107-15.4685 61.7733Z" transform="matrix(1 0 0 -1 2445 2168.71)"/><path d="M5.15625-1.23951e-05 5.15655 124.347-5.15595 124.347-5.15625 1.23951e-05ZM15.469 119.191 0.000360892 150.128-15.4685 119.191Z" transform="matrix(1 0 0 -1 2445 2468.13)"/><text font-family="Microsoft YaHei,Microsoft YaHei_MSFontService,sans-serif" font-weight="400" font-size="73" transform="matrix(1 0 0 1 2231.65 2458)">输出</text><path d="M2066.5 1067.5C2066.5 1054.25 2077.25 1043.5 2090.5 1043.5L2799.5 1043.5C2812.75 1043.5 2823.5 1054.25 2823.5 1067.5L2823.5 1163.5C2823.5 1176.75 2812.75 1187.5 2799.5 1187.5L2090.5 1187.5C2077.25 1187.5 2066.5 1176.75 2066.5 1163.5Z" stroke="#325395" stroke-width="4.58333" stroke-miterlimit="8" fill="#FCE6D5" fill-rule="evenodd"/><text font-family="Microsoft YaHei,Microsoft YaHei_MSFontService,sans-serif" font-weight="400" font-size="73" transform="matrix(1 0 0 1 2261.64 1140)">多头注意力</text><path d="M2066.5 871.5C2066.5 858.245 2077.25 847.5 2090.5 847.5L2799.5 847.5C2812.75 847.5 2823.5 858.245 2823.5 871.5L2823.5 967.499C2823.5 980.754 2812.75 991.5 2799.5 991.5L2090.5 991.5C2077.25 991.5 2066.5 980.754 2066.5 967.499Z" stroke="#325395" stroke-width="4.58333" stroke-miterlimit="8" fill="#D4F4F1" fill-rule="evenodd"/><text font-family="Microsoft YaHei,Microsoft YaHei_MSFontService,sans-serif" font-weight="400" font-size="73" transform="matrix(1 0 0 1 2110.1 944)">残差连接<tspan font-family="Calibri,Calibri_MSFontService,sans-serif" font-size="73" x="309.948" y="0">&amp; </tspan><tspan font-size="73" x="376.406" y="0">层归一化</tspan></text><path d="M0 0 0.000360892 51.9324" stroke="#000000" stroke-width="10.3125" stroke-miterlimit="8" fill="none" fill-rule="evenodd" transform="matrix(1 0 0 -1 2445 1042.93)"/><path d="M2439.84 846.987 2439.84 790.781 2450.16 790.781 2450.16 846.987ZM2429.53 795.937 2445 765 2460.47 795.937Z"/><path d="M0 5.15625-82.499 5.15625-77.3428 0-77.3428 595.909-82.499 590.753 485.073 590.753 485.073 1101.93 394.082 1101.93 394.082 1091.62 479.917 1091.62 474.761 1096.77 474.761 595.909 479.917 601.066-87.6553 601.066-87.6553-5.15625 0-5.15625ZM399.238 1112.24 368.3 1096.77 399.238 1081.3Z" transform="matrix(1.83697e-16 1 1 -1.83697e-16 1348 818)"/><path d="M5.15625-1.75373e-05 5.15652 80.3269-5.15598 80.3269-5.15625 1.75373e-05ZM15.469 75.1706 0.000360892 106.108-15.4685 75.1707Z" transform="matrix(1 0 0 -1 2249 1293.11)"/><path d="M2442.84 1374.6 2442.84 1323.14 2896.64 1323.14 2891.49 1328.3 2891.49 919 2896.64 924.156 2849.63 924.156 2849.63 913.843 2901.8 913.843 2901.8 1333.46 2448 1333.46 2453.16 1328.3 2453.16 1374.6ZM2854.78 934.468 2823.85 919 2854.78 903.531Z"/><path d="M5.15625-1.34425e-05 5.15654 112.649-5.15596 112.649-5.15625 1.34425e-05ZM15.469 107.493 0.000360892 138.431-15.4685 107.493Z" transform="matrix(1 0 0 -1 2659 1325.43)"/><path d="M2064.5 226.167C2064.5 214.201 2074.2 204.5 2086.17 204.5L2799.83 204.5C2811.8 204.5 2821.5 214.201 2821.5 226.167L2821.5 312.833C2821.5 324.799 2811.8 334.5 2799.83 334.5L2086.17 334.5C2074.2 334.5 2064.5 324.799 2064.5 312.833Z" stroke="#325395" stroke-width="4.58333" stroke-miterlimit="8" fill="#D0CECE" fill-rule="evenodd"/><text font-family="Microsoft YaHei,Microsoft YaHei_MSFontService,sans-serif" font-weight="400" font-size="73" transform="matrix(1 0 0 1 2295.62 294)">线性变换</text><path d="M2064.5 50.3342C2064.5 38.2755 2074.28 28.5 2086.33 28.5L2799.67 28.5C2811.72 28.5 2821.5 38.2755 2821.5 50.3342L2821.5 137.666C2821.5 149.725 2811.72 159.5 2799.67 159.5L2086.33 159.5C2074.28 159.5 2064.5 149.725 2064.5 137.666Z" stroke="#325395" stroke-width="4.58333" stroke-miterlimit="8" fill="#EF949E" fill-rule="evenodd"/><text font-family="Times New Roman,Times New Roman_MSFontService,sans-serif" font-weight="400" font-size="73" transform="matrix(1 0 0 1 2207.68 118)">S<tspan font-size="73" x="40.6772" y="0">oftmax</tspan><tspan font-family="Microsoft YaHei,Microsoft YaHei_MSFontService,sans-serif" font-size="73" x="249.219" y="0">归一化</tspan></text><path d="M5.15625-2.58987e-05 5.15648 46.0699-5.15602 46.0699-5.15625 2.58987e-05ZM15.469 40.9136 0.000360892 71.8512-15.4685 40.9137Z" transform="matrix(1 0 0 -1 2442 405.851)"/><path d="M5.15625-4.14383e-05 5.1564 19.1253-5.1561 19.1254-5.15625 4.14383e-05ZM15.4689 13.9689 0.000360892 44.9066-15.4686 13.9692Z" transform="matrix(1 0 0 -1 2442 203.907)"/><path d="M1403.68 1110.94 1401 1033" stroke="#000000" stroke-width="10.3125" stroke-miterlimit="8" fill="none" fill-rule="evenodd"/><path d="M2444.68 624.943 2442 547" stroke="#000000" stroke-width="10.3125" stroke-miterlimit="8" fill="none" fill-rule="evenodd"/></g></svg>