<svg width="2874" height="2450" xmlns="http://www.w3.org/2000/svg" xmlns:xlink="http://www.w3.org/1999/xlink" overflow="hidden"><defs><clipPath id="clip0"><rect x="647" y="15" width="2874" height="2450"/></clipPath></defs><g clip-path="url(#clip0)" transform="translate(-647 -15)"><path d="M910.5 441.671C910.5 330.568 1000.57 240.5 1111.67 240.5L1916.33 240.5C2027.43 240.5 2117.5 330.568 2117.5 441.671L2117.5 1374.33C2117.5 1485.43 2027.43 1575.5 1916.33 1575.5L1111.67 1575.5C1000.57 1575.5 910.5 1485.43 910.5 1374.33Z" stroke="#000000" stroke-width="6.875" stroke-miterlimit="8" fill="none" fill-rule="evenodd"/><path d="M1148.5 1187.5C1148.5 1173.14 1160.14 1161.5 1174.5 1161.5L1989.5 1161.5C2003.86 1161.5 2015.5 1173.14 2015.5 1187.5L2015.5 1291.5C2015.5 1305.86 2003.86 1317.5 1989.5 1317.5L1174.5 1317.5C1160.14 1317.5 1148.5 1305.86 1148.5 1291.5Z" stroke="#325395" stroke-width="4.58333" stroke-miterlimit="8" fill="#FCE6D5" fill-rule="evenodd"/><text font-family="Microsoft YaHei,Microsoft YaHei_MSFontService,sans-serif" font-weight="400" font-size="83" transform="matrix(1 0 0 1 1333.99 1267)">单变量注意力</text><path d="M1148.5 916.168C1148.5 900.887 1160.89 888.5 1176.17 888.5L1987.83 888.5C2003.11 888.5 2015.5 900.887 2015.5 916.168L2015.5 1026.83C2015.5 1042.11 2003.11 1054.5 1987.83 1054.5L1176.17 1054.5C1160.89 1054.5 1148.5 1042.11 1148.5 1026.83Z" stroke="#325395" stroke-width="4.58333" stroke-miterlimit="8" fill="#D4F4F1" fill-rule="evenodd"/><text font-family="Microsoft YaHei,Microsoft YaHei_MSFontService,sans-serif" font-weight="400" font-size="83" transform="matrix(1 0 0 1 1204.51 1000)">残差连接<tspan font-family="Calibri,Calibri_MSFontService,sans-serif" font-size="83" x="348.906" y="0">&amp; </tspan><tspan font-size="83" x="423.958" y="0">层归一化</tspan></text><path d="M1148.5 596.001C1148.5 580.26 1161.26 567.5 1177 567.5L1987 567.5C2002.74 567.5 2015.5 580.26 2015.5 596.001L2015.5 709.999C2015.5 725.74 2002.74 738.5 1987 738.5L1177 738.5C1161.26 738.5 1148.5 725.74 1148.5 709.999Z" stroke="#325395" stroke-width="4.58333" stroke-miterlimit="8" fill="#C8E5B3" fill-rule="evenodd"/><text font-family="Microsoft YaHei,Microsoft YaHei_MSFontService,sans-serif" font-weight="400" font-size="83" transform="matrix(1 0 0 1 1333.99 681)">前馈神经网络</text><path d="M1578.5 1641.5 1578.5 1737.5M1532.5 1689.5 1624.5 1689.5" stroke="#000000" stroke-width="6.875" stroke-miterlimit="8" fill="none" fill-rule="evenodd"/><path d="M1532.5 1689.5C1532.5 1662.99 1553.09 1641.5 1578.5 1641.5 1603.91 1641.5 1624.5 1662.99 1624.5 1689.5 1624.5 1716.01 1603.91 1737.5 1578.5 1737.5 1553.09 1737.5 1532.5 1716.01 1532.5 1689.5Z" stroke="#000000" stroke-width="6.875" stroke-miterlimit="8" fill="none" fill-rule="evenodd"/><path d="M5.15595-0.0553788 8.35734 298.005-1.95457 298.116-5.15595 0.0553788ZM18.6139 292.738 3.47828 323.84-12.3218 293.07Z" transform="matrix(1 0 0 -1 1578 1640.84)"/><path d="M0 0 195.734 0.000360892" stroke="#000000" stroke-width="10.3125" stroke-miterlimit="8" fill="none" fill-rule="evenodd" transform="matrix(-1 0 0 1 1577.73 1411)"/><path d="M5.15625-1.98008e-05 5.15651 68.1973-5.15599 68.1973-5.15625 1.98008e-05ZM15.469 63.041 0.000360892 93.9785-15.4685 63.0411Z" transform="matrix(1 0 0 -1 1382 1410.98)"/><path d="M0 0 195.734 0.000360892" stroke="#000000" stroke-width="10.3125" stroke-miterlimit="8" fill="none" fill-rule="evenodd" transform="matrix(-1 0 0 1 1773.73 1411)"/><path d="M5.15625-1.98008e-05 5.15651 68.1973-5.15599 68.1973-5.15625 1.98008e-05ZM15.469 63.041 0.000360892 93.9785-15.4685 63.0411Z" transform="matrix(1 0 0 -1 1771 1410.98)"/><path d="M0-5.15625 10.0318-5.15625 10.0318 505.398 4.87555 500.242 552.168 500.242 547.011 505.398 547.011 448.68 557.324 448.68 557.324 510.554-0.280703 510.554-0.280703 0 4.87555 5.15625 0 5.15625ZM536.699 453.836 552.168 422.899 567.636 453.836Z" transform="matrix(-1.83697e-16 -1 -1 1.83697e-16 1570.9 1523.17)"/><path d="M0 0 0.00108268 106.115" stroke="#000000" stroke-width="10.3125" stroke-miterlimit="8" fill="none" fill-rule="evenodd" transform="matrix(1 0 0 -1 1581 1160.12)"/><path d="M1575.84 888.578 1575.84 763.781 1586.16 763.781 1586.16 888.578ZM1565.53 768.938 1581 738 1596.47 768.938Z"/><path d="M0 0 0.000360892 80.8825" stroke="#000000" stroke-width="10.3125" stroke-miterlimit="8" fill="none" fill-rule="evenodd" transform="matrix(1 0 0 -1 1578 511.883)"/><path d="M0-5.15625 12.1031-5.15625 12.1031 508.053 6.94687 502.897 451.376 502.897 446.22 508.053 446.22 451.336 456.532 451.336 456.532 513.209 1.79062 513.209 1.79062 0 6.94687 5.15625 0 5.15625ZM435.907 456.492 451.376 425.555 466.845 456.492Z" transform="matrix(-1.83697e-16 -1 -1 1.83697e-16 1573.56 826.376)"/><text font-family="Calibri,Calibri_MSFontService,sans-serif" font-weight="400" font-size="92" transform="matrix(1 0 0 1 702.704 1010)">N<tspan font-family="Microsoft YaHei,Microsoft YaHei_MSFontService,sans-serif" font-size="92" x="59.0104" y="0">层</tspan></text><path d="M1233.5 2109.33C1233.5 2097.28 1243.28 2087.5 1255.33 2087.5L1901.67 2087.5C1913.72 2087.5 1923.5 2097.28 1923.5 2109.33L1923.5 2196.67C1923.5 2208.72 1913.72 2218.5 1901.67 2218.5L1255.33 2218.5C1243.28 2218.5 1233.5 2208.72 1233.5 2196.67Z" stroke="#000000" stroke-width="4.58333" stroke-miterlimit="8" fill="#E54C5E" fill-rule="evenodd"/><text font-family="Microsoft YaHei,Microsoft YaHei_MSFontService,sans-serif" font-weight="400" font-size="83" transform="matrix(1 0 0 1 1289.26 2181)">分段划分子序列</text><path d="M1233.5 1863.17C1233.5 1850.1 1244.1 1839.5 1257.17 1839.5L1899.83 1839.5C1912.9 1839.5 1923.5 1850.1 1923.5 1863.17L1923.5 1957.83C1923.5 1970.9 1912.9 1981.5 1899.83 1981.5L1257.17 1981.5C1244.1 1981.5 1233.5 1970.9 1233.5 1957.83Z" stroke="#325395" stroke-width="4.58333" stroke-miterlimit="8" fill="#D0CECE" fill-rule="evenodd"/><text font-family="Microsoft YaHei,Microsoft YaHei_MSFontService,sans-serif" font-weight="400" font-size="83" transform="matrix(1 0 0 1 1330.51 1938)">输入嵌入向量<tspan font-size="83" x="-0.000610352" y="457">多维时间序列</tspan></text><path d="M0 0 0.000721785 83.3365" stroke="#000000" stroke-width="10.3125" stroke-miterlimit="8" fill="none" fill-rule="evenodd" transform="matrix(-1 0 0 1 1578 2218)"/><path d="M1578 1981 1578 2087.12" stroke="#000000" stroke-width="10.3125" stroke-miterlimit="8" fill="none" fill-rule="evenodd"/><path d="M0 0 0.000360892 102.003" stroke="#000000" stroke-width="10.3125" stroke-miterlimit="8" fill="none" fill-rule="evenodd" transform="matrix(-1 0 0 1 1578 1737)"/><path d="M670.5 1644C670.5 1631.02 681.022 1620.5 694.001 1620.5L1231 1620.5C1243.98 1620.5 1254.5 1631.02 1254.5 1644L1254.5 1738C1254.5 1750.98 1243.98 1761.5 1231 1761.5L694.001 1761.5C681.022 1761.5 670.5 1750.98 670.5 1738Z" stroke="#325395" stroke-width="4.58333" stroke-miterlimit="8" fill="#B58B02" fill-rule="evenodd"/><text font-family="Calibri,Calibri_MSFontService,sans-serif" font-weight="400" font-size="83" transform="matrix(1 0 0 1 715.743 1719)">Time2Vec<tspan font-family="Microsoft YaHei,Microsoft YaHei_MSFontService,sans-serif" font-size="83" x="327.044" y="0">编码</tspan></text><path d="M0.0351051-5.15613 252.063-3.44022 251.993 6.87204-0.0351051 5.15613ZM246.977-13.7876 277.809 1.89144 246.767 17.1492Z" transform="matrix(1 0 0 -1 1254 1690.89)"/><text font-family="Calibri,Calibri_MSFontService,sans-serif" font-weight="400" font-size="83" transform="matrix(1 0 0 1 1333.91 119)">Uaformer<tspan font-family="Microsoft YaHei,Microsoft YaHei_MSFontService,sans-serif" font-size="83" x="323.194" y="0">网络</tspan></text><path d="M5.15625-1.07721e-05 5.15656 146.966-5.15594 146.966-5.15625 1.07721e-05ZM15.469 141.81 0.000360892 172.747-15.4685 141.81Z" transform="matrix(1 0 0 -1 1578 301.747)"/><path d="M2693.5 943.667C2693.5 924.245 2709.25 908.5 2728.67 908.5L3391.33 908.5C3410.76 908.5 3426.5 924.245 3426.5 943.667L3426.5 1084.33C3426.5 1103.76 3410.76 1119.5 3391.33 1119.5L2728.67 1119.5C2709.25 1119.5 2693.5 1103.76 2693.5 1084.33Z" stroke="#325395" stroke-width="4.58333" stroke-miterlimit="8" fill="#30C0B4" fill-rule="evenodd"/><path d="M2664.5 981.668C2664.5 962.245 2680.25 946.5 2699.67 946.5L3363.33 946.5C3382.76 946.5 3398.5 962.245 3398.5 981.668L3398.5 1122.33C3398.5 1141.75 3382.76 1157.5 3363.33 1157.5L2699.67 1157.5C2680.25 1157.5 2664.5 1141.75 2664.5 1122.33Z" stroke="#325395" stroke-width="4.58333" stroke-miterlimit="8" fill="#F2BA02" fill-rule="evenodd"/><path d="M2635.5 1433C2635.5 1418.36 2647.36 1406.5 2662 1406.5L3343 1406.5C3357.64 1406.5 3369.5 1418.36 3369.5 1433L3369.5 1539C3369.5 1553.64 3357.64 1565.5 3343 1565.5L2662 1565.5C2647.36 1565.5 2635.5 1553.64 2635.5 1539Z" stroke="#325395" stroke-width="4.58333" stroke-miterlimit="8" fill="#588E31" fill-rule="evenodd"/><text font-family="Microsoft YaHei,Microsoft YaHei_MSFontService,sans-serif" font-weight="400" font-size="83" transform="matrix(1 0 0 1 2713.09 1514)">单变量序列分离</text><path d="M2635.5 1019.67C2635.5 1000.25 2651.25 984.5 2670.67 984.5L3334.33 984.5C3353.75 984.5 3369.5 1000.25 3369.5 1019.67L3369.5 1160.33C3369.5 1179.75 3353.75 1195.5 3334.33 1195.5L2670.67 1195.5C2651.25 1195.5 2635.5 1179.75 2635.5 1160.33Z" stroke="#325395" stroke-width="4.58333" stroke-miterlimit="8" fill="#EF949E" fill-rule="evenodd"/><text font-family="Microsoft YaHei,Microsoft YaHei_MSFontService,sans-serif" font-weight="400" font-size="83" transform="matrix(1 0 0 1 2713.09 1118)">缩放点积注意力</text><path d="M2822.5 591C2822.5 576.365 2834.36 564.5 2849 564.5L3156 564.5C3170.64 564.5 3182.5 576.365 3182.5 591L3182.5 697C3182.5 711.635 3170.64 723.5 3156 723.5L2849 723.5C2834.36 723.5 2822.5 711.635 2822.5 697Z" stroke="#325395" stroke-width="4.58333" stroke-miterlimit="8" fill="#C65F10" fill-rule="evenodd"/><text font-family="Microsoft YaHei,Microsoft YaHei_MSFontService,sans-serif" font-weight="400" font-size="83" transform="matrix(1 0 0 1 2919.34 672)">拼接</text><path d="M2736.26 1761.51C2733.34 1761.51 2730.62 1762.55 2728.09 1764.63 2725.57 1766.71 2723.35 1769.68 2721.45 1773.54 2719.54 1777.41 2718.06 1781.65 2717.01 1786.27 2715.96 1790.89 2715.43 1794.97 2715.43 1798.51 2715.43 1806.86 2718.47 1811.03 2724.55 1811.03 2728.3 1811.03 2731.75 1809.28 2734.88 1805.78 2738.02 1802.28 2740.54 1797.44 2742.46 1791.25 2744.38 1785.07 2745.34 1779.28 2745.34 1773.91 2745.34 1769.88 2744.59 1766.81 2743.11 1764.69 2741.62 1762.57 2739.34 1761.51 2736.26 1761.51ZM2736.71 1757.94C2741.92 1757.94 2745.94 1759.45 2748.76 1762.48 2751.59 1765.5 2753 1769.88 2753 1775.61 2753 1779.39 2752.4 1783.62 2751.21 1788.29 2750.03 1792.97 2748.39 1797.09 2746.31 1800.67 2744.23 1804.25 2741.82 1807.14 2739.08 1809.33 2736.33 1811.52 2733.35 1813.03 2730.14 1813.87 2730.76 1815.84 2731.34 1817.47 2731.88 1818.75 2732.42 1820.03 2732.94 1821.07 2733.44 1821.87 2733.94 1822.67 2734.44 1823.26 2734.92 1823.65 2735.41 1824.05 2735.89 1824.31 2736.38 1824.44 2736.87 1824.58 2737.43 1824.65 2738.08 1824.65 2739.11 1824.65 2740.15 1824.35 2741.2 1823.76 2742.26 1823.16 2743.43 1822.13 2744.73 1820.68L2746.84 1822.94C2744.68 1825.3 2742.66 1826.96 2740.8 1827.93 2738.93 1828.9 2737.02 1829.39 2735.04 1829.39 2732.8 1829.39 2730.97 1828.89 2729.55 1827.89 2728.13 1826.89 2726.9 1825.3 2725.86 1823.11 2724.82 1820.92 2723.82 1818.05 2722.84 1814.52 2717.95 1814.24 2714.23 1812.62 2711.66 1809.65 2709.09 1806.68 2707.81 1802.49 2707.81 1797.09 2707.81 1793.04 2708.49 1788.46 2709.86 1783.35 2711.22 1778.24 2713.19 1773.74 2715.77 1769.83 2718.35 1765.93 2721.43 1762.97 2725.01 1760.96 2728.59 1758.95 2732.49 1757.94 2736.71 1757.94Z" fill-rule="evenodd"/><text fill="#000000" fill-opacity="0" font-family="Arial,Arial_MSFontService,sans-serif" font-size="71.4497" x="2707.81" y="1820.46">𝑄</text><path d="M2975.59 1758.59 2991.81 1758.59 2991.36 1760.57C2990.33 1760.79 2989.6 1761.03 2989.15 1761.3 2988.71 1761.57 2988.31 1761.98 2987.96 1762.52 2987.6 1763.06 2987.24 1763.9 2986.86 1765.05 2986.48 1766.2 2986.01 1768.07 2985.44 1770.66L2982.57 1783.59 2983.9 1783.59C2985.04 1783.59 2986.07 1783.4 2987 1783.03 2987.94 1782.65 2989.02 1781.96 2990.27 1780.96 2991.51 1779.96 2993.49 1778.12 2996.2 1775.45 2998.92 1772.77 3000.85 1770.74 3002 1769.35 3003.15 1767.96 3003.98 1766.75 3004.51 1765.74 3005.04 1764.73 3005.3 1763.8 3005.3 1762.96 3005.3 1762.29 3005.03 1761.74 3004.49 1761.32 3003.95 1760.9 3003.18 1760.65 3002.18 1760.57L3002.63 1758.59 3020.01 1758.59 3019.57 1760.57C3018.49 1760.74 3017.26 1761.3 3015.9 1762.26 3014.53 1763.21 3012.45 1765.09 3009.64 1767.87L2993.91 1783.19 3002.55 1803.94C3003.44 1806.07 3004.17 1807.61 3004.75 1808.56 3005.33 1809.5 3006.03 1810.25 3006.84 1810.81 3007.65 1811.36 3008.65 1811.73 3009.84 1811.92L3009.39 1813.91 2993.75 1813.91 2994.2 1811.92C2995.66 1811.79 2996.39 1811.14 2996.39 1809.98 2996.39 1809.25 2996.24 1808.42 2995.94 1807.48 2995.64 1806.55 2995.29 1805.59 2994.89 1804.59L2989.62 1791.7C2989 1790.16 2988.46 1789.08 2988 1788.46 2987.54 1787.83 2987.05 1787.4 2986.54 1787.16 2986.02 1786.92 2985.23 1786.79 2984.15 1786.79L2981.88 1786.79 2978.51 1802.11C2978.16 1803.73 2977.93 1805.01 2977.82 1805.94 2977.72 1806.88 2977.66 1807.71 2977.66 1808.44 2977.66 1809.65 2977.97 1810.51 2978.57 1811.01 2979.18 1811.51 2980.2 1811.81 2981.63 1811.92L2981.19 1813.91 2964.98 1813.91 2965.42 1811.92C2966.45 1811.76 2967.22 1811.5 2967.73 1811.13 2968.25 1810.77 2968.68 1810.26 2969.03 1809.61 2969.38 1808.96 2969.7 1808.17 2970 1807.24 2970.3 1806.31 2970.74 1804.5 2971.34 1801.83L2978.23 1770.62C2978.82 1767.92 2979.12 1765.75 2979.12 1764.1 2979.12 1762.83 2978.8 1761.94 2978.17 1761.44 2977.53 1760.94 2976.53 1760.65 2975.15 1760.57Z" fill-rule="evenodd"/><text fill="#000000" fill-opacity="0" font-family="Arial,Arial_MSFontService,sans-serif" font-size="55.3198" x="2964.98" y="1806.99">𝐾</text><path d="M3229.7 1758.59 3246.48 1758.59 3246.03 1760.57C3244.84 1760.71 3243.92 1761.06 3243.25 1761.63 3242.59 1762.19 3242.13 1762.98 3241.86 1764 3241.59 1765.01 3241.45 1766.37 3241.45 1768.07 3241.45 1768.48 3241.49 1769.69 3241.57 1771.72L3242.71 1801.38 3242.71 1804.63 3243.11 1804.63 3260.66 1772.97C3261.69 1771.11 3262.46 1769.51 3262.97 1768.17 3263.48 1766.83 3263.74 1765.65 3263.74 1764.63 3263.74 1762.36 3262.39 1761.01 3259.69 1760.57L3260.13 1758.59 3276.71 1758.59 3276.26 1760.57C3275.53 1760.68 3274.84 1760.96 3274.18 1761.4 3273.51 1761.85 3272.77 1762.59 3271.95 1763.63 3271.12 1764.67 3269.85 1766.68 3268.12 1769.65L3242.18 1814.56 3236.79 1814.56 3234.07 1769.37C3233.97 1767.61 3233.77 1766.11 3233.49 1764.85 3233.2 1763.59 3232.76 1762.61 3232.15 1761.91 3231.54 1761.21 3230.58 1760.76 3229.25 1760.57Z" fill-rule="evenodd"/><text fill="#000000" fill-opacity="0" font-family="Arial,Arial_MSFontService,sans-serif" font-size="55.9683" x="3229.25" y="1807.56">𝑉</text><path d="M5.15625-1.28085e-05 5.15655 119.501-5.15595 119.501-5.15625 1.28085e-05ZM15.469 114.345 0.000360892 145.282-15.4685 114.345Z" transform="matrix(1 0 0 -1 2731 1737.28)"/><path d="M5.15625-1.28085e-05 5.15655 119.501-5.15595 119.501-5.15625 1.28085e-05ZM15.469 114.345 0.000360892 145.282-15.4685 114.345Z" transform="matrix(1 0 0 -1 2993 1737.28)"/><path d="M5.15625-1.28085e-05 5.15655 119.501-5.15595 119.501-5.15625 1.28085e-05ZM15.469 114.345 0.000360892 145.282-15.4685 114.345Z" transform="matrix(1 0 0 -1 3253 1737.28)"/><path d="M5.15625-1.26264e-05 5.15655 121.597-5.15595 121.597-5.15625 1.26264e-05ZM15.469 116.441 0.000360892 147.378-15.4685 116.441Z" fill="#588E31" transform="matrix(1 0 0 -1 2731 1370.38)"/><path d="M5.15625-1.26264e-05 5.15655 121.597-5.15595 121.597-5.15625 1.26264e-05ZM15.469 116.441 0.000360892 147.378-15.4685 116.441Z" fill="#588E31" transform="matrix(1 0 0 -1 2987 1370.38)"/><path d="M5.15625-1.26264e-05 5.15655 121.597-5.15595 121.597-5.15625 1.26264e-05ZM15.469 116.441 0.000360892 147.378-15.4685 116.441Z" fill="#588E31" transform="matrix(1 0 0 -1 3253 1370.38)"/><path d="M5.15625-7.12278e-06 5.15658 235.472-5.15592 235.472-5.15625 7.12278e-06ZM15.4691 230.316 0.000360892 261.254-15.4684 230.316Z" fill="#EF949E" transform="matrix(1 0 0 -1 2921 984.254)"/><path d="M5.15625-8.33592e-06 5.15657 197.452-5.15593 197.452-5.15625 8.33592e-06ZM15.4691 192.295 0.000360892 223.233-15.4684 192.295Z" fill="#F2BA02" transform="matrix(1 0 0 -1 2977 946.233)"/><path d="M3018.84 908.212 3018.84 748.781 3029.16 748.781 3029.16 908.212ZM3008.53 753.937 3024 723 3039.47 753.937Z" fill="#30C0B4"/><path d="M2996.84 563.186 2996.84 386.781 3007.16 386.781 3007.16 563.186ZM2986.53 391.937 3002 361 3017.47 391.937Z" fill="#C65F10"/><path d="M2507.5 627.837C2507.5 534.867 2582.87 459.5 2675.84 459.5L3349.16 459.5C3442.13 459.5 3517.5 534.867 3517.5 627.837L3517.5 1521.16C3517.5 1614.13 3442.13 1689.5 3349.16 1689.5L2675.84 1689.5C2582.87 1689.5 2507.5 1614.13 2507.5 1521.16Z" stroke="#000000" stroke-width="6.875" stroke-miterlimit="8" fill="none" fill-rule="evenodd"/><path d="M0 0 601.997 497.5" stroke="#000000" stroke-width="6.875" stroke-miterlimit="8" stroke-dasharray="20.625 6.875" fill="none" fill-rule="evenodd" transform="matrix(1 0 0 -1 1899.5 1161)"/><path d="M1905.5 1317.5 2507.5 1527.79" stroke="#000000" stroke-width="6.875" stroke-miterlimit="8" stroke-dasharray="20.625 6.875" fill="none" fill-rule="evenodd"/><text font-family="Microsoft YaHei,Microsoft YaHei_MSFontService,sans-serif" font-weight="400" font-size="83" transform="matrix(1 0 0 1 2754.34 323)">单变量注意力</text><path d="M1148.5 325.5C1148.5 311.693 1159.69 300.5 1173.5 300.5L1990.5 300.5C2004.31 300.5 2015.5 311.693 2015.5 325.5L2015.5 425.5C2015.5 439.307 2004.31 450.5 1990.5 450.5L1173.5 450.5C1159.69 450.5 1148.5 439.307 1148.5 425.5Z" stroke="#325395" stroke-width="4.58333" stroke-miterlimit="8" fill="#D4F4F1" fill-rule="evenodd"/><text font-family="Microsoft YaHei,Microsoft YaHei_MSFontService,sans-serif" font-weight="400" font-size="83" transform="matrix(1 0 0 1 1204.51 404)">残差<tspan font-size="83" x="165" y="0">连接</tspan><tspan font-family="Calibri,Calibri_MSFontService,sans-serif" font-size="83" x="348.906" y="0">&amp; </tspan><tspan font-size="83" x="423.958" y="0">层归一化</tspan></text></g></svg>