<svg width="3798" height="1609" xmlns="http://www.w3.org/2000/svg" xmlns:xlink="http://www.w3.org/1999/xlink" overflow="hidden"><defs><clipPath id="clip0"><rect x="301" y="270" width="3798" height="1609"/></clipPath><clipPath id="clip1"><rect x="301" y="295" width="3798" height="1584"/></clipPath><clipPath id="clip2"><rect x="301" y="295" width="3798" height="1584"/></clipPath><clipPath id="clip3"><rect x="301" y="295" width="3798" height="1584"/></clipPath><clipPath id="clip4"><rect x="518" y="442" width="3534" height="392"/></clipPath><clipPath id="clip5"><rect x="518" y="442" width="3534" height="392"/></clipPath><clipPath id="clip6"><rect x="518" y="442" width="3534" height="392"/></clipPath><clipPath id="clip7"><rect x="518" y="442" width="3534" height="392"/></clipPath><clipPath id="clip8"><rect x="518" y="442" width="3534" height="392"/></clipPath><clipPath id="clip9"><rect x="518" y="442" width="3534" height="392"/></clipPath><clipPath id="clip10"><rect x="518" y="896" width="3534" height="392"/></clipPath><clipPath id="clip11"><rect x="518" y="896" width="3534" height="392"/></clipPath><clipPath id="clip12"><rect x="518" y="896" width="3534" height="392"/></clipPath><clipPath id="clip13"><rect x="518" y="896" width="3534" height="392"/></clipPath><clipPath id="clip14"><rect x="518" y="896" width="3534" height="392"/></clipPath><clipPath id="clip15"><rect x="518" y="896" width="3534" height="392"/></clipPath><clipPath id="clip16"><rect x="518" y="1350" width="3534" height="392"/></clipPath><clipPath id="clip17"><rect x="518" y="1350" width="3534" height="392"/></clipPath><clipPath id="clip18"><rect x="518" y="1350" width="3534" height="392"/></clipPath><clipPath id="clip19"><rect x="518" y="1350" width="3534" height="392"/></clipPath><clipPath id="clip20"><rect x="518" y="1350" width="3534" height="392"/></clipPath><clipPath id="clip21"><rect x="518" y="1350" width="3534" height="392"/></clipPath></defs><g clip-path="url(#clip0)" transform="translate(-301 -270)"><g clip-path="url(#clip1)"><g clip-path="url(#clip2)"><g clip-path="url(#clip3)"><path d="M0 1582.5 3798 1582.5 3798 0 0 0Z" fill="#FFFFFF" transform="matrix(1 0 0 1.00032 301 296)"/><path d="M217.682 537.525 3750.52 537.525 3750.52 146.614 217.682 146.614Z" fill="#FFFFFF" transform="matrix(1 0 0 1.00032 301 296)"/><path d="M0 0 0 15.3854" stroke="#000000" stroke-width="3.51667" stroke-linejoin="round" fill="none" transform="matrix(1 0 0 1.00032 947.352 833.695)"/><path d="M0 0 0 15.3854" stroke="#000000" stroke-width="3.51667" stroke-linejoin="round" fill="none" transform="matrix(1 0 0 1.00032 1483.52 833.695)"/><path d="M0 0 0 15.3854" stroke="#000000" stroke-width="3.51667" stroke-linejoin="round" fill="none" transform="matrix(1 0 0 1.00032 2019.7 833.695)"/><path d="M0 0 0 15.3854" stroke="#000000" stroke-width="3.51667" stroke-linejoin="round" fill="none" transform="matrix(1 0 0 1.00032 2555.87 833.695)"/><path d="M0 0 0 15.3854" stroke="#000000" stroke-width="3.51667" stroke-linejoin="round" fill="none" transform="matrix(1 0 0 1.00032 3092.04 833.695)"/><path d="M0 0 0 15.3854" stroke="#000000" stroke-width="3.51667" stroke-linejoin="round" fill="none" transform="matrix(1 0 0 1.00032 3628.22 833.695)"/><path d="M0 0-15.3854 0" stroke="#000000" stroke-width="3.51667" stroke-linejoin="round" fill="none" transform="matrix(1 0 0 1.00032 518.682 787.603)"/><path d="M4.65684 15.6052 32.172 15.6052 32.172 11.958 4.65684 11.958 4.65684 15.6052Z" transform="matrix(1 0 0 -1.00032 423.107 804.309)"/><path d="M5.45358 3.64717 12.535 3.64717 12.535 28.099 4.82855 26.5536 4.82855 30.503 12.4938 32.0484 16.8278 32.0484 16.8278 3.64717 23.9092 3.64717 23.9092 0 5.45358 0 5.45358 3.64717Z" transform="matrix(1 0 0 -1.00032 459.939 804.309)"/><path d="M0 0-15.3854 0" stroke="#000000" stroke-width="3.51667" stroke-linejoin="round" fill="none" transform="matrix(1 0 0 1.00032 518.682 637.317)"/><path d="M13.9705 29.1911C11.7405 29.1911 10.0623 28.0921 8.9359 25.8942 7.81405 23.7009 7.25312 20.3994 7.25312 15.9898 7.25312 11.5986 7.81405 8.304 8.9359 6.10609 10.0623 3.90817 11.7405 2.80921 13.9705 2.80921 16.2188 2.80921 17.9039 3.90817 19.0257 6.10609 20.1521 8.304 20.7154 11.5986 20.7154 15.9898 20.7154 20.3994 20.1521 23.7009 19.0257 25.8942 17.9039 28.0921 16.2188 29.1911 13.9705 29.1911ZM13.9705 32.6253C17.565 32.6253 20.3101 31.2035 22.2058 28.36 24.1015 25.521 25.0494 21.3976 25.0494 15.9898 25.0494 10.5958 24.1015 6.47698 22.2058 3.63343 20.3101 0.794455 17.565-0.625032 13.9705-0.625032 10.3806-0.625032 7.63776 0.794455 5.74206 3.63343 3.84635 6.47698 2.8985 10.5958 2.8985 15.9898 2.8985 21.3976 3.84635 25.521 5.74206 28.36 7.63776 31.2035 10.3806 32.6253 13.9705 32.6253Z" transform="matrix(1 0 0 -1.00032 459.942 654.023)"/><path d="M0 0-15.3854 0" stroke="#000000" stroke-width="3.51667" stroke-linejoin="round" fill="none" transform="matrix(1 0 0 1.00032 518.682 487.031)"/><path d="M5.45358 3.64717 12.535 3.64717 12.535 28.099 4.82855 26.5536 4.82855 30.503 12.4938 32.0484 16.8278 32.0484 16.8278 3.64717 23.9092 3.64717 23.9092 0 5.45358 0 5.45358 3.64717Z" transform="matrix(1 0 0 -1.00032 459.942 503.737)"/><path d="M34.2964 31.2516 19.9475 15.9294 28.7426 0 22.8494 0 16.2419 12.3935 4.74132 0-1.48222 0 13.8936 16.4651 5.72351 31.2516 11.6077 31.2516 17.6081 19.9475 28.0729 31.2516 34.2964 31.2516Z" transform="matrix(6.12323e-17 -1.00032 -1 -6.12517e-17 393.46 668.76)"/><path d="M4.96276 3.31892 11.4068 3.31892 11.4068 25.5701 4.39398 24.1638 4.39398 27.7577 11.3693 29.164 15.3133 29.164 15.3133 3.31892 21.7574 3.31892 21.7574 0 4.96276 0 4.96276 3.31892Z" transform="matrix(6.12323e-17 -1.00032 -1 -6.12517e-17 402.836 634.931)"/><g clip-path="url(#clip4)"><path d="M378.265 345.453 383.627 337.944 388.989 332.179 394.351 295.865 399.712 300.085 405.074 305.403 410.436 303.627 415.798 266.523 421.159 274.828 426.521 255.31 431.883 233.048 437.244 256.265 442.606 250.054 447.968 232.858 453.33 213.063 458.691 254.649 464.053 217.836 469.415 226.624 474.777 199.247 480.138 186.476 485.5 211.568 490.862 211.244 496.223 188.744 501.585 185.029 506.947 176.558 512.309 192.647 517.67 195.792 523.032 196.601 528.394 220.739 533.756 189.814 539.117 192.064 544.479 208.876 549.841 222.155 555.202 215.125 560.564 192.907 565.926 242.158 571.288 216.003 576.649 241.871 582.011 235.268 587.373 253.968 592.735 225.613 598.096 258.338 603.458 282.508 608.82 256.642 614.182 281.452 619.543 311.851 624.905 305.425 630.267 327.788 635.628 331.158 640.99 317.453 646.352 348.821 651.714 331.186 657.075 364.25 662.437 384.558 667.799 371.996 673.161 399.469 678.522 400.271 683.884 386.551 689.246 421.2 694.607 436.508 699.969 435.03 705.331 424.829 716.054 483.376 721.416 469.284 726.778 469.527 732.14 476.335 737.501 495.479 748.225 484.782 753.586 515.662 758.948 503.38 769.672 487.476 775.033 463.94 780.395 486.703 785.757 485.197 791.119 495.513 796.48 475.243 801.842 482.454 807.204 479.014 812.565 488.693 817.927 472.878 823.289 464.242 828.651 435.706 834.012 444.212 839.374 446.137 844.736 450.207 850.098 440.44 855.459 432.077 860.821 446.265 866.183 436.722 871.544 410.079 876.906 372.252 882.268 390.817 887.63 387.463 892.991 394.066 898.353 342.724 903.715 341.62 909.077 336.197 914.438 175.927 919.8 183.646 925.162 197.682 930.523 192.611 935.885 209.483 941.247 191.658 946.609 242.25 951.97 271.904 957.332 257.306 968.056 281.379 973.417 318.851 978.779 338.013 984.141 367.888 989.503 368.473 994.864 390.621 1000.23 423.855 1005.59 424.301 1010.95 430.419 1016.31 456.855 1021.67 488.105 1027.03 488.067 1032.4 510.06 1037.76 492.402 1043.12 510.664 1048.48 479.41 1053.84 519.757 1059.2 480.166 1064.57 482.567 1069.93 478.276 1075.29 431.509 1080.65 455.702 1086.01 466.428 1091.38 434.868 1096.74 430.719 1102.1 378.559 1107.46 351.416 1112.82 338.588 1118.18 354.995 1123.55 328.164 1128.91 318.488 1134.27 253.541 1139.63 245.834 1144.99 261.686 1150.35 210.764 1155.72 205.447 1161.08 179.149 1166.44 183.209 1171.8 179.824 1177.16 193.155 1182.52 178.124 1187.89 205.498 1193.25 189.931 1198.61 213.603 1203.97 201.103 1214.7 267.061 1220.06 273.778 1225.42 264.967 1230.78 271.576 1236.14 311.557 1241.5 338.714 1246.87 304.896 1252.23 353.361 1257.59 434.316 1262.95 419.54 1268.31 419.602 1273.67 418.256 1279.04 425.795 1284.4 453.59 1289.76 474.607 1295.12 483.326 1300.48 486.162 1305.84 506.5 1311.21 499.212 1316.57 489.658 1321.93 505.849 1327.29 466.396 1332.65 475.452 1338.01 489.513 1343.38 484.928 1348.74 432.461 1354.1 402.816 1359.46 426.528 1364.82 371.767 1370.19 371.198 1375.55 372.934 1380.91 320.995 1386.27 305.319 1391.63 297.145 1396.99 283.432 1402.36 250.759 1407.72 260.493 1413.08 245.713 1418.44 217.531 1423.8 211.109 1429.16 173.986 1434.53 179.666 1439.89 195.844 1445.25 164.383 1450.61 202.22 1455.97 179.433 1461.33 229.027 1466.7 199.923 1472.06 221.004 1477.42 238.225 1488.14 227.184 1493.51 261.264 1498.87 269.102 1504.23 264.758 1509.59 350.029 1514.95 321.799 1520.31 372.046 1525.68 369.91 1531.04 396.924 1536.4 419.882 1541.76 423.344 1552.48 442.423 1557.85 456.305 1563.21 490.567 1568.57 459.646 1573.93 494.983 1579.29 488.043 1584.65 491.579 1590.02 484.054 1595.38 507.39 1600.74 497.989 1606.1 485.048 1611.46 440.299 1616.82 451.244 1622.19 411.937 1627.55 418.792 1632.91 389.25 1638.27 390.323 1643.63 378.143 1649 353.78 1654.36 308.81 1659.72 289.238 1665.08 301.955 1670.44 268.408 1681.17 225.776 1686.53 248.26 1691.89 225.476 1697.25 192.257 1702.61 200.417 1707.97 196.15 1713.34 208.096 1718.7 206.336 1724.06 189.743 1729.42 203.449 1734.78 212.003 1740.14 209.069 1745.51 241.026 1750.87 214.392 1756.23 261.845 1761.59 261.865 1766.95 263.483 1772.31 304.139 1777.68 301.764 1783.04 341.929 1788.4 375.133 1793.76 377.087 1799.12 366.546 1804.49 433.5 1809.85 428.595 1815.21 429.707 1820.57 463.587 1825.93 474.834 1831.29 477.022 1836.66 487.319 1842.02 493.083 1847.38 505.35 1852.74 482.856 1858.1 492.031 1863.46 475.914 1868.83 492.264 1874.19 463.53 1879.55 474.548 1884.91 449.205 1890.27 406.043 1895.63 393.149 1901 418.544 1906.36 378.122 1911.72 348.511 1917.08 360.417 1922.44 311.465 1927.8 281.915 1933.17 259.28 1938.53 278.781 1949.25 233.058 1954.61 226.103 1965.34 171.688 1970.7 214.715 1976.06 205.41 1981.42 188.31 1986.78 364.356 1992.15 342.644 1997.51 316.828 2002.87 305.456 2008.23 314.7 2013.59 297.909 2018.95 291.901 2024.32 289.044 2035.04 285.251 2040.4 255.896 2045.76 247.007 2051.12 257.425 2056.49 240.89 2061.85 255.868 2067.21 227.654 2072.57 207.762 2077.93 211.661 2083.3 211.64 2088.66 189.232 2094.02 198.369 2099.38 176.812 2104.74 182.034 2110.1 197.157 2115.47 197.668 2120.83 211.605 2126.19 184.288 2131.55 183.346 2136.91 203.034 2142.27 182.156 2147.64 199.883 2153 205.543 2158.36 187.899 2163.72 264.386 2169.08 227.831 2174.44 224.404 2179.81 222.139 2185.17 240.646 2190.53 228.226 2195.89 250.444 2201.25 256.725 2206.61 258.934 2211.98 274.069 2217.34 287.033 2222.7 292.803 2228.06 299.999 2233.42 302.903 2238.79 322.24 2244.15 327.367 2249.51 367.177 2254.87 319.636 2260.23 360.703 2265.59 356.319 2270.96 357.82 2276.32 399.514 2281.68 379.621 2287.04 416.715 2292.4 406.571 2297.76 376.764 2303.13 439.81 2308.49 447.952 2313.85 438.369 2319.21 455.435 2324.57 431.528 2329.93 454.741 2335.3 467.983 2340.66 492.161 2346.02 490.308 2351.38 485.499 2356.74 491.439 2362.1 474.813 2372.83 494.097 2378.19 482.689 2383.55 496.535 2388.91 468.223 2394.28 487.688 2399.64 501.889 2405 475.914 2410.36 473.111 2415.72 496.253 2421.08 484.806 2426.45 506.964 2431.81 456.54 2437.17 472.342 2442.53 477.791 2447.89 449.001 2453.25 445.276 2458.62 423.368 2463.98 415.867 2469.34 444.897 2474.7 404.591 2480.06 376.983 2485.42 406.485 2490.79 390.463 2496.15 396.68 2501.51 386.367 2506.87 384.387 2512.23 352.795 2517.6 348.656 2522.96 353.399 2528.32 354.277 2533.68 312.347 2539.04 332.986 2544.4 287.382 2549.77 265.819 2555.13 302.937 2560.49 298.249 2565.85 269.232 2571.21 265.207 2576.57 246.053 2581.94 244.257 2587.3 228.371 2592.66 221.158 2598.02 215.971 2603.38 222.044 2608.74 249.809 2614.11 206.422 2619.47 205.415 2624.83 208.491 2630.19 172.551 2635.55 208.101 2640.92 194.408 2646.28 205.497 2651.64 211.831 2657 202.784 2662.36 182.333 2667.72 185.286 2673.09 191.182 2683.81 211.003 2694.53 205.917 2699.89 225.555 2705.26 209.891 2710.62 217.147 2715.98 247.999 2726.7 236.374 2732.06 274.249 2737.43 244.762 2742.79 273.719 2748.15 296.084 2753.51 309.565 2758.87 283.767 2764.23 278.847 2769.6 312.498 2774.96 321.359 2780.32 336.122 2785.68 343.677 2791.04 346.444 2796.41 361.101 2801.77 354.784 2807.13 366.569 2812.49 376.051 2823.21 417.917 2828.58 388.853 2833.94 405.737 2839.3 443.495 2844.66 413.957 2850.02 422.678 2855.38 426.233 2860.75 457.974 2866.11 446.234 2871.47 481.329 2876.83 459.042 2882.19 477.634 2887.55 483.248 2898.28 482.548 2903.64 474.673 2909 503.076 2914.36 481.95 2919.72 491.852 2925.09 479.854 2935.81 515.714 2941.17 468.938 2946.53 495.017 2951.9 459.414 2957.26 461.701 2962.62 469.913 2967.98 483.678 2973.34 469.665 2978.7 437.077 2984.07 473.912 2989.43 409.957 2994.79 424.811 3000.15 419.226 3005.51 416.283 3010.87 406.672 3016.24 427.702 3026.96 381.598 3032.32 404.115 3037.68 377.506 3043.04 358.216 3048.41 342.494 3053.77 355.414 3059.13 197.336 3064.49 179.689 3069.85 197.677 3075.21 196.451 3080.58 199.137 3085.94 181.876 3091.3 176.457 3096.66 195.734 3102.02 225.744 3107.39 241.963 3118.11 189.353 3123.47 227.8 3128.83 241.46 3134.19 276.069 3139.56 251.719 3144.92 278.831 3150.28 264.925 3155.64 300.257 3161 286.049 3166.36 280.012 3171.73 276.775 3177.09 324.642 3182.45 345 3187.81 344.923 3193.17 349.613 3198.53 383.94 3203.9 330.561 3209.26 399.237 3214.62 342.411 3219.98 375.038 3225.34 376.413 3230.71 395.695 3236.07 409.498 3241.43 411.21 3246.79 421.933 3252.15 469.998 3257.51 464.961 3262.88 466.973 3268.24 459.279 3273.6 468.041 3278.96 459.794 3284.32 452.855 3289.68 454.046 3295.05 510.092 3300.41 494.565 3305.77 488.659 3311.13 451.039 3316.49 497.773 3321.85 481.841 3327.22 500.115 3332.58 494.164 3337.94 486.81 3343.3 471.692 3348.66 493.396 3354.02 501.028 3359.39 493.348 3364.75 465.988 3370.11 464.563 3375.47 416.61 3380.83 452.631 3386.2 456.186 3391.56 440.188 3396.92 433.249 3402.28 418.514 3407.64 441.102 3413 433.332 3418.37 393.216 3423.73 364.843 3429.09 407.704 3434.45 358.604 3439.81 375.632 3445.17 356.933 3450.54 377.205 3455.9 324.576 3461.26 357.88 3471.98 304.474 3477.34 324.349 3482.71 291.943 3488.07 303.67 3493.43 269.397 3498.79 253.63 3504.15 263.948 3509.52 248.328 3514.88 249.72 3520.24 238.803 3525.6 220.305 3530.96 234.274 3536.32 199.409 3541.69 211.113 3547.05 237.58 3552.41 184.334 3557.77 193.53 3563.13 187.034 3568.49 221.322 3573.86 213.893 3579.22 201.695 3584.58 177.587 3589.94 197.021 3589.94 197.021" stroke="#0000FF" stroke-width="6.59375" stroke-linecap="square" stroke-linejoin="round" fill="none" transform="matrix(1 0 0 1.00032 301 296)"/></g><g clip-path="url(#clip5)"><path d="M914.438 537.525 914.438 146.614" stroke="#000000" stroke-width="4.39583" stroke-linejoin="round" stroke-dasharray="16.2646 7.03333" fill="none" transform="matrix(1 0 0 1.00032 301 296)"/></g><g clip-path="url(#clip6)"><path d="M1450.61 537.525 1450.61 146.614" stroke="#000000" stroke-width="4.39583" stroke-linejoin="round" stroke-dasharray="16.2646 7.03333" fill="none" transform="matrix(1 0 0 1.00032 301 296)"/></g><g clip-path="url(#clip7)"><path d="M1986.78 537.525 1986.78 146.614" stroke="#000000" stroke-width="4.39583" stroke-linejoin="round" stroke-dasharray="16.2646 7.03333" fill="none" transform="matrix(1 0 0 1.00032 301 296)"/></g><g clip-path="url(#clip8)"><path d="M2522.96 537.525 2522.96 146.614" stroke="#000000" stroke-width="4.39583" stroke-linejoin="round" stroke-dasharray="16.2646 7.03333" fill="none" transform="matrix(1 0 0 1.00032 301 296)"/></g><g clip-path="url(#clip9)"><path d="M3059.13 537.525 3059.13 146.614" stroke="#000000" stroke-width="4.39583" stroke-linejoin="round" stroke-dasharray="16.2646 7.03333" fill="none" transform="matrix(1 0 0 1.00032 301 296)"/></g><path d="M217.682 537.525 217.682 146.614" stroke="#000000" stroke-width="3.51667" stroke-linecap="square" fill="none" transform="matrix(1 0 0 1.00032 301 296)"/><path d="M3750.52 537.525 3750.52 146.614" stroke="#000000" stroke-width="3.51667" stroke-linecap="square" fill="none" transform="matrix(1 0 0 1.00032 301 296)"/><path d="M217.682 537.525 3750.52 537.525" stroke="#000000" stroke-width="3.51667" stroke-linecap="square" fill="none" transform="matrix(1 0 0 1.00032 301 296)"/><path d="M217.682 146.614 3750.52 146.614" stroke="#000000" stroke-width="3.51667" stroke-linecap="square" fill="none" transform="matrix(1 0 0 1.00032 301 296)"/><path d="M646.352 88.6598C646.352 92.0185 646.352 93.739 646.352 93.8214" stroke="#000000" stroke-width="4.39583" stroke-linecap="round" stroke-linejoin="round" fill="none" transform="matrix(1 0 0 1.00032 301 296)"/><path d="M657.781 70.963 646.352 93.8214 634.923 70.963" stroke="#000000" stroke-width="4.39583" stroke-linecap="round" stroke-linejoin="round" fill="none" transform="matrix(1 0 0 1.00032 301 296)"/><path d="M31.198 6.22354 33.3767 17.1348 24.1084 17.1348 24.9745 21.769 39.761 21.769 36.1626 3.42875C33.6863 2.07154 30.9867 1.02386 28.064 0.285729 25.1471-0.446452 22.2095-0.812542 19.251-0.812542 14.0245-0.812542 9.93802 0.636938 6.99144 3.5359 4.04485 6.44081 2.57156 10.4797 2.57156 15.6526 2.57156 19.9504 3.46744 24.037 5.2592 27.9122 7.05691 31.7933 9.53621 35.0286 12.6971 37.618 14.6853 39.2312 16.861 40.4337 19.2242 41.2254 21.5874 42.0171 24.2096 42.4129 27.0907 42.4129 29.698 42.4129 32.1951 42.0825 34.5822 41.4218 36.9751 40.761 39.261 39.7699 41.4397 38.4484L40.2967 32.4481C38.6181 34.1982 36.6537 35.5346 34.4036 36.4573 32.1535 37.3799 29.7545 37.8413 27.2068 37.8413 24.2483 37.8413 21.644 37.2757 19.3939 36.1447 17.1437 35.0197 15.1347 33.2785 13.3668 30.9213 11.8607 28.9092 10.6732 26.5401 9.80408 23.8137 8.94094 21.0874 8.50937 18.3105 8.50937 15.4829 8.50937 11.5958 9.50347 8.67009 11.4917 6.70571 13.4858 4.74727 16.4532 3.76805 20.3939 3.76805 22.3702 3.76805 24.278 3.9764 26.1174 4.39309 27.9568 4.81573 29.6504 5.42588 31.198 6.22354Z" transform="matrix(1 0 0 -1.00032 911.636 391.222)"/><path d="M4.96276 3.31892 11.4068 3.31892 11.4068 25.5701 4.39398 24.1638 4.39398 27.7577 11.3693 29.164 15.3133 29.164 15.3133 3.31892 21.7574 3.31892 21.7574 0 4.96276 0 4.96276 3.31892Z" transform="matrix(1 0 0 -1.00032 955.918 400.6)"/><path d="M1182.52 88.6598C1182.52 92.0185 1182.52 93.739 1182.52 93.8214" stroke="#000000" stroke-width="4.39583" stroke-linecap="round" stroke-linejoin="round" fill="none" transform="matrix(1 0 0 1.00032 301 296)"/><path d="M1193.95 70.963 1182.52 93.8214 1171.1 70.963" stroke="#000000" stroke-width="4.39583" stroke-linecap="round" stroke-linejoin="round" fill="none" transform="matrix(1 0 0 1.00032 301 296)"/><path d="M31.198 6.22354 33.3767 17.1348 24.1084 17.1348 24.9745 21.769 39.761 21.769 36.1626 3.42875C33.6863 2.07154 30.9867 1.02386 28.064 0.285729 25.1471-0.446452 22.2095-0.812542 19.251-0.812542 14.0245-0.812542 9.93802 0.636938 6.99144 3.5359 4.04485 6.44081 2.57156 10.4797 2.57156 15.6526 2.57156 19.9504 3.46744 24.037 5.2592 27.9122 7.05691 31.7933 9.53621 35.0286 12.6971 37.618 14.6853 39.2312 16.861 40.4337 19.2242 41.2254 21.5874 42.0171 24.2096 42.4129 27.0907 42.4129 29.698 42.4129 32.1951 42.0825 34.5822 41.4218 36.9751 40.761 39.261 39.7699 41.4397 38.4484L40.2967 32.4481C38.6181 34.1982 36.6537 35.5346 34.4036 36.4573 32.1535 37.3799 29.7545 37.8413 27.2068 37.8413 24.2483 37.8413 21.644 37.2757 19.3939 36.1447 17.1437 35.0197 15.1347 33.2785 13.3668 30.9213 11.8607 28.9092 10.6732 26.5401 9.80408 23.8137 8.94094 21.0874 8.50937 18.3105 8.50937 15.4829 8.50937 11.5958 9.50347 8.67009 11.4917 6.70571 13.4858 4.74727 16.4532 3.76805 20.3939 3.76805 22.3702 3.76805 24.278 3.9764 26.1174 4.39309 27.9568 4.81573 29.6504 5.42588 31.198 6.22354Z" transform="matrix(1 0 0 -1.00032 1447.81 391.222)"/><path d="M7.6754 3.31892 21.4449 3.31892 21.4449 0 2.9314 0 2.9314 3.31892C4.42731 4.869 6.467 6.94828 9.05047 9.55675 11.6381 12.1694 13.2632 13.8549 13.9257 14.6133 15.1883 16.03 16.0696 17.2301 16.5696 18.2134 17.0738 19.1968 17.3259 20.1635 17.3259 21.1136 17.3259 22.6637 16.7821 23.9262 15.6946 24.9013 14.607 25.8805 13.1903 26.3701 11.4443 26.3701 10.2068 26.3701 8.90046 26.1555 7.52539 25.7263 6.15449 25.2971 4.68774 24.645 3.12516 23.77L3.12516 27.7577C4.71275 28.3952 6.19616 28.8765 7.57539 29.2015 8.9588 29.5265 10.2234 29.689 11.3693 29.689 14.3903 29.689 16.7988 28.9328 18.5947 27.4202 20.3906 25.9118 21.2886 23.895 21.2886 21.3699 21.2886 20.1698 21.0636 19.0322 20.6136 17.9572 20.1677 16.8863 19.351 15.6216 18.1634 14.1632 17.8384 13.784 16.803 12.6923 15.057 10.8881 13.3153 9.08381 10.8547 6.56076 7.6754 3.31892Z" transform="matrix(1 0 0 -1.00032 1492.09 400.6)"/><path d="M1718.7 88.6598C1718.7 92.0185 1718.7 93.739 1718.7 93.8214" stroke="#000000" stroke-width="4.39583" stroke-linecap="round" stroke-linejoin="round" fill="none" transform="matrix(1 0 0 1.00032 301 296)"/><path d="M1730.13 70.963 1718.7 93.8214 1707.27 70.963" stroke="#000000" stroke-width="4.39583" stroke-linecap="round" stroke-linejoin="round" fill="none" transform="matrix(1 0 0 1.00032 301 296)"/><path d="M31.198 6.22354 33.3767 17.1348 24.1084 17.1348 24.9745 21.769 39.761 21.769 36.1626 3.42875C33.6863 2.07154 30.9867 1.02386 28.064 0.285729 25.1471-0.446452 22.2095-0.812542 19.251-0.812542 14.0245-0.812542 9.93802 0.636938 6.99144 3.5359 4.04485 6.44081 2.57156 10.4797 2.57156 15.6526 2.57156 19.9504 3.46744 24.037 5.2592 27.9122 7.05691 31.7933 9.53621 35.0286 12.6971 37.618 14.6853 39.2312 16.861 40.4337 19.2242 41.2254 21.5874 42.0171 24.2096 42.4129 27.0907 42.4129 29.698 42.4129 32.1951 42.0825 34.5822 41.4218 36.9751 40.761 39.261 39.7699 41.4397 38.4484L40.2967 32.4481C38.6181 34.1982 36.6537 35.5346 34.4036 36.4573 32.1535 37.3799 29.7545 37.8413 27.2068 37.8413 24.2483 37.8413 21.644 37.2757 19.3939 36.1447 17.1437 35.0197 15.1347 33.2785 13.3668 30.9213 11.8607 28.9092 10.6732 26.5401 9.80408 23.8137 8.94094 21.0874 8.50937 18.3105 8.50937 15.4829 8.50937 11.5958 9.50347 8.67009 11.4917 6.70571 13.4858 4.74727 16.4532 3.76805 20.3939 3.76805 22.3702 3.76805 24.278 3.9764 26.1174 4.39309 27.9568 4.81573 29.6504 5.42588 31.198 6.22354Z" transform="matrix(1 0 0 -1.00032 1983.98 391.222)"/><path d="M7.6754 3.31892 21.4449 3.31892 21.4449 0 2.9314 0 2.9314 3.31892C4.42731 4.869 6.467 6.94828 9.05047 9.55675 11.6381 12.1694 13.2632 13.8549 13.9257 14.6133 15.1883 16.03 16.0696 17.2301 16.5696 18.2134 17.0738 19.1968 17.3259 20.1635 17.3259 21.1136 17.3259 22.6637 16.7821 23.9262 15.6946 24.9013 14.607 25.8805 13.1903 26.3701 11.4443 26.3701 10.2068 26.3701 8.90046 26.1555 7.52539 25.7263 6.15449 25.2971 4.68774 24.645 3.12516 23.77L3.12516 27.7577C4.71275 28.3952 6.19616 28.8765 7.57539 29.2015 8.9588 29.5265 10.2234 29.689 11.3693 29.689 14.3903 29.689 16.7988 28.9328 18.5947 27.4202 20.3906 25.9118 21.2886 23.895 21.2886 21.3699 21.2886 20.1698 21.0636 19.0322 20.6136 17.9572 20.1677 16.8863 19.351 15.6216 18.1634 14.1632 17.8384 13.784 16.803 12.6923 15.057 10.8881 13.3153 9.08381 10.8547 6.56076 7.6754 3.31892Z" transform="matrix(1 0 0 -1.00032 2028.26 400.6)"/><path d="M2254.87 88.6598C2254.87 92.0185 2254.87 93.739 2254.87 93.8214" stroke="#000000" stroke-width="4.39583" stroke-linecap="round" stroke-linejoin="round" fill="none" transform="matrix(1 0 0 1.00032 301 296)"/><path d="M2266.3 70.963 2254.87 93.8214 2243.44 70.963" stroke="#000000" stroke-width="4.39583" stroke-linecap="round" stroke-linejoin="round" fill="none" transform="matrix(1 0 0 1.00032 301 296)"/><path d="M31.198 6.22354 33.3767 17.1348 24.1084 17.1348 24.9745 21.769 39.761 21.769 36.1626 3.42875C33.6863 2.07154 30.9867 1.02386 28.064 0.285729 25.1471-0.446452 22.2095-0.812542 19.251-0.812542 14.0245-0.812542 9.93802 0.636938 6.99144 3.5359 4.04485 6.44081 2.57156 10.4797 2.57156 15.6526 2.57156 19.9504 3.46744 24.037 5.2592 27.9122 7.05691 31.7933 9.53621 35.0286 12.6971 37.618 14.6853 39.2312 16.861 40.4337 19.2242 41.2254 21.5874 42.0171 24.2096 42.4129 27.0907 42.4129 29.698 42.4129 32.1951 42.0825 34.5822 41.4218 36.9751 40.761 39.261 39.7699 41.4397 38.4484L40.2967 32.4481C38.6181 34.1982 36.6537 35.5346 34.4036 36.4573 32.1535 37.3799 29.7545 37.8413 27.2068 37.8413 24.2483 37.8413 21.644 37.2757 19.3939 36.1447 17.1437 35.0197 15.1347 33.2785 13.3668 30.9213 11.8607 28.9092 10.6732 26.5401 9.80408 23.8137 8.94094 21.0874 8.50937 18.3105 8.50937 15.4829 8.50937 11.5958 9.50347 8.67009 11.4917 6.70571 13.4858 4.74727 16.4532 3.76805 20.3939 3.76805 22.3702 3.76805 24.278 3.9764 26.1174 4.39309 27.9568 4.81573 29.6504 5.42588 31.198 6.22354Z" transform="matrix(1 0 0 -1.00032 2520.15 391.222)"/><path d="M4.96276 3.31892 11.4068 3.31892 11.4068 25.5701 4.39398 24.1638 4.39398 27.7577 11.3693 29.164 15.3133 29.164 15.3133 3.31892 21.7574 3.31892 21.7574 0 4.96276 0 4.96276 3.31892Z" transform="matrix(1 0 0 -1.00032 2564.44 400.6)"/><path d="M2791.04 88.6598C2791.04 92.0185 2791.04 93.739 2791.04 93.8214" stroke="#000000" stroke-width="4.39583" stroke-linecap="round" stroke-linejoin="round" fill="none" transform="matrix(1 0 0 1.00032 301 296)"/><path d="M2802.47 70.963 2791.04 93.8214 2779.61 70.963" stroke="#000000" stroke-width="4.39583" stroke-linecap="round" stroke-linejoin="round" fill="none" transform="matrix(1 0 0 1.00032 301 296)"/><path d="M31.198 6.22354 33.3767 17.1348 24.1084 17.1348 24.9745 21.769 39.761 21.769 36.1626 3.42875C33.6863 2.07154 30.9867 1.02386 28.064 0.285729 25.1471-0.446452 22.2095-0.812542 19.251-0.812542 14.0245-0.812542 9.93802 0.636938 6.99144 3.5359 4.04485 6.44081 2.57156 10.4797 2.57156 15.6526 2.57156 19.9504 3.46744 24.037 5.2592 27.9122 7.05691 31.7933 9.53621 35.0286 12.6971 37.618 14.6853 39.2312 16.861 40.4337 19.2242 41.2254 21.5874 42.0171 24.2096 42.4129 27.0907 42.4129 29.698 42.4129 32.1951 42.0825 34.5822 41.4218 36.9751 40.761 39.261 39.7699 41.4397 38.4484L40.2967 32.4481C38.6181 34.1982 36.6537 35.5346 34.4036 36.4573 32.1535 37.3799 29.7545 37.8413 27.2068 37.8413 24.2483 37.8413 21.644 37.2757 19.3939 36.1447 17.1437 35.0197 15.1347 33.2785 13.3668 30.9213 11.8607 28.9092 10.6732 26.5401 9.80408 23.8137 8.94094 21.0874 8.50937 18.3105 8.50937 15.4829 8.50937 11.5958 9.50347 8.67009 11.4917 6.70571 13.4858 4.74727 16.4532 3.76805 20.3939 3.76805 22.3702 3.76805 24.278 3.9764 26.1174 4.39309 27.9568 4.81573 29.6504 5.42588 31.198 6.22354Z" transform="matrix(1 0 0 -1.00032 3056.33 391.222)"/><path d="M4.96276 3.31892 11.4068 3.31892 11.4068 25.5701 4.39398 24.1638 4.39398 27.7577 11.3693 29.164 15.3133 29.164 15.3133 3.31892 21.7574 3.31892 21.7574 0 4.96276 0 4.96276 3.31892Z" transform="matrix(1 0 0 -1.00032 3100.61 400.6)"/><path d="M3327.22 88.6598C3327.22 92.0185 3327.22 93.739 3327.22 93.8214" stroke="#000000" stroke-width="4.39583" stroke-linecap="round" stroke-linejoin="round" fill="none" transform="matrix(1 0 0 1.00032 301 296)"/><path d="M3338.65 70.963 3327.22 93.8214 3315.79 70.963" stroke="#000000" stroke-width="4.39583" stroke-linecap="round" stroke-linejoin="round" fill="none" transform="matrix(1 0 0 1.00032 301 296)"/><path d="M31.198 6.22354 33.3767 17.1348 24.1084 17.1348 24.9745 21.769 39.761 21.769 36.1626 3.42875C33.6863 2.07154 30.9867 1.02386 28.064 0.285729 25.1471-0.446452 22.2095-0.812542 19.251-0.812542 14.0245-0.812542 9.93802 0.636938 6.99144 3.5359 4.04485 6.44081 2.57156 10.4797 2.57156 15.6526 2.57156 19.9504 3.46744 24.037 5.2592 27.9122 7.05691 31.7933 9.53621 35.0286 12.6971 37.618 14.6853 39.2312 16.861 40.4337 19.2242 41.2254 21.5874 42.0171 24.2096 42.4129 27.0907 42.4129 29.698 42.4129 32.1951 42.0825 34.5822 41.4218 36.9751 40.761 39.261 39.7699 41.4397 38.4484L40.2967 32.4481C38.6181 34.1982 36.6537 35.5346 34.4036 36.4573 32.1535 37.3799 29.7545 37.8413 27.2068 37.8413 24.2483 37.8413 21.644 37.2757 19.3939 36.1447 17.1437 35.0197 15.1347 33.2785 13.3668 30.9213 11.8607 28.9092 10.6732 26.5401 9.80408 23.8137 8.94094 21.0874 8.50937 18.3105 8.50937 15.4829 8.50937 11.5958 9.50347 8.67009 11.4917 6.70571 13.4858 4.74727 16.4532 3.76805 20.3939 3.76805 22.3702 3.76805 24.278 3.9764 26.1174 4.39309 27.9568 4.81573 29.6504 5.42588 31.198 6.22354Z" transform="matrix(1 0 0 -1.00032 3592.5 391.222)"/><path d="M16.2321 15.7258C18.1197 15.3216 19.5927 14.4799 20.6511 13.2007 21.7136 11.9256 22.2449 10.3505 22.2449 8.47544 22.2449 5.60029 21.2553 3.37309 19.276 1.79384 17.2967 0.218761 14.4841-0.56878 10.8381-0.56878 9.61717-0.56878 8.35877-0.44794 7.06287-0.206261 5.76697 0.0354185 4.4294 0.397937 3.05016 0.881296L3.05016 4.68774C4.14188 4.05021 5.33778 3.56894 6.63785 3.24392 7.94208 2.9189 9.30465 2.75639 10.7256 2.75639 13.1965 2.75639 15.08 3.24392 16.3759 4.21897 17.6718 5.19402 18.3197 6.61284 18.3197 8.47544 18.3197 10.1964 17.7176 11.5402 16.5134 12.5069 15.3091 13.4778 13.634 13.9632 11.4881 13.9632L8.08792 13.9632 8.08792 17.2071 11.6444 17.2071C13.582 17.2071 15.0654 17.5947 16.0946 18.3697 17.1238 19.1447 17.6384 20.2615 17.6384 21.7199 17.6384 23.2158 17.1071 24.3638 16.0446 25.1638 14.9862 25.968 13.4674 26.3701 11.4881 26.3701 10.4047 26.3701 9.24423 26.2514 8.00667 26.0139 6.7691 25.7805 5.40861 25.418 3.9252 24.9263L3.9252 28.439C5.42528 28.8557 6.82952 29.1682 8.13792 29.3765 9.44633 29.5849 10.6797 29.689 11.8381 29.689 14.8341 29.689 17.203 29.0078 18.9447 27.6452 20.6907 26.2868 21.5636 24.4492 21.5636 22.1324 21.5636 20.5156 21.1011 19.151 20.1761 18.0384 19.251 16.9259 17.9363 16.155 16.2321 15.7258Z" transform="matrix(1 0 0 -1.00032 3636.78 400.6)"/><path d="M217.682 991.297 3750.52 991.297 3750.52 600.386 217.682 600.386Z" fill="#FFFFFF" transform="matrix(1 0 0 1.00032 301 296)"/><path d="M0 0 0 15.3854" stroke="#000000" stroke-width="3.51667" stroke-linejoin="round" fill="none" transform="matrix(1 0 0 1.00032 947.352 1287.61)"/><path d="M0 0 0 15.3854" stroke="#000000" stroke-width="3.51667" stroke-linejoin="round" fill="none" transform="matrix(1 0 0 1.00032 1483.52 1287.61)"/><path d="M0 0 0 15.3854" stroke="#000000" stroke-width="3.51667" stroke-linejoin="round" fill="none" transform="matrix(1 0 0 1.00032 2019.7 1287.61)"/><path d="M0 0 0 15.3854" stroke="#000000" stroke-width="3.51667" stroke-linejoin="round" fill="none" transform="matrix(1 0 0 1.00032 2555.87 1287.61)"/><path d="M0 0 0 15.3854" stroke="#000000" stroke-width="3.51667" stroke-linejoin="round" fill="none" transform="matrix(1 0 0 1.00032 3092.04 1287.61)"/><path d="M0 0 0 15.3854" stroke="#000000" stroke-width="3.51667" stroke-linejoin="round" fill="none" transform="matrix(1 0 0 1.00032 3628.22 1287.61)"/><path d="M0 0-15.3854 0" stroke="#000000" stroke-width="3.51667" stroke-linejoin="round" fill="none" transform="matrix(1 0 0 1.00032 518.682 1237.71)"/><path d="M4.65684 15.6052 32.172 15.6052 32.172 11.958 4.65684 11.958 4.65684 15.6052Z" transform="matrix(1 0 0 -1.00032 423.107 1254.41)"/><path d="M5.45358 3.64717 12.535 3.64717 12.535 28.099 4.82855 26.5536 4.82855 30.503 12.4938 32.0484 16.8278 32.0484 16.8278 3.64717 23.9092 3.64717 23.9092 0 5.45358 0 5.45358 3.64717Z" transform="matrix(1 0 0 -1.00032 459.939 1254.41)"/><path d="M0 0-15.3854 0" stroke="#000000" stroke-width="3.51667" stroke-linejoin="round" fill="none" transform="matrix(1 0 0 1.00032 518.682 1088.7)"/><path d="M13.9705 29.1911C11.7405 29.1911 10.0623 28.0921 8.9359 25.8942 7.81405 23.7009 7.25312 20.3994 7.25312 15.9898 7.25312 11.5986 7.81405 8.304 8.9359 6.10609 10.0623 3.90817 11.7405 2.80921 13.9705 2.80921 16.2188 2.80921 17.9039 3.90817 19.0257 6.10609 20.1521 8.304 20.7154 11.5986 20.7154 15.9898 20.7154 20.3994 20.1521 23.7009 19.0257 25.8942 17.9039 28.0921 16.2188 29.1911 13.9705 29.1911ZM13.9705 32.6253C17.565 32.6253 20.3101 31.2035 22.2058 28.36 24.1015 25.521 25.0494 21.3976 25.0494 15.9898 25.0494 10.5958 24.1015 6.47698 22.2058 3.63343 20.3101 0.794455 17.565-0.625032 13.9705-0.625032 10.3806-0.625032 7.63776 0.794455 5.74206 3.63343 3.84635 6.47698 2.8985 10.5958 2.8985 15.9898 2.8985 21.3976 3.84635 25.521 5.74206 28.36 7.63776 31.2035 10.3806 32.6253 13.9705 32.6253Z" transform="matrix(1 0 0 -1.00032 459.942 1105.41)"/><path d="M0 0-15.3854 0" stroke="#000000" stroke-width="3.51667" stroke-linejoin="round" fill="none" transform="matrix(1 0 0 1.00032 518.682 939.699)"/><path d="M5.45358 3.64717 12.535 3.64717 12.535 28.099 4.82855 26.5536 4.82855 30.503 12.4938 32.0484 16.8278 32.0484 16.8278 3.64717 23.9092 3.64717 23.9092 0 5.45358 0 5.45358 3.64717Z" transform="matrix(1 0 0 -1.00032 459.942 956.405)"/><path d="M34.2964 31.2516 19.9475 15.9294 28.7426 0 22.8494 0 16.2419 12.3935 4.74132 0-1.48222 0 13.8936 16.4651 5.72351 31.2516 11.6077 31.2516 17.6081 19.9475 28.0729 31.2516 34.2964 31.2516Z" transform="matrix(6.12323e-17 -1.00032 -1 -6.12517e-17 393.46 1122.68)"/><path d="M7.6754 3.31892 21.4449 3.31892 21.4449 0 2.9314 0 2.9314 3.31892C4.42731 4.869 6.467 6.94828 9.05047 9.55675 11.6381 12.1694 13.2632 13.8549 13.9257 14.6133 15.1883 16.03 16.0696 17.2301 16.5696 18.2134 17.0738 19.1968 17.3259 20.1635 17.3259 21.1136 17.3259 22.6637 16.7821 23.9262 15.6946 24.9013 14.607 25.8805 13.1903 26.3701 11.4443 26.3701 10.2068 26.3701 8.90046 26.1555 7.52539 25.7263 6.15449 25.2971 4.68774 24.645 3.12516 23.77L3.12516 27.7577C4.71275 28.3952 6.19616 28.8765 7.57539 29.2015 8.9588 29.5265 10.2234 29.689 11.3693 29.689 14.3903 29.689 16.7988 28.9328 18.5947 27.4202 20.3906 25.9118 21.2886 23.895 21.2886 21.3699 21.2886 20.1698 21.0636 19.0322 20.6136 17.9572 20.1677 16.8863 19.351 15.6216 18.1634 14.1632 17.8384 13.784 16.803 12.6923 15.057 10.8881 13.3153 9.08381 10.8547 6.56076 7.6754 3.31892Z" transform="matrix(6.12323e-17 -1.00032 -1 -6.12517e-17 402.836 1088.85)"/><g clip-path="url(#clip10)"><path d="M378.265 648.05 383.627 642.728 388.989 671.255 394.351 625.317 399.712 646.044 405.074 637.327 410.436 673.303 415.798 650.399 421.159 655.67 426.521 675.485 431.883 692.807 437.244 675.525 442.606 667.814 447.968 683.093 453.33 679.689 458.691 709.506 464.053 687.782 469.415 724.658 474.777 737.873 480.138 731.569 485.5 757.781 490.862 773.348 501.585 783.713 506.947 775.519 512.309 777.129 523.032 816.547 528.394 820.121 533.756 841.787 539.117 856.341 544.479 851.886 549.841 859.741 555.202 874.937 560.564 868.857 565.926 880.925 571.288 891.242 576.649 869.501 582.011 912.006 587.373 922.978 592.735 918.862 598.096 947.593 603.458 949.02 614.182 914.679 619.543 956.995 624.905 920.833 630.267 909.964 635.628 942.594 640.99 970.118 646.352 936.969 651.714 943.46 657.075 941.003 662.437 906.269 667.799 945.317 673.161 913.435 678.522 920.696 683.884 940.872 694.607 895.101 699.969 893.252 705.331 910.067 710.693 877.099 716.054 877.497 726.778 884.059 732.14 863.569 737.501 859.401 742.863 839.821 748.225 834.823 753.586 842.815 758.948 826.601 764.31 830.604 769.672 799.833 775.033 789.543 780.395 790.384 785.757 782.157 791.119 766.142 796.48 747.996 801.842 739.031 807.204 742.177 812.565 708.33 817.927 725.941 823.289 702.517 828.651 712.974 834.012 681.716 839.374 679.082 844.736 681.931 850.098 661.568 855.459 689.094 860.821 637.59 866.183 650.531 871.544 650.368 876.906 654.327 882.268 669.14 887.63 667.637 892.991 658.458 898.353 636.338 903.715 653.638 909.077 650.69 914.438 785.219 919.8 802.351 925.162 776.803 930.523 758.776 935.885 759.992 941.247 745.176 946.609 712.288 951.97 711.329 957.332 729.255 962.694 717.216 968.056 694.076 973.417 705.823 978.779 668.17 984.141 680.344 989.503 683.105 994.864 683.82 1000.23 661.805 1005.59 687.986 1010.95 656.145 1016.31 648.981 1021.67 663.717 1027.03 648.238 1032.4 636.229 1037.76 655.161 1043.12 622.16 1048.48 660.482 1053.84 622.551 1059.2 645.344 1064.57 630.278 1069.93 648.432 1075.29 656.847 1080.65 689.158 1086.01 650.629 1091.38 669.638 1096.74 664.399 1102.1 683.555 1107.46 671.804 1112.82 667.558 1118.18 702.96 1123.55 699.249 1128.91 689.883 1134.27 715.831 1139.63 727.058 1144.99 704.682 1150.35 711.12 1155.72 747.794 1161.08 747.487 1166.44 778.133 1171.8 758.516 1177.16 790.333 1182.52 813.54 1187.89 820.601 1193.25 800.871 1198.61 832.778 1203.97 829.616 1209.33 821.854 1214.7 867.216 1220.06 866.503 1225.42 847.037 1230.78 870.395 1236.14 898.852 1241.5 882.113 1246.87 880.81 1252.23 916.266 1257.59 895.959 1262.95 914.848 1268.31 937.339 1273.67 940.502 1279.04 933.221 1284.4 928.101 1289.76 951.475 1295.12 962.001 1300.48 945.359 1305.84 919.187 1311.21 965.871 1316.57 940.753 1321.93 920.537 1327.29 929.057 1332.65 932.501 1338.01 938.144 1343.38 956.949 1348.74 943.261 1354.1 915.593 1359.46 918.042 1364.82 897.591 1370.19 905.337 1375.55 916.735 1380.91 896.172 1386.27 867.519 1391.63 890.747 1396.99 882.125 1402.36 855.933 1407.72 845.095 1413.08 861.123 1418.44 812.891 1423.8 831.752 1429.16 833.85 1434.53 806.761 1439.89 809.072 1445.25 813.906 1450.61 794.09 1455.97 784.737 1461.33 781.728 1466.7 779.356 1472.06 755.923 1477.42 741.413 1482.78 750.086 1488.14 736.778 1493.51 707.222 1498.87 724.876 1504.23 702.089 1509.59 707.635 1514.95 705.144 1520.31 703.56 1525.68 655.267 1531.04 675.107 1536.4 654.483 1541.76 675.37 1547.12 652.669 1552.48 644.624 1557.85 641.896 1563.21 647.735 1568.57 682.402 1573.93 651.98 1579.29 636.171 1584.65 638.921 1590.02 669.408 1595.38 629.443 1600.74 640.396 1606.1 660.004 1611.46 654.652 1616.82 652.534 1622.19 632.11 1627.55 669.696 1638.27 669.358 1643.63 691.253 1649 684.208 1654.36 683.633 1659.72 707.673 1665.08 689.785 1670.44 698.916 1675.8 750.304 1681.17 713.045 1686.53 737.482 1691.89 755.875 1697.25 770.887 1702.61 746.005 1707.97 755.413 1713.34 784.576 1718.7 827.831 1724.06 815.127 1729.42 798.94 1734.78 819.199 1740.14 848.723 1745.51 816.44 1750.87 827.945 1756.23 840.918 1761.59 857.115 1766.95 860.658 1772.31 866.605 1777.68 888.791 1783.04 891.677 1788.4 897.132 1793.76 897.829 1799.12 919.759 1804.49 923.172 1809.85 925.077 1815.21 910.92 1820.57 933.547 1825.93 952.384 1831.29 940.696 1836.66 963.16 1842.02 924.703 1847.38 959.797 1852.74 931.312 1858.1 916.643 1863.46 925.616 1868.83 928.367 1874.19 934.57 1879.55 927.168 1884.91 912.018 1890.27 930.155 1895.63 939.803 1901 929.797 1906.36 901.44 1911.72 922.938 1917.08 888.265 1922.44 902.106 1927.8 911.206 1933.17 872.882 1938.53 887.773 1943.89 840.219 1949.25 877.312 1954.61 832.995 1959.98 814.896 1965.34 840.533 1970.7 835.324 1976.06 782.247 1981.42 761.196 1986.78 631.614 1997.51 659.19 2002.87 625.566 2008.23 669.522 2013.59 667.268 2018.95 641.31 2024.32 670.062 2029.68 661.841 2035.04 674.649 2040.4 712.057 2045.76 709.403 2051.12 700.118 2056.49 692.778 2061.85 690.388 2067.21 700.58 2072.57 724.156 2077.93 733.225 2083.3 719.307 2088.66 722.825 2094.02 755.279 2099.38 783.311 2104.74 758.861 2110.1 768.446 2115.47 768.393 2120.83 807.732 2126.19 807.295 2131.55 818.606 2136.91 836.283 2142.27 825.92 2147.64 834.568 2153 832.165 2158.36 875.27 2163.72 874.547 2169.08 863.95 2174.44 869.194 2179.81 911.386 2185.17 888.914 2190.53 886.626 2195.89 935.002 2201.25 929.999 2206.61 921.542 2211.98 919.236 2217.34 921.001 2222.7 927.061 2228.06 951.043 2233.42 934.27 2238.79 921.161 2244.15 929.188 2249.51 973.528 2254.87 944.264 2260.23 953.592 2265.59 927.952 2270.96 931.094 2276.32 928.865 2281.68 906.659 2287.04 941.566 2292.4 915.575 2297.76 922.088 2303.13 923.376 2308.49 906.052 2313.85 892.745 2319.21 891.541 2324.57 909.003 2329.93 914.56 2335.3 891.163 2340.66 847.017 2346.02 844.288 2351.38 868.347 2356.74 856.175 2362.1 824.814 2367.47 839.773 2372.83 801.736 2378.19 781.643 2383.55 789.137 2388.91 791.293 2394.28 783.523 2399.64 783.051 2405 779.274 2410.36 729.655 2415.72 739.92 2421.08 741.524 2426.45 720.649 2431.81 723.743 2437.17 723.046 2442.53 715.264 2447.89 688.372 2453.25 692.717 2458.62 692.398 2463.98 676.257 2469.34 679.343 2474.7 678.972 2480.06 655.81 2485.42 650.12 2490.79 658.607 2496.15 652.185 2506.87 666.249 2512.23 667.796 2517.6 634.533 2522.96 656.127 2528.32 619.33 2533.68 655.568 2539.04 618.154 2544.4 651.299 2549.77 658.557 2555.13 649.716 2560.49 657.336 2565.85 651.635 2571.21 634.099 2576.57 676.551 2581.94 670.415 2587.3 684.34 2592.66 680.53 2598.02 695.267 2603.38 689.014 2608.74 727.294 2614.11 731.324 2619.47 733.276 2624.83 756.902 2630.19 732.01 2640.92 777.123 2646.28 776.232 2651.64 791.023 2657 818.687 2662.36 791.884 2667.72 842.916 2673.09 824.801 2678.45 827.949 2683.81 843.717 2689.17 842.363 2694.53 854.23 2699.89 876.366 2705.26 870.52 2710.62 894.09 2715.98 874.638 2721.34 899.973 2726.7 908.076 2732.06 906.725 2737.43 901.081 2742.79 919.415 2748.15 962.977 2753.51 919.772 2758.87 908.58 2764.23 911.63 2769.6 939.955 2774.96 944.691 2785.68 915.945 2791.04 942.624 2796.41 925.183 2801.77 962.882 2807.13 925.643 2812.49 927.869 2817.85 907.562 2823.21 926.787 2828.58 932.343 2833.94 895.87 2839.3 902.156 2844.66 921.075 2850.02 915.551 2855.38 892.136 2860.75 914.378 2866.11 914.412 2871.47 897.192 2876.83 858.027 2882.19 841.45 2887.55 828.518 2892.92 847.478 2898.28 839.484 2903.64 840.7 2909 803.055 2914.36 809.763 2919.72 813.001 2925.09 795.008 2930.45 791.032 2935.81 753.421 2941.17 743.291 2946.53 739.633 2951.9 765.445 2957.26 762.907 2962.62 732.882 2967.98 698.264 2973.34 692.794 2978.7 686.541 2984.07 695.121 2989.43 688.014 2994.79 670.068 3000.15 683.397 3005.51 670.488 3010.87 650.814 3016.24 679.563 3021.6 629.43 3026.96 671.145 3032.32 633.634 3037.68 634.957 3043.04 654.188 3048.41 656.792 3053.77 646.723 3059.13 651.17 3064.49 631.414 3069.85 648.425 3075.21 638.929 3080.58 649.632 3085.94 631.276 3091.3 628.737 3096.66 643.653 3102.02 680.185 3107.39 699.943 3112.75 668.535 3118.11 631.211 3123.47 700.045 3128.83 681.534 3134.19 720.392 3139.56 715.948 3144.92 746.704 3150.28 708.435 3155.64 758.765 3166.36 721.288 3171.73 737.641 3177.09 775.152 3182.45 790.93 3187.81 795.892 3193.17 795.269 3198.53 832.277 3203.9 783.466 3209.26 849.78 3214.62 804.707 3219.98 823.324 3225.34 824.893 3236.07 854.738 3241.43 876.021 3246.79 873.822 3252.15 934.747 3257.51 916.529 3268.24 919.465 3273.6 909.731 3278.96 916.631 3284.32 903.179 3289.68 904.887 3295.05 957.403 3300.41 937.201 3305.77 937.986 3311.13 892.836 3316.49 953.13 3321.85 939.268 3327.22 945.539 3332.58 942.68 3337.94 927.552 3343.3 920.81 3348.66 959.469 3354.02 957.002 3359.39 937.688 3364.75 915.641 3370.11 909.507 3375.47 867.516 3380.83 904.384 3386.2 895.585 3391.56 889.978 3396.92 879.646 3402.28 875.022 3407.64 895.537 3413 878.211 3423.73 815.845 3429.09 855.516 3434.45 801.585 3439.81 829.838 3445.17 797.107 3450.54 819.701 3455.9 775.057 3461.26 810.527 3466.62 774.968 3471.98 765.568 3477.34 768.542 3482.71 747.367 3488.07 751.478 3493.43 722.825 3498.79 715.311 3504.15 712.883 3509.52 700.637 3514.88 695.958 3520.24 695.046 3525.6 654.471 3530.96 677.225 3536.32 647.109 3547.05 690.987 3552.41 635.83 3557.77 639.109 3563.13 651.682 3568.49 670.045 3573.86 679.004 3579.22 648.032 3584.58 636.302 3589.94 652.789 3589.94 652.789" stroke="#0000FF" stroke-width="6.59375" stroke-linecap="square" stroke-linejoin="round" fill="none" transform="matrix(1 0 0 1.00032 301 296)"/></g><g clip-path="url(#clip11)"><path d="M914.438 991.297 914.438 600.386" stroke="#000000" stroke-width="4.39583" stroke-linejoin="round" stroke-dasharray="16.2646 7.03333" fill="none" transform="matrix(1 0 0 1.00032 301 296)"/></g><g clip-path="url(#clip12)"><path d="M1450.61 991.297 1450.61 600.386" stroke="#000000" stroke-width="4.39583" stroke-linejoin="round" stroke-dasharray="16.2646 7.03333" fill="none" transform="matrix(1 0 0 1.00032 301 296)"/></g><g clip-path="url(#clip13)"><path d="M1986.78 991.297 1986.78 600.386" stroke="#000000" stroke-width="4.39583" stroke-linejoin="round" stroke-dasharray="16.2646 7.03333" fill="none" transform="matrix(1 0 0 1.00032 301 296)"/></g><g clip-path="url(#clip14)"><path d="M2522.96 991.297 2522.96 600.386" stroke="#000000" stroke-width="4.39583" stroke-linejoin="round" stroke-dasharray="16.2646 7.03333" fill="none" transform="matrix(1 0 0 1.00032 301 296)"/></g><g clip-path="url(#clip15)"><path d="M3059.13 991.297 3059.13 600.386" stroke="#000000" stroke-width="4.39583" stroke-linejoin="round" stroke-dasharray="16.2646 7.03333" fill="none" transform="matrix(1 0 0 1.00032 301 296)"/></g><path d="M217.682 991.297 217.682 600.386" stroke="#000000" stroke-width="3.51667" stroke-linecap="square" fill="none" transform="matrix(1 0 0 1.00032 301 296)"/><path d="M3750.52 991.297 3750.52 600.386" stroke="#000000" stroke-width="3.51667" stroke-linecap="square" fill="none" transform="matrix(1 0 0 1.00032 301 296)"/><path d="M217.682 991.297 3750.52 991.297" stroke="#000000" stroke-width="3.51667" stroke-linecap="square" fill="none" transform="matrix(1 0 0 1.00032 301 296)"/><path d="M217.682 600.386 3750.52 600.386" stroke="#000000" stroke-width="3.51667" stroke-linecap="square" fill="none" transform="matrix(1 0 0 1.00032 301 296)"/><path d="M217.682 1445.07 3750.52 1445.07 3750.52 1054.16 217.682 1054.16Z" fill="#FFFFFF" transform="matrix(1 0 0 1.00032 301 296)"/><path d="M0 0 0 15.3854" stroke="#000000" stroke-width="3.51667" stroke-linejoin="round" fill="none" transform="matrix(1 0 0 1.00032 947.352 1741.53)"/><path d="M22.3034 28.8477 21.5863 25.1634 12.1325 25.1634 9.06641 9.50324C8.962 8.92079 8.88508 8.43176 8.83562 8.03613 8.78617 7.64051 8.76145 7.3328 8.76145 7.11301 8.76145 6.01405 9.09113 5.21456 9.75051 4.71453 10.4099 4.21451 11.4704 3.96449 12.932 3.96449L17.7207 3.96449 16.9212 0 12.388 0C9.57467 0 7.47566 0.549479 6.09098 1.64844 4.71178 2.7474 4.02219 4.41232 4.02219 6.6432 4.02219 7.03883 4.04691 7.47292 4.09637 7.94547 4.14582 8.41802 4.22275 8.93728 4.32715 9.50324L7.39324 25.1634 3.37105 25.1634 4.12109 28.8477 8.06086 28.8477 9.65984 37.0404 14.3991 37.0404 12.8248 28.8477 22.3034 28.8477Z" transform="matrix(1 0 0 -1.00032 924.406 1811.99)"/><path d="M4.58101 3.06362 10.5294 3.06362 10.5294 23.6032 4.05598 22.305 4.05598 25.6225 10.4948 26.9206 14.1354 26.9206 14.1354 3.06362 20.0837 3.06362 20.0837 0 4.58101 0 4.58101 3.06362Z" transform="matrix(1 0 0 -1.00032 945.089 1820.64)"/><path d="M0 0 0 15.3854" stroke="#000000" stroke-width="3.51667" stroke-linejoin="round" fill="none" transform="matrix(1 0 0 1.00032 1483.52 1741.53)"/><path d="M22.3034 28.8477 21.5863 25.1634 12.1325 25.1634 9.06641 9.50324C8.962 8.92079 8.88508 8.43176 8.83562 8.03613 8.78617 7.64051 8.76145 7.3328 8.76145 7.11301 8.76145 6.01405 9.09113 5.21456 9.75051 4.71453 10.4099 4.21451 11.4704 3.96449 12.932 3.96449L17.7207 3.96449 16.9212 0 12.388 0C9.57467 0 7.47566 0.549479 6.09098 1.64844 4.71178 2.7474 4.02219 4.41232 4.02219 6.6432 4.02219 7.03883 4.04691 7.47292 4.09637 7.94547 4.14582 8.41802 4.22275 8.93728 4.32715 9.50324L7.39324 25.1634 3.37105 25.1634 4.12109 28.8477 8.06086 28.8477 9.65984 37.0404 14.3991 37.0404 12.8248 28.8477 22.3034 28.8477Z" transform="matrix(1 0 0 -1.00032 1460.58 1811.99)"/><path d="M7.08498 3.06362 19.7953 3.06362 19.7953 0 2.70591 0 2.70591 3.06362C4.08675 4.49446 5.96954 6.41379 8.35428 8.82161 10.7429 11.2333 12.2429 12.7891 12.8545 13.4892 14.02 14.7969 14.8335 15.9047 15.295 16.8124 15.7604 17.7202 15.9931 18.6125 15.9931 19.4895 15.9931 20.9203 15.4912 22.0858 14.4873 22.9858 13.4834 23.8897 12.1756 24.3417 10.564 24.3417 9.42164 24.3417 8.21581 24.1436 6.94652 23.7474 5.68106 23.3512 4.32715 22.7493 2.88477 21.9415L2.88477 25.6225C4.35023 26.211 5.71953 26.6552 6.99267 26.9552 8.26966 27.2553 9.43703 27.4053 10.4948 27.4053 13.2834 27.4053 15.5066 26.7072 17.1644 25.3109 18.8221 23.9186 19.651 22.0569 19.651 19.726 19.651 18.6183 19.4433 17.5682 19.0279 16.5759 18.6164 15.5873 17.8625 14.42 16.7663 13.0738 16.4662 12.7237 15.5104 11.716 13.8988 10.0505 12.291 8.38505 10.0198 6.05608 7.08498 3.06362Z" transform="matrix(1 0 0 -1.00032 1481.26 1820.64)"/><path d="M0 0 0 15.3854" stroke="#000000" stroke-width="3.51667" stroke-linejoin="round" fill="none" transform="matrix(1 0 0 1.00032 2019.7 1741.53)"/><path d="M22.3034 28.8477 21.5863 25.1634 12.1325 25.1634 9.06641 9.50324C8.962 8.92079 8.88508 8.43176 8.83562 8.03613 8.78617 7.64051 8.76145 7.3328 8.76145 7.11301 8.76145 6.01405 9.09113 5.21456 9.75051 4.71453 10.4099 4.21451 11.4704 3.96449 12.932 3.96449L17.7207 3.96449 16.9212 0 12.388 0C9.57467 0 7.47566 0.549479 6.09098 1.64844 4.71178 2.7474 4.02219 4.41232 4.02219 6.6432 4.02219 7.03883 4.04691 7.47292 4.09637 7.94547 4.14582 8.41802 4.22275 8.93728 4.32715 9.50324L7.39324 25.1634 3.37105 25.1634 4.12109 28.8477 8.06086 28.8477 9.65984 37.0404 14.3991 37.0404 12.8248 28.8477 22.3034 28.8477Z" transform="matrix(1 0 0 -1.00032 1996.75 1811.99)"/><path d="M14.9835 14.5161C16.7259 14.143 18.0856 13.3661 19.0625 12.1852 20.0434 11.0083 20.5338 9.55434 20.5338 7.82348 20.5338 5.1695 19.6203 3.11362 17.7932 1.65586 15.9662 0.201934 13.3699-0.525027 10.0044-0.525027 8.87738-0.525027 7.71579-0.413483 6.51957-0.190395 5.32335 0.032694 4.08867 0.367327 2.81553 0.813504L2.81553 4.32715C3.82328 3.73866 4.92718 3.2944 6.12724 2.99439 7.33115 2.69437 8.58891 2.54436 9.90051 2.54436 12.1814 2.54436 13.92 2.99439 15.1162 3.89443 16.3124 4.79448 16.9105 6.10416 16.9105 7.82348 16.9105 9.41203 16.3547 10.6525 15.2431 11.5448 14.1315 12.441 12.5853 12.8891 10.6044 12.8891L7.46577 12.8891 7.46577 15.8835 10.7486 15.8835C12.5372 15.8835 13.9065 16.2412 14.8565 16.9567 15.8066 17.6721 16.2816 18.7029 16.2816 20.0491 16.2816 21.43 15.7912 22.4896 14.8104 23.2281 13.8334 23.9705 12.4314 24.3417 10.6044 24.3417 9.60435 24.3417 8.53314 24.232 7.39077 24.0128 6.2484 23.7974 4.99257 23.4628 3.62327 23.0089L3.62327 26.2514C5.00795 26.636 6.30417 26.9245 7.51193 27.1168 8.71968 27.3091 9.8582 27.4053 10.9275 27.4053 13.693 27.4053 15.8797 26.7764 17.4874 25.5186 19.0991 24.2647 19.9049 22.5685 19.9049 20.4299 19.9049 18.9375 19.4779 17.6778 18.624 16.6509 17.7702 15.6239 16.5566 14.9123 14.9835 14.5161Z" transform="matrix(1 0 0 -1.00032 2017.43 1820.64)"/><path d="M0 0 0 15.3854" stroke="#000000" stroke-width="3.51667" stroke-linejoin="round" fill="none" transform="matrix(1 0 0 1.00032 2555.87 1741.53)"/><path d="M22.3034 28.8477 21.5863 25.1634 12.1325 25.1634 9.06641 9.50324C8.962 8.92079 8.88508 8.43176 8.83562 8.03613 8.78617 7.64051 8.76145 7.3328 8.76145 7.11301 8.76145 6.01405 9.09113 5.21456 9.75051 4.71453 10.4099 4.21451 11.4704 3.96449 12.932 3.96449L17.7207 3.96449 16.9212 0 12.388 0C9.57467 0 7.47566 0.549479 6.09098 1.64844 4.71178 2.7474 4.02219 4.41232 4.02219 6.6432 4.02219 7.03883 4.04691 7.47292 4.09637 7.94547 4.14582 8.41802 4.22275 8.93728 4.32715 9.50324L7.39324 25.1634 3.37105 25.1634 4.12109 28.8477 8.06086 28.8477 9.65984 37.0404 14.3991 37.0404 12.8248 28.8477 22.3034 28.8477Z" transform="matrix(1 0 0 -1.00032 2532.92 1811.99)"/><path d="M13.9565 23.7474 4.75986 9.37549 13.9565 9.37549 13.9565 23.7474ZM12.9988 26.9206 17.5798 26.9206 17.5798 9.37549 21.4223 9.37549 21.4223 6.34648 17.5798 6.34648 17.5798 0 13.9565 0 13.9565 6.34648 1.80586 6.34648 1.80586 9.86013 12.9988 26.9206Z" transform="matrix(1 0 0 -1.00032 2553.61 1820.64)"/><path d="M0 0 0 15.3854" stroke="#000000" stroke-width="3.51667" stroke-linejoin="round" fill="none" transform="matrix(1 0 0 1.00032 3092.04 1741.53)"/><path d="M22.3034 28.8477 21.5863 25.1634 12.1325 25.1634 9.06641 9.50324C8.962 8.92079 8.88508 8.43176 8.83562 8.03613 8.78617 7.64051 8.76145 7.3328 8.76145 7.11301 8.76145 6.01405 9.09113 5.21456 9.75051 4.71453 10.4099 4.21451 11.4704 3.96449 12.932 3.96449L17.7207 3.96449 16.9212 0 12.388 0C9.57467 0 7.47566 0.549479 6.09098 1.64844 4.71178 2.7474 4.02219 4.41232 4.02219 6.6432 4.02219 7.03883 4.04691 7.47292 4.09637 7.94547 4.14582 8.41802 4.22275 8.93728 4.32715 9.50324L7.39324 25.1634 3.37105 25.1634 4.12109 28.8477 8.06086 28.8477 9.65984 37.0404 14.3991 37.0404 12.8248 28.8477 22.3034 28.8477Z" transform="matrix(1 0 0 -1.00032 3069.1 1811.99)"/><path d="M3.98675 26.9206 18.2836 26.9206 18.2836 23.8512 7.32153 23.8512 7.32153 17.2567C7.84849 17.4374 8.37543 17.5721 8.90239 17.6605 9.43318 17.749 9.96398 17.7932 10.4948 17.7932 13.4988 17.7932 15.8777 16.9701 17.6317 15.3239 19.3895 13.6776 20.2684 11.4487 20.2684 8.63699 20.2684 5.74068 19.3664 3.48864 17.5625 1.88087 15.7585 0.276937 13.2161-0.525027 9.93513-0.525027 8.8043-0.525027 7.65232-0.428868 6.47918-0.236551 5.30989-0.0442331 4.10021 0.244243 2.85015 0.628879L2.85015 4.29253C3.93097 3.70404 5.04834 3.26555 6.20225 2.97708 7.35615 2.6886 8.57545 2.54436 9.86013 2.54436 11.941 2.54436 13.5872 3.09055 14.7988 4.18291 16.0143 5.27527 16.622 6.75997 16.622 8.63699 16.622 10.5102 16.0143 11.9929 14.7988 13.0853 13.5872 14.1815 11.941 14.7296 9.86013 14.7296 8.887 14.7296 7.9158 14.6219 6.94652 14.4065 5.98108 14.1911 4.99449 13.8546 3.98675 13.3969L3.98675 26.9206Z" transform="matrix(1 0 0 -1.00032 3089.78 1820.64)"/><path d="M0 0 0 15.3854" stroke="#000000" stroke-width="3.51667" stroke-linejoin="round" fill="none" transform="matrix(1 0 0 1.00032 3628.22 1741.53)"/><path d="M22.3034 28.8477 21.5863 25.1634 12.1325 25.1634 9.06641 9.50324C8.962 8.92079 8.88508 8.43176 8.83562 8.03613 8.78617 7.64051 8.76145 7.3328 8.76145 7.11301 8.76145 6.01405 9.09113 5.21456 9.75051 4.71453 10.4099 4.21451 11.4704 3.96449 12.932 3.96449L17.7207 3.96449 16.9212 0 12.388 0C9.57467 0 7.47566 0.549479 6.09098 1.64844 4.71178 2.7474 4.02219 4.41232 4.02219 6.6432 4.02219 7.03883 4.04691 7.47292 4.09637 7.94547 4.14582 8.41802 4.22275 8.93728 4.32715 9.50324L7.39324 25.1634 3.37105 25.1634 4.12109 28.8477 8.06086 28.8477 9.65984 37.0404 14.3991 37.0404 12.8248 28.8477 22.3034 28.8477Z" transform="matrix(1 0 0 -1.00032 3605.27 1811.99)"/><path d="M12.191 14.9085C10.5563 14.9085 9.2601 14.3488 8.30235 13.2295 7.34846 12.1141 6.87151 10.5832 6.87151 8.63699 6.87151 6.70227 7.34846 5.17142 8.30235 4.04444 9.2601 2.92131 10.5563 2.35974 12.191 2.35974 13.8257 2.35974 15.12 2.92131 16.0739 4.04444 17.0278 5.17142 17.5048 6.70227 17.5048 8.63699 17.5048 10.5832 17.0278 12.1141 16.0739 13.2295 15.12 14.3488 13.8257 14.9085 12.191 14.9085ZM19.4202 26.3264 19.4202 23.0089C18.5048 23.4397 17.5817 23.7685 16.6509 23.9955 15.72 24.2263 14.7969 24.3417 13.8815 24.3417 11.4775 24.3417 9.64089 23.5301 8.37159 21.9069 7.10614 20.2837 6.38302 17.8317 6.20225 14.5508 6.90997 15.597 7.79848 16.3989 8.86777 16.9567 9.9409 17.5144 11.1198 17.7932 12.4045 17.7932 15.1085 17.7932 17.2451 16.972 18.8144 15.3296 20.3838 13.6911 21.1684 11.4602 21.1684 8.63699 21.1684 5.87146 20.3511 3.65211 18.7164 1.97895 17.0817 0.309631 14.9065-0.525027 12.191-0.525027 9.07547-0.525027 6.69458 0.667342 5.04834 3.05208 3.4021 5.44067 2.57898 8.90046 2.57898 13.4315 2.57898 17.6855 3.58865 21.078 5.60798 23.6089 7.62732 26.1398 10.3371 27.4053 13.7373 27.4053 14.6527 27.4053 15.5758 27.3149 16.5066 27.1341 17.4374 26.9533 18.4086 26.6841 19.4202 26.3264Z" transform="matrix(1 0 0 -1.00032 3625.95 1820.64)"/><path d="M0 0-15.3854 0" stroke="#000000" stroke-width="3.51667" stroke-linejoin="round" fill="none" transform="matrix(1 0 0 1.00032 518.682 1691.95)"/><path d="M4.65684 15.6052 32.172 15.6052 32.172 11.958 4.65684 11.958 4.65684 15.6052Z" transform="matrix(1 0 0 -1.00032 423.107 1708.66)"/><path d="M5.45358 3.64717 12.535 3.64717 12.535 28.099 4.82855 26.5536 4.82855 30.503 12.4938 32.0484 16.8278 32.0484 16.8278 3.64717 23.9092 3.64717 23.9092 0 5.45358 0 5.45358 3.64717Z" transform="matrix(1 0 0 -1.00032 459.939 1708.66)"/><path d="M0 0-15.3854 0" stroke="#000000" stroke-width="3.51667" stroke-linejoin="round" fill="none" transform="matrix(1 0 0 1.00032 518.682 1546.48)"/><path d="M13.9705 29.1911C11.7405 29.1911 10.0623 28.0921 8.9359 25.8942 7.81405 23.7009 7.25312 20.3994 7.25312 15.9898 7.25312 11.5986 7.81405 8.304 8.9359 6.10609 10.0623 3.90817 11.7405 2.80921 13.9705 2.80921 16.2188 2.80921 17.9039 3.90817 19.0257 6.10609 20.1521 8.304 20.7154 11.5986 20.7154 15.9898 20.7154 20.3994 20.1521 23.7009 19.0257 25.8942 17.9039 28.0921 16.2188 29.1911 13.9705 29.1911ZM13.9705 32.6253C17.565 32.6253 20.3101 31.2035 22.2058 28.36 24.1015 25.521 25.0494 21.3976 25.0494 15.9898 25.0494 10.5958 24.1015 6.47698 22.2058 3.63343 20.3101 0.794455 17.565-0.625032 13.9705-0.625032 10.3806-0.625032 7.63776 0.794455 5.74206 3.63343 3.84635 6.47698 2.8985 10.5958 2.8985 15.9898 2.8985 21.3976 3.84635 25.521 5.74206 28.36 7.63776 31.2035 10.3806 32.6253 13.9705 32.6253Z" transform="matrix(1 0 0 -1.00032 459.942 1563.18)"/><path d="M0 0-15.3854 0" stroke="#000000" stroke-width="3.51667" stroke-linejoin="round" fill="none" transform="matrix(1 0 0 1.00032 518.682 1401)"/><path d="M5.45358 3.64717 12.535 3.64717 12.535 28.099 4.82855 26.5536 4.82855 30.503 12.4938 32.0484 16.8278 32.0484 16.8278 3.64717 23.9092 3.64717 23.9092 0 5.45358 0 5.45358 3.64717Z" transform="matrix(1 0 0 -1.00032 459.942 1417.7)"/><path d="M34.2964 31.2516 19.9475 15.9294 28.7426 0 22.8494 0 16.2419 12.3935 4.74132 0-1.48222 0 13.8936 16.4651 5.72351 31.2516 11.6077 31.2516 17.6081 19.9475 28.0729 31.2516 34.2964 31.2516Z" transform="matrix(6.12323e-17 -1.00032 -1 -6.12517e-17 393.46 1576.59)"/><path d="M16.2321 15.7258C18.1197 15.3216 19.5927 14.4799 20.6511 13.2007 21.7136 11.9256 22.2449 10.3505 22.2449 8.47544 22.2449 5.60029 21.2553 3.37309 19.276 1.79384 17.2967 0.218761 14.4841-0.56878 10.8381-0.56878 9.61717-0.56878 8.35877-0.44794 7.06287-0.206261 5.76697 0.0354185 4.4294 0.397937 3.05016 0.881296L3.05016 4.68774C4.14188 4.05021 5.33778 3.56894 6.63785 3.24392 7.94208 2.9189 9.30465 2.75639 10.7256 2.75639 13.1965 2.75639 15.08 3.24392 16.3759 4.21897 17.6718 5.19402 18.3197 6.61284 18.3197 8.47544 18.3197 10.1964 17.7176 11.5402 16.5134 12.5069 15.3091 13.4778 13.634 13.9632 11.4881 13.9632L8.08792 13.9632 8.08792 17.2071 11.6444 17.2071C13.582 17.2071 15.0654 17.5947 16.0946 18.3697 17.1238 19.1447 17.6384 20.2615 17.6384 21.7199 17.6384 23.2158 17.1071 24.3638 16.0446 25.1638 14.9862 25.968 13.4674 26.3701 11.4881 26.3701 10.4047 26.3701 9.24423 26.2514 8.00667 26.0139 6.7691 25.7805 5.40861 25.418 3.9252 24.9263L3.9252 28.439C5.42528 28.8557 6.82952 29.1682 8.13792 29.3765 9.44633 29.5849 10.6797 29.689 11.8381 29.689 14.8341 29.689 17.203 29.0078 18.9447 27.6452 20.6907 26.2868 21.5636 24.4492 21.5636 22.1324 21.5636 20.5156 21.1011 19.151 20.1761 18.0384 19.251 16.9259 17.9363 16.155 16.2321 15.7258Z" transform="matrix(6.12323e-17 -1.00032 -1 -6.12517e-17 402.836 1542.76)"/><g clip-path="url(#clip16)"><path d="M378.265 1255.95 383.627 1228.21 388.989 1216.71 394.351 1164.17 399.712 1186.36 405.074 1164.32 410.436 1136.71 415.798 1105.02 421.159 1129.16 426.521 1115.29 431.883 1115.69 437.244 1094.35 442.606 1101.36 447.968 1130.83 453.33 1135.55 458.691 1096.13 464.053 1121.15 469.415 1132.84 474.777 1159.05 480.138 1135.74 485.5 1171.26 490.862 1218.48 496.223 1188.6 506.947 1229.8 512.309 1269.1 517.67 1255.8 523.032 1282.47 528.394 1284.87 533.756 1348.03 539.117 1354.55 544.479 1344.53 549.841 1354.86 555.202 1368.19 560.564 1390.21 565.926 1396.16 571.288 1380.06 576.649 1419.53 582.011 1400.22 587.373 1384.7 592.735 1389.24 598.096 1371.57 603.458 1359.43 608.82 1345.07 614.182 1359.4 619.543 1323.53 624.905 1321.46 630.267 1304.5 635.628 1271.85 640.99 1254.91 646.352 1211.99 651.714 1228.9 667.799 1163.36 673.161 1151.93 678.522 1135.47 683.884 1158.29 689.246 1127.96 694.607 1125.73 699.969 1098.55 705.331 1132.96 710.693 1105.51 721.416 1090.9 726.778 1097.94 732.14 1125.88 737.501 1097.79 742.863 1146.87 748.225 1179.62 753.586 1176.49 758.948 1214.21 764.31 1200.84 769.672 1250.51 775.033 1260.95 780.395 1248.79 785.757 1270.64 791.119 1275.22 796.48 1291.02 801.842 1341.04 807.204 1330.87 812.565 1354.86 817.927 1366.62 823.289 1371.88 828.651 1371.4 834.012 1387.34 839.374 1424.47 844.736 1402.76 850.098 1399.24 855.459 1393.33 860.821 1393.86 866.183 1359.57 871.544 1339.81 876.906 1335 882.268 1318.4 887.63 1341.68 892.991 1293.26 898.353 1295.11 903.715 1267.6 909.077 1256.15 914.438 1239.32 919.8 1254.08 925.162 1223.34 930.523 1205.82 935.885 1216.45 941.247 1201.57 946.609 1167.58 951.97 1171.53 957.332 1192.3 962.694 1176.3 968.056 1140.03 973.417 1156.37 978.779 1131.11 984.141 1139.94 989.503 1152.19 994.864 1132.84 1000.23 1124.54 1005.59 1153.58 1010.95 1124.58 1016.31 1099.81 1021.67 1125.6 1027.03 1125.23 1032.4 1099.74 1037.76 1109.18 1043.12 1078.96 1048.48 1124.54 1053.84 1093.11 1059.2 1111.46 1064.57 1091.1 1069.93 1104.81 1075.29 1111.77 1080.65 1151.8 1086.01 1125.86 1091.38 1110.95 1096.74 1128.95 1102.1 1143.14 1107.46 1145.37 1112.82 1126.26 1118.18 1166.44 1123.55 1161.84 1128.91 1149.88 1134.27 1171.71 1139.63 1181.41 1144.99 1161.71 1150.35 1163.63 1155.72 1221.98 1161.08 1202.03 1166.44 1234.55 1171.8 1217.58 1177.16 1255.42 1182.52 1263.36 1187.89 1265.83 1193.25 1260.16 1198.61 1287.21 1203.97 1284.9 1209.33 1286.21 1214.7 1321.67 1220.06 1317.96 1225.42 1305.5 1230.78 1335.77 1236.14 1356.61 1241.5 1343.55 1246.87 1344.25 1252.23 1376.63 1257.59 1353.49 1262.95 1375.78 1268.31 1389.46 1273.67 1392.75 1279.04 1380.68 1284.4 1383.26 1289.76 1401.26 1295.12 1411.79 1300.48 1393.02 1305.84 1371.68 1311.21 1421.79 1316.57 1403.94 1321.93 1369.64 1327.29 1381.66 1332.65 1404.43 1338.01 1385.86 1343.38 1408.57 1348.74 1382.45 1354.1 1364.86 1359.46 1365.91 1364.82 1356.95 1370.19 1370 1375.55 1377.92 1380.91 1348.25 1386.27 1321.83 1391.63 1342.66 1396.99 1330.74 1402.36 1315.85 1407.72 1316.64 1413.08 1307.69 1418.44 1278.89 1423.8 1296.31 1429.16 1295.31 1434.53 1282.58 1439.89 1265.31 1445.25 1262.18 1450.61 1250.89 1455.97 1234.24 1461.33 1241.09 1466.7 1229.27 1472.06 1199.27 1477.42 1200.47 1482.78 1207.98 1493.51 1169.89 1498.87 1195.05 1504.23 1159.35 1509.59 1175.09 1514.95 1183.19 1520.31 1156.54 1525.68 1102.31 1531.04 1132.54 1536.4 1115.98 1541.76 1126.84 1547.12 1108.98 1552.48 1111.77 1557.85 1101.55 1563.21 1114.55 1568.57 1143.03 1573.93 1113.65 1579.29 1096.99 1584.65 1091.01 1590.02 1138.86 1595.38 1095.99 1600.74 1101.69 1606.1 1117.08 1611.46 1110.31 1616.82 1109.19 1622.19 1102.16 1627.55 1130.9 1632.91 1135.07 1638.27 1134.17 1643.63 1155.42 1649 1146.91 1654.36 1123.9 1659.72 1169.92 1670.44 1147.7 1675.8 1209.28 1681.17 1175.43 1686.53 1192.11 1691.89 1211.63 1697.25 1226.85 1702.61 1201.93 1707.97 1211.95 1713.34 1230.47 1718.7 1280.5 1724.06 1283.01 1729.42 1255.05 1734.78 1274.53 1740.14 1311.88 1745.51 1280.21 1750.87 1270.96 1756.23 1300.96 1761.59 1311.18 1766.95 1317.98 1772.31 1326.44 1777.68 1342.89 1783.04 1339.68 1788.4 1343.87 1793.76 1349.87 1799.12 1377.91 1809.85 1392.01 1815.21 1362.7 1820.57 1377.85 1825.93 1404.85 1831.29 1381.61 1836.66 1427.3 1842.02 1371.84 1847.38 1414.46 1852.74 1383.14 1858.1 1373.33 1863.46 1383.33 1868.83 1374.97 1874.19 1376.52 1879.55 1368.66 1884.91 1362.12 1890.27 1381.24 1895.63 1377.23 1901 1383.13 1906.36 1343.07 1911.72 1370.4 1917.08 1346.33 1922.44 1366.77 1927.8 1356.05 1933.17 1331.61 1938.53 1345.32 1943.89 1297.97 1949.25 1338.66 1954.61 1296.97 1959.98 1271.59 1965.34 1312.21 1970.7 1293.52 1976.06 1233.71 1981.42 1231.67 1986.78 1262.87 1992.15 1235.45 1997.51 1215.42 2008.23 1181.22 2013.59 1168.12 2018.95 1139.95 2024.32 1139.22 2029.68 1117.35 2035.04 1113.15 2045.76 1120.33 2051.12 1085.86 2056.49 1106.31 2061.85 1122.36 2067.21 1095.42 2072.57 1132.01 2077.93 1103.75 2083.3 1126.08 2088.66 1157.95 2094.02 1164.92 2099.38 1174.78 2104.74 1197.54 2110.1 1197 2115.47 1259.94 2120.83 1269.55 2126.19 1256.19 2131.55 1283.64 2136.91 1330.07 2142.27 1326.91 2153 1352.59 2158.36 1355.01 2163.72 1404.73 2169.08 1402.84 2174.44 1383.9 2179.81 1396.02 2185.17 1369.91 2190.53 1376.96 2195.89 1394.78 2201.25 1407.23 2206.61 1377.42 2211.98 1370.32 2217.34 1384.69 2222.7 1343.74 2228.06 1337.86 2233.42 1301.45 2238.79 1280.7 2244.15 1274.28 2249.51 1246.19 2254.87 1232.22 2260.23 1213.85 2265.59 1203.44 2270.96 1209.35 2276.32 1166.22 2287.04 1166.23 2292.4 1112.43 2297.76 1129.83 2303.13 1092.54 2308.49 1092.6 2313.85 1117.96 2319.21 1103.06 2324.57 1102.11 2329.93 1119.32 2335.3 1134.67 2340.66 1114.42 2346.02 1147.06 2351.38 1126.37 2356.74 1156.63 2362.1 1151.26 2367.47 1187.13 2372.83 1211.63 2378.19 1209.33 2383.55 1241.45 2388.91 1279.98 2394.28 1271.34 2399.64 1288.76 2405 1333.74 2410.36 1349.27 2415.72 1339.16 2421.08 1382.86 2426.45 1396.63 2431.81 1403.27 2437.17 1397.39 2442.53 1393.93 2447.89 1400.95 2453.25 1412.88 2458.62 1393.87 2463.98 1370.27 2469.34 1359.14 2474.7 1359.05 2480.06 1351.92 2485.42 1305.64 2490.79 1363.96 2496.15 1329.63 2501.51 1335.24 2506.87 1278.91 2512.23 1287.81 2517.6 1271.24 2522.96 1236.54 2528.32 1235.83 2533.68 1205 2539.04 1185.58 2544.4 1163.07 2549.77 1165.51 2555.13 1170.14 2560.49 1140.18 2565.85 1117.58 2571.21 1136.83 2576.57 1105.25 2581.94 1104.54 2587.3 1122.85 2592.66 1082.48 2598.02 1118.32 2603.38 1139.33 2614.11 1121.12 2619.47 1120.05 2624.83 1140.28 2630.19 1168.85 2635.55 1191.64 2640.92 1207.8 2646.28 1207.85 2651.64 1214.74 2657 1260.28 2662.36 1265.2 2667.72 1307.89 2673.09 1320.26 2678.45 1326.27 2683.81 1336.6 2689.17 1367.27 2694.53 1382.28 2699.89 1374.44 2705.26 1370.41 2710.62 1410.48 2715.98 1397.18 2721.34 1400.98 2726.7 1385.32 2732.06 1384.18 2737.43 1368.3 2742.79 1354.23 2748.15 1353.27 2753.51 1373.82 2758.87 1346.01 2764.23 1348.61 2769.6 1302.59 2774.96 1300.52 2785.68 1246.03 2791.04 1271.26 2796.41 1208.78 2801.77 1217.58 2807.13 1209.49 2812.49 1165.06 2817.85 1156.88 2823.21 1143.02 2828.58 1127.26 2833.94 1131.6 2839.3 1123.81 2844.66 1098.43 2850.02 1095.93 2855.38 1071.93 2860.75 1113.33 2866.11 1123.41 2871.47 1149.2 2876.83 1110.99 2882.19 1149.62 2887.55 1147.53 2892.92 1124.99 2898.28 1161.31 2903.64 1208.97 2909 1209.92 2914.36 1214.14 2919.72 1260.41 2925.09 1233.99 2930.45 1257.69 2935.81 1320.16 2941.17 1315.08 2946.53 1328.37 2951.9 1376.95 2957.26 1355.33 2962.62 1363.97 2967.98 1385.95 2973.34 1378.63 2978.7 1392.3 2984.07 1396 2989.43 1405.84 2994.79 1376.04 3000.15 1376.65 3010.87 1381.3 3016.24 1375.03 3021.6 1347.23 3026.96 1325.6 3032.32 1330.64 3037.68 1318.56 3043.04 1291.83 3048.41 1250.83 3053.77 1242.08 3059.13 1273.05 3064.49 1224.12 3069.85 1204.67 3075.21 1217.11 3080.58 1192.74 3085.94 1161.94 3091.3 1141.17 3096.66 1131.79 3102.02 1129.74 3107.39 1116.7 3112.75 1120.01 3118.11 1106.7 3123.47 1106.79 3128.83 1097.36 3134.19 1112.92 3139.56 1122.55 3144.92 1138.43 3150.28 1119.71 3155.64 1166.84 3161 1178.82 3166.36 1155.26 3171.73 1194.93 3177.09 1195.84 3182.45 1228.58 3187.81 1238.11 3193.17 1243.33 3198.53 1271.03 3203.9 1279.55 3214.62 1345.26 3219.98 1321.12 3225.34 1365.2 3230.71 1355.29 3236.07 1400.3 3241.43 1353.79 3246.79 1401.83 3252.15 1393.42 3257.51 1373.01 3262.88 1397.37 3268.24 1406.05 3273.6 1401.49 3278.96 1369.16 3284.32 1359.46 3289.68 1379.82 3295.05 1342.77 3300.41 1325.91 3305.77 1324.02 3311.13 1308.02 3316.49 1276.66 3321.85 1248.98 3327.22 1235.17 3332.58 1230.83 3337.94 1198.32 3343.3 1170.01 3348.66 1177.86 3354.02 1184.48 3359.39 1132.45 3364.75 1133.28 3370.11 1117.46 3375.47 1115.34 3380.83 1114.3 3386.2 1105.34 3391.56 1132.76 3396.92 1110.52 3402.28 1098.8 3407.64 1103.61 3413 1127.46 3418.37 1148.41 3423.73 1126.64 3429.09 1159.53 3434.45 1133.26 3445.17 1206.99 3450.54 1210.21 3455.9 1245.5 3461.26 1276.5 3466.62 1295.23 3471.98 1298.59 3477.34 1308.84 3482.71 1310.62 3488.07 1359.99 3493.43 1352.39 3498.79 1350.87 3504.15 1393.25 3509.52 1390.15 3514.88 1387.74 3520.24 1411.05 3525.6 1395.11 3530.96 1400.41 3536.32 1410.18 3541.69 1362.22 3547.05 1387.67 3552.41 1372.75 3557.77 1341.07 3563.13 1325.52 3568.49 1322.49 3573.86 1313.36 3584.58 1246.11 3589.94 1272.28 3589.94 1272.28" stroke="#0000FF" stroke-width="6.59375" stroke-linecap="square" stroke-linejoin="round" fill="none" transform="matrix(1 0 0 1.00032 301 296)"/></g><g clip-path="url(#clip17)"><path d="M914.438 1445.07 914.438 1054.16" stroke="#000000" stroke-width="4.39583" stroke-linejoin="round" stroke-dasharray="16.2646 7.03333" fill="none" transform="matrix(1 0 0 1.00032 301 296)"/></g><g clip-path="url(#clip18)"><path d="M1450.61 1445.07 1450.61 1054.16" stroke="#000000" stroke-width="4.39583" stroke-linejoin="round" stroke-dasharray="16.2646 7.03333" fill="none" transform="matrix(1 0 0 1.00032 301 296)"/></g><g clip-path="url(#clip19)"><path d="M1986.78 1445.07 1986.78 1054.16" stroke="#000000" stroke-width="4.39583" stroke-linejoin="round" stroke-dasharray="16.2646 7.03333" fill="none" transform="matrix(1 0 0 1.00032 301 296)"/></g><g clip-path="url(#clip20)"><path d="M2522.96 1445.07 2522.96 1054.16" stroke="#000000" stroke-width="4.39583" stroke-linejoin="round" stroke-dasharray="16.2646 7.03333" fill="none" transform="matrix(1 0 0 1.00032 301 296)"/></g><g clip-path="url(#clip21)"><path d="M3059.13 1445.07 3059.13 1054.16" stroke="#000000" stroke-width="4.39583" stroke-linejoin="round" stroke-dasharray="16.2646 7.03333" fill="none" transform="matrix(1 0 0 1.00032 301 296)"/></g><path d="M217.682 1445.07 217.682 1054.16" stroke="#000000" stroke-width="3.51667" stroke-linecap="square" fill="none" transform="matrix(1 0 0 1.00032 301 296)"/><path d="M3750.52 1445.07 3750.52 1054.16" stroke="#000000" stroke-width="3.51667" stroke-linecap="square" fill="none" transform="matrix(1 0 0 1.00032 301 296)"/><path d="M217.682 1445.07 3750.52 1445.07" stroke="#000000" stroke-width="3.51667" stroke-linecap="square" fill="none" transform="matrix(1 0 0 1.00032 301 296)"/><path d="M217.682 1054.16 3750.52 1054.16" stroke="#000000" stroke-width="3.51667" stroke-linecap="square" fill="none" transform="matrix(1 0 0 1.00032 301 296)"/></g></g></g><rect x="799.5" y="272.5" width="2977" height="139" stroke="#FFFFFF" stroke-width="4.58333" stroke-miterlimit="8" fill="#FFFFFF"/></g></svg>