<svg width="991" height="597" xmlns="http://www.w3.org/2000/svg" xmlns:xlink="http://www.w3.org/1999/xlink" overflow="hidden"><defs><clipPath id="clip0"><rect x="833" y="584" width="991" height="597"/></clipPath></defs><g clip-path="url(#clip0)" transform="translate(-833 -584)"><path d="M835.5 841.5C835.5 816.647 853.633 796.5 876 796.5 898.368 796.5 916.5 816.647 916.5 841.5 916.5 866.353 898.368 886.5 876 886.5 853.633 886.5 835.5 866.353 835.5 841.5Z" stroke="#325395" stroke-width="4.58333" stroke-miterlimit="8" fill="#4874CB" fill-rule="evenodd"/><path d="M1077.5 631.5C1077.5 606.647 1095.63 586.5 1118 586.5 1140.37 586.5 1158.5 606.647 1158.5 631.5 1158.5 656.353 1140.37 676.5 1118 676.5 1095.63 676.5 1077.5 656.353 1077.5 631.5Z" stroke="#EE822F" stroke-width="4.58333" stroke-miterlimit="8" fill="#EE822F" fill-rule="evenodd"/><path d="M1016.5 1133C1016.5 1107.87 1034.63 1087.5 1057 1087.5 1079.37 1087.5 1097.5 1107.87 1097.5 1133 1097.5 1158.13 1079.37 1178.5 1057 1178.5 1034.63 1178.5 1016.5 1158.13 1016.5 1133Z" stroke="#7DDFD6" stroke-width="4.58333" stroke-miterlimit="8" fill="#7DDFD6" fill-rule="evenodd"/><path d="M1102.5 887C1102.5 861.871 1120.63 841.5 1143 841.5 1165.37 841.5 1183.5 861.871 1183.5 887 1183.5 912.129 1165.37 932.5 1143 932.5 1120.63 932.5 1102.5 912.129 1102.5 887Z" stroke="#C8E5B3" stroke-width="4.58333" stroke-miterlimit="8" fill="#C8E5B3" fill-rule="evenodd"/><path d="M1404.5 722C1404.5 696.871 1422.63 676.5 1445 676.5 1467.37 676.5 1485.5 696.871 1485.5 722 1485.5 747.129 1467.37 767.5 1445 767.5 1422.63 767.5 1404.5 747.129 1404.5 722Z" stroke="#B58B02" stroke-width="4.58333" stroke-miterlimit="8" fill="#B58B02" fill-rule="evenodd"/><path d="M1281.5 1036C1281.5 1010.87 1299.63 990.5 1322 990.5 1344.37 990.5 1362.5 1010.87 1362.5 1036 1362.5 1061.13 1344.37 1081.5 1322 1081.5 1299.63 1081.5 1281.5 1061.13 1281.5 1036Z" stroke="#C00000" stroke-width="4.58333" stroke-miterlimit="8" fill="#C81D31" fill-rule="evenodd"/><path d="M1485.5 945C1485.5 919.871 1503.63 899.5 1526 899.5 1548.37 899.5 1566.5 919.871 1566.5 945 1566.5 970.129 1548.37 990.5 1526 990.5 1503.63 990.5 1485.5 970.129 1485.5 945Z" stroke="#000000" stroke-width="4.58333" stroke-miterlimit="8" fill-rule="evenodd"/><path d="M1741.5 848C1741.5 822.871 1759.41 802.5 1781.5 802.5 1803.59 802.5 1821.5 822.871 1821.5 848 1821.5 873.129 1803.59 893.5 1781.5 893.5 1759.41 893.5 1741.5 873.129 1741.5 848Z" stroke="#7030A0" stroke-width="4.58333" stroke-miterlimit="8" fill="#7030A0" fill-rule="evenodd"/><path d="M0 0 185.455 146.239" stroke="#000000" stroke-width="10.3125" stroke-miterlimit="8" fill="none" fill-rule="evenodd" transform="matrix(1 0 0 -1 904 809.239)"/><path d="M875 886 1027.58 1099.85" stroke="#000000" stroke-width="10.3125" stroke-miterlimit="8" fill="none" fill-rule="evenodd"/><path d="M1118 676 1142.26 841" stroke="#000000" stroke-width="10.3125" stroke-miterlimit="8" fill="none" fill-rule="evenodd"/><path d="M0 0 85.735 155.295" stroke="#000000" stroke-width="10.3125" stroke-miterlimit="8" fill="none" fill-rule="evenodd" transform="matrix(1 0 0 -1 1056 1087.29)"/><path d="M0 0 196.257 65.0306" stroke="#000000" stroke-width="10.3125" stroke-miterlimit="8" fill="none" fill-rule="evenodd" transform="matrix(1 0 0 -1 1097 1132.03)"/><path d="M1171 918 1293.37 1002.77" stroke="#000000" stroke-width="10.3125" stroke-miterlimit="8" fill="none" fill-rule="evenodd"/><path d="M1146 663 1321.23 990.091" stroke="#000000" stroke-width="10.3125" stroke-miterlimit="8" fill="none" fill-rule="evenodd"/><path d="M1158 631 1403.88 721.588" stroke="#000000" stroke-width="10.3125" stroke-miterlimit="8" fill="none" fill-rule="evenodd"/><path d="M0 0 134.786 58.5602" stroke="#000000" stroke-width="10.3125" stroke-miterlimit="8" fill="none" fill-rule="evenodd" transform="matrix(1 0 0 -1 1350 1003.56)"/><path d="M1445 767 1525.88 899.649" stroke="#000000" stroke-width="10.3125" stroke-miterlimit="8" fill="none" fill-rule="evenodd"/><path d="M0 0 198.396 33.0036" stroke="#000000" stroke-width="10.3125" stroke-miterlimit="8" fill="none" fill-rule="evenodd" transform="matrix(1 0 0 -1 1554 913.004)"/><path d="M1473 753 1752.28 815.123" stroke="#000000" stroke-width="10.3125" stroke-miterlimit="8" fill="none" fill-rule="evenodd"/></g></svg>