<svg width="1993" height="733" xmlns="http://www.w3.org/2000/svg" xmlns:xlink="http://www.w3.org/1999/xlink" overflow="hidden"><defs><clipPath id="clip0"><rect x="742" y="946" width="1993" height="733"/></clipPath></defs><g clip-path="url(#clip0)" transform="translate(-742 -946)"><rect x="744.5" y="948.5" width="1987" height="728" stroke="#325395" stroke-width="4.58333" stroke-miterlimit="8" fill="#DAE3F5"/><rect x="1061.5" y="1071.5" width="641" height="479" stroke="#325395" stroke-width="4.58333" stroke-miterlimit="8" fill="#4874CB"/><text font-family="Microsoft YaHei,Microsoft YaHei_MSFontService,sans-serif" font-weight="400" font-size="110" transform="matrix(1 0 0 1 1106.47 1348)">多头注意力</text><rect x="1980.5" y="1071.5" width="534" height="479" stroke="#325395" stroke-width="4.58333" stroke-miterlimit="8" fill="#4874CB"/><text font-family="Microsoft YaHei,Microsoft YaHei_MSFontService,sans-serif" font-weight="400" font-size="110" transform="matrix(1 0 0 1 2026.91 1284)">前馈神经<tspan font-size="110" x="110" y="130">网络</tspan></text><path d="M0.0175406-3.43746 294.16-1.93651 294.125 4.9384-0.0175406 3.43746ZM289.63-12.2723 317.059 1.61788 289.489 15.2274Z" transform="matrix(1 0 0 -1 744.5 1312.12)"/><path d="M0 3.4375-6.47035 3.4375-3.03285 0-3.03285 113.235-6.47035 109.798 145.318 109.798 145.318 116.673-9.90785 116.673-9.90785-3.4375 0-3.4375ZM140.735 99.4854 168.235 113.235 140.735 126.985Z" transform="matrix(1 0 0 -1 893.5 1310.74)"/><path d="M893.5 1313.94 887.03 1313.94 890.467 1310.5 890.467 1423.74 887.03 1420.3 1038.82 1420.3 1038.82 1427.17 883.592 1427.17 883.592 1307.06 893.5 1307.06ZM1034.23 1409.99 1061.73 1423.74 1034.23 1437.49Z"/><path d="M1702.5 1307.06 1957.82 1307.06 1957.82 1313.94 1702.5 1313.94ZM1953.24 1296.75 1980.74 1310.5 1953.24 1324.25Z"/><path d="M2514.5 1310.5 2731.26 1312.12" stroke="#000000" stroke-width="6.875" stroke-miterlimit="8" fill="none" fill-rule="evenodd"/><text font-family="Microsoft YaHei,Microsoft YaHei_MSFontService,sans-serif" font-weight="700" font-size="83" transform="matrix(1 0 0 1 958.118 1177)">K<tspan font-size="83" x="-5.15607" y="113">Q</tspan><tspan font-size="83" x="-0.859253" y="227">V</tspan></text><path d="M0 0 0.000360892 290.579" stroke="#4874CB" stroke-width="6.875" stroke-miterlimit="8" fill="none" fill-rule="evenodd" transform="matrix(1 0 0 -1 802.5 1308.08)"/><path d="M802.5 1014.06 1784.61 1014.06 1784.88 1293.91 1778.01 1293.92 1777.74 1017.5 1781.18 1020.94 802.5 1020.94ZM1794.9 1288.53 1782.79 1316.79 1767.45 1290.15Z" fill="#4874CB"/><path d="M0 0 0.000360892 290.578" stroke="#4874CB" stroke-width="6.875" stroke-miterlimit="8" fill="none" fill-rule="evenodd" transform="matrix(1 0 0 -1 1896.5 1308.08)"/><path d="M1896.5 1014.06 2625.45 1014.06 2625.59 1285.17 2618.71 1285.17 2618.58 1017.5 2622.02 1020.94 1896.5 1020.94ZM2635.76 1280.19 2622.82 1308.08 2608.27 1280.99Z" fill="#4874CB"/></g></svg>