<svg width="1293" height="1196" xmlns="http://www.w3.org/2000/svg" xmlns:xlink="http://www.w3.org/1999/xlink" overflow="hidden"><defs><clipPath id="clip0"><rect x="1263" y="512" width="1293" height="1196"/></clipPath></defs><g clip-path="url(#clip0)" transform="translate(-1263 -512)"><path d="M1265.5 701.838C1265.5 598.374 1349.37 514.5 1452.84 514.5L2366.16 514.5C2469.63 514.5 2553.5 598.374 2553.5 701.838L2553.5 1451.16C2553.5 1554.63 2469.63 1638.5 2366.16 1638.5L1452.84 1638.5C1349.37 1638.5 1265.5 1554.63 1265.5 1451.16Z" stroke="#000000" stroke-width="4.58333" stroke-miterlimit="8" fill="#FFFFFF" fill-rule="evenodd"/><rect x="1388" y="594" width="1074" height="188" fill="#ACD78E"/><text fill="#44546A" font-family="Microsoft YaHei,Microsoft YaHei_MSFontService,sans-serif" font-weight="400" font-size="128" transform="matrix(1 0 0 1 1539.82 734)">异常得分计算</text><rect x="1388" y="909" width="1074" height="189" fill="#ACD78E"/><text fill="#44546A" font-family="Microsoft YaHei,Microsoft YaHei_MSFontService,sans-serif" font-weight="400" font-size="128" transform="matrix(1 0 0 1 1539.82 1050)">异常阈值确定</text><rect x="1388" y="1225" width="1074" height="188" fill="#ACD78E"/><text fill="#44546A" font-family="Microsoft YaHei,Microsoft YaHei_MSFontService,sans-serif" font-weight="400" font-size="128" transform="matrix(1 0 0 1 1668.15 1365)">异常检测</text><path d="M1930.16 782 1930.16 898.43 1919.84 898.43 1919.84 782ZM1947.5 870.091 1925 908.664 1902.5 870.091C1901.06 867.631 1901.9 864.474 1904.36 863.039 1906.82 861.604 1909.97 862.435 1911.41 864.895L1929.45 895.832 1920.55 895.832 1938.59 864.895C1940.03 862.435 1943.19 861.604 1945.65 863.039 1948.1 864.474 1948.94 867.631 1947.5 870.091Z" fill="#4874CB"/><path d="M1930.16 1098 1930.16 1214.43 1919.84 1214.43 1919.84 1098ZM1947.5 1186.09 1925 1224.66 1902.5 1186.09C1901.06 1183.63 1901.9 1180.47 1904.36 1179.04 1906.82 1177.6 1909.97 1178.43 1911.41 1180.89L1929.45 1211.83 1920.55 1211.83 1938.59 1180.89C1940.03 1178.43 1943.19 1177.6 1945.65 1179.04 1948.1 1180.47 1948.94 1183.63 1947.5 1186.09Z" fill="#4874CB"/><text font-family="Microsoft YaHei,Microsoft YaHei_MSFontService,sans-serif" font-weight="700" font-size="147" transform="matrix(1 0 0 1 1484.82 1584)">异常检测模块</text></g></svg>