<svg width="3860" height="1521" xmlns="http://www.w3.org/2000/svg" xmlns:xlink="http://www.w3.org/1999/xlink" overflow="hidden"><defs><clipPath id="clip0"><rect x="435" y="396" width="3860" height="1521"/></clipPath></defs><g clip-path="url(#clip0)" transform="translate(-435 -396)"><path d="M437.5 642.005C437.5 507.521 546.521 398.5 681.006 398.5L4001.99 398.5C4136.48 398.5 4245.5 507.521 4245.5 642.005L4245.5 1615.99C4245.5 1750.48 4136.48 1859.5 4001.99 1859.5L681.006 1859.5C546.521 1859.5 437.5 1750.48 437.5 1615.99Z" stroke="#000000" stroke-width="4.58333" stroke-miterlimit="8" fill="#FFFFFF" fill-rule="evenodd"/><text fill="#FFFFFF" font-family="Arial,Arial_MSFontService,sans-serif" font-weight="400" font-size="83" transform="matrix(1 0 0 1 2040.53 1157)">Spatial Features<tspan fill="#000000" font-family="Microsoft YaHei,Microsoft YaHei_MSFontService,sans-serif" font-size="83" x="-972.152" y="228">•</tspan><tspan fill="#000000" font-family="Microsoft YaHei,Microsoft YaHei_MSFontService,sans-serif" font-size="83" x="-972.152" y="302">•</tspan><tspan fill="#000000" font-family="Microsoft YaHei,Microsoft YaHei_MSFontService,sans-serif" font-size="83" x="-972.152" y="382">•</tspan><tspan fill="#000000" font-family="Microsoft YaHei,Microsoft YaHei_MSFontService,sans-serif" font-weight="700" font-size="147" x="-356.537" y="636">空间维度特征提取模块</tspan><tspan fill="#000000" font-family="Times New Roman,Times New Roman_MSFontService,sans-serif" font-size="128" x="-1483.42" y="607">N</tspan><tspan fill="#000000" font-family="Microsoft YaHei,Microsoft YaHei_MSFontService,sans-serif" font-size="128" x="-1390.61" y="607">维嵌入向量</tspan></text><rect x="607.5" y="1164.5" width="576" height="71.9999" stroke="#2E54A1" stroke-width="4.58333" stroke-miterlimit="8" fill="#A9E9E4"/><rect x="607.5" y="1236.5" width="576" height="71.0001" stroke="#2E54A1" stroke-width="4.58333" stroke-miterlimit="8" fill="#F5B7BF"/><rect x="607.5" y="1504.5" width="576" height="71.9999" stroke="#2E54A1" stroke-width="4.58333" stroke-miterlimit="8" fill="#B58B02"/><rect x="607.5" y="1310.5" width="576" height="197" stroke="#2E54A1" stroke-width="4.58333" stroke-miterlimit="8" fill="#FFFFFF"/><text font-family="Microsoft YaHei,Microsoft YaHei_MSFontService,sans-serif" font-weight="400" font-size="83" transform="matrix(1 0 0 1 876.562 1385)">•<tspan font-size="83" x="0" y="46">•</tspan><tspan font-size="83" x="0" y="102">•</tspan></text><path d="M1606.5 629.5C1606.5 610.722 1621.05 595.5 1639 595.5 1656.95 595.5 1671.5 610.722 1671.5 629.5 1671.5 648.278 1656.95 663.5 1639 663.5 1621.05 663.5 1606.5 648.278 1606.5 629.5Z" stroke="#2E54A1" stroke-width="4.58333" stroke-miterlimit="8" fill="#A9E9E4" fill-rule="evenodd"/><path d="M1420.5 801.5C1420.5 782.722 1435.05 767.5 1453 767.5 1470.95 767.5 1485.5 782.722 1485.5 801.5 1485.5 820.278 1470.95 835.5 1453 835.5 1435.05 835.5 1420.5 820.278 1420.5 801.5Z" stroke="#2E54A1" stroke-width="4.58333" stroke-miterlimit="8" fill="#F5B7BF" fill-rule="evenodd"/><path d="M1540.5 979.5C1540.5 960.722 1555.27 945.5 1573.5 945.5 1591.73 945.5 1606.5 960.722 1606.5 979.5 1606.5 998.278 1591.73 1013.5 1573.5 1013.5 1555.27 1013.5 1540.5 998.278 1540.5 979.5Z" stroke="#2E54A1" stroke-width="4.58333" stroke-miterlimit="8" fill="#E54C5E" fill-rule="evenodd"/><path d="M1712.5 839.5C1712.5 820.722 1727.27 805.5 1745.5 805.5 1763.73 805.5 1778.5 820.722 1778.5 839.5 1778.5 858.278 1763.73 873.5 1745.5 873.5 1727.27 873.5 1712.5 858.278 1712.5 839.5Z" stroke="#2E54A1" stroke-width="4.58333" stroke-miterlimit="8" fill="#FED961" fill-rule="evenodd"/><path d="M0 0 139.792 123.521" stroke="#000000" stroke-width="11.4583" stroke-linecap="round" stroke-linejoin="round" stroke-miterlimit="10" fill="none" fill-rule="evenodd" transform="matrix(-1 0 0 1 1615.29 654.5)"/><path d="M1479.5 831.5 1551.23 954.333" stroke="#000000" stroke-width="11.4583" stroke-linecap="round" stroke-linejoin="round" stroke-miterlimit="10" fill="none" fill-rule="evenodd"/><path d="M0 0 63.25 277.75" stroke="#000000" stroke-width="11.4583" stroke-linecap="round" stroke-linejoin="round" stroke-miterlimit="10" fill="none" fill-rule="evenodd" transform="matrix(-1 0 0 1 1636.75 667.5)"/><path d="M1661.5 654.5 1724.98 804.146" stroke="#000000" stroke-width="11.4583" stroke-linecap="round" stroke-linejoin="round" stroke-miterlimit="10" fill="none" fill-rule="evenodd"/><path d="M0 0 119.854 100.604" stroke="#000000" stroke-width="11.4583" stroke-linecap="round" stroke-linejoin="round" stroke-miterlimit="10" fill="none" fill-rule="evenodd" transform="matrix(1 0 0 -1 1602.5 964.104)"/><text font-family="Microsoft YaHei,Microsoft YaHei_MSFontService,sans-serif" font-weight="400" font-size="128" transform="matrix(1 0 0 1 628.54 602)">输入<tspan font-family="Times New Roman,Times New Roman_MSFontService,sans-serif" font-size="128" x="256.667" y="0">N</tspan>维<tspan font-size="128" x="-17.7604" y="154">时间序列</tspan></text><path d="M3078.5 774.5C3078.5 755.722 3093.05 740.5 3111 740.5 3128.95 740.5 3143.5 755.722 3143.5 774.5 3143.5 793.278 3128.95 808.5 3111 808.5 3093.05 808.5 3078.5 793.278 3078.5 774.5Z" stroke="#2E54A1" stroke-width="4.58333" stroke-miterlimit="8" fill="#A9E9E4" fill-rule="evenodd"/><path d="M2874.5 592.5C2874.5 573.722 2889.27 558.5 2907.5 558.5 2925.73 558.5 2940.5 573.722 2940.5 592.5 2940.5 611.278 2925.73 626.5 2907.5 626.5 2889.27 626.5 2874.5 611.278 2874.5 592.5Z" stroke="#2E54A1" stroke-width="4.58333" stroke-miterlimit="8" fill="#F5B7BF" fill-rule="evenodd"/><path d="M2874.5 950.5C2874.5 931.722 2889.27 916.5 2907.5 916.5 2925.73 916.5 2940.5 931.722 2940.5 950.5 2940.5 969.278 2925.73 984.5 2907.5 984.5 2889.27 984.5 2874.5 969.278 2874.5 950.5Z" stroke="#2E54A1" stroke-width="4.58333" stroke-miterlimit="8" fill="#E54C5E" fill-rule="evenodd"/><path d="M3327.5 774.5C3327.5 755.722 3342.27 740.5 3360.5 740.5 3378.73 740.5 3393.5 755.722 3393.5 774.5 3393.5 793.278 3378.73 808.5 3360.5 808.5 3342.27 808.5 3327.5 793.278 3327.5 774.5Z" stroke="#2E54A1" stroke-width="4.58333" stroke-miterlimit="8" fill="#FED961" fill-rule="evenodd"/><path d="M2931.98 614.751 3086.19 745.422 3083.22 748.919 2929.02 618.248ZM3076.26 716.39 3088.17 750.111 3052.96 743.887C3051.71 743.667 3050.88 742.478 3051.1 741.232 3051.32 739.986 3052.51 739.154 3053.75 739.374L3085.1 744.914 3082.54 747.934 3071.93 717.917C3071.51 716.724 3072.14 715.415 3073.33 714.993 3074.52 714.571 3075.83 715.197 3076.26 716.39Z"/><path d="M1.4636-1.76341 169.16 137.422 166.233 140.949-1.4636 1.76341ZM158.933 108.493 171.196 142.09 135.914 136.227C134.666 136.019 133.822 134.839 134.029 133.59 134.237 132.342 135.417 131.498 136.666 131.705L168.072 136.925 165.543 139.971 154.628 110.064C154.194 108.875 154.806 107.559 155.995 107.126 157.184 106.692 158.499 107.304 158.933 108.493Z" transform="matrix(1 0 0 -1 2940.5 950.583)"/><path d="M0.029244-2.29148 18.3611-2.05753 18.3026 2.52543-0.029244 2.29148ZM32.11-1.88206 50.4418-1.64811 50.3833 2.93485 32.0515 2.7009ZM64.1907-1.47265 82.5225-1.23869 82.464 3.34427 64.1322 3.11031ZM96.2714-1.06323 114.603-0.829278 114.545 3.75368 96.2129 3.51973ZM128.352-0.653813 146.684-0.419861 146.625 4.1631 128.294 3.92915ZM160.433-0.244396 178.765-0.010444 178.706 4.57252 160.374 4.33856ZM192.514 0.16502 210.845 0.398973 210.787 4.98193 192.455 4.74798ZM224.594 0.574437 242.926 0.808389 242.868 5.39135 224.536 5.1574ZM220.746-15.2055 251.406 3.20847 220.286 20.8339C219.184 21.4577 217.786 21.0705 217.162 19.9692 216.538 18.8679 216.926 17.4695 218.027 16.8458L245.729 1.15636 245.679 5.11503 218.386-11.2763C217.301-11.9279 216.949-13.3357 217.601-14.4207 218.253-15.5057 219.66-15.8571 220.746-15.2055Z" transform="matrix(1 0 0 -1 2827.5 780.708)"/><path d="M3143.53 772.208 3320.95 774.219 3320.9 778.803 3143.47 776.791ZM3294.78 758.192 3325.47 776.563 3294.37 794.232C3293.27 794.858 3291.87 794.473 3291.25 793.372 3290.62 792.272 3291.01 790.873 3292.11 790.247L3319.79 774.519 3319.74 778.477 3292.43 762.125C3291.34 761.475 3290.99 760.068 3291.64 758.982 3292.29 757.896 3293.7 757.542 3294.78 758.192Z"/><path d="M3143.94 772.357 3152 771.982 3151.82 771.997 3159.76 770.997 3159.58 771.026 3167.45 769.401 3167.29 769.442 3174.98 767.254 3174.82 767.305 3182.19 764.618 3182.03 764.686 3189.15 761.436 3189.02 761.502 3195.77 757.877 3195.62 757.966 3201.87 753.966 3201.71 754.074 3207.53 749.637 3207.38 749.758 3212.57 745.07 3212.42 745.215 3216.98 740.278 3216.84 740.448 3220.78 735.26 3220.62 735.494 3223.75 730.119 3223.62 730.383 3225.93 724.883 3225.82 725.197 3227.26 719.635 3227.2 720.005 3227.7 714.38 3227.69 714.71 3227.38 709.085 3227.41 709.364 3226.41 703.801 3226.47 704.045 3224.84 698.545 3224.91 698.738 3222.79 693.363 3222.88 693.575 3220.19 688.387 3220.3 688.576 3217.12 683.639 3217.22 683.782 3213.65 679.095 3213.79 679.255 3209.79 674.88 3209.92 675.013 3205.54 670.95 3205.69 671.074 3201.07 667.449 3201.21 667.553 3196.33 664.303 3196.54 664.425 3191.42 661.738 3191.6 661.824 3186.35 659.636 3186.57 659.716 3181.14 658.091 3181.38 658.15 3175.88 657.15 3176.14 657.182 3170.58 656.807 3170.93 656.803 3165.37 657.303 3165.75 657.238 3160.25 658.675 3160.57 658.563 3155.2 660.876 3155.45 660.746 3150.14 663.871 3150.38 663.713 3145.25 667.651 3145.42 667.506 3140.55 672.069 3140.69 671.921 3136.06 677.108 3136.19 676.961 3131.81 682.774 3131.91 682.631 3127.91 688.881 3128.01 688.715 3124.44 695.465 3124.51 695.332 3121.32 702.457 3121.38 702.305 3118.69 709.68 3118.75 709.506 3116.63 717.194 3116.66 717.046 3115.04 724.921 3115.07 724.745 3114.07 732.682 3114.08 732.484 3113.94 736.013 3109.36 735.835 3109.51 732.208 3110.53 724.083 3112.19 716.046 3114.36 708.197 3117.1 700.659 3120.36 693.392 3124 686.491 3128.1 680.087 3132.58 674.129 3137.34 668.793 3142.37 664.084 3147.7 659.992 3153.25 656.723 3158.92 654.285 3164.77 652.755 3170.7 652.222 3176.57 652.618 3182.33 653.664 3188 655.359 3193.45 657.632 3198.78 660.422 3203.82 663.788 3208.59 667.526 3213.11 671.718 3217.24 676.239 3220.92 681.079 3224.21 686.182 3227.01 691.57 3229.21 697.148 3230.9 702.867 3231.95 708.691 3232.28 714.621 3231.75 720.599 3230.22 726.505 3227.78 732.295 3224.51 737.919 3220.43 743.307 3215.72 748.402 3210.38 753.222 3204.42 757.775 3198.02 761.873 3191.12 765.575 3183.85 768.893 3176.31 771.64 3168.46 773.873 3160.42 775.533 3152.3 776.556 3144.15 776.935ZM3130.68 710.297 3111.48 740.469 3094.67 708.901C3094.07 707.784 3094.5 706.396 3095.61 705.801 3096.73 705.206 3098.12 705.629 3098.71 706.746L3113.68 734.847 3109.72 734.694 3126.82 707.836C3127.5 706.768 3128.91 706.453 3129.98 707.133 3131.05 707.812 3131.36 709.229 3130.68 710.297Z"/><text font-family="Microsoft YaHei,Microsoft YaHei_MSFontService,sans-serif" font-weight="400" font-size="128" transform="matrix(1 0 0 1 3087.34 569)">图注意力网络</text><path d="M476.5 796.771 1376.55 796.771C1379.72 796.771 1382.28 799.336 1382.28 802.501 1382.28 805.665 1379.72 808.23 1376.55 808.23L476.5 808.229C473.336 808.229 470.771 805.664 470.771 802.5 470.771 799.336 473.336 796.771 476.5 796.771ZM1345.06 777.5 1387.92 802.501 1345.06 827.501C1342.33 829.096 1338.82 828.172 1337.23 825.439 1335.63 822.706 1336.56 819.198 1339.29 817.604L1373.67 797.552 1373.67 807.449 1339.29 787.397C1336.56 785.803 1335.63 782.295 1337.23 779.562 1338.82 776.829 1342.33 775.905 1345.06 777.5Z" fill="#4874CB"/><path d="M5.72889-0.0562759 9.05495 338.537C9.08603 341.701 6.54632 344.291 3.38234 344.322 0.218359 344.353-2.37175 341.813-2.40283 338.649L-5.72889 0.0562759C-5.75997-3.1077-3.22025-5.69781-0.0562759-5.72889 3.1077-5.75997 5.69781-3.22025 5.72889-0.0562759ZM28.0164 306.862 3.43776 349.964-21.9828 307.353C-23.6039 304.636-22.7152 301.119-19.9979 299.498-17.2806 297.877-13.7636 298.765-12.1426 301.483L8.24621 335.659-1.65078 335.756 18.0627 301.186C19.6301 298.437 23.1289 297.48 25.8775 299.047 28.6262 300.615 29.5838 304.113 28.0164 306.862Z" fill="#4874CB" transform="matrix(1 0 0 -1 895.5 1164.44)"/><path d="M1822.53 791.771 2633.89 795.387C2637.06 795.401 2639.61 797.978 2639.6 801.142 2639.58 804.306 2637.01 806.859 2633.84 806.845L1822.47 803.229C1819.31 803.215 1816.76 800.639 1816.77 797.474 1816.79 794.31 1819.36 791.757 1822.53 791.771ZM2602.49 775.975 2645.23 801.167 2602.27 825.976C2599.53 827.558 2596.02 826.62 2594.44 823.879 2592.86 821.139 2593.8 817.635 2596.54 816.053L2631 796.155 2630.96 806.052 2596.67 785.847C2593.94 784.24 2593.04 780.728 2594.64 778.002 2596.25 775.276 2599.76 774.369 2602.49 775.975Z" fill="#4874CB"/><path d="M5.72915-0.0149097 6.59572 332.972C6.60396 336.136 4.04561 338.707 0.881485 338.716-2.28264 338.724-4.85434 336.166-4.86257 333.001L-5.72915 0.0149097C-5.73738-3.14921-3.17903-5.72091-0.0149097-5.72915 3.14921-5.73738 5.72091-3.17903 5.72915-0.0149097ZM25.7854 301.433 0.896164 344.357-24.2161 301.563C-25.8175 298.834-24.9035 295.324-22.1745 293.722-19.4456 292.121-15.9351 293.035-14.3337 295.764L5.80778 330.087-4.08966 330.112 15.8729 295.685C17.4601 292.948 20.9658 292.016 23.703 293.603 26.4403 295.19 27.3726 298.696 25.7854 301.433Z" fill="#4874CB" transform="matrix(-1 0 0 1 3128.4 891.5)"/><text font-family="Microsoft YaHei,Microsoft YaHei_MSFontService,sans-serif" font-weight="400" font-size="128" transform="matrix(1 0 0 1 1789.17 733)">图结构自动学习<tspan font-size="128" x="-138.479" y="625">更新</tspan><tspan font-family="Times New Roman,Times New Roman_MSFontService,sans-serif" font-size="128" x="118.188" y="625">N</tspan><tspan font-size="128" x="211" y="625">维嵌入向量值</tspan><tspan font-size="128" x="1394.33" y="298">深度更新聚合图</tspan><tspan font-size="128" x="1586.83" y="453">节点特征</tspan></text><path d="M0.029244-2.29148 18.3611-2.05753 18.3026 2.52543-0.029244 2.29148ZM32.11-1.88206 50.4418-1.64811 50.3833 2.93485 32.0515 2.7009ZM64.1907-1.47265 82.5225-1.23869 82.464 3.34427 64.1322 3.11031ZM96.2714-1.06323 114.603-0.829278 114.545 3.75368 96.2129 3.51973ZM128.352-0.653813 146.684-0.419861 146.625 4.1631 128.294 3.92915ZM160.433-0.244396 178.765-0.010444 178.706 4.57252 160.374 4.33856ZM192.514 0.16502 210.845 0.398973 210.787 4.98193 192.455 4.74798ZM224.594 0.574437 242.926 0.808389 242.868 5.39135 224.536 5.1574ZM220.746-15.2055 251.406 3.20847 220.286 20.8339C219.184 21.4577 217.786 21.0705 217.162 19.9692 216.538 18.8679 216.926 17.4695 218.027 16.8458L245.729 1.15636 245.679 5.11503 218.386-11.2763C217.301-11.9279 216.949-13.3357 217.601-14.4207 218.253-15.5057 219.66-15.8571 220.746-15.2055Z" transform="matrix(1 0 0 -1 2621.5 960.708)"/><path d="M0.029244-2.29148 18.3611-2.05753 18.3026 2.52543-0.029244 2.29148ZM32.11-1.88206 50.4418-1.64811 50.3833 2.93485 32.0515 2.7009ZM64.1907-1.47265 82.5225-1.23869 82.464 3.34427 64.1322 3.11031ZM96.2714-1.06323 114.603-0.829278 114.545 3.75368 96.2129 3.51973ZM128.352-0.653813 146.684-0.419861 146.625 4.1631 128.294 3.92915ZM160.433-0.244396 178.765-0.010444 178.706 4.57252 160.374 4.33856ZM192.514 0.16502 210.845 0.398973 210.787 4.98193 192.455 4.74798ZM224.594 0.574437 242.926 0.808389 242.868 5.39135 224.536 5.1574ZM220.746-15.2055 251.406 3.20847 220.286 20.8339C219.184 21.4577 217.786 21.0705 217.162 19.9692 216.538 18.8679 216.926 17.4695 218.027 16.8458L245.729 1.15636 245.679 5.11503 218.386-11.2763C217.301-11.9279 216.949-13.3357 217.601-14.4207 218.253-15.5057 219.66-15.8571 220.746-15.2055Z" transform="matrix(1 0 0 -1 2621.5 595.708)"/><path d="M1575.5 1050.5 1575.5 1431.38" stroke="#4874CB" stroke-width="11.4583" stroke-linecap="round" stroke-linejoin="round" stroke-miterlimit="10" fill="none" fill-rule="evenodd"/><path d="M1573.55 1424.77 2773.64 1434.75C2776.8 1434.77 2779.35 1437.36 2779.32 1440.52 2779.29 1443.69 2776.71 1446.23 2773.54 1446.2L1573.45 1436.23C1570.29 1436.2 1567.74 1433.62 1567.77 1430.45 1567.8 1427.29 1570.38 1424.74 1573.55 1424.77ZM2742.31 1415.21 2784.96 1440.57 2741.9 1465.21C2739.15 1466.79 2735.65 1465.83 2734.08 1463.09 2732.51 1460.34 2733.46 1456.84 2736.2 1455.27L2770.74 1435.5 2770.66 1445.4 2736.46 1425.06C2733.74 1423.45 2732.84 1419.93 2734.46 1417.21 2736.08 1414.49 2739.59 1413.6 2742.31 1415.21Z" fill="#4874CB"/><rect x="2863" y="1279" width="497" height="344" fill="#ACD78E"/><text font-family="Microsoft YaHei,Microsoft YaHei_MSFontService,sans-serif" font-weight="400" font-size="128" transform="matrix(1 0 0 1 2918.95 1418)">元素级<tspan font-size="128" x="64.1668" y="155">点乘</tspan></text><path d="M3389.53 1403.77 4233.68 1407.7C4236.84 1407.72 4239.39 1410.29 4239.38 1413.46 4239.37 1416.62 4236.79 1419.18 4233.62 1419.16L3389.47 1415.23C3386.31 1415.21 3383.76 1412.64 3383.77 1409.47 3383.79 1406.31 3386.36 1403.76 3389.53 1403.77ZM4202.28 1388.28 4245.02 1413.48 4202.04 1438.29C4199.3 1439.87 4195.8 1438.93 4194.22 1436.19 4192.64 1433.45 4193.58 1429.94 4196.32 1428.36L4230.79 1408.47 4230.74 1418.37 4196.46 1398.16C4193.73 1396.55 4192.83 1393.04 4194.43 1390.31 4196.04 1387.58 4199.55 1386.68 4202.28 1388.28Z" fill="#4874CB"/><text fill="#E54C5E" font-family="Microsoft YaHei,Microsoft YaHei_MSFontService,sans-serif" font-weight="400" font-size="128" transform="matrix(1 0 0 1 3412.79 1575)">空间维度特征</text></g></svg>