<svg width="3568" height="2367" xmlns="http://www.w3.org/2000/svg" xmlns:xlink="http://www.w3.org/1999/xlink" overflow="hidden"><defs><clipPath id="clip0"><rect x="416" y="54" width="3568" height="2367"/></clipPath><clipPath id="clip1"><rect x="415" y="107" width="3570" height="1488"/></clipPath><clipPath id="clip2"><rect x="415" y="107" width="3570" height="1488"/></clipPath><clipPath id="clip3"><rect x="415" y="107" width="3570" height="1488"/></clipPath><clipPath id="clip4"><rect x="620" y="245" width="3320" height="369"/></clipPath><clipPath id="clip5"><rect x="620" y="245" width="3320" height="369"/></clipPath><clipPath id="clip6"><rect x="620" y="245" width="3320" height="369"/></clipPath><clipPath id="clip7"><rect x="620" y="245" width="3320" height="369"/></clipPath><clipPath id="clip8"><rect x="620" y="245" width="3320" height="369"/></clipPath><clipPath id="clip9"><rect x="620" y="245" width="3320" height="369"/></clipPath><clipPath id="clip10"><rect x="620" y="672" width="3320" height="368"/></clipPath><clipPath id="clip11"><rect x="620" y="672" width="3320" height="368"/></clipPath><clipPath id="clip12"><rect x="620" y="672" width="3320" height="368"/></clipPath><clipPath id="clip13"><rect x="620" y="672" width="3320" height="368"/></clipPath><clipPath id="clip14"><rect x="620" y="672" width="3320" height="368"/></clipPath><clipPath id="clip15"><rect x="620" y="672" width="3320" height="368"/></clipPath><clipPath id="clip16"><rect x="620" y="1098" width="3320" height="368"/></clipPath><clipPath id="clip17"><rect x="620" y="1098" width="3320" height="368"/></clipPath><clipPath id="clip18"><rect x="620" y="1098" width="3320" height="368"/></clipPath><clipPath id="clip19"><rect x="620" y="1098" width="3320" height="368"/></clipPath><clipPath id="clip20"><rect x="620" y="1098" width="3320" height="368"/></clipPath><clipPath id="clip21"><rect x="620" y="1098" width="3320" height="368"/></clipPath></defs><g clip-path="url(#clip0)" transform="translate(-416 -54)"><g clip-path="url(#clip1)"><g clip-path="url(#clip2)"><g clip-path="url(#clip3)"><path d="M0 1486.67 3568 1486.67 3568 0 0 0Z" fill="#FFFFFF" transform="matrix(1 0 0 1.00022 416 108)"/><path d="M204.499 504.974 3523.4 504.974 3523.4 137.735 204.499 137.735Z" fill="#FFFFFF" transform="matrix(1 0 0 1.00022 416 108)"/><path d="M0 0 0 14.4537" stroke="#000000" stroke-width="3.3037" stroke-linejoin="round" fill="none" transform="matrix(1 0 0 1.00022 1023.21 613.087)"/><path d="M0 0 0 14.4537" stroke="#000000" stroke-width="3.3037" stroke-linejoin="round" fill="none" transform="matrix(1 0 0 1.00022 1526.91 613.087)"/><path d="M0 0 0 14.4537" stroke="#000000" stroke-width="3.3037" stroke-linejoin="round" fill="none" transform="matrix(1 0 0 1.00022 2030.62 613.087)"/><path d="M0 0 0 14.4537" stroke="#000000" stroke-width="3.3037" stroke-linejoin="round" fill="none" transform="matrix(1 0 0 1.00022 2534.32 613.087)"/><path d="M0 0 0 14.4537" stroke="#000000" stroke-width="3.3037" stroke-linejoin="round" fill="none" transform="matrix(1 0 0 1.00022 3038.02 613.087)"/><path d="M0 0 0 14.4537" stroke="#000000" stroke-width="3.3037" stroke-linejoin="round" fill="none" transform="matrix(1 0 0 1.00022 3541.73 613.087)"/><path d="M0 0-14.4537 0" stroke="#000000" stroke-width="3.3037" stroke-linejoin="round" fill="none" transform="matrix(1 0 0 1.00022 620.499 569.79)"/><path d="M4.37483 14.6602 30.2237 14.6602 30.2237 11.2339 4.37483 11.2339 4.37483 14.6602Z" transform="matrix(1 0 0 -1.00022 530.712 585.483)"/><path d="M5.12332 3.4263 11.7759 3.4263 11.7759 26.3974 4.53614 24.9455 4.53614 28.6558 11.7372 30.1076 15.8087 30.1076 15.8087 3.4263 22.4613 3.4263 22.4613 0 5.12332 0 5.12332 3.4263Z" transform="matrix(1 0 0 -1.00022 565.314 585.483)"/><path d="M0 0-14.4537 0" stroke="#000000" stroke-width="3.3037" stroke-linejoin="round" fill="none" transform="matrix(1 0 0 1.00022 620.499 428.618)"/><path d="M13.1245 27.4233C11.0296 27.4233 9.45298 26.3909 8.39476 24.3261 7.34085 22.2656 6.81389 19.1641 6.81389 15.0215 6.81389 10.8962 7.34085 7.80113 8.39476 5.73631 9.45298 3.6715 11.0296 2.63909 13.1245 2.63909 15.2366 2.63909 16.8196 3.6715 17.8736 5.73631 18.9318 7.80113 19.4609 10.8962 19.4609 15.0215 19.4609 19.1641 18.9318 22.2656 17.8736 24.3261 16.8196 26.3909 15.2366 27.4233 13.1245 27.4233ZM13.1245 30.6496C16.5013 30.6496 19.0802 29.3139 20.8611 26.6426 22.642 23.9755 23.5324 20.1018 23.5324 15.0215 23.5324 9.95413 22.642 6.08475 20.8611 3.4134 19.0802 0.746345 16.5013-0.587182 13.1245-0.587182 9.75195-0.587182 7.17523 0.746345 5.39433 3.4134 3.61343 6.08475 2.72297 9.95413 2.72297 15.0215 2.72297 20.1018 3.61343 23.9755 5.39433 26.6426 7.17523 29.3139 9.75195 30.6496 13.1245 30.6496Z" transform="matrix(1 0 0 -1.00022 565.317 444.311)"/><path d="M0 0-14.4537 0" stroke="#000000" stroke-width="3.3037" stroke-linejoin="round" fill="none" transform="matrix(1 0 0 1.00022 620.499 287.446)"/><path d="M5.12332 3.4263 11.7759 3.4263 11.7759 26.3974 4.53614 24.9455 4.53614 28.6558 11.7372 30.1076 15.8087 30.1076 15.8087 3.4263 22.4613 3.4263 22.4613 0 5.12332 0 5.12332 3.4263Z" transform="matrix(1 0 0 -1.00022 565.317 303.139)"/><path d="M32.2195 29.3591 18.7395 14.9647 27.002 0 21.4657 0 15.2583 11.643 4.45419 0-1.39246 0 13.0522 15.468 5.37691 29.3591 10.9048 29.3591 16.5417 18.7395 26.3728 29.3591 32.2195 29.3591Z" transform="matrix(6.12323e-17 -1.00022 -1 -6.12461e-17 502.861 458.155)"/><path d="M4.66222 3.11794 10.7161 3.11794 10.7161 24.0216 4.12789 22.7004 4.12789 26.0767 10.6808 27.3979 14.386 27.3979 14.386 3.11794 20.4398 3.11794 20.4398 0 4.66222 0 4.66222 3.11794Z" transform="matrix(6.12323e-17 -1.00022 -1 -6.12461e-17 511.669 426.377)"/><g clip-path="url(#clip4)"><path d="M355.358 324.533 360.395 317.479 365.432 312.063 370.469 277.948 375.507 281.913 380.544 286.909 385.581 285.24 390.618 250.383 395.655 258.185 400.692 239.849 405.729 218.935 410.766 240.746 415.803 234.912 420.84 218.756 425.877 200.16 430.914 239.228 435.951 204.644 440.988 212.9 446.025 187.181 451.062 175.184 456.099 198.756 461.136 198.452 466.173 177.314 471.21 173.824 476.247 165.866 481.284 180.98 486.321 183.935 491.358 184.695 496.395 207.371 501.432 178.32 506.469 180.433 511.506 196.227 516.543 208.702 521.58 202.098 526.617 181.225 531.655 227.493 536.692 202.922 541.729 227.224 546.766 221.02 551.803 238.588 556.84 211.95 561.877 242.694 566.914 265.4 571.951 241.101 576.988 264.408 582.025 292.966 587.062 286.929 592.099 307.937 597.136 311.104 602.173 298.229 607.21 327.697 612.247 311.13 617.284 342.192 622.321 361.27 627.358 349.469 632.395 375.278 637.432 376.032 642.469 363.142 647.506 395.693 652.543 410.074 657.58 408.686 662.617 399.102 672.691 454.104 677.728 440.865 682.765 441.093 687.803 447.489 692.84 465.474 702.914 455.425 707.951 484.435 712.988 472.896 723.062 457.955 728.099 435.845 733.136 457.229 738.173 455.815 743.21 465.505 748.247 446.464 753.284 453.238 758.321 450.006 763.358 459.099 768.395 444.242 773.432 436.129 778.469 409.321 783.506 417.311 788.543 419.12 793.58 422.944 798.617 413.768 803.654 405.911 808.691 419.24 813.728 410.275 818.765 385.245 823.802 349.709 828.839 367.15 833.876 363.999 838.914 370.202 843.951 321.97 848.988 320.932 854.025 315.837 859.062 165.273 864.099 172.525 869.136 185.711 874.173 180.947 879.21 196.797 884.247 180.052 889.284 227.58 894.321 255.438 899.358 241.724 909.432 264.339 914.469 299.542 919.506 317.544 924.543 345.609 929.58 346.159 934.617 366.966 939.654 398.188 944.691 398.606 949.728 404.354 954.765 429.189 959.802 458.546 964.839 458.51 969.876 479.172 974.913 462.583 979.95 479.739 984.987 450.378 990.025 488.281 995.062 451.088 1000.1 453.343 1005.14 449.312 1010.17 405.377 1015.21 428.105 1020.25 438.182 1025.28 408.533 1030.32 404.635 1035.36 355.634 1040.39 330.135 1045.43 318.084 1050.47 333.497 1055.51 308.291 1060.54 299.201 1065.58 238.187 1070.62 230.947 1075.65 245.839 1080.69 198.001 1085.73 193.005 1090.77 168.3 1095.8 172.114 1100.84 168.935 1105.88 181.458 1110.91 167.337 1115.95 193.054 1120.99 178.429 1126.02 200.668 1131.06 188.924 1141.14 250.889 1146.17 257.198 1151.21 248.921 1156.25 255.13 1161.28 292.69 1166.32 318.202 1171.36 286.432 1176.39 331.962 1181.43 408.015 1186.47 394.133 1191.51 394.191 1196.54 392.927 1201.58 400.01 1206.62 426.122 1211.65 445.866 1216.69 454.057 1221.73 456.721 1226.77 475.828 1231.8 468.981 1236.84 460.005 1241.88 475.215 1246.91 438.152 1251.95 446.66 1256.99 459.869 1262.02 455.562 1267.06 406.272 1272.1 378.422 1277.14 400.698 1282.17 349.254 1287.21 348.719 1292.25 350.349 1297.28 301.556 1302.32 286.829 1307.36 279.15 1312.39 266.268 1317.43 235.574 1322.47 244.718 1327.51 230.833 1332.54 204.358 1337.58 198.325 1342.62 163.45 1347.65 168.786 1352.69 183.984 1357.73 154.428 1362.76 189.974 1367.8 168.567 1372.84 215.157 1377.88 187.816 1382.91 207.62 1387.95 223.799 1398.02 213.426 1403.06 245.443 1408.1 252.806 1413.14 248.725 1418.17 328.832 1423.21 302.312 1428.25 349.516 1433.28 347.509 1438.32 372.887 1443.36 394.455 1448.39 397.708 1458.47 415.631 1463.51 428.672 1468.54 460.859 1473.58 431.811 1478.62 465.008 1483.65 458.488 1488.69 461.81 1493.73 454.741 1498.76 476.663 1503.8 467.832 1508.84 455.675 1513.88 413.635 1518.91 423.917 1523.95 386.991 1528.99 393.431 1534.02 365.678 1539.06 366.686 1544.1 355.244 1549.14 332.356 1554.17 290.109 1559.21 271.722 1564.25 283.669 1569.28 252.154 1579.36 212.103 1584.39 233.226 1589.43 211.821 1594.47 180.615 1599.51 188.28 1604.54 184.271 1609.58 195.494 1614.62 193.841 1619.65 178.252 1624.69 191.128 1629.73 199.164 1634.76 196.408 1639.8 226.43 1644.84 201.408 1649.88 245.988 1654.91 246.007 1659.95 247.527 1664.99 285.721 1670.02 283.49 1675.06 321.222 1680.1 352.416 1685.14 354.251 1690.17 344.349 1695.21 407.248 1700.25 402.64 1705.28 403.685 1710.32 435.513 1715.36 446.079 1720.39 448.134 1725.43 457.808 1730.47 463.223 1735.51 474.747 1740.54 453.615 1745.58 462.234 1750.62 447.093 1755.65 462.453 1760.69 435.46 1765.73 445.811 1770.76 422.002 1775.8 381.454 1780.84 369.34 1785.88 393.198 1790.91 355.223 1795.95 327.405 1800.99 338.591 1806.02 292.603 1811.06 264.843 1816.1 243.579 1821.13 261.898 1831.21 218.945 1836.25 212.41 1846.32 161.291 1851.36 201.712 1856.39 192.971 1861.43 176.906 1866.47 342.291 1871.51 321.894 1876.54 297.641 1881.58 286.958 1886.62 295.643 1891.65 279.868 1896.69 274.224 1901.73 271.54 1911.8 267.976 1916.84 240.4 1921.88 232.049 1926.91 241.836 1931.95 226.302 1936.99 240.373 1942.02 213.868 1947.06 195.18 1952.1 198.843 1957.13 198.823 1962.17 177.772 1967.21 186.357 1972.25 166.104 1977.28 171.01 1982.32 185.218 1987.36 185.697 1992.39 198.79 1997.43 173.128 2002.47 172.243 2007.51 190.739 2012.54 171.125 2017.58 187.778 2022.62 193.095 2027.65 176.52 2032.69 248.376 2037.73 214.034 2042.76 210.814 2047.8 208.687 2052.84 226.073 2057.88 214.405 2062.91 235.277 2067.95 241.178 2072.99 243.254 2078.02 257.471 2083.06 269.651 2088.1 275.071 2093.13 281.832 2098.17 284.56 2103.21 302.726 2108.25 307.542 2113.28 344.941 2118.32 300.28 2123.36 338.86 2128.39 334.741 2133.43 336.151 2138.47 375.32 2143.5 356.632 2148.54 391.479 2153.58 381.949 2158.62 353.948 2163.65 413.176 2168.69 420.825 2173.73 411.822 2178.76 427.855 2183.8 405.395 2188.84 427.203 2193.88 439.643 2198.91 462.357 2203.95 460.616 2208.99 456.099 2214.02 461.678 2219.06 446.059 2229.13 464.176 2234.17 453.459 2239.21 466.465 2244.25 439.868 2249.28 458.154 2254.32 471.496 2259.36 447.093 2264.39 444.46 2269.43 466.201 2274.47 455.447 2279.5 476.264 2284.54 428.893 2289.58 443.738 2294.62 448.857 2299.65 421.81 2304.69 418.311 2309.73 397.729 2314.76 390.683 2319.8 417.955 2324.84 380.089 2329.88 354.154 2334.91 381.869 2339.95 366.817 2344.99 372.658 2350.02 362.97 2355.06 361.109 2360.1 331.43 2365.13 327.542 2370.17 331.997 2375.21 332.823 2380.25 293.431 2385.28 312.821 2390.32 269.978 2395.36 249.722 2400.39 284.592 2405.43 280.188 2410.47 252.928 2415.5 249.146 2420.54 231.152 2425.58 229.465 2430.62 214.542 2435.65 207.765 2440.69 202.892 2445.73 208.598 2450.76 234.681 2455.8 193.922 2460.84 192.976 2465.88 195.865 2470.91 162.102 2475.95 195.499 2480.99 182.635 2486.02 193.053 2491.06 199.003 2496.1 190.504 2501.13 171.291 2506.17 174.065 2511.21 179.605 2521.28 198.225 2531.36 193.447 2536.39 211.896 2541.43 197.181 2546.47 203.997 2551.5 232.98 2561.58 222.06 2566.62 257.641 2571.65 229.94 2576.69 257.143 2581.73 278.154 2586.76 290.818 2591.8 266.583 2596.84 261.961 2601.87 293.574 2606.91 301.898 2611.95 315.767 2616.99 322.864 2622.02 325.464 2627.06 339.234 2632.1 333.299 2637.13 344.37 2642.17 353.278 2652.25 392.609 2657.28 365.305 2662.32 381.166 2667.36 416.638 2672.39 388.889 2677.43 397.082 2682.47 400.421 2687.5 430.24 2692.54 419.211 2697.58 452.18 2702.62 431.243 2707.65 448.71 2712.69 453.983 2722.76 453.326 2727.8 445.928 2732.84 472.611 2737.87 452.764 2742.91 462.066 2747.95 450.795 2758.02 484.483 2763.06 440.54 2768.1 465.04 2773.13 431.593 2778.17 433.741 2783.21 441.456 2788.25 454.387 2793.28 441.223 2798.32 410.609 2803.36 445.213 2808.39 385.13 2813.43 399.085 2818.47 393.838 2823.5 391.074 2828.54 382.045 2833.58 401.802 2843.65 358.489 2848.69 379.642 2853.73 354.645 2858.76 336.523 2863.8 321.753 2868.84 333.891 2873.87 185.385 2878.91 168.808 2883.95 185.706 2888.99 184.554 2894.02 187.078 2899.06 170.862 2904.1 165.771 2909.13 183.881 2914.17 212.074 2919.21 227.31 2929.28 177.886 2934.32 214.005 2939.36 226.837 2944.39 259.35 2949.43 236.475 2954.47 261.946 2959.5 248.881 2964.54 282.074 2969.58 268.726 2974.62 263.055 2979.65 260.014 2984.69 304.982 2989.73 324.108 2994.76 324.035 2999.8 328.441 3004.84 360.69 3009.87 310.543 3014.91 375.06 3019.95 321.675 3024.99 352.327 3030.02 353.618 3035.06 371.733 3040.1 384.699 3045.13 386.308 3050.17 396.382 3055.21 441.536 3060.24 436.804 3065.28 438.694 3070.32 431.466 3075.36 439.698 3080.39 431.949 3085.43 425.431 3090.47 426.55 3095.5 479.202 3100.54 464.615 3105.58 459.067 3110.62 423.725 3115.65 467.629 3120.69 452.661 3125.73 469.829 3130.76 464.239 3135.8 457.33 3140.84 443.127 3145.87 463.517 3150.91 470.686 3155.95 463.472 3160.99 437.769 3166.02 436.43 3171.06 391.38 3176.1 425.221 3181.13 428.56 3186.17 413.531 3191.21 407.012 3196.24 393.17 3201.28 414.39 3206.32 407.091 3211.36 369.403 3216.39 342.749 3221.43 383.014 3226.47 336.887 3231.5 352.884 3236.54 335.318 3241.58 354.362 3246.61 304.92 3251.65 336.208 3261.73 286.035 3266.76 304.707 3271.8 274.263 3276.84 285.28 3281.87 253.083 3286.91 238.27 3291.95 247.964 3296.99 233.29 3302.02 234.597 3307.06 224.342 3312.1 206.963 3317.13 220.087 3322.17 187.333 3327.21 198.328 3332.24 223.192 3337.28 173.171 3342.32 181.81 3347.36 175.708 3352.39 207.919 3357.43 200.94 3362.47 189.481 3367.5 166.832 3372.54 185.09 3372.54 185.09" stroke="#0000FF" stroke-width="6.19444" stroke-linecap="square" stroke-linejoin="round" fill="none" transform="matrix(1 0 0 1.00022 416 108)"/></g><g clip-path="url(#clip5)"><path d="M859.062 504.974 859.062 137.735" stroke="#000000" stroke-width="4.12963" stroke-linejoin="round" stroke-dasharray="15.2796 6.60741" fill="none" transform="matrix(1 0 0 1.00022 416 108)"/></g><g clip-path="url(#clip6)"><path d="M1362.76 504.974 1362.76 137.735" stroke="#000000" stroke-width="4.12963" stroke-linejoin="round" stroke-dasharray="15.2796 6.60741" fill="none" transform="matrix(1 0 0 1.00022 416 108)"/></g><g clip-path="url(#clip7)"><path d="M1866.47 504.974 1866.47 137.735" stroke="#000000" stroke-width="4.12963" stroke-linejoin="round" stroke-dasharray="15.2796 6.60741" fill="none" transform="matrix(1 0 0 1.00022 416 108)"/></g><g clip-path="url(#clip8)"><path d="M2370.17 504.974 2370.17 137.735" stroke="#000000" stroke-width="4.12963" stroke-linejoin="round" stroke-dasharray="15.2796 6.60741" fill="none" transform="matrix(1 0 0 1.00022 416 108)"/></g><g clip-path="url(#clip9)"><path d="M2873.87 504.974 2873.87 137.735" stroke="#000000" stroke-width="4.12963" stroke-linejoin="round" stroke-dasharray="15.2796 6.60741" fill="none" transform="matrix(1 0 0 1.00022 416 108)"/></g><path d="M204.499 504.974 204.499 137.735" stroke="#000000" stroke-width="3.3037" stroke-linecap="square" fill="none" transform="matrix(1 0 0 1.00022 416 108)"/><path d="M3523.4 504.974 3523.4 137.735" stroke="#000000" stroke-width="3.3037" stroke-linecap="square" fill="none" transform="matrix(1 0 0 1.00022 416 108)"/><path d="M204.499 504.974 3523.4 504.974" stroke="#000000" stroke-width="3.3037" stroke-linecap="square" fill="none" transform="matrix(1 0 0 1.00022 416 108)"/><path d="M204.499 137.735 3523.4 137.735" stroke="#000000" stroke-width="3.3037" stroke-linecap="square" fill="none" transform="matrix(1 0 0 1.00022 416 108)"/><path d="M607.21 83.2907C607.21 86.4461 607.21 88.0624 607.21 88.1397" stroke="#000000" stroke-width="4.12963" stroke-linecap="round" stroke-linejoin="round" fill="none" transform="matrix(1 0 0 1.00022 416 108)"/><path d="M617.947 66.6656 607.21 88.1397 596.473 66.6656" stroke="#000000" stroke-width="4.12963" stroke-linecap="round" stroke-linejoin="round" fill="none" transform="matrix(1 0 0 1.00022 416 108)"/><path d="M29.3088 5.84665 31.3555 16.0972 22.6484 16.0972 23.4621 20.4507 37.3531 20.4507 33.9727 3.22111C31.6463 1.94609 29.1102 0.96186 26.3645 0.268426 23.6243-0.419416 20.8645-0.763336 18.0852-0.763336 13.1752-0.763336 9.33619 0.598366 6.56805 3.32177 3.7999 6.05077 2.41583 9.84508 2.41583 14.7047 2.41583 18.7423 3.25746 22.5813 4.94071 26.2219 6.62956 29.868 8.95872 32.9073 11.9282 35.34 13.796 36.8554 15.8399 37.9851 18.06 38.7288 20.2801 39.4726 22.7435 39.8445 25.4501 39.8445 27.8995 39.8445 30.2455 39.5341 32.4879 38.9134 34.736 38.2926 36.8834 37.3615 38.9301 36.1201L37.8564 30.4831C36.2794 32.1272 34.434 33.3827 32.3202 34.2495 30.2063 35.1163 27.9526 35.5497 25.5592 35.5497 22.7799 35.5497 20.3333 35.0184 18.2194 33.9559 16.1056 32.899 14.2182 31.2632 12.5573 29.0487 11.1425 27.1586 10.0268 24.9329 9.21037 22.3716 8.3995 19.8104 7.99406 17.2016 7.99406 14.5453 7.99406 10.8936 8.92796 8.14505 10.7958 6.29962 12.6691 4.45979 15.4569 3.53987 19.1589 3.53987 21.0155 3.53987 22.8078 3.73559 24.5358 4.12705 26.2638 4.5241 27.8548 5.0973 29.3088 5.84665Z" transform="matrix(1 0 0 -1.00022 989.657 197.447)"/><path d="M4.66222 3.11794 10.7161 3.11794 10.7161 24.0216 4.12789 22.7004 4.12789 26.0767 10.6808 27.3979 14.386 27.3979 14.386 3.11794 20.4398 3.11794 20.4398 0 4.66222 0 4.66222 3.11794Z" transform="matrix(1 0 0 -1.00022 1031.26 206.257)"/><path d="M1110.91 83.2907C1110.91 86.4461 1110.91 88.0624 1110.91 88.1397" stroke="#000000" stroke-width="4.12963" stroke-linecap="round" stroke-linejoin="round" fill="none" transform="matrix(1 0 0 1.00022 416 108)"/><path d="M1121.65 66.6656 1110.91 88.1397 1100.18 66.6656" stroke="#000000" stroke-width="4.12963" stroke-linecap="round" stroke-linejoin="round" fill="none" transform="matrix(1 0 0 1.00022 416 108)"/><path d="M29.3088 5.84665 31.3555 16.0972 22.6484 16.0972 23.4621 20.4507 37.3531 20.4507 33.9727 3.22111C31.6463 1.94609 29.1102 0.96186 26.3645 0.268426 23.6243-0.419416 20.8645-0.763336 18.0852-0.763336 13.1752-0.763336 9.33619 0.598366 6.56805 3.32177 3.7999 6.05077 2.41583 9.84508 2.41583 14.7047 2.41583 18.7423 3.25746 22.5813 4.94071 26.2219 6.62956 29.868 8.95872 32.9073 11.9282 35.34 13.796 36.8554 15.8399 37.9851 18.06 38.7288 20.2801 39.4726 22.7435 39.8445 25.4501 39.8445 27.8995 39.8445 30.2455 39.5341 32.4879 38.9134 34.736 38.2926 36.8834 37.3615 38.9301 36.1201L37.8564 30.4831C36.2794 32.1272 34.434 33.3827 32.3202 34.2495 30.2063 35.1163 27.9526 35.5497 25.5592 35.5497 22.7799 35.5497 20.3333 35.0184 18.2194 33.9559 16.1056 32.899 14.2182 31.2632 12.5573 29.0487 11.1425 27.1586 10.0268 24.9329 9.21037 22.3716 8.3995 19.8104 7.99406 17.2016 7.99406 14.5453 7.99406 10.8936 8.92796 8.14505 10.7958 6.29962 12.6691 4.45979 15.4569 3.53987 19.1589 3.53987 21.0155 3.53987 22.8078 3.73559 24.5358 4.12705 26.2638 4.5241 27.8548 5.0973 29.3088 5.84665Z" transform="matrix(1 0 0 -1.00022 1493.36 197.447)"/><path d="M7.21059 3.11794 20.1462 3.11794 20.1462 0 2.75388 0 2.75388 3.11794C4.1592 4.57415 6.07537 6.5275 8.50239 8.97801 10.9333 11.4324 12.46 13.0159 13.0824 13.7283 14.2685 15.0593 15.0964 16.1866 15.5662 17.1105 16.0398 18.0343 16.2767 18.9425 16.2767 19.835 16.2767 21.2912 15.7658 22.4773 14.7441 23.3933 13.7224 24.3132 12.3915 24.7732 10.7513 24.7732 9.58868 24.7732 8.36147 24.5716 7.06967 24.1684 5.78178 23.7652 4.40386 23.1526 2.93591 22.3305L2.93591 26.0767C4.42735 26.6757 5.82093 27.1278 7.11664 27.4331 8.41627 27.7385 9.60434 27.8911 10.6808 27.8911 13.5189 27.8911 15.7815 27.1806 17.4687 25.7597 19.1558 24.3426 19.9994 22.448 19.9994 20.0757 19.9994 18.9484 19.788 17.8797 19.3653 16.8697 18.9464 15.8637 18.1791 14.6756 17.0635 13.3055 16.7582 12.9493 15.7854 11.9237 14.1452 10.2287 12.5089 8.53371 10.1974 6.16345 7.21059 3.11794Z" transform="matrix(1 0 0 -1.00022 1534.96 206.257)"/><path d="M1614.62 83.2907C1614.62 86.4461 1614.62 88.0624 1614.62 88.1397" stroke="#000000" stroke-width="4.12963" stroke-linecap="round" stroke-linejoin="round" fill="none" transform="matrix(1 0 0 1.00022 416 108)"/><path d="M1625.35 66.6656 1614.62 88.1397 1603.88 66.6656" stroke="#000000" stroke-width="4.12963" stroke-linecap="round" stroke-linejoin="round" fill="none" transform="matrix(1 0 0 1.00022 416 108)"/><path d="M29.3088 5.84665 31.3555 16.0972 22.6484 16.0972 23.4621 20.4507 37.3531 20.4507 33.9727 3.22111C31.6463 1.94609 29.1102 0.96186 26.3645 0.268426 23.6243-0.419416 20.8645-0.763336 18.0852-0.763336 13.1752-0.763336 9.33619 0.598366 6.56805 3.32177 3.7999 6.05077 2.41583 9.84508 2.41583 14.7047 2.41583 18.7423 3.25746 22.5813 4.94071 26.2219 6.62956 29.868 8.95872 32.9073 11.9282 35.34 13.796 36.8554 15.8399 37.9851 18.06 38.7288 20.2801 39.4726 22.7435 39.8445 25.4501 39.8445 27.8995 39.8445 30.2455 39.5341 32.4879 38.9134 34.736 38.2926 36.8834 37.3615 38.9301 36.1201L37.8564 30.4831C36.2794 32.1272 34.434 33.3827 32.3202 34.2495 30.2063 35.1163 27.9526 35.5497 25.5592 35.5497 22.7799 35.5497 20.3333 35.0184 18.2194 33.9559 16.1056 32.899 14.2182 31.2632 12.5573 29.0487 11.1425 27.1586 10.0268 24.9329 9.21037 22.3716 8.3995 19.8104 7.99406 17.2016 7.99406 14.5453 7.99406 10.8936 8.92796 8.14505 10.7958 6.29962 12.6691 4.45979 15.4569 3.53987 19.1589 3.53987 21.0155 3.53987 22.8078 3.73559 24.5358 4.12705 26.2638 4.5241 27.8548 5.0973 29.3088 5.84665Z" transform="matrix(1 0 0 -1.00022 1997.06 197.447)"/><path d="M7.21059 3.11794 20.1462 3.11794 20.1462 0 2.75388 0 2.75388 3.11794C4.1592 4.57415 6.07537 6.5275 8.50239 8.97801 10.9333 11.4324 12.46 13.0159 13.0824 13.7283 14.2685 15.0593 15.0964 16.1866 15.5662 17.1105 16.0398 18.0343 16.2767 18.9425 16.2767 19.835 16.2767 21.2912 15.7658 22.4773 14.7441 23.3933 13.7224 24.3132 12.3915 24.7732 10.7513 24.7732 9.58868 24.7732 8.36147 24.5716 7.06967 24.1684 5.78178 23.7652 4.40386 23.1526 2.93591 22.3305L2.93591 26.0767C4.42735 26.6757 5.82093 27.1278 7.11664 27.4331 8.41627 27.7385 9.60434 27.8911 10.6808 27.8911 13.5189 27.8911 15.7815 27.1806 17.4687 25.7597 19.1558 24.3426 19.9994 22.448 19.9994 20.0757 19.9994 18.9484 19.788 17.8797 19.3653 16.8697 18.9464 15.8637 18.1791 14.6756 17.0635 13.3055 16.7582 12.9493 15.7854 11.9237 14.1452 10.2287 12.5089 8.53371 10.1974 6.16345 7.21059 3.11794Z" transform="matrix(1 0 0 -1.00022 2038.66 206.257)"/><path d="M2118.32 83.2907C2118.32 86.4461 2118.32 88.0624 2118.32 88.1397" stroke="#000000" stroke-width="4.12963" stroke-linecap="round" stroke-linejoin="round" fill="none" transform="matrix(1 0 0 1.00022 416 108)"/><path d="M2129.06 66.6656 2118.32 88.1397 2107.58 66.6656" stroke="#000000" stroke-width="4.12963" stroke-linecap="round" stroke-linejoin="round" fill="none" transform="matrix(1 0 0 1.00022 416 108)"/><path d="M29.3088 5.84665 31.3555 16.0972 22.6484 16.0972 23.4621 20.4507 37.3531 20.4507 33.9727 3.22111C31.6463 1.94609 29.1102 0.96186 26.3645 0.268426 23.6243-0.419416 20.8645-0.763336 18.0852-0.763336 13.1752-0.763336 9.33619 0.598366 6.56805 3.32177 3.7999 6.05077 2.41583 9.84508 2.41583 14.7047 2.41583 18.7423 3.25746 22.5813 4.94071 26.2219 6.62956 29.868 8.95872 32.9073 11.9282 35.34 13.796 36.8554 15.8399 37.9851 18.06 38.7288 20.2801 39.4726 22.7435 39.8445 25.4501 39.8445 27.8995 39.8445 30.2455 39.5341 32.4879 38.9134 34.736 38.2926 36.8834 37.3615 38.9301 36.1201L37.8564 30.4831C36.2794 32.1272 34.434 33.3827 32.3202 34.2495 30.2063 35.1163 27.9526 35.5497 25.5592 35.5497 22.7799 35.5497 20.3333 35.0184 18.2194 33.9559 16.1056 32.899 14.2182 31.2632 12.5573 29.0487 11.1425 27.1586 10.0268 24.9329 9.21037 22.3716 8.3995 19.8104 7.99406 17.2016 7.99406 14.5453 7.99406 10.8936 8.92796 8.14505 10.7958 6.29962 12.6691 4.45979 15.4569 3.53987 19.1589 3.53987 21.0155 3.53987 22.8078 3.73559 24.5358 4.12705 26.2638 4.5241 27.8548 5.0973 29.3088 5.84665Z" transform="matrix(1 0 0 -1.00022 2500.77 197.447)"/><path d="M4.66222 3.11794 10.7161 3.11794 10.7161 24.0216 4.12789 22.7004 4.12789 26.0767 10.6808 27.3979 14.386 27.3979 14.386 3.11794 20.4398 3.11794 20.4398 0 4.66222 0 4.66222 3.11794Z" transform="matrix(1 0 0 -1.00022 2542.37 206.257)"/><path d="M2622.02 83.2907C2622.02 86.4461 2622.02 88.0624 2622.02 88.1397" stroke="#000000" stroke-width="4.12963" stroke-linecap="round" stroke-linejoin="round" fill="none" transform="matrix(1 0 0 1.00022 416 108)"/><path d="M2632.76 66.6656 2622.02 88.1397 2611.29 66.6656" stroke="#000000" stroke-width="4.12963" stroke-linecap="round" stroke-linejoin="round" fill="none" transform="matrix(1 0 0 1.00022 416 108)"/><path d="M29.3088 5.84665 31.3555 16.0972 22.6484 16.0972 23.4621 20.4507 37.3531 20.4507 33.9727 3.22111C31.6463 1.94609 29.1102 0.96186 26.3645 0.268426 23.6243-0.419416 20.8645-0.763336 18.0852-0.763336 13.1752-0.763336 9.33619 0.598366 6.56805 3.32177 3.7999 6.05077 2.41583 9.84508 2.41583 14.7047 2.41583 18.7423 3.25746 22.5813 4.94071 26.2219 6.62956 29.868 8.95872 32.9073 11.9282 35.34 13.796 36.8554 15.8399 37.9851 18.06 38.7288 20.2801 39.4726 22.7435 39.8445 25.4501 39.8445 27.8995 39.8445 30.2455 39.5341 32.4879 38.9134 34.736 38.2926 36.8834 37.3615 38.9301 36.1201L37.8564 30.4831C36.2794 32.1272 34.434 33.3827 32.3202 34.2495 30.2063 35.1163 27.9526 35.5497 25.5592 35.5497 22.7799 35.5497 20.3333 35.0184 18.2194 33.9559 16.1056 32.899 14.2182 31.2632 12.5573 29.0487 11.1425 27.1586 10.0268 24.9329 9.21037 22.3716 8.3995 19.8104 7.99406 17.2016 7.99406 14.5453 7.99406 10.8936 8.92796 8.14505 10.7958 6.29962 12.6691 4.45979 15.4569 3.53987 19.1589 3.53987 21.0155 3.53987 22.8078 3.73559 24.5358 4.12705 26.2638 4.5241 27.8548 5.0973 29.3088 5.84665Z" transform="matrix(1 0 0 -1.00022 3004.47 197.447)"/><path d="M4.66222 3.11794 10.7161 3.11794 10.7161 24.0216 4.12789 22.7004 4.12789 26.0767 10.6808 27.3979 14.386 27.3979 14.386 3.11794 20.4398 3.11794 20.4398 0 4.66222 0 4.66222 3.11794Z" transform="matrix(1 0 0 -1.00022 3046.07 206.257)"/><path d="M3125.73 83.2907C3125.73 86.4461 3125.73 88.0624 3125.73 88.1397" stroke="#000000" stroke-width="4.12963" stroke-linecap="round" stroke-linejoin="round" fill="none" transform="matrix(1 0 0 1.00022 416 108)"/><path d="M3136.46 66.6656 3125.73 88.1397 3114.99 66.6656" stroke="#000000" stroke-width="4.12963" stroke-linecap="round" stroke-linejoin="round" fill="none" transform="matrix(1 0 0 1.00022 416 108)"/><path d="M29.3088 5.84665 31.3555 16.0972 22.6484 16.0972 23.4621 20.4507 37.3531 20.4507 33.9727 3.22111C31.6463 1.94609 29.1102 0.96186 26.3645 0.268426 23.6243-0.419416 20.8645-0.763336 18.0852-0.763336 13.1752-0.763336 9.33619 0.598366 6.56805 3.32177 3.7999 6.05077 2.41583 9.84508 2.41583 14.7047 2.41583 18.7423 3.25746 22.5813 4.94071 26.2219 6.62956 29.868 8.95872 32.9073 11.9282 35.34 13.796 36.8554 15.8399 37.9851 18.06 38.7288 20.2801 39.4726 22.7435 39.8445 25.4501 39.8445 27.8995 39.8445 30.2455 39.5341 32.4879 38.9134 34.736 38.2926 36.8834 37.3615 38.9301 36.1201L37.8564 30.4831C36.2794 32.1272 34.434 33.3827 32.3202 34.2495 30.2063 35.1163 27.9526 35.5497 25.5592 35.5497 22.7799 35.5497 20.3333 35.0184 18.2194 33.9559 16.1056 32.899 14.2182 31.2632 12.5573 29.0487 11.1425 27.1586 10.0268 24.9329 9.21037 22.3716 8.3995 19.8104 7.99406 17.2016 7.99406 14.5453 7.99406 10.8936 8.92796 8.14505 10.7958 6.29962 12.6691 4.45979 15.4569 3.53987 19.1589 3.53987 21.0155 3.53987 22.8078 3.73559 24.5358 4.12705 26.2638 4.5241 27.8548 5.0973 29.3088 5.84665Z" transform="matrix(1 0 0 -1.00022 3508.17 197.447)"/><path d="M15.2491 14.7735C17.0224 14.3938 18.4062 13.603 19.4005 12.4013 20.3987 11.2034 20.8978 9.72373 20.8978 7.96218 20.8978 5.26115 19.9681 3.16882 18.1087 1.68521 16.2493 0.205514 13.607-0.534335 10.1817-0.534335 9.03477-0.534335 7.85258-0.420814 6.63515-0.19377 5.41773 0.0332736 4.16116 0.373839 2.86545 0.827926L2.86545 4.40386C3.89106 3.80494 5.01453 3.35281 6.23587 3.04747 7.46112 2.74214 8.74118 2.58947 10.076 2.58947 12.3974 2.58947 14.1667 3.04747 15.3842 3.96348 16.6016 4.87948 17.2103 6.21238 17.2103 7.96218 17.2103 9.57889 16.6446 10.8413 15.5133 11.7495 14.382 12.6616 12.8084 13.1176 10.7924 13.1176L7.59813 13.1176 7.59813 16.1651 10.9392 16.1651C12.7595 16.1651 14.153 16.5292 15.1199 17.2573 16.0868 17.9854 16.5703 19.0345 16.5703 20.4046 16.5703 21.8099 16.0712 22.8883 15.073 23.6399 14.0787 24.3954 12.6518 24.7732 10.7924 24.7732 9.77462 24.7732 8.68442 24.6616 7.5218 24.4385 6.35918 24.2193 5.08108 23.8787 3.6875 23.4168L3.6875 26.7168C5.09674 27.1082 6.41594 27.4018 7.64511 27.5975 8.87427 27.7933 10.033 27.8911 11.1212 27.8911 13.9358 27.8911 16.1612 27.2511 17.7975 25.971 19.4377 24.6949 20.2578 22.9686 20.2578 20.7921 20.2578 19.2733 19.8233 17.9912 18.9542 16.9461 18.0852 15.9009 16.8502 15.1767 15.2491 14.7735Z" transform="matrix(1 0 0 -1.00022 3549.77 206.257)"/><path d="M204.499 931.266 3523.4 931.266 3523.4 564.027 204.499 564.027Z" fill="#FFFFFF" transform="matrix(1 0 0 1.00022 416 108)"/><path d="M0 0 0 14.4537" stroke="#000000" stroke-width="3.3037" stroke-linejoin="round" fill="none" transform="matrix(1 0 0 1.00022 1023.21 1039.47)"/><path d="M0 0 0 14.4537" stroke="#000000" stroke-width="3.3037" stroke-linejoin="round" fill="none" transform="matrix(1 0 0 1.00022 1526.91 1039.47)"/><path d="M0 0 0 14.4537" stroke="#000000" stroke-width="3.3037" stroke-linejoin="round" fill="none" transform="matrix(1 0 0 1.00022 2030.62 1039.47)"/><path d="M0 0 0 14.4537" stroke="#000000" stroke-width="3.3037" stroke-linejoin="round" fill="none" transform="matrix(1 0 0 1.00022 2534.32 1039.47)"/><path d="M0 0 0 14.4537" stroke="#000000" stroke-width="3.3037" stroke-linejoin="round" fill="none" transform="matrix(1 0 0 1.00022 3038.02 1039.47)"/><path d="M0 0 0 14.4537" stroke="#000000" stroke-width="3.3037" stroke-linejoin="round" fill="none" transform="matrix(1 0 0 1.00022 3541.73 1039.47)"/><path d="M0 0-14.4537 0" stroke="#000000" stroke-width="3.3037" stroke-linejoin="round" fill="none" transform="matrix(1 0 0 1.00022 620.499 992.6)"/><path d="M4.37483 14.6602 30.2237 14.6602 30.2237 11.2339 4.37483 11.2339 4.37483 14.6602Z" transform="matrix(1 0 0 -1.00022 530.712 1008.29)"/><path d="M5.12332 3.4263 11.7759 3.4263 11.7759 26.3974 4.53614 24.9455 4.53614 28.6558 11.7372 30.1076 15.8087 30.1076 15.8087 3.4263 22.4613 3.4263 22.4613 0 5.12332 0 5.12332 3.4263Z" transform="matrix(1 0 0 -1.00022 565.314 1008.29)"/><path d="M0 0-14.4537 0" stroke="#000000" stroke-width="3.3037" stroke-linejoin="round" fill="none" transform="matrix(1 0 0 1.00022 620.499 852.631)"/><path d="M13.1245 27.4233C11.0296 27.4233 9.45298 26.3909 8.39476 24.3261 7.34085 22.2656 6.81389 19.1641 6.81389 15.0215 6.81389 10.8962 7.34085 7.80113 8.39476 5.73631 9.45298 3.6715 11.0296 2.63909 13.1245 2.63909 15.2366 2.63909 16.8196 3.6715 17.8736 5.73631 18.9318 7.80113 19.4609 10.8962 19.4609 15.0215 19.4609 19.1641 18.9318 22.2656 17.8736 24.3261 16.8196 26.3909 15.2366 27.4233 13.1245 27.4233ZM13.1245 30.6496C16.5013 30.6496 19.0802 29.3139 20.8611 26.6426 22.642 23.9755 23.5324 20.1018 23.5324 15.0215 23.5324 9.95413 22.642 6.08475 20.8611 3.4134 19.0802 0.746345 16.5013-0.587182 13.1245-0.587182 9.75195-0.587182 7.17523 0.746345 5.39433 3.4134 3.61343 6.08475 2.72297 9.95413 2.72297 15.0215 2.72297 20.1018 3.61343 23.9755 5.39433 26.6426 7.17523 29.3139 9.75195 30.6496 13.1245 30.6496Z" transform="matrix(1 0 0 -1.00022 565.317 868.324)"/><path d="M0 0-14.4537 0" stroke="#000000" stroke-width="3.3037" stroke-linejoin="round" fill="none" transform="matrix(1 0 0 1.00022 620.499 712.663)"/><path d="M5.12332 3.4263 11.7759 3.4263 11.7759 26.3974 4.53614 24.9455 4.53614 28.6558 11.7372 30.1076 15.8087 30.1076 15.8087 3.4263 22.4613 3.4263 22.4613 0 5.12332 0 5.12332 3.4263Z" transform="matrix(1 0 0 -1.00022 565.317 728.356)"/><path d="M32.2195 29.3591 18.7395 14.9647 27.002 0 21.4657 0 15.2583 11.643 4.45419 0-1.39246 0 13.0522 15.468 5.37691 29.3591 10.9048 29.3591 16.5417 18.7395 26.3728 29.3591 32.2195 29.3591Z" transform="matrix(6.12323e-17 -1.00022 -1 -6.12461e-17 502.861 884.542)"/><path d="M7.21059 3.11794 20.1462 3.11794 20.1462 0 2.75388 0 2.75388 3.11794C4.1592 4.57415 6.07537 6.5275 8.50239 8.97801 10.9333 11.4324 12.46 13.0159 13.0824 13.7283 14.2685 15.0593 15.0964 16.1866 15.5662 17.1105 16.0398 18.0343 16.2767 18.9425 16.2767 19.835 16.2767 21.2912 15.7658 22.4773 14.7441 23.3933 13.7224 24.3132 12.3915 24.7732 10.7513 24.7732 9.58868 24.7732 8.36147 24.5716 7.06967 24.1684 5.78178 23.7652 4.40386 23.1526 2.93591 22.3305L2.93591 26.0767C4.42735 26.6757 5.82093 27.1278 7.11664 27.4331 8.41627 27.7385 9.60434 27.8911 10.6808 27.8911 13.5189 27.8911 15.7815 27.1806 17.4687 25.7597 19.1558 24.3426 19.9994 22.448 19.9994 20.0757 19.9994 18.9484 19.788 17.8797 19.3653 16.8697 18.9464 15.8637 18.1791 14.6756 17.0635 13.3055 16.7582 12.9493 15.7854 11.9237 14.1452 10.2287 12.5089 8.53371 10.1974 6.16345 7.21059 3.11794Z" transform="matrix(6.12323e-17 -1.00022 -1 -6.12461e-17 511.669 852.764)"/><g clip-path="url(#clip10)"><path d="M355.358 608.806 360.395 603.806 365.432 630.605 370.469 587.449 375.507 606.921 380.544 598.732 385.581 632.529 390.618 611.012 395.655 615.964 400.692 634.579 405.729 650.852 410.766 634.617 415.803 627.372 420.84 641.726 425.877 638.528 430.914 666.539 435.951 646.131 440.988 680.774 446.025 693.189 451.062 687.267 456.099 711.891 461.136 726.516 471.21 736.253 476.247 728.555 481.284 730.067 491.358 767.099 496.395 770.456 501.432 790.81 506.469 804.482 511.506 800.298 516.543 807.677 521.58 821.952 526.617 816.241 531.655 827.578 536.692 837.27 541.729 816.846 546.766 856.777 551.803 867.084 556.84 863.218 561.877 890.208 566.914 891.549 576.988 859.288 582.025 899.041 587.062 865.069 592.099 854.858 597.136 885.512 602.173 911.369 607.21 880.228 612.247 886.326 617.284 884.018 622.321 851.387 627.358 888.071 632.395 858.119 637.432 864.94 642.469 883.894 652.543 840.895 657.58 839.158 662.617 854.955 667.654 823.984 672.691 824.358 682.765 830.522 687.803 811.273 692.84 807.357 697.877 788.963 702.914 784.267 707.951 791.775 712.988 776.544 718.025 780.304 723.062 751.397 728.099 741.73 733.136 742.52 738.173 734.791 743.21 719.746 748.247 702.699 753.284 694.276 758.321 697.232 763.358 665.435 768.395 681.979 773.432 659.974 778.469 669.797 783.506 640.433 788.543 637.958 793.58 640.635 798.617 621.505 803.654 647.364 808.691 598.979 813.728 611.136 818.765 610.983 823.802 614.703 828.839 628.618 833.876 627.206 838.914 618.583 843.951 597.803 848.988 614.055 854.025 611.285 859.062 737.667 864.099 753.762 869.136 729.761 874.173 712.826 879.21 713.968 884.247 700.049 889.284 669.153 894.321 668.253 899.358 685.093 904.395 673.783 909.432 652.044 914.469 663.079 919.506 627.707 924.543 639.144 929.58 641.738 934.617 642.409 939.654 621.727 944.691 646.323 949.728 616.41 954.765 609.68 959.802 623.524 964.839 608.982 969.876 597.701 974.913 615.486 979.95 584.483 984.987 620.484 990.025 584.851 995.062 606.263 1000.1 592.109 1005.14 609.164 1010.17 617.07 1015.21 647.424 1020.25 611.229 1025.28 629.086 1030.32 624.165 1035.36 642.16 1040.39 631.121 1045.43 627.132 1050.47 660.39 1055.51 656.904 1060.54 648.105 1065.58 672.482 1070.62 683.029 1075.65 662.008 1080.69 668.056 1085.73 702.509 1090.77 702.221 1095.8 731.011 1100.84 712.582 1105.88 742.472 1110.91 764.273 1115.95 770.907 1120.99 752.372 1126.02 782.346 1131.06 779.376 1136.1 772.084 1141.14 814.699 1146.17 814.029 1151.21 795.742 1156.25 817.685 1161.28 844.419 1166.32 828.694 1171.36 827.47 1176.39 860.778 1181.43 841.702 1186.47 859.446 1191.51 880.576 1196.54 883.547 1201.58 876.706 1206.62 871.897 1211.65 893.855 1216.69 903.744 1221.73 888.11 1226.77 863.523 1231.8 907.38 1236.84 883.783 1241.88 864.791 1246.91 872.795 1251.95 876.03 1256.99 881.331 1262.02 898.998 1267.06 886.139 1272.1 860.146 1277.14 862.447 1282.17 843.234 1287.21 850.512 1292.25 861.219 1297.28 841.902 1302.32 814.984 1307.36 836.805 1312.39 828.705 1317.43 804.1 1322.47 793.917 1327.51 808.975 1332.54 763.664 1337.58 781.382 1342.62 783.354 1347.65 757.905 1352.69 760.076 1357.73 764.617 1362.76 746.001 1367.8 737.214 1372.84 734.388 1377.88 732.159 1382.91 710.146 1387.95 696.515 1392.99 704.662 1398.02 692.16 1403.06 664.394 1408.1 680.979 1413.14 659.571 1418.17 664.782 1423.21 662.442 1428.25 660.954 1433.28 615.585 1438.32 634.224 1443.36 614.849 1448.39 634.471 1453.43 613.144 1458.47 605.586 1463.51 603.024 1468.54 608.509 1473.58 641.077 1478.62 612.498 1483.65 597.646 1488.69 600.229 1493.73 628.87 1498.76 591.325 1503.8 601.615 1508.84 620.036 1513.88 615.007 1518.91 613.018 1523.95 593.831 1528.99 629.141 1539.06 628.823 1544.1 649.392 1549.14 642.773 1554.17 642.233 1559.21 664.818 1564.25 648.012 1569.28 656.591 1574.32 704.867 1579.36 669.864 1584.39 692.821 1589.43 710.101 1594.47 724.203 1599.51 700.828 1604.54 709.667 1609.58 737.064 1614.62 777.699 1619.65 765.764 1624.69 750.557 1629.73 769.59 1634.76 797.326 1639.8 766.998 1644.84 777.806 1649.88 789.993 1654.91 805.21 1659.95 808.538 1664.99 814.125 1670.02 834.967 1675.06 837.679 1680.1 842.803 1685.14 843.458 1690.17 864.06 1695.21 867.266 1700.25 869.056 1705.28 855.756 1710.32 877.013 1715.36 894.709 1720.39 883.729 1725.43 904.833 1730.47 868.705 1735.51 901.674 1740.54 874.913 1745.58 861.133 1750.62 869.562 1755.65 872.147 1760.69 877.974 1765.73 871.021 1770.76 856.788 1775.8 873.826 1780.84 882.89 1785.88 873.491 1790.91 846.85 1795.95 867.047 1800.99 834.473 1806.02 847.476 1811.06 856.026 1816.1 820.022 1821.13 834.011 1826.17 789.336 1831.21 824.183 1836.25 782.55 1841.28 765.547 1846.32 789.632 1851.36 784.738 1856.39 734.876 1861.43 715.1 1866.47 593.364 1876.54 619.27 1881.58 587.683 1886.62 628.977 1891.65 626.859 1896.69 602.474 1901.73 629.485 1906.76 621.761 1911.8 633.793 1916.84 668.936 1921.88 666.443 1926.91 657.72 1931.95 650.825 1936.99 648.579 1942.02 658.154 1947.06 680.303 1952.1 688.822 1957.13 675.747 1962.17 679.052 1967.21 709.541 1972.25 735.875 1977.28 712.906 1982.32 721.91 1987.36 721.861 1992.39 758.817 1997.43 758.407 2002.47 769.032 2007.51 785.639 2012.54 775.904 2017.58 784.029 2022.62 781.77 2027.65 822.266 2032.69 821.586 2037.73 811.63 2042.76 816.557 2047.8 856.194 2052.84 835.083 2057.88 832.933 2062.91 878.38 2067.95 873.68 2072.99 865.735 2078.02 863.569 2083.06 865.227 2088.1 870.92 2093.13 893.45 2098.17 877.693 2103.21 865.377 2108.25 872.918 2113.28 914.573 2118.32 887.081 2123.36 895.844 2128.39 871.757 2133.43 874.709 2138.47 872.615 2143.5 851.754 2148.54 884.546 2153.58 860.13 2158.62 866.248 2163.65 867.458 2168.69 851.183 2173.73 838.682 2178.76 837.551 2183.8 853.955 2188.84 859.176 2193.88 837.196 2198.91 795.723 2203.95 793.16 2208.99 815.762 2214.02 804.327 2219.06 774.865 2224.1 788.918 2229.13 753.184 2234.17 734.308 2239.21 741.349 2244.25 743.374 2249.28 736.074 2254.32 735.631 2259.36 732.082 2264.39 685.469 2269.43 695.112 2274.47 696.618 2279.5 677.008 2284.54 679.914 2289.58 679.26 2294.62 671.949 2299.65 646.686 2304.69 650.768 2309.73 650.467 2314.76 635.304 2319.8 638.203 2324.84 637.855 2329.88 616.095 2334.91 610.75 2339.95 618.723 2344.99 612.69 2355.06 625.902 2360.1 627.356 2365.13 596.107 2370.17 616.393 2375.21 581.824 2380.25 615.868 2385.28 580.72 2390.32 611.857 2395.36 618.676 2400.39 610.371 2405.43 617.529 2410.47 612.173 2415.5 595.699 2420.54 635.581 2425.58 629.816 2430.62 642.897 2435.65 639.319 2440.69 653.163 2445.73 647.288 2450.76 683.25 2455.8 687.037 2460.84 688.87 2465.88 711.065 2470.91 687.681 2480.99 730.062 2486.02 729.225 2491.06 743.12 2496.1 769.109 2501.13 743.929 2506.17 791.871 2511.21 774.853 2516.25 777.81 2521.28 792.623 2526.32 791.351 2531.36 802.5 2536.39 823.295 2541.43 817.802 2546.47 839.946 2551.5 821.672 2556.54 845.472 2561.58 853.085 2566.62 851.815 2571.65 846.513 2576.69 863.737 2581.73 904.661 2586.76 864.073 2591.8 853.558 2596.84 856.423 2601.87 883.033 2606.91 887.482 2616.99 860.477 2622.02 885.541 2627.06 869.155 2632.1 904.572 2637.13 869.587 2642.17 871.679 2647.21 852.602 2652.25 870.663 2657.28 875.882 2662.32 841.618 2667.36 847.523 2672.39 865.296 2677.43 860.107 2682.47 838.109 2687.5 859.005 2692.54 859.037 2697.58 842.859 2702.62 806.067 2707.65 790.494 2712.69 778.344 2717.73 796.156 2722.76 788.646 2727.8 789.789 2732.84 754.423 2737.87 760.726 2742.91 763.767 2747.95 746.864 2752.99 743.129 2758.02 707.795 2763.06 698.279 2768.1 694.842 2773.13 719.091 2778.17 716.707 2783.21 688.5 2788.25 655.978 2793.28 650.84 2798.32 644.965 2803.36 653.026 2808.39 646.349 2813.43 629.49 2818.47 642.012 2823.5 629.885 2828.54 611.402 2833.58 638.41 2838.62 591.313 2843.65 630.502 2848.69 595.262 2853.73 596.505 2858.76 614.572 2863.8 617.018 2868.84 607.558 2873.87 611.736 2878.91 593.176 2883.95 609.158 2888.99 600.237 2894.02 610.292 2899.06 593.047 2904.1 590.662 2909.13 604.674 2914.17 638.994 2919.21 657.556 2924.25 628.05 2929.28 592.986 2934.32 657.652 2939.36 640.262 2944.39 676.766 2949.43 672.592 2954.47 701.485 2959.5 665.533 2964.54 712.815 2974.62 677.608 2979.65 692.971 2984.69 728.21 2989.73 743.033 2994.76 747.694 2999.8 747.109 3004.84 781.876 3009.87 736.021 3014.91 798.318 3019.95 755.975 3024.99 773.465 3030.02 774.939 3040.1 802.976 3045.13 822.971 3050.17 820.905 3055.21 878.14 3060.24 861.026 3070.32 863.783 3075.36 854.639 3080.39 861.122 3085.43 848.484 3090.47 850.088 3095.5 899.424 3100.54 880.446 3105.58 881.183 3110.62 838.767 3115.65 895.41 3120.69 882.387 3125.73 888.279 3130.76 885.594 3135.8 871.381 3140.84 865.048 3145.87 901.365 3150.91 899.048 3155.95 880.903 3160.99 860.191 3166.02 854.429 3171.06 814.981 3176.1 849.616 3181.13 841.35 3186.17 836.083 3191.21 826.376 3196.24 822.032 3201.28 841.305 3206.32 825.028 3216.39 766.439 3221.43 803.707 3226.47 753.042 3231.5 779.585 3236.54 748.836 3241.58 770.061 3246.61 728.121 3251.65 761.443 3256.69 728.037 3261.73 719.207 3266.76 722.001 3271.8 702.107 3276.84 705.97 3281.87 679.052 3286.91 671.993 3291.95 669.713 3296.99 658.207 3302.02 653.812 3307.06 652.955 3312.1 614.838 3317.13 636.214 3322.17 607.921 3332.24 649.142 3337.28 597.325 3342.32 600.406 3347.36 612.218 3352.39 629.468 3357.43 637.885 3362.47 608.788 3367.5 597.769 3372.54 613.258 3372.54 613.258" stroke="#0000FF" stroke-width="6.19444" stroke-linecap="square" stroke-linejoin="round" fill="none" transform="matrix(1 0 0 1.00022 416 108)"/></g><g clip-path="url(#clip11)"><path d="M859.062 931.266 859.062 564.027" stroke="#000000" stroke-width="4.12963" stroke-linejoin="round" stroke-dasharray="15.2796 6.60741" fill="none" transform="matrix(1 0 0 1.00022 416 108)"/></g><g clip-path="url(#clip12)"><path d="M1362.76 931.266 1362.76 564.027" stroke="#000000" stroke-width="4.12963" stroke-linejoin="round" stroke-dasharray="15.2796 6.60741" fill="none" transform="matrix(1 0 0 1.00022 416 108)"/></g><g clip-path="url(#clip13)"><path d="M1866.47 931.266 1866.47 564.027" stroke="#000000" stroke-width="4.12963" stroke-linejoin="round" stroke-dasharray="15.2796 6.60741" fill="none" transform="matrix(1 0 0 1.00022 416 108)"/></g><g clip-path="url(#clip14)"><path d="M2370.17 931.266 2370.17 564.027" stroke="#000000" stroke-width="4.12963" stroke-linejoin="round" stroke-dasharray="15.2796 6.60741" fill="none" transform="matrix(1 0 0 1.00022 416 108)"/></g><g clip-path="url(#clip15)"><path d="M2873.87 931.266 2873.87 564.027" stroke="#000000" stroke-width="4.12963" stroke-linejoin="round" stroke-dasharray="15.2796 6.60741" fill="none" transform="matrix(1 0 0 1.00022 416 108)"/></g><path d="M204.499 931.266 204.499 564.027" stroke="#000000" stroke-width="3.3037" stroke-linecap="square" fill="none" transform="matrix(1 0 0 1.00022 416 108)"/><path d="M3523.4 931.266 3523.4 564.027" stroke="#000000" stroke-width="3.3037" stroke-linecap="square" fill="none" transform="matrix(1 0 0 1.00022 416 108)"/><path d="M204.499 931.266 3523.4 931.266" stroke="#000000" stroke-width="3.3037" stroke-linecap="square" fill="none" transform="matrix(1 0 0 1.00022 416 108)"/><path d="M204.499 564.027 3523.4 564.027" stroke="#000000" stroke-width="3.3037" stroke-linecap="square" fill="none" transform="matrix(1 0 0 1.00022 416 108)"/><path d="M204.499 1357.56 3523.4 1357.56 3523.4 990.32 204.499 990.32Z" fill="#FFFFFF" transform="matrix(1 0 0 1.00022 416 108)"/><path d="M0 0 0 14.4537" stroke="#000000" stroke-width="3.3037" stroke-linejoin="round" fill="none" transform="matrix(1 0 0 1.00022 1023.21 1465.86)"/><path d="M20.9527 27.1007 20.2791 23.6395 11.3978 23.6395 8.51736 8.92774C8.41928 8.38057 8.34701 7.92115 8.30056 7.54948 8.2541 7.17781 8.23087 6.88874 8.23087 6.68226 8.23087 5.64985 8.54059 4.89877 9.16004 4.42903 9.77948 3.95928 10.7758 3.72441 12.1489 3.72441L16.6476 3.72441 15.8965 0 11.6378 0C8.99485 0 7.02295 0.516204 5.72212 1.54861 4.42645 2.58102 3.77861 4.14512 3.77861 6.2409 3.77861 6.61257 3.80184 7.02037 3.8483 7.46431 3.89476 7.90824 3.96703 8.39605 4.0651 8.92774L6.94552 23.6395 3.16691 23.6395 3.87153 27.1007 7.57271 27.1007 9.07486 34.7973 13.5271 34.7973 12.0482 27.1007 20.9527 27.1007Z" transform="matrix(1 0 0 -1.00022 1001.65 1532.05)"/><path d="M4.30359 2.87809 9.89175 2.87809 9.89175 22.1738 3.81036 20.9543 3.81036 24.0708 9.85923 25.2904 13.2793 25.2904 13.2793 2.87809 18.8675 2.87809 18.8675 0 4.30359 0 4.30359 2.87809Z" transform="matrix(1 0 0 -1.00022 1021.08 1540.18)"/><path d="M0 0 0 14.4537" stroke="#000000" stroke-width="3.3037" stroke-linejoin="round" fill="none" transform="matrix(1 0 0 1.00022 1526.91 1465.86)"/><path d="M20.9527 27.1007 20.2791 23.6395 11.3978 23.6395 8.51736 8.92774C8.41928 8.38057 8.34701 7.92115 8.30056 7.54948 8.2541 7.17781 8.23087 6.88874 8.23087 6.68226 8.23087 5.64985 8.54059 4.89877 9.16004 4.42903 9.77948 3.95928 10.7758 3.72441 12.1489 3.72441L16.6476 3.72441 15.8965 0 11.6378 0C8.99485 0 7.02295 0.516204 5.72212 1.54861 4.42645 2.58102 3.77861 4.14512 3.77861 6.2409 3.77861 6.61257 3.80184 7.02037 3.8483 7.46431 3.89476 7.90824 3.96703 8.39605 4.0651 8.92774L6.94552 23.6395 3.16691 23.6395 3.87153 27.1007 7.57271 27.1007 9.07486 34.7973 13.5271 34.7973 12.0482 27.1007 20.9527 27.1007Z" transform="matrix(1 0 0 -1.00022 1505.36 1532.05)"/><path d="M6.65593 2.87809 18.5965 2.87809 18.5965 0 2.54205 0 2.54205 2.87809C3.83927 4.22229 5.60804 6.02539 7.84836 8.28739 10.0923 10.553 11.5015 12.0146 12.0761 12.6723 13.1709 13.9009 13.9352 14.9415 14.3688 15.7943 14.806 16.6471 15.0246 17.4854 15.0246 18.3092 15.0246 19.6534 14.5531 20.7483 13.61 21.5938 12.6669 22.443 11.4383 22.8676 9.92427 22.8676 8.85109 22.8676 7.71828 22.6815 6.52585 22.3093 5.33703 21.9371 4.0651 21.3716 2.71007 20.6128L2.71007 24.0708C4.08678 24.6237 5.37316 25.041 6.56921 25.3229 7.76887 25.6047 8.86554 25.7457 9.85923 25.7457 12.479 25.7457 14.5675 25.0898 16.1249 23.7782 17.6823 22.4701 18.461 20.7212 18.461 18.5315 18.461 17.4908 18.2659 16.5043 17.8756 15.5721 17.489 14.6434 16.7808 13.5467 15.7509 12.282 15.4691 11.9532 14.5711 11.0065 13.0571 9.44188 11.5467 7.87727 9.41297 5.68934 6.65593 2.87809Z" transform="matrix(1 0 0 -1.00022 1524.79 1540.18)"/><path d="M0 0 0 14.4537" stroke="#000000" stroke-width="3.3037" stroke-linejoin="round" fill="none" transform="matrix(1 0 0 1.00022 2030.62 1465.86)"/><path d="M20.9527 27.1007 20.2791 23.6395 11.3978 23.6395 8.51736 8.92774C8.41928 8.38057 8.34701 7.92115 8.30056 7.54948 8.2541 7.17781 8.23087 6.88874 8.23087 6.68226 8.23087 5.64985 8.54059 4.89877 9.16004 4.42903 9.77948 3.95928 10.7758 3.72441 12.1489 3.72441L16.6476 3.72441 15.8965 0 11.6378 0C8.99485 0 7.02295 0.516204 5.72212 1.54861 4.42645 2.58102 3.77861 4.14512 3.77861 6.2409 3.77861 6.61257 3.80184 7.02037 3.8483 7.46431 3.89476 7.90824 3.96703 8.39605 4.0651 8.92774L6.94552 23.6395 3.16691 23.6395 3.87153 27.1007 7.57271 27.1007 9.07486 34.7973 13.5271 34.7973 12.0482 27.1007 20.9527 27.1007Z" transform="matrix(1 0 0 -1.00022 2009.06 1532.05)"/><path d="M14.0761 13.6371C15.713 13.2866 16.9903 12.5567 17.9081 11.4473 18.8296 10.3416 19.2903 8.97575 19.2903 7.34971 19.2903 4.85644 18.4321 2.92507 16.7157 1.55558 14.9993 0.189705 12.5603-0.493233 9.39852-0.493233 8.33979-0.493233 7.24853-0.388443 6.12476-0.178865 5.00098 0.0307141 3.84107 0.345082 2.64503 0.76424L2.64503 4.0651C3.59175 3.51225 4.6288 3.0949 5.75619 2.81305 6.88719 2.5312 8.06878 2.39028 9.30096 2.39028 11.4437 2.39028 13.077 2.81305 14.2008 3.65859 15.3245 4.50414 15.8864 5.73451 15.8864 7.34971 15.8864 8.84205 15.3643 10.0074 14.32 10.8457 13.2757 11.6876 11.8231 12.1086 9.96222 12.1086L7.01366 12.1086 7.01366 14.9216 10.0977 14.9216C11.778 14.9216 13.0643 15.2577 13.9569 15.9298 14.8494 16.6019 15.2956 17.5703 15.2956 18.835 15.2956 20.1322 14.8349 21.1277 13.9135 21.8215 12.9957 22.5189 11.6786 22.8676 9.96222 22.8676 9.02272 22.8676 8.01639 22.7646 6.9432 22.5586 5.87001 22.3563 4.69023 22.0419 3.40385 21.6155L3.40385 24.6616C4.70468 25.023 5.92241 25.294 7.05702 25.4747 8.19164 25.6553 9.26121 25.7457 10.2657 25.7457 12.8638 25.7457 14.918 25.1549 16.4284 23.9733 17.9425 22.7953 18.6995 21.2018 18.6995 19.1927 18.6995 17.7907 18.2984 16.6073 17.4962 15.6425 16.694 14.6777 15.554 14.0093 14.0761 13.6371Z" transform="matrix(1 0 0 -1.00022 2028.49 1540.18)"/><path d="M0 0 0 14.4537" stroke="#000000" stroke-width="3.3037" stroke-linejoin="round" fill="none" transform="matrix(1 0 0 1.00022 2534.32 1465.86)"/><path d="M20.9527 27.1007 20.2791 23.6395 11.3978 23.6395 8.51736 8.92774C8.41928 8.38057 8.34701 7.92115 8.30056 7.54948 8.2541 7.17781 8.23087 6.88874 8.23087 6.68226 8.23087 5.64985 8.54059 4.89877 9.16004 4.42903 9.77948 3.95928 10.7758 3.72441 12.1489 3.72441L16.6476 3.72441 15.8965 0 11.6378 0C8.99485 0 7.02295 0.516204 5.72212 1.54861 4.42645 2.58102 3.77861 4.14512 3.77861 6.2409 3.77861 6.61257 3.80184 7.02037 3.8483 7.46431 3.89476 7.90824 3.96703 8.39605 4.0651 8.92774L6.94552 23.6395 3.16691 23.6395 3.87153 27.1007 7.57271 27.1007 9.07486 34.7973 13.5271 34.7973 12.0482 27.1007 20.9527 27.1007Z" transform="matrix(1 0 0 -1.00022 2512.76 1532.05)"/><path d="M13.1113 22.3093 4.47161 8.80773 13.1113 8.80773 13.1113 22.3093ZM12.2116 25.2904 16.5152 25.2904 16.5152 8.80773 20.125 8.80773 20.125 5.96215 16.5152 5.96215 16.5152 0 13.1113 0 13.1113 5.96215 1.6965 5.96215 1.6965 9.26302 12.2116 25.2904Z" transform="matrix(1 0 0 -1.00022 2532.19 1540.18)"/><path d="M0 0 0 14.4537" stroke="#000000" stroke-width="3.3037" stroke-linejoin="round" fill="none" transform="matrix(1 0 0 1.00022 3038.02 1465.86)"/><path d="M20.9527 27.1007 20.2791 23.6395 11.3978 23.6395 8.51736 8.92774C8.41928 8.38057 8.34701 7.92115 8.30056 7.54948 8.2541 7.17781 8.23087 6.88874 8.23087 6.68226 8.23087 5.64985 8.54059 4.89877 9.16004 4.42903 9.77948 3.95928 10.7758 3.72441 12.1489 3.72441L16.6476 3.72441 15.8965 0 11.6378 0C8.99485 0 7.02295 0.516204 5.72212 1.54861 4.42645 2.58102 3.77861 4.14512 3.77861 6.2409 3.77861 6.61257 3.80184 7.02037 3.8483 7.46431 3.89476 7.90824 3.96703 8.39605 4.0651 8.92774L6.94552 23.6395 3.16691 23.6395 3.87153 27.1007 7.57271 27.1007 9.07486 34.7973 13.5271 34.7973 12.0482 27.1007 20.9527 27.1007Z" transform="matrix(1 0 0 -1.00022 3016.47 1532.05)"/><path d="M3.74532 25.2904 17.1764 25.2904 17.1764 22.4069 6.87816 22.4069 6.87816 16.2116C7.3732 16.3815 7.86824 16.5079 8.36327 16.591 8.86193 16.6742 9.36058 16.7157 9.85923 16.7157 12.6813 16.7157 14.9162 15.9424 16.5639 14.3959 18.2153 12.8493 19.0409 10.7554 19.0409 8.11395 19.0409 5.39304 18.1936 3.27738 16.4989 1.76697 14.8042 0.260167 12.4157-0.493233 9.33348-0.493233 8.27113-0.493233 7.18891-0.402897 6.08682-0.222226 4.98833-0.0415544 3.85191 0.229453 2.67755 0.590795L2.67755 4.03258C3.69292 3.47973 4.74262 3.0678 5.82665 2.79679 6.91068 2.52578 8.05613 2.39028 9.26302 2.39028 11.2179 2.39028 12.7644 2.90339 13.9027 3.9296 15.0445 4.95581 15.6154 6.3506 15.6154 8.11395 15.6154 9.87369 15.0445 11.2667 13.9027 12.2929 12.7644 13.3227 11.2179 13.8376 9.26302 13.8376 8.34882 13.8376 7.43643 13.7364 6.52585 13.5341 5.61888 13.3317 4.69203 13.0156 3.74532 12.5856L3.74532 25.2904Z" transform="matrix(1 0 0 -1.00022 3035.9 1540.18)"/><path d="M0 0 0 14.4537" stroke="#000000" stroke-width="3.3037" stroke-linejoin="round" fill="none" transform="matrix(1 0 0 1.00022 3541.73 1465.86)"/><path d="M20.9527 27.1007 20.2791 23.6395 11.3978 23.6395 8.51736 8.92774C8.41928 8.38057 8.34701 7.92115 8.30056 7.54948 8.2541 7.17781 8.23087 6.88874 8.23087 6.68226 8.23087 5.64985 8.54059 4.89877 9.16004 4.42903 9.77948 3.95928 10.7758 3.72441 12.1489 3.72441L16.6476 3.72441 15.8965 0 11.6378 0C8.99485 0 7.02295 0.516204 5.72212 1.54861 4.42645 2.58102 3.77861 4.14512 3.77861 6.2409 3.77861 6.61257 3.80184 7.02037 3.8483 7.46431 3.89476 7.90824 3.96703 8.39605 4.0651 8.92774L6.94552 23.6395 3.16691 23.6395 3.87153 27.1007 7.57271 27.1007 9.07486 34.7973 13.5271 34.7973 12.0482 27.1007 20.9527 27.1007Z" transform="matrix(1 0 0 -1.00022 3520.17 1532.05)"/><path d="M11.4528 14.0056C9.91705 14.0056 8.69932 13.4799 7.79958 12.4284 6.90345 11.3805 6.45539 9.94234 6.45539 8.11395 6.45539 6.29639 6.90345 4.85825 7.79958 3.79952 8.69932 2.7444 9.91705 2.21684 11.4528 2.21684 12.9885 2.21684 14.2044 2.7444 15.1005 3.79952 15.9966 4.85825 16.4447 6.29639 16.4447 8.11395 16.4447 9.94234 15.9966 11.3805 15.1005 12.4284 14.2044 13.4799 12.9885 14.0056 11.4528 14.0056ZM18.2442 24.7321 18.2442 21.6155C17.3842 22.0202 16.517 22.3292 15.6425 22.5424 14.7681 22.7592 13.9009 22.8676 13.0409 22.8676 10.7825 22.8676 9.05705 22.1051 7.86462 20.5803 6.6758 19.0554 5.99648 16.7518 5.82665 13.6696 6.49152 14.6524 7.32622 15.4058 8.33075 15.9298 9.3389 16.4537 10.4464 16.7157 11.6533 16.7157 14.1935 16.7157 16.2008 15.9442 17.6751 14.4013 19.1494 12.862 19.8865 10.7662 19.8865 8.11395 19.8865 5.51589 19.1186 3.43095 17.5829 1.85911 16.0472 0.290881 14.0038-0.493233 11.4528-0.493233 8.52588-0.493233 6.28917 0.626929 4.74262 2.86725 3.19608 5.11119 2.4228 8.36147 2.4228 12.6181 2.4228 16.6145 3.37133 19.8016 5.26838 22.1792 7.16542 24.5568 9.71108 25.7457 12.9054 25.7457 13.7653 25.7457 14.6326 25.6607 15.507 25.4909 16.3815 25.3211 17.2939 25.0681 18.2442 24.7321Z" transform="matrix(1 0 0 -1.00022 3539.6 1540.18)"/><path d="M0 0-14.4537 0" stroke="#000000" stroke-width="3.3037" stroke-linejoin="round" fill="none" transform="matrix(1 0 0 1.00022 620.499 1419.3)"/><path d="M4.37483 14.6602 30.2237 14.6602 30.2237 11.2339 4.37483 11.2339 4.37483 14.6602Z" transform="matrix(1 0 0 -1.00022 530.712 1434.99)"/><path d="M5.12332 3.4263 11.7759 3.4263 11.7759 26.3974 4.53614 24.9455 4.53614 28.6558 11.7372 30.1076 15.8087 30.1076 15.8087 3.4263 22.4613 3.4263 22.4613 0 5.12332 0 5.12332 3.4263Z" transform="matrix(1 0 0 -1.00022 565.314 1434.99)"/><path d="M0 0-14.4537 0" stroke="#000000" stroke-width="3.3037" stroke-linejoin="round" fill="none" transform="matrix(1 0 0 1.00022 620.499 1282.64)"/><path d="M13.1245 27.4233C11.0296 27.4233 9.45298 26.3909 8.39476 24.3261 7.34085 22.2656 6.81389 19.1641 6.81389 15.0215 6.81389 10.8962 7.34085 7.80113 8.39476 5.73631 9.45298 3.6715 11.0296 2.63909 13.1245 2.63909 15.2366 2.63909 16.8196 3.6715 17.8736 5.73631 18.9318 7.80113 19.4609 10.8962 19.4609 15.0215 19.4609 19.1641 18.9318 22.2656 17.8736 24.3261 16.8196 26.3909 15.2366 27.4233 13.1245 27.4233ZM13.1245 30.6496C16.5013 30.6496 19.0802 29.3139 20.8611 26.6426 22.642 23.9755 23.5324 20.1018 23.5324 15.0215 23.5324 9.95413 22.642 6.08475 20.8611 3.4134 19.0802 0.746345 16.5013-0.587182 13.1245-0.587182 9.75195-0.587182 7.17523 0.746345 5.39433 3.4134 3.61343 6.08475 2.72297 9.95413 2.72297 15.0215 2.72297 20.1018 3.61343 23.9755 5.39433 26.6426 7.17523 29.3139 9.75195 30.6496 13.1245 30.6496Z" transform="matrix(1 0 0 -1.00022 565.317 1298.33)"/><path d="M0 0-14.4537 0" stroke="#000000" stroke-width="3.3037" stroke-linejoin="round" fill="none" transform="matrix(1 0 0 1.00022 620.499 1145.99)"/><path d="M5.12332 3.4263 11.7759 3.4263 11.7759 26.3974 4.53614 24.9455 4.53614 28.6558 11.7372 30.1076 15.8087 30.1076 15.8087 3.4263 22.4613 3.4263 22.4613 0 5.12332 0 5.12332 3.4263Z" transform="matrix(1 0 0 -1.00022 565.317 1161.68)"/><path d="M32.2195 29.3591 18.7395 14.9647 27.002 0 21.4657 0 15.2583 11.643 4.45419 0-1.39246 0 13.0522 15.468 5.37691 29.3591 10.9048 29.3591 16.5417 18.7395 26.3728 29.3591 32.2195 29.3591Z" transform="matrix(6.12323e-17 -1.00022 -1 -6.12461e-17 502.861 1310.93)"/><path d="M15.2491 14.7735C17.0224 14.3938 18.4062 13.603 19.4005 12.4013 20.3987 11.2034 20.8978 9.72373 20.8978 7.96218 20.8978 5.26115 19.9681 3.16882 18.1087 1.68521 16.2493 0.205514 13.607-0.534335 10.1817-0.534335 9.03477-0.534335 7.85258-0.420814 6.63515-0.19377 5.41773 0.0332736 4.16116 0.373839 2.86545 0.827926L2.86545 4.40386C3.89106 3.80494 5.01453 3.35281 6.23587 3.04747 7.46112 2.74214 8.74118 2.58947 10.076 2.58947 12.3974 2.58947 14.1667 3.04747 15.3842 3.96348 16.6016 4.87948 17.2103 6.21238 17.2103 7.96218 17.2103 9.57889 16.6446 10.8413 15.5133 11.7495 14.382 12.6616 12.8084 13.1176 10.7924 13.1176L7.59813 13.1176 7.59813 16.1651 10.9392 16.1651C12.7595 16.1651 14.153 16.5292 15.1199 17.2573 16.0868 17.9854 16.5703 19.0345 16.5703 20.4046 16.5703 21.8099 16.0712 22.8883 15.073 23.6399 14.0787 24.3954 12.6518 24.7732 10.7924 24.7732 9.77462 24.7732 8.68442 24.6616 7.5218 24.4385 6.35918 24.2193 5.08108 23.8787 3.6875 23.4168L3.6875 26.7168C5.09674 27.1082 6.41594 27.4018 7.64511 27.5975 8.87427 27.7933 10.033 27.8911 11.1212 27.8911 13.9358 27.8911 16.1612 27.2511 17.7975 25.971 19.4377 24.6949 20.2578 22.9686 20.2578 20.7921 20.2578 19.2733 19.8233 17.9912 18.9542 16.9461 18.0852 15.9009 16.8502 15.1767 15.2491 14.7735Z" transform="matrix(6.12323e-17 -1.00022 -1 -6.12461e-17 511.669 1279.15)"/><g clip-path="url(#clip16)"><path d="M355.358 1179.89 360.395 1153.84 365.432 1143.02 370.469 1093.67 375.507 1114.52 380.544 1093.81 385.581 1067.87 390.618 1038.1 395.655 1060.78 400.692 1047.75 405.729 1048.12 410.766 1028.08 415.803 1034.66 420.84 1062.35 425.877 1066.78 430.914 1029.75 435.951 1053.25 440.988 1064.23 446.025 1088.86 451.062 1066.96 456.099 1100.33 461.136 1144.69 466.173 1116.62 476.247 1155.33 481.284 1192.25 486.321 1179.75 491.358 1204.81 496.395 1207.06 501.432 1266.4 506.469 1272.52 511.506 1263.11 516.543 1272.81 521.58 1285.34 526.617 1306.02 531.655 1311.61 536.692 1296.49 541.729 1333.57 546.766 1315.42 551.803 1300.84 556.84 1305.11 561.877 1288.51 566.914 1277.11 571.951 1263.61 576.988 1277.08 582.025 1243.38 587.062 1241.44 592.099 1225.5 597.136 1194.83 602.173 1178.91 607.21 1138.59 612.247 1154.48 627.358 1092.91 632.395 1082.17 637.432 1066.7 642.469 1088.15 647.506 1059.66 652.543 1057.55 657.58 1032.03 662.617 1064.35 667.654 1038.56 677.728 1024.83 682.765 1031.45 687.803 1057.7 692.84 1031.31 697.877 1077.42 702.914 1108.19 707.951 1105.24 712.988 1140.68 718.025 1128.12 723.062 1174.78 728.099 1184.59 733.136 1173.16 738.173 1193.7 743.21 1198 748.247 1212.84 753.284 1259.83 758.321 1250.28 763.358 1272.81 768.395 1283.86 773.432 1288.8 778.469 1288.35 783.506 1303.33 788.543 1338.2 793.58 1317.81 798.617 1314.51 803.654 1308.95 808.691 1309.45 813.728 1277.24 818.765 1258.67 823.802 1254.16 828.839 1238.56 833.876 1260.43 838.914 1214.94 843.951 1216.68 848.988 1190.83 854.025 1180.08 859.062 1164.27 864.099 1178.14 869.136 1149.26 874.173 1132.79 879.21 1142.78 884.247 1128.8 889.284 1096.87 894.321 1100.58 899.358 1120.1 904.395 1105.07 909.432 1070.99 914.469 1086.34 919.506 1062.61 924.543 1070.91 929.58 1082.41 934.617 1064.23 939.654 1056.44 944.691 1083.72 949.728 1056.48 954.765 1033.21 959.802 1057.44 964.839 1057.09 969.876 1033.14 974.913 1042.01 979.95 1013.62 984.987 1056.44 990.025 1026.91 995.062 1044.15 1000.1 1025.03 1005.14 1037.9 1010.17 1044.45 1015.21 1082.05 1020.25 1057.68 1025.28 1043.67 1030.32 1060.58 1035.36 1073.91 1040.39 1076.01 1045.43 1058.06 1050.47 1095.81 1055.51 1091.48 1060.54 1080.25 1065.58 1100.76 1070.62 1109.87 1075.65 1091.36 1080.69 1093.17 1085.73 1147.98 1090.77 1129.24 1095.8 1159.79 1100.84 1143.85 1105.88 1179.39 1110.91 1186.86 1115.95 1189.17 1120.99 1183.85 1126.02 1209.26 1131.06 1207.09 1136.1 1208.32 1141.14 1241.63 1146.17 1238.15 1151.21 1226.44 1156.25 1254.88 1161.28 1274.46 1166.32 1262.19 1171.36 1262.85 1176.39 1293.27 1181.43 1271.53 1186.47 1292.47 1191.51 1305.31 1196.54 1308.41 1201.58 1297.07 1206.62 1299.49 1211.65 1316.41 1216.69 1326.29 1221.73 1308.66 1226.77 1288.61 1231.8 1335.69 1236.84 1318.92 1241.88 1286.7 1246.91 1297.99 1251.95 1319.38 1256.99 1301.93 1262.02 1323.27 1267.06 1298.73 1272.1 1282.21 1277.14 1283.19 1282.17 1274.78 1287.21 1287.03 1292.25 1294.47 1297.28 1266.6 1302.32 1241.78 1307.36 1261.35 1312.39 1250.16 1317.43 1236.16 1322.47 1236.91 1327.51 1228.5 1332.54 1201.44 1337.58 1217.81 1342.62 1216.87 1347.65 1204.91 1352.69 1188.68 1357.73 1185.75 1362.76 1175.13 1367.8 1159.5 1372.84 1165.93 1377.88 1154.83 1382.91 1126.64 1387.95 1127.77 1392.99 1134.82 1403.06 1099.04 1408.1 1122.68 1413.14 1089.14 1418.17 1103.93 1423.21 1111.54 1428.25 1086.51 1433.28 1035.56 1438.32 1063.96 1443.36 1048.4 1448.39 1058.6 1453.43 1041.83 1458.47 1044.45 1463.51 1034.84 1468.54 1047.06 1473.58 1073.81 1478.62 1046.21 1483.65 1030.56 1488.69 1024.94 1493.73 1069.89 1498.76 1029.62 1503.8 1034.97 1508.84 1049.44 1513.88 1043.08 1518.91 1042.02 1523.95 1035.41 1528.99 1062.41 1534.02 1066.33 1539.06 1065.48 1544.1 1085.45 1549.14 1077.46 1554.17 1055.84 1559.21 1099.08 1569.28 1078.19 1574.32 1136.05 1579.36 1104.25 1584.39 1119.91 1589.43 1138.26 1594.47 1152.56 1599.51 1129.14 1604.54 1138.56 1609.58 1155.95 1614.62 1202.96 1619.65 1205.31 1624.69 1179.05 1629.73 1197.34 1634.76 1232.44 1639.8 1202.68 1644.84 1193.99 1649.88 1222.18 1654.91 1231.78 1659.95 1238.16 1664.99 1246.11 1670.02 1261.57 1675.06 1258.56 1680.1 1262.49 1685.14 1268.12 1690.17 1294.47 1700.25 1307.71 1705.28 1280.17 1710.32 1294.41 1715.36 1319.77 1720.39 1297.94 1725.43 1340.87 1730.47 1288.77 1735.51 1328.8 1740.54 1299.38 1745.58 1290.16 1750.62 1299.56 1755.65 1291.71 1760.69 1293.16 1765.73 1285.78 1770.76 1279.63 1775.8 1297.6 1780.84 1293.83 1785.88 1299.37 1790.91 1261.74 1795.95 1287.41 1800.99 1264.79 1806.02 1284 1811.06 1273.93 1816.1 1250.97 1821.13 1263.85 1826.17 1219.37 1831.21 1257.59 1836.25 1218.42 1841.28 1194.58 1846.32 1232.75 1851.36 1215.19 1856.39 1159 1861.43 1157.08 1866.47 1186.39 1871.51 1160.63 1876.54 1141.82 1886.62 1109.68 1891.65 1097.38 1896.69 1070.91 1901.73 1070.23 1906.76 1049.69 1911.8 1045.74 1921.88 1052.48 1926.91 1020.1 1931.95 1039.32 1936.99 1054.39 1942.02 1029.09 1947.06 1063.46 1952.1 1036.91 1957.13 1057.89 1962.17 1087.82 1967.21 1094.38 1972.25 1103.63 1977.28 1125.02 1982.32 1124.51 1987.36 1183.64 1992.39 1192.67 1997.43 1180.12 2002.47 1205.9 2007.51 1249.52 2012.54 1246.55 2022.62 1270.68 2027.65 1272.95 2032.69 1319.67 2037.73 1317.89 2042.76 1300.1 2047.8 1311.48 2052.84 1286.95 2057.88 1293.57 2062.91 1310.32 2067.95 1322.01 2072.99 1294.01 2078.02 1287.34 2083.06 1300.84 2088.1 1262.37 2093.13 1256.84 2098.17 1222.64 2103.21 1203.14 2108.25 1197.12 2113.28 1170.72 2118.32 1157.6 2123.36 1140.34 2128.39 1130.57 2133.43 1136.11 2138.47 1095.6 2148.54 1095.61 2153.58 1045.07 2158.62 1061.41 2163.65 1026.37 2168.69 1026.44 2173.73 1050.26 2178.76 1036.26 2183.8 1035.37 2188.84 1051.54 2193.88 1065.96 2198.91 1046.94 2203.95 1077.59 2208.99 1058.16 2214.02 1086.58 2219.06 1081.54 2224.1 1115.24 2229.13 1138.26 2234.17 1136.1 2239.21 1166.27 2244.25 1202.46 2249.28 1194.35 2254.32 1210.72 2259.36 1252.97 2264.39 1267.56 2269.43 1258.06 2274.47 1299.12 2279.5 1312.05 2284.54 1318.29 2289.58 1312.76 2294.62 1309.52 2299.65 1316.11 2304.69 1327.32 2309.73 1309.46 2314.76 1287.29 2319.8 1276.83 2324.84 1276.75 2329.88 1270.05 2334.91 1226.58 2339.95 1281.36 2344.99 1249.11 2350.02 1254.38 2355.06 1201.46 2360.1 1209.82 2365.13 1194.26 2370.17 1161.66 2375.21 1160.99 2380.25 1132.03 2385.28 1113.78 2390.32 1092.63 2395.36 1094.93 2400.39 1099.28 2405.43 1071.13 2410.47 1049.9 2415.5 1067.99 2420.54 1038.32 2425.58 1037.65 2430.62 1054.85 2435.65 1016.93 2440.69 1050.6 2445.73 1070.34 2455.8 1053.22 2460.84 1052.22 2465.88 1071.23 2470.91 1098.06 2475.95 1119.48 2480.99 1134.66 2486.02 1134.71 2491.06 1141.18 2496.1 1183.96 2501.13 1188.58 2506.17 1228.68 2511.21 1240.31 2516.25 1245.95 2521.28 1255.66 2526.32 1284.47 2531.36 1298.57 2536.39 1291.2 2541.43 1287.42 2546.47 1325.06 2551.5 1312.57 2556.54 1316.14 2561.58 1301.43 2566.62 1300.35 2571.65 1285.44 2576.69 1272.22 2581.73 1271.32 2586.76 1290.63 2591.8 1264.5 2596.84 1266.94 2601.87 1223.71 2606.91 1221.76 2616.99 1170.58 2622.02 1194.28 2627.06 1135.58 2632.1 1143.84 2637.13 1136.25 2642.17 1094.5 2647.21 1086.82 2652.25 1073.8 2657.28 1059 2662.32 1063.07 2667.36 1055.76 2672.39 1031.91 2677.43 1029.57 2682.47 1007.01 2687.5 1045.91 2692.54 1055.38 2697.58 1079.61 2702.62 1043.71 2707.65 1080 2712.69 1078.03 2717.73 1056.87 2722.76 1090.98 2727.8 1135.76 2732.84 1136.65 2737.87 1140.62 2742.91 1184.08 2747.95 1159.27 2752.99 1181.53 2758.02 1240.22 2763.06 1235.44 2768.1 1247.93 2773.13 1293.57 2778.17 1273.25 2783.21 1281.37 2788.25 1302.02 2793.28 1295.15 2798.32 1307.99 2803.36 1311.46 2808.39 1320.71 2813.43 1292.71 2818.47 1293.28 2828.54 1297.65 2833.58 1291.76 2838.62 1265.65 2843.65 1245.33 2848.69 1250.06 2853.73 1238.71 2858.76 1213.6 2863.8 1175.08 2868.84 1166.86 2873.87 1195.95 2878.91 1149.99 2883.95 1131.71 2888.99 1143.4 2894.02 1120.51 2899.06 1091.58 2904.1 1072.07 2909.13 1063.25 2914.17 1061.32 2919.21 1049.07 2924.25 1052.18 2929.28 1039.68 2934.32 1039.76 2939.36 1030.9 2944.39 1045.52 2949.43 1054.57 2954.47 1069.48 2959.5 1051.9 2964.54 1096.17 2969.58 1107.43 2974.62 1085.3 2979.65 1122.57 2984.69 1123.42 2989.73 1154.18 2994.76 1163.14 2999.8 1168.04 3004.84 1194.06 3009.87 1202.06 3019.95 1263.79 3024.99 1241.11 3030.02 1282.53 3035.06 1273.21 3040.1 1315.5 3045.13 1271.81 3050.17 1316.94 3055.21 1309.04 3060.24 1289.86 3065.28 1312.75 3070.32 1320.9 3075.36 1316.61 3080.39 1286.25 3085.43 1277.13 3090.47 1296.26 3095.5 1261.45 3100.54 1245.61 3105.58 1243.84 3110.62 1228.81 3115.65 1199.35 3120.69 1173.35 3125.73 1160.37 3130.76 1156.3 3135.8 1125.75 3140.84 1099.15 3145.87 1106.53 3150.91 1112.75 3155.95 1063.87 3160.99 1064.65 3166.02 1049.79 3171.06 1047.8 3176.1 1046.82 3181.13 1038.4 3186.17 1064.16 3191.21 1043.27 3196.24 1032.26 3201.28 1036.77 3206.32 1059.18 3211.36 1078.86 3216.39 1058.41 3221.43 1089.31 3226.47 1064.63 3236.54 1133.9 3241.58 1136.92 3246.61 1170.08 3251.65 1199.2 3256.69 1216.79 3261.73 1219.95 3266.76 1229.58 3271.8 1231.25 3276.84 1277.63 3281.87 1270.49 3286.91 1269.06 3291.95 1308.88 3296.99 1305.97 3302.02 1303.7 3307.06 1325.6 3312.1 1310.63 3317.13 1315.61 3322.17 1324.78 3327.21 1279.72 3332.24 1303.63 3337.28 1289.61 3342.32 1259.86 3347.36 1245.25 3352.39 1242.4 3357.43 1233.83 3367.5 1170.65 3372.54 1195.23 3372.54 1195.23" stroke="#0000FF" stroke-width="6.19444" stroke-linecap="square" stroke-linejoin="round" fill="none" transform="matrix(1 0 0 1.00022 416 108)"/></g><g clip-path="url(#clip17)"><path d="M859.062 1357.56 859.062 990.32" stroke="#000000" stroke-width="4.12963" stroke-linejoin="round" stroke-dasharray="15.2796 6.60741" fill="none" transform="matrix(1 0 0 1.00022 416 108)"/></g><g clip-path="url(#clip18)"><path d="M1362.76 1357.56 1362.76 990.32" stroke="#000000" stroke-width="4.12963" stroke-linejoin="round" stroke-dasharray="15.2796 6.60741" fill="none" transform="matrix(1 0 0 1.00022 416 108)"/></g><g clip-path="url(#clip19)"><path d="M1866.47 1357.56 1866.47 990.32" stroke="#000000" stroke-width="4.12963" stroke-linejoin="round" stroke-dasharray="15.2796 6.60741" fill="none" transform="matrix(1 0 0 1.00022 416 108)"/></g><g clip-path="url(#clip20)"><path d="M2370.17 1357.56 2370.17 990.32" stroke="#000000" stroke-width="4.12963" stroke-linejoin="round" stroke-dasharray="15.2796 6.60741" fill="none" transform="matrix(1 0 0 1.00022 416 108)"/></g><g clip-path="url(#clip21)"><path d="M2873.87 1357.56 2873.87 990.32" stroke="#000000" stroke-width="4.12963" stroke-linejoin="round" stroke-dasharray="15.2796 6.60741" fill="none" transform="matrix(1 0 0 1.00022 416 108)"/></g><path d="M204.499 1357.56 204.499 990.32" stroke="#000000" stroke-width="3.3037" stroke-linecap="square" fill="none" transform="matrix(1 0 0 1.00022 416 108)"/><path d="M3523.4 1357.56 3523.4 990.32" stroke="#000000" stroke-width="3.3037" stroke-linecap="square" fill="none" transform="matrix(1 0 0 1.00022 416 108)"/><path d="M204.499 1357.56 3523.4 1357.56" stroke="#000000" stroke-width="3.3037" stroke-linecap="square" fill="none" transform="matrix(1 0 0 1.00022 416 108)"/><path d="M204.499 990.32 3523.4 990.32" stroke="#000000" stroke-width="3.3037" stroke-linecap="square" fill="none" transform="matrix(1 0 0 1.00022 416 108)"/></g></g></g><rect x="909.5" y="108.5" width="2892" height="112" stroke="#FFFFFF" stroke-width="4.58333" stroke-miterlimit="8" fill="#FFFFFF"/><rect x="773.5" y="81.5" width="272" height="111" stroke="#FFFFFF" stroke-width="4.58333" stroke-miterlimit="8" fill="#FFFFFF"/><text font-family="Times New Roman,Times New Roman_MSFontService,sans-serif" font-weight="400" font-size="92" transform="matrix(1 0 0 1 859.846 171)">G<tspan font-size="64" x="66.4584" y="0">1</tspan></text><rect x="1396.5" y="81.5" width="272" height="111" stroke="#FFFFFF" stroke-width="4.58333" stroke-miterlimit="8" fill="#FFFFFF"/><text font-family="Times New Roman,Times New Roman_MSFontService,sans-serif" font-weight="400" font-size="92" transform="matrix(1 0 0 1 1482.64 171)">G<tspan font-size="64" x="66.4583" y="0">2</tspan></text><rect x="1909.5" y="81.5" width="272" height="111" stroke="#FFFFFF" stroke-width="4.58333" stroke-miterlimit="8" fill="#FFFFFF"/><text font-family="Times New Roman,Times New Roman_MSFontService,sans-serif" font-weight="400" font-size="92" transform="matrix(1 0 0 1 1995.43 171)">G<tspan font-size="64" x="66.4583" y="0">2</tspan></text><rect x="2425.5" y="81.5" width="272" height="111" stroke="#FFFFFF" stroke-width="4.58333" stroke-miterlimit="8" fill="#FFFFFF"/><text font-family="Times New Roman,Times New Roman_MSFontService,sans-serif" font-weight="400" font-size="92" transform="matrix(1 0 0 1 2511.46 171)">G<tspan font-size="64" x="66.4583" y="0">1</tspan></text><rect x="2921.5" y="81.5" width="272" height="111" stroke="#FFFFFF" stroke-width="4.58333" stroke-miterlimit="8" fill="#FFFFFF"/><text font-family="Times New Roman,Times New Roman_MSFontService,sans-serif" font-weight="400" font-size="92" transform="matrix(1 0 0 1 3008.08 171)">G<tspan font-size="64" x="66.4583" y="0">1</tspan></text><rect x="3453.5" y="81.5" width="272" height="111" stroke="#FFFFFF" stroke-width="4.58333" stroke-miterlimit="8" fill="#FFFFFF"/><text font-family="Times New Roman,Times New Roman_MSFontService,sans-serif" font-weight="400" font-size="92" transform="matrix(1 0 0 1 3539.48 171)">G<tspan font-size="64" x="66.4583" y="0">3</tspan></text><path d="M1106.5 1847.5C1106.5 1795.59 1148.59 1753.5 1200.5 1753.5 1252.41 1753.5 1294.5 1795.59 1294.5 1847.5 1294.5 1899.41 1252.41 1941.5 1200.5 1941.5 1148.59 1941.5 1106.5 1899.41 1106.5 1847.5Z" stroke="#000000" stroke-width="4.58333" stroke-miterlimit="8" fill="#FFFFFF" fill-rule="evenodd"/><text font-family="Calibri,Calibri_MSFontService,sans-serif" font-weight="400" font-size="73" transform="matrix(1 0 0 1 1167.35 1872)">X<tspan font-size="55" x="37.8125" y="0">1</tspan></text><rect x="1064.5" y="2255.5" width="272" height="112" stroke="#FFFFFF" stroke-width="4.58333" stroke-miterlimit="8" fill="#FFFFFF"/><text font-family="Times New Roman,Times New Roman_MSFontService,sans-serif" font-weight="400" font-size="92" transform="matrix(1 0 0 1 1151.02 2345)">G<tspan font-size="64" x="66.4584" y="0">1</tspan></text><path d="M812.5 2057.5C812.5 2005.59 854.585 1963.5 906.5 1963.5 958.415 1963.5 1000.5 2005.59 1000.5 2057.5 1000.5 2109.41 958.415 2151.5 906.5 2151.5 854.585 2151.5 812.5 2109.41 812.5 2057.5Z" stroke="#000000" stroke-width="4.58333" stroke-miterlimit="8" fill="#FFFFFF" fill-rule="evenodd"/><text font-family="Calibri,Calibri_MSFontService,sans-serif" font-weight="400" font-size="73" transform="matrix(1 0 0 1 872.939 2082)">X<tspan font-size="55" x="37.8125" y="0">2</tspan></text><path d="M1406.5 2057.5C1406.5 2005.59 1448.36 1963.5 1500 1963.5 1551.64 1963.5 1593.5 2005.59 1593.5 2057.5 1593.5 2109.41 1551.64 2151.5 1500 2151.5 1448.36 2151.5 1406.5 2109.41 1406.5 2057.5Z" stroke="#000000" stroke-width="4.58333" stroke-miterlimit="8" fill="#FFFFFF" fill-rule="evenodd"/><text font-family="Calibri,Calibri_MSFontService,sans-serif" font-weight="400" font-size="73" transform="matrix(1 0 0 1 1466.62 2082)">X<tspan font-size="55" x="37.8125" y="0">3</tspan></text><path d="M2223.5 1847.5C2223.5 1795.59 2265.36 1753.5 2317 1753.5 2368.64 1753.5 2410.5 1795.59 2410.5 1847.5 2410.5 1899.41 2368.64 1941.5 2317 1941.5 2265.36 1941.5 2223.5 1899.41 2223.5 1847.5Z" stroke="#000000" stroke-width="4.58333" stroke-miterlimit="8" fill="#FFFFFF" fill-rule="evenodd"/><text font-family="Calibri,Calibri_MSFontService,sans-serif" font-weight="400" font-size="73" transform="matrix(1 0 0 1 2283.53 1872)">X<tspan font-size="55" x="37.8125" y="0">1</tspan></text><rect x="2181.5" y="2255.5" width="271" height="112" stroke="#FFFFFF" stroke-width="4.58333" stroke-miterlimit="8" fill="#FFFFFF"/><text font-family="Times New Roman,Times New Roman_MSFontService,sans-serif" font-weight="400" font-size="92" transform="matrix(1 0 0 1 2267.2 2345)">G<tspan font-size="64" x="66.4585" y="0">2</tspan></text><path d="M1928.5 2057.5C1928.5 2005.59 1970.59 1963.5 2022.5 1963.5 2074.41 1963.5 2116.5 2005.59 2116.5 2057.5 2116.5 2109.41 2074.41 2151.5 2022.5 2151.5 1970.59 2151.5 1928.5 2109.41 1928.5 2057.5Z" stroke="#000000" stroke-width="4.58333" stroke-miterlimit="8" fill="#FFFFFF" fill-rule="evenodd"/><text font-family="Calibri,Calibri_MSFontService,sans-serif" font-weight="400" font-size="73" transform="matrix(1 0 0 1 1989.12 2082)">X<tspan font-size="55" x="37.8125" y="0">2</tspan></text><path d="M2522.5 2057.5C2522.5 2005.59 2564.59 1963.5 2616.5 1963.5 2668.41 1963.5 2710.5 2005.59 2710.5 2057.5 2710.5 2109.41 2668.41 2151.5 2616.5 2151.5 2564.59 2151.5 2522.5 2109.41 2522.5 2057.5Z" stroke="#000000" stroke-width="4.58333" stroke-miterlimit="8" fill="#FFFFFF" fill-rule="evenodd"/><text font-family="Calibri,Calibri_MSFontService,sans-serif" font-weight="400" font-size="73" transform="matrix(1 0 0 1 2582.79 2082)">X<tspan font-size="55" x="37.8125" y="0">3</tspan></text><path d="M3421.5 1847.5C3421.5 1795.59 3463.36 1753.5 3515 1753.5 3566.64 1753.5 3608.5 1795.59 3608.5 1847.5 3608.5 1899.41 3566.64 1941.5 3515 1941.5 3463.36 1941.5 3421.5 1899.41 3421.5 1847.5Z" stroke="#000000" stroke-width="4.58333" stroke-miterlimit="8" fill="#FFFFFF" fill-rule="evenodd"/><text font-family="Calibri,Calibri_MSFontService,sans-serif" font-weight="400" font-size="73" transform="matrix(1 0 0 1 3481.39 1872)">X<tspan font-size="55" x="37.8125" y="0">1</tspan></text><rect x="3378.5" y="2255.5" width="272" height="112" stroke="#FFFFFF" stroke-width="4.58333" stroke-miterlimit="8" fill="#FFFFFF"/><text font-family="Times New Roman,Times New Roman_MSFontService,sans-serif" font-weight="400" font-size="92" transform="matrix(1 0 0 1 3465.07 2345)">G<tspan font-size="64" x="66.4583" y="0">3</tspan></text><path d="M3126.5 2057.5C3126.5 2005.59 3168.59 1963.5 3220.5 1963.5 3272.41 1963.5 3314.5 2005.59 3314.5 2057.5 3314.5 2109.41 3272.41 2151.5 3220.5 2151.5 3168.59 2151.5 3126.5 2109.41 3126.5 2057.5Z" stroke="#000000" stroke-width="4.58333" stroke-miterlimit="8" fill="#FFFFFF" fill-rule="evenodd"/><text font-family="Calibri,Calibri_MSFontService,sans-serif" font-weight="400" font-size="73" transform="matrix(1 0 0 1 3186.98 2082)">X<tspan font-size="55" x="37.8125" y="0">2</tspan></text><path d="M3720.5 2057.5C3720.5 2005.59 3762.36 1963.5 3814 1963.5 3865.64 1963.5 3907.5 2005.59 3907.5 2057.5 3907.5 2109.41 3865.64 2151.5 3814 2151.5 3762.36 2151.5 3720.5 2109.41 3720.5 2057.5Z" stroke="#000000" stroke-width="4.58333" stroke-miterlimit="8" fill="#FFFFFF" fill-rule="evenodd"/><text font-family="Calibri,Calibri_MSFontService,sans-serif" font-weight="400" font-size="73" transform="matrix(1 0 0 1 3780.66 2082)">X<tspan font-size="55" x="37.8125" y="0">3</tspan></text><path d="M2116.5 2057.5 2522.53 2057.5" stroke="#000000" stroke-width="6.875" stroke-miterlimit="8" fill="none" fill-rule="evenodd"/><path d="M0 0 161.726 77.607" stroke="#000000" stroke-width="6.875" stroke-miterlimit="8" fill="none" fill-rule="evenodd" transform="matrix(1 0 0 -1 3286.5 1991.11)"/><path d="M2255.5 1651.5 2283 1651.5 2283 1492.5 2338 1492.5 2338 1651.5 2365.5 1651.5 2310.5 1706.5Z" stroke="#325395" stroke-width="4.58333" stroke-miterlimit="8" fill="#75BD42" fill-rule="evenodd"/></g></svg>