<svg width="1491" height="719" xmlns="http://www.w3.org/2000/svg" xmlns:xlink="http://www.w3.org/1999/xlink" overflow="hidden"><defs><clipPath id="clip0"><rect x="631" y="423" width="1491" height="719"/></clipPath><linearGradient x1="1657.29" y1="622.372" x2="1666.64" y2="746.423" gradientUnits="userSpaceOnUse" spreadMethod="reflect" id="stroke1"><stop offset="0" stop-color="#48CB89"/><stop offset="0.0116279" stop-color="#47CA8A"/><stop offset="0.0232558" stop-color="#48CA8B"/><stop offset="0.0348837" stop-color="#48CA8D"/><stop offset="0.0465116" stop-color="#48CA8E"/><stop offset="0.0581395" stop-color="#48CA90"/><stop offset="0.0697674" stop-color="#48CA91"/><stop offset="0.0813954" stop-color="#48CA92"/><stop offset="0.0930233" stop-color="#48C994"/><stop offset="0.104651" stop-color="#48C995"/><stop offset="0.116279" stop-color="#48C996"/><stop offset="0.127907" stop-color="#48C997"/><stop offset="0.139535" stop-color="#47C899"/><stop offset="0.151163" stop-color="#47C89A"/><stop offset="0.162791" stop-color="#48C89B"/><stop offset="0.174419" stop-color="#48C79C"/><stop offset="0.186047" stop-color="#48C79E"/><stop offset="0.197674" stop-color="#48C69F"/><stop offset="0.209302" stop-color="#48C6A0"/><stop offset="0.22093" stop-color="#48C5A1"/><stop offset="0.232558" stop-color="#48C5A2"/><stop offset="0.244186" stop-color="#48C4A3"/><stop offset="0.255814" stop-color="#48C4A5"/><stop offset="0.267442" stop-color="#48C3A6"/><stop offset="0.27907" stop-color="#48C3A7"/><stop offset="0.290698" stop-color="#48C2A8"/><stop offset="0.302326" stop-color="#48C1A9"/><stop offset="0.313953" stop-color="#48C1AA"/><stop offset="0.325581" stop-color="#48C0AB"/><stop offset="0.337209" stop-color="#48BFAC"/><stop offset="0.348837" stop-color="#48BEAD"/><stop offset="0.360465" stop-color="#48BEAE"/><stop offset="0.372093" stop-color="#48BDAF"/><stop offset="0.383721" stop-color="#48BCB0"/><stop offset="0.395349" stop-color="#48BBB1"/><stop offset="0.406977" stop-color="#48BAB2"/><stop offset="0.418605" stop-color="#48BAB3"/><stop offset="0.430233" stop-color="#48B9B4"/><stop offset="0.44186" stop-color="#48B8B4"/><stop offset="0.453488" stop-color="#48B7B5"/><stop offset="0.465116" stop-color="#48B6B6"/><stop offset="0.476744" stop-color="#48B5B7"/><stop offset="0.488372" stop-color="#48B4B8"/><stop offset="0.5" stop-color="#48B3B9"/><stop offset="0.511628" stop-color="#48B2B9"/><stop offset="0.523256" stop-color="#48B1BA"/><stop offset="0.534884" stop-color="#48B0BB"/><stop offset="0.546512" stop-color="#48AEBC"/><stop offset="0.55814" stop-color="#48ADBC"/><stop offset="0.569767" stop-color="#48ACBD"/><stop offset="0.581395" stop-color="#48ABBE"/><stop offset="0.593023" stop-color="#48AABE"/><stop offset="0.604651" stop-color="#48A9BF"/><stop offset="0.616279" stop-color="#48A7C0"/><stop offset="0.627907" stop-color="#48A6C0"/><stop offset="0.639535" stop-color="#48A5C1"/><stop offset="0.651163" stop-color="#48A4C1"/><stop offset="0.662791" stop-color="#47A2C2"/><stop offset="0.674419" stop-color="#48A1C2"/><stop offset="0.686047" stop-color="#48A0C3"/><stop offset="0.697674" stop-color="#489EC3"/><stop offset="0.709302" stop-color="#489DC4"/><stop offset="0.72093" stop-color="#489BC4"/><stop offset="0.732558" stop-color="#489AC5"/><stop offset="0.744186" stop-color="#4899C5"/><stop offset="0.755814" stop-color="#4897C6"/><stop offset="0.767442" stop-color="#4896C6"/><stop offset="0.77907" stop-color="#4894C7"/><stop offset="0.790698" stop-color="#4892C7"/><stop offset="0.802326" stop-color="#4891C7"/><stop offset="0.813953" stop-color="#488FC8"/><stop offset="0.825581" stop-color="#488EC8"/><stop offset="0.837209" stop-color="#488CC8"/><stop offset="0.848837" stop-color="#488BC9"/><stop offset="0.860465" stop-color="#4889C9"/><stop offset="0.872093" stop-color="#4887C9"/><stop offset="0.883721" stop-color="#4885C9"/><stop offset="0.895349" stop-color="#4884CA"/><stop offset="0.906977" stop-color="#4882CA"/><stop offset="0.918605" stop-color="#4880CA"/><stop offset="0.930233" stop-color="#487FCA"/><stop offset="0.94186" stop-color="#487DCA"/><stop offset="0.953488" stop-color="#487BCA"/><stop offset="0.965116" stop-color="#4879CA"/><stop offset="0.976744" stop-color="#4877CA"/><stop offset="0.988372" stop-color="#4875CA"/><stop offset="1" stop-color="#4874CB"/></linearGradient><linearGradient x1="1649.84" y1="679.014" x2="1675.36" y2="882.986" gradientUnits="userSpaceOnUse" spreadMethod="reflect" id="stroke2"><stop offset="0" stop-color="#EE2FBB"/><stop offset="0.00719424" stop-color="#EE30BA"/><stop offset="0.0143885" stop-color="#EE31BA"/><stop offset="0.0215827" stop-color="#EE32BA"/><stop offset="0.028777" stop-color="#ED33BA"/><stop offset="0.0359712" stop-color="#EE34BA"/><stop offset="0.0431655" stop-color="#EE35BA"/><stop offset="0.0503597" stop-color="#ED36BA"/><stop offset="0.057554" stop-color="#EE37BA"/><stop offset="0.0647482" stop-color="#EE38BA"/><stop offset="0.0719424" stop-color="#EE39B9"/><stop offset="0.0791367" stop-color="#EE3AB9"/><stop offset="0.0863309" stop-color="#ED3BB9"/><stop offset="0.0935252" stop-color="#EE3CB9"/><stop offset="0.100719" stop-color="#EE3DB9"/><stop offset="0.107914" stop-color="#EE3EB8"/><stop offset="0.115108" stop-color="#EE40B8"/><stop offset="0.122302" stop-color="#EE41B8"/><stop offset="0.129496" stop-color="#EE42B7"/><stop offset="0.136691" stop-color="#EE42B7"/><stop offset="0.143885" stop-color="#EE43B7"/><stop offset="0.151079" stop-color="#EE44B6"/><stop offset="0.158273" stop-color="#ED45B6"/><stop offset="0.165468" stop-color="#EE46B6"/><stop offset="0.172662" stop-color="#EE47B5"/><stop offset="0.179856" stop-color="#EE48B5"/><stop offset="0.18705" stop-color="#EE49B4"/><stop offset="0.194245" stop-color="#EE4AB4"/><stop offset="0.201439" stop-color="#ED4BB4"/><stop offset="0.208633" stop-color="#EE4CB3"/><stop offset="0.215827" stop-color="#EE4DB3"/><stop offset="0.223022" stop-color="#EE4EB2"/><stop offset="0.230216" stop-color="#EE4FB2"/><stop offset="0.23741" stop-color="#EE50B1"/><stop offset="0.244604" stop-color="#EE50B1"/><stop offset="0.251799" stop-color="#EE51B0"/><stop offset="0.258993" stop-color="#EE52AF"/><stop offset="0.266187" stop-color="#EE53AF"/><stop offset="0.273381" stop-color="#EE54AE"/><stop offset="0.280576" stop-color="#EE55AE"/><stop offset="0.28777" stop-color="#EE56AD"/><stop offset="0.294964" stop-color="#EE56AC"/><stop offset="0.302158" stop-color="#EE57AC"/><stop offset="0.309353" stop-color="#EE58AB"/><stop offset="0.316547" stop-color="#EE59AA"/><stop offset="0.323741" stop-color="#EE5AAA"/><stop offset="0.330935" stop-color="#EE5AA9"/><stop offset="0.338129" stop-color="#EE5BA8"/><stop offset="0.345324" stop-color="#ED5CA7"/><stop offset="0.352518" stop-color="#EE5DA7"/><stop offset="0.359712" stop-color="#EE5EA6"/><stop offset="0.366906" stop-color="#EE5EA5"/><stop offset="0.374101" stop-color="#EE5FA4"/><stop offset="0.381295" stop-color="#EE60A4"/><stop offset="0.388489" stop-color="#EE60A3"/><stop offset="0.395683" stop-color="#EE61A2"/><stop offset="0.402878" stop-color="#ED62A1"/><stop offset="0.410072" stop-color="#EE63A0"/><stop offset="0.417266" stop-color="#EE639F"/><stop offset="0.42446" stop-color="#EE649E"/><stop offset="0.431655" stop-color="#EE659E"/><stop offset="0.438849" stop-color="#ED659D"/><stop offset="0.446043" stop-color="#EE669C"/><stop offset="0.453237" stop-color="#EE679B"/><stop offset="0.460432" stop-color="#ED679A"/><stop offset="0.467626" stop-color="#EE6899"/><stop offset="0.47482" stop-color="#EE6998"/><stop offset="0.482014" stop-color="#EE6997"/><stop offset="0.489209" stop-color="#EE6A96"/><stop offset="0.496403" stop-color="#EE6B95"/><stop offset="0.503597" stop-color="#EE6B94"/><stop offset="0.510791" stop-color="#EE6C93"/><stop offset="0.517986" stop-color="#ED6C92"/><stop offset="0.52518" stop-color="#EE6D91"/><stop offset="0.532374" stop-color="#EE6E90"/><stop offset="0.539568" stop-color="#ED6E8E"/><stop offset="0.546763" stop-color="#EE6F8D"/><stop offset="0.553957" stop-color="#EE6F8C"/><stop offset="0.561151" stop-color="#EE708B"/><stop offset="0.568345" stop-color="#EE708A"/><stop offset="0.57554" stop-color="#EE7189"/><stop offset="0.582734" stop-color="#EE7188"/><stop offset="0.589928" stop-color="#EE7286"/><stop offset="0.597122" stop-color="#EE7285"/><stop offset="0.604317" stop-color="#EE7384"/><stop offset="0.611511" stop-color="#EE7383"/><stop offset="0.618705" stop-color="#EE7482"/><stop offset="0.625899" stop-color="#ED7480"/><stop offset="0.633094" stop-color="#ED757F"/><stop offset="0.640288" stop-color="#EE757E"/><stop offset="0.647482" stop-color="#ED767D"/><stop offset="0.654676" stop-color="#ED767B"/><stop offset="0.66187" stop-color="#EE777A"/><stop offset="0.669065" stop-color="#EE7779"/><stop offset="0.676259" stop-color="#ED7777"/><stop offset="0.683453" stop-color="#EE7876"/><stop offset="0.690647" stop-color="#EE7875"/><stop offset="0.697842" stop-color="#EE7973"/><stop offset="0.705036" stop-color="#EE7972"/><stop offset="0.71223" stop-color="#EE7970"/><stop offset="0.719424" stop-color="#EE7A6F"/><stop offset="0.726619" stop-color="#EE7A6E"/><stop offset="0.733813" stop-color="#ED7B6C"/><stop offset="0.741007" stop-color="#EE7B6B"/><stop offset="0.748201" stop-color="#EE7B69"/><stop offset="0.755396" stop-color="#ED7C68"/><stop offset="0.76259" stop-color="#EE7C66"/><stop offset="0.769784" stop-color="#EE7C65"/><stop offset="0.776978" stop-color="#EE7D63"/><stop offset="0.784173" stop-color="#EE7D62"/><stop offset="0.791367" stop-color="#EE7D60"/><stop offset="0.798561" stop-color="#EE7D5F"/><stop offset="0.805755" stop-color="#EE7E5D"/><stop offset="0.81295" stop-color="#EE7E5C"/><stop offset="0.820144" stop-color="#ED7E5A"/><stop offset="0.827338" stop-color="#EE7E58"/><stop offset="0.834532" stop-color="#EE7F57"/><stop offset="0.841727" stop-color="#EE7F55"/><stop offset="0.848921" stop-color="#EE7F54"/><stop offset="0.856115" stop-color="#EE7F52"/><stop offset="0.863309" stop-color="#EE8050"/><stop offset="0.870504" stop-color="#ED804F"/><stop offset="0.877698" stop-color="#EE804D"/><stop offset="0.884892" stop-color="#EE804B"/><stop offset="0.892086" stop-color="#EE8049"/><stop offset="0.899281" stop-color="#EE8048"/><stop offset="0.906475" stop-color="#EE8146"/><stop offset="0.913669" stop-color="#EE8144"/><stop offset="0.920863" stop-color="#EE8143"/><stop offset="0.928058" stop-color="#EE8141"/><stop offset="0.935252" stop-color="#EE813F"/><stop offset="0.942446" stop-color="#EE813D"/><stop offset="0.94964" stop-color="#EE813B"/><stop offset="0.956835" stop-color="#EE813A"/><stop offset="0.964029" stop-color="#EE8138"/><stop offset="0.971223" stop-color="#EE8136"/><stop offset="0.978417" stop-color="#EE8134"/><stop offset="0.985611" stop-color="#EE8132"/><stop offset="0.992806" stop-color="#EE8130"/><stop offset="1" stop-color="#EE822F"/></linearGradient><linearGradient x1="1640.38" y1="911.115" x2="1684.88" y2="1178.89" gradientUnits="userSpaceOnUse" spreadMethod="reflect" id="stroke3"><stop offset="0" stop-color="#BD7542"/><stop offset="0.0140845" stop-color="#BC7642"/><stop offset="0.028169" stop-color="#BC7842"/><stop offset="0.0422535" stop-color="#BC7A41"/><stop offset="0.056338" stop-color="#BC7C42"/><stop offset="0.0704225" stop-color="#BC7E42"/><stop offset="0.084507" stop-color="#BC7F42"/><stop offset="0.0985916" stop-color="#BC8141"/><stop offset="0.112676" stop-color="#BB8342"/><stop offset="0.126761" stop-color="#BB8542"/><stop offset="0.140845" stop-color="#BB8642"/><stop offset="0.15493" stop-color="#BA8842"/><stop offset="0.169014" stop-color="#BA8A42"/><stop offset="0.183099" stop-color="#BA8B42"/><stop offset="0.197183" stop-color="#B98D42"/><stop offset="0.211268" stop-color="#B98E42"/><stop offset="0.225352" stop-color="#B89042"/><stop offset="0.239437" stop-color="#B89142"/><stop offset="0.253521" stop-color="#B79342"/><stop offset="0.267606" stop-color="#B69442"/><stop offset="0.28169" stop-color="#B69642"/><stop offset="0.295775" stop-color="#B59742"/><stop offset="0.309859" stop-color="#B49942"/><stop offset="0.323944" stop-color="#B49A42"/><stop offset="0.338028" stop-color="#B39B42"/><stop offset="0.352113" stop-color="#B29D42"/><stop offset="0.366197" stop-color="#B29E42"/><stop offset="0.380282" stop-color="#B19F42"/><stop offset="0.394366" stop-color="#B0A042"/><stop offset="0.408451" stop-color="#AFA242"/><stop offset="0.422535" stop-color="#AEA342"/><stop offset="0.43662" stop-color="#ADA442"/><stop offset="0.450704" stop-color="#ACA542"/><stop offset="0.464789" stop-color="#ABA641"/><stop offset="0.478873" stop-color="#AAA742"/><stop offset="0.492958" stop-color="#A9A842"/><stop offset="0.507042" stop-color="#A8A942"/><stop offset="0.521127" stop-color="#A7AA42"/><stop offset="0.535211" stop-color="#A6AB42"/><stop offset="0.549296" stop-color="#A5AC42"/><stop offset="0.56338" stop-color="#A4AD42"/><stop offset="0.577465" stop-color="#A3AE42"/><stop offset="0.591549" stop-color="#A2AF42"/><stop offset="0.605634" stop-color="#A0B042"/><stop offset="0.619718" stop-color="#9FB142"/><stop offset="0.633803" stop-color="#9EB242"/><stop offset="0.647887" stop-color="#9DB242"/><stop offset="0.661972" stop-color="#9BB342"/><stop offset="0.676056" stop-color="#9AB442"/><stop offset="0.690141" stop-color="#99B442"/><stop offset="0.704225" stop-color="#97B542"/><stop offset="0.71831" stop-color="#96B642"/><stop offset="0.732394" stop-color="#94B642"/><stop offset="0.746479" stop-color="#93B742"/><stop offset="0.760563" stop-color="#91B842"/><stop offset="0.774648" stop-color="#90B842"/><stop offset="0.788732" stop-color="#8EB942"/><stop offset="0.802817" stop-color="#8DB942"/><stop offset="0.816901" stop-color="#8BBA42"/><stop offset="0.830986" stop-color="#8ABA42"/><stop offset="0.84507" stop-color="#88BA42"/><stop offset="0.859155" stop-color="#86BB42"/><stop offset="0.873239" stop-color="#85BB42"/><stop offset="0.887324" stop-color="#83BB42"/><stop offset="0.901408" stop-color="#81BC42"/><stop offset="0.915493" stop-color="#7FBC42"/><stop offset="0.929577" stop-color="#7EBC42"/><stop offset="0.943662" stop-color="#7CBC42"/><stop offset="0.957747" stop-color="#7ABC42"/><stop offset="0.971831" stop-color="#78BC42"/><stop offset="0.985915" stop-color="#76BC42"/><stop offset="1" stop-color="#75BD42"/></linearGradient></defs><g clip-path="url(#clip0)" transform="translate(-631 -423)"><path d="M698.5 566.168C698.5 502.839 749.839 451.5 813.168 451.5L2004.83 451.5C2068.16 451.5 2119.5 502.839 2119.5 566.168L2119.5 1024.83C2119.5 1088.16 2068.16 1139.5 2004.83 1139.5L813.168 1139.5C749.839 1139.5 698.5 1088.16 698.5 1024.83Z" stroke="#000000" stroke-width="4.58333" stroke-miterlimit="8" fill="#FFFFFF" fill-rule="evenodd"/><path d="M1250.5 714.5C1252.4 710.965 1256.73 702.963 1260.89 695.148 1265.04 687.333 1265.39 682.495 1271.1 675.796 1276.81 669.097 1281.83 661.84 1289.1 661.84 1296.37 661.84 1299.84 669.097 1307.11 675.796 1314.38 682.495 1317.84 687.891 1325.11 695.148 1332.38 702.405 1337.05 712.267 1343.29 711.709 1349.52 711.151 1349.86 699.056 1356.1 692.357 1362.33 685.658 1366.83 679.145 1374.1 678.587 1381.37 678.029 1384.83 685.658 1392.1 689.566 1399.37 693.473 1402.84 694.59 1410.11 697.939 1417.38 701.289 1421.01 705.01 1428.28 706.127 1435.55 707.243 1439.54 707.801 1446.29 703.335 1453.04 698.87 1454.94 689.566 1461.69 683.983 1468.44 678.401 1472.43 679.145 1479.7 675.796 1486.97 672.446 1490.43 669.097 1497.7 667.422 1504.97 665.747 1508.43 666.306 1515.7 667.422 1522.97 668.539 1526.44 671.33 1533.71 673.004 1540.98 674.679 1546.69 671.33 1551.88 675.796 1557.08 680.262 1553.79 690.682 1559.5 695.148 1565.21 699.614 1572.31 699.614 1580.1 697.939 1587.89 696.264 1590.31 692.357 1598.1 686.774 1605.89 681.192 1610.91 674.121 1618.7 670.213 1626.49 666.306 1629.44 670.213 1636.71 667.422 1643.98 664.631 1647.61 658.118 1654.88 656.443 1662.15 654.769 1665.62 655.141 1672.89 659.048 1680.16 662.956 1683.62 669.097 1690.89 675.796 1698.16 682.495 1701.62 686.774 1708.89 692.357 1716.16 697.939 1719.63 700.544 1726.9 703.335 1734.17 706.127 1739.19 709.476 1744.9 706.127 1750.61 702.777 1749.57 691.24 1755.29 686.774 1761 682.308 1766.02 685.1 1773.29 683.983 1780.56 682.867 1784.02 682.308 1791.29 681.192 1798.56 680.075 1803.06 683.053 1809.3 678.587 1815.53 674.121 1816.05 660.723 1822.28 659.048 1828.51 657.374 1833.01 667.422 1840.28 670.213 1847.55 673.004 1851.02 671.888 1858.29 673.004 1865.56 674.121 1869.02 671.888 1876.29 675.796 1883.56 679.703 1887.02 686.774 1894.29 692.357 1901.56 697.939 1905.03 701.102 1912.3 703.335 1919.57 705.568 1923.03 703.894 1930.3 703.335 1937.57 702.777 1941.03 704.08 1948.3 700.73 1955.57 697.381 1959.21 691.24 1966.48 686.774 1973.75 682.308 1977.21 680.82 1984.48 678.587 1991.75 676.354 1995.22 673.004 2002.49 675.796 2009.76 678.587 2013.22 688.449 2020.49 692.357 2027.76 696.264 2031.22 696.264 2038.49 695.148 2045.76 694.031 2049.23 690.124 2056.5 686.774 2063.77 683.425 2071.21 680.075 2074.5 678.587" stroke="url(#stroke1)" stroke-width="4.58333" stroke-miterlimit="8" fill="none" fill-rule="evenodd"/><path d="M1250.5 822.102C1253.79 817.976 1261.23 808.267 1268.5 800.257 1275.77 792.247 1278.88 788.12 1286.67 782.295 1294.46 776.469 1299.48 776.469 1307.27 771.372 1315.06 766.275 1318 763.605 1325.27 757.051 1332.54 750.497 1336.52 737.39 1343.27 738.846 1350.02 740.303 1351.92 757.779 1358.67 764.333 1365.42 770.886 1369.4 769.187 1376.67 771.372 1383.94 773.556 1387.4 775.741 1394.67 775.013 1401.94 774.285 1405.4 772.828 1412.67 767.731 1419.94 762.634 1423.57 754.866 1430.84 749.769 1438.11 744.672 1441.57 743.216 1448.84 742.487 1456.11 741.759 1460.09 740.303 1466.84 746.128 1473.59 751.954 1477.05 761.177 1482.24 771.372 1487.44 781.566 1486.92 787.877 1492.63 796.616 1498.34 805.354 1503.36 814.82 1510.63 814.82 1517.9 814.82 1521.36 804.626 1528.63 796.616 1535.9 788.606 1539.36 783.023 1546.63 775.013 1553.9 767.003 1557.36 760.692 1564.63 757.051 1571.9 753.41 1575.36 757.051 1582.63 757.051 1589.9 757.051 1593.36 755.595 1600.63 757.051 1607.9 758.507 1611.53 761.42 1618.8 764.333 1626.07 767.246 1629.53 769.916 1636.8 771.372 1644.07 772.828 1647.53 771.372 1654.8 771.372 1662.07 771.372 1665.53 771.372 1672.8 771.372 1680.07 771.372 1684.57 766.275 1690.8 771.372 1697.03 776.469 1698.41 786.421 1703.6 796.616 1708.8 806.81 1710.35 815.548 1716.59 822.102 1722.82 828.656 1728.35 832.782 1734.58 829.141 1740.82 825.5 1741.16 814.092 1747.39 803.897 1753.62 793.703 1758.3 788.12 1765.56 778.654 1772.83 769.187 1776.81 766.517 1783.56 757.051 1790.31 747.585 1792.22 733.992 1798.97 731.807 1805.72 729.623 1809.7 739.575 1816.97 746.128 1824.24 752.682 1830.81 755.595 1834.97 764.333 1839.12 773.071 1833.41 782.295 1837.56 789.577 1841.72 796.858 1848.29 798.8 1855.56 800.257 1862.83 801.713 1868.37 802.441 1873.56 796.616 1878.75 790.79 1876.16 779.382 1881.35 771.372 1886.54 763.362 1892.08 760.692 1899.35 757.051 1906.62 753.41 1910.08 756.323 1917.35 753.41 1924.62 750.497 1929.64 739.575 1935.35 742.487 1941.06 745.4 1943.66 757.536 1945.73 767.731 1947.81 777.926 1945.21 783.023 1945.73 793.217 1946.25 803.412 1944.18 816.277 1948.33 818.461 1952.48 820.646 1960.62 811.907 1966.33 803.897 1972.04 795.887 1972.39 788.848 1976.54 778.654 1980.69 768.459 1981.21 758.507 1986.93 753.41 1992.64 748.313 1997.66 751.226 2004.92 753.41 2012.19 755.595 2015.66 757.051 2022.92 764.333 2030.19 771.615 2033.65 787.392 2040.92 789.577 2048.19 791.761 2052.17 783.023 2058.92 775.013 2065.67 767.003 2071.73 754.624 2074.5 749.769" stroke="url(#stroke2)" stroke-width="4.58333" stroke-miterlimit="8" fill="none" fill-rule="evenodd"/><path d="M1250.5 1048.48C1253.75 1044.23 1261.78 1034.62 1268.45 1025.23 1275.12 1015.85 1277.51 1011.38 1283.67 1001.99 1289.82 992.602 1293.24 978.522 1298.88 978.522 1304.52 978.522 1306.92 991.932 1311.53 1001.99 1316.15 1012.05 1317.69 1018.53 1321.79 1028.58 1325.89 1038.64 1328.8 1051.83 1331.87 1051.83 1334.95 1051.83 1335.46 1037.97 1337 1028.58 1338.54 1019.2 1337.52 1014.5 1339.57 1005.12 1341.62 995.731 1342.13 981.875 1347.26 981.875 1352.39 981.875 1359.4 995.731 1365.04 1005.12 1370.68 1014.5 1371.02 1019.2 1375.13 1028.58 1379.23 1037.97 1381.28 1052.5 1385.38 1051.83 1389.49 1051.16 1391.37 1035.29 1395.47 1025.23 1399.57 1015.17 1400.6 1011.38 1405.73 1001.99 1410.86 992.602 1416.33 977.852 1420.94 978.522 1425.56 979.193 1425.04 995.061 1428.63 1005.12 1432.22 1015.17 1433.08 1027.91 1438.72 1028.58 1444.36 1029.26 1450.86 1017.19 1456.5 1008.47 1462.14 999.754 1461.12 984.557 1466.76 985.227 1472.4 985.898 1479.41 1001.77 1484.54 1011.82 1489.67 1021.88 1487.61 1035.07 1492.23 1035.07 1496.85 1035.07 1502.32 1021.21 1507.44 1011.82 1512.57 1002.44 1512.4 988.579 1517.53 988.579 1522.66 988.579 1528.3 1002.44 1532.92 1011.82 1537.53 1021.21 1537.36 1025.01 1540.44 1035.07 1543.52 1045.12 1545.05 1051.6 1548.13 1061.66 1551.21 1071.72 1552.75 1084.9 1555.82 1084.9 1558.9 1084.9 1559.76 1071.05 1563.35 1061.66 1566.94 1052.27 1568.48 1047.8 1573.6 1038.42 1578.73 1029.03 1583.18 1024.56 1588.82 1015.17 1594.46 1005.79 1595.32 996.625 1601.47 991.932 1607.62 987.239 1612.07 991.932 1619.25 991.932 1626.43 991.932 1630.02 991.932 1637.2 991.932 1644.38 991.932 1648.31 987.239 1654.98 991.932 1661.65 996.625 1665.06 1005.79 1670.19 1015.17 1675.32 1024.56 1675.66 1029.03 1680.28 1038.42 1684.9 1047.8 1689 1061.66 1693.1 1061.66 1697.2 1061.66 1698.57 1047.8 1700.62 1038.42 1702.67 1029.03 1700.11 1015.17 1703.19 1015.17 1706.26 1015.17 1710.37 1029.03 1716.01 1038.42 1721.65 1047.8 1726.61 1051.6 1731.22 1061.66 1735.84 1071.72 1735.84 1078.2 1738.92 1088.26 1741.99 1098.31 1744.39 1111.5 1746.44 1111.5 1748.49 1111.5 1747.98 1097.64 1749 1088.26 1750.03 1078.87 1751.05 1074.4 1751.57 1065.01 1752.08 1055.63 1751.57 1051.16 1751.57 1041.77 1751.57 1032.38 1747.98 1027.24 1751.57 1018.53 1755.16 1009.81 1762.17 1001.99 1769.35 998.637 1776.53 995.284 1779.95 1000.65 1787.13 1001.99 1794.31 1003.33 1798.24 999.754 1804.91 1005.12 1811.57 1010.48 1813.62 1024.56 1820.29 1028.58 1826.96 1032.61 1831.4 1030.6 1838.07 1025.23 1844.74 1019.87 1846.62 1005.34 1853.29 1001.99 1859.95 998.637 1863.88 1002.44 1871.06 1008.47 1878.24 1014.5 1881.66 1027.02 1888.84 1031.71 1896.02 1036.41 1899.44 1033.05 1906.62 1031.71 1913.8 1030.37 1917.39 1029.26 1924.57 1025.23 1931.75 1021.21 1935.17 1016.52 1942.35 1011.82 1949.53 1007.13 1952.95 1004 1960.13 1001.99 1967.31 999.978 1970.73 997.296 1977.91 1001.99 1985.09 1006.68 1989.54 1015.85 1995.69 1025.23 2001.84 1034.62 2002.19 1042.44 2008.34 1048.48 2014.5 1054.51 2019.11 1057.86 2026.29 1055.18 2033.47 1052.5 2036.89 1038.42 2044.07 1035.07 2051.25 1031.71 2055.7 1033.05 2061.85 1038.42 2068 1043.78 2072.28 1056.97 2074.5 1061.66" stroke="url(#stroke3)" stroke-width="4.58333" stroke-miterlimit="8" fill="none" fill-rule="evenodd"/><text font-family="Microsoft YaHei,Microsoft YaHei_MSFontService,sans-serif" font-weight="400" font-size="55" transform="matrix(1 0 0 1 1634.45 879)">•<tspan font-size="55" x="0.513916" y="45">•</tspan><tspan font-size="55" x="0" y="86">•</tspan></text><path d="M1220.5 1039.5C1182.94 1039.5 1152.5 1034.43 1152.5 1028.17L1152.5 885.333C1152.5 879.074 1122.06 874 1084.5 874 1122.06 874 1152.5 868.926 1152.5 862.667L1152.5 719.833C1152.5 713.574 1182.94 708.5 1220.5 708.5" stroke="#4874CB" stroke-width="4.58333" stroke-miterlimit="8" fill="none" fill-rule="evenodd"/><text font-family="Microsoft YaHei,Microsoft YaHei_MSFontService,sans-serif" font-weight="700" font-size="147" transform="matrix(1 0 0 1 1116.24 609)">输入数据<tspan font-family="Times New Roman,Times New Roman_MSFontService,sans-serif" font-weight="400" font-size="128" x="-407.9" y="239">N</tspan><tspan font-weight="400" font-size="128" x="-315.087" y="239">维时</tspan><tspan font-weight="400" font-size="128" x="-407.9" y="392">间序列</tspan></text></g></svg>