<svg width="1135" height="1495" xmlns="http://www.w3.org/2000/svg" xmlns:xlink="http://www.w3.org/1999/xlink" overflow="hidden"><defs><clipPath id="clip0"><rect x="1769" y="453" width="1135" height="1495"/></clipPath></defs><g clip-path="url(#clip0)" transform="translate(-1769 -453)"><path d="M1829.5 1066.5C1829.5 1047.17 1845.17 1031.5 1864.5 1031.5L2527.5 1031.5C2546.83 1031.5 2562.5 1047.17 2562.5 1066.5L2562.5 1206.5C2562.5 1225.83 2546.83 1241.5 2527.5 1241.5L1864.5 1241.5C1845.17 1241.5 1829.5 1225.83 1829.5 1206.5Z" stroke="#325395" stroke-width="4.58333" stroke-miterlimit="8" fill="#30C0B4" fill-rule="evenodd"/><path d="M1800.5 1104.5C1800.5 1085.17 1816.17 1069.5 1835.5 1069.5L2498.5 1069.5C2517.83 1069.5 2533.5 1085.17 2533.5 1104.5L2533.5 1244.5C2533.5 1263.83 2517.83 1279.5 2498.5 1279.5L1835.5 1279.5C1816.17 1279.5 1800.5 1263.83 1800.5 1244.5Z" stroke="#325395" stroke-width="4.58333" stroke-miterlimit="8" fill="#F2BA02" fill-rule="evenodd"/><path d="M1771.5 1555.17C1771.5 1540.44 1783.44 1528.5 1798.17 1528.5L2478.83 1528.5C2493.56 1528.5 2505.5 1540.44 2505.5 1555.17L2505.5 1661.83C2505.5 1676.56 2493.56 1688.5 2478.83 1688.5L1798.17 1688.5C1783.44 1688.5 1771.5 1676.56 1771.5 1661.83Z" stroke="#325395" stroke-width="4.58333" stroke-miterlimit="8" fill="#588E31" fill-rule="evenodd"/><text font-family="Microsoft YaHei,Microsoft YaHei_MSFontService,sans-serif" font-weight="400" font-size="73" transform="matrix(1 0 0 1 1881.05 1635)">单变量序列分离</text><path d="M1771.5 1142.5C1771.5 1123.17 1787.17 1107.5 1806.5 1107.5L2470.5 1107.5C2489.83 1107.5 2505.5 1123.17 2505.5 1142.5L2505.5 1282.5C2505.5 1301.83 2489.83 1317.5 2470.5 1317.5L1806.5 1317.5C1787.17 1317.5 1771.5 1301.83 1771.5 1282.5Z" stroke="#325395" stroke-width="4.58333" stroke-miterlimit="8" fill="#EF949E" fill-rule="evenodd"/><text font-family="Microsoft YaHei,Microsoft YaHei_MSFontService,sans-serif" font-weight="400" font-size="73" transform="matrix(1 0 0 1 1881.05 1239)">缩放点积注意力</text><path d="M1958.5 713C1958.5 698.365 1970.36 686.5 1985 686.5L2292 686.5C2306.64 686.5 2318.5 698.365 2318.5 713L2318.5 819C2318.5 833.635 2306.64 845.5 2292 845.5L1985 845.5C1970.36 845.5 1958.5 833.635 1958.5 819Z" stroke="#325395" stroke-width="4.58333" stroke-miterlimit="8" fill="#C65F10" fill-rule="evenodd"/><text font-family="Microsoft YaHei,Microsoft YaHei_MSFontService,sans-serif" font-weight="400" font-size="73" transform="matrix(1 0 0 1 2064.38 793)">拼接</text><path d="M1866.74 1882.27C1864.17 1882.27 1861.78 1883.19 1859.56 1885.02 1857.34 1886.85 1855.39 1889.46 1853.71 1892.86 1852.04 1896.26 1850.74 1899.99 1849.81 1904.05 1848.88 1908.12 1848.42 1911.7 1848.42 1914.82 1848.42 1922.16 1851.09 1925.83 1856.44 1925.83 1859.74 1925.83 1862.77 1924.29 1865.53 1921.22 1868.29 1918.14 1870.51 1913.88 1872.19 1908.44 1873.88 1902.99 1874.73 1897.91 1874.73 1893.18 1874.73 1889.64 1874.07 1886.94 1872.76 1885.07 1871.46 1883.21 1869.45 1882.27 1866.74 1882.27ZM1867.13 1879.14C1871.72 1879.14 1875.25 1880.47 1877.74 1883.13 1880.22 1885.79 1881.46 1889.64 1881.46 1894.68 1881.46 1898 1880.94 1901.72 1879.89 1905.83 1878.85 1909.95 1877.41 1913.58 1875.58 1916.72 1873.75 1919.87 1871.63 1922.41 1869.22 1924.33 1866.81 1926.26 1864.19 1927.59 1861.36 1928.33 1861.9 1930.06 1862.42 1931.49 1862.89 1932.62 1863.37 1933.75 1863.82 1934.66 1864.26 1935.37 1864.7 1936.07 1865.14 1936.59 1865.56 1936.93 1865.99 1937.28 1866.42 1937.51 1866.85 1937.63 1867.28 1937.75 1867.77 1937.81 1868.34 1937.81 1869.25 1937.81 1870.16 1937.55 1871.09 1937.02 1872.02 1936.5 1873.05 1935.6 1874.19 1934.31L1876.04 1936.31C1874.14 1938.38 1872.37 1939.84 1870.73 1940.69 1869.09 1941.55 1867.41 1941.98 1865.67 1941.98 1863.7 1941.98 1862.09 1941.54 1860.84 1940.66 1859.59 1939.78 1858.51 1938.38 1857.6 1936.45 1856.68 1934.53 1855.8 1932.01 1854.94 1928.9 1850.64 1928.66 1847.36 1927.23 1845.1 1924.62 1842.85 1922.01 1841.72 1918.32 1841.72 1913.57 1841.72 1910 1842.32 1905.98 1843.52 1901.49 1844.72 1896.99 1846.45 1893.03 1848.72 1889.6 1850.99 1886.16 1853.7 1883.56 1856.85 1881.79 1860 1880.02 1863.43 1879.14 1867.13 1879.14Z" fill-rule="evenodd"/><text fill="#000000" fill-opacity="0" font-family="Arial,Arial_MSFontService,sans-serif" font-size="62.8413" x="1841.72" y="1934.12">𝑄</text><path d="M2108.9 1879.71 2123.16 1879.71 2122.77 1881.45C2121.87 1881.64 2121.22 1881.86 2120.83 1882.1 2120.43 1882.33 2120.08 1882.69 2119.77 1883.16 2119.47 1883.64 2119.15 1884.38 2118.81 1885.39 2118.48 1886.4 2118.06 1888.05 2117.56 1890.33L2115.03 1901.7 2116.21 1901.7C2117.21 1901.7 2118.12 1901.53 2118.94 1901.2 2119.76 1900.87 2120.71 1900.26 2121.81 1899.38 2122.9 1898.5 2124.64 1896.89 2127.03 1894.54 2129.42 1892.18 2131.12 1890.39 2132.13 1889.17 2133.14 1887.95 2133.87 1886.89 2134.34 1886 2134.8 1885.11 2135.03 1884.29 2135.03 1883.56 2135.03 1882.96 2134.79 1882.48 2134.32 1882.11 2133.84 1881.74 2133.17 1881.52 2132.29 1881.45L2132.68 1879.71 2147.97 1879.71 2147.58 1881.45C2146.63 1881.6 2145.55 1882.09 2144.35 1882.93 2143.15 1883.78 2141.32 1885.42 2138.84 1887.87L2125.01 1901.34 2132.61 1919.59C2133.39 1921.47 2134.04 1922.83 2134.55 1923.66 2135.06 1924.49 2135.67 1925.15 2136.39 1925.64 2137.1 1926.12 2137.98 1926.45 2139.02 1926.62L2138.63 1928.36 2124.87 1928.36 2125.26 1926.62C2126.55 1926.5 2127.19 1925.93 2127.19 1924.9 2127.19 1924.26 2127.06 1923.53 2126.8 1922.71 2126.54 1921.89 2126.23 1921.04 2125.87 1920.16L2121.24 1908.83C2120.69 1907.47 2120.21 1906.52 2119.81 1905.98 2119.41 1905.43 2118.98 1905.05 2118.53 1904.84 2118.08 1904.62 2117.37 1904.52 2116.42 1904.52L2114.43 1904.52 2111.47 1917.99C2111.16 1919.42 2110.96 1920.54 2110.86 1921.36 2110.77 1922.18 2110.72 1922.91 2110.72 1923.55 2110.72 1924.62 2110.99 1925.37 2111.52 1925.81 2112.06 1926.25 2112.95 1926.52 2114.21 1926.62L2113.82 1928.36 2099.56 1928.36 2099.96 1926.62C2100.86 1926.47 2101.54 1926.24 2101.99 1925.92 2102.44 1925.6 2102.82 1925.15 2103.13 1924.58 2103.44 1924.01 2103.72 1923.32 2103.98 1922.5 2104.25 1921.68 2104.64 1920.09 2105.16 1917.74L2111.22 1890.29C2111.74 1887.92 2112 1886 2112 1884.55 2112 1883.44 2111.72 1882.66 2111.17 1882.22 2110.61 1881.78 2109.72 1881.52 2108.51 1881.45Z" fill-rule="evenodd"/><text fill="#000000" fill-opacity="0" font-family="Arial,Arial_MSFontService,sans-serif" font-size="48.6548" x="2099.56" y="1922.28">𝐾</text><path d="M2364.05 1879.71 2378.8 1879.71 2378.41 1881.45C2377.36 1881.57 2376.55 1881.88 2375.97 1882.38 2375.39 1882.88 2374.98 1883.57 2374.74 1884.47 2374.5 1885.36 2374.38 1886.55 2374.38 1888.05 2374.38 1888.4 2374.42 1889.47 2374.49 1891.26L2375.49 1917.35 2375.49 1920.2 2375.84 1920.2 2391.28 1892.36C2392.18 1890.72 2392.86 1889.31 2393.31 1888.14 2393.76 1886.96 2393.99 1885.92 2393.99 1885.02 2393.99 1883.02 2392.8 1881.83 2390.42 1881.45L2390.81 1879.71 2405.39 1879.71 2405 1881.45C2404.36 1881.55 2403.75 1881.79 2403.17 1882.18 2402.58 1882.58 2401.93 1883.23 2401.21 1884.14 2400.48 1885.06 2399.36 1886.82 2397.84 1889.44L2375.02 1928.93 2370.28 1928.93 2367.9 1889.19C2367.8 1887.64 2367.63 1886.32 2367.38 1885.21 2367.13 1884.11 2366.74 1883.25 2366.2 1882.63 2365.67 1882.01 2364.82 1881.62 2363.65 1881.45Z" fill-rule="evenodd"/><text fill="#000000" fill-opacity="0" font-family="Arial,Arial_MSFontService,sans-serif" font-size="49.2251" x="2363.65" y="1922.78">𝑉</text><path d="M5.15412-0.148172 8.58987 119.364-1.71837 119.66-5.15412 0.148172ZM18.7499 113.913 4.17661 145.282-12.1748 114.802Z" transform="matrix(1 0 0 -1 1863 1859.28)"/><path d="M5.15625-1.28085e-05 5.15655 119.501-5.15595 119.501-5.15625 1.28085e-05ZM15.469 114.345 0.000360892 145.282-15.4685 114.345Z" transform="matrix(1 0 0 -1 2129 1859.28)"/><path d="M5.15625-1.28085e-05 5.15655 119.501-5.15595 119.501-5.15625 1.28085e-05ZM15.469 114.345 0.000360892 145.282-15.4685 114.345Z" transform="matrix(1 0 0 -1 2389 1859.28)"/><path d="M5.15625-1.26264e-05 5.15655 121.597-5.15595 121.597-5.15625 1.26264e-05ZM15.469 116.441 0.000360892 147.378-15.4685 116.441Z" fill="#588E31" transform="matrix(1 0 0 -1 1867 1493.38)"/><path d="M5.15625-1.26264e-05 5.15655 121.597-5.15595 121.597-5.15625 1.26264e-05ZM15.469 116.441 0.000360892 147.378-15.4685 116.441Z" fill="#588E31" transform="matrix(1 0 0 -1 2123 1493.38)"/><path d="M5.15625-1.26264e-05 5.15655 121.597-5.15595 121.597-5.15625 1.26264e-05ZM15.469 116.441 0.000360892 147.378-15.4685 116.441Z" fill="#588E31" transform="matrix(1 0 0 -1 2389 1493.38)"/><path d="M5.15625-7.12278e-06 5.15658 235.472-5.15592 235.472-5.15625 7.12278e-06ZM15.4691 230.316 0.000360892 261.254-15.4684 230.316Z" fill="#EF949E" transform="matrix(1 0 0 -1 2057 1106.25)"/><path d="M5.15625-8.33592e-06 5.15657 197.452-5.15593 197.452-5.15625 8.33592e-06ZM15.4691 192.295 0.000360892 223.233-15.4684 192.295Z" fill="#F2BA02" transform="matrix(1 0 0 -1 2113 1068.23)"/><path d="M2154.84 1030.21 2154.84 870.781 2165.16 870.781 2165.16 1030.21ZM2144.53 875.937 2160 845 2175.47 875.937Z" fill="#30C0B4"/><path d="M2132.84 686.186 2132.84 509.781 2143.16 509.781 2143.16 686.186ZM2122.53 514.938 2138 484 2153.47 514.937Z" fill="#C65F10"/><path d="M2570 1031C2601.76 1031 2627.5 1035.29 2627.5 1040.58L2627.5 1164.42C2627.5 1169.71 2653.24 1174 2685 1174 2653.24 1174 2627.5 1178.29 2627.5 1183.58L2627.5 1307.42C2627.5 1312.71 2601.76 1317 2570 1317Z" fill="#FFFFFF" fill-rule="evenodd"/><path d="M2570 1031C2601.76 1031 2627.5 1035.29 2627.5 1040.58L2627.5 1164.42C2627.5 1169.71 2653.24 1174 2685 1174 2653.24 1174 2627.5 1178.29 2627.5 1183.58L2627.5 1307.42C2627.5 1312.71 2601.76 1317 2570 1317" stroke="#91ACE0" stroke-width="10.3125" stroke-miterlimit="8" fill="none" fill-rule="evenodd"/><path d="M2770.55 1149.77 2783.28 1149.77 2787.34 1184.34 2808.12 1149.77 2819.35 1149.77 2818.96 1151.51C2818.06 1151.7 2817.41 1151.92 2817.02 1152.15 2816.62 1152.39 2816.27 1152.75 2815.95 1153.22 2815.63 1153.7 2815.31 1154.44 2814.98 1155.45 2814.66 1156.46 2814.25 1158.11 2813.76 1160.39L2807.66 1188.05C2807.35 1189.45 2807.15 1190.56 2807.05 1191.38 2806.96 1192.2 2806.91 1192.94 2806.91 1193.61 2806.91 1194.68 2807.18 1195.43 2807.71 1195.87 2808.25 1196.31 2809.15 1196.58 2810.4 1196.67L2810.01 1198.42 2795.75 1198.42 2796.15 1196.67C2797.05 1196.53 2797.73 1196.3 2798.18 1195.98 2798.63 1195.66 2799.01 1195.21 2799.32 1194.64 2799.63 1194.07 2799.91 1193.38 2800.17 1192.56 2800.44 1191.74 2800.83 1190.15 2801.35 1187.8L2806.09 1166.3C2806.76 1163.33 2807.52 1160.38 2808.37 1157.43L2807.87 1157.43C2807.14 1158.83 2805.47 1161.68 2802.88 1165.98L2786.67 1192.75 2782.78 1192.75 2779.82 1169.83C2779.39 1166.6 2778.92 1162.25 2778.4 1156.79L2777.68 1156.79C2776.88 1162.11 2775.97 1167.04 2774.97 1171.58L2771.34 1188.05C2770.84 1190.31 2770.59 1192.16 2770.59 1193.61 2770.59 1194.68 2770.86 1195.43 2771.39 1195.87 2771.93 1196.31 2772.82 1196.58 2774.08 1196.67L2773.69 1198.42 2761.22 1198.42 2761.61 1196.67C2762.51 1196.53 2763.19 1196.3 2763.64 1195.98 2764.09 1195.66 2764.47 1195.21 2764.78 1194.64 2765.09 1194.07 2765.37 1193.38 2765.64 1192.56 2765.9 1191.74 2766.29 1190.15 2766.81 1187.8L2772.87 1160.35C2773.11 1159.33 2773.3 1158.36 2773.44 1157.43 2773.58 1156.5 2773.66 1155.56 2773.66 1154.61 2773.66 1153.5 2773.38 1152.72 2772.82 1152.28 2772.26 1151.84 2771.37 1151.58 2770.16 1151.51Z" fill-rule="evenodd"/><text fill="#000000" fill-opacity="0" font-family="Arial,Arial_MSFontService,sans-serif" font-size="48.6548" x="2761.22" y="1192.34">𝑀</text><path d="M2885.01 1174.47 2890.43 1179.89 2860.77 1179.89 2866.19 1183.59C2864.48 1184.16 2862.1 1185.97 2859.06 1189.01 2856.02 1192.24 2852.5 1195.57 2848.51 1198.99L2877.88 1198.14C2876.17 1195.47 2873.7 1192.62 2870.46 1189.58L2871.32 1188.73C2874.93 1190.82 2878.02 1192.91 2880.59 1195 2883.15 1197.09 2884.53 1198.9 2884.72 1200.42 2884.91 1201.94 2884.63 1203.13 2883.87 1203.98 2883.11 1204.84 2882.63 1205.26 2882.44 1205.26 2881.87 1205.26 2881.49 1204.98 2881.3 1204.41 2880.54 1203.08 2879.59 1201.37 2878.45 1199.28 2869.51 1200.04 2862.34 1200.8 2856.92 1201.56 2851.5 1202.32 2847.94 1203.27 2846.23 1204.41L2843.37 1198.99C2845.85 1198.8 2848.89 1196.42 2852.5 1191.86 2856.11 1187.3 2858.58 1183.31 2859.91 1179.89L2849.08 1179.89C2846.61 1179.89 2844.32 1180.17 2842.23 1180.74L2839.67 1178.17 2881.3 1178.17ZM2879.59 1163.35 2884.72 1168.48 2854.78 1168.48C2851.93 1168.48 2849.65 1168.76 2847.94 1169.33L2845.37 1166.77 2876.17 1166.77ZM2839.38 1145.1 2839.38 1154.79 2879.3 1154.79 2879.3 1145.1ZM2881.87 1140.53 2885.86 1144.53 2883.58 1146.24C2883.58 1148.33 2883.58 1150.47 2883.58 1152.65 2883.58 1154.84 2883.68 1156.69 2883.87 1158.21L2879.3 1159.92 2879.3 1156.5 2839.38 1156.5C2839.38 1162.21 2839.1 1168 2838.53 1173.9 2837.96 1179.79 2836.77 1185.3 2834.96 1190.44 2833.16 1195.57 2829.97 1200.7 2825.41 1205.83L2824.55 1204.98C2828.17 1199.47 2830.73 1193.76 2832.25 1187.87 2833.77 1181.98 2834.63 1176.13 2834.82 1170.33 2835.01 1164.53 2835.1 1159.21 2835.1 1154.36 2835.1 1149.52 2835.01 1145.1 2834.82 1141.1L2839.38 1143.39 2879.02 1143.39Z" fill-rule="evenodd"/><text fill="#000000" fill-opacity="0" font-family="Arial,Arial_MSFontService,sans-serif" font-size="65.3008" x="2824.55" y="1197.67">层</text></g></svg>