<svg width="3661" height="1455" xmlns="http://www.w3.org/2000/svg" xmlns:xlink="http://www.w3.org/1999/xlink" overflow="hidden"><defs><clipPath id="clip0"><rect x="39" y="564" width="3661" height="1455"/></clipPath><linearGradient x1="532.2" y1="575.394" x2="541.734" y2="699.385" gradientUnits="userSpaceOnUse" spreadMethod="reflect" id="stroke1"><stop offset="0" stop-color="#48CB89"/><stop offset="0.0116279" stop-color="#47CA8A"/><stop offset="0.0232558" stop-color="#48CA8B"/><stop offset="0.0348837" stop-color="#48CA8D"/><stop offset="0.0465116" stop-color="#48CA8E"/><stop offset="0.0581395" stop-color="#48CA90"/><stop offset="0.0697674" stop-color="#48CA91"/><stop offset="0.0813954" stop-color="#48CA92"/><stop offset="0.0930233" stop-color="#48C994"/><stop offset="0.104651" stop-color="#48C995"/><stop offset="0.116279" stop-color="#48C996"/><stop offset="0.127907" stop-color="#48C997"/><stop offset="0.139535" stop-color="#47C899"/><stop offset="0.151163" stop-color="#47C89A"/><stop offset="0.162791" stop-color="#48C89B"/><stop offset="0.174419" stop-color="#48C79C"/><stop offset="0.186047" stop-color="#48C79E"/><stop offset="0.197674" stop-color="#48C69F"/><stop offset="0.209302" stop-color="#48C6A0"/><stop offset="0.22093" stop-color="#48C5A1"/><stop offset="0.232558" stop-color="#48C5A2"/><stop offset="0.244186" stop-color="#48C4A3"/><stop offset="0.255814" stop-color="#48C4A5"/><stop offset="0.267442" stop-color="#48C3A6"/><stop offset="0.27907" stop-color="#48C3A7"/><stop offset="0.290698" stop-color="#48C2A8"/><stop offset="0.302326" stop-color="#48C1A9"/><stop offset="0.313953" stop-color="#48C1AA"/><stop offset="0.325581" stop-color="#48C0AB"/><stop offset="0.337209" stop-color="#48BFAC"/><stop offset="0.348837" stop-color="#48BEAD"/><stop offset="0.360465" stop-color="#48BEAE"/><stop offset="0.372093" stop-color="#48BDAF"/><stop offset="0.383721" stop-color="#48BCB0"/><stop offset="0.395349" stop-color="#48BBB1"/><stop offset="0.406977" stop-color="#48BAB2"/><stop offset="0.418605" stop-color="#48BAB3"/><stop offset="0.430233" stop-color="#48B9B4"/><stop offset="0.44186" stop-color="#48B8B4"/><stop offset="0.453488" stop-color="#48B7B5"/><stop offset="0.465116" stop-color="#48B6B6"/><stop offset="0.476744" stop-color="#48B5B7"/><stop offset="0.488372" stop-color="#48B4B8"/><stop offset="0.5" stop-color="#48B3B9"/><stop offset="0.511628" stop-color="#48B2B9"/><stop offset="0.523256" stop-color="#48B1BA"/><stop offset="0.534884" stop-color="#48B0BB"/><stop offset="0.546512" stop-color="#48AEBC"/><stop offset="0.55814" stop-color="#48ADBC"/><stop offset="0.569767" stop-color="#48ACBD"/><stop offset="0.581395" stop-color="#48ABBE"/><stop offset="0.593023" stop-color="#48AABE"/><stop offset="0.604651" stop-color="#48A9BF"/><stop offset="0.616279" stop-color="#48A7C0"/><stop offset="0.627907" stop-color="#48A6C0"/><stop offset="0.639535" stop-color="#48A5C1"/><stop offset="0.651163" stop-color="#48A4C1"/><stop offset="0.662791" stop-color="#47A2C2"/><stop offset="0.674419" stop-color="#48A1C2"/><stop offset="0.686047" stop-color="#48A0C3"/><stop offset="0.697674" stop-color="#489EC3"/><stop offset="0.709302" stop-color="#489DC4"/><stop offset="0.72093" stop-color="#489BC4"/><stop offset="0.732558" stop-color="#489AC5"/><stop offset="0.744186" stop-color="#4899C5"/><stop offset="0.755814" stop-color="#4897C6"/><stop offset="0.767442" stop-color="#4896C6"/><stop offset="0.77907" stop-color="#4894C7"/><stop offset="0.790698" stop-color="#4892C7"/><stop offset="0.802326" stop-color="#4891C7"/><stop offset="0.813953" stop-color="#488FC8"/><stop offset="0.825581" stop-color="#488EC8"/><stop offset="0.837209" stop-color="#488CC8"/><stop offset="0.848837" stop-color="#488BC9"/><stop offset="0.860465" stop-color="#4889C9"/><stop offset="0.872093" stop-color="#4887C9"/><stop offset="0.883721" stop-color="#4885C9"/><stop offset="0.895349" stop-color="#4884CA"/><stop offset="0.906977" stop-color="#4882CA"/><stop offset="0.918605" stop-color="#4880CA"/><stop offset="0.930233" stop-color="#487FCA"/><stop offset="0.94186" stop-color="#487DCA"/><stop offset="0.953488" stop-color="#487BCA"/><stop offset="0.965116" stop-color="#4879CA"/><stop offset="0.976744" stop-color="#4877CA"/><stop offset="0.988372" stop-color="#4875CA"/><stop offset="1" stop-color="#4874CB"/></linearGradient><linearGradient x1="516.069" y1="610.996" x2="546.107" y2="828.004" gradientUnits="userSpaceOnUse" spreadMethod="reflect" id="stroke2"><stop offset="0" stop-color="#EE2FBB"/><stop offset="0.00719424" stop-color="#EE30BA"/><stop offset="0.0143885" stop-color="#EE31BA"/><stop offset="0.0215827" stop-color="#EE32BA"/><stop offset="0.028777" stop-color="#ED33BA"/><stop offset="0.0359712" stop-color="#EE34BA"/><stop offset="0.0431655" stop-color="#EE35BA"/><stop offset="0.0503597" stop-color="#ED36BA"/><stop offset="0.057554" stop-color="#EE37BA"/><stop offset="0.0647482" stop-color="#EE38BA"/><stop offset="0.0719424" stop-color="#EE39B9"/><stop offset="0.0791367" stop-color="#EE3AB9"/><stop offset="0.0863309" stop-color="#ED3BB9"/><stop offset="0.0935252" stop-color="#EE3CB9"/><stop offset="0.100719" stop-color="#EE3DB9"/><stop offset="0.107914" stop-color="#EE3EB8"/><stop offset="0.115108" stop-color="#EE40B8"/><stop offset="0.122302" stop-color="#EE41B8"/><stop offset="0.129496" stop-color="#EE42B7"/><stop offset="0.136691" stop-color="#EE42B7"/><stop offset="0.143885" stop-color="#EE43B7"/><stop offset="0.151079" stop-color="#EE44B6"/><stop offset="0.158273" stop-color="#ED45B6"/><stop offset="0.165468" stop-color="#EE46B6"/><stop offset="0.172662" stop-color="#EE47B5"/><stop offset="0.179856" stop-color="#EE48B5"/><stop offset="0.18705" stop-color="#EE49B4"/><stop offset="0.194245" stop-color="#EE4AB4"/><stop offset="0.201439" stop-color="#ED4BB4"/><stop offset="0.208633" stop-color="#EE4CB3"/><stop offset="0.215827" stop-color="#EE4DB3"/><stop offset="0.223022" stop-color="#EE4EB2"/><stop offset="0.230216" stop-color="#EE4FB2"/><stop offset="0.23741" stop-color="#EE50B1"/><stop offset="0.244604" stop-color="#EE50B1"/><stop offset="0.251799" stop-color="#EE51B0"/><stop offset="0.258993" stop-color="#EE52AF"/><stop offset="0.266187" stop-color="#EE53AF"/><stop offset="0.273381" stop-color="#EE54AE"/><stop offset="0.280576" stop-color="#EE55AE"/><stop offset="0.28777" stop-color="#EE56AD"/><stop offset="0.294964" stop-color="#EE56AC"/><stop offset="0.302158" stop-color="#EE57AC"/><stop offset="0.309353" stop-color="#EE58AB"/><stop offset="0.316547" stop-color="#EE59AA"/><stop offset="0.323741" stop-color="#EE5AAA"/><stop offset="0.330935" stop-color="#EE5AA9"/><stop offset="0.338129" stop-color="#EE5BA8"/><stop offset="0.345324" stop-color="#ED5CA7"/><stop offset="0.352518" stop-color="#EE5DA7"/><stop offset="0.359712" stop-color="#EE5EA6"/><stop offset="0.366906" stop-color="#EE5EA5"/><stop offset="0.374101" stop-color="#EE5FA4"/><stop offset="0.381295" stop-color="#EE60A4"/><stop offset="0.388489" stop-color="#EE60A3"/><stop offset="0.395683" stop-color="#EE61A2"/><stop offset="0.402878" stop-color="#ED62A1"/><stop offset="0.410072" stop-color="#EE63A0"/><stop offset="0.417266" stop-color="#EE639F"/><stop offset="0.42446" stop-color="#EE649E"/><stop offset="0.431655" stop-color="#EE659E"/><stop offset="0.438849" stop-color="#ED659D"/><stop offset="0.446043" stop-color="#EE669C"/><stop offset="0.453237" stop-color="#EE679B"/><stop offset="0.460432" stop-color="#ED679A"/><stop offset="0.467626" stop-color="#EE6899"/><stop offset="0.47482" stop-color="#EE6998"/><stop offset="0.482014" stop-color="#EE6997"/><stop offset="0.489209" stop-color="#EE6A96"/><stop offset="0.496403" stop-color="#EE6B95"/><stop offset="0.503597" stop-color="#EE6B94"/><stop offset="0.510791" stop-color="#EE6C93"/><stop offset="0.517986" stop-color="#ED6C92"/><stop offset="0.52518" stop-color="#EE6D91"/><stop offset="0.532374" stop-color="#EE6E90"/><stop offset="0.539568" stop-color="#ED6E8E"/><stop offset="0.546763" stop-color="#EE6F8D"/><stop offset="0.553957" stop-color="#EE6F8C"/><stop offset="0.561151" stop-color="#EE708B"/><stop offset="0.568345" stop-color="#EE708A"/><stop offset="0.57554" stop-color="#EE7189"/><stop offset="0.582734" stop-color="#EE7188"/><stop offset="0.589928" stop-color="#EE7286"/><stop offset="0.597122" stop-color="#EE7285"/><stop offset="0.604317" stop-color="#EE7384"/><stop offset="0.611511" stop-color="#EE7383"/><stop offset="0.618705" stop-color="#EE7482"/><stop offset="0.625899" stop-color="#ED7480"/><stop offset="0.633094" stop-color="#ED757F"/><stop offset="0.640288" stop-color="#EE757E"/><stop offset="0.647482" stop-color="#ED767D"/><stop offset="0.654676" stop-color="#ED767B"/><stop offset="0.66187" stop-color="#EE777A"/><stop offset="0.669065" stop-color="#EE7779"/><stop offset="0.676259" stop-color="#ED7777"/><stop offset="0.683453" stop-color="#EE7876"/><stop offset="0.690647" stop-color="#EE7875"/><stop offset="0.697842" stop-color="#EE7973"/><stop offset="0.705036" stop-color="#EE7972"/><stop offset="0.71223" stop-color="#EE7970"/><stop offset="0.719424" stop-color="#EE7A6F"/><stop offset="0.726619" stop-color="#EE7A6E"/><stop offset="0.733813" stop-color="#ED7B6C"/><stop offset="0.741007" stop-color="#EE7B6B"/><stop offset="0.748201" stop-color="#EE7B69"/><stop offset="0.755396" stop-color="#ED7C68"/><stop offset="0.76259" stop-color="#EE7C66"/><stop offset="0.769784" stop-color="#EE7C65"/><stop offset="0.776978" stop-color="#EE7D63"/><stop offset="0.784173" stop-color="#EE7D62"/><stop offset="0.791367" stop-color="#EE7D60"/><stop offset="0.798561" stop-color="#EE7D5F"/><stop offset="0.805755" stop-color="#EE7E5D"/><stop offset="0.81295" stop-color="#EE7E5C"/><stop offset="0.820144" stop-color="#ED7E5A"/><stop offset="0.827338" stop-color="#EE7E58"/><stop offset="0.834532" stop-color="#EE7F57"/><stop offset="0.841727" stop-color="#EE7F55"/><stop offset="0.848921" stop-color="#EE7F54"/><stop offset="0.856115" stop-color="#EE7F52"/><stop offset="0.863309" stop-color="#EE8050"/><stop offset="0.870504" stop-color="#ED804F"/><stop offset="0.877698" stop-color="#EE804D"/><stop offset="0.884892" stop-color="#EE804B"/><stop offset="0.892086" stop-color="#EE8049"/><stop offset="0.899281" stop-color="#EE8048"/><stop offset="0.906475" stop-color="#EE8146"/><stop offset="0.913669" stop-color="#EE8144"/><stop offset="0.920863" stop-color="#EE8143"/><stop offset="0.928058" stop-color="#EE8141"/><stop offset="0.935252" stop-color="#EE813F"/><stop offset="0.942446" stop-color="#EE813D"/><stop offset="0.94964" stop-color="#EE813B"/><stop offset="0.956835" stop-color="#EE813A"/><stop offset="0.964029" stop-color="#EE8138"/><stop offset="0.971223" stop-color="#EE8136"/><stop offset="0.978417" stop-color="#EE8134"/><stop offset="0.985611" stop-color="#EE8132"/><stop offset="0.992806" stop-color="#EE8130"/><stop offset="1" stop-color="#EE822F"/></linearGradient><linearGradient x1="514.959" y1="784.257" x2="560.286" y2="1051.74" gradientUnits="userSpaceOnUse" spreadMethod="reflect" id="stroke3"><stop offset="0" stop-color="#BD7542"/><stop offset="0.0140845" stop-color="#BC7642"/><stop offset="0.028169" stop-color="#BC7842"/><stop offset="0.0422535" stop-color="#BC7A41"/><stop offset="0.056338" stop-color="#BC7C42"/><stop offset="0.0704225" stop-color="#BC7E42"/><stop offset="0.084507" stop-color="#BC7F42"/><stop offset="0.0985916" stop-color="#BC8141"/><stop offset="0.112676" stop-color="#BB8342"/><stop offset="0.126761" stop-color="#BB8542"/><stop offset="0.140845" stop-color="#BB8642"/><stop offset="0.15493" stop-color="#BA8842"/><stop offset="0.169014" stop-color="#BA8A42"/><stop offset="0.183099" stop-color="#BA8B42"/><stop offset="0.197183" stop-color="#B98D42"/><stop offset="0.211268" stop-color="#B98E42"/><stop offset="0.225352" stop-color="#B89042"/><stop offset="0.239437" stop-color="#B89142"/><stop offset="0.253521" stop-color="#B79342"/><stop offset="0.267606" stop-color="#B69442"/><stop offset="0.28169" stop-color="#B69642"/><stop offset="0.295775" stop-color="#B59742"/><stop offset="0.309859" stop-color="#B49942"/><stop offset="0.323944" stop-color="#B49A42"/><stop offset="0.338028" stop-color="#B39B42"/><stop offset="0.352113" stop-color="#B29D42"/><stop offset="0.366197" stop-color="#B29E42"/><stop offset="0.380282" stop-color="#B19F42"/><stop offset="0.394366" stop-color="#B0A042"/><stop offset="0.408451" stop-color="#AFA242"/><stop offset="0.422535" stop-color="#AEA342"/><stop offset="0.43662" stop-color="#ADA442"/><stop offset="0.450704" stop-color="#ACA542"/><stop offset="0.464789" stop-color="#ABA641"/><stop offset="0.478873" stop-color="#AAA742"/><stop offset="0.492958" stop-color="#A9A842"/><stop offset="0.507042" stop-color="#A8A942"/><stop offset="0.521127" stop-color="#A7AA42"/><stop offset="0.535211" stop-color="#A6AB42"/><stop offset="0.549296" stop-color="#A5AC42"/><stop offset="0.56338" stop-color="#A4AD42"/><stop offset="0.577465" stop-color="#A3AE42"/><stop offset="0.591549" stop-color="#A2AF42"/><stop offset="0.605634" stop-color="#A0B042"/><stop offset="0.619718" stop-color="#9FB142"/><stop offset="0.633803" stop-color="#9EB242"/><stop offset="0.647887" stop-color="#9DB242"/><stop offset="0.661972" stop-color="#9BB342"/><stop offset="0.676056" stop-color="#9AB442"/><stop offset="0.690141" stop-color="#99B442"/><stop offset="0.704225" stop-color="#97B542"/><stop offset="0.71831" stop-color="#96B642"/><stop offset="0.732394" stop-color="#94B642"/><stop offset="0.746479" stop-color="#93B742"/><stop offset="0.760563" stop-color="#91B842"/><stop offset="0.774648" stop-color="#90B842"/><stop offset="0.788732" stop-color="#8EB942"/><stop offset="0.802817" stop-color="#8DB942"/><stop offset="0.816901" stop-color="#8BBA42"/><stop offset="0.830986" stop-color="#8ABA42"/><stop offset="0.84507" stop-color="#88BA42"/><stop offset="0.859155" stop-color="#86BB42"/><stop offset="0.873239" stop-color="#85BB42"/><stop offset="0.887324" stop-color="#83BB42"/><stop offset="0.901408" stop-color="#81BC42"/><stop offset="0.915493" stop-color="#7FBC42"/><stop offset="0.929577" stop-color="#7EBC42"/><stop offset="0.943662" stop-color="#7CBC42"/><stop offset="0.957747" stop-color="#7ABC42"/><stop offset="0.971831" stop-color="#78BC42"/><stop offset="0.985915" stop-color="#76BC42"/><stop offset="1" stop-color="#75BD42"/></linearGradient><linearGradient x1="2280.07" y1="625.96" x2="2291.86" y2="783.834" gradientUnits="userSpaceOnUse" spreadMethod="reflect" id="stroke4"><stop offset="0" stop-color="#48CB89"/><stop offset="0.0116279" stop-color="#47CA8A"/><stop offset="0.0232558" stop-color="#48CA8B"/><stop offset="0.0348837" stop-color="#48CA8D"/><stop offset="0.0465116" stop-color="#48CA8E"/><stop offset="0.0581395" stop-color="#48CA90"/><stop offset="0.0697674" stop-color="#48CA91"/><stop offset="0.0813954" stop-color="#48CA92"/><stop offset="0.0930233" stop-color="#48C994"/><stop offset="0.104651" stop-color="#48C995"/><stop offset="0.116279" stop-color="#48C996"/><stop offset="0.127907" stop-color="#48C997"/><stop offset="0.139535" stop-color="#47C899"/><stop offset="0.151163" stop-color="#47C89A"/><stop offset="0.162791" stop-color="#48C89B"/><stop offset="0.174419" stop-color="#48C79C"/><stop offset="0.186047" stop-color="#48C79E"/><stop offset="0.197674" stop-color="#48C69F"/><stop offset="0.209302" stop-color="#48C6A0"/><stop offset="0.22093" stop-color="#48C5A1"/><stop offset="0.232558" stop-color="#48C5A2"/><stop offset="0.244186" stop-color="#48C4A3"/><stop offset="0.255814" stop-color="#48C4A5"/><stop offset="0.267442" stop-color="#48C3A6"/><stop offset="0.27907" stop-color="#48C3A7"/><stop offset="0.290698" stop-color="#48C2A8"/><stop offset="0.302326" stop-color="#48C1A9"/><stop offset="0.313953" stop-color="#48C1AA"/><stop offset="0.325581" stop-color="#48C0AB"/><stop offset="0.337209" stop-color="#48BFAC"/><stop offset="0.348837" stop-color="#48BEAD"/><stop offset="0.360465" stop-color="#48BEAE"/><stop offset="0.372093" stop-color="#48BDAF"/><stop offset="0.383721" stop-color="#48BCB0"/><stop offset="0.395349" stop-color="#48BBB1"/><stop offset="0.406977" stop-color="#48BAB2"/><stop offset="0.418605" stop-color="#48BAB3"/><stop offset="0.430233" stop-color="#48B9B4"/><stop offset="0.44186" stop-color="#48B8B4"/><stop offset="0.453488" stop-color="#48B7B5"/><stop offset="0.465116" stop-color="#48B6B6"/><stop offset="0.476744" stop-color="#48B5B7"/><stop offset="0.488372" stop-color="#48B4B8"/><stop offset="0.5" stop-color="#48B3B9"/><stop offset="0.511628" stop-color="#48B2B9"/><stop offset="0.523256" stop-color="#48B1BA"/><stop offset="0.534884" stop-color="#48B0BB"/><stop offset="0.546512" stop-color="#48AEBC"/><stop offset="0.55814" stop-color="#48ADBC"/><stop offset="0.569767" stop-color="#48ACBD"/><stop offset="0.581395" stop-color="#48ABBE"/><stop offset="0.593023" stop-color="#48AABE"/><stop offset="0.604651" stop-color="#48A9BF"/><stop offset="0.616279" stop-color="#48A7C0"/><stop offset="0.627907" stop-color="#48A6C0"/><stop offset="0.639535" stop-color="#48A5C1"/><stop offset="0.651163" stop-color="#48A4C1"/><stop offset="0.662791" stop-color="#47A2C2"/><stop offset="0.674419" stop-color="#48A1C2"/><stop offset="0.686047" stop-color="#48A0C3"/><stop offset="0.697674" stop-color="#489EC3"/><stop offset="0.709302" stop-color="#489DC4"/><stop offset="0.72093" stop-color="#489BC4"/><stop offset="0.732558" stop-color="#489AC5"/><stop offset="0.744186" stop-color="#4899C5"/><stop offset="0.755814" stop-color="#4897C6"/><stop offset="0.767442" stop-color="#4896C6"/><stop offset="0.77907" stop-color="#4894C7"/><stop offset="0.790698" stop-color="#4892C7"/><stop offset="0.802326" stop-color="#4891C7"/><stop offset="0.813953" stop-color="#488FC8"/><stop offset="0.825581" stop-color="#488EC8"/><stop offset="0.837209" stop-color="#488CC8"/><stop offset="0.848837" stop-color="#488BC9"/><stop offset="0.860465" stop-color="#4889C9"/><stop offset="0.872093" stop-color="#4887C9"/><stop offset="0.883721" stop-color="#4885C9"/><stop offset="0.895349" stop-color="#4884CA"/><stop offset="0.906977" stop-color="#4882CA"/><stop offset="0.918605" stop-color="#4880CA"/><stop offset="0.930233" stop-color="#487FCA"/><stop offset="0.94186" stop-color="#487DCA"/><stop offset="0.953488" stop-color="#487BCA"/><stop offset="0.965116" stop-color="#4879CA"/><stop offset="0.976744" stop-color="#4877CA"/><stop offset="0.988372" stop-color="#4875CA"/><stop offset="1" stop-color="#4874CB"/></linearGradient><linearGradient x1="2281.61" y1="1012.53" x2="2294.33" y2="1176.23" gradientUnits="userSpaceOnUse" spreadMethod="reflect" id="stroke5"><stop offset="0" stop-color="#48CB89"/><stop offset="0.0116279" stop-color="#47CA8A"/><stop offset="0.0232558" stop-color="#48CA8B"/><stop offset="0.0348837" stop-color="#48CA8D"/><stop offset="0.0465116" stop-color="#48CA8E"/><stop offset="0.0581395" stop-color="#48CA90"/><stop offset="0.0697674" stop-color="#48CA91"/><stop offset="0.0813954" stop-color="#48CA92"/><stop offset="0.0930233" stop-color="#48C994"/><stop offset="0.104651" stop-color="#48C995"/><stop offset="0.116279" stop-color="#48C996"/><stop offset="0.127907" stop-color="#48C997"/><stop offset="0.139535" stop-color="#47C899"/><stop offset="0.151163" stop-color="#47C89A"/><stop offset="0.162791" stop-color="#48C89B"/><stop offset="0.174419" stop-color="#48C79C"/><stop offset="0.186047" stop-color="#48C79E"/><stop offset="0.197674" stop-color="#48C69F"/><stop offset="0.209302" stop-color="#48C6A0"/><stop offset="0.22093" stop-color="#48C5A1"/><stop offset="0.232558" stop-color="#48C5A2"/><stop offset="0.244186" stop-color="#48C4A3"/><stop offset="0.255814" stop-color="#48C4A5"/><stop offset="0.267442" stop-color="#48C3A6"/><stop offset="0.27907" stop-color="#48C3A7"/><stop offset="0.290698" stop-color="#48C2A8"/><stop offset="0.302326" stop-color="#48C1A9"/><stop offset="0.313953" stop-color="#48C1AA"/><stop offset="0.325581" stop-color="#48C0AB"/><stop offset="0.337209" stop-color="#48BFAC"/><stop offset="0.348837" stop-color="#48BEAD"/><stop offset="0.360465" stop-color="#48BEAE"/><stop offset="0.372093" stop-color="#48BDAF"/><stop offset="0.383721" stop-color="#48BCB0"/><stop offset="0.395349" stop-color="#48BBB1"/><stop offset="0.406977" stop-color="#48BAB2"/><stop offset="0.418605" stop-color="#48BAB3"/><stop offset="0.430233" stop-color="#48B9B4"/><stop offset="0.44186" stop-color="#48B8B4"/><stop offset="0.453488" stop-color="#48B7B5"/><stop offset="0.465116" stop-color="#48B6B6"/><stop offset="0.476744" stop-color="#48B5B7"/><stop offset="0.488372" stop-color="#48B4B8"/><stop offset="0.5" stop-color="#48B3B9"/><stop offset="0.511628" stop-color="#48B2B9"/><stop offset="0.523256" stop-color="#48B1BA"/><stop offset="0.534884" stop-color="#48B0BB"/><stop offset="0.546512" stop-color="#48AEBC"/><stop offset="0.55814" stop-color="#48ADBC"/><stop offset="0.569767" stop-color="#48ACBD"/><stop offset="0.581395" stop-color="#48ABBE"/><stop offset="0.593023" stop-color="#48AABE"/><stop offset="0.604651" stop-color="#48A9BF"/><stop offset="0.616279" stop-color="#48A7C0"/><stop offset="0.627907" stop-color="#48A6C0"/><stop offset="0.639535" stop-color="#48A5C1"/><stop offset="0.651163" stop-color="#48A4C1"/><stop offset="0.662791" stop-color="#47A2C2"/><stop offset="0.674419" stop-color="#48A1C2"/><stop offset="0.686047" stop-color="#48A0C3"/><stop offset="0.697674" stop-color="#489EC3"/><stop offset="0.709302" stop-color="#489DC4"/><stop offset="0.72093" stop-color="#489BC4"/><stop offset="0.732558" stop-color="#489AC5"/><stop offset="0.744186" stop-color="#4899C5"/><stop offset="0.755814" stop-color="#4897C6"/><stop offset="0.767442" stop-color="#4896C6"/><stop offset="0.77907" stop-color="#4894C7"/><stop offset="0.790698" stop-color="#4892C7"/><stop offset="0.802326" stop-color="#4891C7"/><stop offset="0.813953" stop-color="#488FC8"/><stop offset="0.825581" stop-color="#488EC8"/><stop offset="0.837209" stop-color="#488CC8"/><stop offset="0.848837" stop-color="#488BC9"/><stop offset="0.860465" stop-color="#4889C9"/><stop offset="0.872093" stop-color="#4887C9"/><stop offset="0.883721" stop-color="#4885C9"/><stop offset="0.895349" stop-color="#4884CA"/><stop offset="0.906977" stop-color="#4882CA"/><stop offset="0.918605" stop-color="#4880CA"/><stop offset="0.930233" stop-color="#487FCA"/><stop offset="0.94186" stop-color="#487DCA"/><stop offset="0.953488" stop-color="#487BCA"/><stop offset="0.965116" stop-color="#4879CA"/><stop offset="0.976744" stop-color="#4877CA"/><stop offset="0.988372" stop-color="#4875CA"/><stop offset="1" stop-color="#4874CB"/></linearGradient></defs><g clip-path="url(#clip0)" transform="translate(-39 -564)"><rect x="2275" y="603" width="1132" height="133" stroke="#4874CB" stroke-width="10.3125" stroke-miterlimit="8" fill="#FFFFFF"/><rect x="2275" y="596" width="1104" height="133" stroke="#4874CB" stroke-width="10.3125" stroke-miterlimit="8" fill="#FFFFFF"/><rect x="2247" y="1143" width="1160" height="160" stroke="#B58B02" stroke-width="10.3125" stroke-miterlimit="8" fill="#FFFFFF"/><rect x="2247" y="774" width="1160" height="140" stroke="#F5B7BF" stroke-width="10.3125" stroke-miterlimit="8" fill="#FFFFFF"/><rect x="2247" y="606" width="1160" height="139" stroke="#A9E9E4" stroke-width="10.3125" stroke-miterlimit="8" fill="#FFFFFF"/><path d="M41.5001 794.837C41.5001 668.73 143.73 566.5 269.837 566.5L3421.16 566.5C3547.27 566.5 3649.5 668.73 3649.5 794.837L3649.5 1708.16C3649.5 1834.27 3547.27 1936.5 3421.16 1936.5L269.837 1936.5C143.73 1936.5 41.5001 1834.27 41.5001 1708.16Z" stroke="#000000" stroke-width="4.58333" stroke-miterlimit="8" fill="#FFFFFF" fill-rule="evenodd"/><text fill="#FFFFFF" font-family="Times New Roman,Times New Roman_MSFontService,sans-serif" font-weight="400" font-size="83" transform="matrix(1 0 0 1 1670.93 1279)">Univariate</text><path d="M133.5 667.5C135.367 663.965 139.611 655.963 143.685 648.148 147.759 640.332 148.098 635.494 153.7 628.796 159.302 622.097 164.224 614.84 171.354 614.84 178.483 614.84 181.878 622.097 189.007 628.796 196.137 635.494 199.532 640.891 206.661 648.148 213.791 655.405 218.374 665.267 224.485 664.709 230.596 664.151 230.935 652.055 237.046 645.357 243.157 638.658 247.57 632.145 254.7 631.587 261.829 631.028 265.224 638.658 272.354 642.565 279.483 646.473 282.878 647.59 290.007 650.939 297.137 654.288 300.702 658.01 307.831 659.126 314.96 660.243 318.865 660.801 325.485 656.335 332.105 651.869 333.972 642.565 340.592 636.983 347.213 631.401 351.117 632.145 358.246 628.796 365.376 625.446 368.771 622.097 375.9 620.422 383.029 618.747 386.424 619.305 393.554 620.422 400.683 621.538 404.078 624.33 411.207 626.004 418.337 627.679 423.939 624.33 429.031 628.796 434.123 633.261 430.898 643.682 436.5 648.148 442.102 652.614 449.061 652.614 456.7 650.939 464.339 649.264 466.715 645.357 474.354 639.774 481.992 634.192 486.915 627.121 494.554 623.213 502.192 619.305 505.078 623.213 512.208 620.422 519.337 617.631 522.902 611.118 530.031 609.443 537.16 607.768 540.555 608.141 547.685 612.048 554.814 615.956 558.209 622.097 565.339 628.796 572.468 635.494 575.863 639.774 582.992 645.357 590.122 650.939 593.517 653.544 600.646 656.335 607.776 659.126 612.698 662.476 618.3 659.126 623.902 655.777 622.883 644.24 628.485 639.774 634.087 635.308 639.009 638.099 646.139 636.983 653.268 635.867 656.663 635.308 663.792 634.192 670.922 633.075 675.335 636.053 681.446 631.587 687.557 627.121 688.066 613.723 694.177 612.048 700.288 610.374 704.702 620.422 711.831 623.213 718.961 626.004 722.355 624.888 729.485 626.004 736.614 627.121 740.009 624.888 747.139 628.796 754.268 632.703 757.663 639.774 764.792 645.357 771.922 650.939 775.317 654.102 782.446 656.335 789.576 658.568 792.971 656.894 800.1 656.335 807.229 655.777 810.624 657.08 817.754 653.73 824.883 650.381 828.448 644.24 835.577 639.774 842.707 635.308 846.102 633.82 853.231 631.587 860.361 629.354 863.755 626.004 870.885 628.796 878.014 631.587 881.409 641.449 888.539 645.357 895.668 649.264 899.063 649.264 906.193 648.148 913.322 647.031 916.717 643.124 923.846 639.774 930.976 636.425 938.275 633.075 941.5 631.587" stroke="url(#stroke1)" stroke-width="4.58333" stroke-miterlimit="8" fill="none" fill-rule="evenodd"/><path d="M133.5 763.508C136.673 759.09 143.853 748.694 150.866 740.118 157.879 731.542 160.885 727.124 168.399 720.886 175.913 714.649 180.756 714.649 188.27 709.191 195.784 703.733 198.623 700.875 205.636 693.858 212.649 686.841 216.49 672.807 223.002 674.366 229.514 675.925 231.351 694.637 237.863 701.654 244.376 708.671 248.216 706.852 255.23 709.191 262.243 711.53 265.582 713.869 272.596 713.09 279.609 712.31 282.949 710.75 289.962 705.293 296.975 699.835 300.482 691.519 307.495 686.061 314.508 680.603 317.848 679.044 324.861 678.264 331.874 677.485 335.715 675.925 342.227 682.163 348.739 688.4 352.079 698.276 357.088 709.191 362.098 720.107 361.597 726.864 367.107 736.22 372.618 745.576 377.46 755.711 384.473 755.711 391.487 755.711 394.826 744.796 401.84 736.22 408.853 727.643 412.192 721.666 419.206 713.09 426.219 704.513 429.558 697.756 436.572 693.858 443.585 689.959 446.925 693.858 453.938 693.858 460.951 693.858 464.291 692.298 471.304 693.858 478.317 695.417 481.824 698.536 488.837 701.654 495.85 704.773 499.19 707.632 506.203 709.191 513.216 710.75 516.556 709.191 523.569 709.191 530.582 709.191 533.922 709.191 540.935 709.191 547.949 709.191 552.29 703.733 558.301 709.191 564.313 714.649 565.649 725.304 570.658 736.22 575.668 747.135 577.17 756.491 583.182 763.508 589.193 770.525 594.536 774.943 600.548 771.045 606.559 767.147 606.893 754.932 612.904 744.016 618.916 733.101 623.424 727.124 630.438 716.988 637.451 706.852 641.291 703.993 647.804 693.858 654.316 683.722 656.153 669.168 662.665 666.829 669.177 664.49 673.018 675.146 680.031 682.163 687.044 689.18 693.39 692.298 697.397 701.654 701.405 711.01 695.894 720.886 699.902 728.683 703.909 736.48 710.255 738.559 717.268 740.118 724.281 741.677 729.625 742.457 734.634 736.22 739.644 729.982 737.139 717.768 742.148 709.191 747.158 700.615 752.501 697.756 759.514 693.858 766.528 689.959 769.867 693.078 776.881 689.959 783.894 686.841 788.736 675.146 794.247 678.264 799.757 681.383 802.262 694.377 804.266 705.293 806.269 716.208 803.765 721.666 804.266 732.581 804.766 743.497 802.763 757.271 806.77 759.61 810.778 761.949 818.626 752.593 824.136 744.016 829.647 735.44 829.981 727.903 833.988 716.988 837.996 706.073 838.497 695.417 844.007 689.959 849.518 684.502 854.36 687.62 861.373 689.959 868.387 692.298 871.726 693.858 878.739 701.654 885.753 709.451 889.092 726.344 896.106 728.683 903.119 731.022 906.959 721.666 913.472 713.09 919.984 704.513 925.828 691.259 928.5 686.061" stroke="url(#stroke2)" stroke-width="4.58333" stroke-miterlimit="8" fill="none" fill-rule="evenodd"/><path d="M133.5 921.475C136.685 917.229 144.564 907.619 151.102 898.232 157.639 888.845 159.986 884.375 166.021 874.989 172.056 865.602 175.409 851.522 180.941 851.522 186.472 851.522 188.819 864.932 193.346 874.989 197.872 885.046 199.38 891.527 203.404 901.584 207.427 911.642 210.277 924.828 213.294 924.828 216.311 924.828 216.814 910.971 218.323 901.584 219.832 892.198 218.826 887.504 220.838 878.118 222.849 868.731 223.352 854.875 228.381 854.875 233.41 854.875 240.283 868.731 245.815 878.118 251.347 887.504 251.682 892.198 255.706 901.584 259.729 910.971 261.741 925.498 265.764 924.828 269.787 924.157 271.631 908.289 275.654 898.232 279.677 888.175 280.683 884.375 285.712 874.989 290.741 865.602 296.106 850.852 300.632 851.522 305.158 852.193 304.655 868.061 308.175 878.118 311.696 888.175 312.534 900.914 318.066 901.584 323.598 902.255 329.968 890.186 335.5 881.47 341.032 872.754 340.026 857.556 345.558 858.227 351.09 858.897 357.963 874.765 362.992 884.822 368.021 894.88 366.009 908.066 370.536 908.066 375.062 908.066 380.426 894.209 385.455 884.822 390.484 875.436 390.317 861.579 395.346 861.579 400.375 861.579 405.907 875.436 410.433 884.822 414.959 894.209 414.791 898.008 417.809 908.066 420.826 918.123 422.335 924.604 425.352 934.661 428.37 944.718 429.878 957.904 432.896 957.904 435.913 957.904 436.751 944.048 440.272 934.661 443.792 925.275 445.301 920.805 450.33 911.418 455.359 902.031 459.717 897.562 465.249 888.175 470.781 878.788 471.619 869.625 477.654 864.932 483.689 860.238 488.048 864.932 495.088 864.932 502.129 864.932 505.649 864.932 512.69 864.932 519.731 864.932 523.586 860.238 530.124 864.932 536.662 869.625 540.014 878.788 545.044 888.175 550.073 897.562 550.408 902.031 554.934 911.418 559.46 920.805 563.483 934.661 567.507 934.661 571.53 934.661 572.871 920.805 574.883 911.418 576.894 902.031 574.38 888.175 577.397 888.175 580.414 888.175 584.438 902.031 589.97 911.418 595.502 920.805 600.363 924.604 604.889 934.661 609.415 944.718 609.415 951.2 612.433 961.257 615.45 971.314 617.797 984.5 619.809 984.5 621.82 984.5 621.317 970.643 622.323 961.257 623.329 951.87 624.335 947.4 624.838 938.014 625.341 928.627 624.838 924.157 624.838 914.77 624.838 905.384 621.317 900.243 624.838 891.527 628.358 882.811 635.231 874.989 642.272 871.636 649.312 868.284 652.665 873.648 659.706 874.989 666.746 876.33 670.602 872.754 677.14 878.118 683.678 883.482 685.689 897.562 692.227 901.584 698.765 905.607 703.123 903.596 709.661 898.232 716.199 892.868 718.043 878.341 724.581 874.989 731.118 871.636 734.974 875.436 742.015 881.47 749.055 887.504 752.408 900.02 759.449 904.713 766.489 909.407 769.842 906.054 776.883 904.713 783.923 903.372 787.444 902.255 794.484 898.232 801.525 894.209 804.878 889.516 811.918 884.822 818.959 880.129 822.312 877 829.352 874.989 836.393 872.977 839.746 870.295 846.786 874.989 853.827 879.682 858.185 888.845 864.22 898.232 870.255 907.619 870.59 915.441 876.625 921.475 882.66 927.509 887.186 930.862 894.227 928.18 901.268 925.498 904.62 911.418 911.661 908.066 918.702 904.713 923.06 906.054 929.095 911.418 935.13 916.782 939.321 929.968 941.5 934.661" stroke="url(#stroke3)" stroke-width="4.58333" stroke-miterlimit="8" fill="none" fill-rule="evenodd"/><text font-family="Microsoft YaHei,Microsoft YaHei_MSFontService,sans-serif" font-weight="400" font-size="55" transform="matrix(1 0 0 1 594.687 813)">•<tspan font-size="55" x="0" y="68">•</tspan><tspan font-size="55" x="0" y="34">•</tspan><tspan font-size="128" x="470.307" y="56">单变量注</tspan><tspan font-size="128" x="470.307" y="211">意力机制</tspan></text><path d="M1756.5 743.5C1758.95 738.946 1764.52 728.639 1769.86 718.572 1775.21 708.505 1775.65 702.272 1783 693.643 1790.35 685.014 1796.81 675.666 1806.16 675.666 1815.51 675.666 1819.97 685.014 1829.32 693.643 1838.67 702.272 1843.13 709.224 1852.48 718.572 1861.83 727.92 1867.84 740.624 1875.86 739.905 1883.88 739.186 1884.32 723.605 1892.34 714.976 1900.36 706.347 1906.15 697.958 1915.5 697.239 1924.85 696.52 1929.31 706.347 1938.66 711.381 1948.01 716.414 1952.47 717.853 1961.82 722.167 1971.17 726.482 1975.85 731.276 1985.2 732.714 1994.55 734.152 1999.68 734.871 2008.36 729.118 2017.05 723.366 2019.5 711.381 2028.18 704.19 2036.87 696.999 2041.99 697.958 2051.34 693.643 2060.69 689.329 2065.15 685.014 2074.5 682.857 2083.85 680.7 2088.31 681.419 2097.66 682.857 2107.01 684.295 2111.47 687.891 2120.82 690.048 2130.17 692.205 2137.52 687.891 2144.2 693.643 2150.88 699.396 2146.65 712.819 2154 718.572 2161.35 724.324 2170.48 724.324 2180.5 722.167 2190.52 720.01 2193.64 714.976 2203.66 707.785 2213.68 700.595 2220.14 691.486 2230.16 686.453 2240.18 681.419 2243.97 686.453 2253.32 682.857 2262.67 679.262 2267.35 670.872 2276.7 668.715 2286.05 666.558 2290.51 667.037 2299.86 672.071 2309.21 677.104 2313.67 685.014 2323.02 693.643 2332.37 702.272 2336.83 707.785 2346.18 714.976 2355.53 722.167 2359.99 725.523 2369.34 729.118 2378.69 732.714 2385.15 737.028 2392.5 732.714 2399.85 728.399 2398.51 713.538 2405.86 707.785 2413.21 702.033 2419.67 705.628 2429.02 704.19 2438.37 702.752 2442.83 702.033 2452.18 700.595 2461.53 699.156 2467.32 702.992 2475.34 697.239 2483.36 691.486 2484.03 674.228 2492.04 672.071 2500.06 669.914 2505.85 682.857 2515.2 686.453 2524.55 690.048 2529.01 688.61 2538.36 690.048 2547.71 691.486 2552.17 688.61 2561.52 693.643 2570.87 698.677 2575.33 707.785 2584.68 714.976 2594.03 722.167 2598.49 726.242 2607.84 729.118 2617.19 731.995 2621.65 729.837 2631 729.118 2640.35 728.399 2644.81 730.077 2654.16 725.763 2663.51 721.448 2668.19 713.538 2677.54 707.785 2686.89 702.033 2691.35 700.115 2700.7 697.239 2710.05 694.363 2714.51 690.048 2723.86 693.643 2733.21 697.239 2737.67 709.943 2747.02 714.976 2756.37 720.01 2760.83 720.01 2770.18 718.572 2779.53 717.134 2783.99 712.1 2793.34 707.785 2802.69 703.471 2812.27 699.156 2816.5 697.239" stroke="url(#stroke4)" stroke-width="4.58333" stroke-miterlimit="8" fill="none" fill-rule="evenodd"/><text font-family="Times New Roman,Times New Roman_MSFontService,sans-serif" font-weight="400" font-size="128" transform="matrix(1 0 0 1 1437.56 1381)">Time2vec<tspan font-family="Microsoft YaHei,Microsoft YaHei_MSFontService,sans-serif" font-size="128" x="507.673" y="0">编码</tspan></text><rect x="1817" y="1528" width="992" height="189" fill="#ACD78E"/><text fill="#44546A" font-family="Times New Roman,Times New Roman_MSFontService,sans-serif" font-weight="400" font-size="128" transform="matrix(1 0 0 1 1871 1668)">Uaformer<tspan font-family="Microsoft YaHei,Microsoft YaHei_MSFontService,sans-serif" font-size="128" x="499.01" y="0">网络层</tspan></text><path d="M1012.53 706.771 1652.65 710.58C1655.82 710.598 1658.37 713.179 1658.35 716.343 1658.33 719.507 1655.75 722.057 1652.58 722.038L1012.47 718.229C1009.3 718.21 1006.75 715.63 1006.77 712.466 1006.79 709.302 1009.37 706.752 1012.53 706.771ZM1621.28 691.121 1663.99 716.376 1620.98 741.122C1618.24 742.7 1614.74 741.756 1613.16 739.013 1611.58 736.271 1612.52 732.768 1615.27 731.19L1649.76 711.343 1649.7 721.24 1615.45 700.984C1612.72 699.373 1611.82 695.86 1613.43 693.136 1615.04 690.413 1618.55 689.51 1621.28 691.121Z" fill="#4874CB"/><path d="M2290.23 1197.42 2294.42 1482.02C2294.46 1485.19 2291.94 1487.79 2288.77 1487.83 2285.61 1487.88 2283.01 1485.35 2282.96 1482.19L2278.77 1197.58C2278.72 1194.42 2281.25 1191.82 2284.42 1191.77 2287.58 1191.72 2290.18 1194.25 2290.23 1197.42ZM2313.22 1450.25 2288.85 1493.48 2263.23 1450.99C2261.59 1448.28 2262.46 1444.76 2265.17 1443.12 2267.88 1441.49 2271.4 1442.36 2273.04 1445.07L2293.59 1479.15 2283.7 1479.29 2303.24 1444.63C2304.79 1441.87 2308.29 1440.9 2311.05 1442.45 2313.8 1444 2314.78 1447.5 2313.22 1450.25Z" fill="#4874CB"/><path d="M2819.5 1625.77 3638.83 1625.77C3641.99 1625.77 3644.56 1628.34 3644.56 1631.5 3644.56 1634.66 3641.99 1637.23 3638.83 1637.23L2819.5 1637.23C2816.34 1637.23 2813.77 1634.66 2813.77 1631.5 2813.77 1628.34 2816.34 1625.77 2819.5 1625.77ZM3607.34 1606.5 3650.2 1631.5 3607.34 1656.5C3604.61 1658.1 3601.1 1657.17 3599.5 1654.44 3597.91 1651.71 3598.83 1648.2 3601.57 1646.6L3635.94 1626.55 3635.94 1636.45 3601.57 1616.4C3598.83 1614.8 3597.91 1611.29 3599.5 1608.56 3601.1 1605.83 3604.61 1604.91 3607.34 1606.5Z" fill="#4874CB"/><text fill="#E54C5E" font-family="Microsoft YaHei,Microsoft YaHei_MSFontService,sans-serif" font-weight="400" font-size="128" transform="matrix(1 0 0 1 2841.78 1564)">时间维度特征<tspan fill="#000000" font-weight="700" font-size="147" x="-1549.94" y="331">时间维度特征学习模块</tspan></text><rect x="1756" y="1038" width="528" height="133" stroke="#E54C5E" stroke-width="10.3125" stroke-miterlimit="8" fill="#FFFFFF"/><rect x="2284" y="1038" width="528" height="133" stroke="#E54C5E" stroke-width="10.3125" stroke-miterlimit="8" fill="#FFFFFF"/><path d="M1760.5 1134.5C1762.94 1129.77 1768.49 1119.05 1773.81 1108.59 1779.14 1098.12 1779.58 1091.65 1786.9 1082.68 1794.22 1073.71 1800.65 1063.99 1809.97 1063.99 1819.29 1063.99 1823.73 1073.71 1833.04 1082.68 1842.36 1091.65 1846.8 1098.87 1856.12 1108.59 1865.43 1118.3 1871.42 1131.51 1879.41 1130.76 1887.4 1130.02 1887.84 1113.82 1895.83 1104.85 1903.81 1095.88 1909.58 1087.16 1918.9 1086.41 1928.22 1085.67 1932.65 1095.88 1941.97 1101.11 1951.29 1106.35 1955.73 1107.84 1965.04 1112.32 1974.36 1116.81 1979.02 1121.79 1988.34 1123.29 1997.66 1124.78 2002.76 1125.53 2011.41 1119.55 2020.06 1113.57 2022.5 1101.11 2031.16 1093.64 2039.81 1086.16 2044.91 1087.16 2054.23 1082.68 2063.55 1078.19 2067.98 1073.71 2077.3 1071.46 2086.62 1069.22 2091.05 1069.97 2100.37 1071.46 2109.69 1072.96 2114.13 1076.7 2123.44 1078.94 2132.76 1081.18 2140.08 1076.7 2146.74 1082.68 2153.39 1088.66 2149.18 1102.61 2156.5 1108.59 2163.82 1114.57 2172.92 1114.57 2182.9 1112.32 2192.88 1110.08 2195.99 1104.85 2205.97 1097.38 2215.96 1089.9 2222.39 1080.43 2232.37 1075.2 2242.36 1069.97 2246.13 1075.2 2255.44 1071.46 2264.76 1067.73 2269.42 1059.01 2278.74 1056.76 2288.06 1054.52 2292.49 1055.02 2301.81 1060.25 2311.13 1065.48 2315.57 1073.71 2324.88 1082.68 2334.2 1091.65 2338.64 1097.38 2347.96 1104.85 2357.27 1112.32 2361.71 1115.81 2371.03 1119.55 2380.35 1123.29 2386.78 1127.77 2394.1 1123.29 2401.42 1118.8 2400.09 1103.36 2407.41 1097.38 2414.73 1091.4 2421.17 1095.13 2430.48 1093.64 2439.8 1092.14 2444.24 1091.4 2453.56 1089.9 2462.87 1088.41 2468.64 1092.39 2476.63 1086.41 2484.61 1080.43 2485.28 1062.49 2493.27 1060.25 2501.25 1058.01 2507.02 1071.46 2516.34 1075.2 2525.66 1078.94 2530.09 1077.44 2539.41 1078.94 2548.73 1080.43 2553.17 1077.44 2562.48 1082.68 2571.8 1087.91 2576.24 1097.38 2585.56 1104.85 2594.87 1112.32 2599.31 1116.56 2608.63 1119.55 2617.95 1122.54 2622.38 1120.3 2631.7 1119.55 2641.02 1118.8 2645.45 1120.55 2654.77 1116.06 2664.09 1111.58 2668.75 1103.36 2678.07 1097.38 2687.38 1091.4 2691.82 1089.4 2701.14 1086.41 2710.46 1083.42 2714.89 1078.94 2724.21 1082.68 2733.53 1086.41 2737.97 1099.62 2747.28 1104.85 2756.6 1110.08 2761.04 1110.08 2770.36 1108.59 2779.67 1107.09 2784.11 1101.86 2793.43 1097.38 2802.75 1092.89 2812.28 1088.41 2816.5 1086.41" stroke="url(#stroke5)" stroke-width="4.58333" stroke-miterlimit="8" fill="none" fill-rule="evenodd"/><path d="M2020 1038 2020 1171.15" stroke="#E54C5E" stroke-width="10.3125" stroke-miterlimit="8" fill="none" fill-rule="evenodd"/><path d="M2548 1038 2548 1171.15" stroke="#E54C5E" stroke-width="10.3125" stroke-miterlimit="8" fill="none" fill-rule="evenodd"/><path d="M2285.23 743.481 2286.11 1010.57C2286.12 1013.74 2283.56 1016.31 2280.4 1016.32 2277.23 1016.33 2274.66 1013.78 2274.65 1010.61L2273.77 743.519C2273.76 740.355 2276.32 737.781 2279.48 737.771 2282.65 737.76 2285.22 740.317 2285.23 743.481ZM2305.28 979.023 2280.42 1021.96 2255.27 979.188C2253.67 976.46 2254.58 972.949 2257.31 971.346 2260.04 969.743 2263.55 970.654 2265.15 973.382L2285.32 1007.69 2275.42 1007.72 2295.36 973.283C2296.95 970.544 2300.45 969.609 2303.19 971.195 2305.93 972.78 2306.86 976.285 2305.28 979.023Z" fill="#4874CB"/><text font-family="Microsoft YaHei,Microsoft YaHei_MSFontService,sans-serif" font-weight="400" font-size="128" transform="matrix(1 0 0 1 2362.02 936)">单变量<tspan font-size="128" x="385" y="0">序列分段划分</tspan></text></g></svg>