<svg width="1104" height="1612" xmlns="http://www.w3.org/2000/svg" xmlns:xlink="http://www.w3.org/1999/xlink" overflow="hidden"><defs><clipPath id="clip0"><rect x="1527" y="542" width="1104" height="1612"/></clipPath></defs><g clip-path="url(#clip0)" transform="translate(-1527 -542)"><rect x="1814.5" y="1999.5" width="769" height="138" stroke="#325395" stroke-width="4.58333" stroke-miterlimit="8" fill="#75BD42"/><text font-family="Microsoft YaHei,Microsoft YaHei_MSFontService,sans-serif" font-weight="400" font-size="73" transform="matrix(1 0 0 1 1978.25 2093)">输入时间序列</text><rect x="1814.5" y="1787.5" width="769" height="138" stroke="#325395" stroke-width="4.58333" stroke-miterlimit="8" fill="#B58B02"/><text font-family="Microsoft YaHei,Microsoft YaHei_MSFontService,sans-serif" font-weight="400" font-size="73" transform="matrix(1 0 0 1 1904.92 1881)">时间序列<tspan font-size="73" x="293.333" y="0">分段划分</tspan></text><rect x="1803.5" y="1537.5" width="87" height="176" stroke="#325395" stroke-width="4.58333" stroke-miterlimit="8" fill="#75BD42"/><rect x="2496.5" y="1537.5" width="86" height="176" stroke="#325395" stroke-width="4.58333" stroke-miterlimit="8" fill="#75BD42"/><rect x="2033.5" y="1537.5" width="85.9999" height="176" stroke="#325395" stroke-width="4.58333" stroke-miterlimit="8" fill="#75BD42"/><rect x="2266.5" y="1537.5" width="87.0002" height="176" stroke="#325395" stroke-width="4.58333" stroke-miterlimit="8" fill="#75BD42"/><rect x="1771.5" y="1161.5" width="855" height="237" stroke="#325395" stroke-width="4.58333" stroke-miterlimit="8" fill="#7DDFD6"/><text font-family="Microsoft YaHei,Microsoft YaHei_MSFontService,sans-serif" font-weight="400" font-size="73" transform="matrix(1 0 0 1 1831.58 1262)">将分段时间序列投影到<tspan font-size="73" x="9.53333" y="88">Transformer</tspan><tspan font-size="73" x="430.49" y="88">隐藏空间</tspan></text><rect x="1771.5" y="851.5" width="855" height="169" stroke="#325395" stroke-width="4.58333" stroke-miterlimit="8" fill="#00B0F0"/><text font-family="Microsoft YaHei,Microsoft YaHei_MSFontService,sans-serif" font-weight="400" font-size="73" transform="matrix(1 0 0 1 1868.25 961)">对投影向量位置<tspan font-size="73" x="513.333" y="0">编码</tspan></text><rect x="1772.5" y="555.5" width="856" height="195" stroke="#325395" stroke-width="4.58333" stroke-miterlimit="8" fill="#E54C5E"/><text font-family="Microsoft YaHei,Microsoft YaHei_MSFontService,sans-serif" font-weight="400" font-size="73" transform="matrix(1 0 0 1 1834.05 636)">基于<tspan font-family="Times New Roman,Times New Roman_MSFontService,sans-serif" font-size="73" x="146.667" y="0">Transformer</tspan><tspan font-size="73" x="511.89" y="0">架构的</tspan><tspan font-size="73" x="219.267" y="88">神经网络</tspan></text><path d="M1678.5 640.999 1642.25 640.999 1642.25 2088.5 1569.75 2088.5 1569.75 640.999 1533.5 640.999 1606 568.5Z" stroke="#EE822F" stroke-width="4.58333" stroke-miterlimit="8" fill="#EE822F" fill-rule="evenodd"/></g></svg>