<svg width="1066" height="475" xmlns="http://www.w3.org/2000/svg" xmlns:xlink="http://www.w3.org/1999/xlink" overflow="hidden"><defs><clipPath id="clip0"><rect x="284" y="738" width="1066" height="475"/></clipPath><linearGradient x1="810.607" y1="1059.53" x2="823.335" y2="1223.23" gradientUnits="userSpaceOnUse" spreadMethod="reflect" id="stroke1"><stop offset="0" stop-color="#48CB89"/><stop offset="0.0116279" stop-color="#47CA8A"/><stop offset="0.0232558" stop-color="#48CA8B"/><stop offset="0.0348837" stop-color="#48CA8D"/><stop offset="0.0465116" stop-color="#48CA8E"/><stop offset="0.0581395" stop-color="#48CA90"/><stop offset="0.0697674" stop-color="#48CA91"/><stop offset="0.0813954" stop-color="#48CA92"/><stop offset="0.0930233" stop-color="#48C994"/><stop offset="0.104651" stop-color="#48C995"/><stop offset="0.116279" stop-color="#48C996"/><stop offset="0.127907" stop-color="#48C997"/><stop offset="0.139535" stop-color="#47C899"/><stop offset="0.151163" stop-color="#47C89A"/><stop offset="0.162791" stop-color="#48C89B"/><stop offset="0.174419" stop-color="#48C79C"/><stop offset="0.186047" stop-color="#48C79E"/><stop offset="0.197674" stop-color="#48C69F"/><stop offset="0.209302" stop-color="#48C6A0"/><stop offset="0.22093" stop-color="#48C5A1"/><stop offset="0.232558" stop-color="#48C5A2"/><stop offset="0.244186" stop-color="#48C4A3"/><stop offset="0.255814" stop-color="#48C4A5"/><stop offset="0.267442" stop-color="#48C3A6"/><stop offset="0.27907" stop-color="#48C3A7"/><stop offset="0.290698" stop-color="#48C2A8"/><stop offset="0.302326" stop-color="#48C1A9"/><stop offset="0.313953" stop-color="#48C1AA"/><stop offset="0.325581" stop-color="#48C0AB"/><stop offset="0.337209" stop-color="#48BFAC"/><stop offset="0.348837" stop-color="#48BEAD"/><stop offset="0.360465" stop-color="#48BEAE"/><stop offset="0.372093" stop-color="#48BDAF"/><stop offset="0.383721" stop-color="#48BCB0"/><stop offset="0.395349" stop-color="#48BBB1"/><stop offset="0.406977" stop-color="#48BAB2"/><stop offset="0.418605" stop-color="#48BAB3"/><stop offset="0.430233" stop-color="#48B9B4"/><stop offset="0.44186" stop-color="#48B8B4"/><stop offset="0.453488" stop-color="#48B7B5"/><stop offset="0.465116" stop-color="#48B6B6"/><stop offset="0.476744" stop-color="#48B5B7"/><stop offset="0.488372" stop-color="#48B4B8"/><stop offset="0.5" stop-color="#48B3B9"/><stop offset="0.511628" stop-color="#48B2B9"/><stop offset="0.523256" stop-color="#48B1BA"/><stop offset="0.534884" stop-color="#48B0BB"/><stop offset="0.546512" stop-color="#48AEBC"/><stop offset="0.55814" stop-color="#48ADBC"/><stop offset="0.569767" stop-color="#48ACBD"/><stop offset="0.581395" stop-color="#48ABBE"/><stop offset="0.593023" stop-color="#48AABE"/><stop offset="0.604651" stop-color="#48A9BF"/><stop offset="0.616279" stop-color="#48A7C0"/><stop offset="0.627907" stop-color="#48A6C0"/><stop offset="0.639535" stop-color="#48A5C1"/><stop offset="0.651163" stop-color="#48A4C1"/><stop offset="0.662791" stop-color="#47A2C2"/><stop offset="0.674419" stop-color="#48A1C2"/><stop offset="0.686047" stop-color="#48A0C3"/><stop offset="0.697674" stop-color="#489EC3"/><stop offset="0.709302" stop-color="#489DC4"/><stop offset="0.72093" stop-color="#489BC4"/><stop offset="0.732558" stop-color="#489AC5"/><stop offset="0.744186" stop-color="#4899C5"/><stop offset="0.755814" stop-color="#4897C6"/><stop offset="0.767442" stop-color="#4896C6"/><stop offset="0.77907" stop-color="#4894C7"/><stop offset="0.790698" stop-color="#4892C7"/><stop offset="0.802326" stop-color="#4891C7"/><stop offset="0.813953" stop-color="#488FC8"/><stop offset="0.825581" stop-color="#488EC8"/><stop offset="0.837209" stop-color="#488CC8"/><stop offset="0.848837" stop-color="#488BC9"/><stop offset="0.860465" stop-color="#4889C9"/><stop offset="0.872093" stop-color="#4887C9"/><stop offset="0.883721" stop-color="#4885C9"/><stop offset="0.895349" stop-color="#4884CA"/><stop offset="0.906977" stop-color="#4882CA"/><stop offset="0.918605" stop-color="#4880CA"/><stop offset="0.930233" stop-color="#487FCA"/><stop offset="0.94186" stop-color="#487DCA"/><stop offset="0.953488" stop-color="#487BCA"/><stop offset="0.965116" stop-color="#4879CA"/><stop offset="0.976744" stop-color="#4877CA"/><stop offset="0.988372" stop-color="#4875CA"/><stop offset="1" stop-color="#4874CB"/></linearGradient><linearGradient x1="810.607" y1="893.532" x2="823.335" y2="1057.23" gradientUnits="userSpaceOnUse" spreadMethod="reflect" id="stroke2"><stop offset="0" stop-color="#48CB89"/><stop offset="0.0116279" stop-color="#47CA8A"/><stop offset="0.0232558" stop-color="#48CA8B"/><stop offset="0.0348837" stop-color="#48CA8D"/><stop offset="0.0465116" stop-color="#48CA8E"/><stop offset="0.0581395" stop-color="#48CA90"/><stop offset="0.0697674" stop-color="#48CA91"/><stop offset="0.0813954" stop-color="#48CA92"/><stop offset="0.0930233" stop-color="#48C994"/><stop offset="0.104651" stop-color="#48C995"/><stop offset="0.116279" stop-color="#48C996"/><stop offset="0.127907" stop-color="#48C997"/><stop offset="0.139535" stop-color="#47C899"/><stop offset="0.151163" stop-color="#47C89A"/><stop offset="0.162791" stop-color="#48C89B"/><stop offset="0.174419" stop-color="#48C79C"/><stop offset="0.186047" stop-color="#48C79E"/><stop offset="0.197674" stop-color="#48C69F"/><stop offset="0.209302" stop-color="#48C6A0"/><stop offset="0.22093" stop-color="#48C5A1"/><stop offset="0.232558" stop-color="#48C5A2"/><stop offset="0.244186" stop-color="#48C4A3"/><stop offset="0.255814" stop-color="#48C4A5"/><stop offset="0.267442" stop-color="#48C3A6"/><stop offset="0.27907" stop-color="#48C3A7"/><stop offset="0.290698" stop-color="#48C2A8"/><stop offset="0.302326" stop-color="#48C1A9"/><stop offset="0.313953" stop-color="#48C1AA"/><stop offset="0.325581" stop-color="#48C0AB"/><stop offset="0.337209" stop-color="#48BFAC"/><stop offset="0.348837" stop-color="#48BEAD"/><stop offset="0.360465" stop-color="#48BEAE"/><stop offset="0.372093" stop-color="#48BDAF"/><stop offset="0.383721" stop-color="#48BCB0"/><stop offset="0.395349" stop-color="#48BBB1"/><stop offset="0.406977" stop-color="#48BAB2"/><stop offset="0.418605" stop-color="#48BAB3"/><stop offset="0.430233" stop-color="#48B9B4"/><stop offset="0.44186" stop-color="#48B8B4"/><stop offset="0.453488" stop-color="#48B7B5"/><stop offset="0.465116" stop-color="#48B6B6"/><stop offset="0.476744" stop-color="#48B5B7"/><stop offset="0.488372" stop-color="#48B4B8"/><stop offset="0.5" stop-color="#48B3B9"/><stop offset="0.511628" stop-color="#48B2B9"/><stop offset="0.523256" stop-color="#48B1BA"/><stop offset="0.534884" stop-color="#48B0BB"/><stop offset="0.546512" stop-color="#48AEBC"/><stop offset="0.55814" stop-color="#48ADBC"/><stop offset="0.569767" stop-color="#48ACBD"/><stop offset="0.581395" stop-color="#48ABBE"/><stop offset="0.593023" stop-color="#48AABE"/><stop offset="0.604651" stop-color="#48A9BF"/><stop offset="0.616279" stop-color="#48A7C0"/><stop offset="0.627907" stop-color="#48A6C0"/><stop offset="0.639535" stop-color="#48A5C1"/><stop offset="0.651163" stop-color="#48A4C1"/><stop offset="0.662791" stop-color="#47A2C2"/><stop offset="0.674419" stop-color="#48A1C2"/><stop offset="0.686047" stop-color="#48A0C3"/><stop offset="0.697674" stop-color="#489EC3"/><stop offset="0.709302" stop-color="#489DC4"/><stop offset="0.72093" stop-color="#489BC4"/><stop offset="0.732558" stop-color="#489AC5"/><stop offset="0.744186" stop-color="#4899C5"/><stop offset="0.755814" stop-color="#4897C6"/><stop offset="0.767442" stop-color="#4896C6"/><stop offset="0.77907" stop-color="#4894C7"/><stop offset="0.790698" stop-color="#4892C7"/><stop offset="0.802326" stop-color="#4891C7"/><stop offset="0.813953" stop-color="#488FC8"/><stop offset="0.825581" stop-color="#488EC8"/><stop offset="0.837209" stop-color="#488CC8"/><stop offset="0.848837" stop-color="#488BC9"/><stop offset="0.860465" stop-color="#4889C9"/><stop offset="0.872093" stop-color="#4887C9"/><stop offset="0.883721" stop-color="#4885C9"/><stop offset="0.895349" stop-color="#4884CA"/><stop offset="0.906977" stop-color="#4882CA"/><stop offset="0.918605" stop-color="#4880CA"/><stop offset="0.930233" stop-color="#487FCA"/><stop offset="0.94186" stop-color="#487DCA"/><stop offset="0.953488" stop-color="#487BCA"/><stop offset="0.965116" stop-color="#4879CA"/><stop offset="0.976744" stop-color="#4877CA"/><stop offset="0.988372" stop-color="#4875CA"/><stop offset="1" stop-color="#4874CB"/></linearGradient><linearGradient x1="810.457" y1="727.055" x2="823.49" y2="892.693" gradientUnits="userSpaceOnUse" spreadMethod="reflect" id="stroke3"><stop offset="0" stop-color="#48CB89"/><stop offset="0.0116279" stop-color="#47CA8A"/><stop offset="0.0232558" stop-color="#48CA8B"/><stop offset="0.0348837" stop-color="#48CA8D"/><stop offset="0.0465116" stop-color="#48CA8E"/><stop offset="0.0581395" stop-color="#48CA90"/><stop offset="0.0697674" stop-color="#48CA91"/><stop offset="0.0813954" stop-color="#48CA92"/><stop offset="0.0930233" stop-color="#48C994"/><stop offset="0.104651" stop-color="#48C995"/><stop offset="0.116279" stop-color="#48C996"/><stop offset="0.127907" stop-color="#48C997"/><stop offset="0.139535" stop-color="#47C899"/><stop offset="0.151163" stop-color="#47C89A"/><stop offset="0.162791" stop-color="#48C89B"/><stop offset="0.174419" stop-color="#48C79C"/><stop offset="0.186047" stop-color="#48C79E"/><stop offset="0.197674" stop-color="#48C69F"/><stop offset="0.209302" stop-color="#48C6A0"/><stop offset="0.22093" stop-color="#48C5A1"/><stop offset="0.232558" stop-color="#48C5A2"/><stop offset="0.244186" stop-color="#48C4A3"/><stop offset="0.255814" stop-color="#48C4A5"/><stop offset="0.267442" stop-color="#48C3A6"/><stop offset="0.27907" stop-color="#48C3A7"/><stop offset="0.290698" stop-color="#48C2A8"/><stop offset="0.302326" stop-color="#48C1A9"/><stop offset="0.313953" stop-color="#48C1AA"/><stop offset="0.325581" stop-color="#48C0AB"/><stop offset="0.337209" stop-color="#48BFAC"/><stop offset="0.348837" stop-color="#48BEAD"/><stop offset="0.360465" stop-color="#48BEAE"/><stop offset="0.372093" stop-color="#48BDAF"/><stop offset="0.383721" stop-color="#48BCB0"/><stop offset="0.395349" stop-color="#48BBB1"/><stop offset="0.406977" stop-color="#48BAB2"/><stop offset="0.418605" stop-color="#48BAB3"/><stop offset="0.430233" stop-color="#48B9B4"/><stop offset="0.44186" stop-color="#48B8B4"/><stop offset="0.453488" stop-color="#48B7B5"/><stop offset="0.465116" stop-color="#48B6B6"/><stop offset="0.476744" stop-color="#48B5B7"/><stop offset="0.488372" stop-color="#48B4B8"/><stop offset="0.5" stop-color="#48B3B9"/><stop offset="0.511628" stop-color="#48B2B9"/><stop offset="0.523256" stop-color="#48B1BA"/><stop offset="0.534884" stop-color="#48B0BB"/><stop offset="0.546512" stop-color="#48AEBC"/><stop offset="0.55814" stop-color="#48ADBC"/><stop offset="0.569767" stop-color="#48ACBD"/><stop offset="0.581395" stop-color="#48ABBE"/><stop offset="0.593023" stop-color="#48AABE"/><stop offset="0.604651" stop-color="#48A9BF"/><stop offset="0.616279" stop-color="#48A7C0"/><stop offset="0.627907" stop-color="#48A6C0"/><stop offset="0.639535" stop-color="#48A5C1"/><stop offset="0.651163" stop-color="#48A4C1"/><stop offset="0.662791" stop-color="#47A2C2"/><stop offset="0.674419" stop-color="#48A1C2"/><stop offset="0.686047" stop-color="#48A0C3"/><stop offset="0.697674" stop-color="#489EC3"/><stop offset="0.709302" stop-color="#489DC4"/><stop offset="0.72093" stop-color="#489BC4"/><stop offset="0.732558" stop-color="#489AC5"/><stop offset="0.744186" stop-color="#4899C5"/><stop offset="0.755814" stop-color="#4897C6"/><stop offset="0.767442" stop-color="#4896C6"/><stop offset="0.77907" stop-color="#4894C7"/><stop offset="0.790698" stop-color="#4892C7"/><stop offset="0.802326" stop-color="#4891C7"/><stop offset="0.813953" stop-color="#488FC8"/><stop offset="0.825581" stop-color="#488EC8"/><stop offset="0.837209" stop-color="#488CC8"/><stop offset="0.848837" stop-color="#488BC9"/><stop offset="0.860465" stop-color="#4889C9"/><stop offset="0.872093" stop-color="#4887C9"/><stop offset="0.883721" stop-color="#4885C9"/><stop offset="0.895349" stop-color="#4884CA"/><stop offset="0.906977" stop-color="#4882CA"/><stop offset="0.918605" stop-color="#4880CA"/><stop offset="0.930233" stop-color="#487FCA"/><stop offset="0.94186" stop-color="#487DCA"/><stop offset="0.953488" stop-color="#487BCA"/><stop offset="0.965116" stop-color="#4879CA"/><stop offset="0.976744" stop-color="#4877CA"/><stop offset="0.988372" stop-color="#4875CA"/><stop offset="1" stop-color="#4874CB"/></linearGradient></defs><g clip-path="url(#clip0)" transform="translate(-284 -738)"><rect x="289" y="1075" width="528" height="133" stroke="#2E54A1" stroke-width="10.3125" stroke-miterlimit="8" fill="#FFFFFF"/><rect x="817" y="1075" width="528" height="133" stroke="#2E54A1" stroke-width="10.3125" stroke-miterlimit="8" fill="#F5B7BF"/><path d="M289.5 1181.5C291.94 1176.77 297.486 1166.05 302.811 1155.59 308.135 1145.12 308.579 1138.64 315.9 1129.68 323.221 1120.71 329.655 1110.99 338.972 1110.99 348.29 1110.99 352.727 1120.71 362.044 1129.68 371.362 1138.64 375.799 1145.87 385.117 1155.59 394.434 1165.3 400.424 1178.51 408.411 1177.76 416.397 1177.02 416.841 1160.82 424.828 1151.85 432.814 1142.88 438.582 1134.16 447.9 1133.41 457.218 1132.67 461.655 1142.88 470.972 1148.11 480.29 1153.35 484.727 1154.84 494.044 1159.32 503.362 1163.81 508.021 1168.79 517.339 1170.29 526.656 1171.78 531.759 1172.53 540.411 1166.55 549.063 1160.57 551.503 1148.11 560.155 1140.64 568.807 1133.16 573.91 1134.16 583.228 1129.68 592.545 1125.19 596.982 1120.71 606.3 1118.46 615.618 1116.22 620.055 1116.97 629.372 1118.46 638.69 1119.96 643.127 1123.7 652.444 1125.94 661.762 1128.18 669.083 1123.7 675.739 1129.68 682.394 1135.66 678.179 1149.61 685.5 1155.59 692.821 1161.57 701.917 1161.57 711.9 1159.32 721.883 1157.08 724.989 1151.85 734.972 1144.38 744.955 1136.9 751.389 1127.43 761.372 1122.2 771.355 1116.97 775.127 1122.2 784.444 1118.46 793.762 1114.73 798.421 1106.01 807.739 1103.76 817.056 1101.52 821.493 1102.02 830.811 1107.25 840.129 1112.48 844.565 1120.71 853.883 1129.68 863.201 1138.64 867.638 1144.38 876.955 1151.85 886.273 1159.32 890.71 1162.81 900.028 1166.55 909.345 1170.29 915.779 1174.77 923.1 1170.29 930.421 1165.8 929.09 1150.36 936.411 1144.38 943.732 1138.4 950.165 1142.13 959.483 1140.64 968.801 1139.14 973.238 1138.4 982.555 1136.9 991.873 1135.41 997.641 1139.39 1005.63 1133.41 1013.61 1127.43 1014.28 1109.49 1022.27 1107.25 1030.25 1105.01 1036.02 1118.46 1045.34 1122.2 1054.66 1125.94 1059.09 1124.44 1068.41 1125.94 1077.73 1127.43 1082.17 1124.44 1091.48 1129.68 1100.8 1134.91 1105.24 1144.38 1114.56 1151.85 1123.87 1159.32 1128.31 1163.56 1137.63 1166.55 1146.95 1169.54 1151.38 1167.3 1160.7 1166.55 1170.02 1165.8 1174.45 1167.55 1183.77 1163.06 1193.09 1158.58 1197.75 1150.36 1207.07 1144.38 1216.38 1138.4 1220.82 1136.4 1230.14 1133.41 1239.46 1130.42 1243.89 1125.94 1253.21 1129.68 1262.53 1133.41 1266.97 1146.62 1276.28 1151.85 1285.6 1157.08 1290.04 1157.08 1299.36 1155.59 1308.67 1154.09 1313.11 1148.86 1322.43 1144.38 1331.75 1139.89 1341.28 1135.41 1345.5 1133.41" stroke="url(#stroke1)" stroke-width="4.58333" stroke-miterlimit="8" fill="none" fill-rule="evenodd"/><rect x="289" y="909" width="528" height="133" stroke="#2E54A1" stroke-width="10.3125" stroke-miterlimit="8" fill="#FFFFFF"/><rect x="817" y="909" width="528" height="133" stroke="#2E54A1" stroke-width="10.3125" stroke-miterlimit="8" fill="#F5B7BF"/><path d="M289.5 1015.5C291.94 1010.77 297.486 1000.05 302.811 989.588 308.135 979.123 308.579 972.645 315.9 963.675 323.221 954.706 329.655 944.988 338.972 944.988 348.29 944.988 352.727 954.706 362.044 963.675 371.362 972.645 375.799 979.87 385.117 989.588 394.434 999.305 400.424 1012.51 408.411 1011.76 416.397 1011.02 416.841 994.82 424.828 985.85 432.814 976.881 438.582 968.16 447.9 967.413 457.218 966.665 461.655 976.881 470.972 982.113 480.29 987.345 484.727 988.84 494.044 993.325 503.362 997.81 508.021 1002.79 517.339 1004.29 526.656 1005.78 531.759 1006.53 540.411 1000.55 549.063 994.571 551.503 982.113 560.155 974.638 568.807 967.163 573.91 968.16 583.228 963.675 592.545 959.19 596.982 954.706 606.3 952.463 615.618 950.221 620.055 950.968 629.372 952.463 638.69 953.958 643.127 957.695 652.444 959.938 661.762 962.18 669.083 957.695 675.739 963.675 682.394 969.655 678.179 983.608 685.5 989.588 692.821 995.567 701.917 995.567 711.9 993.325 721.883 991.083 724.989 985.85 734.972 978.376 744.955 970.901 751.389 961.433 761.372 956.201 771.355 950.968 775.127 956.201 784.444 952.463 793.762 948.726 798.421 940.005 807.739 937.763 817.056 935.521 821.493 936.019 830.811 941.251 840.129 946.483 844.565 954.706 853.883 963.675 863.201 972.645 867.638 978.376 876.955 985.85 886.273 993.325 890.71 996.813 900.028 1000.55 909.345 1004.29 915.779 1008.77 923.1 1004.29 930.421 999.803 929.09 984.355 936.411 978.376 943.732 972.396 950.165 976.133 959.483 974.638 968.801 973.143 973.238 972.396 982.555 970.901 991.873 969.406 997.641 973.392 1005.63 967.413 1013.61 961.433 1014.28 943.494 1022.27 941.251 1030.25 939.009 1036.02 952.463 1045.34 956.201 1054.66 959.938 1059.09 958.443 1068.41 959.938 1077.73 961.433 1082.17 958.443 1091.48 963.675 1100.8 968.908 1105.24 978.376 1114.56 985.85 1123.87 993.325 1128.31 997.561 1137.63 1000.55 1146.95 1003.54 1151.38 1001.3 1160.7 1000.55 1170.02 999.803 1174.45 1001.55 1183.77 997.062 1193.09 992.578 1197.75 984.355 1207.07 978.376 1216.38 972.396 1220.82 970.403 1230.14 967.413 1239.46 964.423 1243.89 959.938 1253.21 963.675 1262.53 967.413 1266.97 980.618 1276.28 985.85 1285.6 991.083 1290.04 991.083 1299.36 989.588 1308.67 988.093 1313.11 982.86 1322.43 978.376 1331.75 973.891 1341.28 969.406 1345.5 967.413" stroke="url(#stroke2)" stroke-width="4.58333" stroke-miterlimit="8" fill="none" fill-rule="evenodd"/><path d="M553 909 553 1042.15" stroke="#2E54A1" stroke-width="10.3125" stroke-miterlimit="8" fill="none" fill-rule="evenodd"/><path d="M1081 909 1081 1042.15" stroke="#2E54A1" stroke-width="10.3125" stroke-miterlimit="8" fill="none" fill-rule="evenodd"/><rect x="289" y="743" width="528" height="134" stroke="#2E54A1" stroke-width="10.3125" stroke-miterlimit="8" fill="#FFFFFF"/><rect x="817" y="743" width="528" height="134" stroke="#2E54A1" stroke-width="10.3125" stroke-miterlimit="8" fill="#F5B7BF"/><path d="M289.5 850.5C291.94 845.706 297.486 834.857 302.811 824.26 308.135 813.662 308.579 807.102 315.9 798.019 323.221 788.936 329.655 779.096 338.972 779.096 348.29 779.096 352.727 788.936 362.044 798.019 371.362 807.102 375.799 814.419 385.117 824.26 394.434 834.1 400.424 847.472 408.411 846.715 416.397 845.958 416.841 829.558 424.828 820.475 432.814 811.392 438.582 802.561 447.9 801.804 457.218 801.047 461.655 811.392 470.972 816.69 480.29 821.989 484.727 823.503 494.044 828.044 503.362 832.586 508.021 837.632 517.339 839.146 526.656 840.66 531.759 841.417 540.411 835.361 549.063 829.306 551.503 816.69 560.155 809.121 568.807 801.552 573.91 802.561 583.228 798.019 592.545 793.478 596.982 788.936 606.3 786.665 615.618 784.394 620.055 785.151 629.372 786.665 638.69 788.179 643.127 791.964 652.444 794.235 661.762 796.505 669.083 791.964 675.739 798.019 682.394 804.075 678.179 818.204 685.5 824.26 692.821 830.315 701.917 830.315 711.9 828.044 721.883 825.773 724.989 820.475 734.972 812.906 744.955 805.336 751.389 795.748 761.372 790.45 771.355 785.151 775.127 790.45 784.444 786.665 793.762 782.881 798.421 774.05 807.739 771.779 817.056 769.508 821.493 770.013 830.811 775.311 840.129 780.61 844.565 788.936 853.883 798.019 863.201 807.102 867.638 812.906 876.955 820.475 886.273 828.044 890.71 831.577 900.028 835.361 909.345 839.146 915.779 843.688 923.1 839.146 930.421 834.604 929.09 818.961 936.411 812.906 943.732 806.85 950.165 810.635 959.483 809.121 968.801 807.607 973.238 806.85 982.555 805.336 991.873 803.822 997.641 807.859 1005.63 801.804 1013.61 795.748 1014.28 777.582 1022.27 775.311 1030.25 773.04 1036.02 786.665 1045.34 790.45 1054.66 794.235 1059.09 792.721 1068.41 794.235 1077.73 795.748 1082.17 792.721 1091.48 798.019 1100.8 803.318 1105.24 812.906 1114.56 820.475 1123.87 828.044 1128.31 832.333 1137.63 835.361 1146.95 838.389 1151.38 836.118 1160.7 835.361 1170.02 834.604 1174.45 836.37 1183.77 831.829 1193.09 827.287 1197.75 818.961 1207.07 812.906 1216.38 806.85 1220.82 804.832 1230.14 801.804 1239.46 798.776 1243.89 794.235 1253.21 798.019 1262.53 801.804 1266.97 815.176 1276.28 820.475 1285.6 825.773 1290.04 825.773 1299.36 824.26 1308.67 822.746 1313.11 817.447 1322.43 812.906 1331.75 808.364 1341.28 803.822 1345.5 801.804" stroke="url(#stroke3)" stroke-width="4.58333" stroke-miterlimit="8" fill="none" fill-rule="evenodd"/><path d="M553 743 553 876.146" stroke="#2E54A1" stroke-width="10.3125" stroke-miterlimit="8" fill="none" fill-rule="evenodd"/><path d="M1081 743 1081 876.146" stroke="#2E54A1" stroke-width="10.3125" stroke-miterlimit="8" fill="none" fill-rule="evenodd"/><path d="M415 743 415 876.146" stroke="#2E54A1" stroke-width="10.3125" stroke-miterlimit="8" fill="none" fill-rule="evenodd"/><path d="M685 743 685 876.146" stroke="#2E54A1" stroke-width="10.3125" stroke-miterlimit="8" fill="none" fill-rule="evenodd"/><path d="M949 743 949 876.146" stroke="#2E54A1" stroke-width="10.3125" stroke-miterlimit="8" fill="none" fill-rule="evenodd"/><path d="M1213 743 1213 876.146" stroke="#2E54A1" stroke-width="10.3125" stroke-miterlimit="8" fill="none" fill-rule="evenodd"/></g></svg>