<svg width="959" height="1657" xmlns="http://www.w3.org/2000/svg" xmlns:xlink="http://www.w3.org/1999/xlink" overflow="hidden"><defs><clipPath id="clip0"><rect x="1684" y="291" width="959" height="1657"/></clipPath></defs><g clip-path="url(#clip0)" transform="translate(-1684 -291)"><path d="M1738.5 1485C1738.5 1465.39 1754.39 1449.5 1774 1449.5L1940 1449.5C1959.61 1449.5 1975.5 1465.39 1975.5 1485L1975.5 1627C1975.5 1646.61 1959.61 1662.5 1940 1662.5L1774 1662.5C1754.39 1662.5 1738.5 1646.61 1738.5 1627Z" stroke="#325395" stroke-width="4.58333" stroke-miterlimit="8" fill="#30C0B4" fill-rule="evenodd"/><path d="M1712.5 1506.83C1712.5 1487.32 1728.32 1471.5 1747.83 1471.5L1914.17 1471.5C1933.68 1471.5 1949.5 1487.32 1949.5 1506.83L1949.5 1648.17C1949.5 1667.68 1933.68 1683.5 1914.17 1683.5L1747.83 1683.5C1728.32 1683.5 1712.5 1667.68 1712.5 1648.17Z" stroke="#325395" stroke-width="4.58333" stroke-miterlimit="8" fill="#F5B482" fill-rule="evenodd"/><path d="M1829.5 1066.5C1829.5 1047.17 1845.17 1031.5 1864.5 1031.5L2527.5 1031.5C2546.83 1031.5 2562.5 1047.17 2562.5 1066.5L2562.5 1206.5C2562.5 1225.83 2546.83 1241.5 2527.5 1241.5L1864.5 1241.5C1845.17 1241.5 1829.5 1225.83 1829.5 1206.5Z" stroke="#325395" stroke-width="4.58333" stroke-miterlimit="8" fill="#30C0B4" fill-rule="evenodd"/><path d="M1800.5 1104.5C1800.5 1085.17 1816.17 1069.5 1835.5 1069.5L2498.5 1069.5C2517.83 1069.5 2533.5 1085.17 2533.5 1104.5L2533.5 1244.5C2533.5 1263.83 2517.83 1279.5 2498.5 1279.5L1835.5 1279.5C1816.17 1279.5 1800.5 1263.83 1800.5 1244.5Z" stroke="#325395" stroke-width="4.58333" stroke-miterlimit="8" fill="#F2BA02" fill-rule="evenodd"/><path d="M1771.5 1142.5C1771.5 1123.17 1787.17 1107.5 1806.5 1107.5L2470.5 1107.5C2489.83 1107.5 2505.5 1123.17 2505.5 1142.5L2505.5 1282.5C2505.5 1301.83 2489.83 1317.5 2470.5 1317.5L1806.5 1317.5C1787.17 1317.5 1771.5 1301.83 1771.5 1282.5Z" stroke="#325395" stroke-width="4.58333" stroke-miterlimit="8" fill="#EF949E" fill-rule="evenodd"/><text font-family="Microsoft YaHei,Microsoft YaHei_MSFontService,sans-serif" font-weight="400" font-size="73" transform="matrix(1 0 0 1 1881.05 1239)">у╝ЕТћЙуѓ╣уД»Т│еТёЈтіЏ</text><path d="M1940.5 775C1940.5 760.364 1952.36 748.5 1967 748.5L2300 748.5C2314.64 748.5 2326.5 760.364 2326.5 775L2326.5 881C2326.5 895.635 2314.64 907.5 2300 907.5L1967 907.5C1952.36 907.5 1940.5 895.635 1940.5 881Z" stroke="#325395" stroke-width="4.58333" stroke-miterlimit="8" fill="#ACD78E" fill-rule="evenodd"/><text font-family="Microsoft YaHei,Microsoft YaHei_MSFontService,sans-serif" font-weight="400" font-size="73" transform="matrix(1 0 0 1 2059.55 854)">ТІ╝ТјЦ</text><path d="M1830.4 1882.27C1827.83 1882.27 1825.44 1883.19 1823.22 1885.02 1821 1886.85 1819.05 1889.46 1817.37 1892.86 1815.7 1896.26 1814.4 1899.99 1813.47 1904.05 1812.54 1908.12 1812.08 1911.7 1812.08 1914.82 1812.08 1922.16 1814.75 1925.83 1820.1 1925.83 1823.4 1925.83 1826.43 1924.29 1829.19 1921.22 1831.94 1918.14 1834.17 1913.88 1835.85 1908.44 1837.54 1902.99 1838.38 1897.91 1838.38 1893.18 1838.38 1889.64 1837.73 1886.94 1836.42 1885.07 1835.12 1883.21 1833.11 1882.27 1830.4 1882.27ZM1830.79 1879.14C1835.38 1879.14 1838.91 1880.47 1841.4 1883.13 1843.88 1885.79 1845.12 1889.64 1845.12 1894.68 1845.12 1898 1844.6 1901.72 1843.55 1905.83 1842.51 1909.95 1841.07 1913.58 1839.24 1916.72 1837.41 1919.87 1835.29 1922.41 1832.88 1924.33 1830.47 1926.26 1827.85 1927.59 1825.02 1928.33 1825.56 1930.06 1826.08 1931.49 1826.55 1932.62 1827.03 1933.75 1827.48 1934.66 1827.92 1935.37 1828.36 1936.07 1828.8 1936.59 1829.22 1936.93 1829.65 1937.28 1830.08 1937.51 1830.51 1937.63 1830.93 1937.75 1831.43 1937.81 1832 1937.81 1832.91 1937.81 1833.82 1937.55 1834.75 1937.02 1835.68 1936.5 1836.71 1935.6 1837.85 1934.31L1839.7 1936.31C1837.8 1938.38 1836.03 1939.84 1834.39 1940.69 1832.75 1941.55 1831.07 1941.98 1829.33 1941.98 1827.36 1941.98 1825.75 1941.54 1824.5 1940.66 1823.25 1939.78 1822.17 1938.38 1821.26 1936.45 1820.34 1934.53 1819.46 1932.01 1818.6 1928.9 1814.3 1928.66 1811.02 1927.23 1808.76 1924.62 1806.51 1922.01 1805.38 1918.32 1805.38 1913.57 1805.38 1910 1805.98 1905.98 1807.18 1901.49 1808.38 1896.99 1810.11 1893.03 1812.38 1889.6 1814.65 1886.16 1817.36 1883.56 1820.51 1881.79 1823.66 1880.02 1827.09 1879.14 1830.79 1879.14Z" fill-rule="evenodd"/><text fill="#000000" fill-opacity="0" font-family="Arial,Arial_MSFontService,sans-serif" font-size="62.8413" x="1805.38" y="1934.12">­ЮЉё</text><path d="M2128.77 1879.77 2143.03 1879.77 2142.64 1881.52C2141.73 1881.71 2141.09 1881.92 2140.69 1882.16 2140.3 1882.4 2139.95 1882.75 2139.64 1883.23 2139.33 1883.7 2139.01 1884.45 2138.68 1885.46 2138.35 1886.47 2137.93 1888.11 2137.43 1890.39L2134.9 1901.76 2136.08 1901.76C2137.08 1901.76 2137.98 1901.6 2138.8 1901.27 2139.62 1900.93 2140.58 1900.33 2141.67 1899.45 2142.77 1898.57 2144.51 1896.95 2146.9 1894.6 2149.28 1892.25 2150.98 1890.46 2151.99 1889.24 2153 1888.01 2153.74 1886.95 2154.2 1886.06 2154.67 1885.17 2154.9 1884.36 2154.9 1883.62 2154.9 1883.03 2154.66 1882.55 2154.18 1882.18 2153.71 1881.81 2153.03 1881.59 2152.15 1881.52L2152.55 1879.77 2167.84 1879.77 2167.44 1881.52C2166.49 1881.66 2165.42 1882.15 2164.22 1883 2163.02 1883.84 2161.18 1885.49 2158.71 1887.93L2144.88 1901.41 2152.47 1919.66C2153.26 1921.54 2153.91 1922.89 2154.42 1923.72 2154.93 1924.55 2155.54 1925.21 2156.25 1925.7 2156.97 1926.19 2157.84 1926.51 2158.89 1926.68L2158.5 1928.43 2144.74 1928.43 2145.13 1926.68C2146.41 1926.56 2147.06 1925.99 2147.06 1924.97 2147.06 1924.33 2146.93 1923.6 2146.66 1922.78 2146.4 1921.96 2146.09 1921.11 2145.74 1920.23L2141.1 1908.89C2140.56 1907.54 2140.08 1906.59 2139.68 1906.04 2139.27 1905.5 2138.85 1905.11 2138.39 1904.9 2137.94 1904.69 2137.24 1904.58 2136.29 1904.58L2134.3 1904.58 2131.34 1918.05C2131.03 1919.48 2130.83 1920.6 2130.73 1921.42 2130.64 1922.24 2130.59 1922.97 2130.59 1923.61 2130.59 1924.68 2130.86 1925.44 2131.39 1925.88 2131.92 1926.32 2132.82 1926.58 2134.08 1926.68L2133.69 1928.43 2119.43 1928.43 2119.82 1926.68C2120.73 1926.54 2121.4 1926.31 2121.86 1925.98 2122.31 1925.66 2122.69 1925.22 2123 1924.65 2123.3 1924.08 2123.59 1923.38 2123.85 1922.56 2124.11 1921.74 2124.5 1920.16 2125.03 1917.8L2131.09 1890.36C2131.61 1887.98 2131.87 1886.07 2131.87 1884.62 2131.87 1883.5 2131.59 1882.72 2131.03 1882.28 2130.48 1881.84 2129.59 1881.59 2128.38 1881.52Z" fill-rule="evenodd"/><text fill="#000000" fill-opacity="0" font-family="Arial,Arial_MSFontService,sans-serif" font-size="48.6548" x="2119.43" y="1922.34">­ЮљЙ</text><path d="M2431.05 1879.63 2445.81 1879.63 2445.41 1881.38C2444.37 1881.5 2443.55 1881.8 2442.97 1882.3 2442.39 1882.8 2441.98 1883.5 2441.74 1884.39 2441.5 1885.28 2441.39 1886.47 2441.39 1887.97 2441.39 1888.33 2441.42 1889.4 2441.49 1891.18L2442.49 1917.27 2442.49 1920.12 2442.85 1920.12 2458.28 1892.28C2459.18 1890.64 2459.86 1889.24 2460.31 1888.06 2460.76 1886.88 2460.99 1885.84 2460.99 1884.94 2460.99 1882.94 2459.8 1881.76 2457.43 1881.38L2457.82 1879.63 2472.4 1879.63 2472 1881.38C2471.36 1881.47 2470.75 1881.71 2470.17 1882.11 2469.59 1882.5 2468.93 1883.15 2468.21 1884.07 2467.48 1884.98 2466.36 1886.75 2464.84 1889.36L2442.03 1928.85 2437.29 1928.85 2434.9 1889.11C2434.8 1887.57 2434.63 1886.24 2434.38 1885.14 2434.13 1884.03 2433.74 1883.17 2433.21 1882.55 2432.67 1881.93 2431.82 1881.54 2430.66 1881.38Z" fill-rule="evenodd"/><text fill="#000000" fill-opacity="0" font-family="Arial,Arial_MSFontService,sans-serif" font-size="49.2251" x="2430.66" y="1922.7">­ЮЉЅ</text><path d="M5.15412-0.148172 8.58987 119.364-1.71837 119.66-5.15412 0.148172ZM18.7499 113.913 4.17661 145.282-12.1748 114.802Z" transform="matrix(1 0 0 -1 1818 1859.28)"/><path d="M5.15625-1.28085e-05 5.15655 119.501-5.15595 119.501-5.15625 1.28085e-05ZM15.469 114.345 0.000360892 145.282-15.4685 114.345Z" transform="matrix(1 0 0 -1 2145 1859.28)"/><path d="M5.15625-1.28085e-05 5.15655 119.501-5.15595 119.501-5.15625 1.28085e-05ZM15.469 114.345 0.000360892 145.282-15.4685 114.345Z" transform="matrix(1 0 0 -1 2451 1859.28)"/><path d="M1825.64 1470.57 1824.15 1342.84 1834.46 1342.72 1835.95 1470.45ZM1813.89 1348.12 1829 1317 1844.83 1347.75Z" fill="#588E31"/><path d="M5.15625-9.32084e-06 5.15656 173.863-5.15594 173.863-5.15625 9.32084e-06ZM15.4691 168.707 0.000360892 199.644-15.4684 168.707Z" fill="#EF949E" transform="matrix(1 0 0 -1 2057 1106.64)"/><path d="M5.15605-0.0450883 6.32402 133.517-3.98809 133.607-5.15605 0.0450883ZM16.591 128.271 1.39341 159.342-14.3453 128.541Z" fill="#F2BA02" transform="matrix(1 0 0 -1 2131 1066.34)"/><path d="M2196.24 1040.17 2195.1 923.83 2205.41 923.729 2206.55 1040.07ZM2184.84 929.088 2200 898 2215.77 928.784Z" fill="#30C0B4"/><path d="M5.15625-1.51081e-05 5.15654 97.3881-5.15596 97.3881-5.15625 1.51081e-05ZM15.469 92.2318 0.000360892 123.169-15.4685 92.2319Z" fill="#C65F10" transform="matrix(1 0 0 -1 2133 747.169)"/><path d="M1686.5 1536C1686.5 1516.39 1702.39 1500.5 1722 1500.5L1888 1500.5C1907.61 1500.5 1923.5 1516.39 1923.5 1536L1923.5 1678C1923.5 1697.61 1907.61 1713.5 1888 1713.5L1722 1713.5C1702.39 1713.5 1686.5 1697.61 1686.5 1678Z" stroke="#325395" stroke-width="4.58333" stroke-miterlimit="8" fill="#EF949E" fill-rule="evenodd"/><text font-family="Microsoft YaHei,Microsoft YaHei_MSFontService,sans-serif" font-weight="400" font-size="73" transform="matrix(1 0 0 1 1731.15 1589)">у║┐ТђД<tspan font-size="73" x="0" y="88">Тўат░ё</tspan></text><path d="M1940.5 474.834C1940.5 458.633 1953.63 445.5 1969.83 445.5L2297.17 445.5C2313.37 445.5 2326.5 458.633 2326.5 474.834L2326.5 592.166C2326.5 608.367 2313.37 621.5 2297.17 621.5L1969.83 621.5C1953.63 621.5 1940.5 608.367 1940.5 592.166Z" stroke="#325395" stroke-width="4.58333" stroke-miterlimit="8" fill="#EF949E" fill-rule="evenodd"/><text font-family="Microsoft YaHei,Microsoft YaHei_MSFontService,sans-serif" font-weight="400" font-size="73" transform="matrix(1 0 0 1 1986.21 560)">у║┐ТђДТўат░ё</text><path d="M2065.5 1483.83C2065.5 1464.32 2081.32 1448.5 2100.83 1448.5L2267.17 1448.5C2286.68 1448.5 2302.5 1464.32 2302.5 1483.83L2302.5 1625.17C2302.5 1644.68 2286.68 1660.5 2267.17 1660.5L2100.83 1660.5C2081.32 1660.5 2065.5 1644.68 2065.5 1625.17Z" stroke="#325395" stroke-width="4.58333" stroke-miterlimit="8" fill="#30C0B4" fill-rule="evenodd"/><path d="M2040.5 1505C2040.5 1485.39 2056.39 1469.5 2076 1469.5L2241 1469.5C2260.61 1469.5 2276.5 1485.39 2276.5 1505L2276.5 1647C2276.5 1666.61 2260.61 1682.5 2241 1682.5L2076 1682.5C2056.39 1682.5 2040.5 1666.61 2040.5 1647Z" stroke="#325395" stroke-width="4.58333" stroke-miterlimit="8" fill="#F5B482" fill-rule="evenodd"/><path d="M2014.5 1534.83C2014.5 1515.32 2030.32 1499.5 2049.83 1499.5L2216.17 1499.5C2235.68 1499.5 2251.5 1515.32 2251.5 1534.83L2251.5 1676.17C2251.5 1695.68 2235.68 1711.5 2216.17 1711.5L2049.83 1711.5C2030.32 1711.5 2014.5 1695.68 2014.5 1676.17Z" stroke="#325395" stroke-width="4.58333" stroke-miterlimit="8" fill="#EF949E" fill-rule="evenodd"/><text font-family="Microsoft YaHei,Microsoft YaHei_MSFontService,sans-serif" font-weight="400" font-size="73" transform="matrix(1 0 0 1 2058.83 1588)">у║┐ТђД<tspan font-size="73" x="0" y="88">Тўат░ё</tspan></text><path d="M2403.5 1485.83C2403.5 1466.32 2419.32 1450.5 2438.83 1450.5L2605.17 1450.5C2624.68 1450.5 2640.5 1466.32 2640.5 1485.83L2640.5 1627.17C2640.5 1646.68 2624.68 1662.5 2605.17 1662.5L2438.83 1662.5C2419.32 1662.5 2403.5 1646.68 2403.5 1627.17Z" stroke="#325395" stroke-width="4.58333" stroke-miterlimit="8" fill="#30C0B4" fill-rule="evenodd"/><path d="M2377.5 1506.83C2377.5 1487.32 2393.32 1471.5 2412.83 1471.5L2579.17 1471.5C2598.68 1471.5 2614.5 1487.32 2614.5 1506.83L2614.5 1648.17C2614.5 1667.68 2598.68 1683.5 2579.17 1683.5L2412.83 1683.5C2393.32 1683.5 2377.5 1667.68 2377.5 1648.17Z" stroke="#325395" stroke-width="4.58333" stroke-miterlimit="8" fill="#F5B482" fill-rule="evenodd"/><path d="M2351.5 1536C2351.5 1516.39 2367.39 1500.5 2387 1500.5L2553 1500.5C2572.61 1500.5 2588.5 1516.39 2588.5 1536L2588.5 1678C2588.5 1697.61 2572.61 1713.5 2553 1713.5L2387 1713.5C2367.39 1713.5 2351.5 1697.61 2351.5 1678Z" stroke="#325395" stroke-width="4.58333" stroke-miterlimit="8" fill="#EF949E" fill-rule="evenodd"/><text font-family="Microsoft YaHei,Microsoft YaHei_MSFontService,sans-serif" font-weight="400" font-size="73" transform="matrix(1 0 0 1 2396.11 1590)">у║┐ТђД<tspan font-size="73" x="0" y="88">Тўат░ё</tspan></text><path d="M5.15625-1.22424e-05 5.15655 126.219-5.15595 126.219-5.15625 1.22424e-05ZM15.469 121.062 0.000360892 152-15.4685 121.062Z" fill="#588E31" transform="matrix(1 0 0 -1 2451 1469)"/><path d="M2153.22 1469.48 2152.91 1339.79 2163.22 1339.77 2163.53 1469.45ZM2142.61 1344.98 2158 1314 2173.54 1344.9Z" fill="#588E31"/><path d="M5.15625-1.51081e-05 5.15654 97.3881-5.15596 97.3881-5.15625 1.51081e-05ZM15.469 92.2318 0.000360892 123.169-15.4685 92.2319Z" fill="#C65F10" transform="matrix(1 0 0 -1 2131 445.169)"/></g></svg>