<svg width="3277" height="1343" xmlns="http://www.w3.org/2000/svg" xmlns:xlink="http://www.w3.org/1999/xlink" overflow="hidden"><defs><clipPath id="clip0"><rect x="388" y="114" width="3277" height="1343"/></clipPath></defs><g clip-path="url(#clip0)" transform="translate(-388 -114)"><rect x="592.5" y="437.5" width="249" height="1016" stroke="#000000" stroke-width="6.875" stroke-miterlimit="8" fill="#FFFFFF"/><path d="M663.5 651C663.5 618.691 689.691 592.5 722 592.5 754.309 592.5 780.5 618.691 780.5 651 780.5 683.309 754.309 709.5 722 709.5 689.691 709.5 663.5 683.309 663.5 651Z" stroke="#325395" stroke-width="4.58333" stroke-miterlimit="8" fill="#4874CB" fill-rule="evenodd"/><path d="M663.5 945C663.5 912.691 689.691 886.5 722 886.5 754.309 886.5 780.5 912.691 780.5 945 780.5 977.309 754.309 1003.5 722 1003.5 689.691 1003.5 663.5 977.309 663.5 945Z" stroke="#325395" stroke-width="4.58333" stroke-miterlimit="8" fill="#4874CB" fill-rule="evenodd"/><path d="M663.5 1238C663.5 1205.69 689.691 1179.5 722 1179.5 754.309 1179.5 780.5 1205.69 780.5 1238 780.5 1270.31 754.309 1296.5 722 1296.5 689.691 1296.5 663.5 1270.31 663.5 1238Z" stroke="#325395" stroke-width="4.58333" stroke-miterlimit="8" fill="#4874CB" fill-rule="evenodd"/><rect x="1246.5" y="437.5" width="249" height="1016" stroke="#000000" stroke-width="6.875" stroke-miterlimit="8" fill="#FFFFFF"/><path d="M1317.5 651C1317.5 618.691 1343.47 592.5 1375.5 592.5 1407.53 592.5 1433.5 618.691 1433.5 651 1433.5 683.309 1407.53 709.5 1375.5 709.5 1343.47 709.5 1317.5 683.309 1317.5 651Z" stroke="#F2BA02" stroke-width="4.58333" stroke-miterlimit="8" fill="#F2BA02" fill-rule="evenodd"/><path d="M1317.5 945C1317.5 912.691 1343.47 886.5 1375.5 886.5 1407.53 886.5 1433.5 912.691 1433.5 945 1433.5 977.309 1407.53 1003.5 1375.5 1003.5 1343.47 1003.5 1317.5 977.309 1317.5 945Z" stroke="#F2BA02" stroke-width="4.58333" stroke-miterlimit="8" fill="#F2BA02" fill-rule="evenodd"/><path d="M1317.5 1238C1317.5 1205.69 1343.47 1179.5 1375.5 1179.5 1407.53 1179.5 1433.5 1205.69 1433.5 1238 1433.5 1270.31 1407.53 1296.5 1375.5 1296.5 1343.47 1296.5 1317.5 1270.31 1317.5 1238Z" stroke="#F2BA02" stroke-width="4.58333" stroke-miterlimit="8" fill="#F2BA02" fill-rule="evenodd"/><rect x="3206.5" y="563.5" width="249" height="773" stroke="#000000" stroke-width="6.875" stroke-miterlimit="8" fill="#FFFFFF"/><path d="M3277.5 793C3277.5 760.691 3303.69 734.5 3336 734.5 3368.31 734.5 3394.5 760.691 3394.5 793 3394.5 825.309 3368.31 851.5 3336 851.5 3303.69 851.5 3277.5 825.309 3277.5 793Z" stroke="#588E31" stroke-width="4.58333" stroke-miterlimit="8" fill="#588E31" fill-rule="evenodd"/><path d="M3277.5 1121.5C3277.5 1089.47 3303.69 1063.5 3336 1063.5 3368.31 1063.5 3394.5 1089.47 3394.5 1121.5 3394.5 1153.53 3368.31 1179.5 3336 1179.5 3303.69 1179.5 3277.5 1153.53 3277.5 1121.5Z" stroke="#588E31" stroke-width="4.58333" stroke-miterlimit="8" fill="#588E31" fill-rule="evenodd"/><path d="M780.5 650.5 1317.56 650.5" stroke="#000000" stroke-width="6.875" stroke-miterlimit="8" fill="none" fill-rule="evenodd"/><path d="M780.5 650.5 1317.56 944.912" stroke="#000000" stroke-width="6.875" stroke-miterlimit="8" fill="none" fill-rule="evenodd"/><path d="M780.5 650.5 1317.56 1237.71" stroke="#000000" stroke-width="6.875" stroke-miterlimit="8" fill="none" fill-rule="evenodd"/><path d="M780.5 945.5 1317.56 945.501" stroke="#000000" stroke-width="6.875" stroke-miterlimit="8" fill="none" fill-rule="evenodd"/><path d="M0 0 537.059 294.412" stroke="#000000" stroke-width="6.875" stroke-miterlimit="8" fill="none" fill-rule="evenodd" transform="matrix(1 0 0 -1 780.5 944.912)"/><path d="M780.5 945.5 1317.56 1238.29" stroke="#000000" stroke-width="6.875" stroke-miterlimit="8" fill="none" fill-rule="evenodd"/><path d="M780.5 1238.5 1317.56 1238.5" stroke="#000000" stroke-width="6.875" stroke-miterlimit="8" fill="none" fill-rule="evenodd"/><path d="M0 0 537.059 292.794" stroke="#000000" stroke-width="6.875" stroke-miterlimit="8" fill="none" fill-rule="evenodd" transform="matrix(1 0 0 -1 780.5 1238.29)"/><path d="M0 0 537.059 587.206" stroke="#000000" stroke-width="6.875" stroke-miterlimit="8" fill="none" fill-rule="evenodd" transform="matrix(1 0 0 -1 780.5 1237.71)"/><rect x="1899.5" y="437.5" width="249" height="1016" stroke="#000000" stroke-width="6.875" stroke-miterlimit="8" fill="#FFFFFF"/><path d="M1970.5 651C1970.5 618.691 1996.69 592.5 2029 592.5 2061.31 592.5 2087.5 618.691 2087.5 651 2087.5 683.309 2061.31 709.5 2029 709.5 1996.69 709.5 1970.5 683.309 1970.5 651Z" stroke="#F2BA02" stroke-width="4.58333" stroke-miterlimit="8" fill="#F2BA02" fill-rule="evenodd"/><path d="M1970.5 945C1970.5 912.691 1996.69 886.5 2029 886.5 2061.31 886.5 2087.5 912.691 2087.5 945 2087.5 977.309 2061.31 1003.5 2029 1003.5 1996.69 1003.5 1970.5 977.309 1970.5 945Z" stroke="#F2BA02" stroke-width="4.58333" stroke-miterlimit="8" fill="#F2BA02" fill-rule="evenodd"/><path d="M1970.5 1238C1970.5 1205.69 1996.69 1179.5 2029 1179.5 2061.31 1179.5 2087.5 1205.69 2087.5 1238 2087.5 1270.31 2061.31 1296.5 2029 1296.5 1996.69 1296.5 1970.5 1270.31 1970.5 1238Z" stroke="#F2BA02" stroke-width="4.58333" stroke-miterlimit="8" fill="#F2BA02" fill-rule="evenodd"/><rect x="2553.5" y="437.5" width="249" height="1016" stroke="#000000" stroke-width="6.875" stroke-miterlimit="8" fill="#FFFFFF"/><path d="M2624.5 651C2624.5 618.691 2650.47 592.5 2682.5 592.5 2714.53 592.5 2740.5 618.691 2740.5 651 2740.5 683.309 2714.53 709.5 2682.5 709.5 2650.47 709.5 2624.5 683.309 2624.5 651Z" stroke="#F2BA02" stroke-width="4.58333" stroke-miterlimit="8" fill="#F2BA02" fill-rule="evenodd"/><path d="M2624.5 945C2624.5 912.691 2650.47 886.5 2682.5 886.5 2714.53 886.5 2740.5 912.691 2740.5 945 2740.5 977.309 2714.53 1003.5 2682.5 1003.5 2650.47 1003.5 2624.5 977.309 2624.5 945Z" stroke="#F2BA02" stroke-width="4.58333" stroke-miterlimit="8" fill="#F2BA02" fill-rule="evenodd"/><path d="M2624.5 1238C2624.5 1205.69 2650.47 1179.5 2682.5 1179.5 2714.53 1179.5 2740.5 1205.69 2740.5 1238 2740.5 1270.31 2714.53 1296.5 2682.5 1296.5 2650.47 1296.5 2624.5 1270.31 2624.5 1238Z" stroke="#F2BA02" stroke-width="4.58333" stroke-miterlimit="8" fill="#F2BA02" fill-rule="evenodd"/><path d="M2087.5 650.5 2624.56 650.5" stroke="#000000" stroke-width="6.875" stroke-miterlimit="8" fill="none" fill-rule="evenodd"/><path d="M2087.5 650.5 2624.56 944.912" stroke="#000000" stroke-width="6.875" stroke-miterlimit="8" fill="none" fill-rule="evenodd"/><path d="M2087.5 650.5 2624.56 1237.71" stroke="#000000" stroke-width="6.875" stroke-miterlimit="8" fill="none" fill-rule="evenodd"/><path d="M2087.5 945.5 2624.56 945.501" stroke="#000000" stroke-width="6.875" stroke-miterlimit="8" fill="none" fill-rule="evenodd"/><path d="M0 0 537.059 294.412" stroke="#000000" stroke-width="6.875" stroke-miterlimit="8" fill="none" fill-rule="evenodd" transform="matrix(1 0 0 -1 2087.5 944.912)"/><path d="M2087.5 945.5 2624.56 1238.29" stroke="#000000" stroke-width="6.875" stroke-miterlimit="8" fill="none" fill-rule="evenodd"/><path d="M2087.5 1238.5 2624.56 1238.5" stroke="#000000" stroke-width="6.875" stroke-miterlimit="8" fill="none" fill-rule="evenodd"/><path d="M0 0 537.059 292.794" stroke="#000000" stroke-width="6.875" stroke-miterlimit="8" fill="none" fill-rule="evenodd" transform="matrix(1 0 0 -1 2087.5 1238.29)"/><path d="M0 0 537.059 587.206" stroke="#000000" stroke-width="6.875" stroke-miterlimit="8" fill="none" fill-rule="evenodd" transform="matrix(1 0 0 -1 2087.5 1237.71)"/><path d="M1433.5 650.5 1970.56 650.5" stroke="#000000" stroke-width="6.875" stroke-miterlimit="8" fill="none" fill-rule="evenodd"/><path d="M1433.5 650.5 1970.56 944.912" stroke="#000000" stroke-width="6.875" stroke-miterlimit="8" fill="none" fill-rule="evenodd"/><path d="M1433.5 650.5 1970.56 1237.71" stroke="#000000" stroke-width="6.875" stroke-miterlimit="8" fill="none" fill-rule="evenodd"/><path d="M1433.5 945.5 1970.56 945.501" stroke="#000000" stroke-width="6.875" stroke-miterlimit="8" fill="none" fill-rule="evenodd"/><path d="M0 0 537.059 299.265" stroke="#000000" stroke-width="6.875" stroke-miterlimit="8" fill="none" fill-rule="evenodd" transform="matrix(1 0 0 -1 1433.5 949.764)"/><path d="M1433.5 950.5 1970.56 1246.53" stroke="#000000" stroke-width="6.875" stroke-miterlimit="8" fill="none" fill-rule="evenodd"/><path d="M0 0 537.059 587.206" stroke="#000000" stroke-width="6.875" stroke-miterlimit="8" fill="none" fill-rule="evenodd" transform="matrix(1 0 0 -1 1433.5 1237.71)"/><path d="M0 0 537.059 292.794" stroke="#000000" stroke-width="6.875" stroke-miterlimit="8" fill="none" fill-rule="evenodd" transform="matrix(1 0 0 -1 1433.5 1238.29)"/><path d="M0 0 537.059 4.85256" stroke="#000000" stroke-width="6.875" stroke-miterlimit="8" fill="none" fill-rule="evenodd" transform="matrix(1 0 0 -1 1433.5 1243.35)"/><path d="M2740.5 650.5 3277.56 792.853" stroke="#000000" stroke-width="6.875" stroke-miterlimit="8" fill="none" fill-rule="evenodd"/><path d="M2740.5 650.5 3277.56 1121.23" stroke="#000000" stroke-width="6.875" stroke-miterlimit="8" fill="none" fill-rule="evenodd"/><path d="M0 0 3.23648 2.42664" stroke="#4874CB" stroke-width="4.58333" stroke-miterlimit="8" fill="none" fill-rule="evenodd" transform="matrix(1 0 0 -1 2740.5 943.927)"/><path d="M0 0 538.677 150.037" stroke="#000000" stroke-width="6.875" stroke-miterlimit="8" fill="none" fill-rule="evenodd" transform="matrix(1 0 0 -1 2739.5 943.537)"/><path d="M2740.5 945.5 3277.56 1121.82" stroke="#000000" stroke-width="6.875" stroke-miterlimit="8" fill="none" fill-rule="evenodd"/><path d="M0 0 537.059 444.853" stroke="#000000" stroke-width="6.875" stroke-miterlimit="8" fill="none" fill-rule="evenodd" transform="matrix(1 0 0 -1 2740.5 1238.35)"/><path d="M0 0 535.441 121.323" stroke="#000000" stroke-width="6.875" stroke-miterlimit="8" fill="none" fill-rule="evenodd" transform="matrix(1 0 0 -1 2742.5 1242.82)"/><rect x="390.5" y="123.5" width="653" height="184" stroke="#FFFFFF" stroke-width="4.58333" stroke-miterlimit="8" fill="#FFFFFF"/><text fill="#7030A0" font-family="Microsoft YaHei,Microsoft YaHei_MSFontService,sans-serif" font-weight="400" font-size="110" transform="matrix(1 0 0 1 551.618 253)">输入层</text><rect x="1697.5" y="123.5" width="653" height="184" stroke="#FFFFFF" stroke-width="4.58333" stroke-miterlimit="8" fill="#FFFFFF"/><text fill="#333F50" font-family="Microsoft YaHei,Microsoft YaHei_MSFontService,sans-serif" font-weight="400" font-size="110" transform="matrix(1 0 0 1 1748.68 253)">若干隐藏层</text><rect x="3009.5" y="123.5" width="653" height="184" stroke="#FFFFFF" stroke-width="4.58333" stroke-miterlimit="8" fill="#FFFFFF"/><text fill="#C81D31" font-family="Microsoft YaHei,Microsoft YaHei_MSFontService,sans-serif" font-weight="400" font-size="110" transform="matrix(1 0 0 1 3170.59 253)">输出层</text></g></svg>