<svg width="3865" height="1770" xmlns="http://www.w3.org/2000/svg" xmlns:xlink="http://www.w3.org/1999/xlink" overflow="hidden"><defs><clipPath id="clip0"><rect x="435" y="291" width="3865" height="1770"/></clipPath></defs><g clip-path="url(#clip0)" transform="translate(-435 -291)"><rect x="1661.5" y="293.5" width="1181" height="197" stroke="#325395" stroke-width="4.58333" stroke-miterlimit="8" fill="#75BD42"/><text font-family="Microsoft YaHei,Microsoft YaHei_MSFontService,sans-serif" font-weight="700" font-size="83" transform="matrix(1 0 0 1 1839.26 420)">港口设备<tspan font-size="83" x="330" y="0">异常</tspan><tspan font-size="83" x="495" y="0">分析</tspan>系统</text><rect x="582.5" y="903.5" width="486" height="197" stroke="#325395" stroke-width="4.58333" stroke-miterlimit="8" fill="#30C0B4"/><text font-family="Microsoft YaHei,Microsoft YaHei_MSFontService,sans-serif" font-weight="700" font-size="83" transform="matrix(1 0 0 1 660 1030)">模式选择</text><rect x="1591.5" y="903.5" width="485" height="197" stroke="#325395" stroke-width="4.58333" stroke-miterlimit="8" fill="#30C0B4"/><text font-family="Microsoft YaHei,Microsoft YaHei_MSFontService,sans-serif" font-weight="700" font-size="83" transform="matrix(1 0 0 1 1627.35 1030)">数据集选择</text><rect x="2600.5" y="903.5" width="485" height="197" stroke="#325395" stroke-width="4.58333" stroke-miterlimit="8" fill="#30C0B4"/><text font-family="Microsoft YaHei,Microsoft YaHei_MSFontService,sans-serif" font-weight="700" font-size="83" transform="matrix(1 0 0 1 2677.21 1030)">参数设置</text><rect x="3607.5" y="903.5" width="486" height="197" stroke="#325395" stroke-width="4.58333" stroke-miterlimit="8" fill="#30C0B4"/><text font-family="Microsoft YaHei,Microsoft YaHei_MSFontService,sans-serif" font-weight="700" font-size="83" transform="matrix(1 0 0 1 3685 1030)">结果展示</text><rect x="450.5" y="1349.5" width="236" height="709" stroke="#325395" stroke-width="4.58333" stroke-miterlimit="8" fill="#F5B482"/><text font-family="Microsoft YaHei,Microsoft YaHei_MSFontService,sans-serif" font-weight="700" font-size="83" transform="matrix(1 0 0 1 485.293 1683)">异常<tspan font-size="83" x="0" y="98">检测</tspan></text><rect x="930.5" y="1349.5" width="236" height="709" stroke="#325395" stroke-width="4.58333" stroke-miterlimit="8" fill="#F5B482"/><text font-family="Microsoft YaHei,Microsoft YaHei_MSFontService,sans-serif" font-weight="700" font-size="83" transform="matrix(1 0 0 1 965.731 1683)">异常<tspan font-size="83" x="0" y="98">预测</tspan></text><rect x="1496.5" y="1349.5" width="236" height="709" stroke="#325395" stroke-width="4.58333" stroke-miterlimit="8" fill="#F5B482"/><text font-family="Microsoft YaHei,Microsoft YaHei_MSFontService,sans-serif" font-weight="700" font-size="83" transform="matrix(1 0 0 1 1531.91 1634)">公开<tspan font-size="83" x="0" y="99">数据</tspan><tspan font-size="83" x="41.25" y="197">集</tspan></text><rect x="1982.5" y="1349.5" width="236" height="709" stroke="#325395" stroke-width="4.58333" stroke-miterlimit="8" fill="#F5B482"/><text font-family="Microsoft YaHei,Microsoft YaHei_MSFontService,sans-serif" font-weight="700" font-size="83" transform="matrix(1 0 0 1 2017.2 1634)">自定<tspan font-size="83" x="0" y="99">义数</tspan><tspan font-size="83" x="0" y="197">据集</tspan></text><rect x="2511.5" y="1349.5" width="236" height="709" stroke="#325395" stroke-width="4.58333" stroke-miterlimit="8" fill="#F5B482"/><text font-family="Microsoft YaHei,Microsoft YaHei_MSFontService,sans-serif" font-weight="700" font-size="83" transform="matrix(1 0 0 1 2546.17 1634)">系统<tspan font-size="83" x="0" y="99">设置</tspan><tspan font-size="83" x="0" y="197">参数</tspan></text><rect x="2996.5" y="1349.5" width="236" height="709" stroke="#325395" stroke-width="4.58333" stroke-miterlimit="8" fill="#F5B482"/><text font-family="Microsoft YaHei,Microsoft YaHei_MSFontService,sans-serif" font-weight="700" font-size="83" transform="matrix(1 0 0 1 3031.47 1634)">模型<tspan font-size="83" x="0" y="99">超参</tspan><tspan font-size="83" x="41.25" y="197">数</tspan></text><rect x="3489.5" y="1349.5" width="236" height="709" stroke="#325395" stroke-width="4.58333" stroke-miterlimit="8" fill="#F5B482"/><text font-family="Microsoft YaHei,Microsoft YaHei_MSFontService,sans-serif" font-weight="700" font-size="83" transform="matrix(1 0 0 1 3524.85 1485)">异常<tspan font-size="83" x="0" y="99">点统</tspan><tspan font-size="83" x="0" y="198">计、</tspan><tspan font-size="83" x="0" y="297">模型</tspan><tspan font-size="83" x="0" y="396">性能</tspan><tspan font-size="83" x="0" y="494">指标</tspan></text><rect x="3970.5" y="1349.5" width="236" height="709" stroke="#325395" stroke-width="4.58333" stroke-miterlimit="8" fill="#F5B482"/><text font-family="Microsoft YaHei,Microsoft YaHei_MSFontService,sans-serif" font-weight="700" font-size="83" transform="matrix(1 0 0 1 4002.7 1485)">异常<tspan font-size="83" x="0" y="99">预测</tspan><tspan font-size="83" x="0" y="198">结果、</tspan><tspan font-size="83" x="0" y="297">模型</tspan><tspan font-size="83" x="0" y="396">性能</tspan><tspan font-size="83" x="0" y="494">指标</tspan></text><path d="M0.954731-3.30226 1405.7 402.83 1403.79 409.435-0.954731 3.30226ZM1404.17 391.652 1426.76 412.499 1396.53 418.07Z" transform="matrix(-1 0 0 1 2252.26 490.5)"/><path d="M2.41405-2.4472 404.261 393.956 399.433 398.851-2.41405 2.4472ZM408.241 383.396 418.162 412.497 388.928 402.974Z" transform="matrix(-1 0 0 1 2252.66 490.5)"/><path d="M2254.47 487.682 2826.12 887.055 2822.19 892.691 2250.53 493.318ZM2828.27 875.977 2842.94 902.998 2812.52 898.52Z"/><path d="M2253.36 487.172 3829.4 893.941 3827.68 900.598 2251.64 493.828ZM3827.54 882.811 3850.74 902.997 3820.67 909.439Z"/><path d="M2.39154-2.4692 243.137 230.704 238.354 235.643-2.39154 2.4692ZM247.019 220.108 257.207 249.117 227.887 239.862Z" transform="matrix(-1 0 0 1 825.707 1100.5)"/><path d="M828.06 1098.21 1036 1330.26 1030.88 1334.84 822.94 1102.79ZM1040.62 1319.96 1048.73 1349.62 1020.14 1338.31Z"/><path d="M2.58073-2.27073 206.636 229.643 201.475 234.184-2.58073 2.27073ZM211.35 219.389 219.193 249.118 190.705 237.555Z" transform="matrix(-1 0 0 1 1833.69 1100.5)"/><path d="M1836.85 1097.99 2086.22 1331.45 2081.52 1336.47 1832.15 1103.01ZM2089.92 1320.79 2100.6 1349.62 2071.13 1340.86Z"/><path d="M2.60994-2.2371 201.226 229.48 196.006 233.954-2.60994 2.2371ZM206.073 219.289 213.53 249.117 185.194 237.186Z" transform="matrix(-1 0 0 1 2843.03 1100.5)"/><path d="M2844.82 1097.97 3099.69 1331.6 3095.05 1336.67 2840.18 1103.03ZM3103.28 1320.9 3114.26 1349.62 3084.7 1341.17Z"/><path d="M2.46245-2.39849 229.12 230.302 224.195 235.099-2.46245 2.39849ZM233.309 219.824 242.647 249.117 213.609 239.012Z" transform="matrix(-1 0 0 1 3850.15 1100.5)"/><path d="M3852.99 1098.13 4074.95 1330.67 4069.98 1335.41 3848.01 1102.87ZM4079.25 1320.23 4088.29 1349.62 4059.36 1339.22Z"/></g></svg>